<?xml version="1.0" encoding="UTF-8" standalone="no"?><!DOCTYPE svg PUBLIC "-//W3C//DTD SVG 1.1//EN" "http://www.w3.org/Graphics/SVG/1.1/DTD/svg11.dtd"><svg width="100%" height="100%" viewBox="0 0 350 120" version="1.1" xmlns="http://www.w3.org/2000/svg" xmlns:xlink="http://www.w3.org/1999/xlink" xml:space="preserve" xmlns:serif="http://www.serif.com/" style="fill-rule:evenodd;clip-rule:evenodd;stroke-linejoin:round;stroke-miterlimit:2;"><rect x="0" y="0" width="350" height="120" style="fill:#008ebd;"/><g><path d="M183.465,18.849l14,14l-14,0l0,-14m0,-2c-0.258,0 -0.517,0.05 -0.765,0.152c-0.747,0.31 -1.235,1.039 -1.235,1.848l0,14c0,1.105 0.895,2 2,2l14,0c0.809,0 1.538,-0.487 1.848,-1.235c0.31,-0.747 0.138,-1.608 -0.434,-2.18l-14,-14c-0.382,-0.382 -0.894,-0.585 -1.414,-0.585Z" style="fill:#fff;fill-rule:nonzero;"/><path d="M183.287,18.849l14.178,14.178l0,57.822l-62,0l0,-72l47.822,0m0,-2l-47.822,0c-1.105,0 -2,0.895 -2,2l0,72c0,1.105 0.895,2 2,2l62,0c1.105,0 2,-0.895 2,-2l0,-57.822c0,-0.53 -0.211,-1.039 -0.586,-1.414l-14.178,-14.178c-0.374,-0.375 -0.883,-0.586 -1.414,-0.586Z" style="fill:#fff;fill-rule:nonzero;"/></g><g><circle cx="199.5" cy="88" r="15" style="fill:#008ebd;"/><path d="M199.5,74c7.732,0 14,6.268 14,14c0,7.732 -6.268,14 -14,14c-7.732,0 -14,-6.268 -14,-14c0,-7.732 6.268,-14 14,-14m0,-2c-8.822,0 -16,7.178 -16,16c0,8.822 7.178,16 16,16c8.822,0 16,-7.178 16,-16c0,-8.822 -7.178,-16 -16,-16Z" style="fill:#fff;fill-rule:nonzero;"/></g><path d="M192.328,89.637l3.726,3.718c0.508,0.508 1.381,0.561 1.939,0.108l9.31,-7.446c0.308,-0.245 0.5,-0.594 0.543,-0.982c0.042,-0.388 -0.069,-0.768 -0.313,-1.071c-0.242,-0.305 -0.589,-0.495 -0.977,-0.537c-0.384,-0.047 -0.767,0.066 -1.071,0.308l-8.288,6.632l-2.799,-2.799c-0.285,-0.285 -0.659,-0.428 -1.034,-0.428c-0.375,0 -0.749,0.143 -1.035,0.428c-0.275,0.276 -0.428,0.645 -0.428,1.036c-0.001,0.389 0.152,0.757 0.427,1.033Z" style="fill:#fff;fill-rule:nonzero;"/><path d="M172.442,46.614l-11.954,0c0,-3.385 2.132,-7.14 5.977,-7.14c3.845,0 5.977,3.763 5.977,7.14Zm-5.977,-11.241c-6.409,0 -10.63,5.585 -10.63,11.241c0,0 -3.742,-0.111 -4.324,1.21c-0.776,1.756 -0.328,7.041 -0.328,8.327l0,15.849c0,1.286 0.044,2.325 1.328,2.325l27.908,0c1.284,0 1.328,-1.039 1.328,-2.325l0,-15.849c0,-1.286 0.448,-6.571 -0.328,-8.327c-0.582,-1.321 -4.324,-1.21 -4.324,-1.21c0,-5.637 -4.207,-11.241 -10.63,-11.241Z" style="fill:#008ebd;stroke:#fff;stroke-width:2px;"/><path d="M169.919,66.337c0,2.253 -1.993,3.06 -4.176,3.06c-1.163,0 -2.373,-0.213 -3.464,-0.593l0.403,-1.305c0.926,0.308 2.041,0.593 3.109,0.593c1.091,0 2.491,-0.308 2.491,-1.661c0,-1.399 -1.305,-2.063 -2.681,-2.752c-1.518,-0.735 -3.132,-1.542 -3.132,-3.369c0,-1.21 0.712,-2.158 2.017,-3.06c-0.973,-0.617 -1.732,-1.447 -1.732,-2.729c0,-2.04 2.016,-2.823 3.891,-2.823c1.186,0 2.348,0.19 3.202,0.546l-0.308,1.376c-0.878,-0.38 -2.017,-0.594 -2.895,-0.594c-1.139,0 -2.254,0.404 -2.254,1.518c0,1.163 1.186,1.733 2.468,2.373c1.59,0.759 3.345,1.613 3.345,3.63c0,1.021 -0.474,1.898 -2.135,2.776c1.02,0.665 1.851,1.566 1.851,3.014Zm-3.417,-3.844c0.119,0.048 0.237,0.119 0.356,0.166c0.901,-0.545 1.685,-1.067 1.685,-2.016c0,-1.258 -1.234,-1.875 -2.515,-2.539l-0.332,-0.142c-0.76,0.546 -1.614,1.234 -1.614,2.183c0,1.138 1.163,1.708 2.42,2.348Z" style="fill:#fff;fill-rule:nonzero;stroke:#fff;stroke-width:0.35px;"/></svg>