<?xml version="1.0" encoding="iso-8859-1"?>
<!-- Generator: Adobe Illustrator 23.0.1, SVG Export Plug-In . SVG Version: 6.00 Build 0)  -->
<svg version="1.1" id="Ebene_1" xmlns="http://www.w3.org/2000/svg" xmlns:xlink="http://www.w3.org/1999/xlink" x="0px" y="0px"
	 viewBox="0 0 350 120" style="enable-background:new 0 0 350 120;" xml:space="preserve">
<rect x="-0.094" y="0.18" style="fill:#008EBD;" width="350" height="120"/>
<g>
	<g>
		
			<ellipse transform="matrix(0.9732 -0.2298 0.2298 0.9732 -3.3958 38.0506)" style="fill:#FFFFFF;" cx="161.702" cy="33.608" rx="21.069" ry="21.069"/>
		<path style="fill:#FFFFFF;" d="M196.61,74.125c-0.396-8.412-5.581-15.542-12.773-18.412c-5.973,5.064-13.691,8.132-22.136,8.132
			c-8.397,0-16.079-3.031-22.039-8.044c-0.335,0.135-0.675,0.258-1.001,0.411c-0.127,0.06-0.252,0.121-0.378,0.183
			c-2.077,1.032-3.961,2.428-5.574,4.109c-0.098,0.101-0.192,0.205-0.288,0.308c-3.231,3.509-5.301,8.186-5.548,13.343
			c-0.017,0.344-0.015,0.691-0.015,1.039v21.654c0,0.444,0.412,0.343,0.837,0.343h68.322c0.425,0,0.601,0.102,0.601-0.343V75.194
			C196.62,74.846,196.627,74.469,196.61,74.125z"/>
	</g>
	<g>
		<path style="fill:#008EBD;" d="M202.376,108.82c-11.897,0-21.577-9.679-21.577-21.576s9.679-21.577,21.577-21.577
			s21.576,9.68,21.576,21.577S214.273,108.82,202.376,108.82z"/>
		<path style="fill:#FFFFFF;" d="M202.376,66.667c11.364,0,20.577,9.212,20.577,20.577s-9.212,20.577-20.577,20.577
			s-20.577-9.212-20.577-20.577S191.012,66.667,202.376,66.667 M202.376,64.667c-12.449,0-22.577,10.128-22.577,22.577
			s10.128,22.577,22.577,22.577s22.577-10.128,22.577-22.577S214.825,64.667,202.376,64.667L202.376,64.667z"/>
	</g>
	<path style="fill:#FFFFFF;" d="M215.756,90.691l-2.464-1.423c0.249-1.342,0.249-2.718,0-4.06l2.464-1.423
		c0.283-0.162,0.411-0.497,0.318-0.81c-0.642-2.059-1.735-3.921-3.164-5.471c-0.22-0.237-0.578-0.295-0.856-0.133l-2.464,1.423
		c-1.035-0.891-2.227-1.579-3.516-2.03v-2.84c0-0.324-0.226-0.607-0.544-0.677c-2.123-0.474-4.297-0.451-6.316,0
		c-0.318,0.069-0.544,0.353-0.544,0.677v2.845c-1.284,0.457-2.475,1.145-3.516,2.03l-2.458-1.423
		c-0.283-0.162-0.636-0.11-0.856,0.133c-1.429,1.544-2.522,3.406-3.164,5.471c-0.098,0.312,0.035,0.648,0.318,0.81l2.464,1.423
		c-0.249,1.342-0.249,2.718,0,4.06l-2.464,1.423c-0.283,0.162-0.411,0.497-0.318,0.81c0.642,2.059,1.735,3.921,3.164,5.471
		c0.22,0.237,0.578,0.295,0.856,0.133l2.464-1.423c1.035,0.891,2.227,1.579,3.516,2.03v2.845c0,0.324,0.226,0.607,0.544,0.677
		c2.123,0.474,4.297,0.451,6.316,0c0.318-0.069,0.544-0.353,0.544-0.677v-2.845c1.284-0.457,2.475-1.145,3.516-2.03l2.464,1.423
		c0.283,0.162,0.636,0.11,0.856-0.133c1.429-1.544,2.522-3.406,3.164-5.471C216.166,91.188,216.039,90.853,215.756,90.691z
		 M202.373,91.865c-2.551,0-4.627-2.076-4.627-4.627c0-2.551,2.076-4.627,4.627-4.627s4.627,2.076,4.627,4.627
		C206.999,89.788,204.923,91.865,202.373,91.865z"/>
</g>
</svg>
