<?xml version="1.0" encoding="UTF-8" standalone="no"?><!DOCTYPE svg PUBLIC "-//W3C//DTD SVG 1.1//EN" "http://www.w3.org/Graphics/SVG/1.1/DTD/svg11.dtd"><svg width="100%" height="100%" viewBox="0 0 350 120" version="1.1" xmlns="http://www.w3.org/2000/svg" xmlns:xlink="http://www.w3.org/1999/xlink" xml:space="preserve" xmlns:serif="http://www.serif.com/" style="fill-rule:evenodd;clip-rule:evenodd;stroke-linejoin:round;stroke-miterlimit:10;"><rect x="0" y="0" width="350" height="120.184" style="fill:#008ebd;"/><g><path d="M204.68,20.727l0,29.008l-71.939,0l0,-23.296l0,-5.712l71.939,0m0,-2l-16.451,0l-39.038,0l-16.451,0c-1.105,0 -2,0.895 -2,2l0,29.008c0,1.105 0.895,2 2,2l71.939,0c1.105,0 2,-0.895 2,-2l0,-23.296l0,-5.712c0.001,-1.104 -0.894,-2 -1.999,-2Z" style="fill:#fff;fill-rule:nonzero;"/><g><path d="M196.477,44.681c0,-2.194 -1.778,-3.971 -3.971,-3.971l-0.286,0c-2.785,0 -5.042,2.257 -5.042,5.04l-0.213,6.801l-0.472,14.983c-0.107,0.462 -0.168,10.88 -0.168,10.88c-0.881,-0.898 -1.861,-1.925 -2.742,-2.908c-2.056,-2.294 -5.834,-3.839 -8.346,-4.125c-1.323,-0.152 -2.333,0.029 -3.005,0.535c-0.215,0.164 -0.426,0.348 -0.624,0.545c-1.296,1.276 -2.274,3.338 -1.369,4.849c0.391,0.66 24.015,22.165 24.015,22.165c1.908,1.208 5.38,2.338 9.39,2.338c4.003,0 7.639,0.24 10.327,-2.124l0.144,0l0.071,-0.179c2.734,-2.504 4.434,-5.974 4.434,-9.811c0,-0.949 0,-4.448 0,-5.106l0,-13.239c0,-0.899 -0.198,-3.913 -2.732,-4.817c-1.218,-0.433 -2.369,-0.269 -3.35,0.154l-0.229,0.01l-0.071,0.005c-0.441,-1.655 -1.541,-2.724 -3.169,-3.008c-1.966,-0.34 -3.329,0.247 -4.148,0.841c-0.814,-1.751 -2.448,-2.663 -4.658,-2.477c-1.658,0.14 -2.891,0.954 -3.785,2.027l0,-11.287l0,-8.121l-0.001,0Z" style="fill:#008ebd;fill-rule:nonzero;stroke:#fff;stroke-width:2px;"/><path d="M196.573,64.583l0,4.641" style="fill:none;stroke:#fff;stroke-width:2px;stroke-linecap:round;"/><path d="M204.695,64.583l0,6.962" style="fill:none;stroke:#fff;stroke-width:2px;stroke-linecap:round;"/><path d="M212.237,66.904l0,6.961" style="fill:none;stroke:#fff;stroke-width:2px;stroke-linecap:round;"/></g></g><g><path d="M176.739,39.463l-15.359,0c-0.54,0 -0.982,-0.453 -1.001,-1.017c-0.178,-0.735 -2.418,-9.981 -2.548,-10.598l-0.08,-0.379l21.247,0c0.552,0 1.002,0.474 1.002,1.057l-0.007,0.068c0,0 -2.254,9.892 -2.256,9.914c-0.049,0.535 -0.478,0.955 -0.998,0.955Zm-18.186,-11.363c0.456,1.943 2.474,10.335 2.475,10.349c0.018,0.215 0.169,0.383 0.352,0.383l15.359,0c0.175,0 0.321,-0.154 0.349,-0.356c0.003,-0.023 2.263,-9.981 2.263,-9.981c-0.013,-0.22 -0.167,-0.394 -0.353,-0.394l-20.445,0l0,-0.001Z" style="fill:#fff;fill-rule:nonzero;"/><path d="M179.067,27.146l0.068,0.005l0.067,0.009l0.066,0.013l0.065,0.016l0.064,0.019l0.062,0.022l0.061,0.025l0.059,0.029l0.058,0.031l0.056,0.034l0.054,0.036l0.051,0.039l0.05,0.042l0.048,0.043l0.046,0.046l0.044,0.048l0.041,0.051l0.039,0.052l0.036,0.054l0.034,0.056l0.032,0.058l0.029,0.059l0.026,0.061l0.023,0.062l0.021,0.064l0.017,0.065l0.015,0.066l0.011,0.067l0.008,0.069l0.005,0.069l0.002,0.062l-0.002,0.043l-0.007,0.068l-0.007,0.038l-1.127,4.948l-0.775,3.407l-0.256,1.126l-0.093,0.414l-0.005,0.04l-0.01,0.063l-0.013,0.063l-0.016,0.061l-0.018,0.061l-0.021,0.059l-0.023,0.058l-0.026,0.057l-0.028,0.055l-0.03,0.054l-0.033,0.052l-0.035,0.051l-0.037,0.049l-0.039,0.047l-0.041,0.045l-0.043,0.043l-0.045,0.042l-0.046,0.039l-0.049,0.037l-0.05,0.035l-0.052,0.033l-0.053,0.03l-0.055,0.028l-0.057,0.025l-0.058,0.023l-0.059,0.019l-0.06,0.017l-0.062,0.014l-0.062,0.012l-0.064,0.008l-0.064,0.004l-0.061,0.002l-15.368,0l-0.063,-0.002l-0.066,-0.005l-0.066,-0.009l-0.065,-0.012l-0.063,-0.015l-0.063,-0.018l-0.061,-0.021l-0.06,-0.025l-0.058,-0.027l-0.056,-0.03l-0.055,-0.032l-0.053,-0.035l-0.052,-0.037l-0.049,-0.04l-0.047,-0.042l-0.046,-0.044l-0.043,-0.047l-0.041,-0.048l-0.039,-0.05l-0.037,-0.052l-0.034,-0.054l-0.032,-0.056l-0.03,-0.057l-0.027,-0.058l-0.024,-0.061l-0.022,-0.061l-0.019,-0.063l-0.016,-0.064l-0.013,-0.065l-0.01,-0.066l-0.007,-0.067l-0.002,-0.031l-0.448,-1.851l-0.837,-3.464l-0.44,-1.825l-0.388,-1.618l-0.16,-0.669l-0.129,-0.542l-0.091,-0.391l-0.031,-0.132l-0.019,-0.086l-0.08,-0.38l-0.006,-0.052l0.002,-0.052l0.01,-0.052l0.018,-0.049l0.026,-0.046l0.033,-0.04l0.04,-0.035l0.044,-0.028l0.048,-0.021l0.051,-0.013l0.052,-0.004l21.251,0l0.065,0.002Zm-19.619,3.313l0.404,1.69l0.425,1.773l0.744,3.102l0.235,0.981l0.088,0.369l0.007,0.042l0.002,0.013l0.001,0.007l0.001,0.007l0.001,0.006l0.002,0.006l0.002,0.006l0.002,0.006l0.002,0.005l0.002,0.005l0.003,0.005l0.002,0.004l0.002,0.004l0.003,0.003l0.002,0.004l0.002,0.002l0.002,0.003l0.002,0.002l0.002,0.001l0.001,0.002l15.344,0l0.001,-0.001l0.004,-0.003l0.003,-0.004l0.005,-0.006l0.004,-0.007l0.005,-0.009l0.004,-0.01l0.004,-0.011l0.003,-0.012l0.005,-0.032l0.357,-1.577l0.778,-3.43l1.117,-4.925l0,0l-0.002,-0.006l-0.002,-0.006l-0.002,-0.006l-0.002,-0.005l-0.003,-0.005l-0.002,-0.004l-0.002,-0.004l-0.003,-0.004l-0.002,-0.003l-0.002,-0.003l-0.002,-0.003l-0.002,-0.002l-0.002,-0.001l-0.002,-0.002l0,0l-20.027,0l0.142,0.601l0.342,1.432Zm-1.252,-2.472l0.035,0.15l-0.003,-0.036l0,-0.001l0.004,-0.052l0.013,-0.05l0.02,-0.049l0.028,-0.044l0.035,-0.039l0.04,-0.033l0.045,-0.026l0.034,-0.013l-0.295,0l0.014,0.065l0.03,0.128Z" style="fill:#fff;"/><path d="M176.11,41.732l-14.911,0l-3.89,-16.532l-3.89,0" style="fill:none;stroke:#fff;stroke-width:1.48px;stroke-linecap:round;"/><circle cx="164.116" cy="44.65" r="1.945" style="fill:#fff;"/><circle cx="173.517" cy="44.65" r="1.945" style="fill:#fff;"/><path d="M164.116,27.793l2.269,11.67" style="fill:none;stroke:#fff;stroke-width:1.48px;stroke-linejoin:miter;"/><path d="M171.572,39.463l2.269,-11.67" style="fill:none;stroke:#fff;stroke-width:1.48px;stroke-linejoin:miter;"/><path d="M159.578,33.304l18.801,0" style="fill:none;stroke:#fff;stroke-width:1.48px;stroke-linejoin:miter;"/></g></svg>