<?xml version="1.0" encoding="UTF-8" standalone="no"?><!DOCTYPE svg PUBLIC "-//W3C//DTD SVG 1.1//EN" "http://www.w3.org/Graphics/SVG/1.1/DTD/svg11.dtd"><svg width="100%" height="100%" viewBox="0 0 263 90" version="1.1" xmlns="http://www.w3.org/2000/svg" xmlns:xlink="http://www.w3.org/1999/xlink" xml:space="preserve" xmlns:serif="http://www.serif.com/" style="fill-rule:evenodd;clip-rule:evenodd;stroke-linejoin:round;stroke-miterlimit:2;"><rect x="0" y="0" width="262.5" height="90" style="fill:#008ebd;"/><path d="M105.147,75.138c0,0 1.903,-2.368 2.326,-3.228c0.226,-0.423 0.889,-2.228 1.03,-2.961c0.028,-0.197 0.098,-1.086 0.14,-1.988c0.071,-1.621 0.071,-1.649 -0.324,-2.241c-0.225,-0.339 -0.902,-1.297 -1.156,-1.593c-1.438,-1.664 -3.764,-6.034 -4.398,-8.276c-0.17,-0.578 -0.762,-2.805 -0.832,-2.989c-0.071,-0.183 -0.494,-2.171 -0.649,-3.637c-0.127,-1.142 -0.169,-4.948 -0.056,-5.992c0.07,-0.62 0.522,-3.764 0.691,-4.37c0.07,-0.226 0.846,-2.594 0.846,-2.735c0,-0.55 1.621,-4.018 2.721,-5.808c0.169,-0.268 1.832,-2.721 2.523,-3.553c1.339,-1.636 4.145,-4.3 5.061,-4.836c0.155,-0.084 1.537,-1.029 2.016,-1.353c1.269,-0.888 3.99,-2.214 4.216,-2.326c1.085,-0.578 4.384,-1.523 7.077,-2.045c2.481,-0.465 7.556,-0.465 9.699,0.029c0.353,0.07 2.608,0.549 3.045,0.648c0.804,0.169 1.593,0.423 2.016,0.635c0.141,0.07 1.593,0.521 3.708,1.55c1.241,0.592 3.482,2.101 3.539,2.101c0.056,0 0.874,0.677 1.029,0.761c1.17,0.677 5.696,5.188 5.921,5.907c0.028,0.099 0.169,0.296 0.296,0.451c0.324,0.353 1.748,2.721 1.974,3.102c0.24,0.395 1.071,2.086 1.142,2.213c0.888,1.678 2.1,5.823 2.326,7.895c0.028,0.339 0.113,1.114 0.183,1.734c0.155,1.466 0.071,5.865 -0.127,6.753c-0.084,0.367 -0.521,2.947 -0.578,3.045c-0.014,0.043 -0.042,0.141 -0.056,0.212c-0.367,1.945 -1.847,5.526 -3.412,8.247c-0.578,1.029 -1.875,2.637 -1.875,2.735c0,0.212 -3.073,3.609 -3.75,4.131c-0.282,0.211 -2.016,1.579 -2.157,1.72c-0.225,0.225 -1.988,1.41 -2.904,1.945c-0.31,0.184 -2.763,1.396 -3.75,1.861c-0.353,0.155 -3.75,1.255 -4.145,1.368c-0.381,0.113 -3.68,0.648 -3.764,0.705c-0.169,0.113 -6.513,0.127 -6.697,0.014c-0.07,-0.042 -3.665,-0.691 -3.989,-0.733c-0.649,-0.085 -4.625,-1.495 -5.315,-1.847c-1.072,-0.55 -1.354,-0.649 -2.087,-0.649c-0.733,0 -0.959,0.057 -1.621,0.48c-1.17,0.733 -2.792,1.48 -3.877,1.818c-0.31,0.085 -0.62,0.212 -0.705,0.268c-0.254,0.198 -5.301,0.832 -5.301,0.832Z" style="fill:#008ebd;fill-rule:nonzero;stroke:#fff;stroke-width:2px;"/><g><circle cx="131.25" cy="31.667" r="4.741" style="fill:#fff;"/><path d="M134.35,38.67l0,19.695l4.158,0l0,3.209l-14.516,0l0,-3.209l4.231,0l0,-17.507l-3.137,0l0,-2.042l9.264,0" style="fill:#fff;"/></g></svg>