<?xml version="1.0" encoding="iso-8859-1"?>
<!-- Generator: Adobe Illustrator 23.0.1, SVG Export Plug-In . SVG Version: 6.00 Build 0)  -->
<svg version="1.1" id="Ebene_1" xmlns="http://www.w3.org/2000/svg" xmlns:xlink="http://www.w3.org/1999/xlink" x="0px" y="0px"
	 viewBox="0 0 350 120" style="enable-background:new 0 0 350 120;" xml:space="preserve">
<rect x="0.366" style="fill:#008EBD;" width="350" height="120"/>
<g>
	<g>
		<path style="fill:#FFFFFF;" d="M209.099,24v14.178V96h-62V38.178V24h14.178h33.645H209.099 M209.099,22h-14.178h-33.645h-14.178
			c-1.105,0-2,0.895-2,2v14.178V96c0,1.105,0.895,2,2,2h62c1.105,0,2-0.895,2-2V38.178V24C211.099,22.895,210.203,22,209.099,22
			L209.099,22z"/>
	</g>
	<g>
		<g>
			<path style="fill:#FFFFFF;" d="M154.134,32c1.381,0,2.5,1.119,2.5,2.5s-1.119,2.5-2.5,2.5s-2.5-1.119-2.5-2.5
				S152.753,32,154.134,32 M154.134,30c-2.481,0-4.5,2.019-4.5,4.5s2.019,4.5,4.5,4.5s4.5-2.019,4.5-4.5S156.615,30,154.134,30
				L154.134,30z"/>
		</g>
		<g>
			<path style="fill:#FFFFFF;" d="M154.134,49c1.381,0,2.5,1.119,2.5,2.5c0,1.381-1.119,2.5-2.5,2.5s-2.5-1.119-2.5-2.5
				C151.634,50.119,152.753,49,154.134,49 M154.134,47c-2.481,0-4.5,2.019-4.5,4.5c0,2.481,2.019,4.5,4.5,4.5s4.5-2.019,4.5-4.5
				C158.634,49.019,156.615,47,154.134,47L154.134,47z"/>
		</g>
		<g>
			<path style="fill:#FFFFFF;" d="M154.134,66c1.381,0,2.5,1.119,2.5,2.5s-1.119,2.5-2.5,2.5s-2.5-1.119-2.5-2.5
				S152.753,66,154.134,66 M154.134,64c-2.481,0-4.5,2.019-4.5,4.5s2.019,4.5,4.5,4.5s4.5-2.019,4.5-4.5S156.615,64,154.134,64
				L154.134,64z"/>
		</g>
		<g>
			<path style="fill:#FFFFFF;" d="M154.134,83c1.381,0,2.5,1.119,2.5,2.5s-1.119,2.5-2.5,2.5s-2.5-1.119-2.5-2.5
				S152.753,83,154.134,83 M154.134,81c-2.481,0-4.5,2.019-4.5,4.5s2.019,4.5,4.5,4.5s4.5-2.019,4.5-4.5S156.615,81,154.134,81
				L154.134,81z"/>
		</g>
	</g>
	
		<line style="fill:none;stroke:#FFFFFF;stroke-width:1.5;stroke-linecap:round;stroke-linejoin:round;stroke-miterlimit:10;" x1="154.634" y1="34.575" x2="141.634" y2="34.575"/>
	
		<line style="fill:none;stroke:#FFFFFF;stroke-width:1.5;stroke-linecap:round;stroke-linejoin:round;stroke-miterlimit:10;" x1="154.634" y1="51.575" x2="141.634" y2="51.575"/>
	
		<line style="fill:none;stroke:#FFFFFF;stroke-width:1.5;stroke-linecap:round;stroke-linejoin:round;stroke-miterlimit:10;" x1="154.634" y1="68.575" x2="141.634" y2="68.575"/>
	
		<line style="fill:none;stroke:#FFFFFF;stroke-width:1.5;stroke-linecap:round;stroke-linejoin:round;stroke-miterlimit:10;" x1="154.634" y1="85.575" x2="141.634" y2="85.575"/>
	
		<line style="fill:none;stroke:#FFFFFF;stroke-width:1.5;stroke-linecap:round;stroke-linejoin:round;stroke-miterlimit:10;" x1="197.892" y1="85.575" x2="168.892" y2="85.575"/>
	
		<line style="fill:none;stroke:#FFFFFF;stroke-width:1.5;stroke-linecap:round;stroke-linejoin:round;stroke-miterlimit:10;" x1="197.892" y1="72.575" x2="168.892" y2="72.575"/>
	
		<line style="fill:none;stroke:#FFFFFF;stroke-width:1.5;stroke-linecap:round;stroke-linejoin:round;stroke-miterlimit:10;" x1="193.392" y1="79.075" x2="173.392" y2="79.075"/>
	<g>
		
			<ellipse transform="matrix(0.9732 -0.2298 0.2298 0.9732 -4.4523 43.2216)" style="fill:#FFFFFF;" cx="183.379" cy="40.73" rx="7.155" ry="7.155"/>
		<path style="fill:#FFFFFF;" d="M195.233,54.489c-0.135-2.856-1.895-5.278-4.337-6.253c-2.028,1.72-4.649,2.762-7.517,2.762
			c-2.852,0-5.46-1.029-7.484-2.732c-0.114,0.046-0.229,0.088-0.34,0.14c-0.043,0.02-0.086,0.041-0.128,0.062
			c-0.705,0.35-1.345,0.825-1.893,1.395c-0.033,0.034-0.065,0.07-0.098,0.105c-1.097,1.191-1.8,2.78-1.884,4.531
			c-0.006,0.117-0.005,0.235-0.005,0.353v7.353c0,0.151,0.14,0.116,0.284,0.116h23.201c0.144,0,0.204,0.035,0.204-0.116v-7.353
			C195.236,54.734,195.239,54.606,195.233,54.489z"/>
	</g>
</g>
</svg>
