<?xml version="1.0" encoding="UTF-8" standalone="no"?><!DOCTYPE svg PUBLIC "-//W3C//DTD SVG 1.1//EN" "http://www.w3.org/Graphics/SVG/1.1/DTD/svg11.dtd"><svg width="100%" height="100%" viewBox="0 0 350 120" version="1.1" xmlns="http://www.w3.org/2000/svg" xmlns:xlink="http://www.w3.org/1999/xlink" xml:space="preserve" xmlns:serif="http://www.serif.com/" style="fill-rule:evenodd;clip-rule:evenodd;stroke-linecap:square;stroke-linejoin:round;stroke-miterlimit:1.5;"><rect x="0" y="0" width="350" height="120.184" style="fill:#008ebd;"/><g><rect x="52.532" y="22.333" width="50" height="50" style="fill:#fff;fill-opacity:0;"/><path d="M102.728,20.343l0.195,0.029l0.19,0.047l0.185,0.066l0.177,0.084l0.169,0.101l0.157,0.117l0.146,0.132l0.131,0.145l0.117,0.158l0.101,0.168l0.084,0.178l0.066,0.185l0.048,0.19l0.029,0.194l0.009,0.196l0,50l-0.009,0.196l-0.029,0.194l-0.048,0.191l-0.066,0.185l-0.084,0.177l-0.101,0.168l-0.117,0.158l-0.131,0.145l-0.146,0.132l-0.157,0.117l-0.169,0.101l-0.177,0.084l-0.185,0.066l-0.19,0.048l-0.195,0.029l-0.196,0.009l-50,0l-0.196,-0.009l-0.194,-0.029l-0.19,-0.048l-0.185,-0.066l-0.177,-0.084l-0.169,-0.101l-0.157,-0.117l-0.146,-0.132l-0.132,-0.145l-0.117,-0.158l-0.1,-0.168l-0.084,-0.177l-0.066,-0.185l-0.048,-0.191l-0.029,-0.194l-0.01,-0.196l0,-50l0.01,-0.196l0.029,-0.194l0.048,-0.19l0.066,-0.185l0.084,-0.178l0.1,-0.168l0.117,-0.158l0.132,-0.145l0.146,-0.132l0.157,-0.117l0.169,-0.101l0.177,-0.084l0.185,-0.066l0.19,-0.047l0.194,-0.029l0.196,-0.01l50,0l0.196,0.01Zm-50.196,1.99l0,50l50,0l0,-50l-50,0Z" style="fill:#fff;"/><rect x="117.49" y="22.333" width="50" height="50" style="fill:#fff;fill-opacity:0;"/><path d="M167.686,20.343l0.194,0.029l0.19,0.047l0.185,0.066l0.178,0.084l0.168,0.101l0.158,0.117l0.145,0.132l0.132,0.145l0.117,0.158l0.101,0.168l0.084,0.178l0.066,0.185l0.047,0.19l0.029,0.194l0.01,0.196l0,50l-0.01,0.196l-0.029,0.194l-0.047,0.191l-0.066,0.185l-0.084,0.177l-0.101,0.168l-0.117,0.158l-0.132,0.145l-0.145,0.132l-0.158,0.117l-0.168,0.101l-0.178,0.084l-0.185,0.066l-0.19,0.048l-0.194,0.029l-0.196,0.009l-50,0l-0.196,-0.009l-0.194,-0.029l-0.191,-0.048l-0.184,-0.066l-0.178,-0.084l-0.168,-0.101l-0.158,-0.117l-0.145,-0.132l-0.132,-0.145l-0.117,-0.158l-0.101,-0.168l-0.084,-0.177l-0.066,-0.185l-0.048,-0.191l-0.028,-0.194l-0.01,-0.196l0,-50l0.01,-0.196l0.028,-0.194l0.048,-0.19l0.066,-0.185l0.084,-0.178l0.101,-0.168l0.117,-0.158l0.132,-0.145l0.145,-0.132l0.158,-0.117l0.168,-0.101l0.178,-0.084l0.184,-0.066l0.191,-0.047l0.194,-0.029l0.196,-0.01l50,0l0.196,0.01Zm-50.196,1.99l0,50l50,0l0,-50l-50,0Z" style="fill:#fff;"/><rect x="247.468" y="22.333" width="50" height="50" style="fill:#fff;fill-opacity:0;"/><path d="M297.664,20.343l0.194,0.029l0.19,0.047l0.185,0.066l0.177,0.084l0.169,0.101l0.157,0.117l0.146,0.132l0.132,0.145l0.117,0.158l0.1,0.168l0.084,0.178l0.066,0.185l0.048,0.19l0.029,0.194l0.01,0.196l0,50l-0.01,0.196l-0.029,0.194l-0.048,0.191l-0.066,0.185l-0.084,0.177l-0.1,0.168l-0.117,0.158l-0.132,0.145l-0.146,0.132l-0.157,0.117l-0.169,0.101l-0.177,0.084l-0.185,0.066l-0.19,0.048l-0.194,0.029l-0.196,0.009l-50,0l-0.196,-0.009l-0.195,-0.029l-0.19,-0.048l-0.185,-0.066l-0.177,-0.084l-0.169,-0.101l-0.157,-0.117l-0.146,-0.132l-0.131,-0.145l-0.117,-0.158l-0.101,-0.168l-0.084,-0.177l-0.066,-0.185l-0.048,-0.191l-0.029,-0.194l-0.009,-0.196l0,-50l0.009,-0.196l0.029,-0.194l0.048,-0.19l0.066,-0.185l0.084,-0.178l0.101,-0.168l0.117,-0.158l0.131,-0.145l0.146,-0.132l0.157,-0.117l0.169,-0.101l0.177,-0.084l0.185,-0.066l0.19,-0.047l0.195,-0.029l0.196,-0.01l50,0l0.196,0.01Zm-50.196,1.99l0,50l50,0l0,-50l-50,0Z" style="fill:#fff;"/><rect x="181.5" y="21.333" width="52" height="52" style="fill:#fff;stroke:#fff;stroke-width:2px;"/></g><g><path d="M225.89,50.304c0,-2.194 -1.778,-3.971 -3.971,-3.971l-0.286,0c-2.785,0 -5.042,2.257 -5.042,5.04l-0.213,6.801l-0.472,14.983c-0.107,0.462 -0.168,10.88 -0.168,10.88c-0.881,-0.898 -1.861,-1.925 -2.742,-2.908c-2.056,-2.294 -5.834,-3.839 -8.346,-4.125c-1.323,-0.152 -2.333,0.029 -3.005,0.535c-0.215,0.164 -0.426,0.348 -0.624,0.545c-1.296,1.276 -2.274,3.338 -1.369,4.849c0.391,0.66 24.015,22.165 24.015,22.165c1.908,1.208 5.38,2.338 9.39,2.338c4.003,0 7.639,0.24 10.327,-2.124l0.144,0l0.071,-0.179c2.734,-2.504 4.434,-5.974 4.434,-9.811c0,-0.949 0,-4.448 0,-5.106l0,-13.239c0,-0.899 -0.198,-3.913 -2.732,-4.817c-1.218,-0.433 -2.369,-0.269 -3.35,0.154l-0.229,0.01l-0.071,0.005c-0.441,-1.655 -1.541,-2.724 -3.169,-3.008c-1.966,-0.34 -3.329,0.247 -4.148,0.841c-0.814,-1.751 -2.448,-2.663 -4.658,-2.477c-1.658,0.14 -2.891,0.954 -3.785,2.027l0,-11.287l0,-8.121l-0.001,0Z" style="fill:#008ebd;fill-rule:nonzero;stroke:#fff;stroke-width:2px;stroke-linecap:butt;stroke-miterlimit:10;"/><path d="M225.986,70.206l0,4.641" style="fill:#008ebd;fill-rule:nonzero;stroke:#fff;stroke-width:2px;stroke-linecap:round;stroke-miterlimit:10;"/><path d="M234.108,70.206l0,6.962" style="fill:#008ebd;fill-rule:nonzero;stroke:#fff;stroke-width:2px;stroke-linecap:round;stroke-miterlimit:10;"/><path d="M241.65,72.527l0,6.961" style="fill:#008ebd;fill-rule:nonzero;stroke:#fff;stroke-width:2px;stroke-linecap:round;stroke-miterlimit:10;"/></g><text x="66.97px" y="58.461px" style="font-family:'ArialUnicodeMS', 'Arial Unicode MS', sans-serif;font-size:32px;fill:#fff;">S</text><text x="129.162px" y="58.461px" style="font-family:'ArialUnicodeMS', 'Arial Unicode MS', sans-serif;font-size:32px;fill:#fff;stroke:#5993a6;stroke-opacity:0;stroke-width:1px;stroke-linecap:butt;stroke-miterlimit:1.41421;">M</text><text x="197.893px" y="58.07px" style="font-family:'ArialUnicodeMS', 'Arial Unicode MS', sans-serif;font-size:32px;fill:#008ebd;stroke:#5993a6;stroke-opacity:0;stroke-width:1px;stroke-linecap:butt;stroke-miterlimit:1.41421;">L</text><text x="253.35px" y="58.461px" style="font-family:'ArialUnicodeMS', 'Arial Unicode MS', sans-serif;font-size:32px;fill:#fff;stroke:#5993a6;stroke-opacity:0;stroke-width:1px;stroke-linecap:butt;stroke-miterlimit:1.41421;">XL</text></svg>