<?xml version="1.0" encoding="UTF-8" standalone="no"?><!DOCTYPE svg PUBLIC "-//W3C//DTD SVG 1.1//EN" "http://www.w3.org/Graphics/SVG/1.1/DTD/svg11.dtd"><svg width="100%" height="100%" viewBox="0 0 350 120" version="1.1" xmlns="http://www.w3.org/2000/svg" xmlns:xlink="http://www.w3.org/1999/xlink" xml:space="preserve" xmlns:serif="http://www.serif.com/" style="fill-rule:evenodd;clip-rule:evenodd;stroke-linecap:square;stroke-linejoin:round;stroke-miterlimit:1.5;"><rect x="0" y="0" width="350" height="120" style="fill:#008ebd;"/><path d="M169.986,94.586l0,-12.884l-11.243,-13.613c-6.168,-7.505 -11.243,-13.735 -11.243,-13.856c0,-0.152 12.367,-0.243 27.5,-0.243c15.133,0 27.5,0.091 27.5,0.243c0,0.121 -5.075,6.351 -11.243,13.826l-11.243,13.643l-0.061,10.514l-0.091,10.544l-4.71,2.34c-2.583,1.276 -4.801,2.34 -4.923,2.37c-0.152,0 -0.243,-5.804 -0.243,-12.884Z" style="fill:#fff;fill-rule:nonzero;"/><rect x="127.365" y="14.064" width="26.322" height="26.322" style="fill:#fff;fill-opacity:0;"/><path d="M153.811,12.569l0.124,0.015l0.121,0.026l0.119,0.035l0.115,0.045l0.112,0.055l0.106,0.063l0.101,0.072l0.095,0.08l0.087,0.088l0.08,0.094l0.072,0.101l0.064,0.107l0.054,0.111l0.045,0.116l0.036,0.119l0.025,0.121l0.015,0.123l0.006,0.124l0,26.322l-0.006,0.124l-0.015,0.123l-0.025,0.121l-0.036,0.119l-0.045,0.115l-0.054,0.112l-0.064,0.106l-0.072,0.101l-0.08,0.095l-0.087,0.087l-0.095,0.081l-0.101,0.072l-0.106,0.063l-0.112,0.055l-0.115,0.045l-0.119,0.035l-0.121,0.025l-0.124,0.016l-0.123,0.005l-26.323,0l-0.123,-0.005l-0.123,-0.016l-0.122,-0.025l-0.119,-0.035l-0.115,-0.045l-0.111,-0.055l-0.107,-0.063l-0.101,-0.072l-0.094,-0.081l-0.088,-0.087l-0.08,-0.095l-0.072,-0.101l-0.064,-0.106l-0.054,-0.112l-0.045,-0.115l-0.036,-0.119l-0.025,-0.121l-0.015,-0.123l-0.006,-0.124l0,-26.322l0.006,-0.124l0.015,-0.123l0.025,-0.121l0.036,-0.119l0.045,-0.116l0.054,-0.111l0.064,-0.107l0.072,-0.101l0.08,-0.094l0.088,-0.088l0.094,-0.08l0.101,-0.072l0.107,-0.063l0.111,-0.055l0.115,-0.045l0.119,-0.035l0.122,-0.026l0.123,-0.015l0.123,-0.005l26.323,0l0.123,0.005Zm-26.446,1.495l0,26.322l26.323,0l0,-26.322l-26.323,0Z" style="fill:#fff;"/><rect x="161.562" y="14.064" width="26.322" height="26.322" style="fill:#fff;fill-opacity:0;"/><path d="M188.008,12.569l0.123,0.015l0.121,0.026l0.119,0.035l0.116,0.045l0.111,0.055l0.106,0.063l0.101,0.072l0.095,0.08l0.088,0.088l0.08,0.094l0.072,0.101l0.063,0.107l0.055,0.111l0.045,0.116l0.035,0.119l0.026,0.121l0.015,0.123l0.005,0.124l0,26.322l-0.005,0.124l-0.015,0.123l-0.026,0.121l-0.035,0.119l-0.045,0.115l-0.055,0.112l-0.063,0.106l-0.072,0.101l-0.08,0.095l-0.088,0.087l-0.095,0.081l-0.101,0.072l-0.106,0.063l-0.111,0.055l-0.116,0.045l-0.119,0.035l-0.121,0.025l-0.123,0.016l-0.124,0.005l-26.322,0l-0.124,-0.005l-0.123,-0.016l-0.121,-0.025l-0.119,-0.035l-0.116,-0.045l-0.111,-0.055l-0.107,-0.063l-0.1,-0.072l-0.095,-0.081l-0.088,-0.087l-0.08,-0.095l-0.072,-0.101l-0.063,-0.106l-0.055,-0.112l-0.045,-0.115l-0.035,-0.119l-0.026,-0.121l-0.015,-0.123l-0.005,-0.124l0,-26.322l0.005,-0.124l0.015,-0.123l0.026,-0.121l0.035,-0.119l0.045,-0.116l0.055,-0.111l0.063,-0.107l0.072,-0.101l0.08,-0.094l0.088,-0.088l0.095,-0.08l0.1,-0.072l0.107,-0.063l0.111,-0.055l0.116,-0.045l0.119,-0.035l0.121,-0.026l0.123,-0.015l0.124,-0.005l26.322,0l0.124,0.005Zm-26.446,1.495l0,26.322l26.322,0l0,-26.322l-26.322,0Z" style="fill:#fff;"/><rect x="195.26" y="13.537" width="27.375" height="27.375" style="fill:#fff;stroke:#fff;stroke-width:2px;"/><text x="134.966px" y="33.083px" style="font-family:'ArialUnicodeMS', 'Arial Unicode MS', sans-serif;font-size:16.846px;fill:#fff;">S</text><text x="167.706px" y="33.083px" style="font-family:'ArialUnicodeMS', 'Arial Unicode MS', sans-serif;font-size:16.846px;fill:#fff;stroke:#5993a6;stroke-opacity:0;stroke-width:1px;stroke-linecap:butt;stroke-miterlimit:1.41421;">M</text><text x="203.89px" y="32.877px" style="font-family:'ArialUnicodeMS', 'Arial Unicode MS', sans-serif;font-size:16.846px;fill:#008ebd;stroke:#5993a6;stroke-opacity:0;stroke-width:1px;stroke-linecap:butt;stroke-miterlimit:1.41421;">L</text></svg>