<?xml version="1.0" encoding="UTF-8" standalone="no"?><!DOCTYPE svg PUBLIC "-//W3C//DTD SVG 1.1//EN" "http://www.w3.org/Graphics/SVG/1.1/DTD/svg11.dtd"><svg width="100%" height="100%" viewBox="0 0 350 120" version="1.1" xmlns="http://www.w3.org/2000/svg" xmlns:xlink="http://www.w3.org/1999/xlink" xml:space="preserve" xmlns:serif="http://www.serif.com/" style="fill-rule:evenodd;clip-rule:evenodd;stroke-linecap:round;stroke-linejoin:round;stroke-miterlimit:1.5;"><rect x="0" y="0" width="350" height="120" style="fill:#008ebd;"/><path d="M169.986,94.586l0,-12.884l-11.243,-13.613c-6.168,-7.505 -11.243,-13.735 -11.243,-13.856c0,-0.152 12.367,-0.243 27.5,-0.243c15.133,0 27.5,0.091 27.5,0.243c0,0.121 -5.075,6.351 -11.243,13.826l-11.243,13.643l-0.061,10.514l-0.091,10.544l-4.71,2.34c-2.583,1.276 -4.801,2.34 -4.923,2.37c-0.152,0 -0.243,-5.804 -0.243,-12.884Z" style="fill:#fff;fill-rule:nonzero;"/><g><rect x="112.093" y="12.537" width="35.125" height="7.152" style="fill:#fff;"/><rect x="112.093" y="23.298" width="35.125" height="7.152" style="fill:#fff;"/><rect x="112.093" y="34.058" width="35.125" height="7.152" style="fill:#fff;"/><rect x="158.385" y="13.154" width="34.118" height="6.012" style="fill:#fff;fill-opacity:0;stroke:#fff;stroke-width:2px;"/><rect x="157.768" y="23.298" width="35.125" height="7.152" style="fill:#fff;"/><rect x="157.768" y="34.058" width="35.125" height="7.152" style="fill:#fff;"/><rect x="203.79" y="13.154" width="34.118" height="6.012" style="fill:#fff;fill-opacity:0;stroke:#fff;stroke-width:2px;"/><rect x="203.389" y="34.058" width="25.26" height="7.152" style="fill:#fff;"/><path d="M203.78,23.925l34.118,0l0.009,3.006c-3.602,0.05 -4.981,0.439 -7.142,3.005l-26.985,0l0,-6.011Z" style="fill:#fff;fill-opacity:0;stroke:#fff;stroke-width:2px;"/></g><g><path d="M237.834,49.595c-0.255,-0.005 -0.51,-0.014 -0.764,-0.034c-0.5,-0.038 -0.998,-0.107 -1.49,-0.208c-1.621,-0.332 -3.167,-1.007 -4.515,-1.966c-1.446,-1.028 -2.657,-2.377 -3.523,-3.925c-0.817,-1.461 -1.32,-3.09 -1.468,-4.758c-0.138,-1.554 0.027,-3.134 0.491,-4.625c0.446,-1.431 1.164,-2.774 2.104,-3.941c0.902,-1.119 2.004,-2.074 3.241,-2.806c1.092,-0.646 2.285,-1.115 3.524,-1.385c1.138,-0.248 2.312,-0.328 3.473,-0.24c1.187,0.091 2.359,0.359 3.466,0.796c1.255,0.495 2.423,1.205 3.442,2.088c1.051,0.91 1.941,2.003 2.62,3.216c0.669,1.196 1.129,2.507 1.354,3.86c0.074,0.448 0.123,0.9 0.146,1.353c0.01,0.202 0.014,0.404 0.015,0.606l-2.658,0.017c-0.001,-0.125 -0.001,-0.125 -0.003,-0.249c-0.004,-0.12 -0.004,-0.12 -0.009,-0.239c-0.029,-0.508 -0.093,-1.012 -0.201,-1.509c-0.226,-1.035 -0.631,-2.03 -1.193,-2.929c-0.573,-0.917 -1.306,-1.733 -2.156,-2.401c-0.827,-0.65 -1.763,-1.159 -2.759,-1.496c-0.883,-0.299 -1.81,-0.462 -2.742,-0.486c-0.863,-0.022 -1.729,0.074 -2.565,0.29c-0.915,0.235 -1.791,0.612 -2.592,1.113c-0.95,0.592 -1.79,1.356 -2.471,2.244c-0.687,0.896 -1.209,1.916 -1.531,2.997c-0.347,1.166 -0.46,2.399 -0.337,3.608c0.131,1.292 0.537,2.551 1.184,3.676c0.689,1.197 1.645,2.237 2.78,3.024c1.058,0.733 2.266,1.243 3.53,1.485c0.384,0.074 0.773,0.123 1.163,0.148c0.201,0.013 0.402,0.018 0.603,0.019l0.66,0l0,2.658c-0.273,0 -0.546,0.001 -0.819,-0.001Z" style="fill:#fff;fill-rule:nonzero;"/><text x="240.214px" y="49.596px" style="font-family:'ArialUnicodeMS', 'Arial Unicode MS', sans-serif;font-size:14.798px;fill:#fff;">24</text><g><path d="M237.74,39.898l-2.834,-2.88" style="fill:none;stroke:#fff;stroke-width:3px;"/><path d="M237.74,39.898l4.565,-5.761" style="fill:none;stroke:#fff;stroke-width:3px;"/></g></g></svg>