<?xml version="1.0" encoding="UTF-8" standalone="no"?><!DOCTYPE svg PUBLIC "-//W3C//DTD SVG 1.1//EN" "http://www.w3.org/Graphics/SVG/1.1/DTD/svg11.dtd"><svg width="100%" height="100%" viewBox="0 0 350 120" version="1.1" xmlns="http://www.w3.org/2000/svg" xmlns:xlink="http://www.w3.org/1999/xlink" xml:space="preserve" xmlns:serif="http://www.serif.com/" style="fill-rule:evenodd;clip-rule:evenodd;stroke-linecap:round;stroke-linejoin:round;stroke-miterlimit:1.5;"><rect x="0" y="0" width="350" height="120.184" style="fill:#008ebd;"/><g><rect x="72.482" y="36.748" width="56.967" height="11.6" style="fill:#fff;"/><rect x="72.482" y="54.2" width="56.967" height="11.6" style="fill:#fff;"/><rect x="72.482" y="71.652" width="56.967" height="11.6" style="fill:#fff;"/><rect x="147.56" y="37.748" width="55.333" height="9.75" style="fill:#fff;fill-opacity:0;stroke:#fff;stroke-width:2px;"/><rect x="146.56" y="54.2" width="56.967" height="11.6" style="fill:#fff;"/><rect x="146.56" y="71.652" width="56.967" height="11.6" style="fill:#fff;"/><rect x="221.2" y="37.748" width="55.333" height="9.75" style="fill:#fff;fill-opacity:0;stroke:#fff;stroke-width:2px;"/><rect x="220.55" y="71.652" width="40.967" height="11.6" style="fill:#fff;"/><path d="M221.185,55.217l55.333,0l0.015,4.875c-5.842,0.082 -8.078,0.713 -11.583,4.875l-43.765,0l0,-9.75Z" style="fill:#fff;fill-opacity:0;stroke:#fff;stroke-width:2px;"/></g><g><path d="M276.544,96.85c-0.413,-0.008 -0.826,-0.023 -1.239,-0.055c-0.812,-0.062 -1.619,-0.174 -2.417,-0.338c-2.629,-0.538 -5.136,-1.632 -7.323,-3.188c-2.344,-1.667 -4.309,-3.855 -5.713,-6.366c-1.325,-2.369 -2.14,-5.012 -2.381,-7.716c-0.224,-2.522 0.044,-5.084 0.797,-7.502c0.722,-2.321 1.887,-4.499 3.412,-6.392c1.462,-1.815 3.25,-3.364 5.256,-4.55c1.77,-1.047 3.707,-1.809 5.716,-2.247c1.845,-0.402 3.749,-0.531 5.632,-0.388c1.925,0.147 3.826,0.582 5.622,1.291c2.035,0.803 3.929,1.954 5.583,3.386c1.703,1.476 3.148,3.248 4.248,5.215c1.085,1.941 1.832,4.067 2.196,6.261c0.12,0.726 0.199,1.459 0.236,2.195c0.017,0.327 0.023,0.654 0.025,0.982l-4.311,0.027c-0.001,-0.202 -0.001,-0.201 -0.005,-0.403c-0.006,-0.194 -0.006,-0.194 -0.014,-0.388c-0.047,-0.823 -0.151,-1.641 -0.326,-2.447c-0.366,-1.679 -1.024,-3.292 -1.935,-4.75c-0.929,-1.488 -2.118,-2.811 -3.497,-3.895c-1.341,-1.054 -2.859,-1.879 -4.475,-2.426c-1.432,-0.485 -2.935,-0.75 -4.446,-0.788c-1.4,-0.036 -2.804,0.121 -4.161,0.47c-1.483,0.382 -2.905,0.994 -4.204,1.805c-1.539,0.961 -2.902,2.2 -4.007,3.64c-1.113,1.453 -1.961,3.107 -2.483,4.861c-0.563,1.891 -0.746,3.89 -0.546,5.852c0.213,2.095 0.871,4.136 1.921,5.961c1.117,1.942 2.667,3.627 4.508,4.904c1.715,1.189 3.675,2.016 5.725,2.409c0.623,0.12 1.253,0.2 1.886,0.24c0.326,0.02 0.651,0.028 0.977,0.031l1.071,0l0,4.311c-0.442,0 -0.885,0.001 -1.328,-0.002Z" style="fill:#fff;fill-rule:nonzero;"/><text x="280.403px" y="96.852px" style="font-family:'ArialUnicodeMS', 'Arial Unicode MS', sans-serif;font-size:24px;fill:#fff;">24</text><g><path d="M276.392,81.124l-4.598,-4.672" style="fill:none;stroke:#fff;stroke-width:3px;"/><path d="M276.392,81.124l7.402,-9.344" style="fill:none;stroke:#fff;stroke-width:3px;"/></g></g></svg>