<?xml version="1.0" encoding="UTF-8" standalone="no"?><!DOCTYPE svg PUBLIC "-//W3C//DTD SVG 1.1//EN" "http://www.w3.org/Graphics/SVG/1.1/DTD/svg11.dtd"><svg width="100%" height="100%" viewBox="0 0 350 120" version="1.1" xmlns="http://www.w3.org/2000/svg" xmlns:xlink="http://www.w3.org/1999/xlink" xml:space="preserve" xmlns:serif="http://www.serif.com/" style="fill-rule:evenodd;clip-rule:evenodd;stroke-linecap:round;stroke-linejoin:round;stroke-miterlimit:1.5;"><rect x="0" y="0" width="350" height="120.184" style="fill:#008ebd;"/><rect x="111.8" y="23.092" width="126.4" height="74" style="fill:none;stroke:#fff;stroke-width:2px;"/><path d="M230.2,88.14l-110.404,0l0,-7.506l18.053,-22.773c0.209,-0.254 13.253,13.486 13.253,13.486c0,0 16.279,-24.3 16.488,-24.3c0.209,0 15.876,25.977 15.876,25.977c0,0 10.163,-16.939 10.322,-16.939c0.159,0 12.561,18.955 12.561,18.955l9.54,-10.519c0.159,-0.199 14.311,17.764 14.311,17.764l0,5.855Z" style="fill:#fff;"/><path d="M205.995,39.085c3.9,0 7,3.1 7,7c0,3.9 -3.1,7 -7,7c-3.9,0 -7,-3.1 -7,-7c0,-3.9 3.1,-7 7,-7Z" style="fill:#fff;"/><rect x="120.878" y="31.694" width="108.235" height="55.15" style="fill:none;stroke:#fff;stroke-width:2px;stroke-linecap:butt;stroke-dasharray:2,2;"/></svg>