<?xml version="1.0" encoding="UTF-8" standalone="no"?><!DOCTYPE svg PUBLIC "-//W3C//DTD SVG 1.1//EN" "http://www.w3.org/Graphics/SVG/1.1/DTD/svg11.dtd"><svg width="100%" height="100%" viewBox="0 0 350 120" version="1.1" xmlns="http://www.w3.org/2000/svg" xmlns:xlink="http://www.w3.org/1999/xlink" xml:space="preserve" xmlns:serif="http://www.serif.com/" style="fill-rule:evenodd;clip-rule:evenodd;stroke-linecap:round;stroke-linejoin:round;stroke-miterlimit:1.5;"><rect x="0" y="0" width="350" height="120.184" style="fill:#008ebd;"/><rect x="106.8" y="23.092" width="136.4" height="74" style="fill:none;stroke:#fff;stroke-width:2px;"/><path d="M187,78.344l-18.992,-31.042c-0.105,-0.128 -0.209,-0.255 -0.418,-0.255c-0.209,0 -0.313,0.127 -0.417,0.255l-16.071,24.045l-12.522,-13.486c-0.209,-0.254 -0.522,-0.254 -0.731,0l-18.053,22.773l0,7.506l67.204,0l0,-9.796Z" style="fill:#fff;"/><path d="M179,80.499l14.47,-24.216c0.079,-0.099 0.159,-0.198 0.318,-0.198c0.159,0 0.238,0.099 0.318,0.198l12.243,18.757l9.54,-10.519c0.159,-0.199 0.398,-0.199 0.557,0l13.754,17.764l0,5.855l-51.2,0l0,-7.641Z" style="fill:#fff;"/><path d="M205.995,39.085c3.9,0 7,3.1 7,7c0,3.9 -3.1,7 -7,7c-3.9,0 -7,-3.1 -7,-7c0,-3.9 3.1,-7 7,-7Z" style="fill:#fff;"/><rect x="120.878" y="31.694" width="108.235" height="55.15" style="fill:none;stroke:#fff;stroke-width:2px;stroke-linecap:butt;stroke-dasharray:2,2;"/></svg>