<?xml version="1.0" encoding="iso-8859-1"?>
<!-- Generator: Adobe Illustrator 23.0.1, SVG Export Plug-In . SVG Version: 6.00 Build 0)  -->
<svg version="1.1" id="Ebene_1" xmlns="http://www.w3.org/2000/svg" xmlns:xlink="http://www.w3.org/1999/xlink" x="0px" y="0px"
	 viewBox="0 0 350 120" style="enable-background:new 0 0 350 120;" xml:space="preserve">
<rect x="0.009" y="0.419" style="fill:#008EBD;" width="350" height="120"/>
<g>
	<g>
		<path style="fill:#008EBD;" d="M125.968,81.132c-2.612,0-4.801-2.043-4.983-4.651l-3.079-44.032
			c-0.093-1.332,0.338-2.621,1.214-3.629c0.876-1.008,2.093-1.615,3.425-1.708l76.402-5.342c0.118-0.008,0.236-0.012,0.353-0.012
			c2.612,0,4.801,2.043,4.984,4.651l3.079,44.033c0.193,2.75-1.888,5.144-4.639,5.336l-76.402,5.343
			C126.204,81.128,126.085,81.132,125.968,81.132z"/>
		<path style="fill:#FFFFFF;" d="M199.3,22.757c2.082,0,3.839,1.612,3.986,3.721l3.079,44.032c0.154,2.204-1.507,4.115-3.711,4.269
			l-76.402,5.343c-0.095,0.007-0.189,0.01-0.283,0.01c-2.082,0-3.839-1.612-3.986-3.721l-3.079-44.032
			c-0.154-2.204,1.507-4.115,3.711-4.269l76.402-5.343C199.111,22.76,199.206,22.757,199.3,22.757 M199.3,20.757L199.3,20.757
			c-0.14,0-0.282,0.005-0.423,0.015l-76.402,5.343c-3.3,0.231-5.798,3.104-5.567,6.404l3.079,44.032
			c0.219,3.13,2.846,5.582,5.981,5.582c0.14,0,0.281-0.005,0.423-0.015l76.402-5.343c3.3-0.231,5.798-3.104,5.567-6.404
			l-3.079-44.032C205.062,23.209,202.435,20.757,199.3,20.757L199.3,20.757z"/>
	</g>
	<g>
		<path style="fill:#008EBD;" d="M210.547,101.081c-11.897,0-21.577-9.679-21.577-21.576s9.679-21.576,21.577-21.576
			s21.576,9.679,21.576,21.576S222.444,101.081,210.547,101.081z"/>
		<path style="fill:#FFFFFF;" d="M210.547,58.928c11.364,0,20.577,9.212,20.577,20.577s-9.212,20.577-20.577,20.577
			c-11.364,0-20.577-9.212-20.577-20.577S199.183,58.928,210.547,58.928 M210.547,56.928c-12.449,0-22.577,10.128-22.577,22.577
			s10.128,22.577,22.577,22.577s22.577-10.128,22.577-22.577S222.996,56.928,210.547,56.928L210.547,56.928z"/>
	</g>
	<path style="fill:#FFFFFF;" d="M223.927,82.952l-2.464-1.423c0.249-1.342,0.249-2.718,0-4.06l2.464-1.423
		c0.283-0.162,0.411-0.497,0.318-0.81c-0.642-2.059-1.735-3.921-3.164-5.471c-0.22-0.237-0.578-0.295-0.856-0.133l-2.464,1.423
		c-1.035-0.891-2.227-1.579-3.516-2.03v-2.84c0-0.324-0.226-0.607-0.544-0.677c-2.123-0.474-4.297-0.451-6.316,0
		c-0.318,0.069-0.544,0.353-0.544,0.677v2.845c-1.284,0.457-2.475,1.145-3.516,2.03l-2.458-1.423
		c-0.283-0.162-0.636-0.11-0.856,0.133c-1.429,1.544-2.522,3.406-3.164,5.471c-0.098,0.312,0.035,0.648,0.318,0.81l2.464,1.423
		c-0.249,1.342-0.249,2.718,0,4.06l-2.464,1.423c-0.283,0.162-0.411,0.497-0.318,0.81c0.642,2.059,1.735,3.921,3.164,5.471
		c0.22,0.237,0.578,0.295,0.856,0.133l2.464-1.423c1.035,0.891,2.227,1.579,3.516,2.03v2.845c0,0.324,0.226,0.607,0.544,0.677
		c2.123,0.474,4.297,0.451,6.316,0c0.318-0.069,0.544-0.353,0.544-0.677v-2.845c1.284-0.457,2.475-1.145,3.516-2.03l2.464,1.423
		c0.283,0.162,0.636,0.11,0.856-0.133c1.429-1.544,2.522-3.406,3.164-5.471C224.337,83.449,224.21,83.114,223.927,82.952z
		 M210.544,84.126c-2.551,0-4.627-2.076-4.627-4.627c0-2.551,2.076-4.627,4.627-4.627c2.551,0,4.627,2.076,4.627,4.627
		C215.17,82.05,213.094,84.126,210.544,84.126z"/>
	
		<rect x="119.245" y="35.399" transform="matrix(0.9976 -0.0698 0.0698 0.9976 -2.4394 11.4267)" style="fill:#FFFFFF;" width="86.288" height="10.485"/>
	
		<line style="fill:none;stroke:#FFFFFF;stroke-width:2;stroke-linecap:round;stroke-miterlimit:10;" x1="129.21" y1="62.377" x2="161.132" y2="60.145"/>
	
		<line style="fill:none;stroke:#FFFFFF;stroke-width:2;stroke-linecap:round;stroke-miterlimit:10;" x1="129.21" y1="70.377" x2="171.171" y2="67.261"/>
</g>
</svg>
