<?xml version="1.0" encoding="iso-8859-1"?>
<!-- Generator: Adobe Illustrator 23.0.1, SVG Export Plug-In . SVG Version: 6.00 Build 0)  -->
<svg version="1.1" id="Ebene_1" xmlns="http://www.w3.org/2000/svg" xmlns:xlink="http://www.w3.org/1999/xlink" x="0px" y="0px"
	 viewBox="0 0 350 120" style="enable-background:new 0 0 350 120;" xml:space="preserve">
<rect style="fill:#008EBD;" width="350" height="120"/>
<g>
	<path style="fill:#008EBD;stroke:#FFFFFF;stroke-width:2;stroke-miterlimit:10;" d="M207.497,105h-53.144c-2.2,0-4-1.8-4-4V27.154
		c0-2.2,1.8-4,4-4h53.144c2.2,0,4,1.8,4,4V101C211.497,103.2,209.697,105,207.497,105z"/>
	<path style="fill:#008EBD;stroke:#FFFFFF;stroke-width:2;stroke-miterlimit:10;" d="M203.215,47.708h-44.58c-1.1,0-2-0.9-2-2
		V32.376c0-1.1,0.9-2,2-2h44.58c1.1,0,2,0.9,2,2v13.332C205.215,46.808,204.315,47.708,203.215,47.708z"/>
	<g>
		
			<line style="fill:none;stroke:#FFFFFF;stroke-width:2;stroke-linecap:round;stroke-miterlimit:10;" x1="174.426" y1="84.833" x2="163.834" y2="84.833"/>
		
			<line style="fill:none;stroke:#FFFFFF;stroke-width:2;stroke-linecap:round;stroke-miterlimit:10;" x1="174.426" y1="90.61" x2="163.834" y2="90.61"/>
	</g>
	<g>
		
			<line style="fill:none;stroke:#FFFFFF;stroke-width:2;stroke-linecap:round;stroke-miterlimit:10;" x1="174.426" y1="68.41" x2="163.834" y2="68.41"/>
		
			<line style="fill:none;stroke:#FFFFFF;stroke-width:2;stroke-linecap:round;stroke-miterlimit:10;" x1="169.13" y1="63.114" x2="169.13" y2="73.706"/>
	</g>
	
		<line style="fill:none;stroke:#FFFFFF;stroke-width:2;stroke-linecap:round;stroke-miterlimit:10;" x1="199.167" y1="67.447" x2="188.575" y2="67.447"/>
	<g>
		
			<line style="fill:none;stroke:#FFFFFF;stroke-width:2;stroke-linecap:round;stroke-miterlimit:10;" x1="197.616" y1="83.977" x2="190.126" y2="91.466"/>
		
			<line style="fill:none;stroke:#FFFFFF;stroke-width:2;stroke-linecap:round;stroke-miterlimit:10;" x1="190.126" y1="83.977" x2="197.616" y2="91.466"/>
	</g>
	<circle style="fill:#008EBD;stroke:#FFFFFF;stroke-width:2;stroke-miterlimit:10;" cx="156.945" cy="37.62" r="23.442"/>
	<g>
		<path style="fill:#FFFFFF;" d="M166.787,49.301c-2.061,0.89-3.961,1.293-6.103,1.293c-5.861,0-9.377-3.072-10.428-9.013h-3.153
			v-2.951h2.829v-1.091c0-0.526,0-1.011,0.04-1.455h-2.87v-2.991h3.234c1.173-5.578,4.77-8.448,10.55-8.448
			c1.94,0,3.678,0.324,5.578,1.253l-1.132,3.678c-1.657-0.97-3.113-1.253-4.608-1.253c-2.95,0-4.81,1.576-5.578,4.77h7.68v2.991
			h-8.084c-0.041,0.404-0.041,0.889-0.041,1.334v1.213h8.125v2.951h-7.761c0.768,3.597,2.708,5.295,5.821,5.295
			c1.415,0,3.113-0.404,4.77-1.253L166.787,49.301z"/>
	</g>
</g>
</svg>
