<?xml version="1.0" encoding="utf-8"?>
<!-- Generator: Adobe Illustrator 22.1.0, SVG Export Plug-In . SVG Version: 6.00 Build 0)  -->
<svg version="1.1" id="Ebene_1" xmlns="http://www.w3.org/2000/svg" xmlns:xlink="http://www.w3.org/1999/xlink" x="0px" y="0px"
	 viewBox="0 0 350 60" style="enable-background:new 0 0 350 60;" xml:space="preserve">
<style type="text/css">
	.st0{fill:#008EBD;}
</style>
<path class="st0" d="M0,0v60h350V0H0z M69,42.5c0,1.9-1.6,3.5-3.5,3.5H60v-8.6h-6.3V46h-5.6c-1.9,0-3.5-1.6-3.5-3.5v-8.2
	c0-0.3,0.1-0.5,0.3-0.7l11.2-11.2c0.4-0.4,1-0.4,1.3,0l11.2,11.2c0.2,0.2,0.3,0.4,0.3,0.7V42.5z M73.1,31.5
	c-0.4,0.4-0.9,0.6-1.4,0.6c-0.5,0-1-0.2-1.4-0.6L57.6,18.8c-0.4-0.4-1.1-0.4-1.6,0L43.3,31.5c-0.8,0.8-2,0.8-2.7,0
	c-0.8-0.8-0.8-2,0-2.7L53.3,16c1.9-1.9,5.1-1.9,7,0l3.8,3.8v-2c0-1.1,0.9-1.9,1.9-1.9c1.1,0,1.9,0.9,1.9,1.9v5.9l5.1,5.1
	C73.9,29.6,73.9,30.8,73.1,31.5z M119.1,30.4l-6.1,6.1c-0.4,0.4-1.1,0.7-1.7,0.7c-2.1,0-3.2-2.6-1.7-4.1l2.7-2.7
	c0.2-0.2,0.2-0.6,0-0.8l-2.7-2.7c-1.5-1.5-0.4-4.1,1.7-4.1c0.6,0,1.2,0.3,1.7,0.7l6.1,6.1C119.3,29.8,119.3,30.2,119.1,30.4z
	 M130.9,30.4l-6.1,6.1c-0.4,0.4-1.1,0.7-1.7,0.7c-2.1,0-3.2-2.6-1.7-4.1l2.7-2.7c0.2-0.2,0.2-0.6,0-0.8l-2.7-2.7
	c-1.5-1.5-0.4-4.1,1.7-4.1c0.6,0,1.2,0.3,1.7,0.7l6.1,6.1C131.1,29.8,131.1,30.2,130.9,30.4z M161,46c-2.2,0-4-1.8-4-4
	c0-2.2,1.8-4,4-4s4,1.8,4,4C165,44.2,163.2,46,161,46z M175,46c-2.2,0-4-1.8-4-4c0-2.2,1.8-4,4-4s4,1.8,4,4
	C179,44.2,177.2,46,175,46z M189,46c-2.2,0-4-1.8-4-4c0-2.2,1.8-4,4-4s4,1.8,4,4C193,44.2,191.2,46,189,46z M229.1,30.4l-6.1,6.1
	c-0.4,0.4-1.1,0.7-1.7,0.7c-2.1,0-3.2-2.6-1.7-4.1l2.7-2.7c0.2-0.2,0.2-0.6,0-0.8l-2.7-2.7c-1.5-1.5-0.4-4.1,1.7-4.1
	c0.6,0,1.2,0.3,1.7,0.7l6.1,6.1C229.3,29.8,229.3,30.2,229.1,30.4z M240.9,30.4l-6.1,6.1c-0.4,0.4-1.1,0.7-1.7,0.7
	c-2.1,0-3.2-2.6-1.7-4.1l2.7-2.7c0.2-0.2,0.2-0.6,0-0.8l-2.7-2.7c-1.5-1.5-0.4-4.1,1.7-4.1c0.6,0,1.2,0.3,1.7,0.7l6.1,6.1
	C241.1,29.8,241.1,30.2,240.9,30.4z M271,46c-2.2,0-4-1.8-4-4c0-2.2,1.8-4,4-4s4,1.8,4,4C275,44.2,273.2,46,271,46z M285,46
	c-2.2,0-4-1.8-4-4c0-2.2,1.8-4,4-4s4,1.8,4,4C289,44.2,287.2,46,285,46z M299,46c-2.2,0-4-1.8-4-4c0-2.2,1.8-4,4-4s4,1.8,4,4
	C303,44.2,301.2,46,299,46z"/>
</svg>
