<?xml version="1.0" encoding="UTF-8" standalone="no"?><!DOCTYPE svg PUBLIC "-//W3C//DTD SVG 1.1//EN" "http://www.w3.org/Graphics/SVG/1.1/DTD/svg11.dtd"><svg width="100%" height="100%" viewBox="0 0 350 120" version="1.1" xmlns="http://www.w3.org/2000/svg" xmlns:xlink="http://www.w3.org/1999/xlink" xml:space="preserve" xmlns:serif="http://www.serif.com/" style="fill-rule:evenodd;clip-rule:evenodd;stroke-linejoin:round;stroke-miterlimit:1.41421;"><g><path d="M350,0l0,120l-350,0l0,-120l350,0Zm-145.321,51.735c1.106,-0.001 2,-0.895 2,-2l0,-29.008c0.001,-1.104 -0.894,-2 -1.999,-2l-71.94,0c-1.105,0 -2,0.895 -2,2l0,29.008c0,1.105 0.895,2 2,2l53.25,0c-0.164,5.231 -0.329,10.464 -0.494,15.698c0,0 -0.095,3.129 -0.116,4.706c-0.017,1.518 -0.045,3.799 -0.045,3.799c-2.326,-2.496 -5.1,-4.408 -8.322,-5.235c-5.419,-1.392 -9.521,3.126 -7.884,6.607c0.31,0.66 0.3,0.611 0.538,0.862c7.57,7.807 15.897,14.74 23.914,22.042c0.023,0.02 0.045,0.04 0.069,0.058c2.446,1.854 5.859,2.369 9.021,2.52c3.074,0.12 6.767,0.403 9.892,-1.018c1.438,-0.653 2.464,-1.681 2.464,-1.681c2.612,-2.479 4.314,-5.884 4.56,-9.433c0.442,-6.38 0.078,-12.936 0.032,-19.411c-0.063,-2.893 -2.06,-5.769 -4.905,-5.959c-1.086,-0.045 -1.852,0.199 -1.852,0.199c-1.111,-2.37 -3.912,-3.3 -6.392,-2.727c-0.41,0.095 -0.602,0.133 -1.194,0.412c-1.677,-2.287 -5.247,-2.763 -7.798,-1.253l-0.001,-10.186l7.202,0Zm-9.105,17.532c-0.036,-1.684 -0.083,-5.009 -0.096,-5.178c0,-6.495 0.08,-12.991 -0.002,-19.485c-0.062,-1.638 -1.535,-2.894 -3.253,-2.894c-2.091,0.013 -3.977,1.819 -4.044,3.935c-0.043,2.313 -0.142,4.625 -0.214,6.937c0,0 -0.524,15.984 -0.536,16.494c-0.066,2.966 -0.08,5.931 -0.101,8.896c0,0 -0.112,2.802 -2.399,0.441c-3.307,-3.444 -6.684,-6.447 -10.958,-6.067c-1.977,0.176 -4.095,3.2 -2.692,4.614c7.553,7.453 15.662,14.501 23.581,21.715c4.232,2.642 9.746,2.763 14.758,1.903c1.925,-0.331 3.888,-1.801 3.888,-1.801c0.909,-0.843 1.208,-1.214 1.721,-1.91c1.489,-2.018 2.34,-4.489 2.392,-7.002c0.043,-6.196 0.045,-12.392 0,-18.587c-0.004,-0.221 -0.019,-0.44 -0.043,-0.66c-0.213,-1.905 -2.083,-3.825 -4.326,-3.124c0.036,2.123 -0.013,4.247 -0.013,6.371c-0.027,1.015 -1.9,1.31 -1.999,0.052c-0.061,-2.337 -0.001,-4.675 -0.001,-7.013c0.001,-0.041 -0.081,-0.31 -0.123,-0.419c-0.774,-1.885 -3.527,-2.424 -5.406,-1.268c0.036,2.109 -0.013,4.219 -0.013,6.328c-0.026,0.999 -1.893,1.394 -1.999,0.052c-0.061,-2.337 0.006,-7.117 0.015,-7.168c-1.31,-1.839 -4.429,-1.746 -6.218,0.034c0.045,1.728 0.115,3.137 0.079,4.804c-0.063,0.973 -1.909,1.376 -1.998,0Zm9.106,-48.54l0,29.008l-7.203,0l0,-5.069c-0.027,-2.135 -1.493,-4.111 -3.493,-4.733c-3.829,-1.19 -7.689,2.045 -7.806,5.798c-0.041,1.335 -0.083,2.669 -0.125,4.004l-53.312,0l0,-29.008l71.939,0Zm-31.137,13.963l4.407,4.406l4.406,-4.406l1.763,1.762l-4.407,4.407l4.407,4.407l-1.763,1.762l-4.406,-4.406l-4.407,4.406l-1.763,-1.762l4.407,-4.407l-4.407,-4.407l1.763,-1.762Zm-6.135,-2.738c0.556,-2.313 1.903,-3.455 4.041,-3.455c1.083,0 2.137,0.205 3.338,0.908l0.82,-2.665c-1.376,-0.674 -2.635,-0.908 -4.041,-0.908c-4.188,0 -6.794,2.079 -7.643,6.12l-2.343,0l0,2.167l2.079,0c-0.029,0.322 -0.029,0.673 -0.029,1.054l0,0.79l-2.05,0l0,2.138l2.284,0c0.668,3.777 2.711,5.953 6.07,6.43c0.097,-0.248 0.242,-0.48 0.432,-0.68l1.964,-1.963c-0.264,0.033 -0.519,0.05 -0.763,0.05c-2.255,0 -3.661,-1.23 -4.217,-3.836l3.255,0l-0.306,-0.306c-0.465,-0.539 -0.536,-1.184 -0.36,-1.832l-2.853,0l0,-0.878c0,-0.323 0,-0.673 0.029,-0.967l3.945,0c0.582,-0.61 1.287,-1.094 1.912,-1.308l0,-0.859l-5.564,0Z" style="fill:#008ebd;"/></g></svg>