<?xml version="1.0" encoding="UTF-8" standalone="no"?><!DOCTYPE svg PUBLIC "-//W3C//DTD SVG 1.1//EN" "http://www.w3.org/Graphics/SVG/1.1/DTD/svg11.dtd"><svg width="100%" height="100%" viewBox="0 0 350 120" version="1.1" xmlns="http://www.w3.org/2000/svg" xmlns:xlink="http://www.w3.org/1999/xlink" xml:space="preserve" xmlns:serif="http://www.serif.com/" style="fill-rule:evenodd;clip-rule:evenodd;stroke-linecap:round;stroke-linejoin:round;stroke-miterlimit:1.5;"><rect x="0" y="0" width="350" height="120" style="fill:#008ebd;"/><path id="Brief" d="M215.544,26.056c0,-2.869 -2.329,-5.199 -5.198,-5.199l-87.004,0c-2.869,0 -5.198,2.33 -5.198,5.199l0,51.576c0,2.869 2.329,5.199 5.198,5.199l87.004,0c2.869,0 5.198,-2.33 5.198,-5.199l0,-51.576Z" style="fill:none;"/><clipPath id="_clip1"><path d="M215.544,26.056c0,-2.869 -2.329,-5.199 -5.198,-5.199l-87.004,0c-2.869,0 -5.198,2.33 -5.198,5.199l0,51.576c0,2.869 2.329,5.199 5.198,5.199l87.004,0c2.869,0 5.198,-2.33 5.198,-5.199l0,-51.576Z"/></clipPath><g clip-path="url(#_clip1)"><path d="M214.16,81.212l-32.132,-32.079" style="fill:none;stroke:#fff;stroke-width:2px;"/><path d="M212.944,23.357l-45.885,37.989" style="fill:none;stroke:#fff;stroke-width:2px;"/><path d="M166.844,61.107l-15.109,-11.969" style="fill:none;stroke:#fff;stroke-width:2px;"/><path d="M120.444,23.357l31.291,25.781" style="fill:none;stroke:#fff;stroke-width:2px;"/><path d="M120.544,80.357l31.191,-31.219" style="fill:none;stroke:#fff;stroke-width:2px;"/></g><path d="M215.544,26.056c0,-2.869 -2.329,-5.199 -5.198,-5.199l-87.004,0c-2.869,0 -5.198,2.33 -5.198,5.199l0,51.576c0,2.869 2.329,5.199 5.198,5.199l87.004,0c2.869,0 5.198,-2.33 5.198,-5.199l0,-51.576Z" style="fill:none;stroke:#fff;stroke-width:2px;"/><g><path d="M215.524,66.519c9.003,-0.011 16.321,7.289 16.332,16.292c0.011,9.002 -7.289,16.32 -16.292,16.332c-9.003,0.011 -16.321,-7.289 -16.332,-16.292c-0.011,-9.003 7.289,-16.321 16.292,-16.332Z" style="fill:#008ebd;stroke:#fff;stroke-width:2px;"/><g><path d="M218.885,75.792l3.543,3.609c0,0 1.314,-0.996 1.431,-1.638c0.027,-0.148 0.097,-0.327 0.093,-0.603c-0.003,-0.242 -0.075,-0.586 -0.117,-0.69c-0.08,-0.194 -0.359,-0.504 -0.449,-0.627c-0.209,-0.284 -0.812,-0.919 -1.101,-1.127c-0.294,-0.213 -0.389,-0.254 -0.811,-0.355c-0.107,-0.026 -0.422,-0.057 -0.613,-0.04c-0.225,0.021 -0.601,0.155 -0.699,0.243c-0.264,0.154 -0.27,0.179 -0.51,0.423c-0.315,0.32 -0.767,0.805 -0.767,0.805Z" style="fill:#fff;"/><path d="M209.024,85.732c0,0 -0.239,0.216 -0.389,0.439c-0.137,0.204 -0.295,0.564 -0.401,0.817c-0.119,0.288 -0.231,0.579 -0.316,0.846c-0.285,0.887 -0.715,2.536 -0.78,3.121c-0.021,0.183 0.163,0.37 0.39,0.39c0.459,-0.021 2.053,-0.554 2.9,-0.902c0.369,-0.152 1.194,-0.503 1.573,-0.716c0.408,-0.229 0.6,-0.41 0.6,-0.41" style="fill:#fff;"/><path d="M213.207,88.684l8.635,-8.685l0.004,-0.009l-3.5,-3.568l-0.024,-0.007l-8.692,8.726" style="fill:#fff;"/></g></g></svg>