<?xml version="1.0" encoding="UTF-8" standalone="no"?><!DOCTYPE svg PUBLIC "-//W3C//DTD SVG 1.1//EN" "http://www.w3.org/Graphics/SVG/1.1/DTD/svg11.dtd"><svg width="100%" height="100%" viewBox="0 0 263 90" version="1.1" xmlns="http://www.w3.org/2000/svg" xmlns:xlink="http://www.w3.org/1999/xlink" xml:space="preserve" xmlns:serif="http://www.serif.com/" style="fill-rule:evenodd;clip-rule:evenodd;stroke-linecap:round;stroke-linejoin:round;stroke-miterlimit:1.5;"><rect x="0" y="0" width="262.5" height="90" style="fill:#008ebd;"/><g id="Lock"><path d="M109.732,63.666c-1.75,-0.349 -3.381,-1.61 -4.186,-3.23c-0.741,-1.472 -0.708,-0.805 -0.676,-13.46l0.032,-11.427l0.236,-0.699c0.644,-1.864 2.147,-3.315 4.111,-3.971c0.569,-0.191 1.223,-0.202 15.884,-0.202c14.714,0 15.316,0.011 15.884,0.202c1.986,0.667 3.467,2.096 4.1,3.96l0.247,0.71l0.032,11.427c0.032,12.655 0.065,11.988 -0.676,13.46c-0.676,1.377 -1.975,2.499 -3.488,3.039l-0.698,0.244l-15.186,0.011c-8.35,0.01 -15.38,-0.022 -15.616,-0.064Zm16.185,-9.18c0.482,-0.243 0.708,-0.466 0.944,-0.911c0.182,-0.349 0.204,0.094 0.204,-2.268l0.011,-2.626l0.472,-0.339c1.481,-1.08 1.975,-3.198 1.159,-4.935c-0.408,-0.847 -1.095,-1.536 -1.943,-1.949c-0.536,-0.264 -0.729,-0.296 -1.631,-0.296c-0.912,0 -1.084,0.032 -1.653,0.307c-1.717,0.837 -2.661,2.849 -2.211,4.713c0.172,0.72 0.837,1.705 1.438,2.149l0.483,0.35l0.011,2.626c0,2.362 0.022,1.919 0.204,2.268c0.483,0.943 1.621,1.356 2.512,0.911Z" style="fill:#fff;fill-rule:nonzero;"/><path d="M110.709,29.078c0,0 0.184,-3.858 0.249,-4.258c0.39,-2.41 1.343,-4.531 2.849,-6.302c0.758,-0.895 2.632,-2.317 3.802,-2.887c3.684,-1.797 8.916,-2.104 13.109,-0.784c4.484,1.414 7.539,4.752 8.504,9.3c0.162,0.758 0.335,4.931 0.335,4.931l-6.25,0l-0.065,-1.848c-0.065,-2.036 -0.25,-2.955 -0.834,-4.216c-0.878,-1.89 -2.655,-3.219 -4.93,-3.696c-0.357,-0.068 -1.213,-0.153 -1.906,-0.179c-2.514,-0.093 -4.453,0.452 -5.948,1.678c-0.758,0.622 -1.235,1.252 -1.711,2.24c-0.607,1.269 -0.791,2.163 -0.856,4.215l-0.065,1.806l-6.283,0Z" style="fill:#fff;fill-rule:nonzero;"/></g><g><path d="M145.394,51.498c6.752,-0.009 12.241,5.466 12.249,12.218c0.009,6.753 -5.466,12.241 -12.218,12.25c-6.753,0.008 -12.241,-5.467 -12.25,-12.219c-0.008,-6.752 5.467,-12.241 12.219,-12.249Z" style="fill:#008ebd;stroke:#fff;stroke-width:1.5px;"/><g><path d="M147.915,58.453l2.657,2.707c0,0 0.986,-0.748 1.073,-1.229c0.021,-0.111 0.073,-0.245 0.07,-0.452c-0.002,-0.182 -0.056,-0.44 -0.088,-0.518c-0.059,-0.145 -0.268,-0.378 -0.336,-0.47c-0.157,-0.213 -0.609,-0.689 -0.826,-0.846c-0.221,-0.159 -0.291,-0.19 -0.608,-0.266c-0.081,-0.019 -0.317,-0.043 -0.46,-0.029c-0.169,0.015 -0.451,0.116 -0.524,0.181c-0.198,0.116 -0.203,0.135 -0.383,0.318c-0.236,0.24 -0.575,0.604 -0.575,0.604Z" style="fill:#fff;"/><path d="M140.52,65.907c0,0 -0.18,0.162 -0.292,0.33c-0.103,0.153 -0.222,0.423 -0.301,0.613c-0.089,0.215 -0.173,0.434 -0.237,0.634c-0.214,0.665 -0.537,1.902 -0.585,2.341c-0.016,0.137 0.122,0.277 0.292,0.293c0.345,-0.016 1.54,-0.416 2.175,-0.677c0.277,-0.114 0.896,-0.377 1.18,-0.537c0.306,-0.172 0.45,-0.308 0.45,-0.308" style="fill:#fff;"/><path d="M143.657,68.122l6.476,-6.514l0.003,-0.007l-2.625,-2.676l-0.018,-0.005l-6.519,6.544" style="fill:#fff;"/></g></g></svg>