<?xml version="1.0" encoding="UTF-8" standalone="no"?><!DOCTYPE svg PUBLIC "-//W3C//DTD SVG 1.1//EN" "http://www.w3.org/Graphics/SVG/1.1/DTD/svg11.dtd"><svg width="100%" height="100%" viewBox="0 0 350 120" version="1.1" xmlns="http://www.w3.org/2000/svg" xmlns:xlink="http://www.w3.org/1999/xlink" xml:space="preserve" xmlns:serif="http://www.serif.com/" style="fill-rule:evenodd;clip-rule:evenodd;stroke-linejoin:round;stroke-miterlimit:1.41421;"><g><path d="M0,0l350,0l0,120l-350,0l0,-120Zm139,22c-0.481,0 -0.924,0.172 -1.27,0.458c-0.371,0.307 -0.631,0.743 -0.707,1.238l-0.013,0.1c-0.006,0.067 -0.01,0.135 -0.01,0.204l0,72c0,0.516 0.198,0.987 0.521,1.343l0.067,0.069c0.101,0.102 0.214,0.193 0.336,0.271c0.311,0.201 0.68,0.317 1.076,0.317l72,0c1.1,0 2,-0.9 2,-2l0,-72c0,-1.1 -0.9,-2 -2,-2l-72,0Z" style="fill:#008ebd;fill-rule:nonzero;"/><path d="M211,24l0,72l-72,0l0,-72l72,0Zm-38.719,48.772c0.17,0 0.34,0 0.51,-0.17c0.17,-0.17 0.34,-0.34 0.51,-0.68l6.457,-22.431c0.105,-0.288 0.015,-0.568 -0.126,-0.83c-0.136,-0.252 -0.259,-0.369 -0.724,-0.53l-1.019,-0.34c-0.433,-0.056 -0.568,0.012 -0.85,0.17c-0.288,0.162 -0.377,0.333 -0.51,0.68l-6.457,22.431c0,0.34 0,0.51 0.17,0.85c0.17,0.17 0.34,0.34 0.68,0.51l1.019,0.34l0.34,0Zm20.902,-12.575c0,0.339 -0.17,0.509 -0.34,0.849l-8.157,8.157c-0.17,0.17 -0.51,0.34 -0.849,0.34c-0.34,0 -0.51,-0.17 -0.85,-0.34l-0.85,-0.85c-0.17,-0.169 -0.34,-0.509 -0.34,-0.849c0,-0.34 0.17,-0.51 0.34,-0.85l6.458,-6.457l-6.458,-6.458c-0.17,-0.17 -0.34,-0.51 -0.34,-0.85c0,-0.339 0.17,-0.509 0.34,-0.849l0.85,-0.85c0.51,-0.51 1.189,-0.51 1.529,0l8.157,8.157c0.34,0.34 0.51,0.51 0.51,0.85Zm-25.49,6.457c0.17,0.17 0.34,0.51 0.34,0.85c0,0.34 -0.17,0.51 -0.34,0.849l-0.85,0.85c-0.17,0.17 -0.51,0.34 -0.85,0.34c-0.339,0 -0.509,-0.17 -0.849,-0.34l-8.157,-8.157c-0.17,-0.17 -0.34,-0.51 -0.34,-0.849c0,-0.34 0.17,-0.51 0.34,-0.85l8.157,-8.157c0.51,-0.51 1.189,-0.51 1.529,0l0.85,0.85c0.17,0.17 0.34,0.51 0.34,0.849c0,0.34 -0.17,0.51 -0.34,0.85l-6.458,6.458l6.628,6.457Z" style="fill:#008ebd;"/></g></svg>