<?xml version="1.0" encoding="iso-8859-1"?>
<!-- Generator: Adobe Illustrator 23.0.1, SVG Export Plug-In . SVG Version: 6.00 Build 0)  -->
<svg version="1.1" id="Ebene_1" xmlns="http://www.w3.org/2000/svg" xmlns:xlink="http://www.w3.org/1999/xlink" x="0px" y="0px"
	 viewBox="0 0 350 120" style="enable-background:new 0 0 350 120;" xml:space="preserve">
<g>
	<rect x="0.223" y="-0.248" style="fill:#008EBD;" width="350" height="120"/>
</g>
<g>
	<g>
		<defs>
			<rect id="SVGID_1_" x="124.777" y="12.256" width="100.89" height="94.992"/>
		</defs>
		<clipPath id="SVGID_2_">
			<use xlink:href="#SVGID_1_"  style="overflow:visible;"/>
		</clipPath>
		<path style="clip-path:url(#SVGID_2_);fill:none;stroke:#FFFFFF;stroke-width:1.363;stroke-linecap:round;" d="M142.772,55.872
			h-8.758c-7.915,0-7.915,7.915-7.915,7.915v24.655c0,7.917,7.915,7.917,7.915,7.917h1.076l-2.668,8.06c0,0-0.853,2.577,1.351,0.993
			l12.599-9.053h34.912c7.915,0,7.915-7.917,7.915-7.917V68.01"/>
		<path style="clip-path:url(#SVGID_2_);fill:none;stroke:#FFFFFF;stroke-width:1.25;" d="M224.456,53.047v-29.96
			c0,0,0-9.617-9.619-9.617h-57.441c0,0-9.617,0-9.617,9.617v29.96c0,0,0,9.619,9.617,9.619h42.426l15.31,11.001
			c2.678,1.923,1.64-1.206,1.64-1.206l-3.242-9.795h1.307C214.837,62.666,224.456,62.666,224.456,53.047z"/>
	</g>
	<line style="fill:none;stroke:#FFFFFF;stroke-linecap:round;" x1="156.805" y1="23.593" x2="215.43" y2="23.593"/>
	<line style="fill:none;stroke:#FFFFFF;stroke-linecap:round;" x1="156.805" y1="31.931" x2="215.43" y2="31.931"/>
	<line style="fill:none;stroke:#FFFFFF;stroke-linecap:round;" x1="156.805" y1="40.269" x2="215.43" y2="40.269"/>
	<line style="fill:none;stroke:#FFFFFF;stroke-linecap:round;" x1="156.805" y1="48.608" x2="192.935" y2="48.608"/>
	<g>
		<defs>
			<rect id="SVGID_3_" x="124.777" y="12.256" width="100.89" height="94.992"/>
		</defs>
		<clipPath id="SVGID_4_">
			<use xlink:href="#SVGID_3_"  style="overflow:visible;"/>
		</clipPath>
		<path style="clip-path:url(#SVGID_4_);fill:#FFFFFF;" d="M167.256,85.351c1.02,0,1.805-0.785,1.805-1.805
			c0-1.049-0.785-1.834-1.805-1.834c-1.047,0-1.832,0.785-1.832,1.834C165.424,84.566,166.209,85.351,167.256,85.351
			 M165.711,78.964v1.204h2.932v-1.022c0-2.93,3.35-3.794,3.35-6.883c0-2.226-1.7-3.508-4.58-3.508c-1.466,0-2.802,0.339-4.111,0.89
			l0.576,2.199c1.256-0.496,2.303-0.733,3.141-0.733c1.284,0,2.016,0.601,2.016,1.571C169.036,74.803,165.711,75.693,165.711,78.964
			 M157.257,85.351c1.02,0,1.805-0.785,1.805-1.805c0-1.049-0.785-1.834-1.805-1.834c-1.047,0-1.832,0.785-1.832,1.834
			C155.425,84.566,156.21,85.351,157.257,85.351 M155.712,78.964v1.204h2.932v-1.022c0-2.93,3.35-3.794,3.35-6.883
			c0-2.226-1.7-3.508-4.58-3.508c-1.466,0-2.802,0.339-4.111,0.89l0.576,2.199c1.256-0.496,2.303-0.733,3.141-0.733
			c1.284,0,2.016,0.601,2.016,1.571C159.037,74.803,155.712,75.693,155.712,78.964 M147.256,85.351c1.022,0,1.807-0.785,1.807-1.805
			c0-1.049-0.785-1.834-1.807-1.834c-1.045,0-1.83,0.785-1.83,1.834C145.426,84.566,146.211,85.351,147.256,85.351 M145.713,78.964
			v1.204h2.932v-1.022c0-2.93,3.35-3.794,3.35-6.883c0-2.226-1.7-3.508-4.58-3.508c-1.468,0-2.802,0.339-4.111,0.89l0.576,2.199
			c1.256-0.496,2.303-0.733,3.141-0.733c1.284,0,2.015,0.601,2.015,1.571C149.036,74.803,145.713,75.693,145.713,78.964"/>
	</g>
</g>
</svg>
