<?xml version="1.0" encoding="UTF-8" standalone="no"?><!DOCTYPE svg PUBLIC "-//W3C//DTD SVG 1.1//EN" "http://www.w3.org/Graphics/SVG/1.1/DTD/svg11.dtd"><svg width="100%" height="100%" viewBox="0 0 350 120" version="1.1" xmlns="http://www.w3.org/2000/svg" xmlns:xlink="http://www.w3.org/1999/xlink" xml:space="preserve" xmlns:serif="http://www.serif.com/" style="fill-rule:evenodd;clip-rule:evenodd;stroke-linecap:round;stroke-linejoin:round;stroke-miterlimit:1.5;"><rect x="0" y="0" width="350" height="120" style="fill:#008ebd;"/><g id="Ebene1"><g><ellipse cx="150.975" cy="48.445" rx="11.476" ry="11.445" style="fill:#fff;"/><path d="M169.994,70.463c-0.216,-4.569 -3.04,-8.443 -6.958,-10.002c-3.254,2.751 -7.458,4.418 -12.057,4.418c-4.574,0 -8.758,-1.646 -12.004,-4.37c-0.183,0.074 -0.368,0.141 -0.546,0.224c-0.069,0.032 -0.137,0.065 -0.206,0.099c-1.132,0.56 -2.158,1.319 -3.036,2.232c-0.053,0.054 -0.105,0.111 -0.157,0.167c-1.76,1.906 -2.887,4.447 -3.022,7.249c-0.009,0.187 -0.008,0.375 -0.008,0.565l0,11.763c0,0.242 0.225,0.186 0.456,0.186l37.215,0c0.232,0 0.328,0.055 0.328,-0.186l0,-11.764c0,-0.189 0.004,-0.394 -0.005,-0.581Z" style="fill:#fff;fill-rule:nonzero;"/></g><g><path d="M218,82l-37,0" style="fill:none;stroke:#fff;stroke-width:2px;"/><path d="M218,71l-37,0" style="fill:none;stroke:#fff;stroke-width:2px;"/><path d="M218,60l-37,0" style="fill:none;stroke:#fff;stroke-width:2px;"/><path d="M206,49l-25,0" style="fill:none;stroke:#fff;stroke-width:2px;"/></g><path d="M221.486,22.001l0.125,0.002l0.123,0.004l0.124,0.006l0.123,0.007l0.122,0.008l0.122,0.01l0.122,0.012l0.121,0.013l0.121,0.014l0.12,0.017l0.12,0.017l0.119,0.019l0.119,0.021l0.118,0.022l0.118,0.023l0.118,0.025l0.116,0.026l0.117,0.028l0.115,0.029l0.116,0.03l0.114,0.032l0.114,0.033l0.114,0.035l0.113,0.036l0.112,0.037l0.111,0.038l0.111,0.04l0.111,0.041l0.109,0.043l0.11,0.044l0.108,0.045l0.108,0.046l0.107,0.048l0.106,0.049l0.106,0.05l0.105,0.051l0.104,0.053l0.104,0.054l0.102,0.055l0.102,0.056l0.102,0.058l0.1,0.058l0.1,0.06l0.099,0.061l0.098,0.062l0.098,0.064l0.096,0.064l0.096,0.066l0.095,0.066l0.094,0.068l0.093,0.069l0.092,0.07l0.092,0.071l0.09,0.072l0.09,0.073l0.089,0.074l0.088,0.075l0.087,0.077l0.086,0.077l0.085,0.078l0.084,0.08l0.083,0.08l0.083,0.081l0.081,0.083l0.08,0.083l0.08,0.084l0.078,0.085l0.077,0.086l0.077,0.087l0.075,0.088l0.074,0.089l0.073,0.09l0.072,0.09l0.071,0.092l0.07,0.092l0.069,0.093l0.068,0.094l0.066,0.095l0.066,0.096l0.064,0.096l0.064,0.098l0.062,0.098l0.061,0.099l0.06,0.1l0.058,0.1l0.058,0.102l0.056,0.102l0.055,0.102l0.054,0.104l0.053,0.104l0.051,0.105l0.05,0.106l0.049,0.106l0.048,0.107l0.046,0.108l0.045,0.108l0.044,0.11l0.043,0.109l0.041,0.111l0.04,0.111l0.038,0.111l0.037,0.112l0.036,0.113l0.035,0.114l0.033,0.114l0.032,0.114l0.03,0.116l0.029,0.115l0.028,0.117l0.026,0.116l0.025,0.118l0.023,0.118l0.022,0.118l0.021,0.119l0.019,0.119l0.017,0.12l0.017,0.12l0.014,0.121l0.013,0.121l0.012,0.122l0.01,0.122l0.008,0.122l0.007,0.123l0.006,0.124l0.004,0.123l0.002,0.125l0.001,0.124l0,56.724l-0.001,0.124l-0.002,0.125l-0.004,0.123l-0.006,0.124l-0.007,0.123l-0.008,0.122l-0.01,0.122l-0.012,0.122l-0.013,0.121l-0.014,0.121l-0.017,0.12l-0.017,0.12l-0.019,0.119l-0.021,0.119l-0.022,0.118l-0.023,0.118l-0.025,0.118l-0.026,0.116l-0.028,0.117l-0.029,0.115l-0.03,0.116l-0.032,0.114l-0.033,0.114l-0.035,0.114l-0.036,0.113l-0.037,0.112l-0.038,0.111l-0.04,0.111l-0.041,0.111l-0.043,0.109l-0.044,0.11l-0.045,0.108l-0.046,0.108l-0.048,0.107l-0.049,0.106l-0.05,0.106l-0.051,0.105l-0.053,0.104l-0.054,0.104l-0.055,0.102l-0.056,0.102l-0.058,0.102l-0.058,0.1l-0.06,0.1l-0.061,0.099l-0.062,0.098l-0.064,0.098l-0.064,0.096l-0.066,0.096l-0.066,0.095l-0.068,0.094l-0.069,0.093l-0.07,0.092l-0.071,0.092l-0.072,0.09l-0.073,0.09l-0.074,0.089l-0.075,0.088l-0.077,0.087l-0.077,0.086l-0.078,0.085l-0.08,0.084l-0.08,0.083l-0.081,0.083l-0.083,0.081l-0.083,0.08l-0.084,0.08l-0.085,0.078l-0.086,0.077l-0.087,0.077l-0.088,0.075l-0.089,0.074l-0.09,0.073l-0.09,0.072l-0.092,0.071l-0.092,0.07l-0.093,0.069l-0.094,0.068l-0.095,0.066l-0.096,0.066l-0.096,0.064l-0.098,0.064l-0.098,0.062l-0.099,0.061l-0.1,0.06l-0.1,0.058l-0.102,0.058l-0.102,0.056l-0.102,0.055l-0.104,0.054l-0.104,0.053l-0.105,0.051l-0.106,0.05l-0.106,0.049l-0.107,0.048l-0.108,0.046l-0.108,0.045l-0.11,0.044l-0.109,0.043l-0.111,0.041l-0.111,0.04l-0.111,0.038l-0.112,0.037l-0.113,0.036l-0.114,0.035l-0.114,0.033l-0.114,0.032l-0.116,0.03l-0.115,0.029l-0.117,0.028l-0.116,0.026l-0.118,0.025l-0.118,0.023l-0.118,0.022l-0.119,0.021l-0.119,0.019l-0.12,0.017l-0.12,0.017l-0.121,0.014l-0.121,0.013l-0.122,0.012l-0.122,0.01l-0.122,0.008l-0.123,0.007l-0.124,0.006l-0.123,0.004l-0.125,0.002l-0.124,0.001l-92.724,0l-0.124,-0.001l-0.125,-0.002l-0.123,-0.004l-0.124,-0.006l-0.123,-0.007l-0.122,-0.008l-0.122,-0.01l-0.122,-0.012l-0.121,-0.013l-0.121,-0.014l-0.12,-0.017l-0.12,-0.017l-0.119,-0.019l-0.119,-0.021l-0.118,-0.022l-0.118,-0.023l-0.118,-0.025l-0.116,-0.026l-0.117,-0.028l-0.115,-0.029l-0.116,-0.03l-0.114,-0.032l-0.114,-0.033l-0.114,-0.035l-0.113,-0.036l-0.112,-0.037l-0.111,-0.038l-0.111,-0.04l-0.111,-0.041l-0.109,-0.043l-0.11,-0.044l-0.108,-0.045l-0.108,-0.046l-0.107,-0.048l-0.106,-0.049l-0.106,-0.05l-0.105,-0.051l-0.104,-0.053l-0.104,-0.054l-0.102,-0.055l-0.102,-0.056l-0.102,-0.058l-0.1,-0.058l-0.1,-0.06l-0.099,-0.061l-0.098,-0.062l-0.098,-0.064l-0.096,-0.064l-0.096,-0.066l-0.095,-0.066l-0.094,-0.068l-0.093,-0.069l-0.092,-0.07l-0.092,-0.071l-0.09,-0.072l-0.09,-0.073l-0.089,-0.074l-0.088,-0.075l-0.087,-0.077l-0.086,-0.077l-0.085,-0.078l-0.084,-0.08l-0.083,-0.08l-0.083,-0.081l-0.081,-0.083l-0.08,-0.083l-0.08,-0.084l-0.078,-0.085l-0.077,-0.086l-0.077,-0.087l-0.075,-0.088l-0.074,-0.089l-0.073,-0.09l-0.072,-0.09l-0.071,-0.092l-0.07,-0.092l-0.069,-0.093l-0.068,-0.094l-0.066,-0.095l-0.066,-0.096l-0.064,-0.096l-0.064,-0.098l-0.062,-0.098l-0.061,-0.099l-0.06,-0.1l-0.058,-0.1l-0.058,-0.102l-0.056,-0.102l-0.055,-0.102l-0.054,-0.104l-0.053,-0.104l-0.051,-0.105l-0.05,-0.106l-0.049,-0.106l-0.048,-0.107l-0.046,-0.108l-0.045,-0.108l-0.044,-0.11l-0.043,-0.109l-0.041,-0.111l-0.04,-0.111l-0.038,-0.111l-0.037,-0.112l-0.036,-0.113l-0.035,-0.114l-0.033,-0.114l-0.032,-0.114l-0.03,-0.116l-0.029,-0.115l-0.028,-0.117l-0.026,-0.116l-0.025,-0.118l-0.023,-0.118l-0.022,-0.118l-0.021,-0.119l-0.019,-0.119l-0.017,-0.12l-0.017,-0.12l-0.014,-0.121l-0.013,-0.121l-0.012,-0.122l-0.01,-0.122l-0.008,-0.122l-0.007,-0.123l-0.006,-0.124l-0.004,-0.123l-0.002,-0.125l-0.001,-0.124l0,-56.724l0.001,-0.124l0.002,-0.125l0.004,-0.123l0.006,-0.124l0.007,-0.123l0.008,-0.122l0.01,-0.122l0.012,-0.122l0.013,-0.121l0.014,-0.121l0.017,-0.12l0.017,-0.12l0.019,-0.119l0.021,-0.119l0.022,-0.118l0.023,-0.118l0.025,-0.118l0.026,-0.116l0.028,-0.117l0.029,-0.115l0.03,-0.116l0.032,-0.114l0.033,-0.114l0.035,-0.114l0.036,-0.113l0.037,-0.112l0.038,-0.111l0.04,-0.111l0.041,-0.111l0.043,-0.109l0.044,-0.11l0.045,-0.108l0.046,-0.108l0.048,-0.107l0.049,-0.106l0.05,-0.106l0.051,-0.105l0.053,-0.104l0.054,-0.104l0.055,-0.102l0.056,-0.102l0.058,-0.102l0.058,-0.1l0.06,-0.1l0.061,-0.099l0.062,-0.098l0.064,-0.098l0.064,-0.096l0.066,-0.096l0.066,-0.095l0.068,-0.094l0.069,-0.093l0.07,-0.092l0.071,-0.092l0.072,-0.09l0.073,-0.09l0.074,-0.089l0.075,-0.088l0.077,-0.087l0.077,-0.086l0.078,-0.085l0.08,-0.084l0.08,-0.083l0.081,-0.083l0.083,-0.081l0.083,-0.08l0.084,-0.08l0.085,-0.078l0.086,-0.077l0.087,-0.077l0.088,-0.075l0.089,-0.074l0.09,-0.073l0.09,-0.072l0.092,-0.071l0.092,-0.07l0.093,-0.069l0.094,-0.068l0.095,-0.066l0.096,-0.066l0.096,-0.064l0.098,-0.064l0.098,-0.062l0.099,-0.061l0.1,-0.06l0.1,-0.058l0.102,-0.058l0.102,-0.056l0.102,-0.055l0.104,-0.054l0.104,-0.053l0.105,-0.051l0.106,-0.05l0.106,-0.049l0.107,-0.048l0.108,-0.046l0.108,-0.045l0.11,-0.044l0.109,-0.043l0.111,-0.041l0.111,-0.04l0.111,-0.038l0.112,-0.037l0.113,-0.036l0.114,-0.035l0.114,-0.033l0.114,-0.032l0.116,-0.03l0.115,-0.029l0.117,-0.028l0.116,-0.026l0.118,-0.025l0.118,-0.023l0.118,-0.022l0.119,-0.021l0.119,-0.019l0.12,-0.017l0.12,-0.017l0.121,-0.014l0.121,-0.013l0.122,-0.012l0.122,-0.01l0.122,-0.008l0.123,-0.007l0.124,-0.006l0.123,-0.004l0.125,-0.002l0.124,-0.001l92.724,0l0.124,0.001Zm-92.842,1.999l-0.105,0.001l-0.099,0.002l-0.098,0.003l-0.098,0.004l-0.098,0.006l-0.097,0.006l-0.097,0.008l-0.096,0.01l-0.097,0.01l-0.095,0.012l-0.096,0.012l-0.094,0.014l-0.095,0.015l-0.094,0.016l-0.094,0.018l-0.093,0.018l-0.093,0.02l-0.092,0.021l-0.092,0.022l-0.092,0.022l-0.091,0.025l-0.09,0.025l-0.09,0.026l-0.09,0.027l-0.089,0.029l-0.089,0.029l-0.088,0.031l-0.088,0.031l-0.088,0.033l-0.086,0.033l-0.087,0.035l-0.085,0.036l-0.086,0.036l-0.084,0.038l-0.085,0.039l-0.083,0.04l-0.083,0.04l-0.083,0.042l-0.082,0.043l-0.081,0.043l-0.081,0.045l-0.08,0.045l-0.08,0.047l-0.079,0.047l-0.079,0.049l-0.077,0.049l-0.078,0.05l-0.076,0.051l-0.076,0.052l-0.075,0.053l-0.075,0.054l-0.074,0.054l-0.073,0.056l-0.073,0.056l-0.072,0.057l-0.071,0.058l-0.071,0.059l-0.069,0.06l-0.069,0.061l-0.069,0.061l-0.067,0.062l-0.067,0.063l-0.066,0.064l-0.066,0.065l-0.064,0.065l-0.064,0.066l-0.063,0.067l-0.062,0.067l-0.061,0.069l-0.061,0.069l-0.06,0.07l-0.059,0.07l-0.058,0.071l-0.057,0.072l-0.056,0.073l-0.056,0.073l-0.054,0.074l-0.054,0.075l-0.053,0.075l-0.052,0.076l-0.051,0.076l-0.05,0.078l-0.049,0.077l-0.049,0.079l-0.047,0.079l-0.047,0.08l-0.045,0.08l-0.045,0.081l-0.043,0.081l-0.043,0.082l-0.042,0.083l-0.04,0.083l-0.04,0.083l-0.039,0.085l-0.038,0.084l-0.036,0.086l-0.036,0.085l-0.035,0.087l-0.033,0.087l-0.033,0.087l-0.031,0.088l-0.031,0.088l-0.029,0.089l-0.029,0.089l-0.027,0.09l-0.026,0.09l-0.025,0.09l-0.024,0.091l-0.023,0.092l-0.022,0.092l-0.021,0.092l-0.02,0.093l-0.018,0.093l-0.018,0.094l-0.016,0.094l-0.015,0.095l-0.014,0.094l-0.012,0.096l-0.012,0.095l-0.01,0.097l-0.01,0.096l-0.008,0.097l-0.006,0.097l-0.006,0.098l-0.004,0.098l-0.003,0.098l-0.002,0.099l-0.001,0.105l0,56.712l0.001,0.105l0.002,0.099l0.003,0.098l0.004,0.098l0.006,0.098l0.006,0.097l0.008,0.097l0.01,0.096l0.01,0.097l0.012,0.095l0.012,0.096l0.014,0.094l0.015,0.095l0.016,0.094l0.018,0.094l0.018,0.093l0.02,0.093l0.021,0.092l0.022,0.092l0.023,0.092l0.024,0.091l0.025,0.09l0.026,0.09l0.027,0.09l0.029,0.089l0.029,0.089l0.031,0.088l0.031,0.088l0.033,0.087l0.033,0.087l0.035,0.087l0.036,0.085l0.036,0.086l0.038,0.084l0.039,0.085l0.04,0.083l0.04,0.083l0.042,0.083l0.043,0.082l0.043,0.081l0.045,0.081l0.045,0.08l0.047,0.08l0.047,0.079l0.049,0.079l0.049,0.077l0.05,0.078l0.051,0.076l0.052,0.076l0.053,0.075l0.054,0.075l0.054,0.074l0.056,0.073l0.056,0.073l0.057,0.072l0.058,0.071l0.059,0.07l0.06,0.07l0.061,0.069l0.061,0.069l0.062,0.067l0.063,0.067l0.064,0.066l0.064,0.066l0.066,0.064l0.066,0.064l0.067,0.063l0.067,0.062l0.069,0.061l0.069,0.061l0.07,0.06l0.07,0.059l0.071,0.058l0.072,0.057l0.073,0.056l0.073,0.056l0.074,0.054l0.075,0.054l0.075,0.053l0.076,0.052l0.076,0.051l0.078,0.05l0.077,0.049l0.079,0.049l0.079,0.047l0.08,0.047l0.08,0.045l0.081,0.045l0.081,0.043l0.082,0.043l0.083,0.042l0.083,0.04l0.083,0.04l0.085,0.039l0.084,0.038l0.086,0.036l0.085,0.036l0.087,0.035l0.086,0.033l0.088,0.033l0.088,0.031l0.088,0.031l0.089,0.029l0.089,0.029l0.09,0.027l0.09,0.026l0.09,0.025l0.091,0.024l0.092,0.023l0.092,0.022l0.092,0.021l0.093,0.02l0.093,0.018l0.094,0.018l0.094,0.016l0.095,0.015l0.094,0.014l0.096,0.012l0.095,0.012l0.097,0.01l0.096,0.01l0.097,0.008l0.097,0.006l0.098,0.006l0.098,0.004l0.098,0.003l0.099,0.002l0.105,0.001l92.712,0l0.105,-0.001l0.099,-0.002l0.098,-0.003l0.098,-0.004l0.098,-0.006l0.097,-0.006l0.097,-0.008l0.096,-0.01l0.097,-0.01l0.095,-0.012l0.096,-0.012l0.094,-0.014l0.095,-0.015l0.094,-0.016l0.094,-0.018l0.093,-0.018l0.093,-0.02l0.092,-0.021l0.092,-0.022l0.092,-0.023l0.091,-0.024l0.09,-0.025l0.09,-0.026l0.09,-0.027l0.089,-0.029l0.089,-0.029l0.088,-0.031l0.088,-0.031l0.088,-0.033l0.086,-0.033l0.087,-0.035l0.085,-0.036l0.086,-0.036l0.084,-0.038l0.085,-0.039l0.083,-0.04l0.083,-0.04l0.083,-0.042l0.082,-0.043l0.081,-0.043l0.081,-0.045l0.08,-0.045l0.08,-0.047l0.079,-0.047l0.079,-0.049l0.077,-0.049l0.078,-0.05l0.076,-0.051l0.076,-0.052l0.076,-0.053l0.074,-0.054l0.074,-0.054l0.073,-0.056l0.073,-0.056l0.072,-0.057l0.071,-0.059l0.07,-0.058l0.07,-0.06l0.069,-0.061l0.069,-0.061l0.067,-0.062l0.067,-0.063l0.066,-0.064l0.066,-0.064l0.064,-0.066l0.064,-0.066l0.063,-0.067l0.062,-0.067l0.061,-0.069l0.061,-0.069l0.06,-0.069l0.059,-0.071l0.058,-0.071l0.057,-0.072l0.056,-0.073l0.056,-0.073l0.054,-0.074l0.054,-0.075l0.053,-0.075l0.052,-0.076l0.051,-0.076l0.05,-0.078l0.049,-0.077l0.049,-0.079l0.047,-0.079l0.047,-0.079l0.045,-0.081l0.045,-0.081l0.043,-0.081l0.043,-0.082l0.042,-0.082l0.04,-0.084l0.04,-0.084l0.039,-0.083l0.038,-0.085l0.036,-0.086l0.036,-0.085l0.035,-0.087l0.033,-0.086l0.033,-0.088l0.031,-0.088l0.031,-0.088l0.029,-0.089l0.029,-0.089l0.027,-0.09l0.026,-0.09l0.025,-0.09l0.025,-0.091l0.022,-0.092l0.022,-0.092l0.021,-0.092l0.02,-0.093l0.018,-0.093l0.018,-0.094l0.016,-0.094l0.015,-0.094l0.014,-0.095l0.012,-0.096l0.012,-0.095l0.01,-0.096l0.01,-0.097l0.008,-0.097l0.006,-0.097l0.006,-0.098l0.004,-0.098l0.003,-0.098l0.002,-0.099l0.001,-0.105l0,-56.712l-0.001,-0.105l-0.002,-0.099l-0.003,-0.098l-0.004,-0.098l-0.006,-0.098l-0.006,-0.097l-0.008,-0.097l-0.01,-0.097l-0.01,-0.096l-0.012,-0.095l-0.012,-0.096l-0.014,-0.095l-0.015,-0.094l-0.016,-0.094l-0.018,-0.094l-0.018,-0.093l-0.02,-0.093l-0.021,-0.092l-0.022,-0.092l-0.022,-0.092l-0.025,-0.091l-0.025,-0.09l-0.026,-0.09l-0.027,-0.09l-0.029,-0.089l-0.029,-0.089l-0.031,-0.088l-0.031,-0.088l-0.033,-0.088l-0.033,-0.086l-0.035,-0.087l-0.036,-0.085l-0.036,-0.086l-0.038,-0.084l-0.039,-0.084l-0.04,-0.084l-0.04,-0.084l-0.042,-0.082l-0.043,-0.082l-0.043,-0.081l-0.045,-0.081l-0.045,-0.08l-0.047,-0.08l-0.047,-0.079l-0.049,-0.079l-0.049,-0.077l-0.05,-0.078l-0.051,-0.076l-0.052,-0.076l-0.053,-0.075l-0.054,-0.075l-0.054,-0.074l-0.056,-0.073l-0.056,-0.073l-0.057,-0.072l-0.058,-0.071l-0.059,-0.07l-0.06,-0.07l-0.061,-0.069l-0.061,-0.069l-0.062,-0.067l-0.063,-0.067l-0.064,-0.066l-0.064,-0.065l-0.066,-0.065l-0.066,-0.064l-0.067,-0.063l-0.067,-0.062l-0.069,-0.061l-0.069,-0.061l-0.07,-0.06l-0.07,-0.058l-0.071,-0.059l-0.072,-0.057l-0.073,-0.056l-0.073,-0.056l-0.074,-0.054l-0.075,-0.054l-0.075,-0.053l-0.076,-0.052l-0.076,-0.051l-0.078,-0.05l-0.077,-0.049l-0.079,-0.049l-0.079,-0.047l-0.08,-0.047l-0.08,-0.045l-0.081,-0.045l-0.081,-0.043l-0.082,-0.043l-0.083,-0.042l-0.083,-0.04l-0.083,-0.04l-0.085,-0.039l-0.084,-0.038l-0.086,-0.036l-0.085,-0.036l-0.087,-0.035l-0.086,-0.033l-0.088,-0.033l-0.088,-0.031l-0.088,-0.031l-0.089,-0.029l-0.089,-0.029l-0.09,-0.027l-0.09,-0.026l-0.09,-0.025l-0.091,-0.025l-0.092,-0.022l-0.092,-0.022l-0.092,-0.021l-0.093,-0.02l-0.093,-0.018l-0.094,-0.018l-0.094,-0.016l-0.095,-0.015l-0.094,-0.014l-0.096,-0.012l-0.095,-0.012l-0.097,-0.01l-0.096,-0.01l-0.097,-0.008l-0.097,-0.006l-0.098,-0.006l-0.098,-0.004l-0.098,-0.003l-0.099,-0.002l-0.105,-0.001l-92.712,0Z" style="fill:#fff;"/></g></svg>