<?xml version="1.0" encoding="iso-8859-1"?>
<!-- Generator: Adobe Illustrator 23.0.1, SVG Export Plug-In . SVG Version: 6.00 Build 0)  -->
<svg version="1.1" id="Ebene_1" xmlns="http://www.w3.org/2000/svg" xmlns:xlink="http://www.w3.org/1999/xlink" x="0px" y="0px"
	 viewBox="0 0 350 120" style="enable-background:new 0 0 350 120;" xml:space="preserve">
<rect x="-0.218" y="0.25" style="fill:#008EBD;" width="350" height="120"/>
<g>
	
		<ellipse transform="matrix(0.9732 -0.2298 0.2298 0.9732 -8.9757 37.5147)" style="fill:#FFFFFF;" cx="156.61" cy="57.301" rx="16.051" ry="16.051"/>
	<path style="fill:#FFFFFF;" d="M183.205,88.169c-0.302-6.408-4.252-11.841-9.731-14.027c-4.551,3.858-10.431,6.196-16.864,6.196
		c-6.397,0-12.25-2.309-16.79-6.128c-0.255,0.103-0.514,0.197-0.763,0.313c-0.097,0.046-0.192,0.092-0.288,0.139
		c-1.583,0.786-3.018,1.85-4.247,3.13c-0.074,0.077-0.146,0.156-0.219,0.235c-2.462,2.673-4.038,6.236-4.227,10.166
		c-0.013,0.262-0.011,0.526-0.011,0.792v16.497c0,0.339,0.314,0.261,0.638,0.261h52.051c0.324,0,0.458,0.077,0.458-0.261V88.984
		C183.213,88.718,183.218,88.431,183.205,88.169z"/>
</g>
<path style="fill:none;stroke:#FFFFFF;stroke-width:2;stroke-linecap:round;stroke-linejoin:round;stroke-miterlimit:10;" d="
	M197.151,14.806c-12.968-0.799-24,6.996-24.641,17.409c-0.519,8.428,5.929,15.988,15.282,18.987v9.547l11.238-8.28
	c11.069-0.909,19.87-8.096,20.44-17.363C220.111,24.694,210.119,15.605,197.151,14.806z"/>
<g>
	<path style="fill:#FFFFFF;" d="M186.296,34.223c0-1.176,0.883-2.059,2.03-2.059c1.177,0,2.06,0.883,2.06,2.059
		c0,1.147-0.883,2.03-2.06,2.03C187.179,36.253,186.296,35.37,186.296,34.223z M194.033,34.223c0-1.176,0.883-2.059,2.03-2.059
		c1.177,0,2.059,0.883,2.059,2.059c0,1.147-0.882,2.03-2.059,2.03C194.916,36.253,194.033,35.37,194.033,34.223z M201.595,34.223
		c0-1.176,0.883-2.059,2.059-2.059c1.147,0,2.03,0.883,2.03,2.059c0,1.147-0.883,2.03-2.03,2.03
		C202.478,36.253,201.595,35.37,201.595,34.223z"/>
</g>
</svg>
