<?xml version="1.0" encoding="UTF-8" standalone="no"?><!DOCTYPE svg PUBLIC "-//W3C//DTD SVG 1.1//EN" "http://www.w3.org/Graphics/SVG/1.1/DTD/svg11.dtd"><svg width="100%" height="100%" viewBox="0 0 263 90" version="1.1" xmlns="http://www.w3.org/2000/svg" xmlns:xlink="http://www.w3.org/1999/xlink" xml:space="preserve" xmlns:serif="http://www.serif.com/" style="fill-rule:evenodd;clip-rule:evenodd;stroke-linejoin:round;stroke-miterlimit:2;"><rect x="0" y="0" width="262.5" height="90" style="fill:#008ebd;"/><g><path d="M162.207,46.106l0.006,-0.176l-0.146,-0.1c-0.162,-0.109 -0.312,-0.236 -0.462,-0.361l-0.067,-0.057l-0.087,-0.014c-0.69,-0.114 -1.345,-0.317 -1.947,-0.606l-0.13,-0.031c-2.606,-0.066 -5.675,-1.468 -6.473,-5.209l-0.032,-0.149l-0.135,-0.069c-1.109,-0.568 -1.977,-1.406 -2.579,-2.49l-0.064,-0.115l-0.127,-0.037c-2.61,-0.754 -4.306,-2.808 -4.653,-5.637c-0.094,-0.767 -0.072,-1.522 0.064,-2.242l0.007,-0.083l-0.012,-0.06c-0.047,-0.24 -0.097,-0.492 -0.112,-0.737l-0.022,-0.291l-0.141,-0.084c-0.769,-0.458 -1.406,-1.046 -1.894,-1.747l-0.067,-0.095l-0.111,-0.03c-0.796,-0.216 -1.523,-0.558 -2.161,-1.017l-0.125,-0.054c-2.979,-0.583 -4.905,-2.691 -5.284,-5.782c-0.18,-1.471 0.036,-2.814 0.641,-3.991l0.204,-0.395l-0.44,-0.067c-2.781,-0.419 -5.594,-0.46 -8.363,-0.121c-16.95,2.075 -29.051,17.552 -26.976,34.501c2.075,16.95 17.552,29.051 34.501,26.976c15.224,-1.863 26.658,-14.325 27.187,-29.63Zm-61.054,2.577c-2.032,-16.6 9.82,-31.758 26.419,-33.79c2.571,-0.315 5.18,-0.295 7.764,0.057c-0.519,1.193 -0.693,2.523 -0.517,3.961c0.26,2.124 1.236,3.852 2.741,4.991c-0.282,0.269 -0.442,0.658 -0.391,1.073c0.086,0.7 0.723,1.199 1.423,1.113c0.585,-0.072 1.024,-0.53 1.103,-1.087c0.276,0.088 0.557,0.168 0.851,0.228c0.656,0.461 1.394,0.811 2.198,1.042c0.499,0.69 1.13,1.277 1.879,1.748c0.015,0.24 0.062,0.482 0.114,0.737c-0.139,0.766 -0.159,1.565 -0.059,2.377c0.103,0.847 0.329,1.623 0.645,2.332c-0.721,0.6 -1.137,1.535 -1.014,2.537c0.193,1.575 1.626,2.696 3.201,2.503c0.872,-0.106 1.597,-0.597 2.041,-1.279c0.039,0.012 0.072,0.031 0.111,0.043c0.629,1.083 1.541,1.965 2.647,2.563c0.916,3.961 4.181,5.472 6.981,5.565c0.614,0.287 1.276,0.495 1.971,0.616c0.098,0.082 0.198,0.164 0.301,0.241c-0.596,14.912 -11.766,27.03 -26.619,28.849c-16.6,2.032 -31.758,-9.821 -33.79,-26.42Z" style="fill:#fff;fill-rule:nonzero;"/><path d="M131.412,13.683l0.265,0.002l0.265,0.005l0.265,0.007l0.265,0.01l0.265,0.012l0.265,0.014l0.265,0.016l0.265,0.018l0.264,0.021l0.265,0.023l0.265,0.025l0.264,0.027l0.265,0.03l0.264,0.032l0.264,0.034l0.264,0.037l0.263,0.038l0.44,0.067l0.08,0.022l0.073,0.04l0.061,0.056l0.046,0.068l0.028,0.078l0.01,0.082l-0.01,0.082l-0.029,0.078l-0.203,0.395l-0.027,0.052l-0.026,0.053l-0.025,0.052l-0.025,0.053l-0.025,0.053l-0.023,0.054l-0.024,0.053l-0.022,0.054l-0.023,0.054l-0.021,0.054l-0.021,0.054l-0.021,0.055l-0.02,0.055l-0.019,0.055l-0.019,0.055l-0.019,0.056l-0.018,0.056l-0.017,0.056l-0.017,0.056l-0.016,0.056l-0.016,0.057l-0.015,0.057l-0.015,0.057l-0.014,0.057l-0.013,0.058l-0.013,0.057l-0.013,0.058l-0.012,0.059l-0.011,0.058l-0.011,0.059l-0.01,0.059l-0.01,0.059l-0.009,0.059l-0.009,0.06l-0.008,0.059l-0.008,0.06l-0.007,0.061l-0.007,0.06l-0.006,0.061l-0.005,0.061l-0.005,0.061l-0.004,0.061l-0.004,0.062l-0.003,0.061l-0.003,0.062l-0.002,0.063l-0.002,0.062l-0.001,0.063l0,0.063l0,0.063l0,0.063l0.002,0.064l0.001,0.063l0.002,0.064l0.003,0.064l0.004,0.065l0.004,0.064l0.004,0.065l0.011,0.13l0.013,0.132l0.015,0.132l0.008,0.069l0.01,0.069l0.01,0.069l0.01,0.068l0.011,0.068l0.011,0.067l0.012,0.067l0.013,0.067l0.013,0.066l0.013,0.066l0.015,0.066l0.014,0.065l0.015,0.065l0.016,0.064l0.016,0.064l0.017,0.064l0.017,0.063l0.018,0.063l0.018,0.062l0.019,0.062l0.019,0.062l0.02,0.061l0.02,0.061l0.021,0.06l0.021,0.06l0.021,0.06l0.023,0.059l0.022,0.059l0.024,0.059l0.023,0.058l0.024,0.057l0.025,0.057l0.025,0.057l0.026,0.057l0.026,0.055l0.027,0.056l0.027,0.055l0.027,0.055l0.028,0.054l0.029,0.054l0.029,0.054l0.029,0.053l0.03,0.052l0.031,0.053l0.03,0.051l0.032,0.052l0.032,0.051l0.032,0.05l0.033,0.05l0.033,0.05l0.033,0.049l0.034,0.049l0.035,0.049l0.035,0.048l0.036,0.047l0.035,0.048l0.037,0.046l0.037,0.047l0.037,0.045l0.038,0.046l0.038,0.045l0.039,0.045l0.039,0.044l0.039,0.043l0.04,0.044l0.041,0.043l0.04,0.042l0.042,0.042l0.041,0.041l0.043,0.042l0.042,0.04l0.043,0.04l0.044,0.04l0.044,0.04l0.044,0.038l0.045,0.039l0.045,0.038l0.046,0.037l0.046,0.038l0.047,0.036l0.047,0.036l0.047,0.036l0.048,0.035l0.048,0.035l0.049,0.035l0.049,0.034l0.05,0.033l0.05,0.033l0.05,0.033l0.051,0.032l0.052,0.031l0.051,0.032l0.052,0.03l0.053,0.031l0.053,0.029l0.054,0.03l0.053,0.028l0.055,0.029l0.054,0.028l0.056,0.027l0.055,0.027l0.056,0.026l0.056,0.026l0.057,0.026l0.058,0.025l0.057,0.024l0.058,0.024l0.059,0.024l0.059,0.023l0.059,0.022l0.06,0.022l0.06,0.022l0.06,0.021l0.061,0.021l0.062,0.02l0.061,0.019l0.063,0.019l0.062,0.019l0.063,0.018l0.064,0.017l0.064,0.017l0.064,0.017l0.064,0.016l0.065,0.015l0.066,0.015l0.066,0.015l0.066,0.013l0.068,0.014l0.071,0.022l0.125,0.054l0.063,0.036l0.058,0.042l0.058,0.039l0.057,0.039l0.058,0.039l0.059,0.037l0.059,0.037l0.06,0.037l0.06,0.035l0.061,0.036l0.061,0.034l0.061,0.034l0.062,0.033l0.063,0.032l0.063,0.032l0.063,0.031l0.064,0.031l0.065,0.03l0.064,0.029l0.066,0.028l0.065,0.028l0.066,0.027l0.067,0.027l0.067,0.026l0.067,0.025l0.068,0.024l0.069,0.024l0.068,0.023l0.07,0.022l0.069,0.022l0.07,0.021l0.071,0.02l0.071,0.02l0.11,0.03l0.076,0.03l0.067,0.047l0.054,0.061l0.065,0.094l0.044,0.063l0.045,0.061l0.045,0.06l0.046,0.059l0.046,0.059l0.048,0.058l0.048,0.058l0.049,0.057l0.05,0.057l0.051,0.055l0.051,0.055l0.053,0.055l0.053,0.054l0.054,0.053l0.054,0.052l0.056,0.052l0.056,0.051l0.057,0.051l0.058,0.05l0.059,0.049l0.059,0.049l0.06,0.048l0.061,0.047l0.062,0.046l0.063,0.046l0.063,0.046l0.064,0.044l0.065,0.044l0.066,0.043l0.066,0.043l0.067,0.041l0.069,0.042l0.14,0.083l0.066,0.051l0.052,0.065l0.036,0.076l0.016,0.082l0.022,0.293l0.003,0.044l0.004,0.041l0.004,0.041l0.005,0.041l0.011,0.086l0.013,0.086l0.015,0.088l0.017,0.088l0.035,0.18l0.011,0.06l0.006,0.049l0,0.049l-0.008,0.083l-0.004,0.032l-0.012,0.066l-0.011,0.064l-0.011,0.065l-0.01,0.065l-0.009,0.065l-0.008,0.065l-0.008,0.065l-0.008,0.066l-0.006,0.065l-0.006,0.066l-0.006,0.066l-0.005,0.066l-0.004,0.067l-0.003,0.066l-0.003,0.067l-0.002,0.066l-0.002,0.067l-0.001,0.067l0,0.068l0,0.067l0.001,0.068l0.002,0.067l0.002,0.068l0.003,0.068l0.004,0.068l0.004,0.068l0.005,0.068l0.005,0.068l0.006,0.069l0.007,0.068l0.008,0.069l0.008,0.068l0.016,0.127l0.019,0.125l0.02,0.125l0.022,0.123l0.024,0.121l0.026,0.121l0.027,0.119l0.03,0.118l0.031,0.117l0.033,0.116l0.034,0.114l0.037,0.113l0.038,0.112l0.04,0.11l0.042,0.109l0.043,0.108l0.045,0.106l0.047,0.105l0.048,0.104l0.05,0.103l0.052,0.101l0.053,0.099l0.055,0.099l0.057,0.097l0.058,0.095l0.06,0.095l0.062,0.092l0.063,0.092l0.064,0.09l0.067,0.088l0.067,0.087l0.07,0.086l0.071,0.084l0.073,0.084l0.036,0.04l0.037,0.04l0.038,0.04l0.038,0.04l0.038,0.04l0.039,0.039l0.039,0.038l0.039,0.038l0.04,0.038l0.04,0.038l0.041,0.037l0.041,0.037l0.041,0.036l0.042,0.036l0.042,0.036l0.042,0.035l0.043,0.035l0.043,0.034l0.044,0.034l0.044,0.034l0.044,0.033l0.045,0.033l0.045,0.033l0.045,0.032l0.046,0.031l0.046,0.032l0.047,0.031l0.046,0.03l0.048,0.03l0.046,0.03l0.097,0.058l0.098,0.057l0.099,0.055l0.101,0.053l0.102,0.052l0.103,0.05l0.105,0.049l0.106,0.046l0.108,0.045l0.109,0.044l0.11,0.041l0.112,0.04l0.113,0.038l0.114,0.037l0.118,0.035l0.125,0.036l0.083,0.036l0.071,0.057l0.054,0.072l0.064,0.114l0.055,0.097l0.056,0.095l0.057,0.092l0.058,0.091l0.06,0.09l0.061,0.088l0.063,0.087l0.064,0.086l0.066,0.084l0.067,0.082l0.068,0.082l0.07,0.08l0.071,0.078l0.072,0.077l0.074,0.075l0.076,0.075l0.076,0.072l0.078,0.072l0.08,0.069l0.081,0.069l0.082,0.067l0.084,0.066l0.085,0.064l0.087,0.063l0.088,0.061l0.089,0.06l0.091,0.058l0.092,0.057l0.093,0.056l0.095,0.054l0.097,0.053l0.099,0.052l0.133,0.068l0.065,0.042l0.054,0.056l0.04,0.067l0.024,0.073l0.032,0.148l0.018,0.084l0.019,0.083l0.02,0.082l0.021,0.081l0.021,0.08l0.022,0.079l0.023,0.078l0.024,0.077l0.024,0.077l0.025,0.076l0.026,0.075l0.026,0.074l0.027,0.073l0.028,0.073l0.028,0.071l0.029,0.071l0.03,0.07l0.03,0.07l0.031,0.068l0.032,0.068l0.032,0.067l0.033,0.066l0.034,0.065l0.034,0.065l0.034,0.064l0.036,0.063l0.036,0.062l0.036,0.061l0.037,0.061l0.038,0.06l0.038,0.06l0.038,0.058l0.04,0.058l0.039,0.057l0.041,0.056l0.04,0.056l0.042,0.055l0.041,0.054l0.043,0.054l0.043,0.052l0.043,0.053l0.044,0.051l0.044,0.051l0.044,0.05l0.046,0.049l0.045,0.049l0.046,0.048l0.047,0.047l0.047,0.046l0.047,0.046l0.048,0.046l0.048,0.044l0.049,0.044l0.048,0.044l0.05,0.042l0.05,0.042l0.05,0.041l0.05,0.041l0.051,0.04l0.051,0.04l0.052,0.038l0.052,0.039l0.052,0.037l0.053,0.037l0.053,0.036l0.053,0.036l0.054,0.035l0.054,0.034l0.054,0.034l0.054,0.033l0.055,0.033l0.055,0.032l0.055,0.031l0.056,0.031l0.056,0.03l0.056,0.029l0.056,0.029l0.056,0.029l0.057,0.027l0.057,0.028l0.057,0.026l0.058,0.026l0.057,0.026l0.058,0.025l0.058,0.024l0.058,0.023l0.059,0.024l0.058,0.022l0.059,0.022l0.059,0.021l0.058,0.021l0.059,0.021l0.06,0.019l0.059,0.02l0.059,0.018l0.06,0.018l0.059,0.018l0.06,0.017l0.06,0.016l0.059,0.016l0.12,0.03l0.12,0.028l0.12,0.026l0.12,0.024l0.12,0.021l0.12,0.02l0.12,0.018l0.12,0.015l0.119,0.014l0.119,0.011l0.119,0.01l0.118,0.008l0.117,0.006l0.12,0.004l0.07,0.009l0.13,0.031l0.068,0.024l0.055,0.026l0.054,0.025l0.054,0.025l0.055,0.024l0.055,0.023l0.055,0.023l0.055,0.023l0.056,0.022l0.056,0.022l0.056,0.021l0.057,0.02l0.057,0.021l0.057,0.019l0.057,0.02l0.058,0.018l0.058,0.019l0.058,0.017l0.058,0.018l0.059,0.017l0.058,0.016l0.119,0.031l0.12,0.029l0.12,0.028l0.122,0.025l0.122,0.023l0.124,0.022l0.084,0.013l0.061,0.016l0.057,0.026l0.052,0.036l0.067,0.057l0.111,0.093l0.055,0.044l0.054,0.044l0.053,0.042l0.054,0.041l0.053,0.038l0.055,0.039l0.144,0.098l0.066,0.058l0.05,0.073l0.029,0.083l0.009,0.088l-0.007,0.176l-0.006,0.181l-0.008,0.181l-0.009,0.181l-0.01,0.18l-0.01,0.18l-0.012,0.18l-0.013,0.18l-0.014,0.179l-0.015,0.179l-0.015,0.179l-0.017,0.178l-0.018,0.178l-0.018,0.178l-0.02,0.178l-0.021,0.177l-0.021,0.177l-0.023,0.177l-0.023,0.176l-0.025,0.176l-0.025,0.176l-0.027,0.175l-0.027,0.175l-0.029,0.175l-0.029,0.174l-0.03,0.174l-0.031,0.174l-0.032,0.173l-0.033,0.173l-0.034,0.173l-0.035,0.173l-0.036,0.172l-0.037,0.171l-0.038,0.172l-0.038,0.171l-0.04,0.17l-0.04,0.171l-0.042,0.169l-0.042,0.17l-0.043,0.169l-0.045,0.169l-0.045,0.168l-0.046,0.168l-0.046,0.168l-0.048,0.167l-0.049,0.167l-0.049,0.167l-0.051,0.166l-0.051,0.166l-0.052,0.165l-0.053,0.165l-0.054,0.164l-0.055,0.165l-0.056,0.163l-0.057,0.164l-0.057,0.162l-0.058,0.163l-0.06,0.162l-0.06,0.162l-0.061,0.161l-0.061,0.161l-0.063,0.16l-0.064,0.16l-0.064,0.159l-0.065,0.159l-0.066,0.159l-0.067,0.158l-0.068,0.158l-0.068,0.157l-0.07,0.157l-0.07,0.156l-0.071,0.156l-0.072,0.155l-0.073,0.155l-0.073,0.155l-0.075,0.154l-0.075,0.153l-0.076,0.153l-0.077,0.153l-0.077,0.152l-0.079,0.152l-0.079,0.151l-0.08,0.15l-0.081,0.151l-0.081,0.149l-0.083,0.149l-0.083,0.149l-0.084,0.148l-0.085,0.148l-0.085,0.147l-0.086,0.146l-0.088,0.147l-0.087,0.145l-0.089,0.145l-0.09,0.145l-0.09,0.144l-0.091,0.143l-0.091,0.143l-0.093,0.142l-0.093,0.142l-0.094,0.142l-0.095,0.14l-0.095,0.141l-0.097,0.139l-0.097,0.139l-0.097,0.139l-0.099,0.138l-0.099,0.138l-0.1,0.136l-0.101,0.137l-0.101,0.135l-0.102,0.136l-0.103,0.134l-0.104,0.134l-0.104,0.134l-0.105,0.133l-0.106,0.132l-0.106,0.132l-0.107,0.131l-0.108,0.13l-0.109,0.13l-0.109,0.129l-0.11,0.129l-0.111,0.128l-0.111,0.128l-0.112,0.127l-0.113,0.126l-0.113,0.126l-0.114,0.125l-0.115,0.124l-0.115,0.124l-0.117,0.123l-0.116,0.122l-0.118,0.122l-0.118,0.122l-0.119,0.12l-0.119,0.12l-0.12,0.12l-0.121,0.118l-0.122,0.118l-0.122,0.118l-0.122,0.116l-0.124,0.116l-0.124,0.116l-0.124,0.115l-0.126,0.114l-0.126,0.113l-0.126,0.113l-0.127,0.112l-0.128,0.111l-0.129,0.111l-0.129,0.11l-0.13,0.109l-0.13,0.109l-0.131,0.108l-0.131,0.107l-0.133,0.107l-0.132,0.105l-0.134,0.106l-0.134,0.104l-0.134,0.104l-0.135,0.103l-0.136,0.102l-0.137,0.102l-0.137,0.1l-0.137,0.101l-0.138,0.099l-0.139,0.099l-0.139,0.098l-0.14,0.097l-0.141,0.096l-0.141,0.096l-0.141,0.095l-0.142,0.094l-0.143,0.094l-0.143,0.093l-0.144,0.092l-0.145,0.091l-0.145,0.09l-0.145,0.09l-0.146,0.089l-0.147,0.088l-0.147,0.088l-0.148,0.086l-0.148,0.086l-0.149,0.085l-0.149,0.084l-0.15,0.084l-0.15,0.083l-0.151,0.082l-0.151,0.081l-0.152,0.08l-0.153,0.08l-0.153,0.078l-0.153,0.078l-0.154,0.077l-0.155,0.077l-0.155,0.075l-0.155,0.075l-0.156,0.074l-0.157,0.073l-0.157,0.072l-0.157,0.071l-0.158,0.071l-0.158,0.07l-0.159,0.069l-0.16,0.068l-0.16,0.067l-0.16,0.066l-0.161,0.066l-0.161,0.065l-0.162,0.063l-0.162,0.063l-0.163,0.062l-0.163,0.062l-0.164,0.06l-0.164,0.06l-0.164,0.058l-0.165,0.058l-0.166,0.057l-0.166,0.056l-0.166,0.055l-0.167,0.054l-0.167,0.054l-0.168,0.052l-0.168,0.052l-0.168,0.051l-0.169,0.049l-0.17,0.049l-0.169,0.048l-0.171,0.047l-0.17,0.047l-0.171,0.045l-0.172,0.044l-0.171,0.044l-0.173,0.042l-0.172,0.042l-0.173,0.041l-0.174,0.039l-0.174,0.039l-0.174,0.038l-0.175,0.037l-0.175,0.036l-0.175,0.035l-0.176,0.034l-0.176,0.033l-0.177,0.033l-0.176,0.031l-0.178,0.03l-0.177,0.029l-0.178,0.029l-0.179,0.027l-0.179,0.027l-0.179,0.025l-0.179,0.025l-0.18,0.023l-0.18,0.023l-0.201,0.024l-0.201,0.022l-0.2,0.022l-0.2,0.02l-0.201,0.018l-0.2,0.018l-0.199,0.016l-0.2,0.015l-0.2,0.013l-0.199,0.013l-0.199,0.011l-0.199,0.009l-0.199,0.009l-0.199,0.007l-0.198,0.006l-0.198,0.005l-0.198,0.003l-0.198,0.002l-0.198,0.001l-0.197,0l-0.197,-0.002l-0.197,-0.003l-0.197,-0.004l-0.197,-0.005l-0.196,-0.007l-0.196,-0.008l-0.196,-0.009l-0.195,-0.01l-0.195,-0.011l-0.195,-0.013l-0.195,-0.014l-0.195,-0.015l-0.194,-0.016l-0.194,-0.018l-0.193,-0.018l-0.194,-0.02l-0.193,-0.021l-0.192,-0.023l-0.193,-0.023l-0.192,-0.025l-0.192,-0.025l-0.191,-0.027l-0.191,-0.029l-0.191,-0.029l-0.191,-0.03l-0.19,-0.032l-0.19,-0.033l-0.19,-0.034l-0.189,-0.035l-0.189,-0.036l-0.188,-0.038l-0.188,-0.038l-0.188,-0.04l-0.187,-0.041l-0.188,-0.041l-0.186,-0.044l-0.187,-0.044l-0.185,-0.045l-0.186,-0.046l-0.185,-0.048l-0.185,-0.049l-0.184,-0.049l-0.184,-0.051l-0.184,-0.052l-0.183,-0.053l-0.182,-0.054l-0.183,-0.056l-0.182,-0.056l-0.181,-0.057l-0.181,-0.059l-0.181,-0.059l-0.18,-0.061l-0.179,-0.062l-0.18,-0.063l-0.178,-0.063l-0.179,-0.065l-0.177,-0.066l-0.178,-0.067l-0.177,-0.068l-0.176,-0.069l-0.176,-0.071l-0.175,-0.071l-0.175,-0.072l-0.175,-0.073l-0.174,-0.074l-0.173,-0.076l-0.173,-0.076l-0.173,-0.077l-0.171,-0.079l-0.172,-0.079l-0.171,-0.081l-0.17,-0.081l-0.17,-0.082l-0.169,-0.084l-0.169,-0.084l-0.168,-0.085l-0.168,-0.087l-0.167,-0.087l-0.166,-0.088l-0.166,-0.09l-0.165,-0.09l-0.165,-0.091l-0.164,-0.093l-0.164,-0.093l-0.163,-0.094l-0.163,-0.095l-0.161,-0.096l-0.162,-0.097l-0.16,-0.098l-0.161,-0.099l-0.159,-0.1l-0.159,-0.1l-0.158,-0.102l-0.158,-0.103l-0.157,-0.103l-0.156,-0.105l-0.156,-0.105l-0.155,-0.107l-0.154,-0.107l-0.154,-0.108l-0.153,-0.109l-0.152,-0.11l-0.152,-0.111l-0.151,-0.112l-0.151,-0.112l-0.149,-0.114l-0.15,-0.114l-0.148,-0.116l-0.148,-0.116l-0.147,-0.117l-0.146,-0.118l-0.146,-0.119l-0.145,-0.119l-0.144,-0.121l-0.143,-0.121l-0.143,-0.123l-0.142,-0.123l-0.141,-0.124l-0.141,-0.125l-0.14,-0.125l-0.139,-0.127l-0.138,-0.127l-0.138,-0.128l-0.137,-0.129l-0.136,-0.13l-0.135,-0.131l-0.135,-0.131l-0.134,-0.133l-0.133,-0.133l-0.132,-0.134l-0.132,-0.134l-0.13,-0.136l-0.13,-0.136l-0.129,-0.137l-0.129,-0.138l-0.127,-0.139l-0.127,-0.14l-0.126,-0.14l-0.125,-0.141l-0.124,-0.142l-0.123,-0.142l-0.123,-0.144l-0.122,-0.144l-0.121,-0.145l-0.12,-0.146l-0.119,-0.146l-0.118,-0.147l-0.118,-0.148l-0.116,-0.149l-0.116,-0.149l-0.115,-0.15l-0.114,-0.151l-0.113,-0.152l-0.113,-0.152l-0.111,-0.153l-0.11,-0.154l-0.11,-0.155l-0.109,-0.155l-0.108,-0.156l-0.106,-0.156l-0.106,-0.158l-0.106,-0.158l-0.104,-0.159l-0.103,-0.159l-0.102,-0.16l-0.102,-0.161l-0.1,-0.162l-0.099,-0.162l-0.099,-0.163l-0.098,-0.163l-0.096,-0.165l-0.096,-0.165l-0.095,-0.165l-0.093,-0.166l-0.093,-0.167l-0.092,-0.168l-0.091,-0.168l-0.089,-0.169l-0.089,-0.169l-0.088,-0.17l-0.087,-0.171l-0.086,-0.172l-0.084,-0.172l-0.084,-0.172l-0.083,-0.174l-0.082,-0.174l-0.081,-0.174l-0.079,-0.175l-0.079,-0.176l-0.078,-0.176l-0.076,-0.177l-0.076,-0.178l-0.074,-0.178l-0.074,-0.179l-0.072,-0.179l-0.071,-0.18l-0.071,-0.181l-0.069,-0.181l-0.068,-0.182l-0.067,-0.182l-0.066,-0.183l-0.065,-0.183l-0.063,-0.184l-0.063,-0.185l-0.061,-0.185l-0.061,-0.185l-0.059,-0.186l-0.058,-0.187l-0.058,-0.187l-0.056,-0.188l-0.054,-0.188l-0.054,-0.189l-0.053,-0.19l-0.051,-0.19l-0.05,-0.19l-0.049,-0.191l-0.048,-0.192l-0.047,-0.192l-0.046,-0.192l-0.044,-0.193l-0.044,-0.194l-0.042,-0.194l-0.041,-0.194l-0.039,-0.195l-0.039,-0.196l-0.037,-0.196l-0.037,-0.196l-0.035,-0.197l-0.033,-0.197l-0.033,-0.198l-0.031,-0.198l-0.03,-0.199l-0.029,-0.2l-0.028,-0.199l-0.026,-0.2l-0.026,-0.201l-0.024,-0.201l-0.022,-0.2l-0.021,-0.201l-0.02,-0.2l-0.019,-0.2l-0.018,-0.2l-0.016,-0.2l-0.015,-0.2l-0.013,-0.2l-0.012,-0.199l-0.011,-0.199l-0.01,-0.199l-0.009,-0.199l-0.007,-0.199l-0.006,-0.198l-0.004,-0.198l-0.004,-0.198l-0.002,-0.198l-0.001,-0.198l0.001,-0.197l0.001,-0.197l0.003,-0.197l0.004,-0.197l0.006,-0.196l0.006,-0.197l0.008,-0.196l0.009,-0.196l0.01,-0.195l0.012,-0.195l0.012,-0.195l0.014,-0.195l0.015,-0.194l0.016,-0.195l0.018,-0.194l0.019,-0.193l0.02,-0.193l0.021,-0.193l0.022,-0.193l0.023,-0.193l0.025,-0.192l0.026,-0.192l0.027,-0.191l0.028,-0.191l0.029,-0.191l0.031,-0.191l0.031,-0.19l0.033,-0.19l0.034,-0.189l0.035,-0.19l0.036,-0.189l0.038,-0.188l0.038,-0.188l0.04,-0.188l0.041,-0.187l0.042,-0.187l0.043,-0.187l0.044,-0.186l0.045,-0.186l0.047,-0.186l0.047,-0.185l0.049,-0.185l0.05,-0.184l0.051,-0.184l0.052,-0.184l0.053,-0.183l0.054,-0.182l0.055,-0.183l0.056,-0.181l0.058,-0.182l0.058,-0.181l0.06,-0.18l0.06,-0.181l0.062,-0.179l0.063,-0.179l0.064,-0.179l0.065,-0.178l0.066,-0.178l0.067,-0.178l0.068,-0.176l0.069,-0.177l0.07,-0.176l0.071,-0.175l0.072,-0.175l0.073,-0.175l0.075,-0.174l0.075,-0.173l0.076,-0.173l0.078,-0.172l0.078,-0.172l0.079,-0.172l0.081,-0.171l0.081,-0.17l0.083,-0.17l0.083,-0.169l0.084,-0.169l0.086,-0.168l0.086,-0.167l0.087,-0.167l0.089,-0.167l0.089,-0.166l0.09,-0.165l0.092,-0.165l0.092,-0.164l0.093,-0.164l0.094,-0.163l0.095,-0.162l0.096,-0.162l0.097,-0.162l0.098,-0.16l0.099,-0.16l0.1,-0.16l0.101,-0.159l0.101,-0.158l0.103,-0.157l0.104,-0.157l0.104,-0.157l0.106,-0.155l0.106,-0.156l0.107,-0.154l0.108,-0.154l0.109,-0.153l0.11,-0.152l0.111,-0.152l0.112,-0.151l0.113,-0.151l0.113,-0.149l0.115,-0.149l0.115,-0.149l0.116,-0.148l0.117,-0.147l0.118,-0.146l0.119,-0.146l0.12,-0.144l0.12,-0.145l0.122,-0.143l0.122,-0.143l0.123,-0.142l0.124,-0.141l0.125,-0.141l0.126,-0.14l0.126,-0.139l0.128,-0.138l0.128,-0.138l0.129,-0.137l0.13,-0.136l0.13,-0.135l0.132,-0.135l0.132,-0.134l0.133,-0.133l0.134,-0.132l0.135,-0.131l0.135,-0.131l0.137,-0.13l0.137,-0.129l0.138,-0.128l0.138,-0.128l0.14,-0.127l0.14,-0.126l0.141,-0.125l0.142,-0.124l0.143,-0.123l0.143,-0.123l0.144,-0.122l0.145,-0.12l0.146,-0.121l0.146,-0.119l0.147,-0.118l0.148,-0.118l0.149,-0.116l0.149,-0.116l0.151,-0.115l0.151,-0.114l0.151,-0.113l0.153,-0.112l0.153,-0.112l0.153,-0.11l0.155,-0.11l0.155,-0.109l0.156,-0.107l0.157,-0.107l0.157,-0.106l0.158,-0.105l0.159,-0.105l0.159,-0.103l0.161,-0.102l0.16,-0.101l0.162,-0.101l0.162,-0.099l0.163,-0.099l0.164,-0.097l0.164,-0.097l0.165,-0.096l0.165,-0.094l0.167,-0.094l0.167,-0.093l0.167,-0.092l0.168,-0.09l0.169,-0.09l0.17,-0.089l0.17,-0.088l0.171,-0.087l0.171,-0.086l0.172,-0.084l0.173,-0.084l0.173,-0.083l0.174,-0.082l0.174,-0.08l0.176,-0.08l0.175,-0.079l0.177,-0.077l0.177,-0.077l0.177,-0.076l0.178,-0.074l0.179,-0.073l0.18,-0.073l0.18,-0.071l0.18,-0.07l0.181,-0.07l0.182,-0.068l0.182,-0.067l0.183,-0.066l0.183,-0.064l0.184,-0.064l0.185,-0.063l0.185,-0.061l0.185,-0.061l0.187,-0.059l0.186,-0.058l0.188,-0.057l0.187,-0.056l0.189,-0.055l0.189,-0.054l0.189,-0.052l0.19,-0.052l0.19,-0.05l0.191,-0.049l0.192,-0.048l0.192,-0.047l0.192,-0.046l0.193,-0.044l0.194,-0.043l0.194,-0.043l0.194,-0.041l0.195,-0.039l0.196,-0.039l0.196,-0.037l0.196,-0.036l0.197,-0.035l0.198,-0.034l0.197,-0.033l0.199,-0.031l0.199,-0.03l0.199,-0.029l0.2,-0.028l0.2,-0.026l0.201,-0.025l0.262,-0.031l0.263,-0.029l0.263,-0.027l0.264,-0.024l0.263,-0.022l0.264,-0.02l0.264,-0.017l0.264,-0.016l0.264,-0.013l0.265,-0.01l0.264,-0.009l0.265,-0.006l0.265,-0.004l0.264,-0.002l0.265,0.001Zm-0.526,0.351l-0.261,0.004l-0.262,0.006l-0.262,0.008l-0.261,0.011l-0.261,0.013l-0.261,0.015l-0.261,0.017l-0.261,0.02l-0.261,0.022l-0.26,0.024l-0.26,0.026l-0.26,0.028l-0.26,0.031l-0.199,0.025l-0.198,0.026l-0.197,0.027l-0.197,0.029l-0.197,0.03l-0.196,0.031l-0.195,0.032l-0.196,0.033l-0.194,0.035l-0.195,0.036l-0.193,0.037l-0.194,0.038l-0.193,0.039l-0.192,0.041l-0.192,0.041l-0.191,0.043l-0.191,0.044l-0.19,0.045l-0.19,0.047l-0.189,0.047l-0.189,0.049l-0.189,0.049l-0.187,0.051l-0.188,0.052l-0.186,0.053l-0.187,0.054l-0.185,0.056l-0.185,0.056l-0.185,0.058l-0.184,0.058l-0.184,0.06l-0.183,0.061l-0.182,0.062l-0.182,0.063l-0.181,0.064l-0.181,0.065l-0.18,0.066l-0.18,0.068l-0.179,0.068l-0.179,0.07l-0.177,0.07l-0.178,0.072l-0.177,0.072l-0.176,0.074l-0.175,0.075l-0.175,0.075l-0.175,0.077l-0.173,0.078l-0.174,0.079l-0.172,0.08l-0.172,0.08l-0.171,0.082l-0.171,0.083l-0.17,0.084l-0.17,0.085l-0.169,0.086l-0.168,0.086l-0.167,0.088l-0.167,0.089l-0.167,0.09l-0.165,0.091l-0.165,0.091l-0.165,0.093l-0.163,0.094l-0.164,0.094l-0.162,0.096l-0.162,0.096l-0.161,0.098l-0.16,0.098l-0.16,0.099l-0.159,0.1l-0.158,0.102l-0.158,0.102l-0.157,0.103l-0.156,0.104l-0.156,0.104l-0.155,0.106l-0.154,0.107l-0.153,0.107l-0.153,0.108l-0.152,0.11l-0.152,0.11l-0.15,0.111l-0.15,0.112l-0.15,0.113l-0.148,0.113l-0.148,0.115l-0.147,0.115l-0.146,0.116l-0.146,0.117l-0.144,0.118l-0.144,0.119l-0.144,0.119l-0.142,0.121l-0.142,0.121l-0.141,0.122l-0.14,0.123l-0.14,0.124l-0.139,0.124l-0.138,0.125l-0.137,0.127l-0.136,0.126l-0.136,0.128l-0.134,0.129l-0.135,0.129l-0.133,0.13l-0.132,0.131l-0.132,0.131l-0.131,0.132l-0.13,0.134l-0.129,0.133l-0.128,0.135l-0.128,0.135l-0.127,0.136l-0.126,0.137l-0.125,0.138l-0.124,0.138l-0.123,0.139l-0.123,0.14l-0.122,0.14l-0.121,0.142l-0.12,0.142l-0.119,0.142l-0.118,0.144l-0.118,0.144l-0.117,0.144l-0.115,0.146l-0.115,0.146l-0.114,0.146l-0.113,0.148l-0.113,0.148l-0.111,0.149l-0.111,0.149l-0.109,0.15l-0.109,0.151l-0.108,0.152l-0.107,0.152l-0.106,0.152l-0.105,0.154l-0.104,0.154l-0.104,0.154l-0.102,0.155l-0.102,0.156l-0.1,0.157l-0.1,0.157l-0.099,0.157l-0.097,0.159l-0.097,0.159l-0.096,0.159l-0.095,0.16l-0.094,0.161l-0.093,0.161l-0.093,0.162l-0.091,0.162l-0.09,0.163l-0.089,0.164l-0.089,0.164l-0.087,0.165l-0.086,0.165l-0.086,0.166l-0.084,0.166l-0.084,0.167l-0.082,0.167l-0.081,0.168l-0.081,0.168l-0.079,0.169l-0.079,0.17l-0.077,0.17l-0.077,0.17l-0.075,0.171l-0.075,0.172l-0.073,0.172l-0.073,0.172l-0.071,0.173l-0.07,0.174l-0.07,0.174l-0.068,0.174l-0.067,0.175l-0.067,0.175l-0.065,0.176l-0.064,0.177l-0.063,0.176l-0.062,0.178l-0.061,0.177l-0.06,0.178l-0.059,0.179l-0.058,0.179l-0.057,0.179l-0.055,0.18l-0.055,0.18l-0.054,0.181l-0.052,0.181l-0.051,0.181l-0.051,0.182l-0.049,0.182l-0.048,0.183l-0.047,0.183l-0.046,0.184l-0.045,0.183l-0.043,0.185l-0.043,0.184l-0.041,0.185l-0.041,0.185l-0.039,0.186l-0.038,0.186l-0.037,0.187l-0.036,0.186l-0.035,0.187l-0.033,0.188l-0.033,0.187l-0.031,0.189l-0.03,0.188l-0.029,0.189l-0.028,0.189l-0.027,0.189l-0.025,0.19l-0.024,0.19l-0.024,0.19l-0.022,0.191l-0.02,0.19l-0.02,0.192l-0.019,0.191l-0.017,0.192l-0.016,0.192l-0.015,0.192l-0.014,0.193l-0.012,0.192l-0.011,0.193l-0.011,0.194l-0.008,0.193l-0.008,0.194l-0.007,0.194l-0.005,0.194l-0.004,0.195l-0.003,0.195l-0.001,0.195l-0.001,0.195l0.001,0.195l0.002,0.196l0.004,0.196l0.004,0.196l0.006,0.196l0.007,0.196l0.009,0.197l0.009,0.197l0.011,0.197l0.012,0.197l0.014,0.197l0.014,0.198l0.016,0.197l0.017,0.198l0.019,0.198l0.02,0.198l0.021,0.198l0.022,0.199l0.024,0.198l0.025,0.199l0.026,0.198l0.027,0.197l0.029,0.197l0.03,0.197l0.031,0.196l0.032,0.196l0.033,0.195l0.035,0.195l0.036,0.194l0.037,0.194l0.038,0.193l0.039,0.193l0.041,0.192l0.041,0.192l0.043,0.191l0.044,0.191l0.045,0.191l0.046,0.189l0.048,0.19l0.048,0.189l0.05,0.188l0.051,0.188l0.052,0.187l0.053,0.187l0.054,0.186l0.056,0.186l0.056,0.185l0.058,0.184l0.058,0.184l0.06,0.184l0.061,0.183l0.062,0.182l0.063,0.182l0.064,0.182l0.065,0.18l0.066,0.181l0.068,0.179l0.068,0.179l0.07,0.179l0.07,0.178l0.072,0.177l0.072,0.177l0.074,0.176l0.075,0.176l0.075,0.175l0.077,0.174l0.078,0.174l0.079,0.173l0.079,0.172l0.081,0.172l0.082,0.172l0.083,0.17l0.084,0.171l0.085,0.169l0.086,0.169l0.086,0.168l0.088,0.168l0.089,0.167l0.09,0.166l0.09,0.166l0.092,0.165l0.093,0.164l0.093,0.164l0.095,0.163l0.096,0.162l0.096,0.162l0.097,0.161l0.099,0.16l0.099,0.16l0.1,0.159l0.101,0.159l0.103,0.157l0.103,0.157l0.103,0.157l0.105,0.155l0.106,0.155l0.107,0.154l0.107,0.154l0.108,0.153l0.11,0.152l0.11,0.151l0.111,0.151l0.112,0.15l0.112,0.149l0.114,0.148l0.115,0.148l0.115,0.147l0.116,0.146l0.117,0.146l0.118,0.145l0.119,0.144l0.119,0.143l0.121,0.143l0.121,0.141l0.122,0.141l0.123,0.141l0.124,0.139l0.124,0.139l0.125,0.138l0.126,0.137l0.127,0.136l0.128,0.136l0.128,0.135l0.13,0.134l0.13,0.133l0.13,0.132l0.132,0.132l0.132,0.131l0.133,0.13l0.134,0.129l0.135,0.129l0.135,0.127l0.136,0.127l0.137,0.126l0.138,0.125l0.138,0.124l0.139,0.124l0.14,0.122l0.14,0.122l0.142,0.121l0.141,0.12l0.143,0.119l0.143,0.119l0.144,0.117l0.145,0.117l0.146,0.116l0.146,0.115l0.146,0.114l0.148,0.113l0.148,0.112l0.149,0.111l0.149,0.111l0.15,0.11l0.151,0.108l0.151,0.108l0.152,0.107l0.153,0.106l0.153,0.105l0.154,0.105l0.155,0.103l0.155,0.102l0.156,0.102l0.157,0.101l0.157,0.099l0.157,0.099l0.159,0.098l0.159,0.097l0.159,0.096l0.16,0.095l0.161,0.094l0.161,0.093l0.162,0.092l0.162,0.091l0.163,0.09l0.164,0.09l0.164,0.088l0.164,0.087l0.166,0.087l0.165,0.085l0.167,0.084l0.167,0.084l0.167,0.082l0.168,0.082l0.168,0.08l0.169,0.08l0.17,0.078l0.17,0.078l0.17,0.076l0.171,0.076l0.172,0.074l0.172,0.074l0.172,0.072l0.173,0.071l0.174,0.071l0.174,0.069l0.174,0.068l0.175,0.068l0.175,0.066l0.176,0.065l0.176,0.064l0.177,0.063l0.177,0.063l0.178,0.061l0.178,0.059l0.179,0.059l0.179,0.058l0.179,0.057l0.18,0.056l0.18,0.054l0.181,0.054l0.181,0.052l0.181,0.052l0.182,0.05l0.182,0.049l0.183,0.048l0.183,0.047l0.183,0.046l0.184,0.045l0.184,0.044l0.185,0.042l0.185,0.042l0.185,0.04l0.186,0.039l0.186,0.038l0.186,0.037l0.187,0.036l0.187,0.035l0.188,0.033l0.187,0.033l0.188,0.031l0.189,0.03l0.189,0.029l0.189,0.028l0.189,0.027l0.19,0.025l0.19,0.025l0.19,0.023l0.19,0.022l0.191,0.021l0.191,0.019l0.192,0.019l0.192,0.017l0.192,0.016l0.192,0.015l0.192,0.014l0.193,0.012l0.193,0.012l0.194,0.01l0.193,0.009l0.194,0.007l0.194,0.007l0.194,0.005l0.195,0.004l0.194,0.003l0.195,0.002l0.196,0l0.195,-0.001l0.196,-0.002l0.195,-0.003l0.197,-0.005l0.196,-0.006l0.196,-0.007l0.197,-0.008l0.197,-0.01l0.197,-0.011l0.197,-0.012l0.197,-0.013l0.198,-0.015l0.197,-0.016l0.198,-0.017l0.198,-0.019l0.198,-0.019l0.198,-0.021l0.199,-0.023l0.198,-0.024l0.179,-0.022l0.177,-0.023l0.178,-0.024l0.177,-0.026l0.177,-0.026l0.176,-0.027l0.177,-0.028l0.175,-0.029l0.176,-0.03l0.175,-0.031l0.174,-0.032l0.174,-0.033l0.174,-0.033l0.174,-0.035l0.173,-0.036l0.173,-0.036l0.172,-0.038l0.172,-0.038l0.171,-0.039l0.172,-0.041l0.17,-0.041l0.171,-0.042l0.17,-0.043l0.169,-0.044l0.169,-0.044l0.169,-0.046l0.168,-0.047l0.168,-0.047l0.168,-0.049l0.167,-0.049l0.166,-0.05l0.167,-0.051l0.165,-0.052l0.166,-0.053l0.165,-0.053l0.164,-0.055l0.164,-0.055l0.164,-0.057l0.163,-0.057l0.163,-0.058l0.162,-0.059l0.162,-0.059l0.161,-0.061l0.161,-0.061l0.16,-0.063l0.16,-0.063l0.16,-0.064l0.159,-0.064l0.159,-0.066l0.158,-0.067l0.157,-0.067l0.157,-0.068l0.157,-0.069l0.156,-0.07l0.156,-0.07l0.155,-0.072l0.155,-0.072l0.154,-0.073l0.154,-0.074l0.153,-0.074l0.153,-0.076l0.152,-0.076l0.152,-0.077l0.151,-0.078l0.151,-0.079l0.15,-0.079l0.15,-0.08l0.149,-0.081l0.149,-0.082l0.148,-0.083l0.148,-0.083l0.147,-0.084l0.146,-0.085l0.146,-0.086l0.146,-0.086l0.145,-0.088l0.144,-0.087l0.144,-0.089l0.143,-0.09l0.143,-0.09l0.142,-0.091l0.142,-0.091l0.141,-0.093l0.141,-0.093l0.14,-0.094l0.139,-0.095l0.139,-0.095l0.138,-0.096l0.138,-0.097l0.137,-0.098l0.137,-0.098l0.136,-0.099l0.135,-0.1l0.135,-0.1l0.134,-0.101l0.134,-0.102l0.133,-0.103l0.132,-0.103l0.132,-0.104l0.132,-0.105l0.13,-0.105l0.13,-0.106l0.13,-0.107l0.129,-0.107l0.128,-0.108l0.127,-0.109l0.128,-0.109l0.126,-0.11l0.126,-0.111l0.125,-0.112l0.124,-0.112l0.124,-0.113l0.124,-0.113l0.122,-0.114l0.122,-0.115l0.121,-0.115l0.121,-0.116l0.12,-0.117l0.12,-0.117l0.118,-0.118l0.119,-0.119l0.117,-0.119l0.117,-0.12l0.116,-0.121l0.115,-0.121l0.115,-0.122l0.114,-0.122l0.114,-0.123l0.113,-0.124l0.112,-0.124l0.111,-0.125l0.111,-0.125l0.11,-0.126l0.11,-0.127l0.108,-0.127l0.108,-0.128l0.108,-0.128l0.106,-0.13l0.106,-0.129l0.105,-0.13l0.105,-0.131l0.104,-0.132l0.103,-0.131l0.102,-0.133l0.102,-0.133l0.101,-0.134l0.1,-0.134l0.1,-0.135l0.099,-0.135l0.098,-0.136l0.097,-0.136l0.097,-0.137l0.096,-0.138l0.095,-0.138l0.094,-0.139l0.094,-0.139l0.093,-0.14l0.092,-0.14l0.092,-0.141l0.09,-0.141l0.09,-0.142l0.089,-0.142l0.089,-0.143l0.087,-0.144l0.087,-0.144l0.086,-0.144l0.086,-0.145l0.084,-0.145l0.084,-0.146l0.083,-0.147l0.083,-0.147l0.081,-0.147l0.081,-0.148l0.08,-0.149l0.079,-0.149l0.078,-0.149l0.078,-0.15l0.076,-0.15l0.076,-0.151l0.075,-0.151l0.075,-0.152l0.073,-0.153l0.073,-0.152l0.072,-0.153l0.071,-0.154l0.07,-0.154l0.07,-0.155l0.068,-0.155l0.068,-0.155l0.067,-0.156l0.066,-0.157l0.065,-0.156l0.065,-0.158l0.063,-0.157l0.063,-0.158l0.062,-0.159l0.061,-0.159l0.061,-0.159l0.059,-0.16l0.058,-0.16l0.058,-0.161l0.057,-0.161l0.056,-0.161l0.055,-0.162l0.054,-0.163l0.054,-0.162l0.052,-0.163l0.052,-0.164l0.051,-0.164l0.049,-0.164l0.049,-0.165l0.049,-0.165l0.047,-0.165l0.046,-0.166l0.046,-0.166l0.044,-0.167l0.044,-0.166l0.042,-0.168l0.042,-0.167l0.041,-0.168l0.04,-0.169l0.039,-0.168l0.039,-0.17l0.037,-0.169l0.036,-0.17l0.036,-0.17l0.034,-0.17l0.034,-0.171l0.033,-0.171l0.031,-0.172l0.031,-0.172l0.03,-0.172l0.029,-0.172l0.028,-0.173l0.027,-0.173l0.026,-0.174l0.026,-0.173l0.024,-0.174l0.023,-0.175l0.022,-0.175l0.022,-0.175l0.02,-0.175l0.02,-0.175l0.018,-0.176l0.018,-0.176l0.016,-0.177l0.016,-0.177l0.014,-0.177l0.014,-0.177l0.013,-0.178l0.011,-0.178l0.011,-0.178l0.01,-0.178l0.008,-0.179l0.008,-0.179l0.007,-0.179l0.006,-0.176l-0.146,-0.1l-0.06,-0.041l-0.059,-0.043l-0.059,-0.045l-0.057,-0.045l-0.058,-0.046l-0.056,-0.047l-0.113,-0.094l-0.067,-0.057l-0.087,-0.014l-0.129,-0.022l-0.128,-0.025l-0.127,-0.026l-0.127,-0.029l-0.125,-0.031l-0.124,-0.032l-0.062,-0.018l-0.062,-0.017l-0.061,-0.018l-0.061,-0.019l-0.061,-0.019l-0.061,-0.02l-0.06,-0.02l-0.06,-0.021l-0.06,-0.021l-0.059,-0.022l-0.06,-0.022l-0.059,-0.023l-0.058,-0.023l-0.059,-0.024l-0.058,-0.025l-0.058,-0.024l-0.057,-0.026l-0.057,-0.025l-0.057,-0.027l-0.057,-0.027l-0.13,-0.031l-0.122,-0.004l-0.123,-0.006l-0.124,-0.008l-0.124,-0.01l-0.125,-0.012l-0.125,-0.014l-0.125,-0.017l-0.125,-0.018l-0.126,-0.021l-0.126,-0.022l-0.126,-0.025l-0.125,-0.027l-0.126,-0.03l-0.126,-0.031l-0.063,-0.017l-0.062,-0.017l-0.063,-0.018l-0.062,-0.018l-0.063,-0.019l-0.062,-0.02l-0.063,-0.02l-0.062,-0.021l-0.062,-0.021l-0.062,-0.022l-0.062,-0.023l-0.061,-0.023l-0.062,-0.023l-0.061,-0.025l-0.061,-0.025l-0.061,-0.025l-0.061,-0.026l-0.061,-0.027l-0.061,-0.028l-0.06,-0.028l-0.06,-0.028l-0.06,-0.03l-0.059,-0.03l-0.06,-0.03l-0.059,-0.031l-0.059,-0.032l-0.059,-0.033l-0.058,-0.033l-0.058,-0.033l-0.058,-0.035l-0.058,-0.035l-0.057,-0.036l-0.057,-0.036l-0.057,-0.037l-0.056,-0.038l-0.056,-0.038l-0.056,-0.039l-0.056,-0.04l-0.055,-0.041l-0.054,-0.041l-0.055,-0.042l-0.054,-0.042l-0.053,-0.043l-0.054,-0.044l-0.052,-0.045l-0.053,-0.045l-0.052,-0.046l-0.051,-0.047l-0.052,-0.047l-0.05,-0.048l-0.051,-0.049l-0.049,-0.049l-0.05,-0.051l-0.049,-0.05l-0.048,-0.052l-0.048,-0.053l-0.048,-0.053l-0.047,-0.054l-0.046,-0.054l-0.046,-0.056l-0.046,-0.056l-0.044,-0.056l-0.045,-0.058l-0.044,-0.058l-0.043,-0.059l-0.043,-0.06l-0.042,-0.061l-0.042,-0.061l-0.041,-0.062l-0.04,-0.063l-0.04,-0.064l-0.039,-0.064l-0.039,-0.066l-0.038,-0.066l-0.037,-0.066l-0.037,-0.068l-0.036,-0.068l-0.035,-0.069l-0.035,-0.07l-0.034,-0.071l-0.034,-0.071l-0.032,-0.073l-0.032,-0.073l-0.032,-0.074l-0.03,-0.075l-0.03,-0.075l-0.03,-0.077l-0.028,-0.077l-0.028,-0.078l-0.027,-0.079l-0.026,-0.079l-0.026,-0.081l-0.024,-0.081l-0.024,-0.082l-0.023,-0.083l-0.023,-0.084l-0.021,-0.085l-0.021,-0.085l-0.02,-0.087l-0.019,-0.087l-0.032,-0.149l-0.135,-0.069l-0.103,-0.054l-0.102,-0.055l-0.101,-0.058l-0.099,-0.058l-0.097,-0.061l-0.096,-0.062l-0.095,-0.063l-0.093,-0.065l-0.092,-0.067l-0.09,-0.068l-0.089,-0.07l-0.088,-0.071l-0.086,-0.072l-0.084,-0.075l-0.083,-0.075l-0.082,-0.078l-0.08,-0.078l-0.078,-0.081l-0.077,-0.081l-0.076,-0.084l-0.074,-0.084l-0.072,-0.087l-0.071,-0.087l-0.07,-0.09l-0.068,-0.09l-0.066,-0.092l-0.065,-0.094l-0.064,-0.095l-0.062,-0.097l-0.06,-0.098l-0.059,-0.099l-0.057,-0.101l-0.064,-0.115l-0.127,-0.037l-0.122,-0.036l-0.12,-0.038l-0.119,-0.04l-0.117,-0.042l-0.117,-0.044l-0.115,-0.045l-0.113,-0.048l-0.112,-0.049l-0.111,-0.051l-0.109,-0.053l-0.108,-0.055l-0.106,-0.056l-0.105,-0.059l-0.103,-0.06l-0.102,-0.061l-0.05,-0.032l-0.05,-0.032l-0.05,-0.032l-0.049,-0.033l-0.049,-0.033l-0.049,-0.034l-0.048,-0.034l-0.048,-0.034l-0.047,-0.035l-0.047,-0.035l-0.046,-0.036l-0.047,-0.036l-0.046,-0.037l-0.045,-0.037l-0.045,-0.037l-0.045,-0.038l-0.044,-0.038l-0.044,-0.039l-0.043,-0.039l-0.043,-0.039l-0.043,-0.04l-0.042,-0.04l-0.042,-0.041l-0.042,-0.041l-0.041,-0.041l-0.04,-0.042l-0.041,-0.042l-0.04,-0.043l-0.039,-0.043l-0.039,-0.043l-0.077,-0.088l-0.075,-0.089l-0.074,-0.091l-0.072,-0.092l-0.07,-0.094l-0.068,-0.096l-0.067,-0.097l-0.065,-0.098l-0.064,-0.1l-0.062,-0.101l-0.059,-0.102l-0.059,-0.104l-0.056,-0.106l-0.055,-0.107l-0.053,-0.108l-0.051,-0.109l-0.049,-0.111l-0.048,-0.113l-0.045,-0.113l-0.044,-0.115l-0.042,-0.116l-0.04,-0.118l-0.039,-0.119l-0.036,-0.12l-0.035,-0.121l-0.032,-0.122l-0.031,-0.124l-0.029,-0.125l-0.027,-0.126l-0.025,-0.128l-0.023,-0.128l-0.021,-0.13l-0.019,-0.131l-0.018,-0.132l-0.008,-0.072l-0.008,-0.072l-0.007,-0.071l-0.006,-0.072l-0.006,-0.072l-0.005,-0.071l-0.005,-0.071l-0.003,-0.072l-0.004,-0.071l-0.002,-0.071l-0.002,-0.071l-0.001,-0.07l0,-0.071l0,-0.071l0.001,-0.07l0.002,-0.07l0.002,-0.071l0.003,-0.07l0.004,-0.069l0.004,-0.07l0.005,-0.07l0.006,-0.069l0.006,-0.069l0.007,-0.07l0.008,-0.068l0.008,-0.069l0.009,-0.069l0.01,-0.068l0.011,-0.068l0.011,-0.068l0.011,-0.068l0.013,-0.068l0.007,-0.083l-0.012,-0.06l-0.035,-0.182l-0.017,-0.092l-0.016,-0.093l-0.014,-0.092l-0.013,-0.093l-0.005,-0.046l-0.005,-0.047l-0.004,-0.046l-0.003,-0.046l-0.022,-0.291l-0.141,-0.084l-0.072,-0.043l-0.071,-0.044l-0.07,-0.045l-0.069,-0.046l-0.069,-0.046l-0.068,-0.047l-0.067,-0.048l-0.066,-0.049l-0.065,-0.049l-0.065,-0.05l-0.064,-0.051l-0.063,-0.051l-0.062,-0.053l-0.061,-0.052l-0.061,-0.054l-0.059,-0.054l-0.059,-0.056l-0.059,-0.055l-0.057,-0.057l-0.056,-0.057l-0.056,-0.058l-0.055,-0.058l-0.053,-0.06l-0.054,-0.06l-0.052,-0.06l-0.051,-0.062l-0.051,-0.062l-0.049,-0.062l-0.049,-0.064l-0.048,-0.064l-0.047,-0.064l-0.046,-0.066l-0.067,-0.095l-0.111,-0.03l-0.075,-0.021l-0.074,-0.021l-0.073,-0.022l-0.073,-0.023l-0.073,-0.024l-0.073,-0.024l-0.071,-0.025l-0.072,-0.026l-0.071,-0.026l-0.071,-0.027l-0.07,-0.028l-0.069,-0.029l-0.07,-0.029l-0.069,-0.03l-0.068,-0.031l-0.068,-0.031l-0.067,-0.033l-0.067,-0.033l-0.067,-0.033l-0.066,-0.034l-0.065,-0.035l-0.065,-0.036l-0.065,-0.037l-0.064,-0.037l-0.064,-0.038l-0.063,-0.038l-0.062,-0.039l-0.062,-0.04l-0.062,-0.041l-0.061,-0.041l-0.061,-0.042l-0.06,-0.043l-0.125,-0.054l-0.069,-0.014l-0.07,-0.014l-0.068,-0.015l-0.069,-0.016l-0.068,-0.016l-0.068,-0.017l-0.067,-0.017l-0.067,-0.018l-0.066,-0.018l-0.067,-0.019l-0.065,-0.02l-0.066,-0.02l-0.064,-0.02l-0.065,-0.021l-0.064,-0.022l-0.064,-0.022l-0.063,-0.023l-0.063,-0.023l-0.062,-0.024l-0.062,-0.024l-0.062,-0.025l-0.061,-0.025l-0.061,-0.026l-0.06,-0.026l-0.06,-0.027l-0.06,-0.027l-0.059,-0.028l-0.059,-0.029l-0.058,-0.029l-0.058,-0.029l-0.057,-0.03l-0.057,-0.031l-0.057,-0.031l-0.056,-0.031l-0.056,-0.032l-0.055,-0.033l-0.055,-0.033l-0.054,-0.033l-0.054,-0.034l-0.053,-0.035l-0.053,-0.035l-0.053,-0.035l-0.052,-0.036l-0.052,-0.037l-0.051,-0.037l-0.051,-0.037l-0.05,-0.038l-0.05,-0.039l-0.05,-0.039l-0.049,-0.039l-0.048,-0.04l-0.048,-0.04l-0.048,-0.041l-0.047,-0.041l-0.047,-0.042l-0.046,-0.042l-0.046,-0.043l-0.045,-0.043l-0.045,-0.044l-0.044,-0.044l-0.044,-0.045l-0.044,-0.045l-0.043,-0.045l-0.042,-0.046l-0.042,-0.047l-0.042,-0.047l-0.041,-0.047l-0.04,-0.048l-0.04,-0.048l-0.04,-0.049l-0.039,-0.049l-0.039,-0.05l-0.038,-0.05l-0.038,-0.05l-0.037,-0.051l-0.037,-0.052l-0.036,-0.052l-0.035,-0.052l-0.036,-0.053l-0.034,-0.053l-0.034,-0.053l-0.034,-0.055l-0.033,-0.054l-0.033,-0.055l-0.032,-0.055l-0.032,-0.056l-0.031,-0.056l-0.031,-0.057l-0.03,-0.057l-0.03,-0.057l-0.029,-0.058l-0.028,-0.058l-0.028,-0.059l-0.028,-0.059l-0.027,-0.06l-0.027,-0.059l-0.026,-0.061l-0.025,-0.061l-0.025,-0.061l-0.024,-0.061l-0.024,-0.062l-0.024,-0.063l-0.023,-0.062l-0.022,-0.063l-0.022,-0.064l-0.021,-0.064l-0.021,-0.064l-0.02,-0.065l-0.02,-0.065l-0.019,-0.066l-0.018,-0.066l-0.018,-0.066l-0.018,-0.067l-0.017,-0.067l-0.016,-0.067l-0.016,-0.068l-0.015,-0.068l-0.015,-0.069l-0.014,-0.069l-0.014,-0.069l-0.013,-0.07l-0.012,-0.07l-0.012,-0.07l-0.012,-0.071l-0.011,-0.071l-0.01,-0.072l-0.01,-0.072l-0.009,-0.072l-0.016,-0.137l-0.013,-0.137l-0.011,-0.136l-0.005,-0.068l-0.004,-0.067l-0.003,-0.068l-0.003,-0.067l-0.003,-0.067l-0.001,-0.067l-0.002,-0.066l0,-0.067l0,-0.066l0,-0.066l0.001,-0.065l0.002,-0.066l0.002,-0.065l0.003,-0.065l0.004,-0.065l0.004,-0.065l0.004,-0.065l0.005,-0.064l0.006,-0.064l0.006,-0.064l0.007,-0.064l0.008,-0.063l0.008,-0.063l0.008,-0.063l0.009,-0.063l0.01,-0.063l0.011,-0.062l0.01,-0.062l0.012,-0.062l0.012,-0.062l0.013,-0.062l0.013,-0.061l0.014,-0.061l0.014,-0.061l0.015,-0.06l0.015,-0.061l0.016,-0.06l0.017,-0.06l0.017,-0.06l0.018,-0.059l0.018,-0.06l0.019,-0.059l0.02,-0.059l0.02,-0.058l0.021,-0.058l0.021,-0.059l0.022,-0.058l0.022,-0.057l0.023,-0.058l0.024,-0.057l0.024,-0.057l0.024,-0.057l0.026,-0.056l0.025,-0.056l0.027,-0.056l0.027,-0.056l0.027,-0.056l0.028,-0.055l0.204,-0.395l-0.44,-0.067l-0.261,-0.038l-0.261,-0.036l-0.261,-0.034l-0.261,-0.031l-0.261,-0.03l-0.262,-0.027l-0.262,-0.025l-0.261,-0.022l-0.262,-0.021l-0.262,-0.018l-0.262,-0.016l-0.262,-0.014l-0.262,-0.011l-0.262,-0.01l-0.262,-0.007l-0.262,-0.005l-0.262,-0.002l-0.262,-0.001l-0.262,0.002Zm0.563,0.637l0.243,0.003l0.244,0.005l0.243,0.007l0.243,0.008l0.243,0.011l0.243,0.012l0.243,0.015l0.243,0.016l0.243,0.019l0.243,0.02l0.243,0.022l0.243,0.025l0.243,0.026l0.242,0.028l0.243,0.03l0.242,0.032l-0.047,0.113l-0.046,0.113l-0.044,0.113l-0.041,0.115l-0.04,0.115l-0.037,0.117l-0.036,0.116l-0.033,0.118l-0.032,0.119l-0.029,0.119l-0.028,0.12l-0.025,0.121l-0.023,0.121l-0.022,0.122l-0.019,0.123l-0.017,0.124l-0.015,0.124l-0.014,0.125l-0.011,0.126l-0.009,0.126l-0.007,0.128l-0.005,0.127l-0.003,0.129l-0.001,0.129l0.002,0.13l0.003,0.131l0.005,0.131l0.007,0.132l0.01,0.132l0.011,0.134l0.013,0.133l0.016,0.135l0.012,0.099l0.014,0.099l0.015,0.098l0.016,0.097l0.017,0.097l0.018,0.096l0.019,0.096l0.019,0.095l0.021,0.095l0.022,0.094l0.023,0.093l0.024,0.092l0.025,0.092l0.026,0.092l0.027,0.09l0.028,0.09l0.029,0.09l0.03,0.089l0.031,0.088l0.032,0.087l0.032,0.087l0.034,0.086l0.035,0.085l0.036,0.085l0.036,0.084l0.038,0.083l0.038,0.083l0.04,0.082l0.04,0.081l0.041,0.081l0.042,0.079l0.044,0.08l0.044,0.078l0.045,0.078l0.045,0.077l0.047,0.076l0.048,0.075l0.048,0.075l0.05,0.074l0.05,0.073l0.051,0.073l0.052,0.071l0.053,0.071l0.054,0.07l0.055,0.07l0.055,0.068l0.056,0.068l0.058,0.067l0.058,0.066l0.058,0.066l0.06,0.065l0.061,0.063l0.061,0.063l0.062,0.063l0.063,0.061l0.064,0.061l0.065,0.059l0.065,0.059l0.066,0.058l0.067,0.058l0.068,0.056l0.069,0.056l0.069,0.054l0.07,0.054l-0.026,0.026l-0.025,0.026l-0.025,0.027l-0.024,0.027l-0.023,0.029l-0.022,0.028l-0.021,0.03l-0.021,0.03l-0.02,0.03l-0.019,0.031l-0.018,0.032l-0.017,0.032l-0.016,0.033l-0.015,0.033l-0.015,0.034l-0.013,0.034l-0.013,0.034l-0.011,0.035l-0.01,0.035l-0.01,0.036l-0.008,0.036l-0.007,0.036l-0.007,0.037l-0.005,0.037l-0.004,0.037l-0.003,0.038l-0.001,0.038l-0.001,0.038l0.001,0.038l0.001,0.039l0.003,0.039l0.004,0.038l0.005,0.033l0.005,0.032l0.006,0.033l0.007,0.031l0.007,0.032l0.009,0.031l0.009,0.03l0.009,0.031l0.011,0.03l0.011,0.029l0.012,0.029l0.013,0.029l0.013,0.029l0.014,0.028l0.014,0.027l0.015,0.028l0.016,0.026l0.017,0.027l0.017,0.025l0.017,0.026l0.019,0.025l0.018,0.024l0.02,0.024l0.02,0.024l0.02,0.022l0.021,0.023l0.022,0.022l0.022,0.021l0.022,0.021l0.023,0.02l0.024,0.02l0.023,0.019l0.025,0.019l0.025,0.018l0.025,0.017l0.026,0.017l0.026,0.016l0.026,0.016l0.027,0.015l0.027,0.014l0.028,0.014l0.028,0.013l0.028,0.012l0.028,0.012l0.029,0.011l0.029,0.01l0.03,0.01l0.03,0.009l0.03,0.008l0.03,0.007l0.031,0.007l0.03,0.006l0.031,0.005l0.032,0.005l0.031,0.003l0.032,0.003l0.031,0.003l0.032,0.001l0.032,0l0.033,0l0.032,-0.001l0.033,-0.002l0.032,-0.003l0.033,-0.003l0.027,-0.004l0.028,-0.004l0.026,-0.005l0.027,-0.005l0.026,-0.006l0.027,-0.006l0.026,-0.007l0.025,-0.008l0.026,-0.007l0.025,-0.009l0.049,-0.018l0.049,-0.021l0.047,-0.022l0.046,-0.024l0.045,-0.026l0.044,-0.027l0.042,-0.03l0.041,-0.031l0.04,-0.032l0.038,-0.034l0.037,-0.036l0.036,-0.037l0.034,-0.038l0.032,-0.039l0.031,-0.041l0.029,-0.042l0.027,-0.044l0.026,-0.044l0.024,-0.045l0.022,-0.047l0.02,-0.047l0.019,-0.048l0.016,-0.049l0.015,-0.05l0.012,-0.051l0.011,-0.051l0.008,-0.052l0.104,0.033l0.104,0.031l0.105,0.031l0.106,0.029l0.106,0.029l0.108,0.026l0.109,0.025l0.109,0.024l0.062,0.042l0.062,0.043l0.063,0.041l0.063,0.041l0.064,0.041l0.064,0.039l0.064,0.039l0.065,0.039l0.066,0.037l0.066,0.037l0.066,0.037l0.067,0.035l0.067,0.035l0.068,0.035l0.068,0.033l0.069,0.033l0.069,0.033l0.069,0.031l0.07,0.031l0.07,0.03l0.071,0.03l0.071,0.029l0.072,0.028l0.072,0.028l0.072,0.027l0.073,0.026l0.073,0.025l0.074,0.025l0.074,0.024l0.074,0.023l0.075,0.023l0.075,0.022l0.047,0.065l0.048,0.063l0.049,0.063l0.049,0.063l0.05,0.062l0.051,0.061l0.052,0.061l0.053,0.06l0.053,0.059l0.054,0.059l0.055,0.059l0.055,0.057l0.056,0.057l0.057,0.056l0.058,0.056l0.059,0.055l0.059,0.054l0.06,0.054l0.06,0.053l0.062,0.053l0.062,0.052l0.063,0.051l0.063,0.05l0.065,0.05l0.065,0.049l0.065,0.049l0.067,0.048l0.067,0.047l0.068,0.046l0.068,0.046l0.069,0.045l0.07,0.045l0.003,0.045l0.004,0.045l0.005,0.045l0.005,0.045l0.012,0.091l0.014,0.092l0.016,0.092l0.017,0.093l0.019,0.094l0.019,0.095l-0.013,0.072l-0.012,0.072l-0.011,0.072l-0.011,0.073l-0.01,0.072l-0.009,0.073l-0.008,0.073l-0.008,0.073l-0.007,0.074l-0.006,0.073l-0.006,0.074l-0.005,0.074l-0.004,0.074l-0.004,0.074l-0.003,0.074l-0.002,0.074l-0.002,0.075l0,0.074l0,0.075l0,0.075l0.001,0.075l0.002,0.075l0.003,0.075l0.003,0.076l0.004,0.075l0.005,0.076l0.006,0.075l0.006,0.076l0.007,0.076l0.007,0.076l0.009,0.076l0.009,0.076l0.01,0.079l0.01,0.079l0.012,0.078l0.012,0.078l0.013,0.078l0.014,0.077l0.014,0.076l0.015,0.077l0.015,0.076l0.017,0.075l0.016,0.075l0.018,0.075l0.018,0.074l0.019,0.074l0.02,0.074l0.02,0.073l0.02,0.072l0.022,0.072l0.022,0.072l0.022,0.072l0.023,0.071l0.024,0.07l0.025,0.071l0.025,0.07l0.025,0.069l0.026,0.069l0.027,0.069l0.027,0.068l0.028,0.068l0.028,0.067l0.029,0.067l0.029,0.067l-0.033,0.029l-0.033,0.028l-0.033,0.03l-0.032,0.029l-0.032,0.031l-0.031,0.03l-0.031,0.032l-0.03,0.031l-0.03,0.032l-0.03,0.033l-0.028,0.033l-0.029,0.033l-0.028,0.034l-0.027,0.034l-0.027,0.035l-0.026,0.035l-0.026,0.035l-0.025,0.036l-0.024,0.036l-0.024,0.036l-0.024,0.037l-0.023,0.038l-0.022,0.037l-0.022,0.038l-0.021,0.038l-0.021,0.039l-0.02,0.039l-0.02,0.039l-0.019,0.04l-0.018,0.04l-0.018,0.04l-0.017,0.041l-0.016,0.04l-0.016,0.042l-0.015,0.041l-0.015,0.042l-0.014,0.042l-0.013,0.042l-0.012,0.042l-0.012,0.043l-0.012,0.043l-0.01,0.043l-0.01,0.044l-0.01,0.043l-0.008,0.044l-0.008,0.044l-0.007,0.045l-0.007,0.044l-0.006,0.045l-0.005,0.045l-0.004,0.045l-0.004,0.045l-0.003,0.046l-0.002,0.045l-0.002,0.046l0,0.046l-0.001,0.046l0.001,0.046l0.002,0.047l0.002,0.046l0.003,0.047l0.004,0.047l0.004,0.046l0.006,0.047l0.01,0.074l0.011,0.073l0.014,0.072l0.015,0.071l0.017,0.071l0.019,0.07l0.02,0.069l0.022,0.068l0.024,0.067l0.025,0.067l0.027,0.066l0.028,0.065l0.03,0.064l0.031,0.063l0.033,0.062l0.034,0.061l0.035,0.06l0.037,0.059l0.039,0.058l0.039,0.058l0.041,0.056l0.043,0.055l0.043,0.053l0.045,0.053l0.046,0.052l0.047,0.05l0.049,0.05l0.049,0.048l0.051,0.047l0.051,0.045l0.053,0.045l0.054,0.043l0.055,0.042l0.056,0.04l0.056,0.039l0.058,0.038l0.059,0.036l0.059,0.035l0.061,0.034l0.061,0.032l0.062,0.031l0.063,0.029l0.063,0.028l0.064,0.026l0.065,0.025l0.066,0.023l0.066,0.022l0.067,0.02l0.068,0.018l0.068,0.017l0.069,0.015l0.069,0.014l0.07,0.012l0.07,0.01l0.071,0.008l0.071,0.007l0.072,0.004l0.072,0.004l0.072,0.001l0.073,-0.001l0.072,-0.002l0.074,-0.004l0.073,-0.007l0.074,-0.008l0.041,-0.005l0.04,-0.006l0.041,-0.006l0.04,-0.007l0.04,-0.008l0.039,-0.008l0.04,-0.008l0.039,-0.009l0.039,-0.01l0.038,-0.01l0.039,-0.011l0.038,-0.011l0.076,-0.024l0.074,-0.026l0.074,-0.028l0.072,-0.029l0.072,-0.032l0.07,-0.034l0.069,-0.035l0.068,-0.037l0.067,-0.039l0.065,-0.041l0.064,-0.042l0.063,-0.044l0.062,-0.046l0.06,-0.047l0.059,-0.049l0.058,-0.05l0.056,-0.051l0.055,-0.054l0.053,-0.054l0.052,-0.056l0.05,-0.057l0.049,-0.059l0.047,-0.059l0.046,-0.061l0.044,-0.063l0.042,-0.063l0.015,0.005l0.013,0.005l0.028,0.011l0.027,0.012l0.014,0.005l0.014,0.005l0.06,0.1l0.061,0.1l0.063,0.099l0.065,0.097l0.066,0.096l0.068,0.095l0.07,0.094l0.071,0.092l0.072,0.091l0.074,0.09l0.076,0.088l0.076,0.087l0.079,0.086l0.08,0.084l0.081,0.083l0.083,0.081l0.084,0.08l0.085,0.079l0.087,0.077l0.088,0.076l0.09,0.074l0.091,0.073l0.092,0.071l0.093,0.07l0.095,0.068l0.096,0.066l0.097,0.065l0.099,0.064l0.099,0.062l0.101,0.06l0.102,0.058l0.103,0.057l0.022,0.093l0.023,0.091l0.023,0.091l0.025,0.089l0.025,0.089l0.026,0.088l0.027,0.087l0.028,0.086l0.028,0.086l0.029,0.084l0.031,0.084l0.03,0.083l0.032,0.081l0.032,0.081l0.033,0.081l0.034,0.079l0.035,0.078l0.035,0.078l0.036,0.077l0.037,0.075l0.037,0.076l0.038,0.074l0.039,0.073l0.04,0.073l0.04,0.071l0.04,0.071l0.042,0.07l0.042,0.07l0.043,0.068l0.043,0.068l0.044,0.067l0.045,0.066l0.045,0.065l0.046,0.064l0.046,0.064l0.047,0.063l0.047,0.062l0.048,0.061l0.049,0.061l0.049,0.059l0.05,0.059l0.05,0.059l0.051,0.057l0.051,0.056l0.052,0.056l0.052,0.055l0.053,0.055l0.053,0.053l0.054,0.053l0.054,0.052l0.055,0.051l0.055,0.051l0.055,0.05l0.056,0.049l0.057,0.048l0.057,0.048l0.057,0.047l0.057,0.046l0.058,0.045l0.059,0.045l0.059,0.044l0.059,0.043l0.059,0.042l0.06,0.042l0.06,0.041l0.061,0.041l0.061,0.039l0.061,0.039l0.061,0.039l0.062,0.037l0.062,0.037l0.063,0.037l0.062,0.035l0.063,0.035l0.064,0.034l0.063,0.034l0.064,0.032l0.064,0.033l0.064,0.031l0.064,0.031l0.065,0.03l0.065,0.03l0.065,0.029l0.065,0.028l0.065,0.027l0.066,0.027l0.066,0.026l0.066,0.026l0.066,0.025l0.066,0.024l0.066,0.024l0.067,0.023l0.066,0.023l0.067,0.022l0.067,0.021l0.067,0.02l0.067,0.02l0.067,0.02l0.067,0.019l0.067,0.018l0.068,0.017l0.067,0.017l0.067,0.017l0.068,0.015l0.067,0.016l0.067,0.014l0.068,0.014l0.067,0.014l0.068,0.013l0.067,0.012l0.135,0.023l0.134,0.02l0.135,0.019l0.134,0.016l0.133,0.014l0.134,0.012l0.132,0.009l0.132,0.008l0.132,0.005l0.116,0.053l0.116,0.051l0.118,0.049l0.119,0.047l0.12,0.046l0.121,0.043l0.122,0.042l0.123,0.039l0.124,0.038l0.125,0.035l0.125,0.034l0.127,0.032l0.128,0.03l0.128,0.027l0.129,0.026l0.13,0.024l0.074,0.061l0.075,0.061l0.076,0.06l0.076,0.059l-0.007,0.175l-0.009,0.174l-0.009,0.174l-0.01,0.174l-0.012,0.174l-0.012,0.173l-0.013,0.173l-0.014,0.173l-0.016,0.172l-0.016,0.173l-0.017,0.171l-0.018,0.172l-0.019,0.171l-0.019,0.171l-0.021,0.171l-0.022,0.171l-0.022,0.17l-0.024,0.17l-0.025,0.169l-0.025,0.169l-0.026,0.169l-0.027,0.169l-0.029,0.168l-0.029,0.168l-0.03,0.168l-0.031,0.167l-0.031,0.167l-0.033,0.167l-0.034,0.166l-0.034,0.167l-0.035,0.165l-0.037,0.166l-0.037,0.165l-0.038,0.164l-0.039,0.165l-0.04,0.164l-0.04,0.163l-0.042,0.163l-0.042,0.163l-0.044,0.163l-0.044,0.162l-0.045,0.162l-0.046,0.161l-0.046,0.161l-0.048,0.161l-0.049,0.161l-0.049,0.159l-0.05,0.16l-0.051,0.159l-0.052,0.159l-0.053,0.158l-0.053,0.158l-0.055,0.158l-0.055,0.157l-0.056,0.157l-0.057,0.157l-0.058,0.156l-0.058,0.155l-0.06,0.155l-0.06,0.155l-0.061,0.154l-0.062,0.154l-0.063,0.154l-0.063,0.153l-0.064,0.153l-0.065,0.152l-0.066,0.152l-0.067,0.151l-0.068,0.151l-0.068,0.151l-0.069,0.15l-0.07,0.149l-0.071,0.149l-0.071,0.149l-0.072,0.148l-0.073,0.148l-0.074,0.147l-0.075,0.147l-0.075,0.147l-0.076,0.146l-0.077,0.145l-0.078,0.145l-0.078,0.145l-0.08,0.144l-0.08,0.143l-0.08,0.143l-0.082,0.143l-0.082,0.142l-0.083,0.141l-0.084,0.142l-0.084,0.14l-0.086,0.14l-0.086,0.14l-0.086,0.139l-0.088,0.139l-0.088,0.138l-0.089,0.137l-0.09,0.137l-0.09,0.137l-0.091,0.136l-0.092,0.135l-0.093,0.135l-0.093,0.135l-0.094,0.134l-0.094,0.133l-0.096,0.133l-0.096,0.132l-0.097,0.132l-0.097,0.131l-0.099,0.131l-0.098,0.13l-0.1,0.129l-0.1,0.129l-0.101,0.129l-0.102,0.128l-0.102,0.127l-0.103,0.127l-0.104,0.126l-0.105,0.125l-0.105,0.125l-0.105,0.125l-0.107,0.124l-0.107,0.123l-0.108,0.123l-0.108,0.122l-0.109,0.121l-0.11,0.121l-0.11,0.121l-0.111,0.119l-0.112,0.119l-0.112,0.119l-0.113,0.118l-0.114,0.117l-0.114,0.117l-0.115,0.116l-0.116,0.115l-0.116,0.115l-0.117,0.114l-0.117,0.114l-0.118,0.113l-0.119,0.112l-0.119,0.112l-0.12,0.111l-0.12,0.11l-0.122,0.11l-0.121,0.109l-0.123,0.109l-0.123,0.107l-0.123,0.108l-0.124,0.106l-0.125,0.106l-0.125,0.105l-0.126,0.105l-0.127,0.104l-0.127,0.103l-0.128,0.102l-0.128,0.102l-0.129,0.101l-0.13,0.101l-0.13,0.1l-0.13,0.099l-0.131,0.098l-0.132,0.098l-0.132,0.097l-0.133,0.096l-0.134,0.096l-0.134,0.095l-0.134,0.094l-0.136,0.094l-0.135,0.093l-0.136,0.092l-0.137,0.091l-0.137,0.091l-0.138,0.09l-0.139,0.089l-0.139,0.089l-0.139,0.087l-0.14,0.087l-0.141,0.087l-0.141,0.085l-0.141,0.085l-0.142,0.084l-0.143,0.084l-0.143,0.082l-0.144,0.082l-0.144,0.081l-0.145,0.081l-0.145,0.079l-0.145,0.079l-0.147,0.078l-0.146,0.077l-0.148,0.077l-0.147,0.076l-0.148,0.075l-0.149,0.074l-0.149,0.073l-0.15,0.073l-0.15,0.072l-0.151,0.071l-0.151,0.07l-0.151,0.07l-0.152,0.069l-0.153,0.068l-0.153,0.067l-0.153,0.066l-0.154,0.065l-0.154,0.065l-0.155,0.064l-0.155,0.063l-0.156,0.062l-0.156,0.062l-0.157,0.06l-0.157,0.06l-0.157,0.059l-0.158,0.058l-0.159,0.058l-0.159,0.056l-0.159,0.056l-0.16,0.054l-0.16,0.054l-0.16,0.054l-0.161,0.052l-0.162,0.051l-0.161,0.051l-0.163,0.049l-0.162,0.049l-0.163,0.048l-0.164,0.047l-0.164,0.046l-0.164,0.046l-0.164,0.044l-0.166,0.044l-0.165,0.043l-0.166,0.041l-0.166,0.041l-0.167,0.041l-0.167,0.039l-0.167,0.038l-0.168,0.037l-0.168,0.037l-0.169,0.036l-0.169,0.034l-0.169,0.034l-0.169,0.033l-0.17,0.032l-0.171,0.031l-0.171,0.03l-0.171,0.029l-0.171,0.029l-0.172,0.027l-0.172,0.026l-0.173,0.026l-0.173,0.025l-0.173,0.023l-0.173,0.023l-0.174,0.022l-0.195,0.023l-0.194,0.022l-0.194,0.02l-0.194,0.02l-0.194,0.018l-0.194,0.017l-0.193,0.015l-0.194,0.015l-0.193,0.013l-0.193,0.012l-0.193,0.01l-0.193,0.01l-0.192,0.008l-0.193,0.007l-0.192,0.006l-0.192,0.004l-0.192,0.003l-0.191,0.003l-0.192,0l-0.191,0l-0.191,-0.001l-0.19,-0.003l-0.191,-0.004l-0.19,-0.005l-0.19,-0.007l-0.19,-0.007l-0.19,-0.009l-0.189,-0.01l-0.189,-0.011l-0.189,-0.012l-0.188,-0.014l-0.189,-0.014l-0.188,-0.016l-0.188,-0.017l-0.187,-0.018l-0.187,-0.019l-0.187,-0.021l-0.187,-0.021l-0.186,-0.023l-0.186,-0.024l-0.186,-0.025l-0.185,-0.026l-0.186,-0.027l-0.184,-0.029l-0.185,-0.029l-0.184,-0.031l-0.184,-0.032l-0.183,-0.032l-0.184,-0.034l-0.183,-0.036l-0.182,-0.036l-0.182,-0.037l-0.182,-0.038l-0.182,-0.04l-0.181,-0.041l-0.181,-0.041l-0.18,-0.043l-0.18,-0.044l-0.18,-0.045l-0.179,-0.046l-0.179,-0.047l-0.178,-0.048l-0.178,-0.05l-0.178,-0.05l-0.177,-0.051l-0.177,-0.053l-0.177,-0.053l-0.176,-0.055l-0.176,-0.055l-0.175,-0.057l-0.175,-0.058l-0.174,-0.058l-0.174,-0.06l-0.174,-0.061l-0.173,-0.062l-0.172,-0.063l-0.173,-0.063l-0.171,-0.065l-0.172,-0.066l-0.171,-0.067l-0.17,-0.068l-0.17,-0.069l-0.169,-0.07l-0.169,-0.071l-0.169,-0.072l-0.168,-0.073l-0.167,-0.074l-0.167,-0.075l-0.167,-0.075l-0.166,-0.077l-0.165,-0.078l-0.165,-0.079l-0.164,-0.08l-0.164,-0.081l-0.164,-0.081l-0.163,-0.083l-0.162,-0.084l-0.162,-0.084l-0.161,-0.086l-0.161,-0.086l-0.16,-0.088l-0.159,-0.088l-0.16,-0.089l-0.158,-0.091l-0.158,-0.091l-0.157,-0.092l-0.157,-0.093l-0.156,-0.094l-0.156,-0.095l-0.155,-0.095l-0.154,-0.097l-0.154,-0.098l-0.153,-0.098l-0.153,-0.1l-0.152,-0.1l-0.151,-0.101l-0.151,-0.102l-0.15,-0.103l-0.15,-0.104l-0.149,-0.105l-0.148,-0.106l-0.148,-0.106l-0.147,-0.107l-0.146,-0.109l-0.146,-0.109l-0.145,-0.11l-0.144,-0.111l-0.144,-0.111l-0.143,-0.113l-0.143,-0.113l-0.141,-0.115l-0.141,-0.115l-0.141,-0.116l-0.139,-0.116l-0.139,-0.118l-0.139,-0.118l-0.137,-0.12l-0.137,-0.12l-0.136,-0.121l-0.136,-0.121l-0.135,-0.123l-0.134,-0.123l-0.133,-0.124l-0.132,-0.125l-0.132,-0.126l-0.131,-0.127l-0.131,-0.127l-0.129,-0.128l-0.129,-0.129l-0.128,-0.13l-0.128,-0.13l-0.126,-0.131l-0.126,-0.133l-0.125,-0.132l-0.124,-0.134l-0.124,-0.134l-0.122,-0.135l-0.122,-0.136l-0.122,-0.137l-0.12,-0.137l-0.119,-0.138l-0.119,-0.139l-0.118,-0.14l-0.117,-0.14l-0.116,-0.141l-0.116,-0.142l-0.114,-0.143l-0.114,-0.143l-0.113,-0.144l-0.112,-0.145l-0.112,-0.145l-0.11,-0.146l-0.11,-0.147l-0.108,-0.147l-0.108,-0.149l-0.107,-0.149l-0.106,-0.149l-0.106,-0.151l-0.104,-0.151l-0.104,-0.151l-0.102,-0.153l-0.102,-0.153l-0.101,-0.154l-0.1,-0.154l-0.099,-0.155l-0.098,-0.156l-0.097,-0.156l-0.097,-0.157l-0.095,-0.158l-0.095,-0.159l-0.093,-0.159l-0.093,-0.159l-0.091,-0.161l-0.091,-0.161l-0.09,-0.161l-0.089,-0.163l-0.088,-0.162l-0.087,-0.164l-0.086,-0.164l-0.085,-0.165l-0.084,-0.165l-0.083,-0.166l-0.082,-0.167l-0.081,-0.167l-0.08,-0.168l-0.08,-0.168l-0.078,-0.169l-0.077,-0.17l-0.076,-0.17l-0.075,-0.171l-0.075,-0.171l-0.073,-0.172l-0.072,-0.173l-0.071,-0.173l-0.07,-0.173l-0.069,-0.175l-0.068,-0.174l-0.067,-0.176l-0.066,-0.176l-0.065,-0.176l-0.064,-0.177l-0.063,-0.178l-0.061,-0.178l-0.061,-0.179l-0.06,-0.179l-0.058,-0.18l-0.057,-0.18l-0.057,-0.181l-0.055,-0.181l-0.054,-0.182l-0.053,-0.182l-0.052,-0.183l-0.051,-0.184l-0.05,-0.184l-0.049,-0.184l-0.047,-0.185l-0.047,-0.185l-0.045,-0.186l-0.044,-0.187l-0.043,-0.187l-0.042,-0.187l-0.041,-0.188l-0.04,-0.188l-0.038,-0.189l-0.038,-0.189l-0.036,-0.19l-0.035,-0.19l-0.034,-0.191l-0.032,-0.191l-0.032,-0.192l-0.03,-0.192l-0.03,-0.193l-0.028,-0.193l-0.026,-0.193l-0.026,-0.194l-0.024,-0.194l-0.024,-0.195l-0.021,-0.194l-0.021,-0.194l-0.019,-0.194l-0.019,-0.194l-0.016,-0.194l-0.016,-0.193l-0.014,-0.194l-0.014,-0.193l-0.011,-0.193l-0.011,-0.193l-0.01,-0.193l-0.008,-0.192l-0.007,-0.193l-0.005,-0.192l-0.005,-0.192l-0.003,-0.192l-0.002,-0.191l-0.001,-0.192l0,-0.191l0.002,-0.191l0.003,-0.19l0.004,-0.191l0.005,-0.19l0.006,-0.19l0.008,-0.19l0.008,-0.19l0.01,-0.189l0.011,-0.189l0.013,-0.189l0.013,-0.188l0.015,-0.189l0.015,-0.188l0.017,-0.187l0.018,-0.188l0.02,-0.187l0.02,-0.187l0.022,-0.187l0.022,-0.186l0.024,-0.186l0.025,-0.186l0.026,-0.185l0.028,-0.185l0.028,-0.185l0.029,-0.185l0.031,-0.184l0.032,-0.184l0.033,-0.183l0.034,-0.184l0.035,-0.182l0.036,-0.183l0.037,-0.182l0.039,-0.182l0.039,-0.182l0.041,-0.181l0.042,-0.18l0.042,-0.181l0.044,-0.18l0.045,-0.179l0.046,-0.18l0.047,-0.179l0.049,-0.178l0.049,-0.178l0.05,-0.178l0.052,-0.177l0.052,-0.177l0.053,-0.177l0.055,-0.176l0.056,-0.176l0.056,-0.175l0.058,-0.175l0.059,-0.174l0.059,-0.174l0.061,-0.174l0.062,-0.173l0.063,-0.172l0.064,-0.173l0.065,-0.171l0.066,-0.172l0.066,-0.17l0.068,-0.171l0.069,-0.17l0.07,-0.169l0.071,-0.169l0.072,-0.169l0.073,-0.167l0.074,-0.168l0.075,-0.167l0.076,-0.166l0.077,-0.166l0.077,-0.166l0.079,-0.165l0.08,-0.164l0.081,-0.164l0.082,-0.164l0.082,-0.162l0.084,-0.163l0.084,-0.162l0.086,-0.161l0.086,-0.161l0.088,-0.16l0.088,-0.159l0.09,-0.159l0.09,-0.159l0.091,-0.158l0.092,-0.157l0.093,-0.157l0.094,-0.156l0.095,-0.156l0.096,-0.155l0.096,-0.154l0.098,-0.154l0.099,-0.153l0.099,-0.153l0.1,-0.152l0.102,-0.151l0.102,-0.151l0.103,-0.15l0.104,-0.15l0.104,-0.149l0.106,-0.148l0.106,-0.148l0.108,-0.147l0.108,-0.146l0.109,-0.146l0.11,-0.145l0.111,-0.144l0.112,-0.144l0.112,-0.143l0.114,-0.143l0.114,-0.141l0.115,-0.141l0.116,-0.141l0.117,-0.139l0.117,-0.139l0.119,-0.139l0.119,-0.137l0.12,-0.137l0.121,-0.136l0.122,-0.136l0.122,-0.134l0.124,-0.134l0.124,-0.134l0.125,-0.132l0.125,-0.132l0.127,-0.131l0.127,-0.131l0.128,-0.129l0.129,-0.129l0.13,-0.128l0.131,-0.127l0.131,-0.127l0.132,-0.126l0.133,-0.125l0.133,-0.124l0.135,-0.124l0.135,-0.122l0.136,-0.122l0.136,-0.121l0.138,-0.121l0.138,-0.119l0.139,-0.119l0.139,-0.118l0.14,-0.117l0.142,-0.116l0.141,-0.116l0.143,-0.114l0.143,-0.114l0.144,-0.113l0.145,-0.112l0.145,-0.112l0.146,-0.11l0.147,-0.11l0.148,-0.108l0.148,-0.108l0.149,-0.107l0.15,-0.106l0.15,-0.106l0.151,-0.104l0.152,-0.104l0.152,-0.102l0.153,-0.102l0.154,-0.101l0.154,-0.1l0.155,-0.099l0.156,-0.098l0.157,-0.097l0.157,-0.097l0.158,-0.095l0.158,-0.094l0.159,-0.094l0.16,-0.093l0.16,-0.091l0.161,-0.091l0.162,-0.09l0.162,-0.089l0.163,-0.088l0.163,-0.087l0.164,-0.086l0.165,-0.085l0.165,-0.084l0.166,-0.083l0.167,-0.082l0.167,-0.081l0.168,-0.08l0.168,-0.079l0.169,-0.079l0.17,-0.077l0.17,-0.076l0.171,-0.075l0.171,-0.074l0.172,-0.074l0.173,-0.072l0.173,-0.071l0.174,-0.07l0.174,-0.069l0.175,-0.068l0.175,-0.067l0.176,-0.066l0.177,-0.065l0.177,-0.064l0.177,-0.062l0.178,-0.062l0.179,-0.061l0.179,-0.059l0.18,-0.059l0.18,-0.057l0.181,-0.057l0.181,-0.055l0.182,-0.054l0.183,-0.053l0.182,-0.052l0.184,-0.051l0.184,-0.05l0.184,-0.049l0.185,-0.047l0.186,-0.047l0.186,-0.045l0.186,-0.044l0.187,-0.043l0.187,-0.042l0.188,-0.041l0.189,-0.04l0.188,-0.038l0.19,-0.038l0.189,-0.036l0.191,-0.035l0.19,-0.034l0.192,-0.032l0.191,-0.032l0.192,-0.03l0.193,-0.029l0.193,-0.028l0.193,-0.027l0.194,-0.026l0.194,-0.024l0.242,-0.029l0.241,-0.026l0.241,-0.025l0.242,-0.023l0.242,-0.02l0.242,-0.019l0.242,-0.017l0.243,-0.015l0.242,-0.012l0.243,-0.011l0.242,-0.009l0.243,-0.007l0.243,-0.005l0.243,-0.003l0.243,-0.002l0.243,0.001Zm-0.483,0.351l-0.24,0.003l-0.24,0.005l-0.24,0.007l-0.24,0.008l-0.24,0.011l-0.239,0.013l-0.24,0.014l-0.239,0.017l-0.24,0.019l-0.239,0.02l-0.239,0.022l-0.238,0.025l-0.239,0.026l-0.238,0.028l-0.192,0.024l-0.192,0.026l-0.191,0.026l-0.191,0.028l-0.19,0.029l-0.19,0.03l-0.189,0.031l-0.189,0.032l-0.189,0.034l-0.188,0.034l-0.188,0.036l-0.187,0.037l-0.186,0.038l-0.187,0.039l-0.185,0.041l-0.186,0.041l-0.184,0.043l-0.185,0.043l-0.183,0.045l-0.184,0.046l-0.182,0.047l-0.183,0.048l-0.182,0.049l-0.181,0.051l-0.181,0.051l-0.18,0.053l-0.18,0.053l-0.179,0.055l-0.179,0.055l-0.178,0.057l-0.177,0.058l-0.178,0.059l-0.176,0.06l-0.176,0.061l-0.176,0.062l-0.175,0.063l-0.174,0.064l-0.174,0.065l-0.173,0.067l-0.173,0.067l-0.172,0.068l-0.172,0.069l-0.171,0.071l-0.171,0.071l-0.17,0.072l-0.169,0.074l-0.169,0.074l-0.168,0.075l-0.168,0.076l-0.167,0.078l-0.166,0.078l-0.166,0.079l-0.165,0.08l-0.165,0.082l-0.164,0.082l-0.163,0.083l-0.163,0.084l-0.162,0.085l-0.162,0.086l-0.161,0.087l-0.16,0.088l-0.16,0.088l-0.159,0.09l-0.159,0.091l-0.158,0.091l-0.157,0.093l-0.156,0.093l-0.156,0.094l-0.155,0.096l-0.155,0.096l-0.154,0.097l-0.153,0.098l-0.153,0.098l-0.152,0.1l-0.151,0.101l-0.151,0.101l-0.15,0.102l-0.149,0.104l-0.149,0.104l-0.148,0.105l-0.147,0.105l-0.146,0.107l-0.146,0.108l-0.145,0.108l-0.145,0.109l-0.144,0.11l-0.143,0.111l-0.142,0.112l-0.142,0.112l-0.14,0.113l-0.141,0.114l-0.139,0.115l-0.139,0.116l-0.138,0.117l-0.137,0.117l-0.137,0.118l-0.135,0.119l-0.135,0.12l-0.135,0.12l-0.133,0.122l-0.133,0.122l-0.132,0.123l-0.131,0.123l-0.131,0.125l-0.13,0.125l-0.129,0.126l-0.128,0.126l-0.127,0.128l-0.127,0.128l-0.126,0.129l-0.125,0.129l-0.124,0.131l-0.124,0.131l-0.123,0.131l-0.122,0.133l-0.121,0.133l-0.12,0.134l-0.12,0.135l-0.118,0.135l-0.118,0.136l-0.117,0.137l-0.116,0.137l-0.116,0.138l-0.115,0.139l-0.113,0.139l-0.113,0.14l-0.112,0.141l-0.112,0.142l-0.11,0.142l-0.11,0.142l-0.108,0.144l-0.108,0.144l-0.107,0.145l-0.106,0.145l-0.106,0.146l-0.104,0.146l-0.104,0.148l-0.102,0.147l-0.102,0.149l-0.101,0.149l-0.1,0.15l-0.099,0.15l-0.099,0.151l-0.097,0.151l-0.096,0.152l-0.096,0.153l-0.095,0.153l-0.093,0.154l-0.093,0.155l-0.092,0.155l-0.091,0.155l-0.091,0.156l-0.089,0.157l-0.088,0.157l-0.087,0.158l-0.087,0.158l-0.085,0.159l-0.085,0.159l-0.083,0.16l-0.083,0.161l-0.082,0.161l-0.081,0.161l-0.079,0.162l-0.079,0.163l-0.078,0.163l-0.077,0.164l-0.076,0.164l-0.075,0.164l-0.074,0.165l-0.073,0.166l-0.072,0.166l-0.072,0.166l-0.07,0.167l-0.069,0.168l-0.068,0.168l-0.067,0.168l-0.066,0.169l-0.065,0.169l-0.064,0.17l-0.064,0.17l-0.062,0.171l-0.061,0.171l-0.06,0.172l-0.059,0.172l-0.058,0.172l-0.057,0.173l-0.056,0.173l-0.055,0.174l-0.054,0.174l-0.053,0.174l-0.052,0.175l-0.05,0.175l-0.05,0.176l-0.049,0.176l-0.047,0.176l-0.047,0.177l-0.045,0.178l-0.045,0.177l-0.043,0.178l-0.043,0.178l-0.041,0.179l-0.04,0.179l-0.039,0.179l-0.038,0.18l-0.037,0.18l-0.036,0.181l-0.034,0.18l-0.034,0.181l-0.032,0.182l-0.032,0.182l-0.03,0.182l-0.029,0.182l-0.028,0.183l-0.027,0.183l-0.026,0.183l-0.025,0.184l-0.023,0.183l-0.023,0.185l-0.021,0.184l-0.02,0.185l-0.019,0.185l-0.018,0.185l-0.017,0.186l-0.016,0.186l-0.014,0.186l-0.013,0.186l-0.012,0.187l-0.011,0.187l-0.01,0.187l-0.009,0.187l-0.007,0.188l-0.006,0.187l-0.006,0.189l-0.003,0.188l-0.003,0.188l-0.002,0.189l0,0.189l0.001,0.189l0.002,0.19l0.003,0.189l0.004,0.19l0.006,0.19l0.007,0.19l0.008,0.19l0.009,0.191l0.011,0.191l0.012,0.19l0.013,0.191l0.014,0.192l0.015,0.191l0.017,0.192l0.018,0.191l0.019,0.192l0.02,0.192l0.022,0.192l0.023,0.192l0.024,0.192l0.025,0.192l0.027,0.191l0.028,0.191l0.028,0.19l0.031,0.19l0.031,0.19l0.032,0.189l0.034,0.188l0.034,0.188l0.036,0.188l0.037,0.187l0.038,0.187l0.039,0.186l0.04,0.186l0.042,0.185l0.042,0.185l0.044,0.184l0.045,0.184l0.046,0.183l0.047,0.183l0.048,0.182l0.049,0.182l0.051,0.181l0.051,0.181l0.052,0.18l0.054,0.18l0.055,0.179l0.055,0.179l0.057,0.178l0.058,0.178l0.059,0.177l0.06,0.176l0.061,0.177l0.062,0.175l0.063,0.175l0.064,0.174l0.065,0.174l0.066,0.174l0.068,0.172l0.068,0.173l0.069,0.171l0.071,0.171l0.071,0.171l0.072,0.17l0.073,0.169l0.075,0.169l0.075,0.168l0.076,0.168l0.078,0.167l0.078,0.166l0.079,0.166l0.08,0.165l0.081,0.165l0.083,0.164l0.083,0.164l0.084,0.162l0.085,0.163l0.086,0.161l0.087,0.161l0.087,0.161l0.089,0.159l0.09,0.159l0.091,0.159l0.091,0.158l0.093,0.157l0.093,0.157l0.094,0.155l0.095,0.156l0.097,0.154l0.097,0.154l0.098,0.154l0.098,0.152l0.1,0.152l0.101,0.152l0.101,0.15l0.102,0.15l0.104,0.149l0.104,0.149l0.105,0.148l0.105,0.147l0.107,0.147l0.107,0.146l0.109,0.145l0.109,0.144l0.11,0.144l0.111,0.143l0.111,0.142l0.113,0.142l0.113,0.141l0.114,0.14l0.115,0.139l0.116,0.139l0.117,0.138l0.117,0.137l0.118,0.137l0.119,0.136l0.12,0.135l0.12,0.134l0.122,0.134l0.122,0.132l0.123,0.132l0.123,0.132l0.124,0.13l0.126,0.13l0.125,0.129l0.127,0.128l0.127,0.128l0.129,0.126l0.128,0.126l0.13,0.125l0.13,0.125l0.131,0.123l0.132,0.123l0.133,0.122l0.133,0.121l0.134,0.12l0.134,0.12l0.136,0.119l0.136,0.117l0.136,0.118l0.138,0.116l0.138,0.115l0.139,0.115l0.139,0.114l0.14,0.113l0.141,0.112l0.141,0.111l0.143,0.11l0.142,0.11l0.144,0.109l0.144,0.107l0.144,0.107l0.146,0.107l0.146,0.105l0.146,0.104l0.148,0.104l0.147,0.103l0.149,0.101l0.149,0.101l0.15,0.1l0.15,0.1l0.151,0.098l0.151,0.097l0.152,0.097l0.153,0.095l0.153,0.095l0.154,0.094l0.154,0.093l0.155,0.092l0.156,0.091l0.156,0.09l0.157,0.089l0.157,0.088l0.158,0.088l0.158,0.086l0.159,0.086l0.159,0.084l0.16,0.084l0.161,0.082l0.161,0.082l0.161,0.081l0.162,0.08l0.163,0.079l0.163,0.078l0.163,0.077l0.165,0.076l0.164,0.075l0.165,0.074l0.166,0.073l0.166,0.072l0.166,0.071l0.167,0.07l0.168,0.069l0.168,0.068l0.168,0.067l0.169,0.067l0.169,0.065l0.17,0.064l0.17,0.063l0.171,0.062l0.171,0.061l0.172,0.06l0.171,0.059l0.173,0.058l0.173,0.057l0.173,0.056l0.174,0.055l0.174,0.054l0.174,0.053l0.175,0.052l0.175,0.051l0.176,0.049l0.176,0.049l0.176,0.048l0.177,0.046l0.177,0.046l0.178,0.044l0.178,0.044l0.178,0.042l0.179,0.041l0.179,0.04l0.179,0.039l0.18,0.038l0.18,0.037l0.18,0.036l0.181,0.035l0.181,0.033l0.182,0.033l0.181,0.031l0.182,0.03l0.183,0.03l0.183,0.028l0.183,0.027l0.183,0.025l0.183,0.025l0.184,0.024l0.184,0.022l0.185,0.021l0.185,0.021l0.185,0.019l0.185,0.018l0.186,0.016l0.185,0.016l0.187,0.014l0.186,0.014l0.187,0.012l0.186,0.011l0.188,0.009l0.187,0.009l0.188,0.008l0.187,0.006l0.188,0.005l0.189,0.004l0.188,0.003l0.189,0.001l0.189,0l0.189,0l0.189,-0.002l0.19,-0.004l0.19,-0.004l0.19,-0.006l0.19,-0.007l0.19,-0.008l0.191,-0.009l0.19,-0.011l0.191,-0.011l0.191,-0.013l0.192,-0.015l0.191,-0.015l0.191,-0.017l0.192,-0.018l0.192,-0.019l0.192,-0.02l0.192,-0.022l0.192,-0.023l0.172,-0.021l0.172,-0.023l0.171,-0.023l0.171,-0.024l0.171,-0.026l0.17,-0.026l0.17,-0.027l0.169,-0.028l0.169,-0.029l0.169,-0.03l0.169,-0.03l0.168,-0.032l0.168,-0.032l0.167,-0.034l0.167,-0.034l0.167,-0.035l0.166,-0.036l0.166,-0.037l0.165,-0.038l0.165,-0.039l0.165,-0.04l0.164,-0.04l0.164,-0.041l0.164,-0.043l0.163,-0.043l0.163,-0.044l0.162,-0.045l0.162,-0.045l0.162,-0.047l0.161,-0.047l0.161,-0.049l0.16,-0.049l0.16,-0.05l0.16,-0.05l0.159,-0.052l0.159,-0.053l0.158,-0.053l0.158,-0.054l0.157,-0.055l0.157,-0.056l0.157,-0.056l0.156,-0.058l0.155,-0.058l0.156,-0.059l0.154,-0.06l0.155,-0.061l0.154,-0.061l0.153,-0.063l0.153,-0.063l0.153,-0.064l0.152,-0.065l0.152,-0.065l0.151,-0.067l0.151,-0.067l0.15,-0.068l0.15,-0.068l0.149,-0.07l0.149,-0.07l0.148,-0.071l0.148,-0.072l0.147,-0.073l0.147,-0.073l0.147,-0.074l0.146,-0.075l0.145,-0.076l0.145,-0.076l0.145,-0.077l0.144,-0.078l0.143,-0.079l0.143,-0.079l0.143,-0.08l0.142,-0.081l0.141,-0.082l0.141,-0.082l0.141,-0.084l0.14,-0.083l0.139,-0.085l0.139,-0.085l0.138,-0.086l0.138,-0.087l0.137,-0.088l0.137,-0.088l0.136,-0.089l0.136,-0.089l0.135,-0.091l0.135,-0.091l0.134,-0.092l0.134,-0.092l0.133,-0.093l0.132,-0.094l0.132,-0.095l0.131,-0.095l0.131,-0.096l0.13,-0.096l0.13,-0.098l0.129,-0.098l0.129,-0.098l0.128,-0.1l0.127,-0.1l0.127,-0.1l0.126,-0.102l0.126,-0.102l0.125,-0.102l0.124,-0.104l0.124,-0.103l0.123,-0.105l0.123,-0.105l0.122,-0.106l0.122,-0.107l0.121,-0.107l0.12,-0.108l0.12,-0.108l0.119,-0.11l0.119,-0.109l0.117,-0.111l0.118,-0.111l0.116,-0.111l0.116,-0.113l0.116,-0.112l0.115,-0.114l0.114,-0.114l0.113,-0.115l0.113,-0.115l0.113,-0.116l0.111,-0.117l0.111,-0.117l0.111,-0.117l0.11,-0.119l0.109,-0.119l0.108,-0.119l0.108,-0.12l0.107,-0.121l0.107,-0.121l0.105,-0.122l0.106,-0.123l0.104,-0.122l0.104,-0.124l0.103,-0.124l0.103,-0.125l0.101,-0.125l0.102,-0.126l0.1,-0.126l0.1,-0.127l0.099,-0.128l0.099,-0.128l0.097,-0.128l0.097,-0.13l0.097,-0.129l0.095,-0.13l0.095,-0.131l0.095,-0.131l0.093,-0.132l0.093,-0.133l0.092,-0.132l0.092,-0.134l0.091,-0.134l0.09,-0.134l0.089,-0.135l0.089,-0.136l0.087,-0.136l0.088,-0.136l0.086,-0.137l0.086,-0.137l0.085,-0.138l0.084,-0.139l0.084,-0.139l0.082,-0.139l0.082,-0.14l0.082,-0.141l0.08,-0.141l0.08,-0.141l0.079,-0.142l0.078,-0.142l0.078,-0.143l0.077,-0.143l0.076,-0.144l0.075,-0.144l0.075,-0.145l0.073,-0.145l0.073,-0.146l0.072,-0.146l0.072,-0.146l0.071,-0.147l0.069,-0.148l0.07,-0.148l0.068,-0.148l0.067,-0.149l0.067,-0.149l0.066,-0.15l0.065,-0.15l0.065,-0.15l0.063,-0.151l0.063,-0.151l0.062,-0.152l0.061,-0.152l0.06,-0.153l0.06,-0.153l0.058,-0.153l0.058,-0.154l0.057,-0.154l0.057,-0.155l0.055,-0.155l0.055,-0.155l0.054,-0.156l0.052,-0.156l0.053,-0.157l0.051,-0.157l0.05,-0.157l0.05,-0.158l0.049,-0.158l0.048,-0.158l0.047,-0.159l0.046,-0.159l0.045,-0.16l0.045,-0.16l0.044,-0.16l0.042,-0.161l0.042,-0.161l0.041,-0.161l0.041,-0.162l0.039,-0.162l0.038,-0.162l0.038,-0.163l0.037,-0.163l0.036,-0.164l0.034,-0.164l0.035,-0.164l0.033,-0.164l0.032,-0.165l0.031,-0.165l0.031,-0.166l0.03,-0.165l0.028,-0.166l0.028,-0.167l0.027,-0.166l0.026,-0.167l0.025,-0.168l0.024,-0.167l0.024,-0.168l0.022,-0.169l0.022,-0.168l0.02,-0.169l0.02,-0.169l0.018,-0.169l0.018,-0.17l0.017,-0.17l0.016,-0.17l0.015,-0.171l0.014,-0.171l0.013,-0.171l0.012,-0.171l0.011,-0.172l0.01,-0.171l0.01,-0.173l0.008,-0.166l-0.014,-0.011l-0.078,-0.063l-0.005,-0.004l-0.043,-0.008l-0.134,-0.027l-0.134,-0.029l-0.133,-0.031l-0.132,-0.033l-0.132,-0.035l-0.13,-0.037l-0.129,-0.04l-0.129,-0.041l-0.127,-0.044l-0.127,-0.045l-0.125,-0.047l-0.125,-0.05l-0.123,-0.051l-0.122,-0.054l-0.056,-0.025l-0.066,-0.003l-0.137,-0.008l-0.139,-0.01l-0.138,-0.012l-0.139,-0.014l-0.14,-0.017l-0.14,-0.019l-0.14,-0.022l-0.14,-0.023l-0.071,-0.013l-0.07,-0.014l-0.07,-0.014l-0.07,-0.014l-0.071,-0.016l-0.07,-0.015l-0.07,-0.017l-0.07,-0.017l-0.071,-0.018l-0.07,-0.018l-0.07,-0.019l-0.07,-0.02l-0.07,-0.02l-0.07,-0.021l-0.07,-0.021l-0.069,-0.022l-0.07,-0.023l-0.07,-0.024l-0.069,-0.024l-0.069,-0.025l-0.07,-0.025l-0.069,-0.026l-0.069,-0.027l-0.068,-0.027l-0.069,-0.029l-0.068,-0.028l-0.069,-0.03l-0.068,-0.03l-0.068,-0.031l-0.067,-0.032l-0.068,-0.032l-0.067,-0.033l-0.067,-0.034l-0.067,-0.034l-0.066,-0.035l-0.067,-0.036l-0.066,-0.037l-0.066,-0.037l-0.065,-0.038l-0.065,-0.039l-0.065,-0.039l-0.065,-0.04l-0.064,-0.041l-0.064,-0.042l-0.064,-0.043l-0.063,-0.043l-0.063,-0.044l-0.062,-0.044l-0.063,-0.046l-0.061,-0.046l-0.062,-0.047l-0.061,-0.048l-0.061,-0.048l-0.06,-0.05l-0.06,-0.05l-0.059,-0.051l-0.059,-0.051l-0.058,-0.053l-0.058,-0.053l-0.058,-0.054l-0.057,-0.055l-0.057,-0.056l-0.056,-0.056l-0.055,-0.057l-0.055,-0.058l-0.055,-0.059l-0.054,-0.06l-0.053,-0.06l-0.053,-0.061l-0.053,-0.062l-0.052,-0.063l-0.051,-0.064l-0.05,-0.065l-0.05,-0.065l-0.05,-0.066l-0.049,-0.067l-0.048,-0.068l-0.047,-0.069l-0.047,-0.069l-0.047,-0.071l-0.045,-0.071l-0.045,-0.072l-0.044,-0.073l-0.044,-0.073l-0.043,-0.075l-0.042,-0.075l-0.041,-0.076l-0.041,-0.078l-0.04,-0.077l-0.039,-0.079l-0.039,-0.08l-0.038,-0.08l-0.037,-0.082l-0.036,-0.082l-0.035,-0.083l-0.035,-0.084l-0.034,-0.085l-0.033,-0.085l-0.032,-0.087l-0.032,-0.087l-0.03,-0.088l-0.03,-0.09l-0.029,-0.09l-0.028,-0.09l-0.027,-0.092l-0.026,-0.093l-0.026,-0.093l-0.024,-0.095l-0.01,-0.039l-0.078,-0.044l-0.106,-0.063l-0.104,-0.065l-0.104,-0.067l-0.102,-0.068l-0.101,-0.07l-0.099,-0.072l-0.099,-0.073l-0.097,-0.075l-0.095,-0.076l-0.094,-0.078l-0.093,-0.08l-0.091,-0.081l-0.09,-0.083l-0.089,-0.084l-0.087,-0.086l-0.085,-0.087l-0.084,-0.089l-0.083,-0.09l-0.081,-0.091l-0.079,-0.093l-0.078,-0.095l-0.076,-0.095l-0.075,-0.097l-0.073,-0.099l-0.071,-0.1l-0.07,-0.101l-0.053,-0.079l-0.035,0.041l-0.058,0.062l-0.06,0.061l-0.062,0.06l-0.063,0.058l-0.064,0.056l-0.066,0.055l-0.068,0.053l-0.069,0.051l-0.071,0.05l-0.072,0.047l-0.074,0.046l-0.075,0.044l-0.076,0.041l-0.078,0.04l-0.079,0.038l-0.08,0.035l-0.082,0.034l-0.082,0.031l-0.084,0.029l-0.084,0.027l-0.044,0.013l-0.043,0.012l-0.044,0.011l-0.044,0.011l-0.044,0.01l-0.044,0.01l-0.044,0.009l-0.045,0.008l-0.045,0.008l-0.045,0.007l-0.046,0.007l-0.047,0.006l-0.081,0.009l-0.082,0.007l-0.082,0.004l-0.082,0.003l-0.082,0.001l-0.081,-0.002l-0.081,-0.003l-0.08,-0.005l-0.08,-0.008l-0.079,-0.009l-0.079,-0.012l-0.078,-0.013l-0.078,-0.015l-0.077,-0.017l-0.077,-0.019l-0.076,-0.02l-0.075,-0.023l-0.074,-0.024l-0.074,-0.026l-0.073,-0.028l-0.072,-0.029l-0.072,-0.032l-0.07,-0.033l-0.069,-0.034l-0.069,-0.036l-0.068,-0.038l-0.067,-0.039l-0.065,-0.041l-0.065,-0.042l-0.064,-0.044l-0.062,-0.046l-0.062,-0.047l-0.06,-0.048l-0.059,-0.05l-0.058,-0.051l-0.057,-0.052l-0.055,-0.054l-0.054,-0.056l-0.053,-0.056l-0.052,-0.058l-0.05,-0.059l-0.049,-0.061l-0.048,-0.061l-0.046,-0.063l-0.044,-0.064l-0.043,-0.066l-0.042,-0.066l-0.04,-0.068l-0.038,-0.068l-0.037,-0.07l-0.035,-0.071l-0.033,-0.072l-0.032,-0.072l-0.03,-0.074l-0.028,-0.075l-0.027,-0.076l-0.024,-0.076l-0.023,-0.078l-0.021,-0.078l-0.019,-0.079l-0.017,-0.081l-0.015,-0.08l-0.014,-0.082l-0.011,-0.081l-0.006,-0.054l-0.005,-0.052l-0.004,-0.053l-0.003,-0.052l-0.003,-0.052l-0.002,-0.052l-0.001,-0.052l0.001,-0.052l0,-0.051l0.002,-0.052l0.003,-0.051l0.003,-0.051l0.004,-0.051l0.005,-0.051l0.006,-0.051l0.006,-0.05l0.008,-0.05l0.008,-0.05l0.009,-0.049l0.009,-0.05l0.011,-0.049l0.011,-0.049l0.012,-0.048l0.013,-0.049l0.013,-0.048l0.014,-0.048l0.015,-0.047l0.016,-0.047l0.016,-0.047l0.017,-0.047l0.018,-0.046l0.019,-0.046l0.019,-0.045l0.02,-0.045l0.02,-0.045l0.022,-0.045l0.021,-0.044l0.023,-0.044l0.023,-0.043l0.024,-0.043l0.025,-0.043l0.025,-0.042l0.025,-0.042l0.027,-0.041l0.027,-0.041l0.027,-0.04l0.029,-0.041l0.029,-0.039l0.029,-0.039l0.03,-0.039l0.031,-0.039l0.031,-0.037l0.031,-0.038l0.033,-0.037l0.033,-0.036l0.033,-0.036l0.034,-0.036l0.035,-0.034l0.021,-0.022l-0.019,-0.046l-0.028,-0.071l-0.028,-0.072l-0.027,-0.072l-0.027,-0.072l-0.026,-0.073l-0.025,-0.073l-0.025,-0.074l-0.024,-0.074l-0.024,-0.075l-0.022,-0.075l-0.023,-0.075l-0.021,-0.076l-0.021,-0.076l-0.021,-0.077l-0.019,-0.077l-0.019,-0.077l-0.019,-0.078l-0.017,-0.079l-0.017,-0.078l-0.016,-0.079l-0.016,-0.08l-0.015,-0.08l-0.014,-0.081l-0.013,-0.08l-0.013,-0.082l-0.012,-0.081l-0.011,-0.082l-0.011,-0.083l-0.009,-0.079l-0.009,-0.079l-0.008,-0.079l-0.007,-0.079l-0.006,-0.079l-0.006,-0.079l-0.005,-0.078l-0.004,-0.079l-0.004,-0.079l-0.002,-0.078l-0.003,-0.078l-0.001,-0.079l0,-0.078l0,-0.078l0,-0.078l0.002,-0.077l0.002,-0.078l0.003,-0.078l0.004,-0.077l0.005,-0.077l0.005,-0.077l0.006,-0.077l0.006,-0.077l0.008,-0.077l0.008,-0.076l0.009,-0.077l0.009,-0.076l0.011,-0.076l0.011,-0.076l0.011,-0.075l0.013,-0.076l0.002,-0.009l-0.007,-0.031l-0.018,-0.097l-0.018,-0.096l-0.017,-0.098l-0.015,-0.098l-0.013,-0.098l-0.003,-0.022l-0.071,-0.047l-0.071,-0.049l-0.07,-0.049l-0.07,-0.05l-0.069,-0.051l-0.068,-0.052l-0.068,-0.052l-0.067,-0.053l-0.066,-0.054l-0.065,-0.055l-0.065,-0.055l-0.063,-0.056l-0.063,-0.056l-0.063,-0.058l-0.061,-0.058l-0.061,-0.058l-0.06,-0.059l-0.059,-0.06l-0.059,-0.061l-0.058,-0.061l-0.056,-0.062l-0.057,-0.063l-0.055,-0.063l-0.054,-0.064l-0.054,-0.065l-0.053,-0.065l-0.052,-0.066l-0.052,-0.067l-0.028,-0.038l-0.041,-0.012l-0.078,-0.025l-0.077,-0.025l-0.077,-0.026l-0.077,-0.026l-0.076,-0.028l-0.076,-0.028l-0.075,-0.029l-0.075,-0.029l-0.074,-0.03l-0.074,-0.031l-0.074,-0.032l-0.073,-0.033l-0.073,-0.033l-0.072,-0.034l-0.072,-0.034l-0.072,-0.035l-0.071,-0.036l-0.07,-0.037l-0.07,-0.037l-0.07,-0.039l-0.069,-0.038l-0.069,-0.04l-0.068,-0.04l-0.068,-0.041l-0.067,-0.042l-0.067,-0.042l-0.066,-0.043l-0.066,-0.044l-0.065,-0.044l-0.006,-0.004l-0.043,-0.009l-0.114,-0.026l-0.113,-0.028l-0.112,-0.03l-0.086,-0.024l-0.023,0.055l-0.028,0.059l-0.031,0.057l-0.033,0.057l-0.034,0.055l-0.037,0.053l-0.04,0.052l-0.041,0.051l-0.043,0.049l-0.045,0.047l-0.047,0.045l-0.049,0.043l-0.051,0.042l-0.052,0.039l-0.054,0.038l-0.056,0.035l-0.057,0.033l-0.06,0.031l-0.06,0.028l-0.062,0.026l-0.062,0.023l-0.034,0.012l-0.032,0.01l-0.033,0.009l-0.033,0.009l-0.033,0.008l-0.034,0.008l-0.034,0.006l-0.034,0.006l-0.035,0.006l-0.035,0.004l-0.041,0.005l-0.041,0.003l-0.042,0.003l-0.041,0.001l-0.041,0l-0.041,0l-0.041,-0.002l-0.04,-0.003l-0.041,-0.003l-0.04,-0.005l-0.04,-0.006l-0.039,-0.007l-0.04,-0.007l-0.039,-0.009l-0.038,-0.009l-0.039,-0.011l-0.038,-0.011l-0.037,-0.012l-0.037,-0.014l-0.037,-0.014l-0.037,-0.015l-0.036,-0.015l-0.035,-0.017l-0.035,-0.017l-0.035,-0.019l-0.034,-0.019l-0.034,-0.019l-0.033,-0.021l-0.032,-0.021l-0.033,-0.023l-0.031,-0.022l-0.031,-0.024l-0.031,-0.024l-0.029,-0.026l-0.03,-0.025l-0.028,-0.027l-0.028,-0.027l-0.028,-0.028l-0.026,-0.029l-0.026,-0.029l-0.026,-0.03l-0.024,-0.03l-0.024,-0.031l-0.024,-0.032l-0.022,-0.032l-0.022,-0.033l-0.021,-0.034l-0.02,-0.034l-0.019,-0.035l-0.019,-0.035l-0.018,-0.036l-0.017,-0.036l-0.016,-0.037l-0.015,-0.037l-0.014,-0.038l-0.013,-0.038l-0.013,-0.039l-0.011,-0.039l-0.011,-0.039l-0.01,-0.04l-0.008,-0.041l-0.008,-0.04l-0.006,-0.042l-0.006,-0.041l-0.005,-0.05l-0.004,-0.049l-0.002,-0.049l-0.001,-0.049l0.001,-0.049l0.002,-0.049l0.004,-0.048l0.005,-0.048l0.006,-0.047l0.008,-0.047l0.01,-0.047l0.01,-0.046l0.013,-0.046l0.013,-0.045l0.014,-0.045l0.016,-0.044l0.017,-0.043l0.019,-0.043l0.019,-0.042l0.021,-0.042l0.022,-0.041l0.023,-0.04l0.024,-0.04l0.009,-0.014l-0.007,-0.006l-0.071,-0.06l-0.069,-0.061l-0.069,-0.062l-0.068,-0.063l-0.067,-0.064l-0.067,-0.064l-0.065,-0.066l-0.065,-0.066l-0.063,-0.067l-0.063,-0.068l-0.062,-0.069l-0.061,-0.07l-0.06,-0.07l-0.06,-0.072l-0.058,-0.072l-0.058,-0.073l-0.056,-0.074l-0.056,-0.074l-0.054,-0.076l-0.054,-0.076l-0.053,-0.077l-0.052,-0.078l-0.051,-0.078l-0.05,-0.079l-0.049,-0.08l-0.048,-0.081l-0.047,-0.082l-0.047,-0.082l-0.045,-0.083l-0.044,-0.084l-0.043,-0.084l-0.043,-0.085l-0.041,-0.086l-0.04,-0.087l-0.04,-0.087l-0.038,-0.088l-0.037,-0.089l-0.037,-0.089l-0.035,-0.09l-0.034,-0.091l-0.034,-0.092l-0.032,-0.092l-0.031,-0.092l-0.03,-0.094l-0.03,-0.094l-0.028,-0.095l-0.027,-0.095l-0.026,-0.096l-0.025,-0.096l-0.024,-0.098l-0.023,-0.097l-0.022,-0.099l-0.02,-0.099l-0.02,-0.1l-0.019,-0.1l-0.017,-0.101l-0.017,-0.101l-0.015,-0.102l-0.014,-0.103l-0.014,-0.103l-0.016,-0.139l-0.014,-0.139l-0.011,-0.139l-0.01,-0.137l-0.008,-0.137l-0.005,-0.137l-0.003,-0.136l-0.002,-0.135l0.001,-0.135l0.003,-0.134l0.006,-0.134l0.007,-0.133l0.009,-0.132l0.012,-0.132l0.014,-0.13l0.016,-0.131l0.018,-0.129l0.02,-0.129l0.022,-0.128l0.025,-0.127l0.026,-0.127l0.029,-0.126l0.031,-0.125l0.033,-0.125l0.035,-0.123l0.038,-0.123l0.039,-0.122l0.042,-0.121l0.017,-0.048l-0.035,-0.004l-0.24,-0.028l-0.24,-0.026l-0.24,-0.024l-0.24,-0.022l-0.24,-0.02l-0.241,-0.019l-0.24,-0.016l-0.24,-0.014l-0.241,-0.013l-0.24,-0.01l-0.24,-0.009l-0.241,-0.006l-0.24,-0.005l-0.24,-0.003l-0.241,-0.001l-0.24,0.002Z" style="fill:#fff;"/><path d="M134.748,32.388c0.171,1.931 -1.258,3.636 -3.189,3.807c-1.931,0.17 -3.637,-1.259 -3.807,-3.189c-0.171,-1.931 1.258,-3.637 3.189,-3.808c1.931,-0.17 3.637,1.259 3.807,3.19Z" style="fill:#fff;"/><path d="M122.983,39.383c0.169,1.914 -1.248,3.605 -3.161,3.774c-1.914,0.169 -3.605,-1.248 -3.774,-3.161c-0.168,-1.914 1.248,-3.605 3.161,-3.774c1.914,-0.169 3.605,1.248 3.774,3.161Z" style="fill:#fff;"/><path d="M130.417,52.213c0.195,2.211 -1.441,4.165 -3.652,4.36c-2.211,0.195 -4.165,-1.442 -4.36,-3.653c-0.195,-2.211 1.441,-4.164 3.652,-4.359c2.211,-0.196 4.165,1.441 4.36,3.652Z" style="fill:#fff;"/><path d="M157.595,51.996c0.184,2.081 -1.356,3.919 -3.437,4.103c-2.08,0.183 -3.918,-1.357 -4.102,-3.437c-0.184,-2.081 1.356,-3.919 3.437,-4.102c2.08,-0.184 3.918,1.356 4.102,3.436Z" style="fill:#fff;"/><path d="M109.668,41.962c0.121,1.37 -0.893,2.58 -2.262,2.701c-1.37,0.121 -2.58,-0.893 -2.701,-2.263c-0.121,-1.37 0.893,-2.58 2.262,-2.701c1.37,-0.121 2.58,0.893 2.701,2.263Z" style="fill:#fff;"/><path d="M117.725,59.581c0.138,1.563 -1.019,2.945 -2.583,3.083c-1.563,0.138 -2.945,-1.019 -3.083,-2.583c-0.138,-1.564 1.019,-2.945 2.583,-3.083c1.564,-0.138 2.945,1.019 3.083,2.583Z" style="fill:#fff;"/><path d="M122.377,28.275c0.154,1.746 -1.139,3.289 -2.886,3.444c-1.746,0.154 -3.29,-1.139 -3.444,-2.886c-0.154,-1.746 1.139,-3.289 2.885,-3.444c1.747,-0.154 3.29,1.139 3.445,2.886Z" style="fill:#fff;"/><path d="M144.701,64.481c0.139,1.58 -1.03,2.976 -2.61,3.115c-1.579,0.14 -2.975,-1.03 -3.115,-2.609c-0.139,-1.58 1.03,-2.976 2.61,-3.115c1.579,-0.14 2.975,1.029 3.115,2.609Z" style="fill:#fff;"/><path d="M130.282,64.828c0.124,1.405 -0.915,2.645 -2.319,2.769c-1.405,0.124 -2.645,-0.915 -2.769,-2.319c-0.124,-1.404 0.915,-2.645 2.319,-2.769c1.404,-0.124 2.645,0.915 2.769,2.319Z" style="fill:#fff;"/><path d="M141.936,50.049c0.135,1.526 -0.982,2.873 -2.493,3.006c-1.511,0.134 -2.847,-0.997 -2.981,-2.523c-0.135,-1.526 0.982,-2.873 2.493,-3.007c1.51,-0.133 2.846,0.998 2.981,2.524Z" style="fill:#fff;"/></g></svg>