<?xml version="1.0" encoding="iso-8859-1"?>
<!-- Generator: Adobe Illustrator 23.0.1, SVG Export Plug-In . SVG Version: 6.00 Build 0)  -->
<svg version="1.1" id="Ebene_1" xmlns="http://www.w3.org/2000/svg" xmlns:xlink="http://www.w3.org/1999/xlink" x="0px" y="0px"
	 viewBox="0 0 350 120" style="enable-background:new 0 0 350 120;" xml:space="preserve">
<rect style="fill:#008EBD;" width="350" height="120"/>
<g>
	<path style="fill:none;stroke:#FFFFFF;stroke-width:2;stroke-linejoin:round;stroke-miterlimit:10;" d="M227.885,33.071h-77.157
		L145,37.799l-5.728-4.728h-16.657c-2.75,0-5,2.25-5,5V81c0,2.75,2.25,5,5,5h16.586L145,81.201L150.799,86h77.086c2.75,0,5-2.25,5-5
		V38.071C232.885,35.321,230.635,33.071,227.885,33.071z"/>
	<g>
		<path style="fill:#FFFFFF;" d="M171.755,48.487c0-4.419,3.105-7.345,7.703-7.345c4.717,0,7.822,2.926,7.822,7.345
			c0,4.419-3.105,7.404-7.822,7.404C174.86,55.891,171.755,52.905,171.755,48.487z M174.143,74.581l27.23-32.722l2.807,2.328
			L176.89,77.03L174.143,74.581z M175.696,48.487c0,2.567,1.493,4.179,3.762,4.179c2.389,0,3.941-1.612,3.941-4.179
			c0-2.508-1.552-4.18-3.941-4.18C177.189,44.307,175.696,45.978,175.696,48.487z M190.325,71.595c0-4.419,3.105-7.345,7.703-7.345
			c4.717,0,7.882,2.926,7.882,7.345c0,4.419-3.164,7.405-7.882,7.405C193.431,79,190.325,76.015,190.325,71.595z M194.267,71.595
			c0,2.568,1.493,4.239,3.761,4.239c2.389,0,3.941-1.671,3.941-4.239c0-2.508-1.552-4.179-3.941-4.179
			C195.76,67.416,194.267,69.087,194.267,71.595z"/>
	</g>
	<g>
		<path style="fill:#FFFFFF;" d="M144,74.24c0-0.551,0.45-1,1-1l0,0c0.55,0,1,0.449,1,1l0,0c0,0.55-0.45,1-1,1l0,0
			C144.45,75.24,144,74.79,144,74.24z M144,68.31c0-0.55,0.45-1,1-1l0,0c0.55,0,1,0.45,1,1l0,0c0,0.55-0.45,1-1,1l0,0
			C144.45,69.31,144,68.859,144,68.31z M144,62.39c0-0.56,0.45-1,1-1l0,0c0.55,0,1,0.44,1,1l0,0c0,0.55-0.45,1-1,1l0,0
			C144.45,63.39,144,62.94,144,62.39z M144,56.46c0-0.55,0.45-1,1-1l0,0c0.55,0,1,0.45,1,1l0,0c0,0.55-0.45,1-1,1l0,0
			C144.45,57.46,144,57.01,144,56.46z M144,50.53c0-0.55,0.45-1,1-1l0,0c0.55,0,1,0.45,1,1l0,0c0,0.56-0.45,1-1,1l0,0
			C144.45,51.53,144,51.09,144,50.53z"/>
		<path style="fill:#FFFFFF;" d="M145,45.61c-0.26,0-0.52-0.11-0.71-0.3c-0.09-0.09-0.16-0.2-0.21-0.32
			c-0.05-0.12-0.08-0.25-0.08-0.38c0-0.07,0.01-0.13,0.02-0.2c0.01-0.06,0.03-0.13,0.06-0.19c0.02-0.06,0.05-0.11,0.09-0.17
			c0.04-0.05,0.08-0.1,0.12-0.15c0.28-0.28,0.73-0.37,1.09-0.22c0.13,0.05,0.23,0.13,0.33,0.22c0.04,0.05,0.09,0.1,0.12,0.15
			c0.04,0.06,0.07,0.11,0.09,0.17c0.03,0.06,0.05,0.13,0.06,0.19c0.01,0.07,0.02,0.13,0.02,0.2c0,0.13-0.02,0.26-0.08,0.38
			c-0.05,0.12-0.12,0.23-0.21,0.32c-0.1,0.1-0.21,0.17-0.33,0.22S145.13,45.61,145,45.61z"/>
	</g>
</g>
</svg>
