<?xml version="1.0" encoding="UTF-8" standalone="no"?><!DOCTYPE svg PUBLIC "-//W3C//DTD SVG 1.1//EN" "http://www.w3.org/Graphics/SVG/1.1/DTD/svg11.dtd"><svg width="100%" height="100%" viewBox="0 0 350 120" version="1.1" xmlns="http://www.w3.org/2000/svg" xmlns:xlink="http://www.w3.org/1999/xlink" xml:space="preserve" xmlns:serif="http://www.serif.com/" style="fill-rule:evenodd;clip-rule:evenodd;stroke-linecap:round;stroke-linejoin:round;stroke-miterlimit:10;"><rect x="0" y="0" width="350" height="120" style="fill:#008ebd;"/><g><path d="M153.134,41.42c8.622,-2.036 17.274,3.311 19.31,11.932c2.035,8.622 -3.311,17.274 -11.933,19.31c-8.621,2.035 -17.273,-3.311 -19.309,-11.933c-2.036,-8.621 3.311,-17.273 11.932,-19.309Z" style="fill:#fff;"/><path d="M183.423,87.919c-0.302,-6.408 -4.252,-11.841 -9.731,-14.027c-4.551,3.858 -10.431,6.196 -16.864,6.196c-6.397,0 -12.25,-2.309 -16.79,-6.128c-0.255,0.103 -0.514,0.197 -0.763,0.313c-0.097,0.046 -0.192,0.092 -0.288,0.139c-1.583,0.786 -3.018,1.85 -4.247,3.13c-0.074,0.077 -0.146,0.156 -0.219,0.235c-2.462,2.673 -4.038,6.236 -4.227,10.166c-0.013,0.262 -0.011,0.526 -0.011,0.792l0,16.497c0,0.339 0.314,0.261 0.638,0.261l52.051,0c0.324,0 0.458,0.077 0.458,-0.261l0,-16.498c0.001,-0.266 0.006,-0.553 -0.007,-0.815Z" style="fill:#fff;fill-rule:nonzero;"/></g><path d="M197.369,14.556c-12.968,-0.799 -24,6.996 -24.641,17.409c-0.519,8.428 5.929,15.988 15.282,18.987l0,9.547l11.238,-8.28c11.069,-0.909 19.87,-8.096 20.44,-17.363c0.641,-10.412 -9.351,-19.501 -22.319,-20.3Z" style="fill:none;fill-rule:nonzero;stroke:#fff;stroke-width:2px;"/><text x="187.218px" y="42.909px" style="font-family:'AppleMyungjo';font-size:30px;fill:#fff;">#</text></svg>