<?xml version="1.0" encoding="utf-8"?>
<!-- Generator: Adobe Illustrator 22.1.0, SVG Export Plug-In . SVG Version: 6.00 Build 0)  -->
<svg version="1.1" id="Ebene_1" xmlns="http://www.w3.org/2000/svg" xmlns:xlink="http://www.w3.org/1999/xlink" x="0px" y="0px"
	 viewBox="0 0 350 120" style="enable-background:new 0 0 350 120;" xml:space="preserve">
<style type="text/css">
	.st0{fill:#008EBD;}
</style>
<g>
	<polygon class="st0" points="149.3,103.8 200.2,103.8 174.7,78.4 	"/>
	<ellipse transform="matrix(0.7071 -0.7071 0.7071 0.7071 36.5978 145.6174)" class="st0" cx="194.1" cy="28.6" rx="9.3" ry="9.3"/>
	<path class="st0" d="M179.4,40.9h-36.1v56.9l37.1-37.1l1.9-1.9l1.3,2.4l2.2,4.2l0.7,1.3l-1,1l-4.6,4.6l25.4,25.4v-52l-12.1,23.7
		C194.1,69.6,184,49.8,179.4,40.9z M170.8,57.4c0,6.1-5,11.1-11.1,11.1s-11.1-5-11.1-11.1c0-6.1,5-11.1,11.1-11.1
		c2.5,0,4.8,0.8,6.8,2.3l-2.6,3.4c-1.2-0.9-2.7-1.4-4.2-1.4c-3.8,0-6.9,3.1-6.9,6.9c0,3.8,3.1,6.9,6.9,6.9c3.1,0,5.7-2,6.5-4.8h-6.5
		v-4.2h11.1V57.4z"/>
	<path class="st0" d="M0,0v120h350V0H0z M144.5,105.8l30.3-30.3l30.3,30.3H144.5z M210.7,37.1l-2.5,4.9v60.7l-30.3-30.3l6-6
		l-2.2-4.2l-40.5,40.5V40.4c0-0.8,0.7-1.5,1.5-1.5h35.6c-0.7-1.4-1.1-2.2-1.2-2.3c-1.2-2.4-1.8-5.2-1.8-8c0-10.3,8.3-18.6,18.6-18.6
		c10.3,0,18.6,8.3,18.6,18.6C212.7,31.7,212,34.6,210.7,37.1z"/>
</g>
</svg>
