<?xml version="1.0" encoding="UTF-8" standalone="no"?><!DOCTYPE svg PUBLIC "-//W3C//DTD SVG 1.1//EN" "http://www.w3.org/Graphics/SVG/1.1/DTD/svg11.dtd"><svg width="100%" height="100%" viewBox="0 0 350 120" version="1.1" xmlns="http://www.w3.org/2000/svg" xmlns:xlink="http://www.w3.org/1999/xlink" xml:space="preserve" xmlns:serif="http://www.serif.com/" style="fill-rule:evenodd;clip-rule:evenodd;stroke-linecap:round;stroke-linejoin:round;stroke-miterlimit:1.5;"><rect x="0" y="0" width="350" height="120.184" style="fill:#008ebd;"/><g><rect x="65.843" y="84.27" width="56.967" height="11.6" style="fill:#fff;"/><rect x="65.843" y="69.313" width="56.967" height="11.6" style="fill:#fff;"/><rect x="65.843" y="54.313" width="56.967" height="11.6" style="fill:#fff;"/><rect x="145.877" y="84.27" width="56.967" height="11.6" style="fill:#fff;"/><rect x="145.877" y="69.313" width="56.967" height="11.6" style="fill:#fff;"/><rect x="145.877" y="54.313" width="56.967" height="11.6" style="fill:#fff;"/><rect x="145.877" y="39.313" width="56.967" height="11.6" style="fill:#fff;"/><rect x="224.877" y="84.27" width="56.967" height="11.6" style="fill:#fff;"/><rect x="224.877" y="69.313" width="56.967" height="11.6" style="fill:#fff;"/><rect x="224.877" y="54.313" width="56.967" height="11.6" style="fill:#fff;"/><rect x="224.877" y="39.313" width="56.967" height="11.6" style="fill:#fff;"/><rect x="224.877" y="24.313" width="56.967" height="11.6" style="fill:#fff;"/></g><g><path d="M123.307,62.333c9.003,-0.011 16.321,7.289 16.332,16.292c0.011,9.003 -7.289,16.321 -16.292,16.332c-9.003,0.011 -16.321,-7.289 -16.332,-16.292c-0.011,-9.002 7.289,-16.321 16.292,-16.332Z" style="fill:#008ebd;stroke:#fff;stroke-width:2px;"/><g transform="matrix(1,0,0,1,58.308,21.5384)"><text x="51.754px" y="62.366px" style="font-family:'ArialUnicodeMS', 'Arial Unicode MS', sans-serif;font-size:15px;fill:#fff;">1<tspan x="59.047px " y="62.366px ">0</tspan></text><g transform="matrix(0.85,0,0,1,9.95083,0)"><text x="66.339px" y="62.366px" style="font-family:'ArialUnicodeMS', 'Arial Unicode MS', sans-serif;font-size:15px;fill:#fff;">%</text></g></g></g><g><path d="M202.98,62.333c9.003,-0.011 16.321,7.289 16.332,16.292c0.011,9.003 -7.289,16.321 -16.292,16.332c-9.003,0.011 -16.321,-7.289 -16.332,-16.292c-0.011,-9.002 7.289,-16.321 16.292,-16.332Z" style="fill:#008ebd;stroke:#fff;stroke-width:2px;"/><g transform="matrix(1,0,0,1,138.582,21.5384)"><text x="51.754px" y="62.366px" style="font-family:'ArialUnicodeMS', 'Arial Unicode MS', sans-serif;font-size:15px;fill:#fff;">2<tspan x="59.047px " y="62.366px ">0</tspan></text><g transform="matrix(0.85,0,0,1,9.95083,0)"><text x="66.339px" y="62.366px" style="font-family:'ArialUnicodeMS', 'Arial Unicode MS', sans-serif;font-size:15px;fill:#fff;">%</text></g></g></g><g><path d="M281.825,62.333c9.002,-0.011 16.321,7.289 16.332,16.292c0.011,9.003 -7.289,16.321 -16.292,16.332c-9.003,0.011 -16.321,-7.289 -16.332,-16.292c-0.011,-9.002 7.289,-16.321 16.292,-16.332Z" style="fill:#008ebd;stroke:#fff;stroke-width:2px;"/><g transform="matrix(1,0,0,1,217.328,21.5384)"><text x="51.754px" y="62.366px" style="font-family:'ArialUnicodeMS', 'Arial Unicode MS', sans-serif;font-size:15px;fill:#fff;">3<tspan x="59.047px " y="62.366px ">0</tspan></text><g transform="matrix(0.85,0,0,1,9.95083,0)"><text x="66.339px" y="62.366px" style="font-family:'ArialUnicodeMS', 'Arial Unicode MS', sans-serif;font-size:15px;fill:#fff;">%</text></g></g></g></svg>