<?xml version="1.0" encoding="iso-8859-1"?>
<!-- Generator: Adobe Illustrator 23.0.1, SVG Export Plug-In . SVG Version: 6.00 Build 0)  -->
<svg version="1.1" id="Ebene_1" xmlns="http://www.w3.org/2000/svg" xmlns:xlink="http://www.w3.org/1999/xlink" x="0px" y="0px"
	 viewBox="0 0 350 120" style="enable-background:new 0 0 350 120;" xml:space="preserve">
<rect x="0.292" y="0.25" style="fill:#008EBD;" width="350" height="120"/>
<path style="fill:none;stroke:#FFFFFF;stroke-width:2;stroke-linecap:round;stroke-linejoin:round;stroke-miterlimit:10;" d="
	M177.469,15.856c-24.314-1.497-44.999,13.117-46.202,32.642c-0.973,15.803,11.118,29.977,28.654,35.601V102l21.07-15.525
	c20.754-1.705,37.256-15.18,38.326-32.555C220.52,34.395,201.784,17.353,177.469,15.856z"/>
<g>
	<path style="fill:#FFFFFF;" d="M179.589,66.523h-3.392V53.188h-14.589v13.335h-3.345V37.902h3.345v12.591h14.589V37.902h3.392
		V66.523z"/>
	<path style="fill:#FFFFFF;" d="M187.815,38.878c0-1.301,0.883-2.184,2.23-2.184c1.394,0,2.276,0.883,2.276,2.184
		c0,1.348-0.883,2.23-2.276,2.23C188.698,41.108,187.815,40.226,187.815,38.878z M188.419,45.662h3.299v20.862h-3.299V45.662z"/>
</g>
</svg>
