<?xml version="1.0" encoding="iso-8859-1"?>
<!-- Generator: Adobe Illustrator 23.0.1, SVG Export Plug-In . SVG Version: 6.00 Build 0)  -->
<svg version="1.1" id="Ebene_1" xmlns="http://www.w3.org/2000/svg" xmlns:xlink="http://www.w3.org/1999/xlink" x="0px" y="0px"
	 viewBox="0 0 350 120" style="enable-background:new 0 0 350 120;" xml:space="preserve">
<rect style="fill:#008EBD;" width="350" height="120"/>
<g>
	<g>
		<path style="fill:#FFFFFF;" d="M183.465,18.849l14,14h-14V18.849 M183.465,16.849c-0.258,0-0.517,0.05-0.765,0.152
			c-0.747,0.31-1.235,1.039-1.235,1.848v14c0,1.105,0.895,2,2,2h14c0.809,0,1.538-0.487,1.848-1.235
			c0.31-0.747,0.138-1.608-0.434-2.18l-14-14C184.497,17.052,183.985,16.849,183.465,16.849L183.465,16.849z"/>
	</g>
	<g>
		<path style="fill:#FFFFFF;" d="M183.287,18.849l14.178,14.178v57.822h-62v-72H183.287 M183.287,16.849h-47.822
			c-1.105,0-2,0.895-2,2v72c0,1.105,0.895,2,2,2h62c1.105,0,2-0.895,2-2V33.027c0-0.53-0.211-1.039-0.586-1.414l-14.178-14.178
			C184.327,17.06,183.818,16.849,183.287,16.849L183.287,16.849z"/>
	</g>
</g>
<g>
	<circle style="fill:#008EBD;" cx="199.5" cy="88" r="15"/>
	<path style="fill:#FFFFFF;" d="M199.5,74c7.732,0,14,6.268,14,14s-6.268,14-14,14s-14-6.268-14-14S191.768,74,199.5,74 M199.5,72
		c-8.822,0-16,7.178-16,16s7.178,16,16,16s16-7.178,16-16S208.322,72,199.5,72L199.5,72z"/>
</g>
<path style="fill:#FFFFFF;" d="M192.328,89.637l3.726,3.718c0.508,0.508,1.381,0.561,1.939,0.108l9.31-7.446
	c0.308-0.245,0.5-0.594,0.543-0.982c0.042-0.388-0.069-0.768-0.313-1.071c-0.242-0.305-0.589-0.495-0.977-0.537
	c-0.384-0.047-0.767,0.066-1.071,0.308l-8.288,6.632l-2.799-2.799c-0.285-0.285-0.659-0.428-1.034-0.428s-0.749,0.143-1.035,0.428
	c-0.275,0.276-0.428,0.645-0.428,1.036C191.9,88.993,192.053,89.361,192.328,89.637z"/>
<g>
	<path style="fill:#FFFFFF;" d="M173.785,66.373c0,4.486-3.967,6.092-8.312,6.092c-2.314,0-4.723-0.425-6.895-1.181l0.803-2.598
		c1.842,0.614,4.062,1.181,6.187,1.181c2.172,0,4.959-0.613,4.959-3.306c0-2.786-2.598-4.108-5.336-5.478
		c-3.022-1.464-6.234-3.07-6.234-6.706c0-2.409,1.417-4.297,4.014-6.092c-1.937-1.228-3.448-2.88-3.448-5.431
		c0-4.062,4.014-5.62,7.745-5.62c2.361,0,4.675,0.378,6.375,1.086l-0.614,2.739c-1.748-0.755-4.014-1.181-5.762-1.181
		c-2.267,0-4.486,0.803-4.486,3.022c0,2.314,2.361,3.448,4.912,4.723c3.164,1.511,6.659,3.211,6.659,7.226
		c0,2.031-0.944,3.778-4.25,5.525C172.132,61.697,173.785,63.492,173.785,66.373z M166.985,58.722
		c0.236,0.095,0.472,0.236,0.708,0.331c1.794-1.086,3.353-2.125,3.353-4.014c0-2.503-2.456-3.731-5.006-5.053l-0.661-0.283
		c-1.511,1.086-3.211,2.456-3.211,4.345C162.168,56.313,164.482,57.447,166.985,58.722z"/>
</g>
</svg>
