<?xml version="1.0" encoding="UTF-8" standalone="no"?><!DOCTYPE svg PUBLIC "-//W3C//DTD SVG 1.1//EN" "http://www.w3.org/Graphics/SVG/1.1/DTD/svg11.dtd"><svg width="100%" height="100%" viewBox="0 0 263 91" version="1.1" xmlns="http://www.w3.org/2000/svg" xmlns:xlink="http://www.w3.org/1999/xlink" xml:space="preserve" xmlns:serif="http://www.serif.com/" style="fill-rule:evenodd;clip-rule:evenodd;stroke-linecap:round;stroke-linejoin:round;stroke-miterlimit:1.5;"><rect x="0" y="0" width="262.5" height="90.138" style="fill:#008ebd;"/><path d="M131.23,19.574c8.824,-0.011 15.996,7.143 16.007,15.967c0.011,8.823 -7.144,15.995 -15.967,16.006c-8.824,0.011 -15.996,-7.144 -16.007,-15.967c-0.011,-8.823 7.144,-15.996 15.967,-16.006Z" style="fill:none;stroke:#fff;stroke-width:1.5px;"/><g><path d="M130.235,26.134c2.351,-0.556 4.71,0.902 5.265,3.253c0.555,2.351 -0.903,4.71 -3.253,5.265c-2.351,0.555 -4.71,-0.903 -5.265,-3.253c-0.556,-2.351 0.902,-4.71 3.253,-5.265Z" style="fill:#fff;"/><path d="M138.494,38.811c-0.083,-1.747 -1.16,-3.228 -2.654,-3.824c-1.24,1.052 -2.844,1.689 -4.598,1.689c-1.744,0 -3.34,-0.63 -4.578,-1.671c-0.07,0.028 -0.14,0.054 -0.208,0.085c-0.027,0.013 -0.052,0.025 -0.079,0.038c-0.431,0.215 -0.822,0.505 -1.158,0.854c-0.02,0.021 -0.039,0.043 -0.059,0.064c-0.672,0.729 -1.102,1.7 -1.153,2.772c-0.003,0.071 -0.003,0.143 -0.003,0.216l0,4.498c0,0.092 0.086,0.071 0.174,0.071l14.192,0c0.089,0 0.125,0.021 0.125,-0.071l0,-4.498c0.001,-0.073 0.002,-0.151 -0.001,-0.223Z" style="fill:#fff;fill-rule:nonzero;"/></g><g><path d="M146.789,39.385c4.168,-0.005 7.557,3.375 7.562,7.544c0.006,4.169 -3.375,7.558 -7.544,7.563c-4.168,0.005 -7.557,-3.375 -7.562,-7.544c-0.006,-4.169 3.375,-7.558 7.544,-7.563Z" style="fill:#008ebd;stroke:#fff;stroke-width:1.5px;"/><path id="Forward--small-" serif:id="Forward (small)" d="M151.124,46.938l-3.845,-3.776l0,2.231l-4.807,0l0,3.09l4.807,0l0,2.232l3.845,-3.777Z" style="fill:#fff;fill-rule:nonzero;"/></g><g><rect x="95.699" y="58.182" width="71.102" height="12.382" style="fill:none;stroke:#fff;stroke-width:1.5px;"/><g><rect x="113.856" y="63.998" width="0.75" height="0.75" style="fill:none;stroke:#fff;stroke-width:1.5px;"/><rect x="116.856" y="63.998" width="0.75" height="0.75" style="fill:none;stroke:#fff;stroke-width:1.5px;"/><rect x="119.856" y="63.998" width="0.75" height="0.75" style="fill:none;stroke:#fff;stroke-width:1.5px;"/><rect x="122.856" y="63.998" width="0.75" height="0.75" style="fill:none;stroke:#fff;stroke-width:1.5px;"/><rect x="125.856" y="63.998" width="0.75" height="0.75" style="fill:none;stroke:#fff;stroke-width:1.5px;"/><rect x="110.856" y="63.998" width="0.75" height="0.75" style="fill:none;stroke:#fff;stroke-width:1.5px;"/></g></g><g><path d="M101.095,60.633c1.015,-0.24 2.033,0.39 2.273,1.404c0.24,1.015 -0.39,2.034 -1.405,2.274c-1.015,0.239 -2.033,-0.39 -2.273,-1.405c-0.24,-1.015 0.39,-2.034 1.405,-2.273Z" style="fill:#fff;"/><path d="M104.66,66.106c-0.035,-0.754 -0.5,-1.394 -1.145,-1.651c-0.536,0.454 -1.228,0.729 -1.986,0.729c-0.753,0 -1.442,-0.272 -1.976,-0.721c-0.03,0.012 -0.061,0.023 -0.09,0.037c-0.011,0.005 -0.022,0.011 -0.034,0.016c-0.186,0.093 -0.355,0.218 -0.5,0.369c-0.008,0.009 -0.017,0.018 -0.025,0.027c-0.29,0.315 -0.476,0.734 -0.498,1.197c-0.002,0.031 -0.001,0.062 -0.001,0.093l0,1.942c0,0.04 0.037,0.031 0.075,0.031l6.127,0c0.038,0 0.054,0.009 0.054,-0.031l0,-1.942c0,-0.031 0.001,-0.065 -0.001,-0.096Z" style="fill:#fff;fill-rule:nonzero;"/></g></svg>