<?xml version="1.0" encoding="utf-8"?>
<!-- Generator: Adobe Illustrator 22.1.0, SVG Export Plug-In . SVG Version: 6.00 Build 0)  -->
<svg version="1.1" id="Ebene_1" xmlns="http://www.w3.org/2000/svg" xmlns:xlink="http://www.w3.org/1999/xlink" x="0px" y="0px"
	 viewBox="0 0 350 120" style="enable-background:new 0 0 350 120;" xml:space="preserve">
<style type="text/css">
	.st0{fill:#008EBD;}
</style>
<g>
	<path class="st0" d="M0,0v120h350V0H0z M213,96c0,1.1-0.9,2-2,2h-72c-1.1,0-2-0.9-2-2V24c0-1.1,0.9-2,2-2h72c1.1,0,2,0.9,2,2V96z"
		/>
	<path class="st0" d="M139,96h72V24h-72V96z M189,37.8c3.9,0,7,3.1,7,7s-3.1,7-7,7c-3.9,0-7-3.1-7-7S185.1,37.8,189,37.8z
		 M142.8,83.6L161,59.2c0.1-0.1,0.2-0.2,0.4-0.2c0.2,0,0.3,0.1,0.4,0.2l15.4,18.9l12-10.6c0.2-0.2,0.5-0.2,0.7,0l17.3,17.9v5.9
		h-64.4V83.6z"/>
</g>
</svg>
