<?xml version="1.0" encoding="utf-8"?>
<!-- Generator: Adobe Illustrator 22.1.0, SVG Export Plug-In . SVG Version: 6.00 Build 0)  -->
<svg version="1.1" id="Ebene_1" xmlns="http://www.w3.org/2000/svg" xmlns:xlink="http://www.w3.org/1999/xlink" x="0px" y="0px"
	 viewBox="0 0 350 120" style="enable-background:new 0 0 350 120;" xml:space="preserve">
<style type="text/css">
	.st0{fill:#008EBD;}
</style>
<g>
	<circle class="st0" cx="175" cy="105" r="3.1"/>
	<path class="st0" d="M139,87h72V15h-72V87z M189,28.8c3.9,0,7,3.1,7,7s-3.1,7-7,7c-3.9,0-7-3.1-7-7S185.1,28.8,189,28.8z
		 M142.8,74.6L161,50.2c0.1-0.1,0.2-0.2,0.4-0.2c0.2,0,0.3,0.1,0.4,0.2l15.4,18.9l12-10.6c0.2-0.2,0.5-0.2,0.7,0l17.3,17.9v5.9
		h-64.4V74.6z"/>
	<path class="st0" d="M0,0v120h350V0H0z M31.8,62.1H19.3c-0.3,0-0.5,0.4-0.3,0.7l1.6,1.6c0.8,0.8,0.8,2.2,0,3c-0.8,0.8-2.2,0.8-3,0
		l-6.1-6.1c-0.7-0.7-0.7-1.8,0-2.5l6.1-6.1c0.8-0.8,2.2-0.8,3,0c0.8,0.8,0.8,2.2,0,3l-1.6,1.6c-0.2,0.2-0.1,0.7,0.3,0.7h12.4
		c1.2,0,2.1,1,2.1,2.1C33.9,61.2,32.9,62.1,31.8,62.1z M160,109.9c-2.7,0-4.9-2.2-4.9-4.9s2.2-4.9,4.9-4.9s4.9,2.2,4.9,4.9
		S162.7,109.9,160,109.9z M175,109.9c-2.7,0-4.9-2.2-4.9-4.9s2.2-4.9,4.9-4.9s4.9,2.2,4.9,4.9S177.7,109.9,175,109.9z M190,109.9
		c-2.7,0-4.9-2.2-4.9-4.9s2.2-4.9,4.9-4.9s4.9,2.2,4.9,4.9S192.7,109.9,190,109.9z M213,87c0,1.1-0.9,2-2,2h-72c-1.1,0-2-0.9-2-2V15
		c0-1.1,0.9-2,2-2h72c1.1,0,2,0.9,2,2V87z M338.5,61.2l-6.1,6.1c-0.8,0.8-2.2,0.8-3,0c-0.8-0.8-0.8-2.2,0-3l1.6-1.6
		c0.2-0.2,0.1-0.7-0.3-0.7h-12.4c-1.2,0-2.1-1-2.1-2.1c0-1.2,1-2.1,2.1-2.1h12.4c0.3,0,0.5-0.4,0.3-0.7l-1.6-1.6
		c-0.8-0.8-0.8-2.2,0-3c0.8-0.8,2.2-0.8,3,0l6.1,6.1C339.2,59.4,339.2,60.6,338.5,61.2z"/>
	<circle class="st0" cx="190" cy="105" r="3.1"/>
</g>
</svg>
