<?xml version="1.0" encoding="UTF-8" standalone="no"?><!DOCTYPE svg PUBLIC "-//W3C//DTD SVG 1.1//EN" "http://www.w3.org/Graphics/SVG/1.1/DTD/svg11.dtd"><svg width="100%" height="100%" viewBox="0 0 350 120" version="1.1" xmlns="http://www.w3.org/2000/svg" xmlns:xlink="http://www.w3.org/1999/xlink" xml:space="preserve" xmlns:serif="http://www.serif.com/" style="fill-rule:evenodd;clip-rule:evenodd;stroke-linecap:round;stroke-linejoin:round;stroke-miterlimit:1.5;"><g><rect x="0" y="0" width="350" height="120" style="fill:#008ebd;"/><path d="M222,92.5l-2,2l2,0l0,-2Z" style="fill:#fff;stroke:#fff;stroke-width:2px;"/><path d="M222,87.5l-7,7l7,-7Z" style="fill:#fff;stroke:#fff;stroke-width:2px;"/><path d="M148,98.5l-24,0l0,-71l16,0" style="fill:none;stroke:#fff;stroke-width:2px;"/><path d="M148,98.5l78,0l0,-71l-78,0" style="fill:none;stroke:#fff;stroke-width:2px;"/><path d="M140,51.5c2.068,0 3.747,-1.163 3.747,-2.594l0,-24.812c0,-1.431 -1.679,-2.594 -3.747,-2.594" style="fill:none;stroke:#fff;stroke-width:2px;"/><path d="M147.747,21.5c-2.068,0 -3.747,1.163 -3.747,2.594l0,24.812c0,1.431 1.679,2.594 3.747,2.594" style="fill:none;stroke:#fff;stroke-width:2px;"/><rect x="134" y="45.5" width="1" height="1" style="fill:none;stroke:#fff;stroke-width:2px;"/><rect x="138" y="45.5" width="1" height="1" style="fill:none;stroke:#fff;stroke-width:2px;"/><rect x="130" y="45.5" width="1" height="1" style="fill:none;stroke:#fff;stroke-width:2px;"/></g></svg>