<?xml version="1.0" encoding="UTF-8" standalone="no"?><!DOCTYPE svg PUBLIC "-//W3C//DTD SVG 1.1//EN" "http://www.w3.org/Graphics/SVG/1.1/DTD/svg11.dtd"><svg width="100%" height="100%" viewBox="0 0 350 120" version="1.1" xmlns="http://www.w3.org/2000/svg" xmlns:xlink="http://www.w3.org/1999/xlink" xml:space="preserve" xmlns:serif="http://www.serif.com/" style="fill-rule:evenodd;clip-rule:evenodd;stroke-linecap:round;stroke-linejoin:round;stroke-miterlimit:1.5;"><g><rect x="0" y="0" width="350" height="120" style="fill:#008ebd;"/><path d="M140.126,72l-16,0l0,-24l16,0" style="fill:none;stroke:#fff;stroke-width:2px;"/><path d="M147.874,48l78,0l0,24l-77.859,0" style="fill:none;stroke:#fff;stroke-width:2px;"/><path d="M140.126,78c2.069,0 3.748,-1.163 3.748,-2.594l0,-30.812c0,-1.431 -1.679,-2.594 -3.748,-2.594" style="fill:none;stroke:#fff;stroke-width:2px;"/><path d="M147.874,42c-2.069,0 -3.748,1.163 -3.748,2.594l0,30.812c0,1.431 1.679,2.594 3.748,2.594" style="fill:none;stroke:#fff;stroke-width:2px;"/><rect x="134.126" y="66" width="1" height="1" style="fill:none;stroke:#fff;stroke-width:2px;"/><rect x="138.126" y="66" width="1" height="1" style="fill:none;stroke:#fff;stroke-width:2px;"/><rect x="130.126" y="66" width="1" height="1" style="fill:none;stroke:#fff;stroke-width:2px;"/></g></svg>