<?xml version="1.0" encoding="UTF-8" standalone="no"?><!DOCTYPE svg PUBLIC "-//W3C//DTD SVG 1.1//EN" "http://www.w3.org/Graphics/SVG/1.1/DTD/svg11.dtd"><svg width="100%" height="100%" viewBox="0 0 350 120" version="1.1" xmlns="http://www.w3.org/2000/svg" xmlns:xlink="http://www.w3.org/1999/xlink" xml:space="preserve" xmlns:serif="http://www.serif.com/" style="fill-rule:evenodd;clip-rule:evenodd;stroke-linecap:round;stroke-linejoin:round;stroke-miterlimit:1.5;"><g><rect x="0" y="0" width="350" height="120" style="fill:#008ebd;"/><path d="M234.748,66l-17.496,0c-0.691,0 -1.252,0.561 -1.252,1.252l0,10.296c0,0.691 0.561,1.252 1.252,1.252l17.496,0c0.691,0 1.252,-0.561 1.252,-1.252l0,-10.296c0,-0.691 -0.561,-1.252 -1.252,-1.252Z" style="fill:none;stroke:#fff;stroke-width:2px;"/><path d="M216.4,66.4l9.6,8l9.6,-8" style="fill:none;stroke:#fff;stroke-width:2px;"/><path d="M140,72l-16,0l0,-24l16,0" style="fill:none;stroke:#fff;stroke-width:2px;"/><path d="M148,48l78,0l0,8c-8.831,0 -16,7.169 -16,16l-61.858,0" style="fill:none;stroke:#fff;stroke-width:2px;"/><circle cx="226" cy="72" r="16" style="fill:none;stroke:#fff;stroke-width:2px;"/><path d="M140,78c2.068,0 3.747,-1.163 3.747,-2.594l0,-30.812c0,-1.431 -1.679,-2.594 -3.747,-2.594" style="fill:none;stroke:#fff;stroke-width:2px;"/><path d="M147.747,42c-2.068,0 -3.747,1.163 -3.747,2.594l0,30.812c0,1.431 1.679,2.594 3.747,2.594" style="fill:none;stroke:#fff;stroke-width:2px;"/><rect x="134" y="66" width="1" height="1" style="fill:none;stroke:#fff;stroke-width:2px;"/><rect x="138" y="66" width="1" height="1" style="fill:none;stroke:#fff;stroke-width:2px;"/><rect x="130" y="66" width="1" height="1" style="fill:none;stroke:#fff;stroke-width:2px;"/></g></svg>