<?xml version="1.0" encoding="UTF-8" standalone="no"?><!DOCTYPE svg PUBLIC "-//W3C//DTD SVG 1.1//EN" "http://www.w3.org/Graphics/SVG/1.1/DTD/svg11.dtd"><svg width="100%" height="100%" viewBox="0 0 350 120" version="1.1" xmlns="http://www.w3.org/2000/svg" xmlns:xlink="http://www.w3.org/1999/xlink" xml:space="preserve" xmlns:serif="http://www.serif.com/" style="fill-rule:evenodd;clip-rule:evenodd;stroke-linecap:round;stroke-linejoin:round;stroke-miterlimit:5;"><rect x="0" y="0" width="350" height="120.184" style="fill:#008ebd;"/><g><path d="M189.536,53.482l-21.106,21.106l2.121,2.122l21.106,-21.107l-2.121,-2.121Z" style="fill:#fff;"/><path d="M185.293,49.239l-21.106,21.107l2.121,2.121l21.107,-21.106l-2.122,-2.122Z" style="fill:#fff;"/><path d="M193.779,57.725l-21.107,21.106l2.122,2.121l21.106,-21.106l-2.121,-2.121Z" style="fill:#fff;"/><path d="M198.021,61.967l-21.106,21.107l2.121,2.121l21.107,-21.106l-2.122,-2.122Z" style="fill:#fff;"/><path d="M202.264,66.21l-21.106,21.106l2.121,2.122l21.106,-21.107l-2.121,-2.121Z" style="fill:#fff;"/><path d="M192.352,80.93l-19.799,-19.799l-2.121,2.122l19.799,19.799l2.121,-2.122Z" style="fill:#008ebd;"/></g><g><path d="M161.79,45.949c-2.617,4.088 -9.317,4.448 -16.022,-0.127c-5.7,-5.045 -7.635,-11.416 -5.049,-17.087c3.638,-6.883 13.608,-5.917 18.905,-0.716" style="fill:#3c5862;fill-opacity:0;stroke:#fff;stroke-width:2px;"/><path d="M172.647,31.332c2.022,0.028 4.058,0.85 5.61,2.453l29.81,30.796c3.153,3.257 3.117,8.51 -0.079,11.723l-17.372,17.465c-3.196,3.213 -8.351,3.177 -11.504,-0.08l-29.809,-30.796c-1.552,-1.603 -2.332,-3.689 -2.335,-5.8l2.502,-23.578l23.177,-2.183Z" style="fill:#3c5862;fill-opacity:0;stroke:#fff;stroke-width:2px;stroke-miterlimit:1.5;"/></g></svg>