<?xml version="1.0" encoding="utf-8"?>
<!-- Generator: Adobe Illustrator 22.1.0, SVG Export Plug-In . SVG Version: 6.00 Build 0)  -->
<svg version="1.1" id="Ebene_1" xmlns="http://www.w3.org/2000/svg" xmlns:xlink="http://www.w3.org/1999/xlink" x="0px" y="0px"
	 viewBox="0 0 350 120" style="enable-background:new 0 0 350 120;" xml:space="preserve">
<style type="text/css">
	.st0{fill:#008EBD;}
</style>
<g>
	<path class="st0" d="M0,0v120h85V0H0z M60.3,70.4l-9.9,9.9c-1.1,1.1-2.5,1.7-4,1.7s-3-0.6-4-1.7L25.3,63.2c-1-1-1.5-2.3-1.4-3.7
		l0.4-5.5c-1.2-0.5-2.3-1.3-3.2-2.2c-1.7-1.7-2.7-3.8-3-6c-0.2-2.3,0.5-4.3,1.9-5.8c3-3,8.3-2.5,11.9,1c0.4,0.4,0.4,1.2,0,1.6
		c-0.4,0.4-1.2,0.4-1.6,0c-2.7-2.7-6.5-3.1-8.6-1c-1,1-1.4,2.4-1.3,4c0.2,1.7,1,3.3,2.3,4.6c0.5,0.5,1.1,1,1.8,1.4l0.3-4.4
		c0.1-1.3,1.2-2.4,2.5-2.5l12.3-0.8c0.1,0,0.2,0,0.3,0c1.3,0,2.5,0.5,3.4,1.4l17.1,17.1c1.1,1.1,1.7,2.5,1.7,4
		C62,67.9,61.4,69.3,60.3,70.4z"/>
	<path class="st0" d="M41.6,46.9c-0.5-0.5-1.1-0.7-1.8-0.7c-0.1,0-0.1,0-0.2,0L27.3,47c-0.2,0-0.4,0.2-0.4,0.4l-0.3,5.1
		c0.2,0,0.4,0.1,0.6,0.1c1.6,0.2,3-0.3,4-1.3c0.4-0.4,1.2-0.4,1.6,0c0.4,0.4,0.4,1.2,0,1.6c-1.3,1.3-3,2-5,2c-0.3,0-0.6,0-0.8,0
		c-0.2,0-0.4,0-0.6-0.1l-0.3,5c0,0.7,0.2,1.4,0.7,1.9l17.1,17.1c0.6,0.6,1.5,1,2.4,1s1.8-0.4,2.4-1l9.9-9.9c0.6-0.6,1-1.5,1-2.4
		c0-0.9-0.4-1.8-1-2.4L41.6,46.9z"/>
</g>
<g>
	<path class="st0" d="M132.5,46.9c-0.5-0.5-1.1-0.7-1.8-0.7c-0.1,0-0.1,0-0.2,0L118.2,47c-0.2,0-0.4,0.2-0.4,0.4l-0.3,5.1
		c0.2,0,0.4,0.1,0.6,0.1c1.6,0.2,3-0.3,4-1.3c0.4-0.4,1.2-0.4,1.6,0c0.4,0.4,0.4,1.2,0,1.6c-1.3,1.3-3,2-5,2c-0.3,0-0.6,0-0.8,0
		c-0.2,0-0.4,0-0.6-0.1l-0.3,5c0,0.7,0.2,1.4,0.7,1.9l17.1,17.1c0.6,0.6,1.5,1,2.4,1s1.8-0.4,2.4-1l9.9-9.9c0.6-0.6,1-1.5,1-2.4
		c0-0.9-0.4-1.8-1-2.4L132.5,46.9z"/>
	<path class="st0" d="M88.3,0v120h85V0H88.3z M151.2,70.4l-9.9,9.9c-1.1,1.1-2.5,1.7-4,1.7s-3-0.6-4-1.7l-17.1-17.1
		c-1-1-1.5-2.3-1.4-3.7l0.4-5.5c-1.2-0.5-2.3-1.3-3.2-2.2c-1.7-1.7-2.7-3.8-3-6c-0.2-2.3,0.5-4.3,1.9-5.8c3-3,8.3-2.5,11.9,1
		c0.4,0.4,0.4,1.2,0,1.6c-0.4,0.4-1.2,0.4-1.6,0c-2.7-2.7-6.5-3.1-8.6-1c-1,1-1.4,2.4-1.3,4c0.2,1.7,1,3.3,2.3,4.6
		c0.5,0.5,1.1,1,1.8,1.4l0.3-4.4c0.1-1.3,1.2-2.4,2.5-2.5l12.3-0.8c0.1,0,0.2,0,0.3,0c1.3,0,2.5,0.5,3.4,1.4l17.1,17.1
		c1.1,1.1,1.7,2.5,1.7,4C152.8,67.9,152.2,69.3,151.2,70.4z"/>
</g>
<g>
	<path class="st0" d="M220.8,46.9c-0.5-0.5-1.1-0.7-1.8-0.7c-0.1,0-0.1,0-0.2,0L206.5,47c-0.2,0-0.4,0.2-0.4,0.4l-0.3,5.1
		c0.2,0,0.4,0.1,0.6,0.1c1.6,0.2,3-0.3,4-1.3c0.4-0.4,1.2-0.4,1.6,0c0.4,0.4,0.4,1.2,0,1.6c-1.3,1.3-3,2-5,2c-0.3,0-0.6,0-0.8,0
		c-0.2,0-0.4,0-0.6-0.1l-0.3,5c0,0.7,0.2,1.4,0.7,1.9l17.1,17.1c0.6,0.6,1.5,1,2.4,1s1.8-0.4,2.4-1l9.9-9.9c0.6-0.6,1-1.5,1-2.4
		c0-0.9-0.4-1.8-1-2.4L220.8,46.9z"/>
	<path class="st0" d="M176.7,0v120h85V0H176.7z M239.5,70.4l-9.9,9.9c-1.1,1.1-2.5,1.7-4,1.7s-3-0.6-4-1.7l-17.1-17.1
		c-1-1-1.5-2.3-1.4-3.7l0.4-5.5c-1.2-0.5-2.3-1.3-3.2-2.2c-1.7-1.7-2.7-3.8-3-6c-0.2-2.3,0.5-4.3,1.9-5.8c3-3,8.3-2.5,11.9,1
		c0.4,0.4,0.4,1.2,0,1.6c-0.4,0.4-1.2,0.4-1.6,0c-2.7-2.7-6.5-3.1-8.6-1c-1,1-1.4,2.4-1.3,4c0.2,1.7,1,3.3,2.3,4.6
		c0.5,0.5,1.1,1,1.8,1.4l0.3-4.4c0.1-1.3,1.2-2.4,2.5-2.5l12.3-0.8c0.1,0,0.2,0,0.3,0c1.3,0,2.5,0.5,3.4,1.4l17.1,17.1
		c1.1,1.1,1.7,2.5,1.7,4C241.2,67.9,240.6,69.3,239.5,70.4z"/>
</g>
<g>
	<path class="st0" d="M265,0v120h85V0H265z M327.8,70.4l-9.9,9.9c-1.1,1.1-2.5,1.7-4,1.7s-3-0.6-4-1.7l-17.1-17.1
		c-1-1-1.5-2.3-1.4-3.7l0.4-5.5c-1.2-0.5-2.3-1.3-3.2-2.2c-1.7-1.7-2.7-3.8-3-6c-0.2-2.3,0.5-4.3,1.9-5.8c3-3,8.3-2.5,11.9,1
		c0.4,0.4,0.4,1.2,0,1.6c-0.4,0.4-1.2,0.4-1.6,0c-2.7-2.7-6.5-3.1-8.6-1c-1,1-1.4,2.4-1.3,4c0.2,1.7,1,3.3,2.3,4.6
		c0.5,0.5,1.1,1,1.8,1.4l0.3-4.4c0.1-1.3,1.2-2.4,2.5-2.5l12.3-0.8c0.1,0,0.2,0,0.3,0c1.3,0,2.5,0.5,3.4,1.4l17.1,17.1
		c1.1,1.1,1.7,2.5,1.7,4C329.5,67.9,328.9,69.3,327.8,70.4z"/>
	<path class="st0" d="M309.1,46.9c-0.5-0.5-1.1-0.7-1.8-0.7c-0.1,0-0.1,0-0.2,0L294.8,47c-0.2,0-0.4,0.2-0.4,0.4l-0.3,5.1
		c0.2,0,0.4,0.1,0.6,0.1c1.6,0.2,3-0.3,4-1.3c0.4-0.4,1.2-0.4,1.6,0c0.4,0.4,0.4,1.2,0,1.6c-1.3,1.3-3,2-5,2c-0.3,0-0.6,0-0.8,0
		c-0.2,0-0.4,0-0.6-0.1l-0.3,5c0,0.7,0.2,1.4,0.7,1.9l17.1,17.1c0.6,0.6,1.5,1,2.4,1s1.8-0.4,2.4-1l9.9-9.9c0.6-0.6,1-1.5,1-2.4
		c0-0.9-0.4-1.8-1-2.4L309.1,46.9z"/>
</g>
</svg>
