<?xml version="1.0" encoding="UTF-8" standalone="no"?><!DOCTYPE svg PUBLIC "-//W3C//DTD SVG 1.1//EN" "http://www.w3.org/Graphics/SVG/1.1/DTD/svg11.dtd"><svg width="100%" height="100%" viewBox="0 0 263 90" version="1.1" xmlns="http://www.w3.org/2000/svg" xmlns:xlink="http://www.w3.org/1999/xlink" xml:space="preserve" xmlns:serif="http://www.serif.com/" style="fill-rule:evenodd;clip-rule:evenodd;stroke-linecap:round;stroke-linejoin:round;stroke-miterlimit:5;"><rect x="0" y="0" width="262.5" height="90" style="fill:#008ebd;"/><path d="M166.878,42.875l-33.492,0l0,-33.493l33.492,0l0,33.493Zm-31.992,-1.5l30.492,0l0,-30.493l-30.492,0l0,30.493Z" style="fill:#fff;"/><path d="M129.114,42.875l-33.492,0l0,-33.493l33.492,0l0,33.493Zm-31.992,-31.993l0,30.493l30.492,0l0,-30.493l-30.492,0Z" style="fill:#fff;"/><path d="M166.878,80.657l-33.492,0l0,-33.493l33.492,0l0,33.493Zm-31.992,-31.993l0,30.493l30.492,0l0,-30.493l-30.492,0Z" style="fill:#fff;"/><path d="M129.114,80.657l-33.492,0l0,-33.493l33.492,0l0,33.493Zm-31.992,-31.993l0,30.493l30.492,0l0,-30.493l-30.492,0Z" style="fill:#fff;"/><g><path d="M109.499,23.077c-0.568,0.888 -2.023,0.966 -3.479,-0.027c-1.237,-1.096 -1.658,-2.479 -1.096,-3.711c0.79,-1.495 2.955,-1.285 4.105,-0.156" style="fill:#3c5862;fill-opacity:0;stroke:#fff;stroke-width:1.5px;"/><path d="M111.857,19.903c0.439,0.006 0.882,0.185 1.219,0.533l6.473,6.687c0.685,0.707 0.677,1.848 -0.017,2.546l-3.773,3.792c-0.694,0.698 -1.813,0.69 -2.498,-0.017l-6.473,-6.687c-0.337,-0.348 -0.506,-0.802 -0.507,-1.26l0.543,-5.12l5.033,-0.474Z" style="fill:#3c5862;fill-opacity:0;stroke:#fff;stroke-width:1.5px;stroke-miterlimit:1.5;"/></g><g><path d="M109.499,60.859c-0.568,0.888 -2.023,0.966 -3.479,-0.027c-1.237,-1.096 -1.658,-2.479 -1.096,-3.711c0.79,-1.494 2.955,-1.285 4.105,-0.155" style="fill:#3c5862;fill-opacity:0;stroke:#fff;stroke-width:1.5px;"/><path d="M111.857,57.685c0.439,0.006 0.882,0.185 1.219,0.533l6.473,6.687c0.685,0.708 0.677,1.848 -0.017,2.546l-3.773,3.793c-0.694,0.697 -1.813,0.69 -2.498,-0.018l-6.473,-6.687c-0.337,-0.348 -0.506,-0.801 -0.507,-1.26l0.543,-5.12l5.033,-0.474Z" style="fill:#3c5862;fill-opacity:0;stroke:#fff;stroke-width:1.5px;stroke-miterlimit:1.5;"/></g><g><path d="M147.263,60.859c-0.568,0.888 -2.023,0.966 -3.479,-0.027c-1.238,-1.096 -1.658,-2.479 -1.097,-3.711c0.791,-1.494 2.956,-1.285 4.106,-0.155" style="fill:#3c5862;fill-opacity:0;stroke:#fff;stroke-width:1.5px;"/><path d="M149.621,57.685c0.439,0.006 0.881,0.185 1.218,0.533l6.473,6.687c0.685,0.708 0.677,1.848 -0.017,2.546l-3.772,3.793c-0.694,0.697 -1.814,0.69 -2.498,-0.018l-6.474,-6.687c-0.337,-0.348 -0.506,-0.801 -0.507,-1.26l0.544,-5.12l5.033,-0.474Z" style="fill:#3c5862;fill-opacity:0;stroke:#fff;stroke-width:1.5px;stroke-miterlimit:1.5;"/></g><g><path d="M147.263,23.077c-0.568,0.888 -2.023,0.966 -3.479,-0.027c-1.238,-1.096 -1.658,-2.479 -1.097,-3.711c0.791,-1.495 2.956,-1.285 4.106,-0.156" style="fill:#3c5862;fill-opacity:0;stroke:#fff;stroke-width:1.5px;"/><path d="M149.621,19.903c0.439,0.006 0.881,0.185 1.218,0.533l6.473,6.687c0.685,0.707 0.677,1.848 -0.017,2.546l-3.772,3.792c-0.694,0.698 -1.814,0.69 -2.498,-0.017l-6.474,-6.687c-0.337,-0.348 -0.506,-0.802 -0.507,-1.26l0.544,-5.12l5.033,-0.474Z" style="fill:#3c5862;fill-opacity:0;stroke:#fff;stroke-width:1.5px;stroke-miterlimit:1.5;"/></g></svg>