<?xml version="1.0" encoding="UTF-8" standalone="no"?><!DOCTYPE svg PUBLIC "-//W3C//DTD SVG 1.1//EN" "http://www.w3.org/Graphics/SVG/1.1/DTD/svg11.dtd"><svg width="100%" height="100%" viewBox="0 0 350 120" version="1.1" xmlns="http://www.w3.org/2000/svg" xmlns:xlink="http://www.w3.org/1999/xlink" xml:space="preserve" xmlns:serif="http://www.serif.com/" style="fill-rule:evenodd;clip-rule:evenodd;stroke-linejoin:round;stroke-miterlimit:1.41421;"><g><path d="M350,0l0,120l-350,0l0,-120l350,0Zm-193,109c1.003,-0.03 1.597,-0.54 1.879,-1.316c0.073,-0.201 0.11,-0.306 0.121,-0.684l0,-18c-0.023,-0.805 -0.496,-1.53 -1.208,-1.836c-0.196,-0.085 -0.299,-0.128 -0.676,-0.161c-6.036,-0.175 -12.077,-0.003 -18.116,-0.003c-1.003,0.029 -1.597,0.54 -1.879,1.316c-0.073,0.201 -0.11,0.306 -0.121,0.684l0,18c0.029,1.003 0.54,1.597 1.316,1.879c0.201,0.073 0.306,0.11 0.684,0.121l18,0Zm27,0c1.003,-0.03 1.597,-0.54 1.879,-1.316c0.073,-0.201 0.11,-0.306 0.121,-0.684l0,-18c-0.023,-0.805 -0.496,-1.53 -1.208,-1.836c-0.196,-0.085 -0.299,-0.128 -0.676,-0.161c-6.036,-0.175 -12.077,-0.003 -18.116,-0.003c-1.003,0.029 -1.597,0.54 -1.879,1.316c-0.073,0.201 -0.11,0.306 -0.121,0.684l0,18c0.029,1.003 0.54,1.597 1.316,1.879c0.201,0.073 0.306,0.11 0.684,0.121l18,0Zm27,0c1.003,-0.03 1.597,-0.54 1.879,-1.316c0.073,-0.201 0.11,-0.306 0.121,-0.684l0,-18c-0.023,-0.805 -0.496,-1.53 -1.208,-1.836c-0.196,-0.085 -0.299,-0.128 -0.676,-0.161c-6.036,-0.175 -12.077,-0.003 -18.116,-0.003c-1.003,0.029 -1.597,0.54 -1.879,1.316c-0.073,0.201 -0.11,0.306 -0.121,0.684l0,18c0.029,1.003 0.54,1.597 1.316,1.879c0.201,0.073 0.306,0.11 0.684,0.121l18,0Zm-54,-20l0,18l-18,0l0,-18l18,0Zm27,0l0,18l-18,0l0,-18l18,0Zm27,0l0,18l-18,0l0,-18l18,0Zm-54.95,16.825l0,-1.475l-4.325,-4.475c-0.05,-0.05 -0.125,-0.05 -0.175,0l-3,2.65l-3.85,-4.725c-0.025,-0.025 -0.05,-0.05 -0.1,-0.05c-0.05,0 -0.075,0.025 -0.1,0.05l-4.55,6.1l0,1.925l16.1,0Zm27,0l0,-1.475l-4.325,-4.475c-0.05,-0.05 -0.125,-0.05 -0.175,0l-3,2.65l-3.85,-4.725c-0.025,-0.025 -0.05,-0.05 -0.1,-0.05c-0.05,0 -0.075,0.025 -0.1,0.05l-4.55,6.1l0,1.925l16.1,0Zm27,0l0,-1.475l-4.325,-4.475c-0.05,-0.05 -0.125,-0.05 -0.175,0l-3,2.65l-3.85,-4.725c-0.025,-0.025 -0.05,-0.05 -0.1,-0.05c-0.05,0 -0.075,0.025 -0.1,0.05l-4.55,6.1l0,1.925l16.1,0Zm-58.55,-13.375c0.975,0 1.75,0.775 1.75,1.75c0,0.975 -0.775,1.75 -1.75,1.75c-0.975,0 -1.75,-0.775 -1.75,-1.75c0,-0.975 0.775,-1.75 1.75,-1.75Zm27,0c0.975,0 1.75,0.775 1.75,1.75c0,0.975 -0.775,1.75 -1.75,1.75c-0.975,0 -1.75,-0.775 -1.75,-1.75c0,-0.975 0.775,-1.75 1.75,-1.75Zm27,0c0.975,0 1.75,0.775 1.75,1.75c0,0.975 -0.775,1.75 -1.75,1.75c-0.975,0 -1.75,-0.775 -1.75,-1.75c0,-0.975 0.775,-1.75 1.75,-1.75Zm5.5,-9.45c1.115,-0.063 1.939,-0.921 2,-2l0,-68c-0.057,-1.023 -0.79,-1.82 -1.776,-1.987c-0.075,-0.005 -0.149,-0.009 -0.224,-0.013l-72,0c-1.114,0.063 -1.939,0.921 -2,2l0,68c0.063,1.114 0.921,1.939 2,2l72,0Zm0,-70l0,68l-72,0l0,-68l72,0Zm-3.8,63.561l0,-5.572l-17.3,-16.906c-0.2,-0.189 -0.5,-0.189 -0.7,0l-12,10.011l-15.4,-17.85c-0.1,-0.094 -0.2,-0.188 -0.4,-0.188c-0.2,0 -0.3,0.094 -0.4,0.188l-18.2,23.045l0,7.272l64.4,0Zm-18.2,-50.528c3.9,0 7,2.928 7,6.611c0,3.684 -3.1,6.612 -7,6.612c-3.9,0 -7,-2.928 -7,-6.612c0,-3.683 3.1,-6.611 7,-6.611Z" style="fill:#008ebd;"/></g></svg>