<?xml version="1.0" encoding="UTF-8" standalone="no"?><!DOCTYPE svg PUBLIC "-//W3C//DTD SVG 1.1//EN" "http://www.w3.org/Graphics/SVG/1.1/DTD/svg11.dtd"><svg width="100%" height="100%" viewBox="0 0 263 90" version="1.1" xmlns="http://www.w3.org/2000/svg" xmlns:xlink="http://www.w3.org/1999/xlink" xml:space="preserve" xmlns:serif="http://www.serif.com/" style="fill-rule:evenodd;clip-rule:evenodd;stroke-linecap:round;stroke-linejoin:round;stroke-miterlimit:1.5;"><rect x="0" y="0" width="262.5" height="90" style="fill:#008ebd;"/><path d="M161.846,28.073l-18.691,0l0,-18.691l18.691,0l0,18.691Zm-17.191,-1.5l15.691,0l0,-15.691l-15.691,0l0,15.691Z" style="fill:#fff;"/><path d="M140.8,28.073l-18.691,0l0,-18.691l18.691,0l0,18.691Zm-17.191,-1.5l15.691,0l0,-15.691l-15.691,0l0,15.691Z" style="fill:#fff;"/><path d="M119.726,28.073l-18.691,0l0,-18.691l18.691,0l0,18.691Zm-17.191,-1.5l15.691,0l0,-15.691l-15.691,0l0,15.691Z" style="fill:#fff;"/><path d="M143.172,69.158l1.083,0l0,1.082l-1.083,-1.082l0,1.082l-0.017,0l0,-1.082l0.017,0l-0.017,-0.018l0.017,0l0,0.018Zm2.2,1.082l-1.1,0l0,-1.1l1.1,0l0,1.1Zm2.2,0l-1.1,0l0,-1.1l1.1,0l0,1.1Zm2.2,0l-1.1,0l0,-1.1l1.1,0l0,1.1Zm2.2,0l-1.1,0l0,-1.1l1.1,0l0,1.1Zm2.2,0l-1.1,0l0,-1.1l1.1,0l0,1.1Zm2.2,0l-1.1,0l0,-1.1l1.1,0l0,1.1Zm2.2,0l-1.1,0l0,-1.1l1.1,0l0,1.1Zm3.274,-0.027l-1.074,0l0,0.027l-1.1,0l0,-1.1l1.074,0l0,-0.027l1.1,0l0,1.1Zm-17.591,-2.155l-1.1,0l0,-1.1l1.1,0l0,1.1Zm17.591,-0.045l-1.1,0l0,-1.1l1.1,0l0,1.1Zm-17.591,-2.155l-1.1,0l0,-1.1l1.1,0l0,1.1Zm17.591,-0.045l-1.1,0l0,-1.1l1.1,0l0,1.1Zm-17.591,-2.155l-1.1,0l0,-1.1l1.1,0l0,1.1Zm17.591,-0.045l-1.1,0l0,-1.1l1.1,0l0,1.1Zm-17.591,-2.155l-1.1,0l0,-1.1l1.1,0l0,1.1Zm17.591,-0.045l-1.1,0l0,-1.1l1.1,0l0,1.1Zm-17.591,-2.155l-1.1,0l0,-1.1l1.1,0l0,1.1Zm17.591,-0.045l-1.1,0l0,-1.1l1.1,0l0,1.1Zm-17.591,-2.155l-1.1,0l0,-1.1l1.1,0l0,1.1Zm17.591,-0.045l-1.1,0l0,-1.1l1.1,0l0,1.1Zm-17.591,-2.155l-1.1,0l0,-1.1l1.1,0l0,1.1Zm17.591,-0.045l-1.1,0l0,-1.1l1.1,0l0,1.1Zm-16.5,-2.164l-1.091,0l0,0.009l-1.1,0l0,-1.1l1.091,0l0,-0.009l1.1,0l0,1.1Zm2.2,0l-1.1,0l0,-1.1l1.1,0l0,1.1Zm2.2,0l-1.1,0l0,-1.1l1.1,0l0,1.1Zm2.2,0l-1.1,0l0,-1.1l1.1,0l0,1.1Zm2.2,0l-1.1,0l0,-1.1l1.1,0l0,1.1Zm2.2,0l-1.1,0l0,-1.1l1.1,0l0,1.1Zm2.2,0l-1.1,0l0,-1.1l1.1,0l0,1.1Zm3.3,-0.036l-1.1,0l0,0.036l-1.1,0l0,-1.1l2.2,0l0,1.064Z" style="fill:#fff;"/><path d="M123.209,69.14l0.018,0l0,1.1l-1.1,0l0,-1.082l-0.018,0l0,-1.1l1.1,0l0,1.082Zm2.218,1.1l-1.1,0l0,-1.1l1.1,0l0,1.1Zm2.2,0l-1.1,0l0,-1.1l1.1,0l0,1.1Zm2.2,0l-1.1,0l0,-1.1l1.1,0l0,1.1Zm2.2,0l-1.1,0l0,-1.1l1.1,0l0,1.1Zm2.2,0l-1.1,0l0,-1.1l1.1,0l0,1.1Zm2.2,0l-1.1,0l0,-1.1l1.1,0l0,1.1Zm2.2,0l-1.1,0l0,-1.1l1.1,0l0,1.1Zm2.173,0l-1.073,0l0,-0.027l1.073,0l0,0.027Zm-1.073,-0.027l-0.027,0.027l0,-0.027l0.027,0l0,-1.073l1.073,0l-1.073,1.073Zm1.073,-1.1l-1.1,0l0,-1.1l1.1,0l0,1.1Zm-17.591,-2.155l-1.1,0l0,-1.1l1.1,0l0,1.1Zm17.591,-0.045l-1.1,0l0,-1.1l1.1,0l0,1.1Zm-17.591,-2.155l-1.1,0l0,-1.1l1.1,0l0,1.1Zm17.591,-0.045l-1.1,0l0,-1.1l1.1,0l0,1.1Zm-17.591,-2.155l-1.1,0l0,-1.1l1.1,0l0,1.1Zm17.591,-0.045l-1.1,0l0,-1.1l1.1,0l0,1.1Zm-17.591,-2.155l-1.1,0l0,-1.1l1.1,0l0,1.1Zm17.591,-0.045l-1.1,0l0,-1.1l1.1,0l0,1.1Zm-17.591,-2.155l-1.1,0l0,-1.1l1.1,0l0,1.1Zm17.591,-0.045l-1.1,0l0,-1.1l1.1,0l0,1.1Zm-17.591,-2.155l-1.1,0l0,-1.1l1.1,0l0,1.1Zm17.591,-0.045l-1.1,0l0,-1.1l1.1,0l0,1.1Zm-17.591,-2.155l-1.1,0l0,-1.1l1.1,0l0,1.1Zm17.591,-1.145l0,0l0,1.1l-1.1,0l0,-2.164l1.1,0l0,1.064Zm-17.591,-1.055l-0.009,0l0,1.091l-1.091,0l1.091,-1.091l-1.091,0l0,-0.009l1.091,0l0,0.009l0.009,-0.009l0,0.009Zm2.191,1.091l-1.1,0l0,-1.1l1.1,0l0,1.1Zm2.2,0l-1.1,0l0,-1.1l1.1,0l0,1.1Zm2.2,0l-1.1,0l0,-1.1l1.1,0l0,1.1Zm2.2,0l-1.1,0l0,-1.1l1.1,0l0,1.1Zm2.2,0l-1.1,0l0,-1.1l1.1,0l0,1.1Zm2.2,0l-1.1,0l0,-1.1l1.1,0l0,1.1Zm2.2,0l-1.1,0l0,-1.1l1.1,0l0,1.1Z" style="fill:#fff;"/><path d="M140.8,49.158l-18.691,0l0,-18.691l18.691,0l0,18.691Zm-17.191,-17.191l0,15.691l15.691,0l0,-15.691l-15.691,0Z" style="fill:#fff;"/><path d="M119.726,49.158l-18.691,0l0,-18.691l18.691,0l0,18.691Zm-17.191,-17.191l0,15.691l15.691,0l0,-15.691l-15.691,0Z" style="fill:#fff;"/><path d="M101.989,70.257l-1.082,-1.082l0,1.082l-0.018,0l0,-1.082l1.1,0l0,1.082Zm1.118,0l-1.1,0l0,-1.1l1.1,0l0,1.1Zm2.2,0l-1.1,0l0,-1.1l1.1,0l0,1.1Zm2.2,0l-1.1,0l0,-1.1l1.1,0l0,1.1Zm2.2,0l-1.1,0l0,-1.1l1.1,0l0,1.1Zm2.2,0l-1.1,0l0,-1.1l1.1,0l0,1.1Zm2.2,0l-1.1,0l0,-1.1l1.1,0l0,1.1Zm2.2,0l-1.1,0l0,-1.1l1.1,0l0,1.1Zm3.273,-0.027l-1.073,0l0,0.027l-1.1,0l0,-1.1l1.073,0l0,-0.027l1.1,0l0,1.1Zm-17.591,-2.155l-1.1,0l0,-1.1l1.1,0l0,1.1Zm17.591,-0.045l-1.1,0l0,-1.1l1.1,0l0,1.1Zm-17.591,-2.155l-1.1,0l0,-1.1l1.1,0l0,1.1Zm17.591,-0.045l-1.1,0l0,-1.1l1.1,0l0,1.1Zm-17.591,-2.155l-1.1,0l0,-1.1l1.1,0l0,1.1Zm17.591,-0.045l-1.1,0l0,-1.1l1.1,0l0,1.1Zm-17.591,-2.155l-1.1,0l0,-1.1l1.1,0l0,1.1Zm17.591,-0.045l-1.1,0l0,-1.1l1.1,0l0,1.1Zm-17.591,-2.155l-1.1,0l0,-1.1l1.1,0l0,1.1Zm17.591,-0.045l-1.1,0l0,-1.1l1.1,0l0,1.1Zm-17.591,-2.155l-1.1,0l0,-1.1l1.1,0l0,1.1Zm17.591,-0.045l-1.1,0l0,-1.1l1.1,0l0,1.1Zm-17.591,-2.155l-1.1,0l0,-1.1l1.1,0l0,1.1Zm17.591,-0.045l-1.1,0l0,-1.1l1.1,0l0,1.1Zm-16.5,-2.164l-1.091,0l0,0.009l-1.1,0l0,-1.1l1.091,0l0,-0.009l1.1,0l0,1.1Zm2.2,0l-1.1,0l0,-1.1l1.1,0l0,1.1Zm2.2,0l-1.1,0l0,-1.1l1.1,0l0,1.1Zm2.2,0l-1.1,0l0,-1.1l1.1,0l0,1.1Zm2.2,0l-1.1,0l0,-1.1l1.1,0l0,1.1Zm2.2,0l-1.1,0l0,-1.1l1.1,0l0,1.1Zm2.2,0l-1.1,0l0,-1.1l1.1,0l0,1.1Zm2.2,-1.1l1.1,0l0,1.064l-1.1,0l0,0.036l-1.1,0l0,-1.1l1.1,0l0,0Zm-17.591,17.591l0.018,0l0,0.018l-0.018,-0.018l0,0Z" style="fill:#fff;"/><path d="M161.846,49.158l-18.691,0l0,-18.691l18.691,0l0,18.691Zm-17.191,-17.191l0,15.691l15.691,0l0,-15.691l-15.691,0Z" style="fill:#fff;"/><g><path d="M161.1,59.824c5.907,-0.008 10.71,4.654 10.717,10.403c0.007,5.749 -4.783,10.423 -10.691,10.43c-5.908,0.007 -10.71,-4.655 -10.717,-10.404c-0.007,-5.749 4.783,-10.422 10.691,-10.429Z" style="fill:#008ebd;stroke:#fff;stroke-width:1.13px;"/><path d="M167.447,71.824l-1.164,-0.653c0.118,-0.617 0.118,-1.249 0,-1.866l1.164,-0.654c0.133,-0.074 0.194,-0.228 0.15,-0.372c-0.303,-0.946 -0.819,-1.801 -1.494,-2.513c-0.104,-0.109 -0.273,-0.136 -0.404,-0.062l-1.164,0.654c-0.488,-0.409 -1.051,-0.725 -1.66,-0.932l0,-1.305c0,-0.149 -0.106,-0.279 -0.256,-0.311c-1.003,-0.218 -2.029,-0.208 -2.982,0c-0.151,0.031 -0.257,0.162 -0.257,0.311l0,1.307c-0.606,0.21 -1.169,0.526 -1.66,0.933l-1.161,-0.654c-0.133,-0.075 -0.3,-0.051 -0.404,0.061c-0.675,0.709 -1.191,1.565 -1.494,2.514c-0.046,0.143 0.017,0.297 0.15,0.372l1.164,0.654c-0.118,0.616 -0.118,1.248 0,1.865l-1.164,0.654c-0.133,0.074 -0.194,0.228 -0.15,0.372c0.303,0.946 0.819,1.801 1.494,2.514c0.104,0.109 0.273,0.135 0.404,0.061l1.164,-0.654c0.488,0.409 1.051,0.725 1.66,0.933l0,1.307c0,0.149 0.106,0.279 0.256,0.311c1.003,0.218 2.029,0.207 2.982,0c0.151,-0.032 0.257,-0.162 0.257,-0.311l0,-1.307c0.606,-0.21 1.169,-0.526 1.66,-0.933l1.164,0.654c0.133,0.074 0.3,0.05 0.404,-0.061c0.674,-0.71 1.19,-1.565 1.494,-2.514c0.04,-0.146 -0.02,-0.3 -0.153,-0.375Zm-6.319,0.54c-1.204,0 -2.184,-0.954 -2.184,-2.126c0,-1.172 0.98,-2.126 2.184,-2.126c1.204,0 2.185,0.954 2.185,2.126c-0.001,1.172 -0.981,2.126 -2.185,2.126Z" style="fill:#fff;fill-rule:nonzero;"/></g></svg>