<?xml version="1.0" encoding="UTF-8" standalone="no"?><!DOCTYPE svg PUBLIC "-//W3C//DTD SVG 1.1//EN" "http://www.w3.org/Graphics/SVG/1.1/DTD/svg11.dtd"><svg width="100%" height="100%" viewBox="0 0 263 90" version="1.1" xmlns="http://www.w3.org/2000/svg" xmlns:xlink="http://www.w3.org/1999/xlink" xml:space="preserve" xmlns:serif="http://www.serif.com/" style="fill-rule:evenodd;clip-rule:evenodd;stroke-linejoin:round;stroke-miterlimit:2;"><rect x="0" y="0" width="262.5" height="90" style="fill:#008ebd;"/><g id="layer101"><path d="M123.719,19.798c1.497,2.423 2.757,4.492 2.802,4.61c0.068,0.178 -0.045,0.201 -1.159,0.201l-1.238,0l-0.068,6.584c-0.045,3.618 -0.078,12.341 -0.078,19.387l0,12.802l-6.19,0l0,-38.773l-1.25,0c-0.686,0 -1.226,-0.047 -1.204,-0.094c0.079,-0.225 5.549,-9.114 5.605,-9.114c0.034,0 1.283,1.986 2.78,4.397Z" style="fill:#fff;fill-rule:nonzero;"/><path d="M114.411,29.977l0,3.24l-31.063,0l0,-6.481l15.532,0l15.531,0l0,3.241Z" style="fill:#fff;fill-rule:nonzero;"/><path d="M114.411,39.992l0,3.241l-23.972,0l0,-6.481l11.986,0l11.986,0l0,3.24Z" style="fill:#fff;fill-rule:nonzero;"/><path d="M114.411,50.008l0,3.24l-14.293,0l0,-6.481l7.146,0l7.147,0l0,3.241Z" style="fill:#fff;fill-rule:nonzero;"/><path d="M114.411,60.023l0,3.241l-7.991,0l0,-6.481l3.996,0l3.995,0l0,3.24Z" style="fill:#fff;fill-rule:nonzero;"/><path d="M138.781,70.202c-1.497,-2.423 -2.757,-4.492 -2.802,-4.61c-0.068,-0.178 0.045,-0.201 1.159,-0.201l1.238,0l0.068,-6.584c0.045,-3.618 0.078,-12.341 0.078,-19.387l0,-12.802l6.19,0l0,38.773l1.25,0c0.686,0 1.226,0.047 1.204,0.094c-0.079,0.225 -5.549,9.114 -5.605,9.114c-0.034,0 -1.283,-1.986 -2.78,-4.397Z" style="fill:#fff;fill-rule:nonzero;"/><path d="M148.089,60.131l0,-3.251l31.063,0l0,6.501l-15.532,0l-15.531,0l0,-3.25Z" style="fill:#fff;fill-rule:nonzero;"/><path d="M148.089,50.083l0,-3.251l23.972,0l0,6.502l-11.986,0l-11.986,0l0,-3.251Z" style="fill:#fff;fill-rule:nonzero;"/><path d="M148.089,40.035l0,-3.251l14.293,0l0,6.502l-7.146,0l-7.147,0l0,-3.251Z" style="fill:#fff;fill-rule:nonzero;"/><path d="M148.089,29.987l0,-3.251l7.991,0l0,6.502l-3.996,0l-3.995,0l0,-3.251Z" style="fill:#fff;fill-rule:nonzero;"/></g></svg>