<?xml version="1.0" encoding="UTF-8" standalone="no"?><!DOCTYPE svg PUBLIC "-//W3C//DTD SVG 1.1//EN" "http://www.w3.org/Graphics/SVG/1.1/DTD/svg11.dtd"><svg width="100%" height="100%" viewBox="0 0 350 120" version="1.1" xmlns="http://www.w3.org/2000/svg" xmlns:xlink="http://www.w3.org/1999/xlink" xml:space="preserve" xmlns:serif="http://www.serif.com/" style="fill-rule:evenodd;clip-rule:evenodd;stroke-linejoin:round;stroke-miterlimit:1.41421;"><g><path d="M213,81.7c-0.3,0 -0.6,-0.1 -0.9,-0.1c-0.4,0 -0.7,-0.1 -1.1,-0.1c-7.7,0 -14,6.3 -14,14c0,0.2 0,0.3 0,0.5c0,0.7 0.1,1.3 0.2,2c1.2,6.5 6.9,11.5 13.8,11.5c7.7,0 14,-6.3 14,-14c0,-7.1 -5.2,-12.9 -12,-13.8Zm-2.246,5.303c0.609,0.037 1.19,0.284 1.636,0.699c2.653,2.589 5.273,5.213 7.864,7.864c1.015,1.087 1.05,2.884 -0.045,4.057c-1.517,1.551 -3.051,3.086 -4.602,4.602c-1.131,1.056 -2.985,1.074 -4.115,-0.056c-2.604,-2.605 -5.24,-5.176 -7.811,-7.813c-0.588,-0.633 -0.697,-1.92 -0.697,-1.92l0.417,-5.664c0.111,-0.742 0.723,-1.332 1.471,-1.407l5.605,-0.365c0.093,0 0.185,0 0.277,0.003Zm-5.668,2.144l-0.353,5.458c0.004,0.204 0.049,0.406 0.183,0.563c2.485,2.729 5.121,5.323 7.83,7.83c0.43,0.378 1.143,0.378 1.573,0c1.582,-1.463 3.108,-2.99 4.572,-4.572c0.378,-0.43 0.378,-1.143 0,-1.572c-2.508,-2.71 -5.114,-5.33 -7.786,-7.877c-0.167,-0.144 -0.39,-0.182 -0.603,-0.182l-5.416,0.352Z" style="fill:#008ebd;"/><path d="M211,79.5l0,-55.5l-72,0l0,72l56,0c0,-0.2 0,-0.3 0,-0.5c0,-8.8 7.2,-16 16,-16Zm-17,-28c0,0.7 -0.1,1.3 -0.4,1.6c-0.2,0.3 -0.6,0.4 -1,0.4c-0.4,0 -0.7,-0.1 -1,-0.4c-0.2,-0.3 -0.4,-0.8 -0.4,-1.6l0,-12.4l-14.9,0l0,42.1l9.4,0c0.7,0 1.2,0.1 1.5,0.4c0.3,0.2 0.4,0.6 0.4,1c0,0.4 -0.1,0.7 -0.4,1c-0.3,0.3 -0.8,0.4 -1.5,0.4l-21.5,0c-0.7,0 -1.2,-0.1 -1.5,-0.4c-0.3,-0.3 -0.4,-0.6 -0.4,-1c0,-0.4 0.1,-0.7 0.4,-1c0.3,-0.3 0.8,-0.4 1.5,-0.4l9.4,0l0,-42.1l-14.9,0l0,12.4c0,0.7 -0.1,1.3 -0.4,1.6c-0.5,0.5 -1.4,0.6 -1.9,0c-0.3,-0.3 -0.4,-0.8 -0.4,-1.6l0,-15.1l38,0l0,15.1Z" style="fill:#008ebd;fill-rule:nonzero;"/><path d="M0,0l0,120l350,0l0,-120l-350,0Zm211,111.5c-8,0 -14.6,-5.9 -15.8,-13.5l-56.2,0c-1.1,0 -2,-0.9 -2,-2l0,-72c0,-1.1 0.9,-2 2,-2l72,0c1.1,0 2,0.9 2,2l0,55.6c7.9,1 14,7.7 14,15.9c0,8.8 -7.2,16 -16,16Z" style="fill:#008ebd;fill-rule:nonzero;"/></g></svg>