<?xml version="1.0" encoding="UTF-8" standalone="no"?><!DOCTYPE svg PUBLIC "-//W3C//DTD SVG 1.1//EN" "http://www.w3.org/Graphics/SVG/1.1/DTD/svg11.dtd"><svg width="100%" height="100%" viewBox="0 0 350 120" version="1.1" xmlns="http://www.w3.org/2000/svg" xmlns:xlink="http://www.w3.org/1999/xlink" xml:space="preserve" xmlns:serif="http://www.serif.com/" style="fill-rule:evenodd;clip-rule:evenodd;stroke-linejoin:round;stroke-miterlimit:1.41421;"><g><path d="M350,0l0,120l-350,0l0,-120l350,0Zm-141.943,76.928l-16.188,16.188c-1.798,1.799 -4.088,2.78 -6.54,2.78c-2.453,0 -4.906,-0.981 -6.541,-2.78l-27.96,-27.96c-1.635,-1.636 -2.453,-3.761 -2.289,-6.05l0.654,-8.993c-1.962,-0.818 -3.761,-2.126 -5.233,-3.598c-2.779,-2.779 -4.415,-6.213 -4.905,-9.81c-0.327,-3.761 0.818,-7.031 3.107,-9.484c4.905,-4.905 13.571,-4.088 19.458,1.635c0.654,0.654 0.654,1.962 0,2.616c-0.655,0.654 -1.963,0.654 -2.617,0c-4.414,-4.415 -10.628,-5.069 -14.062,-1.635c-1.635,1.635 -2.289,3.924 -2.125,6.541c0.327,2.779 1.635,5.395 3.76,7.521c0.818,0.818 1.799,1.635 2.944,2.289l0.49,-7.194c0.164,-2.126 1.962,-3.925 4.088,-4.088l20.112,-1.308c0.163,0 0.327,0 0.49,0c2.126,0 4.088,0.817 5.56,2.289l27.96,27.961c1.799,1.798 2.78,4.087 2.78,6.54c-0.164,2.453 -1.145,4.742 -2.943,6.54Zm-33.52,-39.569c1.145,0 2.126,0.327 2.943,1.144l27.797,28.124c0.981,0.981 1.635,2.453 1.635,3.924c0,1.472 -0.654,2.944 -1.635,3.925l-16.188,16.187c-0.981,0.981 -2.452,1.635 -3.924,1.635c-1.471,0 -2.943,-0.654 -3.924,-1.635l-27.961,-27.96c-0.817,-0.818 -1.144,-1.962 -1.144,-3.107l0.49,-8.175c0.327,0.163 0.654,0.163 0.981,0.163l1.309,0c3.271,0 6.05,-1.145 8.175,-3.27c0.654,-0.654 0.654,-1.962 0,-2.616c-0.654,-0.654 -1.962,-0.654 -2.616,0c-1.635,1.635 -3.924,2.452 -6.54,2.125c-0.328,0 -0.655,-0.163 -0.982,-0.163l0.491,-8.339c0,-0.327 0.327,-0.654 0.654,-0.654l20.112,-1.308l0.327,0Zm20.119,27.781c-0.871,2.19 -1.982,3.902 -3.573,5.493c-4.352,4.353 -9.245,4.684 -14.438,1.051l-2.342,2.341l-2.191,-2.192l2.101,-2.101l-0.81,-0.81c-0.39,-0.39 -0.75,-0.75 -1.05,-1.11l-2.132,2.131l-2.221,-2.221l2.402,-2.402c-3.272,-5.013 -2.732,-9.815 1.561,-14.108c1.441,-1.442 2.972,-2.492 5.073,-3.212l1.892,3.572c-1.952,0.511 -3.243,1.381 -4.353,2.491c-2.192,2.192 -2.402,4.744 -0.601,7.685l5.704,-5.704l2.221,2.221l-6.004,6.004c0.271,0.33 0.631,0.69 0.962,1.021l0.9,0.9l6.035,-6.034l2.191,2.191l-5.764,5.764c3.241,2.102 5.944,1.921 8.255,-0.39c1.051,-1.051 2.011,-2.612 2.611,-4.473l3.571,1.892Z" style="fill:#008ebd;"/></g></svg>