<?xml version="1.0" encoding="UTF-8" standalone="no"?><!DOCTYPE svg PUBLIC "-//W3C//DTD SVG 1.1//EN" "http://www.w3.org/Graphics/SVG/1.1/DTD/svg11.dtd"><svg width="100%" height="100%" viewBox="0 0 350 120" version="1.1" xmlns="http://www.w3.org/2000/svg" xmlns:xlink="http://www.w3.org/1999/xlink" xml:space="preserve" xmlns:serif="http://www.serif.com/" style="fill-rule:evenodd;clip-rule:evenodd;stroke-linecap:round;stroke-linejoin:round;stroke-miterlimit:1.5;"><rect x="0" y="0" width="350" height="120" style="fill:#008ebd;"/><path d="M176.425,54.939c0.339,1.613 0.047,3.38 -0.952,4.9l-19.191,29.195c-2.03,3.088 -6.215,3.995 -9.34,2.025l-16.986,-10.711c-3.125,-1.971 -4.014,-6.077 -1.984,-9.165l19.191,-29.196c0.999,-1.519 2.52,-2.511 4.198,-2.89l19.202,-2.207l5.862,18.049Z" style="fill:#3c5862;fill-opacity:0;stroke:#fff;stroke-width:2px;"/><path d="M191.28,32.748c1.638,-0.039 3.314,0.588 4.622,1.885l25.128,24.911c2.657,2.635 2.796,7.042 0.309,9.835l-13.518,15.18c-2.487,2.793 -6.663,2.922 -9.321,0.287l-25.128,-24.911c-1.308,-1.297 -2.006,-3.023 -2.076,-4.793l1.277,-19.851l18.707,-2.543Z" style="fill:#008ebd;fill-opacity:0;stroke:#fff;stroke-width:2px;"/><g><path d="M156.358,45.631c-1.139,1.585 -1.67,3.637 -1.316,5.762l6.785,40.809c0.718,4.316 4.814,7.305 9.142,6.669l21.528,-3.571c4.328,-0.636 6.261,-4.714 5.543,-9.03l-6.709,-40.301c-0.353,-2.124 -1.518,-3.877 -3.153,-5.091l-17.663,-10.843l-14.157,15.596Z" style="fill:#008ebd;stroke:#fff;stroke-width:2px;"/></g><path d="M170.301,40.109c3.264,0.115 6.089,-3.59 6.213,-9.253c-0.132,-1.317 -0.401,-2.533 -0.795,-3.627c-1.183,-3.281 -3.491,-5.467 -6.581,-6.038c-5.196,-0.635 -8.577,5.474 -7.806,10.575" style="fill:#3c5862;fill-opacity:0;stroke:#fff;stroke-width:2px;stroke-miterlimit:5;"/></svg>