<?xml version="1.0" encoding="UTF-8" standalone="no"?><!DOCTYPE svg PUBLIC "-//W3C//DTD SVG 1.1//EN" "http://www.w3.org/Graphics/SVG/1.1/DTD/svg11.dtd"><svg width="100%" height="100%" viewBox="0 0 350 120" version="1.1" xmlns="http://www.w3.org/2000/svg" xmlns:xlink="http://www.w3.org/1999/xlink" xml:space="preserve" xmlns:serif="http://www.serif.com/" style="fill-rule:evenodd;clip-rule:evenodd;stroke-linecap:round;stroke-linejoin:round;stroke-miterlimit:5;"><rect x="0" y="0" width="350" height="120.184" style="fill:#008ebd;"/><g><path d="M161.79,46.041c-2.617,4.088 -9.317,4.448 -16.022,-0.127c-5.7,-5.045 -7.635,-11.416 -5.049,-17.087c3.638,-6.883 13.608,-5.918 18.905,-0.716" style="fill:#3c5862;fill-opacity:0;stroke:#fff;stroke-width:2px;"/><path d="M172.647,31.424c2.022,0.027 4.058,0.85 5.61,2.453l29.81,30.795c3.153,3.258 3.117,8.511 -0.079,11.724l-17.372,17.464c-3.196,3.213 -8.351,3.178 -11.504,-0.08l-29.809,-30.795c-1.552,-1.603 -2.332,-3.689 -2.335,-5.8l2.502,-23.578l23.177,-2.183Z" style="fill:#3c5862;fill-opacity:0;stroke:#fff;stroke-width:2px;stroke-miterlimit:1.5;"/></g><path d="M196.699,69.933c-0.834,2.084 -1.897,3.71 -3.416,5.22c-4.156,4.132 -8.816,4.433 -13.75,0.961l-2.236,2.223l-2.08,-2.092l2.006,-1.995l-0.769,-0.774c-0.371,-0.373 -0.713,-0.717 -0.998,-1.06l-2.035,2.024l-2.109,-2.121l2.293,-2.28c-3.101,-4.783 -2.574,-9.354 1.525,-13.43c1.376,-1.368 2.837,-2.363 4.839,-3.044l1.791,3.406c-1.859,0.481 -3.091,1.307 -4.152,2.361c-2.091,2.08 -2.299,4.509 -0.592,7.315l5.446,-5.415l2.109,2.121l-5.732,5.7c0.255,0.315 0.597,0.659 0.911,0.975l0.855,0.86l5.762,-5.729l2.081,2.093l-5.504,5.472c3.081,2.009 5.654,1.846 7.861,-0.349c1.004,-0.998 1.923,-2.482 2.499,-4.252l3.395,1.81Z" style="fill:#fff;fill-rule:nonzero;"/></svg>