<?xml version="1.0" encoding="UTF-8" standalone="no"?><!DOCTYPE svg PUBLIC "-//W3C//DTD SVG 1.1//EN" "http://www.w3.org/Graphics/SVG/1.1/DTD/svg11.dtd"><svg width="100%" height="100%" viewBox="0 0 350 120" version="1.1" xmlns="http://www.w3.org/2000/svg" xmlns:xlink="http://www.w3.org/1999/xlink" xml:space="preserve" xmlns:serif="http://www.serif.com/" style="fill-rule:evenodd;clip-rule:evenodd;stroke-linecap:round;stroke-linejoin:round;stroke-miterlimit:5;"><rect x="0" y="0" width="350" height="120.184" style="fill:#008ebd;"/><g><path d="M174.729,58.754l32.922,10.5" style="fill:none;stroke:#fff;stroke-width:1.5px;"/><path d="M184.349,52.222l32.922,10.5" style="fill:none;stroke:#fff;stroke-width:1.5px;"/><path d="M141.808,69.254l32.921,10.5" style="fill:none;stroke:#fff;stroke-width:1.5px;"/><path d="M132.729,76.473l32.922,10.5" style="fill:none;stroke:#fff;stroke-width:1.5px;"/><path d="M141.808,96.16l32.921,10.5" style="fill:none;stroke:#fff;stroke-width:1.5px;"/><path d="M175.015,58.754l-32.922,10.5" style="fill:none;stroke:#fff;stroke-width:1.5px;"/><path d="M167.209,51.371l-31.855,10.5" style="fill:none;stroke:#fff;stroke-width:1.5px;"/><path d="M207.651,69.254l-32.922,10.5" style="fill:none;stroke:#fff;stroke-width:1.5px;"/><path d="M212.421,78.694l-32.922,10.5" style="fill:none;stroke:#fff;stroke-width:1.5px;"/><path d="M207.651,96.16l-32.922,10.5" style="fill:none;stroke:#fff;stroke-width:1.5px;"/><path d="M174.729,79.814l0,26.846" style="fill:none;stroke:#fff;stroke-width:1.5px;"/><path d="M141.808,69.254l-9.079,7.219" style="fill:none;stroke:#fff;stroke-width:1.5px;"/><path d="M174.729,79.814l-9.078,7.219" style="fill:none;stroke:#fff;stroke-width:1.5px;"/><path d="M217.271,63.119l-9.857,6.114" style="fill:none;stroke:#fff;stroke-width:1.5px;"/><path d="M184.586,52.222l-9.857,6.114" style="fill:none;stroke:#fff;stroke-width:1.5px;"/><path d="M207.651,69.254l4.77,9.44" style="fill:none;stroke:#fff;stroke-width:1.5px;"/><path d="M174.729,79.754l4.77,9.44" style="fill:none;stroke:#fff;stroke-width:1.5px;"/><path d="M135.354,62.439l6.739,6.815" style="fill:none;stroke:#fff;stroke-width:1.5px;"/><path d="M167.209,51.371l7.395,7.472" style="fill:none;stroke:#fff;stroke-width:1.5px;"/><path d="M141.808,96.16l0,-16.346" style="fill:none;stroke:#fff;stroke-width:1.5px;"/><path d="M207.651,96.16l-0.118,-15.701" style="fill:none;stroke:#fff;stroke-width:1.5px;"/></g><g><path d="M196.558,28.429c-0.633,0.988 -2.253,1.075 -3.874,-0.031c-1.379,-1.22 -1.847,-2.761 -1.221,-4.132c0.879,-1.665 3.29,-1.431 4.571,-0.173" style="fill:#3c5862;fill-opacity:0;stroke:#fff;stroke-width:1.5px;"/><path d="M199.184,24.894c0.489,0.006 0.981,0.205 1.356,0.593l7.209,7.447c0.763,0.788 0.754,2.058 -0.019,2.835l-4.201,4.224c-0.773,0.777 -2.019,0.768 -2.782,-0.02l-7.209,-7.447c-0.375,-0.387 -0.563,-0.892 -0.564,-1.402l0.605,-5.702l5.605,-0.528Z" style="fill:#3c5862;fill-opacity:0;stroke:#fff;stroke-width:1.5px;stroke-miterlimit:1.5;"/></g><g><path d="M208.649,18.685c-0.633,0.989 -2.253,1.076 -3.875,-0.031c-1.378,-1.22 -1.846,-2.76 -1.221,-4.132c0.88,-1.664 3.291,-1.431 4.572,-0.173" style="fill:#3c5862;fill-opacity:0;stroke:#fff;stroke-width:1.5px;"/><path d="M211.274,15.15c0.489,0.007 0.982,0.206 1.357,0.594l7.209,7.447c0.762,0.788 0.754,2.058 -0.019,2.835l-4.201,4.223c-0.773,0.777 -2.02,0.769 -2.782,-0.019l-7.209,-7.447c-0.375,-0.388 -0.564,-0.892 -0.565,-1.403l0.605,-5.702l5.605,-0.528Z" style="fill:#3c5862;fill-opacity:0;stroke:#fff;stroke-width:1.5px;stroke-miterlimit:1.5;"/></g><g><path d="M217.212,39.23c-0.633,0.989 -2.254,1.076 -3.875,-0.031c-1.378,-1.22 -1.846,-2.76 -1.221,-4.132c0.88,-1.664 3.291,-1.431 4.572,-0.173" style="fill:#3c5862;fill-opacity:0;stroke:#fff;stroke-width:1.5px;"/><path d="M219.837,35.695c0.489,0.007 0.982,0.206 1.357,0.594l7.209,7.447c0.762,0.787 0.754,2.058 -0.019,2.835l-4.202,4.223c-0.772,0.777 -2.019,0.769 -2.781,-0.019l-7.209,-7.447c-0.375,-0.388 -0.564,-0.893 -0.565,-1.403l0.605,-5.702l5.605,-0.528Z" style="fill:#3c5862;fill-opacity:0;stroke:#fff;stroke-width:1.5px;stroke-miterlimit:1.5;"/></g><path id="Reply--small-" serif:id="Reply (small)" d="M169.857,56.817l-6.5,0l11,14.148l11,-14.148l-6.5,0c0,-6.766 4.5,-12.302 10,-12.302c2.8,0 5.3,1.353 7.1,3.568c-2.4,-5.044 -6.9,-8.489 -12.1,-8.489c-7.8,0 -14,7.75 -14,17.223Z" style="fill:#fff;fill-rule:nonzero;"/></svg>