<?xml version="1.0" encoding="UTF-8" standalone="no"?><!DOCTYPE svg PUBLIC "-//W3C//DTD SVG 1.1//EN" "http://www.w3.org/Graphics/SVG/1.1/DTD/svg11.dtd"><svg width="100%" height="100%" viewBox="0 0 350 120" version="1.1" xmlns="http://www.w3.org/2000/svg" xmlns:xlink="http://www.w3.org/1999/xlink" xml:space="preserve" xmlns:serif="http://www.serif.com/" style="fill-rule:evenodd;clip-rule:evenodd;stroke-linejoin:round;stroke-miterlimit:2;"><g><rect x="0" y="0" width="350" height="120" style="fill:#008ebd;stroke:#4d4d4d;stroke-width:1px;"/></g><path d="M169.274,77.216c-4.872,2.223 -10.581,3.519 -16.959,3.684c-3.797,0.19 -14.426,-0.19 -14.426,-0.19c-9.111,9.111 -21.45,7.593 -21.45,7.593c0,0 7.213,-7.024 8.542,-13.667c-10.06,-5.884 -16.324,-15.185 -16.324,-26.005c0,-17.843 17.843,-32.459 39.861,-32.459c18.526,0 34.095,10.212 38.524,24.095c-1.217,0.52 -2.394,1.094 -3.544,1.725c-3.582,-12.78 -17.961,-22.403 -35.169,-22.403c-19.931,0 -36.065,12.908 -36.065,28.662c0,8.732 4.935,16.514 12.717,21.829c1.329,0.76 2.468,1.519 3.797,2.278c0.189,1.519 -3.038,9.301 -5.695,12.148c3.796,0.38 11.579,-5.315 13.097,-7.782c0.19,0.19 12.718,0.379 16.135,0.379c6.058,0 11.397,-1.21 15.882,-3.351l0.484,1.873l0.593,1.591Z" style="fill:#fff;"/><path d="M187.869,43.517c0.353,1.597 0.511,3.245 0.511,4.924c0,11.469 -5.803,21.369 -15.789,27.088c-0.428,-1.166 -0.769,-2.373 -1.03,-3.634c8.213,-5.224 12.833,-13.928 12.833,-23.644l-0.178,-2.788l1.581,-0.943l2.072,-1.003Z" style="fill:#fff;"/><path d="M187.042,40.267c5.155,-2.226 11.047,-3.48 17.301,-3.48c20.438,0 37,13.567 37,30.129c0,10.042 -5.814,18.676 -15.152,24.138c1.233,6.166 7.928,12.685 7.928,12.685c0,0 -11.452,1.41 -19.909,-7.047c0,0 -9.867,0.352 -13.391,0.176c-15.855,-0.41 -27.256,-8.348 -31.545,-19.652l1.162,-0.503l2.155,-1.184c3.629,10.32 13.702,17.815 28.228,17.815c3.172,0 14.8,-0.176 14.976,-0.352c1.41,2.29 8.634,7.576 12.158,7.224c-2.467,-2.643 -5.462,-9.867 -5.286,-11.277c1.233,-0.704 2.29,-1.409 3.524,-2.114c7.223,-4.933 11.804,-12.157 11.804,-20.262c0,-14.624 -14.976,-26.605 -33.476,-26.605c-6.07,0 -11.761,1.29 -16.65,3.559l-0.299,-1.585l-0.528,-1.665Z" style="fill:#fff;"/><path d="M171.561,71.895c0.248,1.245 0.583,2.459 1.03,3.634l-2.155,1.184l-1.162,0.503l-0.593,-1.591l-0.484,-1.873c1.186,-0.558 2.312,-1.18 3.364,-1.857Z" style="fill:#fff;"/><path d="M187.57,41.932l0.299,1.585l-2.072,1.003l-1.581,0.943c-0.144,-1.177 -0.378,-2.333 -0.718,-3.471c1.143,-0.634 2.332,-1.216 3.544,-1.725l0.528,1.665Z" style="fill:#fff;"/><g><path d="M220.306,82.561l-13.235,-33.348l-5.485,0l-13.206,33.29l4.005,0l1.161,-0.406l0.639,-0.871l2.902,-7.372l14.512,0l2.699,7.459l0.668,0.9l1.161,0.348l4.179,0Z" style="fill:#fff;"/><path d="M210.061,70.052l-11.407,0.029l4.586,-12.161l0.552,-1.625l0.551,-2.003l1.132,3.599l4.586,12.161Z" style="fill:#008ebd;stroke:#fff;stroke-opacity:0;stroke-width:1px;"/></g><g><path d="M163.261,60.955l-1.693,4.328c-4.09,-1.419 -7.983,-3.355 -11.584,-5.76c-5.3,3.419 -11.007,6.163 -16.987,8.168c-0.673,-1.215 -1.616,-2.712 -2.831,-4.491c5.751,-1.402 11.243,-3.709 16.271,-6.833c-4.639,-4.861 -7.849,-10.909 -9.275,-17.475l-6.996,0l0,-4.328l18.646,0c-0.651,-1.985 -1.952,-4.881 -1.952,-4.881l4.783,-1.627c0,0 0.879,2.57 1.66,4.686c0.262,0.59 0.479,1.199 0.651,1.822l15.262,0l0,4.328l-6.281,0c-1.424,6.539 -4.583,12.576 -9.144,17.475c2.96,1.905 6.14,3.446 9.47,4.588Z" style="fill:#fff;"/><path d="M141.978,38.892c1.24,5.488 4.017,10.512 8.006,14.481c4.139,-3.848 6.934,-8.926 7.972,-14.481l-15.978,0Z" style="fill:#008ebd;stroke:#fff;stroke-width:0.05px;"/></g></svg>