<?xml version="1.0" encoding="utf-8"?>
<!-- Generator: Adobe Illustrator 22.1.0, SVG Export Plug-In . SVG Version: 6.00 Build 0)  -->
<svg version="1.1" id="Ebene_1" xmlns="http://www.w3.org/2000/svg" xmlns:xlink="http://www.w3.org/1999/xlink" x="0px" y="0px"
	 viewBox="0 0 350 60" style="enable-background:new 0 0 350 60;" xml:space="preserve">
<style type="text/css">
	.st0{fill:#008EBD;}
</style>
<g>
	<path class="st0" d="M41.1,24.6c-1.3,0.5-2.2,1.2-2.7,2c-0.5,0.8-0.8,1.7-0.8,2.7c0,1.3,0.5,2.4,1.5,3.3c1,0.9,2.6,1.7,4.8,2.6
		c1.3-0.7,2.1-1.5,2.6-2.3c0.5-0.8,0.8-1.7,0.8-2.6c0-1.2-0.5-2.3-1.6-3.2C44.7,26.1,43.2,25.3,41.1,24.6z"/>
	<path class="st0" d="M0,0v60h85V0H0z M48.6,38c0.7,0.9,1,1.9,1,3.1c0,0.9-0.2,1.7-0.6,2.5c-0.4,0.8-0.9,1.4-1.6,2
		c-0.8,0.6-1.6,1-2.6,1.4c-1,0.3-2.1,0.5-3.5,0.5c-1.2,0-2.2-0.1-3-0.4c-0.8-0.2-1.4-0.5-1.9-0.9c-0.5-0.4-0.8-0.8-1-1.1
		s-0.3-0.8-0.3-1.1c0-0.6,0.2-1.1,0.5-1.5c0.3-0.4,0.8-0.6,1.5-0.6c0.5,0,0.9,0.1,1.2,0.4s0.6,0.6,0.8,0.9c0.2,0.3,0.4,0.8,0.6,1.2
		c0.2,0.5,0.4,0.9,0.6,1.3c0.2,0.1,0.5,0.1,0.7,0.1c0.3,0,0.6,0.1,1,0.1c1.2,0,2.3-0.4,3.1-1.1c0.9-0.8,1.3-1.6,1.3-2.6
		c0-0.8-0.4-1.6-1.1-2.4c-0.7-0.8-2.3-1.6-4.7-2.5c-2.3-0.9-3.9-1.9-4.9-3.1c-1-1.2-1.4-2.5-1.4-4.1c0-1.3,0.4-2.5,1.2-3.5
		c0.8-1.1,2-2,3.7-2.7c-1.5-0.7-2.5-1.5-3.2-2.3c-0.7-0.8-1-1.9-1-3c0-0.8,0.2-1.6,0.5-2.3s0.9-1.3,1.6-1.9c0.7-0.5,1.5-1,2.6-1.3
		c1.1-0.3,2.2-0.5,3.5-0.5c1.2,0,2.2,0.1,3,0.4c0.8,0.3,1.4,0.6,1.9,0.9c0.4,0.4,0.7,0.7,0.9,1.2s0.3,0.8,0.3,1.1
		c0,0.6-0.2,1.1-0.5,1.5c-0.4,0.4-0.9,0.5-1.5,0.5c-0.4,0-0.8-0.1-1.1-0.4c-0.3-0.2-0.6-0.6-0.8-0.9c-0.3-0.4-0.5-0.8-0.6-1.2
		c-0.2-0.4-0.3-0.8-0.6-1.3c-0.2-0.1-0.5-0.1-0.8-0.1c-0.3,0-0.6-0.1-0.9-0.1c-1.3,0-2.3,0.4-3.1,1.1c-0.8,0.7-1.2,1.6-1.2,2.6
		c0,0.6,0.1,1,0.4,1.5c0.3,0.4,0.7,0.8,1.2,1.2c0.5,0.4,1.3,0.8,2.2,1.2c0.9,0.4,1.7,0.7,2.4,1c2,0.8,3.5,1.8,4.4,2.9
		s1.4,2.4,1.4,3.8c0,1.4-0.5,2.6-1.4,3.8c-0.9,1.2-2.2,2.1-3.7,2.6C46.9,36.4,48,37.1,48.6,38z"/>
</g>
<g>
	<path class="st0" d="M88.7,0v60h85V0H88.7z M137.3,38c0.7,0.9,1,1.9,1,3.1c0,0.9-0.2,1.7-0.6,2.5c-0.4,0.8-0.9,1.4-1.6,2
		c-0.8,0.6-1.6,1-2.6,1.4c-1,0.3-2.1,0.5-3.5,0.5c-1.2,0-2.2-0.1-3-0.4s-1.4-0.5-1.9-0.9c-0.5-0.4-0.8-0.8-1-1.1s-0.3-0.8-0.3-1.1
		c0-0.6,0.2-1.1,0.5-1.5c0.3-0.4,0.8-0.6,1.5-0.6c0.5,0,0.9,0.1,1.2,0.4s0.6,0.6,0.8,0.9c0.2,0.3,0.4,0.8,0.6,1.2
		c0.2,0.5,0.4,0.9,0.6,1.3c0.2,0.1,0.5,0.1,0.7,0.1c0.3,0,0.6,0.1,1,0.1c1.2,0,2.3-0.4,3.1-1.1c0.9-0.8,1.3-1.6,1.3-2.6
		c0-0.8-0.4-1.6-1.1-2.4c-0.7-0.8-2.3-1.6-4.7-2.5c-2.3-0.9-3.9-1.9-4.9-3.1c-1-1.2-1.4-2.5-1.4-4.1c0-1.3,0.4-2.5,1.2-3.5
		c0.8-1.1,2-2,3.7-2.7c-1.5-0.7-2.5-1.5-3.2-2.3s-1-1.9-1-3c0-0.8,0.2-1.6,0.5-2.3c0.4-0.7,0.9-1.3,1.6-1.9c0.7-0.5,1.5-1,2.6-1.3
		c1.1-0.3,2.2-0.5,3.5-0.5c1.2,0,2.2,0.1,3,0.4c0.8,0.3,1.4,0.6,1.9,0.9c0.4,0.4,0.7,0.7,0.9,1.2c0.2,0.4,0.3,0.8,0.3,1.1
		c0,0.6-0.2,1.1-0.5,1.5c-0.4,0.4-0.9,0.5-1.5,0.5c-0.4,0-0.8-0.1-1.1-0.4c-0.3-0.2-0.6-0.6-0.8-0.9c-0.3-0.4-0.5-0.8-0.6-1.2
		s-0.3-0.8-0.6-1.3c-0.2-0.1-0.5-0.1-0.8-0.1c-0.3,0-0.6-0.1-0.9-0.1c-1.3,0-2.3,0.4-3.1,1.1c-0.8,0.7-1.2,1.6-1.2,2.6
		c0,0.6,0.1,1,0.4,1.5c0.3,0.4,0.7,0.8,1.2,1.2c0.5,0.4,1.3,0.8,2.2,1.2c0.9,0.4,1.7,0.7,2.4,1c2,0.8,3.5,1.8,4.4,2.9
		c0.9,1.1,1.4,2.4,1.4,3.8c0,1.4-0.5,2.6-1.4,3.8c-0.9,1.2-2.2,2.1-3.7,2.6C135.6,36.4,136.6,37.1,137.3,38z"/>
	<path class="st0" d="M129.8,24.6c-1.3,0.5-2.2,1.2-2.7,2c-0.5,0.8-0.8,1.7-0.8,2.7c0,1.3,0.5,2.4,1.5,3.3c1,0.9,2.6,1.7,4.8,2.6
		c1.3-0.7,2.1-1.5,2.6-2.3c0.5-0.8,0.8-1.7,0.8-2.6c0-1.2-0.5-2.3-1.6-3.2C133.4,26.1,131.8,25.3,129.8,24.6z"/>
</g>
<g>
	<path class="st0" d="M218,24.6c-1.3,0.5-2.2,1.2-2.7,2c-0.5,0.8-0.8,1.7-0.8,2.7c0,1.3,0.5,2.4,1.5,3.3c1,0.9,2.6,1.7,4.8,2.6
		c1.3-0.7,2.1-1.5,2.6-2.3c0.5-0.8,0.8-1.7,0.8-2.6c0-1.2-0.5-2.3-1.6-3.2C221.5,26.1,220,25.3,218,24.6z"/>
	<path class="st0" d="M176.8,0v60h85V0H176.8z M225.5,38c0.7,0.9,1,1.9,1,3.1c0,0.9-0.2,1.7-0.6,2.5c-0.4,0.8-0.9,1.4-1.6,2
		c-0.8,0.6-1.6,1-2.6,1.4c-1,0.3-2.1,0.5-3.5,0.5c-1.2,0-2.2-0.1-3-0.4c-0.8-0.2-1.4-0.5-1.9-0.9c-0.5-0.4-0.8-0.8-1-1.1
		s-0.3-0.8-0.3-1.1c0-0.6,0.2-1.1,0.5-1.5c0.3-0.4,0.8-0.6,1.5-0.6c0.5,0,0.9,0.1,1.2,0.4s0.6,0.6,0.8,0.9c0.2,0.3,0.4,0.8,0.6,1.2
		c0.2,0.5,0.4,0.9,0.6,1.3c0.2,0.1,0.5,0.1,0.7,0.1c0.3,0,0.6,0.1,1,0.1c1.2,0,2.3-0.4,3.1-1.1c0.9-0.8,1.3-1.6,1.3-2.6
		c0-0.8-0.4-1.6-1.1-2.4c-0.7-0.8-2.3-1.6-4.7-2.5c-2.3-0.9-3.9-1.9-4.9-3.1c-1-1.2-1.4-2.5-1.4-4.1c0-1.3,0.4-2.5,1.2-3.5
		c0.8-1.1,2-2,3.7-2.7c-1.5-0.7-2.5-1.5-3.2-2.3s-1-1.9-1-3c0-0.8,0.2-1.6,0.5-2.3c0.4-0.7,0.9-1.3,1.6-1.9c0.7-0.5,1.5-1,2.6-1.3
		c1.1-0.3,2.2-0.5,3.5-0.5c1.2,0,2.2,0.1,3,0.4c0.8,0.3,1.4,0.6,1.9,0.9c0.4,0.4,0.7,0.7,0.9,1.2c0.2,0.4,0.3,0.8,0.3,1.1
		c0,0.6-0.2,1.1-0.5,1.5c-0.4,0.4-0.9,0.5-1.5,0.5c-0.4,0-0.8-0.1-1.1-0.4c-0.3-0.2-0.6-0.6-0.8-0.9c-0.3-0.4-0.5-0.8-0.6-1.2
		s-0.3-0.8-0.6-1.3c-0.2-0.1-0.5-0.1-0.8-0.1c-0.3,0-0.6-0.1-0.9-0.1c-1.3,0-2.3,0.4-3.1,1.1c-0.8,0.7-1.2,1.6-1.2,2.6
		c0,0.6,0.1,1,0.4,1.5c0.3,0.4,0.7,0.8,1.2,1.2c0.5,0.4,1.3,0.8,2.2,1.2c0.9,0.4,1.7,0.7,2.4,1c2,0.8,3.5,1.8,4.4,2.9
		s1.4,2.4,1.4,3.8c0,1.4-0.5,2.6-1.4,3.8c-0.9,1.2-2.2,2.1-3.7,2.6C223.7,36.4,224.8,37.1,225.5,38z"/>
</g>
<g>
	<path class="st0" d="M265.5,0v60h85V0H265.5z M314.1,38c0.7,0.9,1,1.9,1,3.1c0,0.9-0.2,1.7-0.6,2.5c-0.4,0.8-0.9,1.4-1.6,2
		c-0.8,0.6-1.6,1-2.6,1.4c-1,0.3-2.1,0.5-3.5,0.5c-1.2,0-2.2-0.1-3-0.4c-0.8-0.2-1.4-0.5-1.9-0.9c-0.5-0.4-0.8-0.8-1-1.1
		s-0.3-0.8-0.3-1.1c0-0.6,0.2-1.1,0.5-1.5c0.3-0.4,0.8-0.6,1.5-0.6c0.5,0,0.9,0.1,1.2,0.4s0.6,0.6,0.8,0.9c0.2,0.3,0.4,0.8,0.6,1.2
		c0.2,0.5,0.4,0.9,0.6,1.3c0.2,0.1,0.5,0.1,0.7,0.1c0.3,0,0.6,0.1,1,0.1c1.2,0,2.3-0.4,3.1-1.1c0.9-0.8,1.3-1.6,1.3-2.6
		c0-0.8-0.4-1.6-1.1-2.4c-0.7-0.8-2.3-1.6-4.7-2.5c-2.3-0.9-3.9-1.9-4.9-3.1c-1-1.2-1.4-2.5-1.4-4.1c0-1.3,0.4-2.5,1.2-3.5
		c0.8-1.1,2-2,3.7-2.7c-1.5-0.7-2.5-1.5-3.2-2.3c-0.7-0.8-1-1.9-1-3c0-0.8,0.2-1.6,0.5-2.3s0.9-1.3,1.6-1.9c0.7-0.5,1.5-1,2.6-1.3
		c1.1-0.3,2.2-0.5,3.5-0.5c1.2,0,2.2,0.1,3,0.4c0.8,0.3,1.4,0.6,1.9,0.9c0.4,0.4,0.7,0.7,0.9,1.2s0.3,0.8,0.3,1.1
		c0,0.6-0.2,1.1-0.5,1.5c-0.4,0.4-0.9,0.5-1.5,0.5c-0.4,0-0.8-0.1-1.1-0.4c-0.3-0.2-0.6-0.6-0.8-0.9c-0.3-0.4-0.5-0.8-0.6-1.2
		c-0.2-0.4-0.3-0.8-0.6-1.3c-0.2-0.1-0.5-0.1-0.8-0.1c-0.3,0-0.6-0.1-0.9-0.1c-1.3,0-2.3,0.4-3.1,1.1c-0.8,0.7-1.2,1.6-1.2,2.6
		c0,0.6,0.1,1,0.4,1.5c0.3,0.4,0.7,0.8,1.2,1.2c0.5,0.4,1.3,0.8,2.2,1.2c0.9,0.4,1.7,0.7,2.4,1c2,0.8,3.5,1.8,4.4,2.9
		s1.4,2.4,1.4,3.8c0,1.4-0.5,2.6-1.4,3.8c-0.9,1.2-2.2,2.1-3.7,2.6C312.4,36.4,313.5,37.1,314.1,38z"/>
	<path class="st0" d="M306.6,24.6c-1.3,0.5-2.2,1.2-2.7,2c-0.5,0.8-0.8,1.7-0.8,2.7c0,1.3,0.5,2.4,1.5,3.3c1,0.9,2.6,1.7,4.8,2.6
		c1.3-0.7,2.1-1.5,2.6-2.3c0.5-0.8,0.8-1.7,0.8-2.6c0-1.2-0.5-2.3-1.6-3.2C310.2,26.1,308.7,25.3,306.6,24.6z"/>
</g>
</svg>
