<?xml version="1.0" encoding="UTF-8" standalone="no"?><!DOCTYPE svg PUBLIC "-//W3C//DTD SVG 1.1//EN" "http://www.w3.org/Graphics/SVG/1.1/DTD/svg11.dtd"><svg width="100%" height="100%" viewBox="0 0 350 120" version="1.1" xmlns="http://www.w3.org/2000/svg" xmlns:xlink="http://www.w3.org/1999/xlink" xml:space="preserve" xmlns:serif="http://www.serif.com/" style="fill-rule:evenodd;clip-rule:evenodd;stroke-linecap:round;stroke-linejoin:bevel;stroke-miterlimit:1.5;"><rect x="0" y="0" width="350" height="120.184" style="fill:#008ebd;"/><path d="M211.224,22.104l0.221,0.038l0.216,0.062l0.207,0.086l0.196,0.108l0.183,0.13l0.167,0.15l0.15,0.167l0.129,0.183l0.109,0.196l0.086,0.207l0.062,0.216l0.037,0.221l0.013,0.224l0,72l-0.013,0.224l-0.037,0.221l-0.062,0.215l-0.086,0.208l-0.109,0.196l-0.129,0.183l-0.15,0.167l-0.167,0.149l-0.183,0.13l-0.196,0.109l-0.207,0.086l-0.216,0.062l-0.221,0.037l-0.224,0.013l-72,0l-0.224,-0.013l-0.221,-0.037l-0.216,-0.062l-0.207,-0.086l-0.196,-0.109l-0.183,-0.13l-0.167,-0.149l-0.15,-0.167l-0.129,-0.183l-0.109,-0.196l-0.086,-0.208l-0.062,-0.215l-0.037,-0.221l-0.013,-0.224l0,-72l0.013,-0.224l0.037,-0.221l0.062,-0.216l0.086,-0.207l0.109,-0.196l0.129,-0.183l0.15,-0.167l0.167,-0.15l0.183,-0.13l0.196,-0.108l0.207,-0.086l0.216,-0.062l0.221,-0.038l0.224,-0.012l72,0l0.224,0.012Zm-72.224,1.988l0,72l72,0l0,-72l-72,0Z" style="fill:#fff;"/><g><path d="M174.466,36.068l22.652,0" style="fill:none;stroke:#fff;stroke-width:2.5px;"/><path d="M174.466,44.229l22.652,0" style="fill:none;stroke:#fff;stroke-width:2.5px;stroke-linejoin:round;"/><path d="M174.466,52.391l22.652,0" style="fill:none;stroke:#fff;stroke-width:2.5px;stroke-linejoin:round;"/><path d="M174.466,60.552l22.652,0" style="fill:none;stroke:#fff;stroke-width:2.5px;stroke-linejoin:round;"/><path d="M153.587,68.713l43.531,0" style="fill:none;stroke:#fff;stroke-width:2.5px;stroke-linejoin:round;"/><path d="M153.587,76.875l43.531,0" style="fill:none;stroke:#fff;stroke-width:2.5px;stroke-linejoin:round;"/><path d="M153.587,85.036l43.531,0" style="fill:none;stroke:#fff;stroke-width:2.5px;stroke-linejoin:round;"/></g><g><g><path d="M166.263,55.395c0.655,0.724 0.936,1.528 0.936,2.493c0,0.724 -0.187,1.368 -0.562,2.011c-0.374,0.644 -0.842,1.126 -1.497,1.609c-0.748,0.482 -1.497,0.804 -2.433,1.126c-0.935,0.241 -1.965,0.402 -3.275,0.402c-1.123,0 -2.058,-0.08 -2.807,-0.322c-0.749,-0.241 -1.31,-0.402 -1.778,-0.724c-0.468,-0.321 -0.749,-0.643 -0.936,-0.884c-0.187,-0.242 -0.28,-0.644 -0.28,-0.885c0,-0.483 0.187,-0.885 0.467,-1.207c0.281,-0.321 0.749,-0.482 1.404,-0.482c0.468,0 0.842,0.08 1.123,0.321c0.281,0.242 0.561,0.483 0.749,0.724c0.187,0.242 0.374,0.644 0.561,0.966c0.187,0.402 0.374,0.724 0.561,1.045c0.188,0.081 0.468,0.081 0.655,0.081c0.281,0 0.562,0.08 0.936,0.08c1.123,0 2.152,-0.322 2.901,-0.885c0.842,-0.643 1.216,-1.287 1.216,-2.091c0,-0.643 -0.374,-1.287 -1.029,-1.93c-0.655,-0.644 -2.152,-1.287 -4.398,-2.011c-2.152,-0.724 -3.649,-1.529 -4.585,-2.494c-0.936,-0.965 -1.31,-2.011 -1.31,-3.298c0,-1.045 0.374,-2.011 1.123,-2.815c0.748,-0.885 1.871,-1.609 3.462,-2.172c-1.403,-0.563 -2.339,-1.206 -2.994,-1.85c-0.655,-0.643 -0.936,-1.528 -0.936,-2.413c0,-0.643 0.187,-1.287 0.468,-1.85c0.374,-0.563 0.842,-1.046 1.497,-1.528c0.655,-0.402 1.404,-0.805 2.433,-1.046c1.029,-0.241 2.059,-0.402 3.275,-0.402c1.123,0 2.059,0.08 2.807,0.322c0.749,0.241 1.31,0.482 1.778,0.724c0.374,0.321 0.655,0.563 0.842,0.965c0.187,0.321 0.281,0.643 0.281,0.885c0,0.482 -0.187,0.884 -0.468,1.206c-0.374,0.322 -0.842,0.402 -1.403,0.402c-0.375,0 -0.749,-0.08 -1.03,-0.321c-0.28,-0.161 -0.561,-0.483 -0.748,-0.724c-0.281,-0.322 -0.468,-0.644 -0.562,-0.966c-0.093,-0.321 -0.28,-0.643 -0.561,-1.045c-0.187,-0.081 -0.468,-0.081 -0.749,-0.081c-0.281,0 -0.561,-0.08 -0.842,-0.08c-1.216,0 -2.152,0.322 -2.901,0.885c-0.748,0.563 -1.123,1.287 -1.123,2.091c0,0.483 0.094,0.804 0.375,1.207c0.28,0.321 0.655,0.643 1.123,0.965c0.467,0.321 1.216,0.643 2.058,0.965c0.842,0.322 1.591,0.563 2.246,0.804c1.871,0.644 3.275,1.448 4.117,2.333c0.842,0.885 1.31,1.93 1.31,3.057c0,1.126 -0.468,2.091 -1.31,3.056c-0.842,0.965 -2.058,1.689 -3.462,2.092c1.684,0.402 2.62,0.965 3.275,1.689Z" style="fill:#fff;"/><path d="M161.447,31.965l0.235,0.003l0.234,0.006l0.233,0.009l0.233,0.012l0.225,0.015l0.121,0.009l0.116,0.01l0.115,0.011l0.116,0.011l0.115,0.013l0.116,0.014l0.115,0.016l0.116,0.016l0.116,0.018l0.115,0.019l0.117,0.021l0.116,0.022l0.116,0.024l0.117,0.025l0.117,0.027l0.117,0.029l0.117,0.031l0.117,0.033l0.118,0.034l0.112,0.035l0.17,0.056l0.161,0.054l0.157,0.055l0.154,0.056l0.15,0.055l0.147,0.056l0.144,0.057l0.141,0.057l0.137,0.058l0.134,0.058l0.132,0.058l0.128,0.059l0.125,0.059l0.123,0.059l0.119,0.059l0.103,0.052l0.158,0.087l0.153,0.096l0.147,0.106l0.14,0.113l0.145,0.125l0.085,0.075l0.089,0.079l0.094,0.087l0.1,0.095l0.106,0.105l0.11,0.115l0.114,0.126l0.115,0.137l0.107,0.136l0.066,0.09l0.058,0.08l0.056,0.083l0.056,0.086l0.054,0.088l0.053,0.089l0.051,0.092l0.05,0.093l0.048,0.094l-0.012,-0.024l0.005,0.009l0.07,0.132l0.066,0.134l0.062,0.135l0.059,0.137l0.054,0.139l0.051,0.14l0.047,0.144l0.042,0.146l0.039,0.149l0.034,0.153l0.03,0.158l0.025,0.163l0.018,0.17l0.013,0.177l0.003,0.167l-0.001,0.135l-0.004,0.118l-0.008,0.117l-0.01,0.117l-0.012,0.117l-0.016,0.116l-0.019,0.114l-0.021,0.114l-0.023,0.112l-0.027,0.112l-0.029,0.111l-0.031,0.109l-0.034,0.107l-0.036,0.106l-0.038,0.105l-0.041,0.102l-0.042,0.101l-0.045,0.1l-0.046,0.097l-0.048,0.095l-0.05,0.094l-0.05,0.091l-0.053,0.09l-0.054,0.087l-0.055,0.086l-0.056,0.083l-0.058,0.082l-0.058,0.079l-0.059,0.078l-0.069,0.086l-0.079,0.094l-0.118,0.132l-0.125,0.125l-0.133,0.117l-0.071,0.059l-0.109,0.086l-0.112,0.082l-0.113,0.078l-0.116,0.074l-0.116,0.069l-0.118,0.066l-0.118,0.062l-0.118,0.057l-0.119,0.053l-0.118,0.049l-0.075,0.029l0.15,0.103l0.151,0.108l0.149,0.11l0.147,0.112l0.145,0.115l0.142,0.118l0.14,0.12l0.137,0.123l0.134,0.127l0.132,0.129l0.127,0.131l0.121,0.128l0.115,0.129l0.114,0.132l0.11,0.134l0.108,0.136l0.105,0.139l0.102,0.141l0.1,0.143l0.096,0.146l0.093,0.148l0.09,0.151l0.087,0.153l0.083,0.155l0.08,0.158l0.076,0.16l0.073,0.162l0.069,0.164l0.064,0.166l0.061,0.168l0.057,0.17l0.053,0.172l0.048,0.173l0.044,0.175l0.04,0.176l0.035,0.178l0.03,0.178l0.026,0.18l0.021,0.181l0.017,0.182l0.012,0.182l0.007,0.183l0.002,0.184l-0.002,0.183l-0.007,0.183l-0.012,0.183l-0.017,0.182l-0.022,0.182l-0.026,0.18l-0.031,0.179l-0.036,0.178l-0.041,0.176l-0.045,0.175l-0.049,0.172l-0.054,0.17l-0.057,0.169l-0.062,0.165l-0.065,0.163l-0.069,0.161l-0.072,0.158l-0.075,0.156l-0.079,0.152l-0.081,0.15l-0.084,0.148l-0.086,0.145l-0.089,0.142l-0.091,0.14l-0.093,0.137l-0.096,0.135l-0.097,0.133l-0.099,0.13l-0.1,0.128l-0.103,0.127l-0.104,0.124l-0.109,0.127l-0.019,0.022l0.004,0.004l0.098,0.121l0.095,0.124l0.094,0.126l0.09,0.129l0.087,0.131l0.084,0.133l0.081,0.135l0.078,0.137l0.074,0.14l0.071,0.141l0.068,0.142l0.063,0.144l0.06,0.146l0.056,0.147l0.053,0.147l0.048,0.149l0.045,0.149l0.041,0.149l0.037,0.15l0.034,0.15l0.03,0.15l0.026,0.149l0.023,0.15l0.019,0.149l0.017,0.149l0.013,0.148l0.01,0.148l0.006,0.146l0.005,0.147l0.001,0.144l-0.001,0.118l-0.003,0.116l-0.005,0.117l-0.006,0.117l-0.009,0.117l-0.011,0.116l-0.013,0.117l-0.015,0.116l-0.016,0.116l-0.019,0.116l-0.021,0.116l-0.023,0.115l-0.025,0.114l-0.027,0.114l-0.028,0.114l-0.031,0.112l-0.033,0.112l-0.034,0.111l-0.036,0.11l-0.038,0.109l-0.04,0.108l-0.041,0.108l-0.043,0.106l-0.045,0.105l-0.046,0.104l-0.047,0.103l-0.049,0.102l-0.05,0.1l-0.052,0.1l-0.052,0.098l-0.054,0.097l-0.055,0.096l-0.057,0.096l-0.057,0.094l-0.059,0.094l-0.06,0.093l-0.062,0.092l-0.063,0.091l-0.064,0.09l-0.065,0.089l-0.067,0.088l-0.068,0.087l-0.069,0.086l-0.07,0.085l-0.071,0.083l-0.072,0.082l-0.073,0.081l-0.074,0.08l-0.074,0.078l-0.075,0.077l-0.077,0.076l-0.076,0.075l-0.078,0.073l-0.078,0.071l-0.078,0.071l-0.079,0.069l-0.079,0.069l-0.08,0.067l-0.08,0.065l-0.086,0.07l-0.156,0.121l-0.234,0.176l-0.179,0.113l-0.094,0.059l-0.095,0.058l-0.095,0.057l-0.095,0.056l-0.095,0.054l-0.095,0.054l-0.102,0.056l-0.186,0.098l-0.192,0.098l-0.192,0.093l-0.193,0.09l-0.193,0.086l-0.193,0.082l-0.193,0.08l-0.194,0.076l-0.194,0.074l-0.195,0.072l-0.195,0.07l-0.186,0.065l-0.128,0.041l-0.129,0.036l-0.197,0.049l-0.22,0.052l-0.225,0.05l-0.224,0.046l-0.122,0.023l-0.118,0.022l-0.119,0.021l-0.12,0.021l-0.122,0.019l-0.122,0.019l-0.124,0.017l-0.125,0.017l-0.126,0.016l-0.127,0.015l-0.129,0.014l-0.13,0.014l-0.131,0.012l-0.132,0.011l-0.133,0.01l-0.135,0.009l-0.136,0.008l-0.137,0.007l-0.139,0.006l-0.139,0.005l-0.141,0.004l-0.143,0.003l-0.144,0.002l-0.146,0l-0.236,-0.001l-0.235,-0.003l-0.234,-0.006l-0.233,-0.009l-0.232,-0.012l-0.226,-0.015l-0.121,-0.009l-0.116,-0.01l-0.115,-0.011l-0.115,-0.011l-0.116,-0.013l-0.115,-0.014l-0.116,-0.016l-0.116,-0.016l-0.115,-0.018l-0.116,-0.019l-0.116,-0.021l-0.117,-0.022l-0.116,-0.024l-0.117,-0.025l-0.116,-0.027l-0.117,-0.029l-0.118,-0.031l-0.117,-0.033l-0.118,-0.034l-0.103,-0.033l-0.284,-0.091l-0.269,-0.087l-0.145,-0.047l-0.146,-0.05l-0.151,-0.053l-0.156,-0.058l-0.161,-0.063l-0.167,-0.068l-0.163,-0.072l-0.097,-0.045l-0.089,-0.043l-0.09,-0.046l-0.092,-0.048l-0.092,-0.05l-0.093,-0.053l-0.094,-0.055l-0.094,-0.058l-0.095,-0.061l-0.096,-0.065l-0.14,-0.099l-0.138,-0.101l-0.131,-0.103l-0.126,-0.102l-0.121,-0.103l-0.115,-0.102l-0.109,-0.102l-0.103,-0.101l-0.098,-0.099l-0.092,-0.097l-0.087,-0.094l-0.08,-0.091l-0.075,-0.088l-0.069,-0.083l-0.063,-0.078l-0.068,-0.088l-0.068,-0.09l-0.072,-0.103l-0.066,-0.101l-0.06,-0.098l-0.055,-0.096l-0.059,-0.11l-0.081,-0.165l-0.077,-0.174l-0.066,-0.169l-0.057,-0.163l-0.049,-0.159l-0.043,-0.156l-0.036,-0.153l-0.032,-0.153l-0.026,-0.153l-0.021,-0.156l-0.017,-0.161l-0.011,-0.169l-0.004,-0.163l0.002,-0.135l0.004,-0.118l0.007,-0.117l0.01,-0.117l0.013,-0.116l0.016,-0.116l0.018,-0.115l0.021,-0.114l0.024,-0.112l0.026,-0.112l0.029,-0.111l0.032,-0.108l0.034,-0.108l0.036,-0.106l0.038,-0.104l0.04,-0.103l0.043,-0.101l0.044,-0.099l0.046,-0.097l0.049,-0.096l0.049,-0.093l0.051,-0.091l0.053,-0.09l0.053,-0.087l0.056,-0.086l0.056,-0.084l0.058,-0.081l0.058,-0.08l0.059,-0.077l0.069,-0.087l0.113,-0.135l0.1,-0.11l0.103,-0.106l0.107,-0.102l0.109,-0.098l0.113,-0.093l0.115,-0.089l0.116,-0.083l0.118,-0.079l0.119,-0.075l0.121,-0.069l0.121,-0.065l0.121,-0.06l0.121,-0.056l0.122,-0.051l0.12,-0.047l0.121,-0.044l0.048,-0.015l-0.005,-0.003l-0.166,-0.11l-0.165,-0.113l-0.161,-0.116l-0.16,-0.118l-0.156,-0.121l-0.154,-0.124l-0.151,-0.127l-0.149,-0.131l-0.145,-0.133l-0.143,-0.137l-0.138,-0.139l-0.132,-0.14l-0.128,-0.14l-0.124,-0.144l-0.122,-0.146l-0.117,-0.15l-0.115,-0.152l-0.11,-0.155l-0.107,-0.158l-0.102,-0.161l-0.098,-0.163l-0.094,-0.165l-0.09,-0.168l-0.085,-0.17l-0.08,-0.172l-0.076,-0.174l-0.07,-0.175l-0.066,-0.177l-0.061,-0.178l-0.056,-0.178l-0.051,-0.179l-0.047,-0.18l-0.041,-0.18l-0.038,-0.18l-0.032,-0.18l-0.028,-0.18l-0.024,-0.179l-0.02,-0.179l-0.016,-0.178l-0.012,-0.178l-0.009,-0.177l-0.005,-0.176l-0.001,-0.179l0.002,-0.162l0.005,-0.165l0.01,-0.166l0.013,-0.165l0.017,-0.165l0.021,-0.165l0.024,-0.164l0.029,-0.164l0.033,-0.164l0.036,-0.163l0.041,-0.162l0.044,-0.161l0.048,-0.16l0.052,-0.159l0.056,-0.158l0.06,-0.157l0.064,-0.155l0.067,-0.153l0.071,-0.153l0.075,-0.15l0.078,-0.149l0.082,-0.146l0.086,-0.145l0.089,-0.143l0.092,-0.141l0.095,-0.138l0.099,-0.136l0.101,-0.134l0.105,-0.132l0.108,-0.129l0.11,-0.127l0.065,-0.072l0.067,-0.077l0.115,-0.128l0.068,-0.072l-0.104,-0.126l-0.104,-0.134l-0.101,-0.136l-0.095,-0.138l-0.092,-0.14l-0.086,-0.141l-0.082,-0.143l-0.078,-0.144l-0.073,-0.144l-0.069,-0.146l-0.065,-0.146l-0.06,-0.146l-0.056,-0.147l-0.053,-0.148l-0.048,-0.147l-0.045,-0.148l-0.04,-0.147l-0.037,-0.148l-0.033,-0.147l-0.03,-0.147l-0.027,-0.147l-0.022,-0.146l-0.02,-0.146l-0.017,-0.145l-0.013,-0.145l-0.01,-0.145l-0.007,-0.144l-0.005,-0.143l-0.001,-0.142l0.001,-0.115l0.003,-0.114l0.005,-0.113l0.007,-0.111l0.009,-0.111l0.01,-0.11l0.013,-0.109l0.013,-0.108l0.016,-0.107l0.017,-0.105l0.019,-0.105l0.02,-0.104l0.021,-0.103l0.023,-0.102l0.025,-0.101l0.025,-0.1l0.027,-0.099l0.028,-0.098l0.029,-0.097l0.03,-0.097l0.032,-0.095l0.032,-0.094l0.034,-0.093l0.034,-0.092l0.036,-0.092l0.04,-0.099l0.072,-0.17l0.079,-0.174l0.067,-0.139l0.068,-0.132l0.074,-0.127l0.08,-0.124l0.09,-0.133l0.115,-0.16l0.113,-0.151l0.066,-0.085l0.062,-0.077l0.063,-0.077l0.064,-0.076l0.065,-0.076l0.066,-0.075l0.067,-0.074l0.067,-0.073l0.069,-0.073l0.07,-0.072l0.07,-0.071l0.077,-0.077l0.139,-0.133l0.148,-0.135l0.152,-0.133l0.154,-0.13l0.157,-0.127l0.16,-0.124l0.142,-0.107l0.119,-0.085l0.122,-0.079l0.137,-0.083l0.155,-0.092l0.163,-0.094l0.172,-0.096l0.179,-0.097l0.181,-0.093l0.103,-0.052l0.099,-0.048l0.101,-0.048l0.103,-0.047l0.105,-0.047l0.107,-0.047l0.109,-0.046l0.111,-0.045l0.113,-0.045l0.115,-0.044l0.117,-0.043l0.119,-0.041l0.12,-0.041l0.123,-0.04l0.125,-0.039l0.126,-0.038l0.128,-0.036l0.131,-0.035l0.132,-0.034l0.131,-0.031l0.224,-0.052l0.225,-0.049l0.227,-0.047l0.231,-0.045l0.234,-0.042l0.238,-0.04l0.236,-0.037l0.127,-0.018l0.123,-0.016l0.124,-0.016l0.125,-0.015l0.126,-0.014l0.127,-0.013l0.127,-0.012l0.129,-0.011l0.129,-0.01l0.131,-0.01l0.131,-0.008l0.133,-0.007l0.133,-0.006l0.135,-0.005l0.135,-0.004l0.136,-0.003l0.138,-0.002l0.139,0l0.236,0.001Zm-0.35,2.999l-0.113,0.002l-0.111,0.002l-0.111,0.003l-0.109,0.004l-0.109,0.005l-0.107,0.006l-0.107,0.007l-0.106,0.007l-0.105,0.009l-0.105,0.009l-0.103,0.009l-0.103,0.011l-0.103,0.011l-0.101,0.013l-0.102,0.012l-0.1,0.014l-0.1,0.014l-0.199,0.031l-0.197,0.033l-0.196,0.035l-0.195,0.038l-0.194,0.04l-0.193,0.043l-0.193,0.044l-0.096,0.023l-0.094,0.024l-0.092,0.025l-0.091,0.026l-0.09,0.026l-0.088,0.028l-0.086,0.028l-0.085,0.029l-0.084,0.029l-0.082,0.03l-0.082,0.031l-0.079,0.032l-0.079,0.032l-0.077,0.033l-0.077,0.033l-0.075,0.034l-0.074,0.034l-0.073,0.034l-0.072,0.035l-0.071,0.036l-0.139,0.072l-0.135,0.073l-0.132,0.074l-0.13,0.074l-0.126,0.075l-0.124,0.076l-0.121,0.09l-0.116,0.091l-0.112,0.091l-0.109,0.091l-0.104,0.092l-0.101,0.092l-0.097,0.093l-0.047,0.047l-0.047,0.047l-0.045,0.047l-0.045,0.047l-0.044,0.048l-0.044,0.048l-0.042,0.049l-0.042,0.048l-0.041,0.049l-0.04,0.05l-0.04,0.049l-0.039,0.05l-0.076,0.101l-0.074,0.103l-0.071,0.105l-0.052,0.106l-0.049,0.109l-0.047,0.11l-0.022,0.055l-0.022,0.056l-0.021,0.056l-0.02,0.057l-0.02,0.057l-0.019,0.057l-0.018,0.058l-0.017,0.057l-0.017,0.059l-0.015,0.058l-0.015,0.058l-0.014,0.059l-0.014,0.059l-0.012,0.059l-0.011,0.06l-0.011,0.059l-0.01,0.06l-0.008,0.06l-0.008,0.06l-0.007,0.06l-0.006,0.06l-0.004,0.06l-0.004,0.06l-0.003,0.06l-0.001,0.061l-0.001,0.06l0.001,0.083l0.002,0.083l0.004,0.083l0.006,0.082l0.008,0.083l0.009,0.082l0.011,0.082l0.013,0.082l0.015,0.081l0.016,0.081l0.018,0.081l0.02,0.08l0.022,0.079l0.024,0.079l0.026,0.078l0.027,0.078l0.03,0.077l0.031,0.076l0.033,0.076l0.036,0.074l0.037,0.074l0.039,0.073l0.042,0.071l0.043,0.071l0.046,0.07l0.047,0.068l0.05,0.068l0.051,0.066l0.054,0.065l0.056,0.064l0.058,0.062l0.061,0.061l0.062,0.06l0.064,0.061l0.066,0.06l0.067,0.06l0.069,0.06l0.071,0.061l0.073,0.06l0.075,0.059l0.076,0.06l0.079,0.06l0.08,0.059l0.083,0.06l0.085,0.059l0.086,0.059l0.089,0.059l0.091,0.058l0.093,0.059l0.096,0.058l0.098,0.058l0.1,0.057l0.102,0.057l0.105,0.057l0.107,0.057l0.109,0.056l0.112,0.056l0.115,0.055l0.117,0.056l0.119,0.054l0.123,0.055l0.124,0.054l0.128,0.053l0.13,0.053l-0.148,0.053l-0.145,0.055l-0.142,0.055l-0.14,0.056l-0.137,0.057l-0.134,0.058l-0.132,0.059l-0.129,0.06l-0.126,0.06l-0.124,0.062l-0.121,0.063l-0.119,0.063l-0.116,0.065l-0.114,0.066l-0.111,0.066l-0.109,0.067l-0.106,0.069l-0.104,0.069l-0.101,0.07l-0.099,0.071l-0.097,0.073l-0.094,0.073l-0.092,0.074l-0.089,0.075l-0.087,0.075l-0.085,0.077l-0.082,0.078l-0.081,0.079l-0.078,0.079l-0.075,0.081l-0.074,0.081l-0.071,0.083l-0.069,0.076l-0.067,0.077l-0.065,0.077l-0.062,0.079l-0.061,0.079l-0.058,0.081l-0.056,0.081l-0.053,0.082l-0.052,0.083l-0.049,0.084l-0.047,0.084l-0.045,0.085l-0.043,0.087l-0.041,0.086l-0.038,0.088l-0.036,0.088l-0.034,0.089l-0.032,0.09l-0.03,0.09l-0.027,0.091l-0.025,0.092l-0.023,0.092l-0.021,0.093l-0.019,0.093l-0.016,0.094l-0.015,0.095l-0.012,0.095l-0.009,0.096l-0.008,0.096l-0.006,0.097l-0.003,0.097l-0.001,0.098l0.001,0.12l0.003,0.119l0.006,0.117l0.008,0.116l0.01,0.114l0.013,0.114l0.015,0.112l0.017,0.111l0.02,0.109l0.022,0.109l0.025,0.107l0.028,0.107l0.03,0.105l0.033,0.104l0.035,0.104l0.038,0.102l0.041,0.101l0.044,0.101l0.046,0.099l0.049,0.099l0.052,0.098l0.056,0.097l0.058,0.096l0.061,0.096l0.064,0.094l0.067,0.095l0.07,0.093l0.073,0.093l0.077,0.092l0.079,0.092l0.083,0.091l0.086,0.091l0.089,0.09l0.093,0.089l0.096,0.088l0.099,0.088l0.103,0.086l0.106,0.086l0.11,0.084l0.113,0.084l0.116,0.083l0.12,0.082l0.123,0.082l0.127,0.08l0.13,0.08l0.133,0.079l0.138,0.079l0.14,0.077l0.145,0.077l0.148,0.077l0.151,0.075l0.155,0.075l0.159,0.074l0.163,0.074l0.166,0.073l0.169,0.072l0.174,0.072l0.177,0.071l0.181,0.071l0.185,0.07l0.188,0.07l0.192,0.069l0.196,0.069l0.2,0.068l0.208,0.067l0.204,0.067l0.2,0.067l0.195,0.067l0.191,0.065l0.186,0.066l0.181,0.065l0.178,0.065l0.172,0.064l0.168,0.064l0.164,0.064l0.159,0.063l0.154,0.063l0.15,0.063l0.145,0.063l0.141,0.062l0.135,0.062l0.132,0.062l0.126,0.062l0.122,0.061l0.117,0.062l0.112,0.061l0.108,0.061l0.102,0.061l0.098,0.06l0.093,0.061l0.089,0.061l0.083,0.06l0.079,0.061l0.037,0.03l0.036,0.03l0.035,0.03l0.034,0.03l0.033,0.03l0.031,0.031l0.061,0.06l0.059,0.06l0.057,0.061l0.055,0.06l0.054,0.06l0.052,0.061l0.051,0.06l0.048,0.06l0.047,0.061l0.045,0.06l0.043,0.06l0.042,0.06l0.039,0.061l0.038,0.06l0.036,0.06l0.033,0.061l0.032,0.06l0.03,0.06l0.028,0.061l0.026,0.06l0.025,0.06l0.022,0.061l0.02,0.06l0.018,0.06l0.016,0.061l0.014,0.06l0.011,0.06l0.01,0.061l0.008,0.06l0.005,0.06l0.003,0.061l0.001,0.06l-0.001,0.075l-0.003,0.074l-0.006,0.073l-0.007,0.072l-0.01,0.072l-0.013,0.071l-0.014,0.069l-0.017,0.07l-0.019,0.068l-0.022,0.068l-0.024,0.067l-0.026,0.067l-0.029,0.065l-0.031,0.066l-0.034,0.065l-0.036,0.064l-0.039,0.064l-0.041,0.063l-0.043,0.063l-0.046,0.063l-0.049,0.062l-0.051,0.062l-0.053,0.062l-0.057,0.061l-0.059,0.061l-0.061,0.061l-0.064,0.061l-0.067,0.061l-0.069,0.06l-0.073,0.061l-0.074,0.06l-0.078,0.06l-0.071,0.052l-0.073,0.051l-0.074,0.049l-0.076,0.048l-0.077,0.046l-0.078,0.045l-0.081,0.043l-0.081,0.042l-0.083,0.04l-0.084,0.039l-0.086,0.037l-0.087,0.036l-0.088,0.034l-0.089,0.032l-0.091,0.031l-0.091,0.029l-0.093,0.027l-0.093,0.026l-0.095,0.024l-0.096,0.023l-0.097,0.02l-0.097,0.019l-0.099,0.018l-0.099,0.015l-0.1,0.014l-0.101,0.012l-0.102,0.01l-0.102,0.008l-0.104,0.007l-0.103,0.004l-0.105,0.003l-0.105,0.001l-0.069,-0.001l-0.067,-0.002l-0.065,-0.004l-0.063,-0.005l-0.062,-0.006l-0.06,-0.007l-0.117,-0.015l-0.112,-0.015l-0.109,-0.013l-0.053,-0.005l-0.053,-0.004l-0.053,-0.002l-0.053,-0.001l-0.074,0l-0.081,-0.002l-0.085,-0.002l-0.043,-0.003l-0.044,-0.003l-0.044,-0.005l-0.043,-0.005l-0.043,-0.006l-0.043,-0.008l-0.041,-0.009l-0.039,-0.011l-0.038,-0.013l-0.037,-0.014l-0.14,-0.242l-0.07,-0.124l-0.07,-0.126l-0.07,-0.131l-0.071,-0.135l-0.07,-0.14l-0.035,-0.073l-0.035,-0.074l-0.035,-0.062l-0.035,-0.062l-0.07,-0.129l-0.071,-0.131l-0.07,-0.129l-0.07,-0.126l-0.035,-0.061l-0.035,-0.058l-0.035,-0.056l-0.035,-0.054l-0.035,-0.051l-0.035,-0.047l-0.037,-0.045l-0.038,-0.045l-0.04,-0.045l-0.042,-0.046l-0.043,-0.045l-0.046,-0.045l-0.046,-0.045l-0.048,-0.046l-0.098,-0.09l-0.102,-0.091l-0.104,-0.09l-0.105,-0.091l-0.027,-0.022l-0.027,-0.021l-0.027,-0.02l-0.029,-0.02l-0.028,-0.018l-0.03,-0.018l-0.03,-0.017l-0.03,-0.016l-0.031,-0.015l-0.032,-0.014l-0.032,-0.014l-0.032,-0.012l-0.034,-0.012l-0.033,-0.012l-0.034,-0.01l-0.035,-0.01l-0.036,-0.009l-0.036,-0.008l-0.036,-0.008l-0.037,-0.007l-0.076,-0.012l-0.078,-0.01l-0.08,-0.007l-0.082,-0.005l-0.084,-0.003l-0.087,-0.001l-0.061,0l-0.06,0.002l-0.058,0.002l-0.058,0.003l-0.056,0.005l-0.056,0.005l-0.054,0.006l-0.053,0.007l-0.052,0.008l-0.051,0.009l-0.05,0.01l-0.049,0.011l-0.048,0.011l-0.046,0.013l-0.046,0.014l-0.044,0.014l-0.043,0.016l-0.043,0.016l-0.041,0.018l-0.04,0.018l-0.039,0.02l-0.038,0.02l-0.036,0.021l-0.036,0.022l-0.034,0.023l-0.034,0.024l-0.032,0.025l-0.032,0.026l-0.03,0.027l-0.029,0.028l-0.028,0.029l-0.027,0.029l-0.051,0.062l-0.025,0.031l-0.024,0.032l-0.024,0.032l-0.023,0.033l-0.022,0.033l-0.022,0.034l-0.021,0.034l-0.02,0.035l-0.02,0.035l-0.019,0.035l-0.018,0.036l-0.017,0.037l-0.017,0.037l-0.016,0.037l-0.015,0.038l-0.014,0.039l-0.013,0.039l-0.012,0.039l-0.012,0.04l-0.01,0.04l-0.01,0.041l-0.009,0.041l-0.008,0.042l-0.006,0.042l-0.006,0.043l-0.005,0.043l-0.004,0.043l-0.002,0.044l-0.002,0.045l0,0.045l0.001,0.047l0.003,0.05l0.005,0.053l0.008,0.056l0.01,0.057l0.012,0.059l0.014,0.06l0.017,0.06l0.018,0.061l0.021,0.059l0.023,0.059l0.025,0.058l0.028,0.055l0.014,0.027l0.016,0.026l0.015,0.026l0.016,0.025l0.017,0.024l0.017,0.023l0.037,0.046l0.038,0.048l0.041,0.049l0.044,0.051l0.046,0.053l0.049,0.054l0.053,0.055l0.055,0.056l0.059,0.057l0.062,0.058l0.065,0.058l0.07,0.059l0.073,0.06l0.077,0.06l0.081,0.06l0.086,0.06l0.044,0.03l0.045,0.029l0.045,0.028l0.046,0.027l0.047,0.026l0.047,0.026l0.047,0.025l0.049,0.024l0.049,0.024l0.05,0.023l0.102,0.045l0.105,0.044l0.108,0.042l0.111,0.041l0.115,0.04l0.118,0.04l0.122,0.041l0.256,0.082l0.272,0.087l0.071,0.023l0.072,0.021l0.072,0.02l0.074,0.02l0.076,0.018l0.076,0.018l0.077,0.017l0.078,0.015l0.08,0.016l0.081,0.014l0.081,0.014l0.083,0.012l0.084,0.012l0.085,0.011l0.086,0.011l0.087,0.01l0.088,0.009l0.09,0.008l0.09,0.008l0.092,0.007l0.186,0.012l0.191,0.01l0.195,0.007l0.2,0.005l0.204,0.003l0.208,0.001l0.122,0l0.121,-0.002l0.118,-0.002l0.118,-0.003l0.115,-0.004l0.115,-0.005l0.113,-0.006l0.111,-0.007l0.11,-0.007l0.109,-0.009l0.107,-0.009l0.106,-0.009l0.105,-0.011l0.104,-0.011l0.103,-0.013l0.101,-0.012l0.1,-0.014l0.1,-0.014l0.098,-0.015l0.097,-0.016l0.096,-0.016l0.096,-0.017l0.094,-0.017l0.094,-0.018l0.185,-0.038l0.182,-0.04l0.179,-0.043l0.176,-0.044l0.174,-0.06l0.169,-0.061l0.165,-0.061l0.162,-0.062l0.158,-0.063l0.156,-0.063l0.153,-0.066l0.15,-0.067l0.148,-0.069l0.146,-0.071l0.145,-0.073l0.143,-0.076l0.071,-0.039l0.071,-0.04l0.071,-0.04l0.07,-0.041l0.07,-0.043l0.071,-0.042l0.07,-0.044l0.07,-0.045l0.121,-0.091l0.116,-0.09l0.057,-0.046l0.055,-0.046l0.055,-0.046l0.054,-0.046l0.052,-0.046l0.052,-0.046l0.051,-0.047l0.05,-0.048l0.049,-0.047l0.048,-0.048l0.048,-0.048l0.046,-0.049l0.046,-0.049l0.045,-0.05l0.044,-0.05l0.043,-0.051l0.042,-0.052l0.042,-0.052l0.041,-0.053l0.041,-0.053l0.039,-0.054l0.039,-0.055l0.039,-0.055l0.037,-0.057l0.038,-0.057l0.036,-0.058l0.036,-0.059l0.035,-0.06l0.035,-0.06l0.033,-0.061l0.033,-0.06l0.031,-0.06l0.03,-0.061l0.029,-0.06l0.028,-0.061l0.027,-0.061l0.026,-0.061l0.024,-0.061l0.024,-0.061l0.022,-0.061l0.022,-0.062l0.02,-0.061l0.019,-0.062l0.018,-0.062l0.017,-0.062l0.016,-0.063l0.015,-0.063l0.014,-0.063l0.012,-0.063l0.012,-0.064l0.01,-0.064l0.01,-0.065l0.008,-0.064l0.007,-0.066l0.006,-0.065l0.005,-0.066l0.004,-0.066l0.003,-0.067l0.001,-0.067l0.001,-0.068l-0.001,-0.09l-0.003,-0.089l-0.004,-0.088l-0.006,-0.087l-0.007,-0.087l-0.009,-0.085l-0.011,-0.085l-0.013,-0.084l-0.015,-0.083l-0.016,-0.082l-0.019,-0.081l-0.02,-0.081l-0.021,-0.08l-0.024,-0.079l-0.026,-0.078l-0.027,-0.078l-0.03,-0.077l-0.031,-0.076l-0.034,-0.076l-0.035,-0.075l-0.037,-0.074l-0.04,-0.074l-0.041,-0.073l-0.043,-0.072l-0.046,-0.072l-0.047,-0.071l-0.05,-0.071l-0.052,-0.07l-0.054,-0.07l-0.056,-0.069l-0.058,-0.068l-0.06,-0.068l-0.062,-0.068l-0.064,-0.066l-0.066,-0.066l-0.068,-0.064l-0.069,-0.064l-0.072,-0.063l-0.074,-0.061l-0.076,-0.061l-0.079,-0.06l-0.081,-0.059l-0.083,-0.058l-0.086,-0.057l-0.089,-0.056l-0.091,-0.055l-0.094,-0.054l-0.098,-0.054l-0.1,-0.052l-0.103,-0.051l-0.107,-0.051l-0.109,-0.049l-0.113,-0.049l-0.117,-0.047l-0.12,-0.047l-0.124,-0.046l-0.127,-0.044l-0.131,-0.044l-0.136,-0.043l-0.139,-0.042l-0.143,-0.041l-0.147,-0.04l-0.151,-0.039l-0.156,-0.038l0.131,-0.039l0.13,-0.041l0.129,-0.042l0.127,-0.044l0.126,-0.046l0.126,-0.048l0.123,-0.05l0.123,-0.051l0.121,-0.053l0.119,-0.055l0.118,-0.057l0.117,-0.058l0.115,-0.061l0.114,-0.061l0.112,-0.064l0.111,-0.065l0.108,-0.067l0.108,-0.068l0.105,-0.07l0.104,-0.072l0.102,-0.073l0.1,-0.075l0.098,-0.076l0.096,-0.078l0.095,-0.08l0.092,-0.081l0.091,-0.082l0.088,-0.084l0.087,-0.086l0.084,-0.087l0.082,-0.088l0.08,-0.09l0.078,-0.09l0.076,-0.091l0.073,-0.09l0.071,-0.091l0.069,-0.091l0.067,-0.091l0.064,-0.091l0.062,-0.091l0.06,-0.092l0.057,-0.092l0.055,-0.092l0.053,-0.092l0.05,-0.093l0.048,-0.093l0.045,-0.094l0.043,-0.094l0.04,-0.094l0.038,-0.095l0.036,-0.096l0.033,-0.096l0.03,-0.097l0.028,-0.097l0.025,-0.098l0.023,-0.098l0.02,-0.1l0.017,-0.1l0.015,-0.101l0.012,-0.101l0.01,-0.103l0.007,-0.103l0.004,-0.104l0.001,-0.105l-0.001,-0.106l-0.004,-0.105l-0.007,-0.104l-0.01,-0.104l-0.012,-0.103l-0.015,-0.103l-0.017,-0.102l-0.02,-0.102l-0.023,-0.101l-0.025,-0.1l-0.028,-0.1l-0.03,-0.099l-0.033,-0.099l-0.036,-0.097l-0.038,-0.098l-0.04,-0.096l-0.043,-0.096l-0.045,-0.095l-0.048,-0.094l-0.05,-0.094l-0.053,-0.093l-0.055,-0.092l-0.057,-0.091l-0.06,-0.09l-0.062,-0.09l-0.064,-0.089l-0.067,-0.088l-0.069,-0.087l-0.071,-0.086l-0.073,-0.085l-0.076,-0.085l-0.078,-0.083l-0.08,-0.083l-0.084,-0.082l-0.087,-0.082l-0.091,-0.081l-0.093,-0.081l-0.097,-0.08l-0.1,-0.079l-0.103,-0.079l-0.107,-0.079l-0.109,-0.077l-0.113,-0.078l-0.115,-0.076l-0.119,-0.076l-0.122,-0.075l-0.125,-0.075l-0.127,-0.074l-0.131,-0.073l-0.134,-0.072l-0.137,-0.072l-0.14,-0.071l-0.143,-0.07l-0.145,-0.07l-0.149,-0.068l-0.152,-0.068l-0.154,-0.067l-0.157,-0.066l-0.16,-0.066l-0.163,-0.064l-0.166,-0.063l-0.169,-0.063l-0.171,-0.062l-0.174,-0.061l-0.25,-0.09l-0.259,-0.092l-0.544,-0.19l-0.285,-0.1l-0.294,-0.105l-0.302,-0.11l-0.155,-0.058l-0.157,-0.059l-0.157,-0.06l-0.154,-0.061l-0.151,-0.06l-0.149,-0.06l-0.145,-0.061l-0.142,-0.06l-0.138,-0.06l-0.133,-0.061l-0.13,-0.06l-0.125,-0.06l-0.119,-0.061l-0.115,-0.06l-0.109,-0.06l-0.103,-0.061l-0.05,-0.03l-0.047,-0.03l-0.047,-0.03l-0.044,-0.03l-0.087,-0.061l-0.085,-0.06l-0.082,-0.06l-0.08,-0.061l-0.078,-0.06l-0.075,-0.06l-0.074,-0.061l-0.071,-0.06l-0.069,-0.06l-0.067,-0.061l-0.065,-0.06l-0.062,-0.06l-0.061,-0.061l-0.058,-0.06l-0.056,-0.06l-0.053,-0.06l-0.051,-0.075l-0.046,-0.073l-0.042,-0.072l-0.02,-0.035l-0.018,-0.036l-0.018,-0.035l-0.017,-0.035l-0.015,-0.036l-0.015,-0.035l-0.014,-0.035l-0.013,-0.035l-0.012,-0.036l-0.012,-0.036l-0.01,-0.036l-0.01,-0.036l-0.009,-0.036l-0.008,-0.037l-0.008,-0.038l-0.006,-0.037l-0.006,-0.039l-0.006,-0.038l-0.008,-0.08l-0.006,-0.082l-0.004,-0.085l-0.001,-0.089l0.001,-0.075l0.004,-0.075l0.005,-0.074l0.008,-0.074l0.01,-0.073l0.012,-0.072l0.014,-0.073l0.017,-0.071l0.018,-0.071l0.021,-0.07l0.023,-0.07l0.025,-0.069l0.028,-0.068l0.029,-0.068l0.032,-0.067l0.034,-0.066l0.036,-0.066l0.039,-0.065l0.04,-0.064l0.043,-0.063l0.045,-0.063l0.047,-0.062l0.049,-0.061l0.052,-0.06l0.054,-0.06l0.056,-0.058l0.058,-0.058l0.06,-0.057l0.063,-0.056l0.064,-0.055l0.067,-0.054l0.069,-0.053l0.071,-0.052l0.072,-0.051l0.073,-0.049l0.074,-0.048l0.075,-0.046l0.077,-0.045l0.077,-0.043l0.079,-0.042l0.08,-0.04l0.082,-0.039l0.082,-0.037l0.084,-0.036l0.086,-0.034l0.086,-0.032l0.088,-0.031l0.089,-0.029l0.091,-0.027l0.092,-0.026l0.093,-0.024l0.095,-0.023l0.096,-0.02l0.098,-0.019l0.099,-0.018l0.101,-0.015l0.102,-0.014l0.104,-0.012l0.105,-0.01l0.107,-0.008l0.108,-0.007l0.11,-0.004l0.112,-0.003l0.113,-0.001l0.053,0.001l0.052,0.002l0.053,0.004l0.053,0.005l0.052,0.006l0.053,0.007l0.21,0.03l0.053,0.007l0.053,0.006l0.052,0.005l0.053,0.004l0.053,0.002l0.052,0.001l0.105,0l0.104,0.002l0.102,0.002l0.05,0.003l0.049,0.003l0.047,0.005l0.047,0.005l0.045,0.006l0.043,0.008l0.042,0.009l0.04,0.011l0.039,0.013l0.036,0.014l0.051,0.074l0.05,0.073l0.047,0.071l0.045,0.07l0.043,0.068l0.04,0.066l0.039,0.066l0.036,0.065l0.034,0.063l0.031,0.063l0.03,0.062l0.028,0.062l0.025,0.061l0.023,0.061l0.021,0.06l0.037,0.121l0.021,0.06l0.023,0.06l0.025,0.061l0.027,0.06l0.03,0.06l0.032,0.061l0.034,0.06l0.036,0.06l0.038,0.061l0.041,0.06l0.043,0.06l0.045,0.061l0.047,0.06l0.049,0.06l0.052,0.061l0.074,0.093l0.04,0.049l0.042,0.05l0.044,0.05l0.045,0.05l0.046,0.05l0.048,0.05l0.049,0.048l0.049,0.047l0.051,0.046l0.051,0.043l0.052,0.042l0.052,0.038l0.053,0.036l0.026,0.016l0.026,0.016l0.027,0.022l0.027,0.021l0.028,0.02l0.028,0.02l0.028,0.018l0.029,0.018l0.03,0.017l0.03,0.016l0.03,0.015l0.031,0.014l0.031,0.014l0.032,0.012l0.031,0.012l0.033,0.012l0.032,0.01l0.033,0.01l0.066,0.017l0.067,0.015l0.069,0.012l0.068,0.01l0.07,0.007l0.069,0.005l0.07,0.003l0.071,0.001l0.104,-0.001l0.102,-0.003l0.1,-0.005l0.097,-0.008l0.048,-0.005l0.048,-0.006l0.046,-0.007l0.047,-0.007l0.046,-0.008l0.045,-0.009l0.044,-0.01l0.045,-0.011l0.043,-0.012l0.043,-0.013l0.043,-0.013l0.042,-0.015l0.041,-0.016l0.041,-0.017l0.04,-0.018l0.04,-0.019l0.039,-0.021l0.039,-0.021l0.038,-0.023l0.037,-0.024l0.037,-0.026l0.037,-0.026l0.036,-0.028l0.035,-0.03l0.052,-0.061l0.025,-0.032l0.024,-0.031l0.024,-0.033l0.023,-0.032l0.022,-0.034l0.022,-0.033l0.021,-0.034l0.02,-0.035l0.02,-0.035l0.019,-0.036l0.018,-0.036l0.017,-0.036l0.017,-0.037l0.015,-0.038l0.015,-0.038l0.014,-0.038l0.014,-0.039l0.012,-0.039l0.012,-0.04l0.01,-0.041l0.01,-0.04l0.008,-0.042l0.008,-0.041l0.007,-0.042l0.006,-0.043l0.004,-0.043l0.004,-0.044l0.003,-0.044l0.002,-0.044l0,-0.045l-0.001,-0.047l-0.003,-0.048l-0.006,-0.049l-0.007,-0.051l-0.01,-0.053l-0.012,-0.054l-0.015,-0.055l-0.016,-0.056l-0.019,-0.057l-0.021,-0.058l-0.023,-0.058l-0.025,-0.059l-0.027,-0.06l-0.03,-0.06l-0.032,-0.06l-0.034,-0.06l-0.017,-0.037l-0.019,-0.037l-0.019,-0.035l-0.019,-0.035l-0.02,-0.034l-0.021,-0.033l-0.021,-0.033l-0.022,-0.031l-0.022,-0.032l-0.023,-0.031l-0.047,-0.06l-0.049,-0.058l-0.052,-0.057l-0.053,-0.056l-0.056,-0.056l-0.058,-0.055l-0.061,-0.055l-0.062,-0.056l-0.065,-0.057l-0.136,-0.117l-0.089,-0.046l-0.091,-0.045l-0.093,-0.045l-0.097,-0.045l-0.099,-0.046l-0.102,-0.045l-0.104,-0.045l-0.109,-0.045l-0.111,-0.046l-0.115,-0.045l-0.118,-0.045l-0.122,-0.045l-0.126,-0.046l-0.13,-0.045l-0.134,-0.045l-0.138,-0.045l-0.07,-0.023l-0.072,-0.021l-0.073,-0.02l-0.074,-0.02l-0.075,-0.018l-0.077,-0.018l-0.077,-0.017l-0.078,-0.015l-0.08,-0.016l-0.08,-0.014l-0.082,-0.014l-0.083,-0.012l-0.084,-0.012l-0.085,-0.011l-0.086,-0.011l-0.087,-0.01l-0.088,-0.009l-0.09,-0.008l-0.09,-0.008l-0.092,-0.007l-0.186,-0.012l-0.191,-0.01l-0.195,-0.007l-0.2,-0.005l-0.204,-0.003l-0.208,-0.001l-0.113,0Zm-0.814,23.621l0.082,0.15l0.018,-0.002l0.046,-0.005l0.045,-0.006l0.044,-0.007l0.044,-0.008l0.002,0l-0.022,-0.011l-0.097,-0.046l-0.104,-0.047l-0.063,-0.028l0.005,0.01Zm2,-16.979l0.052,0.031l-0.052,-0.038l-0.048,-0.032l0.048,0.039Z" style="fill:#008ebd;"/></g><path d="M159.058,44.737c-1.217,0.402 -2.059,0.965 -2.527,1.609c-0.467,0.643 -0.748,1.367 -0.748,2.171c0,1.046 0.468,1.931 1.403,2.655c0.936,0.724 2.433,1.367 4.492,2.091c1.216,-0.563 1.965,-1.206 2.433,-1.85c0.468,-0.643 0.748,-1.367 0.748,-2.091c0,-0.965 -0.467,-1.85 -1.497,-2.574c-0.935,-0.805 -2.433,-1.448 -4.304,-2.011Z" style="fill:#008ebd;fill-rule:nonzero;"/></g></svg>