<?xml version="1.0" encoding="UTF-8" standalone="no"?><!DOCTYPE svg PUBLIC "-//W3C//DTD SVG 1.1//EN" "http://www.w3.org/Graphics/SVG/1.1/DTD/svg11.dtd"><svg width="100%" height="100%" viewBox="0 0 263 91" version="1.1" xmlns="http://www.w3.org/2000/svg" xmlns:xlink="http://www.w3.org/1999/xlink" xml:space="preserve" xmlns:serif="http://www.serif.com/" style="fill-rule:evenodd;clip-rule:evenodd;stroke-linejoin:round;stroke-miterlimit:10;"><rect x="0" y="0" width="262.5" height="90.138" style="fill:#008ebd;"/><path d="M153.51,15.545l0,21.756l-53.954,0l0,-17.472l0,-4.284l53.954,0m0,-1.5l-12.338,0l-29.279,0l-12.338,0c-0.829,0 -1.5,0.671 -1.5,1.5l0,21.756c0,0.829 0.671,1.5 1.5,1.5l53.954,0c0.829,0 1.5,-0.671 1.5,-1.5l0,-17.472l0,-4.284c0.001,-0.828 -0.67,-1.5 -1.499,-1.5Z" style="fill:#fff;fill-rule:nonzero;"/><g><path d="M147.358,33.511c0,-1.646 -1.334,-2.979 -2.978,-2.979l-0.215,0c-2.089,0 -3.781,1.693 -3.781,3.78l-0.16,5.101l-0.354,11.237c-0.08,0.347 -0.126,8.16 -0.126,8.16c-0.661,-0.673 -1.396,-1.443 -2.057,-2.181c-1.542,-1.72 -4.375,-2.879 -6.259,-3.093c-0.993,-0.114 -1.75,0.021 -2.254,0.401c-0.161,0.123 -0.32,0.261 -0.468,0.409c-0.972,0.957 -1.706,2.503 -1.027,3.636c0.293,0.495 18.011,16.624 18.011,16.624c1.431,0.906 4.035,1.754 7.043,1.754c3.002,0 5.729,0.18 7.745,-1.593l0.108,0l0.053,-0.135c2.051,-1.878 3.326,-4.48 3.326,-7.358l0,-3.829l0,-9.929c0,-0.675 -0.149,-2.935 -2.049,-3.613c-0.914,-0.325 -1.777,-0.202 -2.513,0.115l-0.171,0.008l-0.054,0.003c-0.33,-1.241 -1.155,-2.043 -2.376,-2.256c-1.475,-0.255 -2.497,0.186 -3.111,0.631c-0.611,-1.313 -1.836,-1.997 -3.494,-1.858c-1.243,0.105 -2.168,0.716 -2.839,1.521l0,-8.466l0,-6.09l0,0Z" style="fill:#008ebd;fill-rule:nonzero;stroke:#fff;stroke-width:1.5px;"/><path d="M147.43,48.437l0,3.481" style="fill:none;fill-rule:nonzero;stroke:#fff;stroke-width:1.5px;stroke-linecap:round;"/><path d="M153.521,48.437l0,5.222" style="fill:none;fill-rule:nonzero;stroke:#fff;stroke-width:1.5px;stroke-linecap:round;"/><path d="M159.178,50.178l0,5.221" style="fill:none;fill-rule:nonzero;stroke:#fff;stroke-width:1.5px;stroke-linecap:round;"/></g><g id="layer101"><path d="M122.679,34.082c-0.613,-0.093 -1.18,-0.337 -1.66,-0.717c-0.144,-0.113 -0.435,-0.404 -0.548,-0.546c-0.347,-0.441 -0.588,-0.969 -0.698,-1.526c-0.039,-0.202 -0.042,-0.245 -0.042,-0.64c-0.002,-0.342 0.004,-0.452 0.026,-0.573c0.115,-0.606 0.319,-1.078 0.673,-1.553c0.084,-0.11 0.608,-0.647 1.973,-2.014c1.023,-1.026 1.929,-1.922 2.01,-1.991c0.501,-0.426 1.127,-0.7 1.794,-0.79c0.278,-0.037 0.786,-0.026 1.053,0.022c0.758,0.137 1.394,0.482 1.955,1.063c0.182,0.188 0.251,0.299 0.291,0.463c0.066,0.279 -0.01,0.558 -0.209,0.769c-0.204,0.218 -0.508,0.31 -0.796,0.241c-0.19,-0.044 -0.255,-0.086 -0.494,-0.312c-0.122,-0.118 -0.281,-0.253 -0.353,-0.3c-0.604,-0.403 -1.37,-0.406 -1.973,-0.009c-0.149,0.099 -0.304,0.249 -1.933,1.87c-0.975,0.97 -1.824,1.824 -1.888,1.896c-0.135,0.154 -0.221,0.281 -0.295,0.433c-0.309,0.642 -0.21,1.4 0.259,1.949c0.373,0.44 0.965,0.678 1.528,0.62c0.099,-0.011 0.242,-0.036 0.319,-0.058c0.168,-0.047 0.45,-0.185 0.576,-0.281c0.052,-0.039 0.593,-0.565 1.204,-1.17l1.111,-1.1l0.182,0.072c0.372,0.149 0.718,0.207 1.128,0.191c0.284,-0.012 0.474,-0.048 0.755,-0.146c0.113,-0.039 0.218,-0.075 0.235,-0.08c0.043,-0.011 -3.239,3.274 -3.429,3.435c-0.503,0.426 -1.136,0.705 -1.786,0.788c-0.265,0.035 -0.72,0.032 -0.968,-0.006Z" style="fill:#fff;fill-rule:nonzero;"/><path d="M127.654,29.107c-0.502,-0.077 -0.973,-0.252 -1.378,-0.516c-0.246,-0.162 -0.369,-0.262 -0.617,-0.51c-0.193,-0.193 -0.229,-0.237 -0.279,-0.342c-0.303,-0.636 0.261,-1.344 0.94,-1.182c0.191,0.046 0.259,0.088 0.494,0.312c0.121,0.117 0.28,0.251 0.352,0.299c0.607,0.404 1.375,0.408 1.974,0.009c0.148,-0.099 0.317,-0.262 2.023,-1.965c1.991,-1.985 1.946,-1.938 2.093,-2.244c0.421,-0.877 0.06,-1.927 -0.816,-2.374c-0.226,-0.115 -0.552,-0.196 -0.792,-0.196c-0.342,0 -0.73,0.119 -1.023,0.315c-0.065,0.042 -0.498,0.463 -1.221,1.185c-0.617,0.617 -1.13,1.12 -1.141,1.12c-0.01,0 -0.077,-0.025 -0.148,-0.056c-0.166,-0.071 -0.386,-0.135 -0.587,-0.173c-0.213,-0.041 -0.704,-0.041 -0.913,-0.001c-0.179,0.034 -0.384,0.092 -0.537,0.153c-0.064,0.026 -0.122,0.044 -0.13,0.043c-0.023,-0.008 3.393,-3.407 3.534,-3.515c0.509,-0.391 1.077,-0.628 1.701,-0.711c0.302,-0.041 0.802,-0.027 1.097,0.029c1.409,0.27 2.497,1.358 2.767,2.767c0.056,0.295 0.071,0.796 0.03,1.097c-0.09,0.667 -0.363,1.289 -0.79,1.795c-0.191,0.226 -3.815,3.837 -3.973,3.958c-0.507,0.389 -1.083,0.631 -1.692,0.71c-0.265,0.034 -0.72,0.031 -0.968,-0.007Z" style="fill:#fff;fill-rule:nonzero;"/></g></svg>