<?xml version="1.0" encoding="utf-8"?>
<!-- Generator: Adobe Illustrator 22.1.0, SVG Export Plug-In . SVG Version: 6.00 Build 0)  -->
<svg version="1.1" id="Ebene_1" xmlns="http://www.w3.org/2000/svg" xmlns:xlink="http://www.w3.org/1999/xlink" x="0px" y="0px"
	 viewBox="0 0 350 120" style="enable-background:new 0 0 350 120;" xml:space="preserve">
<style type="text/css">
	.st0{fill:#008EBD;}
</style>
<g>
	<path class="st0" d="M0,0v120h350V0H0z M211,111.5c-8,0-14.6-5.9-15.8-13.5H139c-1.1,0-2-0.9-2-2V24c0-1.1,0.9-2,2-2h72
		c1.1,0,2,0.9,2,2v55.6c7.9,1,14,7.7,14,15.9C227,104.3,219.8,111.5,211,111.5z"/>
	<path class="st0" d="M213,81.7c-0.3,0-0.6-0.1-0.9-0.1c-0.4,0-0.7-0.1-1.1-0.1c-7.7,0-14,6.3-14,14c0,0.2,0,0.3,0,0.5
		c0,0.7,0.1,1.3,0.2,2c1.2,6.5,6.9,11.5,13.8,11.5c7.7,0,14-6.3,14-14C225,88.4,219.8,82.6,213,81.7z M210.2,103.5
		c-1.8,1.8-4.8,1.8-6.7,0c-1.8-1.8-1.8-4.8,0-6.7l3.3-3.3c1.8-1.8,4.8-1.8,6.7,0c0.3,0.3,0.5,0.6,0.7,1l-1.6,1.6
		c-0.1,0.1-0.2,0.1-0.3,0.2c-0.1-0.4-0.3-0.7-0.6-1c-0.9-0.9-2.4-0.9-3.3,0l-3.3,3.3c-0.9,0.9-0.9,2.4,0,3.3c0.9,0.9,2.4,0.9,3.3,0
		l1.2-1.2c1,0.4,2,0.5,3,0.3L210.2,103.5z M218.5,95.2l-3.3,3.3c-1.8,1.8-4.8,1.8-6.7,0c-0.3-0.3-0.5-0.6-0.7-1l1.6-1.6
		c0.1-0.1,0.2-0.1,0.3-0.2c0.1,0.4,0.3,0.7,0.6,1c0.9,0.9,2.4,0.9,3.3,0l3.3-3.3c0.9-0.9,0.9-2.4,0-3.3c-0.9-0.9-2.4-0.9-3.3,0
		l-1.2,1.2c-1-0.4-2-0.5-3-0.3l2.5-2.5c1.8-1.8,4.8-1.8,6.7,0C220.4,90.3,220.4,93.3,218.5,95.2z"/>
	<path class="st0" d="M211,79.5V24h-72v72h56c0-0.2,0-0.3,0-0.5C195,86.7,202.2,79.5,211,79.5z M160.1,83.3l-3.6,2.3
		c-0.7,0.5-1.3,0.1-1.3-0.7v-4.7c0-0.9,0.6-1.2,1.3-0.7l3.6,2.3C160.9,82.1,160.9,82.9,160.1,83.3z M160.1,72.3l-3.6,2.3
		c-0.7,0.5-1.3,0.1-1.3-0.7v-4.7c0-0.9,0.6-1.2,1.3-0.7l3.6,2.3C160.9,71.1,160.9,71.9,160.1,72.3z M160.1,61.3l-3.6,2.3
		c-0.7,0.5-1.3,0.1-1.3-0.7v-4.7c0-0.9,0.6-1.2,1.3-0.7l3.6,2.3C160.9,60.1,160.9,60.9,160.1,61.3z M160.1,50.3l-3.6,2.3
		c-0.7,0.5-1.3,0.1-1.3-0.7v-4.7c0-0.9,0.6-1.2,1.3-0.7l3.6,2.3C160.9,49.1,160.9,49.9,160.1,50.3z M160.1,39.3l-3.6,2.3
		c-0.7,0.5-1.3,0.1-1.3-0.7v-4.7c0-0.9,0.6-1.2,1.3-0.7l3.6,2.3C160.9,38.1,160.9,38.9,160.1,39.3z M193.3,83.5h-26
		c-0.5,0-1-0.4-1-1c0-0.5,0.4-1,1-1h26c0.5,0,1,0.4,1,1C194.3,83.1,193.8,83.5,193.3,83.5z M193.3,72.5h-26c-0.5,0-1-0.4-1-1
		c0-0.5,0.4-1,1-1h26c0.5,0,1,0.4,1,1C194.3,72.1,193.8,72.5,193.3,72.5z M193.3,61.5h-26c-0.5,0-1-0.4-1-1c0-0.5,0.4-1,1-1h26
		c0.5,0,1,0.4,1,1C194.3,61.1,193.8,61.5,193.3,61.5z M193.3,50.5h-26c-0.5,0-1-0.4-1-1c0-0.5,0.4-1,1-1h26c0.5,0,1,0.4,1,1
		C194.3,50.1,193.8,50.5,193.3,50.5z M193.3,39.5h-26c-0.5,0-1-0.4-1-1c0-0.5,0.4-1,1-1h26c0.5,0,1,0.4,1,1
		C194.3,39.1,193.8,39.5,193.3,39.5z"/>
</g>
</svg>
