<?xml version="1.0" encoding="utf-8"?>
<!-- Generator: Adobe Illustrator 22.1.0, SVG Export Plug-In . SVG Version: 6.00 Build 0)  -->
<svg version="1.1" id="Ebene_1" xmlns="http://www.w3.org/2000/svg" xmlns:xlink="http://www.w3.org/1999/xlink" x="0px" y="0px"
	 viewBox="0 0 350 120" style="enable-background:new 0 0 350 120;" xml:space="preserve">
<style type="text/css">
	.st0{fill:#008EBD;}
</style>
<g>
	<path class="st0" d="M139,96h72V24h-72V96z M169.3,37.5h24c0.5,0,1,0.4,1,1c0,0.6-0.4,1-1,1h-24c-0.5,0-1-0.4-1-1
		C168.3,37.9,168.7,37.5,169.3,37.5z M169.3,48.5h24c0.5,0,1,0.4,1,1c0,0.6-0.4,1-1,1h-24c-0.5,0-1-0.4-1-1
		C168.3,48.9,168.7,48.5,169.3,48.5z M169.3,59.5h24c0.5,0,1,0.4,1,1c0,0.6-0.4,1-1,1h-24c-0.5,0-1-0.4-1-1
		C168.3,59.9,168.7,59.5,169.3,59.5z M169.3,70.5h24c0.5,0,1,0.4,1,1c0,0.6-0.4,1-1,1h-24c-0.5,0-1-0.4-1-1
		C168.3,70.9,168.7,70.5,169.3,70.5z M169.3,81.5h24c0.5,0,1,0.4,1,1c0,0.6-0.4,1-1,1h-24c-0.5,0-1-0.4-1-1
		C168.3,81.9,168.7,81.5,169.3,81.5z M154,37.4c0.4-0.4,1.1-0.4,1.5,0l1.4,1.4l4.4-3.6c0.4-0.4,1.1-0.3,1.4,0.2
		c0.4,0.4,0.3,1.1-0.2,1.5l-5.2,4.1c-0.2,0.2-0.4,0.2-0.6,0.2c-0.3,0-0.5-0.1-0.7-0.3l-2.1-2.1C153.6,38.4,153.6,37.8,154,37.4z
		 M154,48.4c0.4-0.4,1.1-0.4,1.5,0l1.4,1.4l4.4-3.6c0.4-0.4,1.1-0.3,1.4,0.2c0.4,0.4,0.3,1.1-0.2,1.5l-5.2,4.1
		c-0.2,0.2-0.4,0.2-0.6,0.2c-0.3,0-0.5-0.1-0.7-0.3l-2.1-2.1C153.6,49.4,153.6,48.8,154,48.4z M154,59.4c0.4-0.4,1.1-0.4,1.5,0
		l1.4,1.4l4.4-3.6c0.4-0.4,1.1-0.3,1.4,0.2c0.4,0.4,0.3,1.1-0.2,1.5l-5.2,4.1c-0.2,0.2-0.4,0.2-0.6,0.2c-0.3,0-0.5-0.1-0.7-0.3
		l-2.1-2.1C153.6,60.4,153.6,59.8,154,59.4z M154,70.4c0.4-0.4,1.1-0.4,1.5,0l1.4,1.4l4.4-3.6c0.4-0.4,1.1-0.3,1.4,0.2
		c0.4,0.4,0.3,1.1-0.2,1.5l-5.2,4.1c-0.2,0.2-0.4,0.2-0.6,0.2c-0.3,0-0.5-0.1-0.7-0.3l-2.1-2.1C153.6,71.4,153.6,70.8,154,70.4z
		 M154,81.4c0.4-0.4,1.1-0.4,1.5,0l1.4,1.4l4.4-3.6c0.4-0.4,1.1-0.3,1.4,0.2c0.4,0.4,0.3,1.1-0.2,1.5l-5.2,4.1
		c-0.2,0.2-0.4,0.2-0.6,0.2c-0.3,0-0.5-0.1-0.7-0.3l-2.1-2.1C153.6,82.4,153.6,81.8,154,81.4z"/>
	<path class="st0" d="M0,0v120h350V0H0z M213,96c0,1.1-0.9,2-2,2h-72c-1.1,0-2-0.9-2-2V24c0-1.1,0.9-2,2-2h72c1.1,0,2,0.9,2,2V96z"
		/>
</g>
</svg>
