<?xml version="1.0" encoding="utf-8"?>
<!-- Generator: Adobe Illustrator 23.0.1, SVG Export Plug-In . SVG Version: 6.00 Build 0)  -->
<svg version="1.1" id="Ebene_1" xmlns="http://www.w3.org/2000/svg" xmlns:xlink="http://www.w3.org/1999/xlink" x="0px" y="0px"
	 viewBox="0 0 350 120" style="enable-background:new 0 0 350 120;" xml:space="preserve">
<style type="text/css">
	.st0{fill:#008EBD;}
</style>
<g>
	<path class="st0" d="M176.55,46.86c-0.46-0.46-1.11-0.73-1.77-0.73c-0.06,0-0.11,0.01-0.17,0.01l-12.35,0.82
		c-0.21,0.02-0.38,0.18-0.39,0.39l-0.34,5.09c0.21,0.04,0.42,0.08,0.64,0.1c1.59,0.16,3-0.29,3.99-1.28c0.45-0.45,1.17-0.45,1.61,0
		c0.45,0.45,0.45,1.17,0,1.61c-1.29,1.29-3.03,1.97-4.97,1.97c-0.27,0-0.56-0.02-0.84-0.05c-0.19-0.02-0.38-0.05-0.57-0.08
		l-0.33,4.97c-0.05,0.72,0.22,1.42,0.73,1.94l17.09,17.09c0.65,0.65,1.51,1.01,2.43,1.01s1.78-0.36,2.43-1.01l9.91-9.91
		c0.65-0.65,1.01-1.51,1.01-2.43c0-0.92-0.36-1.78-1.01-2.43L176.55,46.86z"/>
	<path class="st0" d="M0,0v120h350V0H0z M187.3,17.64h7.79c0.56,0,1.02,0.46,1.02,1.02s-0.46,1.02-1.02,1.02h-7.79
		c-0.56,0-1.02-0.46-1.02-1.02S186.73,17.64,187.3,17.64z M190.81,24.9h4.28c0.56,0,1.02,0.46,1.02,1.02h0
		c0,0.56-0.46,1.02-1.02,1.02h-4.28c-0.56,0-1.02-0.46-1.02-1.02S190.25,24.9,190.81,24.9z M189.21,23.3
		c-0.56,0-1.02-0.46-1.02-1.02c0-0.56,0.46-1.02,1.02-1.02h5.88c0.56,0,1.02,0.46,1.02,1.02c0,0.56-0.46,1.02-1.02,1.02H189.21z
		 M195.25,70.42l-9.9,9.9c-1.08,1.07-2.52,1.67-4.04,1.67s-2.96-0.59-4.04-1.67l-17.09-17.09c-0.98-0.98-1.49-2.33-1.4-3.7l0.36-5.5
		c-1.17-0.51-2.27-1.26-3.22-2.21c-1.69-1.69-2.74-3.83-2.96-6.02c-0.23-2.29,0.46-4.35,1.94-5.83c2.98-2.98,8.3-2.52,11.86,1.02
		c0.45,0.45,0.45,1.17,0,1.61c-0.45,0.45-1.17,0.45-1.61,0c-2.67-2.66-6.53-3.12-8.63-1.02c-0.99,0.99-1.44,2.4-1.28,3.99
		c0.17,1.67,0.99,3.31,2.31,4.63c0.54,0.54,1.14,1,1.77,1.36l0.29-4.39c0.09-1.34,1.17-2.42,2.51-2.51l12.35-0.82
		c0.1-0.01,0.21-0.01,0.31-0.01c1.27,0,2.48,0.5,3.38,1.4l17.08,17.09c1.08,1.07,1.68,2.51,1.69,4.04
		C196.92,67.9,196.33,69.34,195.25,70.42z M201.56,31.84c-2.36,0.36-4.76-0.14-6.77-1.43c-0.05-0.03-0.09-0.06-0.13-0.1
		c-0.54-0.45-0.61-1.26-0.15-1.8c0.41-0.48,1.12-0.59,1.66-0.25c2.56,1.6,5.83,1.48,8.27-0.31c3.27-2.41,3.97-7.01,1.56-10.28
		s-7.01-3.97-10.28-1.56c-0.55,0.37-1.29,0.25-1.7-0.26c-0.44-0.55-0.35-1.35,0.2-1.79c1.34-0.99,2.92-1.62,4.57-1.84v-0.96h-0.99
		c-0.04,0-0.08,0-0.12-0.01c-0.7-0.07-1.22-0.7-1.15-1.4c0.09-0.67,0.66-1.16,1.33-1.15h4.46c0.04,0,0.08,0,0.11,0.01
		c0.7,0.07,1.22,0.7,1.15,1.4c-0.09,0.67-0.66,1.16-1.33,1.15h-0.92v0.96c1.75,0.23,3.41,0.92,4.81,2.01l1.06-1.06
		c0.21-0.21,0.48-0.36,0.77-0.4c0.11-0.01,0.22-0.01,0.33,0c0.7,0.09,1.2,0.73,1.11,1.43c-0.04,0.29-0.18,0.57-0.4,0.77l-1.06,1.07
		c1.34,1.75,2.06,3.9,2.03,6.11C209.88,27,206.34,31.08,201.56,31.84z M200.3,24.03c-1.09,0.15-2.09-0.61-2.25-1.7
		c-0.15-1.09,0.61-2.09,1.7-2.25c0.19-0.03,0.37-0.03,0.56,0l2.81-2.25c0.34-0.28,0.85-0.22,1.13,0.12c0.24,0.29,0.24,0.71,0,1.01
		v0.01l-2.25,2.81C202.15,22.87,201.39,23.87,200.3,24.03z"/>
</g>
</svg>
