<?xml version="1.0" encoding="UTF-8" standalone="no"?><!DOCTYPE svg PUBLIC "-//W3C//DTD SVG 1.1//EN" "http://www.w3.org/Graphics/SVG/1.1/DTD/svg11.dtd"><svg width="100%" height="100%" viewBox="0 0 263 91" version="1.1" xmlns="http://www.w3.org/2000/svg" xmlns:xlink="http://www.w3.org/1999/xlink" xml:space="preserve" xmlns:serif="http://www.serif.com/" style="fill-rule:evenodd;clip-rule:evenodd;stroke-linecap:round;stroke-linejoin:round;stroke-miterlimit:1.5;"><rect x="0" y="0" width="262.5" height="90.138" style="fill:#008ebd;"/><path d="M131.23,10.141c8.824,-0.011 15.996,7.144 16.007,15.967c0.011,8.824 -7.144,15.996 -15.967,16.007c-8.824,0.011 -15.996,-7.144 -16.007,-15.967c-0.011,-8.824 7.144,-15.996 15.967,-16.007Z" style="fill:none;stroke:#fff;stroke-width:1.5px;"/><g><path d="M146.789,29.953c4.168,-0.006 7.557,3.375 7.562,7.544c0.006,4.169 -3.375,7.557 -7.544,7.562c-4.168,0.006 -7.557,-3.375 -7.562,-7.544c-0.006,-4.168 3.375,-7.557 7.544,-7.562Z" style="fill:#008ebd;stroke:#fff;stroke-width:1.5px;"/><path d="M148.37,36.291c0,0.289 -0.235,0.523 -0.524,0.523l-2.096,0c-0.289,0 -0.524,-0.234 -0.524,-0.523l0,-1.329c0,-0.762 0.706,-1.383 1.572,-1.383c0.866,0 1.572,0.623 1.572,1.383l0,1.329Zm-1.572,-3.636c-1.444,0 -2.62,1.033 -2.62,2.307l0,1.326c0,0.29 -0.235,0.524 -0.524,0.524c-0.289,0 -0.524,0.235 -0.524,0.524l0,3.571c0,0.29 0.235,0.524 0.524,0.524l6.288,0c0.289,0 0.524,-0.234 0.524,-0.524l0,-3.571c0,-0.289 -0.235,-0.524 -0.524,-0.524c-0.289,0 -0.524,-0.234 -0.524,-0.524l0,-1.326c0,-1.27 -1.173,-2.307 -2.62,-2.307Z" style="fill:#fff;"/></g><path d="M102.973,71.413c0,0.247 -0.2,0.446 -0.447,0.446l-1.788,0c-0.246,0 -0.446,-0.199 -0.446,-0.446l0,-1.133c0,-0.65 0.602,-1.18 1.34,-1.18c0.739,0 1.341,0.531 1.341,1.18l0,1.133Zm-1.341,-3.101c-1.231,0 -2.234,0.881 -2.234,1.968l0,1.131c0,0.247 -0.2,0.446 -0.447,0.446c-0.246,0 -0.447,0.2 -0.447,0.448l0,3.045c0,0.247 0.201,0.446 0.447,0.446l5.363,0c0.246,0 0.447,-0.199 0.447,-0.446l0,-3.045c0,-0.248 -0.201,-0.448 -0.447,-0.448c-0.247,0 -0.447,-0.199 -0.447,-0.446l0,-1.131c0,-1.083 -1.001,-1.968 -2.235,-1.968Z" style="fill:#fff;"/><g><rect x="95.699" y="48.75" width="71.102" height="12.382" style="fill:none;stroke:#fff;stroke-width:1.5px;"/><g><rect x="113.106" y="54.566" width="0.75" height="0.75" style="fill:none;stroke:#fff;stroke-width:1.5px;"/><rect x="116.106" y="54.566" width="0.75" height="0.75" style="fill:none;stroke:#fff;stroke-width:1.5px;"/><rect x="119.106" y="54.566" width="0.75" height="0.75" style="fill:none;stroke:#fff;stroke-width:1.5px;"/><rect x="122.106" y="54.566" width="0.75" height="0.75" style="fill:none;stroke:#fff;stroke-width:1.5px;"/><rect x="125.106" y="54.566" width="0.75" height="0.75" style="fill:none;stroke:#fff;stroke-width:1.5px;"/><rect x="110.106" y="54.566" width="0.75" height="0.75" style="fill:none;stroke:#fff;stroke-width:1.5px;"/></g></g><g><path d="M101.194,51.195c1.015,-0.24 2.034,0.39 2.273,1.405c0.24,1.014 -0.389,2.033 -1.404,2.273c-1.015,0.239 -2.034,-0.39 -2.273,-1.405c-0.24,-1.015 0.389,-2.034 1.404,-2.273Z" style="fill:#fff;"/><path d="M104.76,56.668c-0.036,-0.754 -0.501,-1.394 -1.146,-1.651c-0.536,0.454 -1.228,0.729 -1.985,0.729c-0.753,0 -1.442,-0.271 -1.977,-0.721c-0.03,0.012 -0.06,0.023 -0.089,0.037c-0.012,0.005 -0.023,0.011 -0.034,0.016c-0.187,0.093 -0.356,0.218 -0.5,0.369c-0.009,0.009 -0.017,0.018 -0.026,0.027c-0.29,0.315 -0.475,0.735 -0.498,1.197c-0.001,0.031 -0.001,0.062 -0.001,0.093l0,1.942c0,0.04 0.037,0.031 0.075,0.031l6.128,0c0.038,0 0.053,0.009 0.053,-0.031l0,-1.942c0.001,-0.031 0.001,-0.065 0,-0.096Z" style="fill:#fff;fill-rule:nonzero;"/></g><g><rect x="95.699" y="66" width="71.102" height="12.382" style="fill:none;stroke:#fff;stroke-width:1.5px;"/><g><path id="Medical" d="M110.33,71.802l0,0.002l0.004,0l-0.004,-0.002l0,-0.735l0.447,0l0,0.735l-0.005,0.002l0.005,0l0,-0.002l0.593,-0.345l0.039,-0.023l0.022,0.039l0.179,0.312l0.022,0.039l-0.038,0.022l-0.594,0.345l0.594,0.345l0.038,0.022l-0.022,0.039l-0.179,0.312l-0.022,0.039l-0.039,-0.023l-0.593,-0.345l0,-0.002l-0.005,0l0.005,0.002l0,0.735l-0.447,0l0,-0.735l0.004,-0.002l-0.004,0l0,0.002l-0.594,0.345l-0.039,0.023l-0.022,-0.039l-0.179,-0.312l-0.022,-0.039l0.039,-0.022l0.593,-0.345l-0.593,-0.345l-0.039,-0.022l0.022,-0.039l0.179,-0.312l0.022,-0.039l0.039,0.023l0.594,0.345Zm-0.224,0.389l0,0c0,0 0,0 0,0Zm0.894,0c0,0 0,0 0,0l0,0Z" style="fill:#fff;"/><path id="Medical1" serif:id="Medical" d="M113.312,71.802l0,0.002l0.004,0l-0.004,-0.002l0,-0.735l0.447,0l0,0.735l-0.004,0.002l0.004,0l0,-0.002l0.594,-0.345l0.039,-0.023l0.022,0.039l0.179,0.312l0.022,0.039l-0.039,0.022l-0.593,0.345l0.593,0.345l0.039,0.022l-0.022,0.039l-0.179,0.312l-0.022,0.039l-0.039,-0.023l-0.594,-0.345l0,-0.002l-0.004,0l0.004,0.002l0,0.735l-0.447,0l0,-0.735l0.004,-0.002l-0.004,0l0,0.002l-0.593,0.345l-0.039,0.023l-0.022,-0.039l-0.179,-0.312l-0.022,-0.039l0.038,-0.022l0.594,-0.345l-0.594,-0.345l-0.038,-0.022l0.022,-0.039l0.179,-0.312l0.022,-0.039l0.039,0.023l0.593,0.345Zm-0.223,0.389l0,0c0,0 0,0 0,0Zm0.894,0c0,0 0,0 0,0l0,0Z" style="fill:#fff;"/><path id="Medical2" serif:id="Medical" d="M116.258,71.802l0,0.002l0.004,0l-0.004,-0.002l0,-0.735l0.447,0l0,0.735l-0.004,0.002l0.004,0l0,-0.002l0.593,-0.345l0.039,-0.023l0.022,0.039l0.179,0.312l0.022,0.039l-0.038,0.022l-0.594,0.345l0.594,0.345l0.038,0.022l-0.022,0.039l-0.179,0.312l-0.022,0.039l-0.039,-0.023l-0.593,-0.345l0,-0.002l-0.004,0l0.004,0.002l0,0.735l-0.447,0l0,-0.735l0.004,-0.002l-0.004,0l0,0.002l-0.594,0.345l-0.038,0.023l-0.023,-0.039l-0.179,-0.312l-0.022,-0.039l0.039,-0.022l0.593,-0.345l-0.593,-0.345l-0.039,-0.022l0.022,-0.039l0.179,-0.312l0.023,-0.039l0.038,0.023l0.594,0.345Zm-0.224,0.389l0,0c0,0 0,0 0,0Zm0.894,0c0,0 0,0 0,0l0,0Z" style="fill:#fff;"/><path id="Medical3" serif:id="Medical" d="M119.258,71.801l0,0.003l0.004,0l-0.004,-0.003l0,-0.734l0.447,0l0,0.734l-0.004,0.003l0.004,0l0,-0.003l0.593,-0.344l0.039,-0.023l0.022,0.039l0.179,0.312l0.022,0.039l-0.038,0.022l-0.594,0.345l0.594,0.345l0.038,0.022l-0.022,0.039l-0.179,0.312l-0.022,0.039l-0.039,-0.023l-0.593,-0.345l0,-0.002l-0.004,0l0.004,0.002l0,0.735l-0.447,0l0,-0.735l0.004,-0.002l-0.004,0l0,0.002l-0.594,0.345l-0.038,0.023l-0.023,-0.039l-0.179,-0.312l-0.022,-0.039l0.039,-0.022l0.593,-0.345l-0.593,-0.345l-0.039,-0.022l0.022,-0.039l0.179,-0.312l0.023,-0.039l0.038,0.023l0.594,0.344Zm-0.224,0.39l0,0c0,0 0,0 0,0Zm0.894,0c0,0 0,0 0,0l0,0Z" style="fill:#fff;"/><path id="Medical4" serif:id="Medical" d="M122.258,71.802l0,0.002l0.004,0l-0.004,-0.002l0,-0.735l0.447,0l0,0.735l-0.004,0.002l0.004,0l0,-0.002l0.593,-0.345l0.039,-0.023l0.022,0.039l0.179,0.312l0.022,0.039l-0.038,0.022l-0.594,0.345l0.594,0.345l0.038,0.022l-0.022,0.039l-0.179,0.312l-0.022,0.039l-0.039,-0.023l-0.593,-0.345l0,-0.002l-0.004,0l0.004,0.002l0,0.735l-0.447,0l0,-0.735l0.004,-0.002l-0.004,0l0,0.002l-0.594,0.345l-0.038,0.023l-0.023,-0.039l-0.179,-0.312l-0.022,-0.039l0.039,-0.022l0.593,-0.345l-0.593,-0.345l-0.039,-0.022l0.022,-0.039l0.179,-0.312l0.023,-0.039l0.038,0.023l0.594,0.345Zm-0.224,0.389l0,0c0,0 0,0 0,0Zm0.894,0c0,0 0,0 0,0l0,0Z" style="fill:#fff;"/><path id="Medical5" serif:id="Medical" d="M125.258,71.802l0,0.002l0.004,0l-0.004,-0.002l0,-0.735l0.447,0l0,0.735l-0.004,0.002l0.004,0l0,-0.002l0.593,-0.345l0.039,-0.023l0.022,0.039l0.179,0.312l0.022,0.039l-0.038,0.022l-0.594,0.345l0.594,0.345l0.038,0.022l-0.022,0.039l-0.179,0.312l-0.022,0.039l-0.039,-0.023l-0.593,-0.345l0,-0.002l-0.004,0l0.004,0.002l0,0.735l-0.447,0l0,-0.735l0.004,-0.002l-0.004,0l0,0.002l-0.594,0.345l-0.038,0.023l-0.023,-0.039l-0.179,-0.312l-0.022,-0.039l0.039,-0.022l0.593,-0.345l-0.593,-0.345l-0.039,-0.022l0.022,-0.039l0.179,-0.312l0.023,-0.039l0.038,0.023l0.594,0.345Zm-0.224,0.389l0,0c0,0 0,0 0,0Zm0.894,0c0,0 0,0 0,0l0,0Z" style="fill:#fff;"/></g></g><g><path d="M130.235,16.701c2.351,-0.555 4.71,0.903 5.265,3.254c0.555,2.351 -0.903,4.71 -3.253,5.265c-2.351,0.555 -4.71,-0.903 -5.265,-3.254c-0.556,-2.351 0.902,-4.71 3.253,-5.265Z" style="fill:#fff;"/><path d="M138.494,29.379c-0.083,-1.747 -1.16,-3.228 -2.654,-3.825c-1.24,1.052 -2.844,1.69 -4.598,1.69c-1.744,0 -3.34,-0.63 -4.578,-1.671c-0.07,0.028 -0.14,0.053 -0.208,0.085c-0.027,0.012 -0.052,0.025 -0.079,0.038c-0.431,0.214 -0.822,0.504 -1.158,0.854c-0.02,0.021 -0.039,0.042 -0.059,0.064c-0.672,0.729 -1.102,1.7 -1.153,2.771c-0.003,0.072 -0.003,0.144 -0.003,0.216l0,4.498c0,0.093 0.086,0.072 0.174,0.072l14.192,0c0.089,0 0.125,0.021 0.125,-0.072l0,-4.498c0.001,-0.072 0.002,-0.15 -0.001,-0.222Z" style="fill:#fff;fill-rule:nonzero;"/></g></svg>