<?xml version="1.0" encoding="iso-8859-1"?>
<!-- Generator: Adobe Illustrator 23.0.1, SVG Export Plug-In . SVG Version: 6.00 Build 0)  -->
<svg version="1.1" id="Ebene_1" xmlns="http://www.w3.org/2000/svg" xmlns:xlink="http://www.w3.org/1999/xlink" x="0px" y="0px"
	 viewBox="0 0 350 120" style="enable-background:new 0 0 350 120;" xml:space="preserve">
<rect style="fill:#008EBD;" width="350" height="120"/>
<g>
	<g>
		<path style="fill:#FFFFFF;" d="M205.825,18.799v5.712v23.296h-71.939V24.511v-5.712h16.451h39.038H205.825 M205.825,16.799
			h-16.451h-39.038h-16.451c-1.105,0-2,0.895-2,2v5.712v23.296c0,1.105,0.895,2,2,2h71.939c1.105,0,2-0.895,2-2V24.511v-5.712
			C207.825,17.695,206.929,16.799,205.825,16.799L205.825,16.799z"/>
	</g>
	<g>
		<path style="fill:#008EBD;stroke:#FFFFFF;stroke-width:2;stroke-linejoin:round;stroke-miterlimit:10;" d="M195.477,45.681
			c0-2.194-1.778-3.971-3.971-3.971h-0.286c-2.785,0-5.042,2.257-5.042,5.04l-0.213,6.801l-0.472,14.983
			c-0.107,0.462-0.168,10.88-0.168,10.88c-0.881-0.898-1.861-1.925-2.742-2.908c-2.056-2.294-5.834-3.839-8.346-4.125
			c-1.323-0.152-2.333,0.029-3.005,0.535c-0.215,0.164-0.426,0.348-0.624,0.545c-1.296,1.276-2.274,3.338-1.369,4.849
			c0.391,0.66,24.015,22.165,24.015,22.165c1.908,1.208,5.38,2.338,9.39,2.338c4.003,0,7.639,0.24,10.327-2.124h0.144l0.071-0.179
			c2.734-2.504,4.434-5.974,4.434-9.811c0-0.949,0-4.448,0-5.106V72.354c0-0.899-0.198-3.913-2.732-4.817
			c-1.218-0.433-2.369-0.269-3.35,0.154l-0.229,0.01l-0.071,0.005c-0.441-1.655-1.541-2.724-3.169-3.008
			c-1.966-0.34-3.329,0.247-4.148,0.841c-0.814-1.751-2.448-2.663-4.658-2.477c-1.658,0.14-2.891,0.954-3.785,2.027V53.802V45.681z"
			/>
		
			<line style="fill:none;stroke:#FFFFFF;stroke-width:2;stroke-linecap:round;stroke-linejoin:round;stroke-miterlimit:10;" x1="195.573" y1="65.583" x2="195.573" y2="70.224"/>
		
			<line style="fill:none;stroke:#FFFFFF;stroke-width:2;stroke-linecap:round;stroke-linejoin:round;stroke-miterlimit:10;" x1="203.695" y1="65.583" x2="203.695" y2="72.545"/>
		
			<line style="fill:none;stroke:#FFFFFF;stroke-width:2;stroke-linecap:round;stroke-linejoin:round;stroke-miterlimit:10;" x1="211.237" y1="67.904" x2="211.237" y2="74.865"/>
	</g>
	<g>
		<g>
			
				<line style="fill:none;stroke:#FFFFFF;stroke-width:2;stroke-linecap:round;stroke-miterlimit:10;" x1="167.855" y1="33.303" x2="185.962" y2="33.303"/>
			<path style="fill:none;stroke:#FFFFFF;stroke-width:2;stroke-linecap:round;stroke-miterlimit:10;" d="M180.538,26.912
				l5.961,5.318c0.439,0.392,0.477,1.065,0.086,1.504l-5.318,5.961"/>
		</g>
		<path style="fill:none;stroke:#FFFFFF;stroke-width:2;stroke-linecap:round;stroke-linejoin:round;stroke-miterlimit:10;" d="
			M175.855,30v-2.697c0-1.657-1.03-3-2.3-3h-18.4c-1.27,0-2.3,1.343-2.3,3v12c0,1.657,1.03,3,2.3,3h18.4
			c1.239,0,2.25-1.278,2.298-2.879c0.001-0.04,0.002-0.08,0.002-0.121V37"/>
	</g>
</g>
</svg>
