<?xml version="1.0" encoding="UTF-8" standalone="no"?><!DOCTYPE svg PUBLIC "-//W3C//DTD SVG 1.1//EN" "http://www.w3.org/Graphics/SVG/1.1/DTD/svg11.dtd"><svg width="100%" height="100%" viewBox="0 0 350 120" version="1.1" xmlns="http://www.w3.org/2000/svg" xmlns:xlink="http://www.w3.org/1999/xlink" xml:space="preserve" xmlns:serif="http://www.serif.com/" style="fill-rule:evenodd;clip-rule:evenodd;stroke-linecap:round;stroke-linejoin:round;stroke-miterlimit:1.5;"><g><rect x="0" y="0" width="350" height="120" style="fill:#008ebd;"/><path id="Brief" d="M215.544,26.056c0,-2.869 -2.329,-5.199 -5.198,-5.199l-87.004,0c-2.869,0 -5.198,2.33 -5.198,5.199l0,51.576c0,2.869 2.329,5.199 5.198,5.199l87.004,0c2.869,0 5.198,-2.33 5.198,-5.199l0,-51.576Z" style="fill:none;"/><clipPath id="_clip1"><path d="M215.544,26.056c0,-2.869 -2.329,-5.199 -5.198,-5.199l-87.004,0c-2.869,0 -5.198,2.33 -5.198,5.199l0,51.576c0,2.869 2.329,5.199 5.198,5.199l87.004,0c2.869,0 5.198,-2.33 5.198,-5.199l0,-51.576Z"/></clipPath><g clip-path="url(#_clip1)"><path d="M214.16,81.212l-32.132,-32.079" style="fill:none;stroke:#fff;stroke-width:2px;"/><path d="M212.944,23.357l-45.885,37.989" style="fill:none;stroke:#fff;stroke-width:2px;"/><path d="M166.844,61.107l-15.109,-11.969" style="fill:none;stroke:#fff;stroke-width:2px;"/><path d="M120.444,23.357l31.291,25.781" style="fill:none;stroke:#fff;stroke-width:2px;"/><path d="M120.544,80.357l31.191,-31.219" style="fill:none;stroke:#fff;stroke-width:2px;"/></g><path d="M215.544,26.056c0,-2.869 -2.329,-5.199 -5.198,-5.199l-87.004,0c-2.869,0 -5.198,2.33 -5.198,5.199l0,51.576c0,2.869 2.329,5.199 5.198,5.199l87.004,0c2.869,0 5.198,-2.33 5.198,-5.199l0,-51.576Z" style="fill:none;stroke:#fff;stroke-width:2px;"/><g><path d="M215.524,66.519c9.003,-0.011 16.321,7.289 16.332,16.292c0.011,9.002 -7.289,16.32 -16.292,16.332c-9.003,0.011 -16.321,-7.289 -16.332,-16.292c-0.011,-9.003 7.289,-16.321 16.292,-16.332Z" style="fill:#008ebd;stroke:#fff;stroke-width:2px;"/></g><path d="M208.547,92.562c-1.008,0 -1.979,-0.176 -2.718,-0.983c-1.546,-1.546 -1.546,-4.101 0,-5.714l11.429,-11.43c2.085,-2.084 5.514,-2.084 7.598,0c2.084,2.084 2.084,5.513 0,7.597l-8.606,8.606l-0.941,-0.941l8.538,-8.539c1.547,-1.546 1.547,-4.101 0,-5.714c-1.546,-1.547 -4.101,-1.547 -5.715,0l-11.429,11.429c-0.538,0.538 -0.807,1.21 -0.807,1.883c0,0.739 0.269,1.411 0.807,1.882c1.076,1.076 2.492,0.847 3.567,-0.229l8.804,-8.309c0.538,-0.538 0.538,-1.345 0,-1.883c-0.538,-0.538 -0.345,-0.538 -0.883,0l-6.332,5.859l-0.837,-0.683l6.291,-6.15c1.076,-1.076 1.694,-1.11 2.769,-0.034c1.076,1.075 1.045,2.309 -0.031,3.385l-9.072,8.593c-0.739,0.807 -1.423,1.375 -2.432,1.375Z" style="fill:#fff;fill-rule:nonzero;stroke:#fff;stroke-width:0.6px;stroke-linecap:butt;stroke-miterlimit:2;"/></g></svg>