<?xml version="1.0" encoding="UTF-8" standalone="no"?><!DOCTYPE svg PUBLIC "-//W3C//DTD SVG 1.1//EN" "http://www.w3.org/Graphics/SVG/1.1/DTD/svg11.dtd"><svg width="100%" height="100%" viewBox="0 0 350 120" version="1.1" xmlns="http://www.w3.org/2000/svg" xmlns:xlink="http://www.w3.org/1999/xlink" xml:space="preserve" xmlns:serif="http://www.serif.com/" style="fill-rule:evenodd;clip-rule:evenodd;stroke-linecap:round;stroke-linejoin:round;stroke-miterlimit:1.5;"><g><rect x="0" y="0" width="350" height="120" style="fill:#008ebd;"/><path d="M139,47l-7.741,0c-3.455,0 -6.259,2.804 -6.259,6.259l0,51.482c0,3.455 2.804,6.259 6.259,6.259l87.482,0c3.455,0 6.259,-2.804 6.259,-6.259l0,-51.482c0,-3.455 -2.804,-6.259 -6.259,-6.259l-7.741,0" style="fill:none;stroke:#fff;stroke-width:2px;"/><path d="M211,10l-72,0l0,49l36,30l36,-30l0,-49Z" style="fill:none;stroke:#fff;stroke-width:2px;"/><path d="M127,49l48,40l48,-40" style="fill:none;stroke:#fff;stroke-width:2px;"/><path d="M127,109l32,-32" style="fill:none;stroke:#fff;stroke-width:2px;"/><path d="M191,77l32,32" style="fill:none;stroke:#fff;stroke-width:2px;"/><rect x="146" y="16" width="59" height="8" style="fill:none;stroke:#fff;stroke-width:2px;"/><rect x="146" y="30" width="59" height="8" style="fill:none;stroke:#fff;stroke-width:2px;"/><path d="M205,44l-59,0l0,20.893l5,4.107l48,0l6,-4.954l0,-20.046Z" style="fill:none;stroke:#fff;stroke-width:2px;"/></g></svg>