<?xml version="1.0" encoding="UTF-8" standalone="no"?><!DOCTYPE svg PUBLIC "-//W3C//DTD SVG 1.1//EN" "http://www.w3.org/Graphics/SVG/1.1/DTD/svg11.dtd"><svg width="100%" height="100%" viewBox="0 0 350 120" version="1.1" xmlns="http://www.w3.org/2000/svg" xmlns:xlink="http://www.w3.org/1999/xlink" xml:space="preserve" xmlns:serif="http://www.serif.com/" style="fill-rule:evenodd;clip-rule:evenodd;stroke-linejoin:round;stroke-miterlimit:2;"><rect x="0" y="0" width="350" height="120.184" style="fill:#008ebd;"/><path d="M169.986,94.586l0,-12.884l-11.243,-13.613c-6.168,-7.505 -11.243,-13.735 -11.243,-13.856c0,-0.152 12.367,-0.243 27.5,-0.243c15.133,0 27.5,0.091 27.5,0.243c0,0.121 -5.075,6.351 -11.243,13.826l-11.243,13.643l-0.061,10.514l-0.091,10.544l-4.71,2.34c-2.583,1.276 -4.801,2.34 -4.923,2.37c-0.152,0 -0.243,-5.804 -0.243,-12.884Z" style="fill:#fff;fill-rule:nonzero;"/><path d="M183.961,27.737l-2.687,-0.935c-0.007,-1.365 -0.265,-2.717 -0.761,-3.988l2.153,-1.86c0.248,-0.212 0.311,-0.565 0.161,-0.855c-1.017,-1.902 -2.44,-3.526 -4.134,-4.781c-0.261,-0.191 -0.624,-0.181 -0.866,0.03l-2.154,1.86c-1.183,-0.681 -2.483,-1.133 -3.834,-1.335l-0.533,-2.789c-0.06,-0.318 -0.335,-0.554 -0.661,-0.563c-2.174,-0.067 -4.305,0.363 -6.204,1.185c-0.299,0.127 -0.468,0.448 -0.407,0.767l0.533,2.794c-1.175,0.69 -2.216,1.589 -3.072,2.653l-2.682,-0.936c-0.308,-0.106 -0.645,0.011 -0.816,0.291c-1.114,1.785 -1.838,3.818 -2.081,5.967c-0.038,0.325 0.156,0.63 0.464,0.736l2.687,0.936c0.007,1.365 0.265,2.716 0.762,3.988l-2.154,1.86c-0.247,0.212 -0.31,0.565 -0.16,0.855c1.017,1.902 2.439,3.526 4.134,4.78c0.26,0.192 0.623,0.182 0.865,-0.029l2.154,-1.86c1.184,0.681 2.483,1.133 3.834,1.334l0.534,2.795c0.061,0.318 0.336,0.554 0.661,0.563c2.174,0.067 4.305,-0.363 6.204,-1.185c0.299,-0.127 0.468,-0.449 0.407,-0.767l-0.533,-2.794c1.175,-0.69 2.216,-1.589 3.073,-2.654l2.687,0.936c0.308,0.106 0.645,-0.012 0.816,-0.291c1.114,-1.785 1.838,-3.819 2.081,-5.968c0.025,-0.328 -0.162,-0.634 -0.471,-0.74Zm-12.925,3.664c-2.506,0.478 -4.934,-1.172 -5.413,-3.677c-0.478,-2.506 1.172,-4.935 3.677,-5.413c2.506,-0.479 4.935,1.171 5.413,3.677c0.477,2.505 -1.172,4.934 -3.677,5.413Z" style="fill:#fff;fill-rule:nonzero;"/><path d="M193.544,43.551l-1.364,-0.937c0.205,-0.767 0.268,-1.565 0.185,-2.354l1.493,-0.714c0.172,-0.081 0.261,-0.269 0.222,-0.455c-0.279,-1.223 -0.828,-2.352 -1.586,-3.316c-0.117,-0.148 -0.322,-0.198 -0.49,-0.116l-1.494,0.713c-0.56,-0.564 -1.22,-1.017 -1.946,-1.338l0.129,-1.647c0.015,-0.187 -0.104,-0.362 -0.285,-0.417c-1.209,-0.371 -2.471,-0.457 -3.662,-0.287c-0.188,0.025 -0.332,0.18 -0.347,0.367l-0.129,1.65c-0.766,0.207 -1.488,0.552 -2.132,1.017l-1.36,-0.937c-0.157,-0.106 -0.364,-0.092 -0.503,0.038c-0.899,0.831 -1.617,1.861 -2.083,3.029c-0.071,0.177 -0.01,0.377 0.147,0.484l1.364,0.938c-0.205,0.766 -0.268,1.564 -0.185,2.354l-1.493,0.713c-0.172,0.081 -0.261,0.269 -0.221,0.455c0.278,1.223 0.827,2.353 1.585,3.317c0.117,0.147 0.322,0.197 0.491,0.116l1.493,-0.713c0.56,0.564 1.22,1.017 1.947,1.337l-0.13,1.65c-0.015,0.188 0.104,0.362 0.285,0.417c1.209,0.372 2.471,0.457 3.662,0.288c0.188,-0.026 0.332,-0.18 0.347,-0.368l0.129,-1.65c0.766,-0.206 1.488,-0.551 2.132,-1.017l1.364,0.937c0.156,0.107 0.363,0.093 0.502,-0.038c0.899,-0.83 1.618,-1.86 2.084,-3.028c0.064,-0.181 0.006,-0.381 -0.151,-0.488Zm-7.814,0.072c-1.479,-0.116 -2.589,-1.415 -2.473,-2.894c0.117,-1.479 1.415,-2.589 2.894,-2.472c1.479,0.116 2.589,1.414 2.473,2.893c-0.117,1.479 -1.415,2.589 -2.894,2.473Z" style="fill:#fff;fill-rule:nonzero;"/></svg>