<?xml version="1.0" encoding="utf-8"?>
<!-- Generator: Adobe Illustrator 22.1.0, SVG Export Plug-In . SVG Version: 6.00 Build 0)  -->
<svg version="1.1" id="Ebene_1" xmlns="http://www.w3.org/2000/svg" xmlns:xlink="http://www.w3.org/1999/xlink" x="0px" y="0px"
	 viewBox="0 0 350 60" style="enable-background:new 0 0 350 60;" xml:space="preserve">
<style type="text/css">
	.st0{fill:#008EBD;}
</style>
<g>
	<path class="st0" d="M25,46h300V14H25V46z M33,20h18c0.5,0,1,0.4,1,1c0,0.6-0.4,1-1,1H33c-0.5,0-1-0.4-1-1C32,20.4,32.4,20,33,20z
		 M33,26h18c0.5,0,1,0.4,1,1c0,0.5-0.4,1-1,1H33c-0.5,0-1-0.4-1-1C32,26.4,32.4,26,33,26z M33,32h18c0.5,0,1,0.4,1,1
		c0,0.6-0.4,1-1,1H33c-0.5,0-1-0.4-1-1C32,32.4,32.4,32,33,32z M33,38h18c0.5,0,1,0.4,1,1c0,0.6-0.4,1-1,1H33c-0.5,0-1-0.4-1-1
		C32,38.4,32.4,38,33,38z"/>
	<path class="st0" d="M0,0v60h350V0H0z M327,46c0,1.1-0.9,2-2,2H25c-1.1,0-2-0.9-2-2V14c0-1.1,0.9-2,2-2h300c1.1,0,2,0.9,2,2V46z"/>
</g>
</svg>
