<?xml version="1.0" encoding="utf-8"?>
<!-- Generator: Adobe Illustrator 22.1.0, SVG Export Plug-In . SVG Version: 6.00 Build 0)  -->
<svg version="1.1" id="Ebene_1" xmlns="http://www.w3.org/2000/svg" xmlns:xlink="http://www.w3.org/1999/xlink" x="0px" y="0px"
	 viewBox="0 0 350 120" style="enable-background:new 0 0 350 120;" xml:space="preserve">
<style type="text/css">
	.st0{fill:#008EBD;}
</style>
<g>
	<path class="st0" d="M190.1,58.6l-14.4,12c-0.4,0.3-1,0.3-1.3,0l-14.4-12l-31.3,31.3l0.9,0.5c0.9,0.4,1.7,0.6,2.6,0.6h80.5
		c0.7-2.4,1.9-4.5,3.6-6.3L190.1,58.6z"/>
	<path class="st0" d="M127.2,31.5l-0.4,0.9c-0.4,0.8-0.5,1.6-0.5,2.4v50.5c0,0.7,0.1,1.5,0.4,2.2l0.4,1l31.2-31.2L127.2,31.5z"/>
	<path class="st0" d="M221.4,30l-1.1-0.5c-0.8-0.3-1.6-0.5-2.4-0.5h-85.8c-0.8,0-1.6,0.2-2.4,0.5l-1.1,0.5L175,68.5L221.4,30z"/>
	<path class="st0" d="M217.7,83.3c1.7-1.5,3.8-2.6,6-3.2V34.8c0-0.8-0.2-1.6-0.5-2.4l-0.4-0.9l-31.1,25.8L217.7,83.3z"/>
	<path class="st0" d="M0,0v120h350V0H0z M228,111.5c-8.8,0-16-7.2-16-16c0-0.8,0.1-1.7,0.2-2.5h-80.1c-2.1,0-4.1-0.8-5.6-2.3
		l-0.2-0.2c-1.4-1.5-2.1-3.3-2.1-5.3V34.8c0-1.9,0.7-3.7,2.1-5.2l0.1-0.2c1.5-1.6,3.6-2.5,5.7-2.5h85.8c2.2,0,4.2,0.9,5.7,2.5
		c0,0,0,0,0,0l0.1,0.1c1.3,1.5,2.1,3.3,2.1,5.2v44.9c0.7-0.1,1.5-0.2,2.2-0.2c8.8,0,16,7.2,16,16S236.8,111.5,228,111.5z"/>
	<path class="st0" d="M228,81.5c-0.8,0-1.5,0.1-2.2,0.2c-0.3,0.1-0.7,0.1-1,0.2c-0.1,0-0.2,0-0.3,0.1c-0.3,0.1-0.5,0.1-0.8,0.2
		c-1.7,0.5-3.3,1.4-4.6,2.5c-0.1,0.1-0.1,0.1-0.2,0.2c-0.2,0.2-0.4,0.3-0.6,0.5c-0.2,0.2-0.5,0.5-0.7,0.7c-1.3,1.4-2.3,3.1-2.9,4.9
		c-0.1,0.3-0.2,0.6-0.3,0.9c0,0.1,0,0.1-0.1,0.2c-0.1,0.3-0.1,0.6-0.2,0.9c-0.1,0.8-0.2,1.6-0.2,2.5c0,7.7,6.3,14,14,14
		s14-6.3,14-14S235.7,81.5,228,81.5z M236.3,92.5c0,0.4-0.2,0.7-0.5,1l-9.3,7.4c-0.6,0.5-1.4,0.4-1.9-0.1l-3.7-3.7
		c-0.3-0.3-0.4-0.6-0.4-1c0-0.4,0.2-0.8,0.4-1c0.3-0.3,0.7-0.4,1-0.4s0.7,0.1,1,0.4l2.8,2.8l8.3-6.6c0.3-0.2,0.7-0.4,1.1-0.3
		c0.4,0,0.7,0.2,1,0.5C236.3,91.8,236.4,92.1,236.3,92.5z"/>
</g>
</svg>
