<?xml version="1.0" encoding="UTF-8" standalone="no"?><!DOCTYPE svg PUBLIC "-//W3C//DTD SVG 1.1//EN" "http://www.w3.org/Graphics/SVG/1.1/DTD/svg11.dtd"><svg width="100%" height="100%" viewBox="0 0 350 120" version="1.1" xmlns="http://www.w3.org/2000/svg" xmlns:xlink="http://www.w3.org/1999/xlink" xml:space="preserve" xmlns:serif="http://www.serif.com/" style="fill-rule:evenodd;clip-rule:evenodd;stroke-linecap:round;stroke-linejoin:round;stroke-miterlimit:10;"><rect x="0" y="0" width="350" height="120" style="fill:#008ebd;"/><g><path d="M119,36.177l51,-12.177l51,12.177" style="fill:none;fill-rule:nonzero;stroke:#fff;stroke-width:2px;"/><path d="M186.737,12l-44.737,0l0,72l58,0l0,-14.178l0,-43.644l0,-14.178l-13.263,0Z" style="fill:#008ebd;stroke:#fff;stroke-width:2px;stroke-linecap:butt;"/><path d="M170,70.543l-50.537,-34.61c-0.291,0.643 -0.463,1.35 -0.463,2.101l0,56.888c0,2.794 2.25,5.079 5,5.079l92,0c2.75,0 5,-2.286 5,-5.079l0,-56.889c0,-0.75 -0.173,-1.458 -0.463,-2.101l-50.537,34.611Z" style="fill:#008ebd;fill-rule:nonzero;stroke:#fff;stroke-width:2px;stroke-linecap:butt;"/><path d="M140.596,70.967c1.368,0 2.772,0.504 4.5,1.513l0,8.819c0,2.304 0.539,3.637 1.656,3.637c2.411,0 3.528,-3.024 3.528,-7.524c0,-5.436 -3.204,-10.262 -10.297,-10.262c-6.552,0 -11.305,4.753 -11.305,12.314c0,5.904 3.313,11.521 11.197,11.521c2.052,0 4.393,-0.361 6.158,-1.008l0.611,1.944c-1.944,0.611 -4.393,1.079 -6.804,1.079c-9.253,0 -13.538,-6.3 -13.538,-13.429c0,-8.712 5.653,-14.436 13.681,-14.436c8.28,0 12.709,5.436 12.709,12.169c0,5.076 -1.656,9.541 -6.265,9.541c-1.98,0 -2.845,-1.08 -3.204,-2.556c-0.865,1.404 -2.701,2.593 -4.645,2.593c-3.96,0 -5.58,-3.421 -5.58,-6.805c0.001,-4.862 3.169,-9.11 7.598,-9.11Zm0,1.98c-2.917,0 -5.113,3.132 -5.113,6.912c0,2.413 1.296,5.004 3.491,5.004c1.728,0 3.241,-1.404 3.745,-3.06l0,-8.28c-0.647,-0.432 -1.294,-0.576 -2.123,-0.576Z" style="fill:#fff;fill-rule:nonzero;"/><path d="M150,23l41,0" style="fill:none;fill-rule:nonzero;stroke:#fff;stroke-width:1.5px;stroke-linejoin:miter;"/><path d="M150,31.667l41,0" style="fill:none;fill-rule:nonzero;stroke:#fff;stroke-width:1.5px;stroke-linejoin:miter;"/><path d="M150,40.333l41,0" style="fill:none;fill-rule:nonzero;stroke:#fff;stroke-width:1.5px;stroke-linejoin:miter;"/><path d="M150,49l41,0" style="fill:none;fill-rule:nonzero;stroke:#fff;stroke-width:1.5px;stroke-linejoin:miter;"/></g></svg>