<?xml version="1.0" encoding="UTF-8" standalone="no"?><!DOCTYPE svg PUBLIC "-//W3C//DTD SVG 1.1//EN" "http://www.w3.org/Graphics/SVG/1.1/DTD/svg11.dtd"><svg width="100%" height="100%" viewBox="0 0 263 90" version="1.1" xmlns="http://www.w3.org/2000/svg" xmlns:xlink="http://www.w3.org/1999/xlink" xml:space="preserve" xmlns:serif="http://www.serif.com/" style="fill-rule:evenodd;clip-rule:evenodd;stroke-linecap:round;stroke-linejoin:round;stroke-miterlimit:10;"><rect x="0" y="0" width="262.5" height="90" style="fill:#008ebd;"/><path d="M89.25,27.133l38.25,-9.133l38.25,9.133" style="fill:none;fill-rule:nonzero;stroke:#fff;stroke-width:1.5px;"/><path d="M140.053,9l-33.553,0l0,54l43.5,0l0,-10.633l0,-32.733l0,-10.634l-9.947,0Z" style="fill:#008ebd;stroke:#fff;stroke-width:1.5px;stroke-linecap:butt;"/><path d="M127.5,52.907l-37.903,-25.957c-0.218,0.482 -0.347,1.012 -0.347,1.576l0,42.665c0,2.096 1.687,3.81 3.75,3.81l69,0c2.063,0 3.75,-1.715 3.75,-3.81l0,-42.666c0,-0.563 -0.13,-1.094 -0.347,-1.576l-37.903,25.958Z" style="fill:#008ebd;fill-rule:nonzero;stroke:#fff;stroke-width:1.5px;stroke-linecap:butt;"/><g><g><circle cx="166.5" cy="71.625" r="11.25" style="fill:#008ebd;"/><path d="M166.5,61.125c5.799,0 10.5,4.701 10.5,10.5c0,5.799 -4.701,10.5 -10.5,10.5c-5.799,0 -10.5,-4.701 -10.5,-10.5c0,-5.799 4.701,-10.5 10.5,-10.5m0,-1.5c-6.617,0 -12,5.383 -12,12c0,6.617 5.383,12 12,12c6.617,0 12,-5.383 12,-12c0,-6.617 -5.383,-12 -12,-12Z" style="fill:#fff;fill-rule:nonzero;"/></g></g><path d="M105.447,53.225c1.026,0 2.079,0.378 3.375,1.135l0,6.614c0,1.728 0.404,2.728 1.242,2.728c1.808,0 2.646,-2.268 2.646,-5.643c0,-4.077 -2.403,-7.696 -7.723,-7.696c-4.914,0 -8.479,3.564 -8.479,9.235c0,4.428 2.485,8.641 8.398,8.641c1.539,0 3.295,-0.271 4.619,-0.756l0.458,1.458c-1.458,0.458 -3.295,0.809 -5.103,0.809c-6.94,0 -10.154,-4.725 -10.154,-10.072c0,-6.534 4.24,-10.827 10.261,-10.827c6.21,0 9.532,4.077 9.532,9.127c0,3.807 -1.242,7.156 -4.699,7.156c-1.485,0 -2.133,-0.81 -2.403,-1.917c-0.648,1.053 -2.025,1.944 -3.483,1.944c-2.971,0 -4.186,-2.565 -4.186,-5.103c0.001,-3.647 2.377,-6.833 5.699,-6.833Zm0,1.485c-2.188,0 -3.835,2.349 -3.835,5.184c0,1.81 0.972,3.753 2.619,3.753c1.296,0 2.43,-1.053 2.808,-2.295l0,-6.21c-0.485,-0.324 -0.97,-0.432 -1.592,-0.432Z" style="fill:#fff;fill-rule:nonzero;"/><path d="M112.5,17.25l30.75,0" style="fill:none;fill-rule:nonzero;stroke:#fff;stroke-width:1.13px;stroke-linejoin:miter;"/><path d="M112.5,23.75l30.75,0" style="fill:none;fill-rule:nonzero;stroke:#fff;stroke-width:1.13px;stroke-linejoin:miter;"/><path d="M112.5,30.25l30.75,0" style="fill:none;fill-rule:nonzero;stroke:#fff;stroke-width:1.13px;stroke-linejoin:miter;"/><path d="M112.5,36.75l30.75,0" style="fill:none;fill-rule:nonzero;stroke:#fff;stroke-width:1.13px;stroke-linejoin:miter;"/><path d="M159.75,64.397l14.25,14.353" style="fill:none;stroke:#fff;stroke-width:2px;stroke-miterlimit:1.5;"/></svg>