<?xml version="1.0" encoding="UTF-8" standalone="no"?><!DOCTYPE svg PUBLIC "-//W3C//DTD SVG 1.1//EN" "http://www.w3.org/Graphics/SVG/1.1/DTD/svg11.dtd"><svg width="100%" height="100%" viewBox="0 0 350 120" version="1.1" xmlns="http://www.w3.org/2000/svg" xmlns:xlink="http://www.w3.org/1999/xlink" xml:space="preserve" xmlns:serif="http://www.serif.com/" style="fill-rule:evenodd;clip-rule:evenodd;stroke-linecap:round;stroke-linejoin:round;stroke-miterlimit:5;"><rect x="0" y="0" width="350" height="120.184" style="fill:#008ebd;"/><g><path d="M198.156,30.892l-12.901,-13.415l-36.975,0l0,74.266l49.876,0l0,-60.851Z" style="fill:none;stroke:#fff;stroke-width:2px;"/><g><path d="M185.188,17.477l0,13.549" style="fill:none;stroke:#fff;stroke-width:2px;"/><path d="M198.156,31.026l-12.968,0" style="fill:none;stroke:#fff;stroke-width:2px;"/></g></g><g><path d="M142.827,100.889l44.206,-6.4" style="fill:none;stroke:#fff;stroke-width:2px;"/><path d="M142.827,100.889l-9.867,-68.98" style="fill:none;stroke:#fff;stroke-width:2px;"/><path d="M132.96,31.909l15.28,-2.212" style="fill:none;stroke:#fff;stroke-width:2px;"/><path d="M187.033,94.489l-0.313,-2.191" style="fill:none;stroke:#fff;stroke-width:2px;"/></g><g><path d="M205.465,102.523l-28.271,-6.258" style="fill:none;stroke:#fff;stroke-width:2px;"/><path d="M209.161,37.846l-11.005,-2.436" style="fill:none;stroke:#fff;stroke-width:2px;"/><path d="M205.465,102.523l11.387,-52.278" style="fill:none;stroke:#fff;stroke-width:2px;"/><g><path d="M209.407,37.954l-2.266,10.124" style="fill:none;stroke:#fff;stroke-width:2px;"/><path d="M216.831,50.246l-9.69,-2.168" style="fill:none;stroke:#fff;stroke-width:2px;"/><path d="M209.945,38.334l7.095,11.535" style="fill:none;stroke:#fff;stroke-width:2px;"/></g></g><g><path id="Cloud" d="M165.235,63.258c-3.508,0 -7.976,-2.839 -7.976,-6.342c0,-2.577 1.287,-4.001 3.496,-4.995c0.105,-2.557 0.44,-5.222 3.027,-5.222c0.913,0 2.175,0.098 2.901,0.539c1.439,-3.062 4.547,-5.19 8.159,-5.19c4.847,0 8.788,3.824 8.994,8.613c3.026,0.485 5.341,3.096 5.341,6.255c0,3.503 -5.53,6.342 -9.039,6.342" style="fill:none;stroke:#fff;stroke-width:1.5px;stroke-miterlimit:2;"/><path id="Forward--small-" serif:id="Forward (small)" d="M172.845,67.421l6.267,-7.513l-3.703,0l0,-7.005l-5.127,0l0,7.005l-3.703,0l6.266,7.513Z" style="fill:#008ebd;fill-rule:nonzero;stroke:#fff;stroke-width:1.5px;stroke-miterlimit:2;"/></g></svg>