<?xml version="1.0" encoding="UTF-8" standalone="no"?><!DOCTYPE svg PUBLIC "-//W3C//DTD SVG 1.1//EN" "http://www.w3.org/Graphics/SVG/1.1/DTD/svg11.dtd"><svg width="100%" height="100%" viewBox="0 0 350 120" version="1.1" xmlns="http://www.w3.org/2000/svg" xmlns:xlink="http://www.w3.org/1999/xlink" xml:space="preserve" xmlns:serif="http://www.serif.com/" style="fill-rule:evenodd;clip-rule:evenodd;stroke-linecap:round;stroke-miterlimit:1.5;"><rect x="0" y="0" width="350" height="120.184" style="fill:#008ebd;"/><g><path d="M202.666,33.949c0,-1.969 -1.599,-3.567 -3.568,-3.567l-7.134,0c-1.969,0 -3.567,1.598 -3.567,3.567l0,7.407c0,1.969 1.598,3.567 3.567,3.567l7.134,0c1.969,0 3.568,-1.598 3.568,-3.567l0,-7.407Z" style="fill:#008ebd;stroke:#fff;stroke-width:1.8px;"/><path d="M202.666,56.121c0,-1.968 -1.599,-3.567 -3.568,-3.567l-7.134,0c-1.969,0 -3.567,1.599 -3.567,3.567l0,7.407c0,1.969 1.598,3.567 3.567,3.567l7.134,0c1.969,0 3.568,-1.598 3.568,-3.567l0,-7.407Z" style="fill:#008ebd;stroke:#fff;stroke-width:1.8px;"/><path d="M202.666,78.461c0,-1.969 -1.599,-3.568 -3.568,-3.568l-7.134,0c-1.969,0 -3.567,1.599 -3.567,3.568l0,7.406c0,1.969 1.598,3.568 3.567,3.568l7.134,0c1.969,0 3.568,-1.599 3.568,-3.568l0,-7.406Z" style="fill:#008ebd;stroke:#fff;stroke-width:1.8px;"/><path d="M191.516,57.96c0.554,-0.564 1.522,-0.564 2.076,0l1.937,1.974l6.089,-5.077c0.553,-0.564 1.522,-0.423 1.937,0.282c0.554,0.564 0.415,1.551 -0.277,2.116l-7.195,5.781c-0.277,0.282 -0.554,0.282 -0.831,0.282c-0.415,0 -0.691,-0.141 -0.968,-0.423l-2.906,-2.961c-0.415,-0.564 -0.415,-1.41 0.138,-1.974Z" style="fill:#fff;stroke:#008ebd;stroke-width:1px;stroke-linecap:butt;stroke-linejoin:round;stroke-miterlimit:1.41421;"/><path d="M191.516,35.618c0.554,-0.564 1.522,-0.564 2.076,0l1.937,1.975l6.089,-5.077c0.553,-0.564 1.522,-0.423 1.937,0.282c0.554,0.564 0.415,1.551 -0.277,2.115l-7.195,5.782c-0.277,0.282 -0.554,0.282 -0.831,0.282c-0.415,0 -0.691,-0.141 -0.968,-0.423l-2.906,-2.961c-0.415,-0.564 -0.415,-1.411 0.138,-1.975Z" style="fill:#fff;stroke:#008ebd;stroke-width:1px;stroke-linecap:butt;stroke-linejoin:round;stroke-miterlimit:1.41421;"/></g><g><path d="M137.206,19.793c9.563,-2.258 19.161,3.673 21.419,13.236c2.258,9.564 -3.673,19.162 -13.236,21.42c-9.564,2.258 -19.161,-3.673 -21.42,-13.236c-2.258,-9.564 3.673,-19.162 13.237,-21.42Z" style="fill:#fff;"/><path d="M170.803,71.369c-0.335,-7.109 -4.717,-13.134 -10.794,-15.56c-5.048,4.28 -11.571,6.873 -18.707,6.873c-7.096,0 -13.588,-2.562 -18.625,-6.798c-0.283,0.114 -0.571,0.218 -0.846,0.347c-0.107,0.051 -0.213,0.102 -0.32,0.155c-1.755,0.872 -3.347,2.052 -4.71,3.472c-0.083,0.086 -0.162,0.173 -0.243,0.26c-2.731,2.966 -4.48,6.918 -4.689,11.276c-0.014,0.291 -0.013,0.584 -0.013,0.878l0,18.3c0,0.375 0.349,0.29 0.708,0.29l57.738,0c0.359,0 0.508,0.086 0.508,-0.29l0,-18.3c0.001,-0.294 0.007,-0.612 -0.007,-0.903Z" style="fill:#fff;fill-rule:nonzero;"/></g><path d="M162.309,68.063c9.003,-0.011 16.321,7.289 16.332,16.292c0.011,9.002 -7.289,16.321 -16.292,16.332c-9.002,0.011 -16.321,-7.289 -16.332,-16.292c-0.011,-9.003 7.289,-16.321 16.292,-16.332Z" style="fill:#008ebd;stroke:#fff;stroke-width:2px;stroke-linejoin:round;"/><g><path d="M160.033,81.366c-0.649,1.013 -2.309,1.102 -3.971,-0.032c-1.413,-1.251 -1.893,-2.83 -1.252,-4.236c0.902,-1.706 3.373,-1.466 4.686,-0.177" style="fill:#3c5862;fill-opacity:0;stroke:#fff;stroke-width:1.5px;stroke-linejoin:round;stroke-miterlimit:5;"/><path d="M162.725,77.742c0.501,0.007 1.005,0.211 1.39,0.608l7.39,7.634c0.781,0.808 0.772,2.11 -0.02,2.906l-4.306,4.329c-0.793,0.797 -2.07,0.788 -2.852,-0.019l-7.389,-7.634c-0.385,-0.398 -0.578,-0.915 -0.579,-1.438l0.62,-5.845l5.746,-0.541Z" style="fill:#3c5862;fill-opacity:0;stroke:#fff;stroke-width:1.5px;stroke-linejoin:round;"/></g><g><path d="M207.464,33.356l30.68,0" style="fill:none;stroke:#fff;stroke-width:1.5px;stroke-linejoin:round;stroke-miterlimit:5;"/><path d="M207.464,37.668l30.68,0" style="fill:none;stroke:#fff;stroke-width:1.5px;stroke-linejoin:round;stroke-miterlimit:5;"/><path d="M207.464,41.981l30.68,0" style="fill:none;stroke:#fff;stroke-width:1.5px;stroke-linejoin:round;stroke-miterlimit:5;"/></g><g><path d="M207.464,55.687l30.68,0" style="fill:none;stroke:#fff;stroke-width:1.5px;stroke-linejoin:round;stroke-miterlimit:5;"/><path d="M207.464,60l30.68,0" style="fill:none;stroke:#fff;stroke-width:1.5px;stroke-linejoin:round;stroke-miterlimit:5;"/><path d="M207.464,64.313l30.68,0" style="fill:none;stroke:#fff;stroke-width:1.5px;stroke-linejoin:round;stroke-miterlimit:5;"/></g><g><path d="M207.464,77.527l30.68,0" style="fill:none;stroke:#fff;stroke-width:1.5px;stroke-linejoin:round;stroke-miterlimit:5;"/><path d="M207.464,81.84l30.68,0" style="fill:none;stroke:#fff;stroke-width:1.5px;stroke-linejoin:round;stroke-miterlimit:5;"/><path d="M207.464,86.152l30.68,0" style="fill:none;stroke:#fff;stroke-width:1.5px;stroke-linejoin:round;stroke-miterlimit:5;"/></g></svg>