<?xml version="1.0" encoding="UTF-8" standalone="no"?><!DOCTYPE svg PUBLIC "-//W3C//DTD SVG 1.1//EN" "http://www.w3.org/Graphics/SVG/1.1/DTD/svg11.dtd"><svg width="100%" height="100%" viewBox="0 0 350 120" version="1.1" xmlns="http://www.w3.org/2000/svg" xmlns:xlink="http://www.w3.org/1999/xlink" xml:space="preserve" xmlns:serif="http://www.serif.com/" style="fill-rule:evenodd;clip-rule:evenodd;stroke-linecap:round;stroke-miterlimit:1.5;"><rect x="0" y="0" width="350" height="120.184" style="fill:#008ebd;"/><g><path d="M197.922,29.297c0,-2.335 -1.896,-4.232 -4.232,-4.232l-8.463,0c-2.336,0 -4.232,1.897 -4.232,4.232l0,8.787c0,2.335 1.896,4.231 4.232,4.231l8.463,0c2.336,0 4.232,-1.896 4.232,-4.231l0,-8.787Z" style="fill:#008ebd;stroke:#fff;stroke-width:1.8px;"/><path d="M197.922,55.6c0,-2.336 -1.896,-4.232 -4.232,-4.232l-8.463,0c-2.336,0 -4.232,1.896 -4.232,4.232l0,8.786c0,2.336 1.896,4.232 4.232,4.232l8.463,0c2.336,0 4.232,-1.896 4.232,-4.232l0,-8.786Z" style="fill:#008ebd;stroke:#fff;stroke-width:1.8px;"/><path d="M197.922,82.1c0,-2.336 -1.896,-4.232 -4.232,-4.232l-8.463,0c-2.336,0 -4.232,1.896 -4.232,4.232l0,8.787c0,2.335 1.896,4.231 4.232,4.231l8.463,0c2.336,0 4.232,-1.896 4.232,-4.231l0,-8.787Z" style="fill:#008ebd;stroke:#fff;stroke-width:1.8px;"/><path d="M184.696,57.78c0.656,-0.669 1.806,-0.669 2.462,0l2.298,2.342l7.223,-6.022c0.657,-0.669 1.806,-0.502 2.298,0.334c0.657,0.67 0.493,1.841 -0.328,2.51l-8.536,6.859c-0.328,0.334 -0.657,0.334 -0.985,0.334c-0.492,0 -0.821,-0.167 -1.149,-0.502l-3.447,-3.513c-0.493,-0.669 -0.493,-1.673 0.164,-2.342Z" style="fill:#fff;stroke:#008ebd;stroke-width:1px;stroke-linecap:butt;stroke-linejoin:round;stroke-miterlimit:1.41421;"/><path d="M184.696,31.277c0.656,-0.669 1.806,-0.669 2.462,0l2.298,2.342l7.223,-6.022c0.657,-0.669 1.806,-0.502 2.298,0.335c0.657,0.669 0.493,1.84 -0.328,2.509l-8.536,6.859c-0.328,0.334 -0.657,0.334 -0.985,0.334c-0.492,0 -0.821,-0.167 -1.149,-0.502l-3.447,-3.513c-0.493,-0.669 -0.493,-1.672 0.164,-2.342Z" style="fill:#fff;stroke:#008ebd;stroke-width:1px;stroke-linecap:butt;stroke-linejoin:round;stroke-miterlimit:1.41421;"/></g><g><path d="M130.452,48.794c-2.19,3.42 -7.796,3.722 -13.407,-0.107c-4.77,-4.221 -6.389,-9.552 -4.225,-14.298c3.045,-5.759 11.387,-4.951 15.819,-0.599" style="fill:#3c5862;fill-opacity:0;stroke:#fff;stroke-width:1.8px;stroke-linejoin:round;stroke-miterlimit:5;"/><path d="M139.537,36.563c1.692,0.022 3.396,0.711 4.695,2.052l24.944,25.77c2.638,2.725 2.609,7.121 -0.066,9.809l-14.537,14.615c-2.674,2.688 -6.988,2.658 -9.626,-0.067l-24.944,-25.769c-1.299,-1.342 -1.951,-3.088 -1.954,-4.854l2.094,-19.73l19.394,-1.826Z" style="fill:#3c5862;fill-opacity:0;stroke:#fff;stroke-width:1.8px;stroke-linejoin:round;"/></g><g><path d="M207.443,29.009l30.681,0" style="fill:none;stroke:#fff;stroke-width:1.8px;stroke-linejoin:round;stroke-miterlimit:5;"/><path d="M207.443,33.322l30.681,0" style="fill:none;stroke:#fff;stroke-width:1.8px;stroke-linejoin:round;stroke-miterlimit:5;"/><path d="M207.443,37.634l30.681,0" style="fill:none;stroke:#fff;stroke-width:1.8px;stroke-linejoin:round;stroke-miterlimit:5;"/></g><g><path d="M207.443,55.68l30.681,0" style="fill:none;stroke:#fff;stroke-width:1.8px;stroke-linejoin:round;stroke-miterlimit:5;"/><path d="M207.443,59.993l30.681,0" style="fill:none;stroke:#fff;stroke-width:1.8px;stroke-linejoin:round;stroke-miterlimit:5;"/><path d="M207.443,64.305l30.681,0" style="fill:none;stroke:#fff;stroke-width:1.8px;stroke-linejoin:round;stroke-miterlimit:5;"/></g><g><path d="M207.443,82.181l30.681,0" style="fill:none;stroke:#fff;stroke-width:1.8px;stroke-linejoin:round;stroke-miterlimit:5;"/><path d="M207.443,86.493l30.681,0" style="fill:none;stroke:#fff;stroke-width:1.8px;stroke-linejoin:round;stroke-miterlimit:5;"/><path d="M207.443,90.806l30.681,0" style="fill:none;stroke:#fff;stroke-width:1.8px;stroke-linejoin:round;stroke-miterlimit:5;"/></g></svg>