<?xml version="1.0" encoding="UTF-8" standalone="no"?><!DOCTYPE svg PUBLIC "-//W3C//DTD SVG 1.1//EN" "http://www.w3.org/Graphics/SVG/1.1/DTD/svg11.dtd"><svg width="100%" height="100%" viewBox="0 0 263 91" version="1.1" xmlns="http://www.w3.org/2000/svg" xmlns:xlink="http://www.w3.org/1999/xlink" xml:space="preserve" xmlns:serif="http://www.serif.com/" style="fill-rule:evenodd;clip-rule:evenodd;stroke-linecap:round;stroke-linejoin:bevel;stroke-miterlimit:1.5;"><rect x="0" y="0" width="262.5" height="90.138" style="fill:#008ebd;"/><g><path d="M113.42,20.425c1.807,-0.427 3.621,0.694 4.048,2.502c0.427,1.807 -0.694,3.621 -2.502,4.048c-1.807,0.427 -3.621,-0.694 -4.048,-2.502c-0.427,-1.807 0.694,-3.621 2.502,-4.048Z" style="fill:#fff;"/><path d="M119.77,30.173c-0.064,-1.343 -0.892,-2.482 -2.04,-2.941c-0.954,0.809 -2.187,1.299 -3.536,1.299c-1.341,0 -2.568,-0.484 -3.52,-1.285c-0.054,0.022 -0.108,0.042 -0.16,0.066c-0.02,0.01 -0.04,0.019 -0.06,0.029c-0.332,0.165 -0.633,0.388 -0.891,0.657c-0.015,0.016 -0.03,0.032 -0.046,0.049c-0.516,0.56 -0.846,1.307 -0.886,2.131c-0.003,0.055 -0.002,0.11 -0.002,0.166l0,3.458c0,0.071 0.066,0.055 0.133,0.055l10.913,0c0.068,0 0.096,0.017 0.096,-0.055l0,-3.458c0,-0.056 0.001,-0.116 -0.001,-0.171Z" style="fill:#fff;fill-rule:nonzero;"/></g><path d="M151.634,10.959l0.165,0.028l0.162,0.047l0.155,0.064l0.148,0.082l0.137,0.097l0.125,0.112l0.112,0.125l0.098,0.138l0.081,0.147l0.064,0.155l0.047,0.162l0.028,0.166l0.01,0.168l0,52.786l-0.01,0.168l-0.028,0.166l-0.047,0.161l-0.064,0.156l-0.081,0.147l-0.098,0.137l-0.112,0.126l-0.125,0.112l-0.137,0.097l-0.148,0.081l-0.155,0.065l-0.162,0.046l-0.165,0.028l-0.168,0.01l-52.787,0l-0.168,-0.01l-0.165,-0.028l-0.162,-0.046l-0.155,-0.065l-0.148,-0.081l-0.137,-0.097l-0.125,-0.112l-0.112,-0.126l-0.098,-0.137l-0.081,-0.147l-0.064,-0.156l-0.047,-0.161l-0.028,-0.166l-0.01,-0.168l0,-52.786l0.01,-0.168l0.028,-0.166l0.047,-0.162l0.064,-0.155l0.081,-0.147l0.098,-0.138l0.112,-0.125l0.125,-0.112l0.137,-0.097l0.148,-0.082l0.155,-0.064l0.162,-0.047l0.165,-0.028l0.168,-0.009l52.787,0l0.168,0.009Zm-52.955,1.491l0,52.786l52.787,0l0,-52.786l-52.787,0Z" style="fill:#fff;"/><g><path d="M124.161,21.23l17.127,0" style="fill:none;stroke:#fff;stroke-width:1.5px;"/><path d="M124.161,27.213l17.127,0" style="fill:none;stroke:#fff;stroke-width:1.5px;stroke-linejoin:round;"/><path d="M124.161,33.197l17.127,0" style="fill:none;stroke:#fff;stroke-width:1.5px;stroke-linejoin:round;"/><path d="M109.374,39.18l31.914,0" style="fill:none;stroke:#fff;stroke-width:1.5px;stroke-linejoin:round;"/><path d="M109.374,45.164l31.914,0" style="fill:none;stroke:#fff;stroke-width:1.5px;stroke-linejoin:round;"/><path d="M109.374,51.147l31.914,0" style="fill:none;stroke:#fff;stroke-width:1.5px;stroke-linejoin:round;"/><path d="M109.374,57.131l26.664,0" style="fill:none;stroke:#fff;stroke-width:1.5px;stroke-linejoin:round;"/></g><g><g><g><circle cx="152.251" cy="65.949" r="11.25" style="fill:#008ebd;"/><path d="M152.251,55.449c5.799,0 10.5,4.701 10.5,10.5c0,5.799 -4.701,10.5 -10.5,10.5c-5.799,0 -10.5,-4.701 -10.5,-10.5c0,-5.799 4.701,-10.5 10.5,-10.5m0,-1.5c-6.617,0 -12,5.384 -12,12c0,6.617 5.383,12 12,12c6.616,0 12,-5.383 12,-12c0,-6.616 -5.384,-12 -12,-12Z" style="fill:#fff;fill-rule:nonzero;"/></g></g><g><g><path d="M156.298,68.338l-7.367,0c-0.259,0 -0.471,-0.223 -0.48,-0.501c-0.086,-0.362 -1.16,-4.917 -1.222,-5.221l-0.038,-0.187l10.191,0c0.265,0 0.481,0.234 0.481,0.521l-0.004,0.034c0,0 -1.081,4.873 -1.082,4.883c-0.023,0.264 -0.229,0.471 -0.479,0.471Zm-8.723,-5.598c0.219,0.957 1.187,5.092 1.187,5.099c0.009,0.105 0.081,0.188 0.169,0.188l7.367,0c0.084,0 0.154,-0.076 0.168,-0.175c0.001,-0.011 1.085,-4.917 1.085,-4.917c-0.006,-0.109 -0.08,-0.194 -0.169,-0.194l-9.807,0l0,-0.001Z" style="fill:#fff;fill-rule:nonzero;stroke:#fff;stroke-width:0.5px;stroke-linecap:butt;stroke-linejoin:round;stroke-miterlimit:2;"/><path d="M150.244,62.585l1.088,5.597" style="fill:none;fill-rule:nonzero;stroke:#fff;stroke-width:0.5px;stroke-linecap:butt;stroke-linejoin:miter;stroke-miterlimit:10;"/><path d="M153.82,68.182l1.088,-5.597" style="fill:none;fill-rule:nonzero;stroke:#fff;stroke-width:0.5px;stroke-linecap:butt;stroke-linejoin:miter;stroke-miterlimit:10;"/><path d="M148.067,65.228l9.018,0" style="fill:none;fill-rule:nonzero;stroke:#fff;stroke-width:0.5px;stroke-linecap:butt;stroke-linejoin:miter;stroke-miterlimit:10;"/></g><path d="M156.07,69.529l-7.152,0l-1.866,-7.93l-1.866,0l1.866,0" style="fill:none;fill-rule:nonzero;stroke:#fff;stroke-width:0.75px;stroke-linejoin:round;stroke-miterlimit:10;"/><circle cx="150.081" cy="70.853" r="0.933" style="fill:#fff;"/><circle cx="154.59" cy="70.853" r="0.933" style="fill:#fff;"/></g></g></svg>