<?xml version="1.0" encoding="UTF-8" standalone="no"?><!DOCTYPE svg PUBLIC "-//W3C//DTD SVG 1.1//EN" "http://www.w3.org/Graphics/SVG/1.1/DTD/svg11.dtd"><svg width="100%" height="100%" viewBox="0 0 263 90" version="1.1" xmlns="http://www.w3.org/2000/svg" xmlns:xlink="http://www.w3.org/1999/xlink" xml:space="preserve" xmlns:serif="http://www.serif.com/" style="fill-rule:evenodd;clip-rule:evenodd;stroke-linejoin:round;stroke-miterlimit:2;"><rect x="0" y="0" width="262.5" height="90" style="fill:#008ebd;"/><path d="M149.395,38.475l-24.965,-10.828c-0.265,-0.115 -0.569,-0.115 -0.834,0l-24.964,10.828c-0.424,0.184 -0.606,0.56 -0.606,1.041l0,28.192c0,0.383 0.229,0.73 0.584,0.889l24.986,11.173c0.133,0.058 0.274,0.087 0.415,0.087c0.158,0 0.272,-0.016 0.415,-0.09l24.988,-11.17c0.355,-0.159 0.584,-0.506 0.584,-0.889l0,-28.192c0.002,-0.454 -0.18,-0.857 -0.603,-1.041Zm-36.232,6.702c-0.346,0.163 -0.564,0.504 -0.564,0.88l0,9.531l-4.88,-2.253l0,-9.43l23.537,-11.093l4.242,1.841l-22.335,10.524Zm10.852,-15.507l4.844,2.1l-21.638,10.2l-5.694,-2.546l22.488,-9.754Zm-0.998,47.69l-22.989,-10.28l0,-26.179l5.694,2.546l0,10.507c0,0.379 0.223,0.722 0.573,0.883l6.877,3.175c0.135,0.063 0.28,0.094 0.426,0.094c0.186,0 0.372,-0.052 0.534,-0.152c0.289,-0.18 0.464,-0.492 0.464,-0.827l0,-9.714l8.421,3.765l0,26.182Zm0.998,-27.882l-7.89,-3.529l21.77,-10.261l8.611,3.734l-22.491,10.056Zm23.988,17.602l-22.989,10.28l0,-26.18l22.989,-10.279l0,26.179Z" style="fill:#fbfbfb;fill-rule:nonzero;stroke:#fff;stroke-width:0.25px;"/><path id="Reply--small-" serif:id="Reply (small)" d="M135.021,12.81l0.335,-3.432l-14.092,8.276l14.092,8.717l-0.335,-3.874c12.971,0 24.474,1.097 24.474,7.016c0,3.014 -3.485,9.451 -7.73,11.388c9.669,-2.583 12.709,-8.933 12.709,-14.53c0,-8.395 -11.294,-13.561 -29.453,-13.561Z" style="fill:#fff;fill-rule:nonzero;"/></svg>