<?xml version="1.0" encoding="iso-8859-1"?>
<!-- Generator: Adobe Illustrator 23.0.1, SVG Export Plug-In . SVG Version: 6.00 Build 0)  -->
<svg version="1.1" id="Ebene_1" xmlns="http://www.w3.org/2000/svg" xmlns:xlink="http://www.w3.org/1999/xlink" x="0px" y="0px"
	 viewBox="0 0 350 120" style="enable-background:new 0 0 350 120;" xml:space="preserve">
<rect style="fill:#008EBD;" width="350" height="120"/>
<path style="fill:#008EBD;stroke:#FFFFFF;stroke-width:2;stroke-miterlimit:10;" d="M159.705,104.859
	c-1.775,1.005-4.05,0.376-5.055-1.399l-31.518-55.638c-1.005-1.775-0.376-4.05,1.399-5.055l29.58-16.757
	c1.775-1.005,4.05-0.376,5.055,1.399l31.518,55.638c1.005,1.775,0.376,4.05-1.399,5.055L159.705,104.859z"/>
<path style="fill:#FFFFFF;" d="M165.776,79.559c-6.81,3.858-15.406,1.557-19.199-5.139c-3.793-6.696-1.347-15.251,5.463-19.109
	s15.406-1.557,19.199,5.139C175.032,67.145,172.586,75.701,165.776,79.559z"/>
<path style="fill:#008EBD;stroke:#FFFFFF;stroke-width:1.5;stroke-miterlimit:10;" d="M131.83,71.184
	c-2.19,1.155-5.013,0.099-6.304-2.361l0,0c-1.296-2.463-0.569-5.396,1.624-6.555l7.154-3.787c2.188-1.158,5.008-0.102,6.302,2.36
	l0,0c1.292,2.462,0.566,5.397-1.623,6.557L131.83,71.184z"/>
<path style="fill:#008EBD;stroke:#FFFFFF;stroke-width:1.5;stroke-miterlimit:10;" d="M136.783,80.094
	c-2.506,1.329-5.588,0.406-6.877-2.054l0,0c-1.296-2.463-0.309-5.533,2.197-6.859l8.195-4.338c2.508-1.325,5.589-0.406,6.882,2.059
	l0,0c1.292,2.46,0.307,5.53-2.198,6.857L136.783,80.094z"/>
<path style="fill:#008EBD;stroke:#FFFFFF;stroke-width:1.5;stroke-miterlimit:10;" d="M141.712,88.99
	c-2.269,1.199-5.155,0.179-6.45-2.284l0,0c-1.292-2.459-0.499-5.43,1.768-6.632l7.418-3.923c2.271-1.199,5.157-0.179,6.451,2.282
	l0,0c1.292,2.463,0.502,5.433-1.771,6.632L141.712,88.99z"/>
<path style="fill:#008EBD;stroke:#FFFFFF;stroke-width:1.5;stroke-miterlimit:10;" d="M147.34,96.852
	c-1.879,0.993-4.376-0.047-5.573-2.327l0,0c-1.193-2.278-0.641-4.934,1.238-5.929l6.148-3.247c1.876-0.997,4.373,0.044,5.568,2.322
	l0,0c1.198,2.284,0.643,4.935-1.237,5.927L147.34,96.852z"/>
<g>
	<path style="fill:#008EBD;" d="M163.414,59.344c1.116,0.838,1.919,1.739,2.579,2.894c1.807,3.162,1.233,6.007-1.649,8.406
		l0.972,1.701l-1.592,0.91l-0.872-1.527l-0.589,0.336c-0.284,0.162-0.545,0.312-0.798,0.427l0.885,1.548l-1.614,0.922l-0.997-1.745
		c-3.371,1.087-6.029,0.031-7.811-3.088c-0.598-1.047-0.959-2.084-1.043-3.396l2.334-0.523c-0.013,1.193,0.283,2.066,0.745,2.873
		c0.91,1.592,2.333,2.109,4.293,1.539l-2.368-4.144l1.614-0.922l2.492,4.362c0.231-0.103,0.492-0.252,0.732-0.389l0.654-0.374
		l-2.505-4.384l1.592-0.91l2.393,4.188c1.704-1.523,2.022-3.094,1.063-4.773c-0.436-0.764-1.178-1.555-2.147-2.187L163.414,59.344z"
		/>
</g>
<path style="fill:#008EBD;stroke:#FFFFFF;stroke-width:1.5;stroke-miterlimit:10;" d="M204.439,31.241l-20.177,8.477
	c-3.591-1.433-19.399-7.701-22.864-8.365l-15.159,4.815l-4.12,14.38c0,0-0.656,3.568,0.802,3.736
	c1.457,0.165,10.222,0.745,10.817-8.911l0.306-0.104L154.838,45l1.932-0.654L174.5,55.5l13,23l9.978-8.84l19.51-8.897
	L204.439,31.241z"/>
<polygon style="fill:#FFFFFF;" points="211.293,68.512 194.376,31.309 219.701,19.175 234.218,58.182 "/>
</svg>
