<?xml version="1.0" encoding="iso-8859-1"?>
<!-- Generator: Adobe Illustrator 23.0.1, SVG Export Plug-In . SVG Version: 6.00 Build 0)  -->
<svg version="1.1" id="Ebene_1" xmlns="http://www.w3.org/2000/svg" xmlns:xlink="http://www.w3.org/1999/xlink" x="0px" y="0px"
	 viewBox="0 0 350 120" style="enable-background:new 0 0 350 120;" xml:space="preserve">
<rect style="fill:#008EBD;" width="350" height="120"/>
<g>
	<g>
		<path style="fill:#FFFFFF;" d="M204.68,20.727v5.712v23.296h-71.939V26.439v-5.712h16.451h39.038H204.68 M204.68,18.727h-16.451
			h-39.038h-16.451c-1.105,0-2,0.895-2,2v5.712v23.296c0,1.105,0.895,2,2,2h71.939c1.105,0,2-0.895,2-2V26.439v-5.712
			C206.68,19.623,205.785,18.727,204.68,18.727L204.68,18.727z"/>
	</g>
	<g>
		<path style="fill:#FFFFFF;" d="M175.841,43.694c-1.493,0.644-2.87,0.937-4.422,0.937c-4.246,0-6.794-2.225-7.555-6.53h-2.284
			v-2.138h2.05v-0.79c0-0.381,0-0.732,0.029-1.054h-2.079v-2.167h2.343c0.849-4.041,3.455-6.12,7.643-6.12
			c1.406,0,2.665,0.234,4.041,0.908l-0.82,2.665c-1.201-0.703-2.255-0.908-3.338-0.908c-2.138,0-3.485,1.142-4.041,3.455h5.564
			v2.167h-5.857c-0.029,0.293-0.029,0.644-0.029,0.967v0.878h5.887v2.138h-5.623c0.556,2.606,1.962,3.836,4.217,3.836
			c1.025,0,2.255-0.293,3.455-0.908L175.841,43.694z"/>
	</g>
	<g>
		<path style="fill:#008EBD;stroke:#FFFFFF;stroke-width:2;stroke-linejoin:round;stroke-miterlimit:10;" d="M196.477,44.681
			c0-2.194-1.778-3.971-3.971-3.971h-0.286c-2.785,0-5.042,2.257-5.042,5.04l-0.213,6.801l-0.472,14.983
			c-0.107,0.462-0.168,10.88-0.168,10.88c-0.881-0.898-1.861-1.925-2.742-2.908c-2.056-2.294-5.834-3.839-8.346-4.125
			c-1.323-0.152-2.333,0.029-3.005,0.535c-0.215,0.164-0.426,0.348-0.624,0.545c-1.296,1.276-2.274,3.338-1.369,4.849
			c0.391,0.66,24.015,22.165,24.015,22.165c1.908,1.208,5.38,2.338,9.39,2.338c4.003,0,7.639,0.24,10.327-2.124h0.144l0.071-0.179
			c2.734-2.504,4.434-5.974,4.434-9.811c0-0.949,0-4.448,0-5.106V71.354c0-0.899-0.198-3.913-2.732-4.817
			c-1.218-0.433-2.369-0.269-3.35,0.154l-0.229,0.01l-0.071,0.005c-0.441-1.655-1.541-2.724-3.169-3.008
			c-1.966-0.34-3.329,0.247-4.148,0.841c-0.814-1.751-2.448-2.663-4.658-2.477c-1.658,0.14-2.891,0.954-3.785,2.027V52.802V44.681z"
			/>
		
			<line style="fill:none;stroke:#FFFFFF;stroke-width:2;stroke-linecap:round;stroke-linejoin:round;stroke-miterlimit:10;" x1="196.573" y1="64.583" x2="196.573" y2="69.224"/>
		
			<line style="fill:none;stroke:#FFFFFF;stroke-width:2;stroke-linecap:round;stroke-linejoin:round;stroke-miterlimit:10;" x1="204.695" y1="64.583" x2="204.695" y2="71.545"/>
		
			<line style="fill:none;stroke:#FFFFFF;stroke-width:2;stroke-linecap:round;stroke-linejoin:round;stroke-miterlimit:10;" x1="212.237" y1="66.904" x2="212.237" y2="73.865"/>
	</g>
</g>
</svg>
