<?xml version="1.0" encoding="UTF-8" standalone="no"?><!DOCTYPE svg PUBLIC "-//W3C//DTD SVG 1.1//EN" "http://www.w3.org/Graphics/SVG/1.1/DTD/svg11.dtd"><svg width="100%" height="100%" viewBox="0 0 350 120" version="1.1" xmlns="http://www.w3.org/2000/svg" xmlns:xlink="http://www.w3.org/1999/xlink" xml:space="preserve" xmlns:serif="http://www.serif.com/" style="fill-rule:evenodd;clip-rule:evenodd;stroke-linecap:round;stroke-linejoin:round;stroke-miterlimit:5;"><rect x="0" y="0" width="350" height="120" style="fill:#008ebd;"/><g><path d="M168.732,23.522c-1.242,1.939 -4.421,2.11 -7.602,-0.061c-2.705,-2.394 -3.623,-5.416 -2.396,-8.107c1.726,-3.266 6.457,-2.808 8.97,-0.34" style="fill:#3c5862;fill-opacity:0;stroke:#fff;stroke-width:2px;"/><path d="M173.884,16.586c0.959,0.013 1.925,0.404 2.662,1.164l14.144,14.612c1.496,1.546 1.479,4.038 -0.037,5.563l-8.244,8.286c-1.516,1.525 -3.962,1.508 -5.458,-0.038l-14.144,-14.611c-0.736,-0.761 -1.106,-1.751 -1.108,-2.752l1.187,-11.188l10.998,-1.036Z" style="fill:#3c5862;fill-opacity:0;stroke:#fff;stroke-width:2px;stroke-miterlimit:1.5;"/></g><path d="M185.296,34.858c-0.396,0.989 -0.9,1.76 -1.621,2.477c-1.972,1.961 -4.183,2.103 -6.524,0.456l-1.061,1.055l-0.987,-0.993l0.952,-0.947l-0.365,-0.367c-0.176,-0.177 -0.339,-0.34 -0.474,-0.503l-0.965,0.961l-1.001,-1.007l1.088,-1.082c-1.471,-2.269 -1.221,-4.438 0.724,-6.372c0.652,-0.649 1.346,-1.121 2.296,-1.444l0.849,1.616c-0.882,0.228 -1.466,0.62 -1.969,1.12c-0.993,0.987 -1.091,2.139 -0.281,3.471l2.584,-2.569l1,1.006l-2.72,2.705c0.122,0.149 0.284,0.312 0.433,0.462l0.406,0.408l2.734,-2.718l0.987,0.993l-2.612,2.596c1.462,0.954 2.683,0.876 3.73,-0.165c0.477,-0.474 0.913,-1.178 1.186,-2.018l1.611,0.859Z" style="fill:#fff;fill-rule:nonzero;"/><path d="M169.986,94.082l0,-12.883l-11.243,-13.614c-6.168,-7.505 -11.243,-13.735 -11.243,-13.856c0,-0.152 12.367,-0.243 27.5,-0.243c15.133,0 27.5,0.091 27.5,0.243c0,0.121 -5.075,6.351 -11.243,13.826l-11.243,13.644l-0.061,10.513l-0.091,10.545l-4.71,2.339c-2.583,1.277 -4.801,2.34 -4.923,2.37c-0.152,0 -0.243,-5.803 -0.243,-12.884Z" style="fill:#fff;fill-rule:nonzero;"/></svg>