<?xml version="1.0" encoding="UTF-8" standalone="no"?><!DOCTYPE svg PUBLIC "-//W3C//DTD SVG 1.1//EN" "http://www.w3.org/Graphics/SVG/1.1/DTD/svg11.dtd"><svg width="100%" height="100%" viewBox="0 0 350 120" version="1.1" xmlns="http://www.w3.org/2000/svg" xmlns:xlink="http://www.w3.org/1999/xlink" xml:space="preserve" xmlns:serif="http://www.serif.com/" style="fill-rule:evenodd;clip-rule:evenodd;stroke-linejoin:round;stroke-miterlimit:2;"><rect x="0" y="0" width="350" height="120" style="fill:#008ebd;"/><path d="M176.31,87.372c7.049,-0.774 15,-2.536 22.435,-4.986c3.868,-1.289 7.135,-2.45 7.221,-2.536c0.387,-0.387 -3.138,-10.616 -3.739,-10.917c-0.387,-0.214 -2.923,-0.687 -5.631,-1.074c-6.704,-0.989 -6.79,-0.989 -7.521,-2.106c-0.559,-0.903 -0.559,-1.375 0,-4.427c0.344,-1.848 0.731,-3.825 0.859,-4.341c0.215,-0.859 -0.128,-1.074 -3.438,-2.106c-2.02,-0.645 -3.739,-1.074 -3.825,-0.988c-0.043,0.086 -0.86,2.278 -1.762,4.813c-1.075,3.009 -1.977,4.9 -2.536,5.244c-0.516,0.344 -3.138,1.848 -5.802,3.395c-6.748,3.868 -7.135,3.868 -14.355,-0.301c-3.009,-1.719 -5.717,-3.524 -6.06,-3.954c-0.301,-0.473 -1.204,-2.75 -1.978,-5.028c-0.773,-2.321 -1.59,-4.212 -1.762,-4.212c-0.172,0 -1.891,0.472 -3.825,1.074c-3.094,0.989 -3.438,1.204 -3.223,2.063c0.129,0.516 0.515,2.493 0.859,4.341c0.559,3.009 0.559,3.567 0,4.384c-0.773,1.16 -0.859,1.203 -7.478,2.149c-2.966,0.43 -5.545,0.988 -5.888,1.332c-0.559,0.559 -3.826,10.401 -3.525,10.616c0.344,0.344 9.413,3.396 12.722,4.298c4.384,1.247 11.863,2.708 16.418,3.224c4.642,0.515 16.977,0.558 21.834,0.043Z" style="fill:#fff;"/><path d="M172.743,43.06c7.951,-0.688 15.343,-2.493 21.275,-5.158c5.028,-2.321 5.974,-4.04 2.965,-5.544c-1.977,-1.032 -7.263,-2.149 -10.057,-2.149l-1.891,0l-0.129,1.805c-0.172,2.364 -0.731,2.622 -7.393,3.567c-9.111,1.29 -25.959,0.602 -29.913,-1.246c-0.86,-0.387 -1.118,-0.86 -1.204,-2.321l-0.129,-1.805l-1.934,0c-2.664,0 -8.166,1.203 -10.143,2.192c-2.88,1.461 -1.848,3.223 3.138,5.501c9.584,4.341 22.779,6.275 35.415,5.158Z" style="fill:#fff;"/><path d="M177.256,33.217c5.544,-0.902 5.157,-0.687 5.157,-2.965l0,-2.063l-3.094,0.645c-4.427,0.945 -22.909,0.945 -27.292,0l-3.138,-0.645l0,2.02c0,2.364 -0.215,2.235 5.372,2.966c1.892,0.257 4.041,0.558 4.728,0.644c2.235,0.301 15.344,-0.086 18.267,-0.602Z" style="fill:#fff;"/><path d="M172.657,27.2c2.321,-0.215 5.458,-0.644 6.962,-0.902l2.794,-0.473l0,-5.329c0,-5.115 -0.043,-5.416 -1.074,-6.404c-1.333,-1.333 -3.052,-1.376 -7.952,-0.129c-4.899,1.203 -10.573,1.203 -15.472,0c-4.9,-1.247 -6.619,-1.204 -7.951,0.129c-1.032,0.988 -1.075,1.289 -1.075,6.404l0,5.329l3.138,0.516c7.134,1.246 13.925,1.504 20.63,0.859Z" style="fill:#fff;"/><path d="M153.444,50.096c-1.823,-0.934 -2.98,-2.98 -2.98,-5.115c0,-1.022 0.134,-1.111 1.201,-0.845c5.959,1.468 22.013,1.468 27.883,0l1.29,-0.355l-0.312,1.912c-0.4,2.668 -0.933,3.424 -3.024,4.491c-1.423,0.756 -2.401,0.89 -4.447,0.756c-2.357,-0.177 -2.801,-0.355 -4.491,-2.045c-2.49,-2.446 -3.691,-2.446 -6.004,0c-1.69,1.779 -1.956,1.868 -4.625,2.001c-2.179,0.133 -3.157,-0.044 -4.491,-0.8Z" style="fill:#fff;fill-rule:nonzero;"/><g><path d="M202.106,105.94c-11.897,0 -21.577,-9.679 -21.577,-21.576c0,-11.897 9.679,-21.577 21.577,-21.577c11.898,0 21.576,9.68 21.576,21.577c0,11.897 -9.679,21.576 -21.576,21.576Z" style="fill:#008ebd;fill-rule:nonzero;"/><path d="M202.106,63.787c11.364,0 20.577,9.212 20.577,20.577c0,11.365 -9.212,20.577 -20.577,20.577c-11.365,0 -20.577,-9.212 -20.577,-20.577c0,-11.365 9.213,-20.577 20.577,-20.577m0,-2c-12.449,0 -22.577,10.128 -22.577,22.577c0,12.449 10.128,22.577 22.577,22.577c12.449,0 22.577,-10.128 22.577,-22.577c0,-12.449 -10.128,-22.577 -22.577,-22.577Z" style="fill:#fff;fill-rule:nonzero;"/></g><path d="M215.486,87.811l-2.464,-1.423c0.249,-1.342 0.249,-2.718 0,-4.06l2.464,-1.423c0.283,-0.162 0.411,-0.497 0.318,-0.81c-0.642,-2.059 -1.735,-3.921 -3.164,-5.471c-0.22,-0.237 -0.578,-0.295 -0.856,-0.133l-2.464,1.423c-1.035,-0.891 -2.227,-1.579 -3.516,-2.03l0,-2.84c0,-0.324 -0.226,-0.607 -0.544,-0.677c-2.123,-0.474 -4.297,-0.451 -6.316,0c-0.318,0.069 -0.544,0.353 -0.544,0.677l0,2.845c-1.284,0.457 -2.475,1.145 -3.516,2.03l-2.458,-1.423c-0.283,-0.162 -0.636,-0.11 -0.856,0.133c-1.429,1.544 -2.522,3.406 -3.164,5.471c-0.098,0.312 0.035,0.648 0.318,0.81l2.464,1.423c-0.249,1.342 -0.249,2.718 0,4.06l-2.464,1.423c-0.283,0.162 -0.411,0.497 -0.318,0.81c0.642,2.059 1.735,3.921 3.164,5.471c0.22,0.237 0.578,0.295 0.856,0.133l2.464,-1.423c1.035,0.891 2.227,1.579 3.516,2.03l0,2.845c0,0.324 0.226,0.607 0.544,0.677c2.123,0.474 4.297,0.451 6.316,0c0.318,-0.069 0.544,-0.353 0.544,-0.677l0,-2.845c1.284,-0.457 2.475,-1.145 3.516,-2.03l2.464,1.423c0.283,0.162 0.636,0.11 0.856,-0.133c1.429,-1.544 2.522,-3.406 3.164,-5.471c0.086,-0.318 -0.041,-0.653 -0.324,-0.815Zm-13.383,1.174c-2.551,0 -4.627,-2.076 -4.627,-4.627c0,-2.551 2.076,-4.627 4.627,-4.627c2.551,0 4.627,2.076 4.627,4.627c-0.001,2.55 -2.077,4.627 -4.627,4.627Z" style="fill:#fff;fill-rule:nonzero;"/></svg>