<?xml version="1.0" encoding="UTF-8" standalone="no"?><!DOCTYPE svg PUBLIC "-//W3C//DTD SVG 1.1//EN" "http://www.w3.org/Graphics/SVG/1.1/DTD/svg11.dtd"><svg width="100%" height="100%" viewBox="0 0 263 91" version="1.1" xmlns="http://www.w3.org/2000/svg" xmlns:xlink="http://www.w3.org/1999/xlink" xml:space="preserve" xmlns:serif="http://www.serif.com/" style="fill-rule:evenodd;clip-rule:evenodd;stroke-linecap:round;stroke-linejoin:round;stroke-miterlimit:5;"><rect x="0" y="0" width="262.5" height="90.138" style="fill:#008ebd;"/><g><path d="M150.1,38.954c-2.446,-0.703 -3.629,-4.017 -2.332,-8.071c1.684,-3.62 4.596,-5.545 7.833,-5.093c4.004,0.799 5.009,5.954 3.187,9.394" style="fill:#3c5862;fill-opacity:0;stroke:#fff;stroke-width:1.5px;"/><path d="M159.07,42.226c0.289,1.02 0.18,2.166 -0.394,3.186l-11.02,19.587c-1.165,2.072 -3.811,2.84 -5.903,1.714l-11.376,-6.12c-2.093,-1.126 -2.846,-3.722 -1.68,-5.793l11.02,-19.588c0.573,-1.019 1.505,-1.723 2.566,-2.041l12.224,-2.268l4.563,11.323Z" style="fill:#3c5862;fill-opacity:0;stroke:#fff;stroke-width:1.5px;stroke-miterlimit:1.5;"/></g><g><path d="M107.748,38.954c2.445,-0.703 3.628,-4.017 2.331,-8.071c-1.683,-3.62 -4.595,-5.545 -7.832,-5.093c-4.004,0.799 -5.01,5.954 -3.187,9.394" style="fill:#3c5862;fill-opacity:0;stroke:#fff;stroke-width:1.5px;"/><path d="M98.777,42.226c-0.288,1.02 -0.179,2.166 0.394,3.186l11.02,19.587c1.166,2.072 3.811,2.84 5.904,1.714l11.376,-6.12c2.093,-1.126 2.846,-3.722 1.68,-5.793l-11.02,-19.588c-0.574,-1.019 -1.506,-1.723 -2.566,-2.041l-12.225,-2.268l-4.563,11.323Z" style="fill:#3c5862;fill-opacity:0;stroke:#fff;stroke-width:1.5px;stroke-miterlimit:1.5;"/></g><g><g><path d="M139.157,28.245c0.736,0.763 1.181,1.825 1.157,2.995l-0.461,22.47c-0.049,2.376 -2.018,4.302 -4.394,4.299l-12.918,-0.021c-2.376,-0.004 -4.266,-1.937 -4.217,-4.313l0.461,-22.47c0.024,-1.17 0.514,-2.231 1.298,-3.011l9.704,-7.774l9.37,7.825Z" style="fill:#008ebd;stroke:#fff;stroke-width:1.5px;stroke-miterlimit:1.5;"/><path d="M129.705,29.599c-2.488,0.534 -5.096,-1.828 -5.868,-6.013c-0.226,-3.986 1.432,-7.058 4.499,-8.189c3.906,-1.187 7.227,2.882 7.246,6.775" style="fill:#3c5862;fill-opacity:0;stroke:#fff;stroke-width:1.5px;"/></g></g><g><g><circle cx="152.315" cy="62.95" r="11.25" style="fill:#008ebd;"/><path d="M152.315,52.45c5.799,0 10.5,4.701 10.5,10.5c0,5.799 -4.701,10.5 -10.5,10.5c-5.799,0 -10.5,-4.701 -10.5,-10.5c0,-5.799 4.701,-10.5 10.5,-10.5m0,-1.5c-6.616,0 -12,5.384 -12,12c0,6.617 5.384,12 12,12c6.617,0 12,-5.383 12,-12c0,-6.616 -5.383,-12 -12,-12Z" style="fill:#fff;fill-rule:nonzero;"/></g></g><g><g><path d="M156.363,65.339l-7.367,0c-0.259,0 -0.471,-0.223 -0.48,-0.501c-0.086,-0.362 -1.16,-4.917 -1.222,-5.221l-0.038,-0.187l10.191,0c0.265,0 0.48,0.234 0.48,0.521l-0.003,0.034c0,0 -1.081,4.873 -1.082,4.883c-0.024,0.264 -0.229,0.471 -0.479,0.471Zm-8.723,-5.598c0.219,0.957 1.187,5.092 1.187,5.099c0.009,0.105 0.081,0.188 0.169,0.188l7.367,0c0.084,0 0.154,-0.076 0.168,-0.175c0.001,-0.012 1.085,-4.917 1.085,-4.917c-0.006,-0.109 -0.08,-0.195 -0.169,-0.195l-9.807,0l0,0Z" style="fill:#fff;fill-rule:nonzero;stroke:#fff;stroke-width:0.5px;stroke-linecap:butt;stroke-miterlimit:2;"/><path d="M150.309,59.586l1.088,5.597" style="fill:none;fill-rule:nonzero;stroke:#fff;stroke-width:0.5px;stroke-linecap:butt;stroke-linejoin:miter;stroke-miterlimit:10;"/><path d="M153.885,65.183l1.088,-5.597" style="fill:none;fill-rule:nonzero;stroke:#fff;stroke-width:0.5px;stroke-linecap:butt;stroke-linejoin:miter;stroke-miterlimit:10;"/><path d="M148.132,62.229l9.018,0" style="fill:none;fill-rule:nonzero;stroke:#fff;stroke-width:0.5px;stroke-linecap:butt;stroke-linejoin:miter;stroke-miterlimit:10;"/></g><path d="M156.135,66.53l-7.152,0l-1.866,-7.93l-1.866,0l1.866,0" style="fill:none;fill-rule:nonzero;stroke:#fff;stroke-width:0.75px;stroke-miterlimit:10;"/><circle cx="150.146" cy="67.854" r="0.933" style="fill:#fff;"/><circle cx="154.655" cy="67.854" r="0.933" style="fill:#fff;"/></g></svg>