<?xml version="1.0" encoding="UTF-8" standalone="no"?><!DOCTYPE svg PUBLIC "-//W3C//DTD SVG 1.1//EN" "http://www.w3.org/Graphics/SVG/1.1/DTD/svg11.dtd"><svg width="100%" height="100%" viewBox="0 0 350 120" version="1.1" xmlns="http://www.w3.org/2000/svg" xmlns:xlink="http://www.w3.org/1999/xlink" xml:space="preserve" xmlns:serif="http://www.serif.com/" style="fill-rule:evenodd;clip-rule:evenodd;stroke-linejoin:round;stroke-miterlimit:1.41421;"><g><rect x="0" y="0" width="350" height="120" style="fill:#008ebd;"/><path d="M157,60l13,0l-9.979,9.979l0.076,0.113l0.077,0.113l0.078,0.111l0.078,0.111l0.08,0.111l0.08,0.11l0.081,0.109l0.082,0.109l0.082,0.108l0.084,0.107l0.084,0.107l0.085,0.106l0.085,0.105l0.087,0.105l0.087,0.104l0.088,0.104l0.089,0.103l0.09,0.102l0.09,0.101l0.091,0.101l0.092,0.1l0.093,0.099l0.093,0.099l0.094,0.097l0.095,0.098l0.095,0.096l0.097,0.096l0.097,0.095l0.097,0.094l0.099,0.094l0.099,0.093l0.099,0.092l0.101,0.091l0.101,0.091l0.102,0.09l0.102,0.089l0.103,0.088l0.104,0.088l0.105,0.087l0.105,0.086l0.106,0.085l0.106,0.084l0.107,0.084l0.108,0.083l0.109,0.082l0.109,0.081l0.109,0.081l0.111,0.079l0.111,0.079l0.111,0.078l0.112,0.078l0.113,0.076l0.114,0.075l0.114,0.075l0.114,0.074l0.115,0.073l0.116,0.072l0.116,0.072l0.117,0.07l0.118,0.07l0.118,0.068l0.119,0.068l0.119,0.067l0.12,0.066l0.12,0.066l0.121,0.064l0.121,0.063l0.122,0.063l0.123,0.062l0.123,0.06l0.123,0.06l0.124,0.059l0.125,0.058l0.125,0.057l0.125,0.056l0.126,0.055l0.127,0.055l0.127,0.053l0.128,0.052l0.128,0.052l0.128,0.05l0.129,0.05l0.13,0.048l0.13,0.048l0.13,0.046l0.131,0.046l0.131,0.045l0.132,0.043l0.132,0.043l0.133,0.042l0.133,0.04l0.134,0.04l0.134,0.039l0.134,0.037l0.135,0.037l0.135,0.036l0.136,0.034l0.136,0.034l0.136,0.032l0.137,0.032l0.137,0.03l0.138,0.029l0.138,0.029l0.139,0.027l0.138,0.026l0.139,0.025l0.14,0.024l0.14,0.023l0.14,0.022l0.141,0.021l0.141,0.02l0.141,0.019l0.142,0.017l0.142,0.017l0.142,0.015l0.143,0.014l0.142,0.013l0.144,0.012l0.143,0.011l0.144,0.01l0.144,0.009l0.145,0.007l0.145,0.007l0.145,0.005l0.145,0.004l0.146,0.003l0.146,0.001l0.146,0.001l0.157,-0.001l0.157,-0.002l0.156,-0.003l0.156,-0.005l0.156,-0.006l0.156,-0.007l0.155,-0.009l0.155,-0.01l0.154,-0.011l0.154,-0.012l0.154,-0.014l0.153,-0.015l0.153,-0.017l0.152,-0.018l0.153,-0.018l0.151,-0.021l0.152,-0.021l0.151,-0.023l0.15,-0.024l0.15,-0.025l0.15,-0.027l0.149,-0.027l0.149,-0.029l0.148,-0.03l0.148,-0.032l0.148,-0.032l0.147,-0.034l0.147,-0.035l0.146,-0.036l0.145,-0.038l0.146,-0.038l0.144,-0.04l0.144,-0.041l0.144,-0.042l0.143,-0.043l0.143,-0.044l0.142,-0.046l0.142,-0.047l0.141,-0.048l0.141,-0.048l0.14,-0.051l0.14,-0.051l0.139,-0.052l0.138,-0.054l0.138,-0.054l0.137,-0.056l0.137,-0.056l0.137,-0.058l0.135,-0.059l0.135,-0.06l0.135,-0.061l0.134,-0.062l0.133,-0.064l0.133,-0.064l0.132,-0.065l0.131,-0.066l0.131,-0.068l0.131,-0.068l0.129,-0.07l0.129,-0.07l0.129,-0.072l0.127,-0.072l0.127,-0.074l0.127,-0.074l0.126,-0.076l0.125,-0.076l0.124,-0.078l0.124,-0.078l0.123,-0.08l0.122,-0.08l0.122,-0.082l0.121,-0.082l0.12,-0.083l0.12,-0.085l0.119,-0.085l0.118,-0.086l0.117,-0.087l0.117,-0.088l0.116,-0.089l0.115,-0.09l0.114,-0.091l0.114,-0.091l0.113,-0.093l0.112,-0.093l0.111,-0.095l0.111,-0.095l0.11,-0.096l0.109,-0.097l0.108,-0.098l0.107,-0.098l0.107,-0.1l0.106,-0.1l0.105,-0.102l0.104,-0.102l0.103,-0.103l0.103,-0.103l0.102,-0.105l0.101,-0.105l0.1,-0.107l0.099,-0.107l0.098,-0.107l0.097,-0.109l0.097,-0.109l0.096,-0.111l0.094,-0.111l0.094,-0.111l0.093,-0.113l0.093,-0.113l0.091,-0.114l0.09,-0.115l0.09,-0.115l0.088,-0.117l0.088,-0.117l0.086,-0.117l0.086,-0.119l0.085,-0.119l0.084,-0.12l0.082,-0.12l0.082,-0.122l0.081,-0.122l0.08,-0.122l0.079,-0.124l0.078,-0.124l0.077,-0.125l0.076,-0.125l0.076,-0.126l0.074,-0.127l0.073,-0.127l12.821,13.134l-0.155,0.199l-0.156,0.198l-0.158,0.197l-0.159,0.195l-0.16,0.195l-0.162,0.193l-0.163,0.192l-0.165,0.191l-0.165,0.19l-0.167,0.188l-0.169,0.188l-0.169,0.186l-0.171,0.185l-0.172,0.184l-0.174,0.183l-0.174,0.181l-0.176,0.18l-0.178,0.179l-0.178,0.178l-0.18,0.176l-0.181,0.176l-0.182,0.174l-0.183,0.172l-0.184,0.172l-0.186,0.17l-0.187,0.169l-0.188,0.167l-0.189,0.167l-0.191,0.165l-0.191,0.163l-0.193,0.163l-0.194,0.161l-0.195,0.16l-0.196,0.158l-0.197,0.157l-0.199,0.156l-0.199,0.154l-0.201,0.153l-0.202,0.151l-0.202,0.151l-0.204,0.148l-0.205,0.148l-0.206,0.146l-0.207,0.144l-0.208,0.144l-0.21,0.141l-0.21,0.141l-0.211,0.138l-0.212,0.138l-0.214,0.136l-0.214,0.134l-0.215,0.133l-0.217,0.132l-0.217,0.13l-0.218,0.129l-0.22,0.127l-0.22,0.125l-0.221,0.124l-0.222,0.123l-0.224,0.121l-0.224,0.12l-0.225,0.118l-0.226,0.116l-0.226,0.115l-0.228,0.113l-0.229,0.112l-0.23,0.11l-0.23,0.109l-0.231,0.107l-0.233,0.105l-0.233,0.104l-0.234,0.102l-0.235,0.101l-0.235,0.099l-0.237,0.097l-0.237,0.096l-0.238,0.094l-0.239,0.093l-0.24,0.09l-0.241,0.089l-0.241,0.088l-0.243,0.086l-0.243,0.084l-0.244,0.082l-0.244,0.081l-0.246,0.079l-0.246,0.077l-0.247,0.076l-0.247,0.073l-0.249,0.073l-0.249,0.07l-0.249,0.069l-0.251,0.066l-0.251,0.065l-0.252,0.064l-0.253,0.061l-0.253,0.06l-0.254,0.058l-0.255,0.056l-0.255,0.055l-0.256,0.052l-0.257,0.051l-0.257,0.049l-0.258,0.047l-0.259,0.045l-0.259,0.044l-0.26,0.041l-0.261,0.04l-0.261,0.038l-0.261,0.036l-0.263,0.034l-0.263,0.032l-0.263,0.03l-0.264,0.028l-0.265,0.027l-0.265,0.024l-0.265,0.023l-0.267,0.021l-0.266,0.019l-0.268,0.016l-0.267,0.015l-0.269,0.013l-0.269,0.011l-0.269,0.009l-0.27,0.007l-0.27,0.005l-0.271,0.003l-0.271,0.001l-0.262,-0.001l-0.262,-0.003l-0.262,-0.004l-0.261,-0.007l-0.261,-0.008l-0.26,-0.011l-0.26,-0.012l-0.259,-0.014l-0.258,-0.015l-0.259,-0.018l-0.257,-0.019l-0.258,-0.021l-0.256,-0.023l-0.257,-0.025l-0.255,-0.027l-0.255,-0.028l-0.255,-0.03l-0.254,-0.032l-0.254,-0.034l-0.253,-0.035l-0.252,-0.038l-0.252,-0.038l-0.251,-0.041l-0.251,-0.043l-0.25,-0.044l-0.249,-0.046l-0.249,-0.047l-0.248,-0.049l-0.248,-0.051l-0.247,-0.053l-0.246,-0.054l-0.246,-0.056l-0.245,-0.058l-0.245,-0.06l-0.244,-0.061l-0.243,-0.062l-0.242,-0.065l-0.242,-0.066l-0.241,-0.067l-0.241,-0.07l-0.24,-0.07l-0.239,-0.073l-0.238,-0.074l-0.238,-0.076l-0.237,-0.077l-0.236,-0.079l-0.236,-0.081l-0.234,-0.082l-0.235,-0.083l-0.233,-0.086l-0.232,-0.086l-0.232,-0.089l-0.231,-0.09l-0.23,-0.091l-0.23,-0.093l-0.229,-0.095l-0.227,-0.096l-0.228,-0.097l-0.226,-0.099l-0.225,-0.101l-0.225,-0.102l-0.224,-0.103l-0.223,-0.105l-0.222,-0.107l-0.221,-0.108l-0.221,-0.109l-0.219,-0.111l-0.219,-0.112l-0.218,-0.114l-0.217,-0.116l-0.216,-0.116l-0.216,-0.118l-0.214,-0.12l-0.213,-0.121l-0.213,-0.122l-0.212,-0.124l-0.21,-0.125l-0.21,-0.127l-0.209,-0.128l-0.208,-0.129l-0.207,-0.13l-0.206,-0.133l-0.205,-0.133l-0.204,-0.135l-0.203,-0.136l-0.202,-0.137l-0.202,-0.139l-0.2,-0.14l-0.199,-0.141l-0.198,-0.143l-0.197,-0.144l-0.197,-0.145l-0.195,-0.147l-0.194,-0.148l-0.193,-0.149l-0.192,-0.151l-0.191,-0.151l-0.19,-0.153l-0.189,-0.155l-0.188,-0.155l-0.186,-0.157l-0.186,-0.158l-0.185,-0.159l-0.183,-0.16l-0.183,-0.162l-0.181,-0.163l-0.18,-0.164l-0.179,-0.165l-0.178,-0.167l-0.177,-0.167l-0.176,-0.169l-0.174,-0.17l-0.174,-0.171l-0.172,-0.173l-0.171,-0.173l-0.17,-0.175l-0.169,-0.176l-0.167,-0.176l-0.167,-0.178l-0.165,-0.18l-0.164,-0.18l-0.163,-0.181l-0.161,-0.183l-0.16,-0.183l-0.16,-0.185l-0.157,-0.186l-0.157,-0.187l-0.156,-0.187l-8.171,8.171l0,-31l18,0Zm-16,2l0,24.172l4.757,-4.758l0.166,-0.148l0.18,-0.128l0.194,-0.108l0.205,-0.086l0.213,-0.063l0.218,-0.038l0.222,-0.014l0.221,0.01l0.219,0.035l0.214,0.059l0.206,0.082l0.196,0.105l0.183,0.126l0.168,0.145l0.151,0.163l0.151,0.183l0.148,0.176l0.149,0.176l0.15,0.174l0.152,0.173l0.152,0.173l0.154,0.171l0.155,0.171l0.156,0.169l0.157,0.168l0.159,0.167l0.159,0.166l0.161,0.165l0.161,0.164l0.163,0.163l0.164,0.162l0.165,0.16l0.166,0.16l0.167,0.158l0.168,0.158l0.169,0.156l0.171,0.155l0.171,0.154l0.172,0.152l0.174,0.152l0.174,0.15l0.175,0.15l0.177,0.148l0.177,0.147l0.179,0.145l0.179,0.145l0.181,0.143l0.181,0.142l0.183,0.141l0.183,0.14l0.184,0.138l0.186,0.138l0.186,0.136l0.187,0.135l0.188,0.133l0.189,0.133l0.191,0.131l0.19,0.129l0.192,0.129l0.193,0.127l0.194,0.126l0.194,0.125l0.196,0.123l0.196,0.122l0.198,0.121l0.198,0.12l0.199,0.118l0.2,0.117l0.2,0.115l0.202,0.115l0.202,0.113l0.204,0.111l0.204,0.11l0.205,0.109l0.206,0.108l0.206,0.106l0.208,0.104l0.208,0.104l0.209,0.102l0.209,0.1l0.211,0.099l0.211,0.098l0.213,0.097l0.212,0.094l0.214,0.094l0.214,0.092l0.216,0.091l0.215,0.089l0.217,0.088l0.218,0.086l0.218,0.085l0.218,0.083l0.22,0.082l0.22,0.081l0.221,0.079l0.222,0.077l0.222,0.076l0.223,0.075l0.224,0.073l0.224,0.071l0.225,0.07l0.226,0.069l0.226,0.067l0.227,0.065l0.228,0.064l0.228,0.062l0.229,0.061l0.23,0.059l0.23,0.058l0.231,0.056l0.231,0.054l0.232,0.053l0.233,0.051l0.233,0.05l0.234,0.048l0.234,0.047l0.235,0.045l0.236,0.043l0.236,0.042l0.237,0.04l0.237,0.038l0.238,0.037l0.238,0.035l0.239,0.033l0.239,0.032l0.24,0.03l0.241,0.029l0.241,0.027l0.241,0.025l0.242,0.023l0.243,0.022l0.243,0.02l0.243,0.018l0.244,0.017l0.245,0.015l0.245,0.013l0.245,0.011l0.246,0.01l0.246,0.008l0.247,0.006l0.247,0.004l0.248,0.003l0.248,0.001l0.256,-0.001l0.256,-0.003l0.256,-0.005l0.255,-0.006l0.255,-0.009l0.254,-0.01l0.253,-0.012l0.253,-0.014l0.253,-0.016l0.252,-0.018l0.251,-0.019l0.251,-0.022l0.251,-0.023l0.25,-0.025l0.249,-0.027l0.249,-0.028l0.248,-0.031l0.248,-0.032l0.247,-0.034l0.246,-0.035l0.246,-0.038l0.246,-0.039l0.245,-0.041l0.244,-0.043l0.243,-0.044l0.243,-0.047l0.243,-0.047l0.241,-0.05l0.241,-0.051l0.241,-0.053l0.24,-0.055l0.239,-0.057l0.238,-0.058l0.238,-0.059l0.237,-0.062l0.237,-0.063l0.236,-0.065l0.235,-0.066l0.234,-0.068l0.234,-0.07l0.233,-0.071l0.233,-0.073l0.231,-0.075l0.231,-0.076l0.23,-0.078l0.23,-0.079l0.228,-0.081l0.228,-0.083l0.227,-0.084l0.227,-0.085l0.226,-0.088l0.224,-0.088l0.225,-0.091l0.223,-0.092l0.222,-0.093l0.222,-0.095l0.221,-0.097l0.22,-0.098l0.219,-0.099l0.219,-0.101l0.217,-0.103l0.217,-0.104l0.216,-0.106l0.215,-0.107l0.215,-0.108l0.213,-0.11l0.212,-0.111l0.212,-0.113l0.211,-0.115l0.209,-0.115l0.209,-0.118l0.208,-0.118l0.208,-0.12l0.206,-0.122l0.205,-0.123l0.204,-0.124l0.204,-0.125l0.202,-0.128l0.202,-0.128l0.2,-0.13l0.2,-0.131l0.198,-0.132l0.198,-0.134l0.197,-0.136l0.195,-0.136l0.195,-0.138l0.193,-0.139l0.193,-0.141l0.192,-0.142l0.19,-0.143l0.19,-0.144l0.188,-0.146l0.188,-0.147l0.186,-0.149l0.185,-0.149l0.184,-0.151l0.184,-0.152l0.182,-0.154l0.181,-0.154l0.18,-0.156l0.178,-0.157l0.178,-0.159l0.177,-0.159l0.175,-0.161l0.175,-0.162l0.173,-0.163l0.172,-0.165l0.171,-0.165l0.169,-0.167l0.169,-0.168l0.167,-0.169l0.167,-0.17l0.165,-0.172l0.164,-0.172l0.162,-0.174l0.162,-0.175l0.16,-0.176l0.159,-0.177l0.158,-0.178l0.156,-0.179l0.112,-0.13l-9.843,-10.082l-0.09,0.118l-0.099,0.129l-0.101,0.127l-0.101,0.127l-0.102,0.126l-0.103,0.125l-0.105,0.124l-0.105,0.123l-0.106,0.122l-0.107,0.122l-0.109,0.12l-0.109,0.12l-0.11,0.119l-0.111,0.118l-0.112,0.117l-0.113,0.116l-0.114,0.115l-0.114,0.114l-0.116,0.114l-0.117,0.112l-0.117,0.111l-0.119,0.111l-0.119,0.11l-0.12,0.108l-0.121,0.108l-0.122,0.107l-0.123,0.105l-0.124,0.105l-0.124,0.104l-0.125,0.103l-0.127,0.101l-0.127,0.101l-0.128,0.1l-0.128,0.099l-0.13,0.097l-0.13,0.097l-0.131,0.096l-0.132,0.094l-0.133,0.094l-0.134,0.093l-0.134,0.091l-0.135,0.09l-0.136,0.09l-0.137,0.088l-0.137,0.087l-0.139,0.086l-0.139,0.085l-0.139,0.084l-0.141,0.083l-0.141,0.082l-0.142,0.08l-0.143,0.08l-0.143,0.078l-0.144,0.077l-0.145,0.076l-0.145,0.075l-0.146,0.074l-0.147,0.073l-0.148,0.071l-0.148,0.07l-0.149,0.069l-0.149,0.068l-0.151,0.067l-0.151,0.066l-0.151,0.064l-0.152,0.063l-0.153,0.062l-0.153,0.06l-0.154,0.06l-0.155,0.058l-0.155,0.057l-0.156,0.056l-0.156,0.054l-0.157,0.053l-0.158,0.052l-0.158,0.051l-0.159,0.049l-0.159,0.048l-0.16,0.047l-0.16,0.046l-0.161,0.044l-0.162,0.043l-0.162,0.041l-0.162,0.04l-0.163,0.039l-0.164,0.038l-0.164,0.036l-0.164,0.035l-0.165,0.033l-0.166,0.033l-0.166,0.03l-0.166,0.03l-0.167,0.028l-0.167,0.026l-0.168,0.026l-0.168,0.024l-0.169,0.022l-0.169,0.021l-0.169,0.02l-0.17,0.018l-0.17,0.017l-0.171,0.015l-0.171,0.014l-0.172,0.013l-0.171,0.011l-0.173,0.009l-0.172,0.008l-0.173,0.007l-0.173,0.005l-0.174,0.004l-0.174,0.002l-0.174,0.001l-0.162,-0.001l-0.162,-0.002l-0.162,-0.003l-0.161,-0.004l-0.161,-0.006l-0.161,-0.007l-0.16,-0.008l-0.16,-0.01l-0.16,-0.011l-0.159,-0.012l-0.16,-0.013l-0.158,-0.015l-0.159,-0.016l-0.158,-0.017l-0.158,-0.018l-0.157,-0.02l-0.157,-0.02l-0.157,-0.022l-0.156,-0.023l-0.156,-0.025l-0.155,-0.025l-0.155,-0.027l-0.155,-0.028l-0.154,-0.029l-0.154,-0.03l-0.154,-0.032l-0.153,-0.033l-0.152,-0.033l-0.152,-0.035l-0.152,-0.037l-0.152,-0.037l-0.15,-0.038l-0.151,-0.04l-0.15,-0.041l-0.149,-0.041l-0.149,-0.043l-0.149,-0.045l-0.148,-0.045l-0.147,-0.046l-0.147,-0.048l-0.147,-0.048l-0.146,-0.05l-0.145,-0.05l-0.145,-0.052l-0.145,-0.053l-0.144,-0.054l-0.143,-0.055l-0.143,-0.056l-0.143,-0.058l-0.142,-0.058l-0.141,-0.059l-0.141,-0.06l-0.14,-0.062l-0.139,-0.062l-0.139,-0.064l-0.139,-0.064l-0.138,-0.065l-0.137,-0.067l-0.137,-0.067l-0.136,-0.069l-0.135,-0.069l-0.135,-0.071l-0.135,-0.071l-0.133,-0.073l-0.133,-0.073l-0.133,-0.075l-0.132,-0.075l-0.131,-0.077l-0.13,-0.077l-0.13,-0.078l-0.13,-0.08l-0.128,-0.08l-0.128,-0.081l-0.127,-0.082l-0.127,-0.083l-0.126,-0.084l-0.125,-0.085l-0.125,-0.086l-0.124,-0.086l-0.123,-0.088l-0.123,-0.088l-0.121,-0.09l-0.122,-0.09l-0.12,-0.091l-0.12,-0.092l-0.119,-0.093l-0.118,-0.094l-0.117,-0.095l-0.117,-0.095l-0.116,-0.097l-0.116,-0.097l-0.114,-0.098l-0.114,-0.099l-0.113,-0.1l-0.112,-0.1l-0.112,-0.102l-0.111,-0.102l-0.11,-0.103l-0.109,-0.104l-0.108,-0.105l-0.108,-0.105l-0.107,-0.106l-0.106,-0.108l-0.105,-0.108l-0.104,-0.108l-0.104,-0.11l-0.103,-0.11l-0.102,-0.111l-0.101,-0.112l-0.1,-0.112l-0.1,-0.114l-0.098,-0.114l-0.098,-0.115l-0.097,-0.115l-0.096,-0.117l-0.095,-0.117l-0.095,-0.117l-0.093,-0.119l-0.093,-0.119l-0.092,-0.12l-0.091,-0.121l-0.089,-0.121l-0.09,-0.122l-0.088,-0.123l-0.087,-0.124l-0.086,-0.124l-0.086,-0.125l-0.08,-0.119l-0.109,-0.182l-0.089,-0.192l-0.068,-0.201l-0.047,-0.206l-0.024,-0.211l-0.002,-0.212l0.02,-0.211l0.043,-0.207l0.064,-0.202l0.085,-0.194l0.106,-0.184l0.124,-0.172l0.142,-0.157l6.565,-6.565l-24.172,0Z" style="fill:#fff;"/><path d="M175,55l-9.979,-9.979l-0.113,0.076l-0.113,0.077l-0.111,0.078l-0.111,0.078l-0.111,0.08l-0.11,0.08l-0.109,0.081l-0.109,0.082l-0.108,0.082l-0.107,0.084l-0.107,0.084l-0.106,0.085l-0.105,0.085l-0.105,0.087l-0.104,0.087l-0.104,0.088l-0.102,0.089l-0.103,0.09l-0.101,0.09l-0.101,0.091l-0.1,0.092l-0.099,0.093l-0.099,0.093l-0.097,0.094l-0.098,0.095l-0.096,0.095l-0.096,0.097l-0.095,0.096l-0.094,0.098l-0.094,0.099l-0.093,0.099l-0.092,0.099l-0.091,0.101l-0.091,0.101l-0.09,0.102l-0.089,0.102l-0.088,0.103l-0.088,0.104l-0.086,0.105l-0.087,0.105l-0.085,0.106l-0.084,0.106l-0.084,0.107l-0.083,0.108l-0.082,0.109l-0.081,0.109l-0.081,0.109l-0.079,0.111l-0.079,0.111l-0.078,0.111l-0.077,0.112l-0.077,0.113l-0.075,0.114l-0.075,0.114l-0.074,0.114l-0.073,0.115l-0.072,0.116l-0.072,0.116l-0.07,0.117l-0.07,0.118l-0.068,0.118l-0.068,0.119l-0.067,0.119l-0.066,0.119l-0.066,0.121l-0.064,0.121l-0.063,0.121l-0.063,0.122l-0.062,0.122l-0.06,0.123l-0.06,0.124l-0.059,0.124l-0.058,0.125l-0.057,0.125l-0.056,0.125l-0.055,0.126l-0.055,0.127l-0.053,0.127l-0.052,0.128l-0.052,0.128l-0.05,0.128l-0.05,0.129l-0.048,0.13l-0.048,0.13l-0.046,0.13l-0.046,0.131l-0.045,0.131l-0.043,0.132l-0.043,0.132l-0.042,0.133l-0.04,0.133l-0.04,0.134l-0.039,0.134l-0.037,0.134l-0.037,0.135l-0.036,0.135l-0.034,0.136l-0.034,0.136l-0.032,0.136l-0.032,0.137l-0.03,0.137l-0.029,0.138l-0.029,0.138l-0.027,0.138l-0.026,0.139l-0.025,0.139l-0.024,0.14l-0.023,0.14l-0.022,0.14l-0.021,0.141l-0.02,0.141l-0.019,0.141l-0.017,0.142l-0.017,0.142l-0.015,0.142l-0.014,0.142l-0.013,0.143l-0.012,0.144l-0.011,0.143l-0.01,0.144l-0.009,0.144l-0.007,0.145l-0.006,0.145l-0.006,0.145l-0.004,0.145l-0.003,0.146l-0.001,0.146l-0.001,0.146l0,2l-18,0l0,-2l0.001,-0.262l0.003,-0.262l0.004,-0.262l0.007,-0.261l0.008,-0.261l0.011,-0.26l0.012,-0.26l0.014,-0.259l0.015,-0.258l0.018,-0.259l0.019,-0.257l0.021,-0.258l0.023,-0.256l0.025,-0.257l0.027,-0.255l0.028,-0.255l0.03,-0.255l0.032,-0.254l0.034,-0.254l0.035,-0.253l0.038,-0.252l0.038,-0.252l0.041,-0.251l0.043,-0.251l0.044,-0.25l0.046,-0.249l0.047,-0.249l0.049,-0.248l0.051,-0.248l0.053,-0.247l0.054,-0.246l0.056,-0.246l0.058,-0.245l0.06,-0.245l0.061,-0.244l0.062,-0.243l0.065,-0.242l0.066,-0.242l0.067,-0.241l0.07,-0.241l0.07,-0.24l0.073,-0.239l0.074,-0.238l0.076,-0.238l0.077,-0.237l0.079,-0.236l0.081,-0.236l0.082,-0.234l0.083,-0.235l0.086,-0.233l0.086,-0.232l0.089,-0.232l0.09,-0.231l0.091,-0.23l0.093,-0.23l0.095,-0.229l0.096,-0.227l0.097,-0.228l0.099,-0.226l0.101,-0.225l0.102,-0.225l0.103,-0.224l0.105,-0.223l0.107,-0.222l0.108,-0.221l0.109,-0.221l0.111,-0.219l0.112,-0.219l0.114,-0.218l0.116,-0.217l0.116,-0.216l0.118,-0.216l0.12,-0.214l0.121,-0.213l0.122,-0.213l0.124,-0.212l0.125,-0.21l0.127,-0.21l0.128,-0.209l0.129,-0.208l0.13,-0.207l0.133,-0.206l0.133,-0.205l0.135,-0.204l0.136,-0.203l0.137,-0.202l0.139,-0.202l0.14,-0.2l0.141,-0.199l0.143,-0.198l0.144,-0.197l0.145,-0.197l0.147,-0.195l0.148,-0.194l0.149,-0.193l0.151,-0.192l0.151,-0.191l0.153,-0.19l0.155,-0.189l0.155,-0.188l0.157,-0.186l0.158,-0.186l0.159,-0.185l0.16,-0.183l0.162,-0.183l0.163,-0.181l0.164,-0.18l0.165,-0.179l0.167,-0.178l0.167,-0.177l0.169,-0.176l0.17,-0.174l0.171,-0.174l0.173,-0.172l0.173,-0.171l0.175,-0.17l0.176,-0.169l0.176,-0.167l0.178,-0.167l0.18,-0.165l0.18,-0.164l0.181,-0.163l0.183,-0.161l0.183,-0.16l0.185,-0.16l0.186,-0.157l0.187,-0.157l0.187,-0.156l-8.171,-8.171l31,0l0,31Zm-26.172,-29l6.312,6.312l-1.877,1.552l-0.176,0.148l-0.176,0.149l-0.174,0.15l-0.174,0.152l-0.172,0.152l-0.171,0.154l-0.171,0.155l-0.169,0.156l-0.168,0.157l-0.167,0.159l-0.166,0.159l-0.165,0.161l-0.164,0.161l-0.163,0.163l-0.162,0.164l-0.16,0.165l-0.16,0.166l-0.158,0.167l-0.158,0.168l-0.156,0.169l-0.155,0.171l-0.154,0.171l-0.152,0.172l-0.152,0.174l-0.15,0.174l-0.15,0.175l-0.148,0.177l-0.147,0.177l-0.145,0.179l-0.145,0.179l-0.143,0.181l-0.142,0.181l-0.141,0.183l-0.14,0.183l-0.138,0.184l-0.138,0.186l-0.136,0.186l-0.135,0.187l-0.133,0.188l-0.133,0.189l-0.131,0.191l-0.129,0.19l-0.129,0.192l-0.127,0.193l-0.126,0.194l-0.125,0.194l-0.123,0.196l-0.123,0.196l-0.12,0.198l-0.12,0.198l-0.118,0.199l-0.117,0.2l-0.115,0.2l-0.115,0.202l-0.113,0.202l-0.111,0.204l-0.11,0.204l-0.109,0.205l-0.108,0.206l-0.106,0.206l-0.104,0.207l-0.104,0.209l-0.102,0.209l-0.1,0.209l-0.099,0.211l-0.098,0.211l-0.097,0.213l-0.094,0.212l-0.094,0.214l-0.092,0.214l-0.091,0.216l-0.089,0.216l-0.088,0.216l-0.086,0.218l-0.085,0.218l-0.083,0.218l-0.082,0.22l-0.081,0.22l-0.079,0.221l-0.077,0.222l-0.076,0.222l-0.075,0.223l-0.073,0.224l-0.071,0.224l-0.07,0.225l-0.069,0.226l-0.067,0.226l-0.065,0.227l-0.064,0.228l-0.062,0.228l-0.061,0.229l-0.059,0.23l-0.058,0.23l-0.056,0.231l-0.054,0.231l-0.053,0.232l-0.051,0.233l-0.05,0.233l-0.048,0.234l-0.047,0.234l-0.045,0.235l-0.043,0.236l-0.042,0.236l-0.04,0.237l-0.038,0.237l-0.037,0.238l-0.035,0.238l-0.033,0.239l-0.032,0.239l-0.03,0.24l-0.029,0.241l-0.027,0.241l-0.025,0.241l-0.023,0.242l-0.022,0.243l-0.02,0.243l-0.018,0.243l-0.017,0.244l-0.015,0.245l-0.013,0.245l-0.011,0.245l-0.01,0.246l-0.008,0.246l-0.006,0.247l-0.004,0.247l-0.003,0.248l-0.001,0.248l14,0l0,-0.004l0.001,-0.158l0.002,-0.162l0.003,-0.162l0.004,-0.161l0.006,-0.161l0.007,-0.161l0.008,-0.16l0.01,-0.16l0.011,-0.16l0.012,-0.159l0.013,-0.16l0.015,-0.158l0.016,-0.159l0.017,-0.158l0.018,-0.158l0.02,-0.157l0.02,-0.157l0.022,-0.157l0.023,-0.156l0.025,-0.156l0.025,-0.155l0.027,-0.155l0.028,-0.155l0.029,-0.154l0.031,-0.154l0.031,-0.154l0.033,-0.153l0.033,-0.152l0.036,-0.153l0.036,-0.151l0.037,-0.152l0.038,-0.15l0.04,-0.151l0.041,-0.15l0.042,-0.149l0.043,-0.149l0.044,-0.149l0.045,-0.148l0.046,-0.147l0.048,-0.147l0.048,-0.147l0.05,-0.146l0.051,-0.145l0.051,-0.146l0.053,-0.144l0.054,-0.144l0.055,-0.144l0.056,-0.142l0.058,-0.143l0.058,-0.142l0.059,-0.141l0.06,-0.141l0.062,-0.14l0.062,-0.14l0.064,-0.139l0.064,-0.138l0.066,-0.138l0.066,-0.137l0.068,-0.137l0.068,-0.136l0.07,-0.136l0.07,-0.134l0.072,-0.135l0.072,-0.133l0.074,-0.134l0.074,-0.132l0.075,-0.132l0.077,-0.131l0.077,-0.131l0.078,-0.129l0.08,-0.13l0.08,-0.128l0.081,-0.128l0.082,-0.128l0.083,-0.126l0.084,-0.126l0.085,-0.125l0.086,-0.125l0.086,-0.124l0.088,-0.123l0.088,-0.123l0.09,-0.121l0.09,-0.122l0.091,-0.12l0.092,-0.12l0.093,-0.119l0.094,-0.118l0.095,-0.117l0.095,-0.117l0.097,-0.116l0.097,-0.116l0.098,-0.114l0.099,-0.114l0.1,-0.113l0.1,-0.112l0.102,-0.112l0.102,-0.111l0.103,-0.11l0.104,-0.109l0.105,-0.108l0.105,-0.108l0.107,-0.107l0.107,-0.106l0.108,-0.105l0.108,-0.105l0.11,-0.103l0.11,-0.103l0.111,-0.102l0.112,-0.101l0.112,-0.1l0.114,-0.1l0.114,-0.098l0.115,-0.098l0.115,-0.097l0.117,-0.096l0.117,-0.096l0.117,-0.094l0.119,-0.093l0.119,-0.093l0.12,-0.092l0.121,-0.091l0.121,-0.09l0.122,-0.089l0.123,-0.088l0.124,-0.087l0.124,-0.086l0.125,-0.086l1.485,-1l7.73,7.73l0,-24.172l-24.172,0Z" style="fill:#fff;"/><path d="M151,58l-2,0l0,-2l2,0l0,2Zm4,0l-2,0l0,-2l2,0l0,2Zm-12,0l-2,0l0,-2l2,0l0,2Zm4,0l-2,0l0,-2l2,0l0,2Zm3,-1l0,0l0,0l0,0l0,0Zm-3,-3l-2,0l0,-2l2,0l0,2Zm-4,0l-2,0l0,-2l2,0l0,2Zm12,0l-2,0l0,-2l2,0l0,2Zm-4,0l-2,0l0,-2l2,0l0,2Zm-1,-1l0,0l0,0l0,0l0,0Zm9,-3l-2,0l0,-2l2,0l0,2Zm-16,0l-2,0l1,-2l1,0l0,2Zm4,0l-2,0l0,-2l2,0l0,2Zm4,0l-2,0l0,-2l2,0l0,2Zm4,0l-2,0l0,-2l2,0l0,2Zm-5,-1l0,0l0,0l0,0l0,0Zm21,-3l-2,0l0,-2l2,0l0,2Zm-24,0l-2,0l0,-2l2,0l0,2Zm4,0l-2,0l0,-2l2,0l0,2Zm4,0l-2,0l0,-2l2,0l0,2Zm8,0l-2,0l0,-2l2,0l0,2Zm-4,0l-2,0l0,-2l2,0l0,2Zm3,-1l0,0l0,0l0,0l0,0Zm-12,0l0,0l0,0l0,0l0,0Zm5,-3l-2,0l0,-2l2,0l0,2Zm12,0l-2,0l0,-2l2,0l0,2Zm-20,0l-2,0l2,-2l0,2Zm4,0l-2,0l0,-2l2,0l0,2Zm12,0l-2,0l0,-2l2,0l0,2Zm-4,0l-2,0l0,-2l2,0l0,2Zm12,0l-2,0l0,-2l2,0l0,2Zm-9,-1l0,0l0,0l0,0l0,0Zm-12,0l0,0l0,0l0,0l0,0Zm1,-3l-2,0l0,-2l2,0l0,2Zm16,0l-2,0l0,-2l2,0l0,2Zm-4,0l-2,0l0,-2l2,0l0,2Zm-8,0l-2,0l0,-2l2,0l0,2Zm4,0l-2,0l0,-2l2,0l0,2Zm12,0l-2,0l0,-2l2,0l0,2Zm-9,-1l0,0l0,0l0,0l0,0Zm-12,0l0,0l0,0l0,0l0,0Zm13,-3l-2,0l0,-2l2,0l0,2Zm8,0l-2,0l0,-2l2,0l0,2Zm-12,0l-2,0l0,-2l2,0l0,2Zm-4,-1.711l0,1.711l-2,0l0,-2l1,0l1,0.289Zm12,1.711l-2,0l0,-2l2,0l0,2Zm-5,-1l0,0l0,0l0,0l0,0Zm-3,-3l-2,0l0,-2l2,0l0,2Zm-4,0l-2,0l0,-2l2,0l0,2Zm12,0l-2,0l0,-2l2,0l0,2Zm-4,0l-2,0l0,-2l2,0l0,2Zm8,0l-2,0l0,-2l2,0l0,2Zm-9,-1l0,0l0,0l0,0l0,0Z" style="fill:#fff;"/><g><path d="M175,24c11.207,0 21.224,5.132 27.829,13.171l8.171,-8.171l0,31l-31,0l9.979,-9.979c-3.229,-4.834 -8.734,-8.021 -14.979,-8.021l-2,0l0,-18l2,0Z" style="fill:#fff;"/><path d="M175.262,24.001l0.262,0.003l0.262,0.004l0.261,0.007l0.261,0.008l0.26,0.011l0.26,0.012l0.259,0.014l0.259,0.015l0.258,0.018l0.257,0.019l0.258,0.022l0.256,0.022l0.257,0.025l0.255,0.027l0.255,0.028l0.255,0.03l0.254,0.032l0.254,0.034l0.253,0.035l0.252,0.038l0.252,0.039l0.251,0.04l0.251,0.043l0.25,0.044l0.249,0.046l0.249,0.047l0.248,0.049l0.248,0.051l0.247,0.053l0.247,0.054l0.245,0.057l0.245,0.057l0.245,0.06l0.244,0.061l0.243,0.062l0.243,0.065l0.241,0.066l0.242,0.067l0.24,0.07l0.24,0.071l0.239,0.072l0.238,0.074l0.238,0.076l0.237,0.077l0.236,0.079l0.236,0.081l0.235,0.082l0.234,0.083l0.233,0.086l0.232,0.086l0.232,0.089l0.231,0.09l0.231,0.091l0.229,0.093l0.229,0.095l0.228,0.096l0.227,0.097l0.226,0.099l0.225,0.101l0.225,0.102l0.224,0.103l0.223,0.105l0.222,0.107l0.221,0.108l0.221,0.109l0.22,0.111l0.218,0.113l0.218,0.113l0.217,0.116l0.216,0.116l0.216,0.118l0.214,0.12l0.213,0.121l0.213,0.122l0.212,0.124l0.21,0.125l0.21,0.127l0.209,0.128l0.208,0.129l0.207,0.131l0.206,0.132l0.205,0.133l0.204,0.135l0.203,0.136l0.203,0.137l0.201,0.139l0.2,0.14l0.199,0.141l0.198,0.143l0.197,0.144l0.197,0.146l0.195,0.146l0.194,0.148l0.193,0.149l0.192,0.151l0.191,0.151l0.19,0.153l0.189,0.155l0.188,0.155l0.186,0.157l0.186,0.158l0.185,0.159l0.183,0.16l0.183,0.162l0.181,0.163l0.18,0.164l0.179,0.165l0.178,0.167l0.177,0.167l0.176,0.169l0.174,0.17l0.174,0.171l0.172,0.173l0.171,0.173l0.17,0.175l0.169,0.176l0.167,0.176l0.167,0.178l0.165,0.18l0.164,0.18l0.163,0.181l0.161,0.183l0.16,0.183l0.16,0.185l0.157,0.186l0.157,0.187l0.156,0.187l8.171,-8.171l0,31l-31,0l9.979,-9.979l-0.076,-0.113l-0.077,-0.113l-0.078,-0.111l-0.078,-0.111l-0.08,-0.111l-0.08,-0.11l-0.081,-0.109l-0.082,-0.109l-0.082,-0.108l-0.084,-0.107l-0.084,-0.107l-0.085,-0.106l-0.085,-0.105l-0.087,-0.105l-0.087,-0.104l-0.088,-0.104l-0.089,-0.102l-0.09,-0.103l-0.09,-0.101l-0.091,-0.101l-0.092,-0.1l-0.093,-0.099l-0.093,-0.099l-0.094,-0.097l-0.095,-0.098l-0.095,-0.096l-0.097,-0.096l-0.096,-0.095l-0.098,-0.094l-0.099,-0.094l-0.099,-0.093l-0.099,-0.092l-0.101,-0.091l-0.101,-0.091l-0.102,-0.09l-0.102,-0.089l-0.103,-0.088l-0.104,-0.088l-0.105,-0.086l-0.105,-0.087l-0.106,-0.085l-0.106,-0.084l-0.107,-0.084l-0.108,-0.083l-0.109,-0.082l-0.109,-0.081l-0.109,-0.081l-0.111,-0.079l-0.111,-0.079l-0.111,-0.078l-0.112,-0.077l-0.113,-0.077l-0.114,-0.075l-0.114,-0.075l-0.114,-0.074l-0.115,-0.073l-0.116,-0.072l-0.116,-0.072l-0.117,-0.07l-0.118,-0.07l-0.118,-0.068l-0.119,-0.068l-0.119,-0.067l-0.119,-0.066l-0.121,-0.066l-0.121,-0.064l-0.121,-0.063l-0.122,-0.063l-0.122,-0.062l-0.123,-0.06l-0.124,-0.06l-0.124,-0.059l-0.125,-0.058l-0.125,-0.057l-0.125,-0.056l-0.126,-0.055l-0.127,-0.055l-0.127,-0.053l-0.128,-0.052l-0.128,-0.052l-0.128,-0.05l-0.129,-0.05l-0.13,-0.048l-0.13,-0.048l-0.13,-0.046l-0.131,-0.046l-0.131,-0.045l-0.132,-0.043l-0.132,-0.043l-0.133,-0.042l-0.133,-0.04l-0.134,-0.04l-0.134,-0.039l-0.134,-0.037l-0.135,-0.037l-0.135,-0.036l-0.136,-0.034l-0.136,-0.034l-0.136,-0.032l-0.137,-0.032l-0.137,-0.03l-0.138,-0.029l-0.138,-0.029l-0.138,-0.027l-0.139,-0.026l-0.139,-0.025l-0.14,-0.024l-0.14,-0.023l-0.14,-0.022l-0.141,-0.021l-0.141,-0.02l-0.141,-0.019l-0.142,-0.017l-0.142,-0.017l-0.142,-0.015l-0.142,-0.014l-0.143,-0.013l-0.144,-0.012l-0.143,-0.011l-0.144,-0.01l-0.144,-0.009l-0.145,-0.007l-0.145,-0.006l-0.145,-0.006l-0.145,-0.004l-0.146,-0.003l-0.146,-0.001l-0.146,-0.001l-2,0l0,-18l2,0l0.262,0.001Zm-0.262,15.999l0.004,0l0.158,0.001l0.162,0.002l0.162,0.003l0.161,0.004l0.161,0.006l0.161,0.007l0.16,0.008l0.16,0.01l0.16,0.011l0.159,0.012l0.16,0.013l0.158,0.015l0.159,0.016l0.158,0.017l0.158,0.018l0.157,0.02l0.157,0.02l0.157,0.022l0.156,0.023l0.156,0.025l0.155,0.025l0.155,0.027l0.155,0.028l0.154,0.029l0.154,0.031l0.154,0.031l0.153,0.033l0.152,0.033l0.153,0.036l0.151,0.036l0.152,0.037l0.15,0.038l0.151,0.04l0.15,0.041l0.149,0.042l0.149,0.043l0.149,0.044l0.148,0.045l0.147,0.046l0.147,0.048l0.147,0.048l0.146,0.05l0.146,0.051l0.145,0.051l0.144,0.053l0.144,0.054l0.144,0.055l0.142,0.056l0.143,0.058l0.142,0.058l0.141,0.059l0.141,0.06l0.14,0.062l0.139,0.062l0.14,0.064l0.138,0.064l0.138,0.066l0.137,0.066l0.137,0.068l0.136,0.068l0.136,0.07l0.134,0.07l0.135,0.072l0.133,0.072l0.134,0.074l0.132,0.074l0.132,0.075l0.131,0.077l0.131,0.077l0.129,0.078l0.13,0.08l0.128,0.08l0.128,0.081l0.128,0.082l0.126,0.083l0.126,0.084l0.125,0.085l0.125,0.086l0.124,0.086l0.123,0.088l0.123,0.088l0.122,0.09l0.121,0.09l0.12,0.091l0.12,0.092l0.119,0.093l0.118,0.094l0.118,0.095l0.116,0.095l0.116,0.097l0.116,0.097l0.114,0.098l0.114,0.099l0.113,0.1l0.112,0.1l0.112,0.102l0.111,0.102l0.11,0.103l0.109,0.104l0.108,0.105l0.108,0.105l0.107,0.107l0.106,0.107l0.105,0.108l0.105,0.108l0.103,0.11l0.103,0.11l0.102,0.111l0.101,0.112l0.1,0.112l0.1,0.114l0.098,0.114l0.098,0.115l0.097,0.115l0.096,0.117l0.095,0.117l0.095,0.117l0.093,0.119l0.093,0.119l0.092,0.12l0.091,0.121l0.09,0.121l0.089,0.122l0.088,0.123l0.087,0.124l0.086,0.124l0.086,0.125l1,1.485l-7.73,7.73l24.172,0l0,-24.172l-6.312,6.312l-1.552,-1.877l-0.148,-0.176l-0.149,-0.176l-0.15,-0.174l-0.152,-0.173l-0.152,-0.173l-0.154,-0.171l-0.155,-0.171l-0.156,-0.169l-0.157,-0.168l-0.159,-0.167l-0.159,-0.166l-0.161,-0.165l-0.161,-0.164l-0.163,-0.163l-0.164,-0.162l-0.165,-0.16l-0.166,-0.16l-0.167,-0.158l-0.168,-0.157l-0.169,-0.157l-0.171,-0.155l-0.171,-0.154l-0.172,-0.152l-0.174,-0.152l-0.174,-0.15l-0.175,-0.15l-0.177,-0.148l-0.177,-0.146l-0.179,-0.146l-0.179,-0.145l-0.181,-0.143l-0.181,-0.142l-0.183,-0.141l-0.183,-0.14l-0.184,-0.138l-0.186,-0.138l-0.186,-0.136l-0.187,-0.135l-0.188,-0.133l-0.189,-0.132l-0.19,-0.132l-0.191,-0.129l-0.192,-0.129l-0.193,-0.127l-0.194,-0.126l-0.194,-0.125l-0.196,-0.123l-0.196,-0.122l-0.198,-0.121l-0.198,-0.12l-0.199,-0.118l-0.2,-0.117l-0.2,-0.115l-0.202,-0.115l-0.202,-0.112l-0.204,-0.112l-0.204,-0.11l-0.205,-0.109l-0.205,-0.107l-0.207,-0.107l-0.207,-0.104l-0.209,-0.104l-0.209,-0.102l-0.209,-0.1l-0.211,-0.099l-0.211,-0.098l-0.212,-0.096l-0.213,-0.095l-0.214,-0.094l-0.214,-0.092l-0.216,-0.091l-0.215,-0.089l-0.217,-0.088l-0.217,-0.086l-0.219,-0.085l-0.218,-0.083l-0.22,-0.082l-0.22,-0.081l-0.221,-0.079l-0.222,-0.077l-0.222,-0.076l-0.223,-0.075l-0.224,-0.073l-0.224,-0.071l-0.225,-0.07l-0.226,-0.069l-0.226,-0.066l-0.227,-0.066l-0.228,-0.064l-0.228,-0.062l-0.229,-0.061l-0.23,-0.059l-0.23,-0.058l-0.231,-0.056l-0.231,-0.054l-0.232,-0.053l-0.233,-0.051l-0.233,-0.05l-0.234,-0.048l-0.234,-0.047l-0.235,-0.045l-0.236,-0.043l-0.236,-0.042l-0.237,-0.04l-0.237,-0.038l-0.238,-0.037l-0.238,-0.035l-0.239,-0.033l-0.239,-0.032l-0.24,-0.03l-0.241,-0.029l-0.241,-0.027l-0.241,-0.025l-0.242,-0.023l-0.243,-0.022l-0.243,-0.02l-0.243,-0.018l-0.244,-0.017l-0.245,-0.015l-0.245,-0.013l-0.245,-0.011l-0.246,-0.01l-0.246,-0.008l-0.247,-0.006l-0.247,-0.004l-0.248,-0.003l-0.248,-0.001l0,14Z" style="fill:#fff;"/></g></g></svg>