<?xml version="1.0" encoding="UTF-8" standalone="no"?><!DOCTYPE svg PUBLIC "-//W3C//DTD SVG 1.1//EN" "http://www.w3.org/Graphics/SVG/1.1/DTD/svg11.dtd"><svg width="100%" height="100%" viewBox="0 0 263 90" version="1.1" xmlns="http://www.w3.org/2000/svg" xmlns:xlink="http://www.w3.org/1999/xlink" xml:space="preserve" xmlns:serif="http://www.serif.com/" style="fill-rule:evenodd;clip-rule:evenodd;stroke-linecap:round;stroke-linejoin:round;stroke-miterlimit:1.5;"><rect x="0" y="0" width="262.5" height="90" style="fill:#008ebd;"/><path d="M131.213,15.092c16.506,-0.02 29.924,13.364 29.945,29.871c0.02,16.506 -13.364,29.924 -29.871,29.945c-16.506,0.02 -29.924,-13.364 -29.945,-29.871c-0.02,-16.506 13.364,-29.924 29.871,-29.945Z" style="fill:none;stroke:#fff;stroke-width:2px;"/><g><path d="M129.351,27.365c4.398,-1.039 8.812,1.689 9.85,6.086c1.039,4.398 -1.689,8.812 -6.086,9.85c-4.398,1.039 -8.812,-1.689 -9.85,-6.087c-1.039,-4.397 1.689,-8.811 6.086,-9.849Z" style="fill:#fff;"/><path d="M144.801,51.082c-0.154,-3.269 -2.169,-6.04 -4.964,-7.155c-2.321,1.968 -5.32,3.16 -8.602,3.16c-3.263,0 -6.249,-1.178 -8.565,-3.126c-0.13,0.053 -0.262,0.1 -0.389,0.16c-0.049,0.023 -0.098,0.047 -0.147,0.071c-0.807,0.401 -1.539,0.943 -2.166,1.597c-0.038,0.039 -0.074,0.079 -0.112,0.119c-1.255,1.364 -2.06,3.182 -2.156,5.186c-0.006,0.133 -0.006,0.268 -0.006,0.404l0,8.415c0,0.172 0.161,0.133 0.326,0.133l26.551,0c0.165,0 0.233,0.04 0.233,-0.133l0,-8.415c0.001,-0.136 0.004,-0.282 -0.003,-0.416Z" style="fill:#fff;fill-rule:nonzero;"/></g><g><path d="M161.143,50.44c6.752,-0.009 12.24,5.466 12.249,12.219c0.008,6.752 -5.467,12.24 -12.219,12.249c-6.752,0.008 -12.241,-5.467 -12.249,-12.219c-0.009,-6.752 5.466,-12.241 12.219,-12.249Z" style="fill:#008ebd;stroke:#fff;stroke-width:2px;"/><g><path d="M161.158,56.123l0,12.692" style="fill:none;stroke:#fff;stroke-width:2px;stroke-linejoin:miter;stroke-miterlimit:100;"/><path d="M154.812,62.469l12.691,0" style="fill:none;stroke:#fff;stroke-width:2px;stroke-linejoin:miter;stroke-miterlimit:100;"/></g></g></svg>