<?xml version="1.0" encoding="iso-8859-1"?>
<!-- Generator: Adobe Illustrator 23.0.1, SVG Export Plug-In . SVG Version: 6.00 Build 0)  -->
<svg version="1.1" id="Ebene_1" xmlns="http://www.w3.org/2000/svg" xmlns:xlink="http://www.w3.org/1999/xlink" x="0px" y="0px"
	 viewBox="0 0 350 120" style="enable-background:new 0 0 350 120;" xml:space="preserve">
<rect x="-0.125" y="0.212" style="fill:#008EBD;" width="350" height="120"/>
<g>
	<g>
		<path style="fill:#FFFFFF;" d="M201.59,18.637l14,14h-14V18.637 M201.59,16.637c-0.258,0-0.517,0.05-0.765,0.152
			c-0.747,0.31-1.235,1.039-1.235,1.848v14c0,1.105,0.895,2,2,2h14c0.809,0,1.538-0.487,1.848-1.235
			c0.31-0.747,0.138-1.608-0.434-2.18l-14-14C202.622,16.84,202.11,16.637,201.59,16.637L201.59,16.637z"/>
	</g>
	<g>
		<path style="fill:#FFFFFF;" d="M201.412,18.637l14.178,14.178v57.822h-62v-72H201.412 M201.412,16.637H153.59
			c-1.105,0-2,0.895-2,2v72c0,1.105,0.895,2,2,2h62c1.105,0,2-0.895,2-2V32.814c0-0.53-0.211-1.039-0.586-1.414l-14.178-14.178
			C202.452,16.848,201.943,16.637,201.412,16.637L201.412,16.637z"/>
	</g>
</g>
<g>
	<circle style="fill:#008EBD;" cx="217.625" cy="87.788" r="15"/>
	<path style="fill:#FFFFFF;" d="M217.625,73.788c7.732,0,14,6.268,14,14s-6.268,14-14,14s-14-6.268-14-14
		S209.893,73.788,217.625,73.788 M217.625,71.788c-8.822,0-16,7.178-16,16s7.178,16,16,16s16-7.178,16-16
		S226.447,71.788,217.625,71.788L217.625,71.788z"/>
</g>
<polyline style="fill:none;stroke:#FFFFFF;stroke-width:2;stroke-linecap:round;stroke-linejoin:round;stroke-miterlimit:10;" points="
	216.125,79.788 216.125,90.788 226.125,90.788 "/>
<line style="fill:none;stroke:#FFFFFF;stroke-width:2;stroke-linecap:round;stroke-linejoin:round;stroke-miterlimit:10;" x1="162.125" y1="33.788" x2="191.125" y2="33.788"/>
<line style="fill:none;stroke:#FFFFFF;stroke-width:2;stroke-linecap:round;stroke-linejoin:round;stroke-miterlimit:10;" x1="162.125" y1="45.454" x2="205.125" y2="45.454"/>
<line style="fill:none;stroke:#FFFFFF;stroke-width:2;stroke-linecap:round;stroke-linejoin:round;stroke-miterlimit:10;" x1="170" y1="57.121" x2="205.125" y2="57.121"/>
<line style="fill:none;stroke:#FFFFFF;stroke-width:2;stroke-linecap:round;stroke-linejoin:round;stroke-miterlimit:10;" x1="170" y1="68.788" x2="205.125" y2="68.788"/>
<path style="fill:#008EBD;stroke:#FFFFFF;stroke-width:2;stroke-linecap:round;stroke-miterlimit:10;" d="M126.219,67.96
	c1.2,9.604,9.377,17.04,19.307,17.04C156.281,85,165,76.281,165,65.525s-8.719-19.475-19.475-19.475
	c-1.249,0-2.468,0.129-3.652,0.354"/>
<polyline style="fill:none;stroke:#FFFFFF;stroke-width:2;stroke-linecap:round;stroke-linejoin:round;stroke-miterlimit:10;" points="
	145.106,40.272 139.869,46.707 146.353,51.984 "/>
<path style="fill:#FBFBFB;" d="M157.17,60.217l-11.675-5.176c-0.124-0.055-0.266-0.055-0.39,0l-11.675,5.176
	c-0.198,0.088-0.283,0.268-0.283,0.498v13.477c0,0.183,0.107,0.349,0.273,0.425l11.685,5.341c0.062,0.028,0.128,0.042,0.194,0.042
	c0.074,0,0.127-0.008,0.194-0.043c0,0,11.686-5.34,11.686-5.34c0.166-0.076,0.273-0.242,0.273-0.425V60.715
	C157.453,60.498,157.368,60.305,157.17,60.217z M140.226,63.421c-0.162,0.078-0.264,0.241-0.264,0.421v4.556l-2.282-1.077v-4.508
	l11.007-5.303l1.984,0.88L140.226,63.421z M145.301,56.008l2.265,1.004l-10.119,4.876l-2.663-1.217L145.301,56.008z M144.834,78.806
	l-10.751-4.914V61.377l2.663,1.217v5.023c0,0.181,0.104,0.345,0.268,0.422l3.216,1.518c0.063,0.03,0.131,0.045,0.199,0.045
	c0.087,0,0.174-0.025,0.25-0.073c0.135-0.086,0.217-0.235,0.217-0.395v-4.644l3.938,1.8V78.806z M145.301,65.477l-3.69-1.687
	l10.181-4.905l4.027,1.785L145.301,65.477z M156.519,73.892l-10.751,4.914V66.291l10.751-4.914V73.892z"/>
</svg>
