<?xml version="1.0" encoding="UTF-8" standalone="no"?><!DOCTYPE svg PUBLIC "-//W3C//DTD SVG 1.1//EN" "http://www.w3.org/Graphics/SVG/1.1/DTD/svg11.dtd"><svg width="100%" height="100%" viewBox="0 0 350 120" version="1.1" xmlns="http://www.w3.org/2000/svg" xmlns:xlink="http://www.w3.org/1999/xlink" xml:space="preserve" xmlns:serif="http://www.serif.com/" style="fill-rule:evenodd;clip-rule:evenodd;stroke-linecap:round;stroke-linejoin:round;stroke-miterlimit:5;"><rect x="0" y="0" width="350" height="120" style="fill:#008ebd;"/><g><path d="M134.536,46.621c-1.076,-0.689 -1.171,-2.453 0.033,-4.219c1.329,-1.501 3.006,-2.01 4.5,-1.329c1.812,0.958 1.558,3.583 0.188,4.978" style="fill:#3c5862;fill-opacity:0;stroke:#fff;stroke-width:1.5px;"/><path d="M138.385,49.48c-0.007,0.532 -0.224,1.068 -0.646,1.477l-8.109,7.849c-0.858,0.831 -2.241,0.821 -3.087,-0.02l-4.599,-4.575c-0.846,-0.841 -0.836,-2.199 0.021,-3.029l8.109,-7.849c0.422,-0.409 0.972,-0.614 1.527,-0.615l6.209,0.659l0.575,6.103Z" style="fill:#3c5862;fill-opacity:0;stroke:#fff;stroke-width:1.5px;stroke-miterlimit:1.5;"/></g><g><path d="M134.536,66.845c-1.076,-0.689 -1.171,-2.453 0.033,-4.219c1.329,-1.5 3.006,-2.01 4.5,-1.329c1.812,0.958 1.558,3.583 0.188,4.978" style="fill:#3c5862;fill-opacity:0;stroke:#fff;stroke-width:1.5px;"/><path d="M138.385,69.704c-0.007,0.532 -0.224,1.069 -0.646,1.477l-8.109,7.85c-0.858,0.83 -2.241,0.821 -3.087,-0.021l-4.599,-4.575c-0.846,-0.841 -0.836,-2.198 0.021,-3.029l8.109,-7.849c0.422,-0.408 0.972,-0.614 1.527,-0.615l6.209,0.659l0.575,6.103Z" style="fill:#3c5862;fill-opacity:0;stroke:#fff;stroke-width:1.5px;stroke-miterlimit:1.5;"/></g><g><path d="M134.536,87.069c-1.076,-0.689 -1.171,-2.453 0.033,-4.218c1.329,-1.501 3.006,-2.011 4.5,-1.33c1.812,0.958 1.558,3.583 0.188,4.978" style="fill:#3c5862;fill-opacity:0;stroke:#fff;stroke-width:1.5px;"/><path d="M138.385,89.928c-0.007,0.533 -0.224,1.069 -0.646,1.478l-8.109,7.849c-0.858,0.83 -2.241,0.821 -3.087,-0.021l-4.599,-4.574c-0.846,-0.842 -0.836,-2.199 0.021,-3.029l8.109,-7.85c0.422,-0.408 0.972,-0.613 1.527,-0.614l6.209,0.658l0.575,6.103Z" style="fill:#3c5862;fill-opacity:0;stroke:#fff;stroke-width:1.5px;stroke-miterlimit:1.5;"/></g><path d="M224.874,17.059c2.597,0 4.662,2.066 4.662,4.662c0,0.944 -0.295,1.771 -0.767,2.479l4.133,4.133c0.413,0.413 0.413,1.003 0,1.416c-0.413,0.413 -1.003,0.413 -1.416,0l-4.133,-4.133c-0.709,0.472 -1.594,0.767 -2.479,0.767c-2.597,0 -4.662,-2.065 -4.662,-4.662c0,-2.596 2.065,-4.662 4.662,-4.662Zm0,7.967c1.829,0 3.305,-1.475 3.305,-3.305c0,-1.829 -1.476,-3.305 -3.305,-3.305c-1.829,0 -3.305,1.476 -3.305,3.305c-0.059,1.83 1.476,3.305 3.305,3.305Z" style="fill:#fff;stroke:#fff;stroke-width:0.2px;stroke-linecap:butt;stroke-miterlimit:2;"/><rect x="112.432" y="13.5" width="125.135" height="93" style="fill:none;stroke:#fff;stroke-width:2px;stroke-miterlimit:1.5;"/><path d="M112.917,33.955l124.651,0" style="fill:none;stroke:#fff;stroke-width:2px;stroke-miterlimit:1.5;"/><g><path d="M139.917,30.059c0.746,0 1.353,-0.42 1.353,-0.937l0,-11.126c0,-0.517 -0.607,-0.937 -1.353,-0.937" style="fill:none;stroke:#fff;stroke-width:1.5px;stroke-miterlimit:1.5;"/><path d="M142.714,17.059c-0.747,0 -1.353,0.42 -1.353,0.937l0,11.126c0,0.517 0.606,0.937 1.353,0.937" style="fill:none;stroke:#fff;stroke-width:1.5px;stroke-miterlimit:1.5;"/><rect x="128.917" y="26.955" width="1" height="1" style="fill:none;stroke:#fff;stroke-width:2px;stroke-miterlimit:1.5;"/><rect x="132.917" y="26.955" width="1" height="1" style="fill:none;stroke:#fff;stroke-width:2px;stroke-miterlimit:1.5;"/><rect x="124.917" y="26.955" width="1" height="1" style="fill:none;stroke:#fff;stroke-width:2px;stroke-miterlimit:1.5;"/></g><path d="M150.676,44.266l50.098,0" style="fill:none;fill-rule:nonzero;stroke:#fff;stroke-width:2px;stroke-miterlimit:10;"/><path d="M150.676,49.183l29.732,0" style="fill:none;fill-rule:nonzero;stroke:#fff;stroke-width:2px;stroke-miterlimit:10;"/><path d="M150.676,54.099l35.732,0" style="fill:none;fill-rule:nonzero;stroke:#fff;stroke-width:2px;stroke-miterlimit:10;"/><path d="M150.676,65.266l30.842,0" style="fill:none;fill-rule:nonzero;stroke:#fff;stroke-width:2px;stroke-miterlimit:10;"/><path d="M150.676,70.183l38.053,0" style="fill:none;fill-rule:nonzero;stroke:#fff;stroke-width:2px;stroke-miterlimit:10;"/><path d="M150.676,75.099l30.842,0" style="fill:none;fill-rule:nonzero;stroke:#fff;stroke-width:2px;stroke-miterlimit:10;"/><path d="M150.676,85.266l40.912,0" style="fill:none;fill-rule:nonzero;stroke:#fff;stroke-width:2px;stroke-miterlimit:10;"/><path d="M150.676,90.183l49.324,0" style="fill:none;fill-rule:nonzero;stroke:#fff;stroke-width:2px;stroke-miterlimit:10;"/><path d="M150.676,95.099l54.732,0" style="fill:none;fill-rule:nonzero;stroke:#fff;stroke-width:2px;stroke-miterlimit:10;"/></svg>