<?xml version="1.0" encoding="UTF-8" standalone="no"?><!DOCTYPE svg PUBLIC "-//W3C//DTD SVG 1.1//EN" "http://www.w3.org/Graphics/SVG/1.1/DTD/svg11.dtd"><svg width="100%" height="100%" viewBox="0 0 350 120" version="1.1" xmlns="http://www.w3.org/2000/svg" xmlns:xlink="http://www.w3.org/1999/xlink" xml:space="preserve" xmlns:serif="http://www.serif.com/" style="fill-rule:evenodd;clip-rule:evenodd;stroke-linejoin:round;stroke-miterlimit:2;"><rect x="0" y="0" width="350" height="120" style="fill:#008ebd;"/><path d="M224.874,17.059c2.597,0 4.662,2.066 4.662,4.662c0,0.944 -0.295,1.771 -0.767,2.479l4.133,4.133c0.413,0.413 0.413,1.003 0,1.416c-0.413,0.413 -1.003,0.413 -1.416,0l-4.133,-4.133c-0.709,0.472 -1.594,0.767 -2.479,0.767c-2.597,0 -4.662,-2.065 -4.662,-4.662c0,-2.596 2.065,-4.662 4.662,-4.662Zm0,7.967c1.829,0 3.305,-1.475 3.305,-3.305c0,-1.829 -1.476,-3.305 -3.305,-3.305c-1.829,0 -3.305,1.476 -3.305,3.305c-0.059,1.83 1.476,3.305 3.305,3.305Z" style="fill:#fff;stroke:#fff;stroke-width:0.2px;"/><rect x="112.432" y="13.5" width="125.135" height="93" style="fill:none;stroke:#fff;stroke-width:2px;stroke-linecap:round;stroke-miterlimit:1.5;"/><path d="M112.917,33.955l124.651,0" style="fill:none;stroke:#fff;stroke-width:2px;stroke-linecap:round;stroke-miterlimit:1.5;"/><g><path d="M139.917,30.059c0.746,0 1.353,-0.42 1.353,-0.937l0,-11.126c0,-0.517 -0.607,-0.937 -1.353,-0.937" style="fill:none;stroke:#fff;stroke-width:1.5px;stroke-linecap:round;stroke-miterlimit:1.5;"/><path d="M142.714,17.059c-0.747,0 -1.353,0.42 -1.353,0.937l0,11.126c0,0.517 0.606,0.937 1.353,0.937" style="fill:none;stroke:#fff;stroke-width:1.5px;stroke-linecap:round;stroke-miterlimit:1.5;"/><rect x="128.917" y="26.955" width="1" height="1" style="fill:none;stroke:#fff;stroke-width:2px;stroke-linecap:round;stroke-miterlimit:1.5;"/><rect x="132.917" y="26.955" width="1" height="1" style="fill:none;stroke:#fff;stroke-width:2px;stroke-linecap:round;stroke-miterlimit:1.5;"/><rect x="124.917" y="26.955" width="1" height="1" style="fill:none;stroke:#fff;stroke-width:2px;stroke-linecap:round;stroke-miterlimit:1.5;"/></g><path d="M125.676,45.266l59.215,0" style="fill:none;fill-rule:nonzero;stroke:#fff;stroke-width:1.3px;stroke-linecap:round;stroke-miterlimit:10;"/><path d="M125.676,50.183l35.142,0" style="fill:none;fill-rule:nonzero;stroke:#fff;stroke-width:1.3px;stroke-linecap:round;stroke-miterlimit:10;"/><path d="M125.676,55.099l42.234,0" style="fill:none;fill-rule:nonzero;stroke:#fff;stroke-width:1.3px;stroke-linecap:round;stroke-miterlimit:10;"/><path d="M126.676,66.266l62.744,0" style="fill:none;fill-rule:nonzero;stroke:#fff;stroke-width:3px;stroke-linecap:square;stroke-miterlimit:10;"/><path d="M126.676,71.183l58.215,0" style="fill:none;fill-rule:nonzero;stroke:#fff;stroke-width:3px;stroke-linecap:square;stroke-miterlimit:10;"/><path d="M126.676,76.099l47.184,0" style="fill:none;fill-rule:nonzero;stroke:#fff;stroke-width:3px;stroke-linecap:square;stroke-miterlimit:10;"/><path d="M125.676,86.266l52.872,0" style="fill:none;fill-rule:nonzero;stroke:#fff;stroke-width:1.3px;stroke-linecap:round;stroke-miterlimit:10;"/><path d="M125.676,91.183l63.744,0" style="fill:none;fill-rule:nonzero;stroke:#fff;stroke-width:1.3px;stroke-linecap:round;stroke-miterlimit:10;"/><path d="M125.676,96.099l70.732,0" style="fill:none;fill-rule:nonzero;stroke:#fff;stroke-width:1.3px;stroke-linecap:round;stroke-miterlimit:10;"/></svg>