<?xml version="1.0" encoding="UTF-8" standalone="no"?><!DOCTYPE svg PUBLIC "-//W3C//DTD SVG 1.1//EN" "http://www.w3.org/Graphics/SVG/1.1/DTD/svg11.dtd"><svg width="100%" height="100%" viewBox="0 0 350 120" version="1.1" xmlns="http://www.w3.org/2000/svg" xmlns:xlink="http://www.w3.org/1999/xlink" xml:space="preserve" xmlns:serif="http://www.serif.com/" style="fill-rule:evenodd;clip-rule:evenodd;stroke-linecap:round;stroke-miterlimit:1.5;"><rect x="0" y="0" width="350" height="120.184" style="fill:#008ebd;"/><path d="M169.986,58.959l0,-12.884l-11.243,-13.613c-6.168,-7.505 -11.243,-13.735 -11.243,-13.856c0,-0.152 12.367,-0.243 27.5,-0.243c15.133,0 27.5,0.091 27.5,0.243c0,0.121 -5.075,6.351 -11.243,13.826l-11.243,13.643l-0.061,10.514l-0.091,10.544l-4.71,2.34c-2.583,1.276 -4.801,2.34 -4.923,2.37c-0.152,0 -0.243,-5.804 -0.243,-12.884Z" style="fill:#fff;fill-rule:nonzero;"/><g><path d="M169.917,88.844c0,-2.328 -1.89,-4.218 -4.218,-4.218l-8.437,0c-2.328,0 -4.218,1.89 -4.218,4.218l0,8.759c0,2.328 1.89,4.218 4.218,4.218l8.437,0c2.328,0 4.218,-1.89 4.218,-4.218l0,-8.759Z" style="fill:#008ebd;stroke:#fff;stroke-width:1.8px;"/><path d="M156.733,90.818c0.654,-0.667 1.8,-0.667 2.454,0l2.291,2.334l7.2,-6.003c0.655,-0.667 1.8,-0.5 2.291,0.334c0.655,0.667 0.491,1.834 -0.327,2.501l-8.509,6.837c-0.327,0.334 -0.655,0.334 -0.982,0.334c-0.491,0 -0.818,-0.167 -1.145,-0.501l-3.437,-3.502c-0.491,-0.667 -0.491,-1.667 0.164,-2.334Z" style="fill:#fff;stroke:#008ebd;stroke-width:1px;stroke-linecap:butt;stroke-linejoin:round;stroke-miterlimit:1.41421;"/></g><g><path d="M142.719,88.844c0,-2.328 -1.89,-4.218 -4.218,-4.218l-8.437,0c-2.328,0 -4.218,1.89 -4.218,4.218l0,8.759c0,2.328 1.89,4.218 4.218,4.218l8.437,0c2.328,0 4.218,-1.89 4.218,-4.218l0,-8.759Z" style="fill:#008ebd;stroke:#fff;stroke-width:1.8px;"/><path d="M129.535,91.018c0.655,-0.667 1.8,-0.667 2.455,0l2.29,2.334l7.2,-6.003c0.655,-0.667 1.8,-0.5 2.291,0.333c0.655,0.668 0.491,1.835 -0.327,2.502l-8.509,6.837c-0.327,0.333 -0.655,0.333 -0.982,0.333c-0.491,0 -0.818,-0.166 -1.145,-0.5l-3.437,-3.502c-0.491,-0.667 -0.491,-1.667 0.164,-2.334Z" style="fill:#fff;stroke:#008ebd;stroke-width:1px;stroke-linecap:butt;stroke-linejoin:round;stroke-miterlimit:1.41421;"/></g><path d="M224.154,88.924c0,-2.372 -1.926,-4.298 -4.299,-4.298l-35.276,0c-2.372,0 -4.298,1.926 -4.298,4.298l0,8.598c0,2.373 1.926,4.299 4.298,4.299l35.276,0c2.373,0 4.299,-1.926 4.299,-4.299l0,-8.598Z" style="fill:#008ebd;stroke:#fff;stroke-width:1.8px;"/><g><path d="M216.365,90.206l-5.93,6.034" style="fill:none;stroke:#fff;stroke-width:2px;stroke-miterlimit:100;"/><path d="M210.383,90.258l6.034,5.931" style="fill:none;stroke:#fff;stroke-width:2px;stroke-miterlimit:100;"/></g><g><path d="M189.505,91.242l0.051,0.001l0.052,0.003l0.103,0.011l0.05,0.006l0.051,0.009l0.05,0.009l0.05,0.011l0.049,0.011l0.048,0.013l0.049,0.014l0.047,0.015l0.048,0.016l0.046,0.017l0.046,0.019l0.045,0.019l0.045,0.02l0.045,0.022l0.043,0.021l0.042,0.025l0.044,0.024l0.04,0.025l0.082,0.054l0.039,0.027l0.04,0.03l0.038,0.03l0.037,0.03l0.036,0.031l0.037,0.033l0.034,0.034l0.035,0.034l0.065,0.07l0.032,0.036l0.031,0.038l0.03,0.038l0.028,0.038l0.029,0.039l0.027,0.04l0.026,0.04l0.024,0.041l0.025,0.042l0.023,0.042l0.022,0.044l0.02,0.043l0.02,0.045l0.019,0.045l0.018,0.045l0.033,0.092l0.013,0.046l0.014,0.048l0.012,0.048l0.011,0.048l0.009,0.048l0.009,0.049l0.006,0.05l0.006,0.049l0.005,0.05l0.003,0.052l0.003,0.05l0,0.102l-0.003,0.052l-0.003,0.05l-0.005,0.05l-0.006,0.049l-0.006,0.051l-0.009,0.048l-0.009,0.049l-0.011,0.048l-0.012,0.047l-0.014,0.048l-0.013,0.046l-0.017,0.046l-0.016,0.047l-0.018,0.044l-0.019,0.045l-0.02,0.045l-0.02,0.044l-0.022,0.043l-0.023,0.042l-0.025,0.042l-0.024,0.041l-0.026,0.041l-0.027,0.039l-0.029,0.04l-0.028,0.039l-0.03,0.037l-0.031,0.038l-0.032,0.035l-0.032,0.037l-0.033,0.034l-0.035,0.034l-0.034,0.034l-0.037,0.032l-0.036,0.031l-0.037,0.032l-0.038,0.03l-0.04,0.028l-0.039,0.029l-0.041,0.027l-0.041,0.026l-0.04,0.025l-0.044,0.024l-0.042,0.024l-0.043,0.022l-0.045,0.021l-0.045,0.021l-0.045,0.019l-0.046,0.019l-0.046,0.016l-0.048,0.017l-0.047,0.014l-0.049,0.015l-0.048,0.013l-0.049,0.012l-0.05,0.009l-0.05,0.01l-0.051,0.008l-0.05,0.007l-0.051,0.005l-0.052,0.006l-0.052,0.002l-0.051,0.002l-0.053,0.001l-0.053,-0.001l-0.052,-0.002l-0.052,-0.002l-0.051,-0.006l-0.052,-0.005l-0.05,-0.007l-0.05,-0.008l-0.051,-0.01l-0.05,-0.009l-0.049,-0.012l-0.047,-0.013l-0.049,-0.015l-0.048,-0.014l-0.047,-0.017l-0.047,-0.016l-0.046,-0.019l-0.045,-0.019l-0.044,-0.021l-0.045,-0.021l-0.044,-0.022l-0.042,-0.024l-0.043,-0.024l-0.041,-0.025l-0.041,-0.026l-0.041,-0.027l-0.039,-0.029l-0.039,-0.028l-0.038,-0.03l-0.037,-0.032l-0.037,-0.031l-0.036,-0.032l-0.034,-0.034l-0.036,-0.034l-0.032,-0.034l-0.033,-0.037l-0.031,-0.035l-0.031,-0.038l-0.03,-0.037l-0.029,-0.039l-0.028,-0.04l-0.028,-0.039l-0.025,-0.041l-0.025,-0.041l-0.024,-0.042l-0.023,-0.042l-0.022,-0.043l-0.021,-0.044l-0.02,-0.045l-0.019,-0.045l-0.018,-0.044l-0.016,-0.047l-0.016,-0.046l-0.014,-0.046l-0.013,-0.048l-0.013,-0.047l-0.01,-0.048l-0.01,-0.049l-0.008,-0.048l-0.007,-0.051l-0.005,-0.049l-0.006,-0.05l-0.002,-0.05l-0.003,-0.052l0,-0.05l0,-0.052l0.003,-0.05l0.002,-0.052l0.006,-0.05l0.005,-0.049l0.007,-0.05l0.008,-0.049l0.01,-0.048l0.01,-0.048l0.013,-0.048l0.013,-0.048l0.014,-0.046l0.016,-0.046l0.016,-0.046l0.018,-0.045l0.019,-0.045l0.02,-0.045l0.021,-0.043l0.022,-0.044l0.023,-0.042l0.024,-0.042l0.025,-0.041l0.025,-0.04l0.028,-0.04l0.028,-0.039l0.029,-0.038l0.03,-0.038l0.031,-0.038l0.031,-0.036l0.033,-0.035l0.032,-0.035l0.036,-0.034l0.034,-0.034l0.036,-0.033l0.037,-0.031l0.037,-0.03l0.038,-0.03l0.039,-0.03l0.039,-0.027l0.041,-0.027l0.041,-0.027l0.041,-0.025l0.043,-0.024l0.042,-0.025l0.044,-0.021l0.045,-0.022l0.044,-0.02l0.045,-0.019l0.046,-0.019l0.047,-0.017l0.047,-0.016l0.048,-0.015l0.049,-0.014l0.047,-0.013l0.049,-0.011l0.05,-0.011l0.051,-0.009l0.05,-0.009l0.05,-0.006l0.052,-0.006l0.051,-0.005l0.052,-0.003l0.052,-0.001l0.053,-0.002l0.053,0.002Zm-0.053,1.976l0,0.01l0,-0.003l0,-0.001l0,-0.003l0,-0.003Z" style="fill:#fff;"/><path d="M195.619,91.242l0.051,0.001l0.052,0.003l0.103,0.011l0.05,0.006l0.051,0.009l0.05,0.009l0.05,0.011l0.049,0.011l0.048,0.013l0.048,0.014l0.048,0.015l0.048,0.016l0.046,0.017l0.046,0.019l0.045,0.019l0.045,0.02l0.044,0.022l0.044,0.021l0.042,0.025l0.044,0.024l0.04,0.025l0.082,0.054l0.039,0.027l0.04,0.03l0.038,0.03l0.036,0.03l0.037,0.031l0.037,0.033l0.034,0.034l0.035,0.034l0.065,0.07l0.031,0.036l0.032,0.038l0.03,0.038l0.028,0.038l0.029,0.039l0.027,0.04l0.026,0.04l0.024,0.041l0.025,0.042l0.023,0.042l0.021,0.044l0.021,0.043l0.02,0.045l0.019,0.045l0.018,0.045l0.032,0.092l0.014,0.046l0.014,0.048l0.012,0.048l0.011,0.048l0.009,0.048l0.008,0.049l0.007,0.05l0.006,0.049l0.005,0.05l0.003,0.052l0.002,0.05l0,0.102l-0.002,0.052l-0.003,0.05l-0.005,0.05l-0.006,0.049l-0.007,0.051l-0.008,0.048l-0.009,0.049l-0.011,0.048l-0.012,0.047l-0.014,0.048l-0.014,0.046l-0.016,0.046l-0.016,0.047l-0.018,0.044l-0.019,0.045l-0.02,0.045l-0.021,0.044l-0.021,0.043l-0.023,0.042l-0.025,0.042l-0.024,0.041l-0.026,0.041l-0.027,0.039l-0.029,0.04l-0.028,0.039l-0.03,0.037l-0.032,0.038l-0.031,0.035l-0.032,0.037l-0.033,0.034l-0.035,0.034l-0.034,0.034l-0.037,0.032l-0.037,0.031l-0.036,0.032l-0.038,0.03l-0.04,0.028l-0.039,0.029l-0.041,0.027l-0.041,0.026l-0.04,0.025l-0.044,0.024l-0.042,0.024l-0.044,0.022l-0.044,0.021l-0.045,0.021l-0.045,0.019l-0.046,0.019l-0.046,0.016l-0.048,0.017l-0.048,0.014l-0.048,0.015l-0.048,0.013l-0.049,0.012l-0.05,0.009l-0.05,0.01l-0.051,0.008l-0.05,0.007l-0.052,0.005l-0.051,0.006l-0.052,0.002l-0.051,0.002l-0.053,0.001l-0.053,-0.001l-0.052,-0.002l-0.052,-0.002l-0.051,-0.006l-0.052,-0.005l-0.05,-0.007l-0.051,-0.008l-0.05,-0.01l-0.05,-0.009l-0.049,-0.012l-0.048,-0.013l-0.048,-0.015l-0.048,-0.014l-0.048,-0.017l-0.046,-0.016l-0.046,-0.019l-0.045,-0.019l-0.045,-0.021l-0.044,-0.021l-0.044,-0.022l-0.042,-0.024l-0.043,-0.024l-0.041,-0.025l-0.041,-0.026l-0.041,-0.027l-0.039,-0.029l-0.04,-0.028l-0.038,-0.03l-0.036,-0.032l-0.037,-0.031l-0.037,-0.032l-0.034,-0.034l-0.035,-0.034l-0.033,-0.034l-0.032,-0.037l-0.031,-0.035l-0.032,-0.038l-0.03,-0.037l-0.028,-0.039l-0.029,-0.04l-0.027,-0.039l-0.026,-0.041l-0.024,-0.041l-0.025,-0.042l-0.023,-0.042l-0.021,-0.043l-0.021,-0.044l-0.02,-0.045l-0.019,-0.045l-0.018,-0.044l-0.016,-0.047l-0.016,-0.046l-0.014,-0.046l-0.014,-0.048l-0.012,-0.047l-0.011,-0.048l-0.009,-0.049l-0.008,-0.048l-0.007,-0.051l-0.006,-0.049l-0.005,-0.05l-0.003,-0.05l-0.002,-0.052l0,-0.05l0,-0.052l0.002,-0.05l0.003,-0.052l0.005,-0.05l0.006,-0.049l0.007,-0.05l0.008,-0.049l0.009,-0.048l0.011,-0.048l0.012,-0.048l0.014,-0.048l0.014,-0.046l0.016,-0.046l0.016,-0.046l0.018,-0.045l0.019,-0.045l0.02,-0.045l0.021,-0.043l0.021,-0.044l0.023,-0.042l0.025,-0.042l0.024,-0.041l0.026,-0.04l0.027,-0.04l0.029,-0.039l0.028,-0.038l0.03,-0.038l0.032,-0.038l0.031,-0.036l0.032,-0.035l0.033,-0.035l0.035,-0.034l0.034,-0.034l0.037,-0.033l0.037,-0.031l0.036,-0.03l0.038,-0.03l0.04,-0.03l0.039,-0.027l0.041,-0.027l0.041,-0.027l0.041,-0.025l0.043,-0.024l0.042,-0.025l0.044,-0.021l0.044,-0.022l0.045,-0.02l0.045,-0.019l0.046,-0.019l0.046,-0.017l0.048,-0.016l0.048,-0.015l0.048,-0.014l0.048,-0.013l0.049,-0.011l0.05,-0.011l0.05,-0.009l0.051,-0.009l0.05,-0.006l0.052,-0.006l0.051,-0.005l0.052,-0.003l0.052,-0.001l0.053,-0.002l0.053,0.002Zm-0.053,1.976l0,0.01l0,-0.003l0,-0.001l0,-0.003l0,-0.003Z" style="fill:#fff;"/><path d="M201.732,91.242l0.052,0.001l0.052,0.003l0.103,0.011l0.05,0.006l0.05,0.009l0.051,0.009l0.05,0.011l0.049,0.011l0.047,0.013l0.049,0.014l0.048,0.015l0.047,0.016l0.047,0.017l0.046,0.019l0.045,0.019l0.044,0.02l0.045,0.022l0.044,0.021l0.042,0.025l0.043,0.024l0.041,0.025l0.082,0.054l0.039,0.027l0.039,0.03l0.038,0.03l0.037,0.03l0.037,0.031l0.036,0.033l0.034,0.034l0.036,0.034l0.065,0.07l0.031,0.036l0.031,0.038l0.03,0.038l0.029,0.038l0.028,0.039l0.028,0.04l0.025,0.04l0.025,0.041l0.024,0.042l0.023,0.042l0.022,0.044l0.021,0.043l0.02,0.045l0.019,0.045l0.018,0.045l0.032,0.092l0.014,0.046l0.013,0.048l0.013,0.048l0.01,0.048l0.01,0.048l0.008,0.049l0.007,0.05l0.005,0.049l0.006,0.05l0.005,0.102l0,0.102l-0.002,0.052l-0.003,0.05l-0.006,0.05l-0.005,0.049l-0.007,0.051l-0.008,0.048l-0.01,0.049l-0.01,0.048l-0.013,0.047l-0.013,0.048l-0.014,0.046l-0.016,0.046l-0.016,0.047l-0.018,0.044l-0.019,0.045l-0.02,0.045l-0.021,0.044l-0.022,0.043l-0.023,0.042l-0.024,0.042l-0.025,0.041l-0.025,0.041l-0.028,0.039l-0.028,0.04l-0.029,0.039l-0.03,0.037l-0.031,0.038l-0.031,0.035l-0.033,0.037l-0.032,0.034l-0.036,0.034l-0.034,0.034l-0.036,0.032l-0.037,0.031l-0.037,0.032l-0.038,0.03l-0.039,0.028l-0.039,0.029l-0.041,0.027l-0.041,0.026l-0.041,0.025l-0.043,0.024l-0.042,0.024l-0.044,0.022l-0.045,0.021l-0.044,0.021l-0.045,0.019l-0.046,0.019l-0.047,0.016l-0.047,0.017l-0.048,0.014l-0.049,0.015l-0.047,0.013l-0.049,0.012l-0.05,0.009l-0.051,0.01l-0.05,0.008l-0.05,0.007l-0.052,0.005l-0.051,0.006l-0.052,0.002l-0.052,0.002l-0.053,0.001l-0.053,-0.001l-0.051,-0.002l-0.052,-0.002l-0.052,-0.006l-0.051,-0.005l-0.05,-0.007l-0.051,-0.008l-0.05,-0.01l-0.05,-0.009l-0.049,-0.012l-0.048,-0.013l-0.049,-0.015l-0.047,-0.014l-0.048,-0.017l-0.046,-0.016l-0.046,-0.019l-0.045,-0.019l-0.045,-0.021l-0.045,-0.021l-0.043,-0.022l-0.042,-0.024l-0.044,-0.024l-0.04,-0.025l-0.041,-0.026l-0.041,-0.027l-0.039,-0.029l-0.04,-0.028l-0.038,-0.03l-0.036,-0.032l-0.037,-0.031l-0.037,-0.032l-0.034,-0.034l-0.035,-0.034l-0.033,-0.034l-0.032,-0.037l-0.032,-0.035l-0.031,-0.038l-0.03,-0.037l-0.028,-0.039l-0.029,-0.04l-0.027,-0.039l-0.026,-0.041l-0.024,-0.041l-0.025,-0.042l-0.023,-0.042l-0.022,-0.043l-0.02,-0.044l-0.02,-0.045l-0.019,-0.045l-0.018,-0.044l-0.016,-0.047l-0.017,-0.046l-0.013,-0.046l-0.014,-0.048l-0.012,-0.047l-0.011,-0.048l-0.009,-0.049l-0.009,-0.048l-0.006,-0.051l-0.006,-0.049l-0.005,-0.05l-0.003,-0.05l-0.003,-0.052l0,-0.05l0,-0.052l0.003,-0.05l0.003,-0.052l0.005,-0.05l0.006,-0.049l0.006,-0.05l0.009,-0.049l0.009,-0.048l0.011,-0.048l0.012,-0.048l0.014,-0.048l0.013,-0.046l0.017,-0.046l0.016,-0.046l0.018,-0.045l0.019,-0.045l0.02,-0.045l0.02,-0.043l0.022,-0.044l0.023,-0.042l0.025,-0.042l0.024,-0.041l0.026,-0.04l0.027,-0.04l0.029,-0.039l0.028,-0.038l0.03,-0.038l0.031,-0.038l0.032,-0.036l0.032,-0.035l0.033,-0.035l0.035,-0.034l0.034,-0.034l0.037,-0.033l0.037,-0.031l0.036,-0.03l0.038,-0.03l0.04,-0.03l0.039,-0.027l0.041,-0.027l0.041,-0.027l0.04,-0.025l0.044,-0.024l0.042,-0.025l0.043,-0.021l0.045,-0.022l0.045,-0.02l0.045,-0.019l0.046,-0.019l0.046,-0.017l0.048,-0.016l0.047,-0.015l0.049,-0.014l0.048,-0.013l0.049,-0.011l0.05,-0.011l0.05,-0.009l0.051,-0.009l0.05,-0.006l0.051,-0.006l0.052,-0.005l0.052,-0.003l0.051,-0.001l0.053,-0.002l0.053,0.002Zm-0.053,1.976l0,0.01l0,-0.003l0,-0.001l0,-0.003l0,-0.003Z" style="fill:#fff;"/></g></svg>