<?xml version="1.0" encoding="iso-8859-1"?>
<!-- Generator: Adobe Illustrator 23.0.1, SVG Export Plug-In . SVG Version: 6.00 Build 0)  -->
<svg version="1.1" id="Ebene_1" xmlns="http://www.w3.org/2000/svg" xmlns:xlink="http://www.w3.org/1999/xlink" x="0px" y="0px"
	 viewBox="0 0 350 120" style="enable-background:new 0 0 350 120;" xml:space="preserve">
<rect style="fill:#008EBD;" width="350" height="120"/>
<path style="fill:#FFFFFF;" d="M234.784,53.86l-10.112-14.11c-0.264-0.369-0.663-0.57-1.082-0.614l-0.721-0.011l-0.009-0.012h-0.054
	h-0.743h-4.58h-11.514l1.419-10.687c0.164-1.686-0.785-3.053-2.118-3.053h-79.124c-1.334,0-2.548,1.367-2.711,3.053l-4.151,42.747
	c-0.164,1.686,0.785,3.053,2.118,3.053h77.411H199h29.661c1.939,0,3.704-1.572,3.942-3.511c0,0,2.285-14.809,2.343-15.429
	C234.993,54.792,235.094,54.294,234.784,53.86z"/>
<path style="fill:#008EBD;" d="M230.307,54.363l-8.694-11.646h-13.63c-1.47,0-2.808,1.192-2.989,2.662l-1.103,8.984H230.307z"/>
<circle style="fill:#FFFFFF;stroke:#008EBD;stroke-width:2;stroke-linecap:round;stroke-miterlimit:10;" cx="211.894" cy="77.05" r="9.885"/>
<circle style="fill:#FFFFFF;stroke:#008EBD;stroke-width:2;stroke-linecap:round;stroke-miterlimit:10;" cx="136.489" cy="77.05" r="9.885"/>
<g>
	<path style="fill:#008EBD;" d="M172.758,58.593c-0.481,3.915-4.279,5.421-8.119,5.421c-1.92,0-3.944-0.377-5.747-1.017l1.245-3.087
		c1.737,0.564,3.423,0.941,4.966,0.941c1.543,0,3.434-0.377,3.642-2.071c0.222-1.807-1.55-2.71-3.467-3.651
		c-2.303-1.167-4.899-2.409-4.515-5.534c0.217-1.769,1.292-3.162,3.472-4.667c-1.263-1.054-2.151-2.409-1.911-4.367
		c0.453-3.689,4.426-5.082,7.626-5.082c2.221,0,4.108,0.264,5.549,0.791l-1.084,3.312c-1.319-0.602-3.31-0.941-4.778-0.941
		c-1.543,0-3.185,0.489-3.369,1.995c-0.19,1.543,1.478,2.372,3.287,3.275c2.379,1.167,5.041,2.484,4.657,5.609
		c-0.199,1.619-1.174,3.125-3.51,4.367C172.039,54.941,173.03,56.372,172.758,58.593z M167.859,52.193l0.212,0.113
		c1.1-0.678,1.973-1.355,2.103-2.409c0.176-1.43-1.341-2.258-3.071-3.2l-0.179-0.075c-0.94,0.602-1.978,1.393-2.112,2.484
		C164.637,50.537,166.125,51.29,167.859,52.193z"/>
</g>
<circle style="fill:#008EBD;" cx="136.489" cy="77.05" r="4"/>
<circle style="fill:#008EBD;" cx="211.894" cy="77.05" r="4"/>
<g>
	
		<line style="fill:none;stroke:#FFFFFF;stroke-width:2;stroke-linecap:round;stroke-miterlimit:10;" x1="132" y1="37" x2="95" y2="37"/>
	
		<line style="fill:none;stroke:#008EBD;stroke-width:2;stroke-linecap:round;stroke-miterlimit:10;" x1="132" y1="39" x2="95" y2="39"/>
</g>
<g>
	
		<line style="fill:none;stroke:#FFFFFF;stroke-width:2;stroke-linecap:round;stroke-miterlimit:10;" x1="132" y1="56" x2="95" y2="56"/>
	
		<line style="fill:none;stroke:#008EBD;stroke-width:2;stroke-linecap:round;stroke-miterlimit:10;" x1="132" y1="58" x2="95" y2="58"/>
</g>
<g>
	
		<line style="fill:none;stroke:#FFFFFF;stroke-width:2;stroke-linecap:round;stroke-miterlimit:10;" x1="135" y1="46.478" x2="89" y2="46.478"/>
	
		<line style="fill:none;stroke:#008EBD;stroke-width:2;stroke-linecap:round;stroke-miterlimit:10;" x1="135" y1="48.522" x2="89" y2="48.522"/>
</g>
<g>
	<circle style="fill:#008EBD;" cx="241" cy="81" r="15"/>
	<path style="fill:#FFFFFF;" d="M241,67c7.732,0,14,6.268,14,14s-6.268,14-14,14s-14-6.268-14-14S233.268,67,241,67 M241,65
		c-8.822,0-16,7.178-16,16s7.178,16,16,16s16-7.178,16-16S249.822,65,241,65L241,65z"/>
</g>
<path style="fill:#FFFFFF;" d="M233.828,82.637l3.726,3.718c0.508,0.508,1.381,0.561,1.939,0.108l9.31-7.446
	c0.308-0.245,0.5-0.594,0.543-0.982c0.042-0.388-0.069-0.768-0.313-1.071c-0.242-0.305-0.589-0.495-0.977-0.537
	c-0.384-0.047-0.767,0.066-1.071,0.308l-8.288,6.632l-2.799-2.799c-0.285-0.285-0.659-0.428-1.034-0.428s-0.749,0.143-1.035,0.428
	c-0.275,0.276-0.428,0.645-0.428,1.036C233.4,81.993,233.553,82.361,233.828,82.637z"/>
</svg>
