<?xml version="1.0" encoding="iso-8859-1"?>
<!-- Generator: Adobe Illustrator 23.0.1, SVG Export Plug-In . SVG Version: 6.00 Build 0)  -->
<svg version="1.1" id="Ebene_1" xmlns="http://www.w3.org/2000/svg" xmlns:xlink="http://www.w3.org/1999/xlink" x="0px" y="0px"
	 viewBox="0 0 350 120" style="enable-background:new 0 0 350 120;" xml:space="preserve">
<rect style="fill:#008EBD;" width="350" height="120"/>
<g>
	<path style="fill:#FFFFFF;" d="M244.784,57.86l-10.112-14.11c-0.264-0.369-0.663-0.57-1.082-0.614l-0.721-0.011l-0.009-0.012
		h-0.054h-0.743h-4.58h-11.514l1.419-10.687c0.164-1.686-0.785-3.053-2.118-3.053h-79.124c-1.334,0-2.548,1.367-2.711,3.053
		l-4.151,42.747c-0.164,1.686,0.785,3.053,2.118,3.053h77.411H209h29.661c1.939,0,3.704-1.572,3.942-3.511
		c0,0,2.285-14.809,2.343-15.429C244.993,58.792,245.094,58.294,244.784,57.86z"/>
	<path style="fill:#008EBD;" d="M240.307,58.363l-8.694-11.646h-13.63c-1.47,0-2.808,1.192-2.989,2.662l-1.103,8.984H240.307z"/>
	
		<circle style="fill:#FFFFFF;stroke:#008EBD;stroke-width:2;stroke-linecap:round;stroke-miterlimit:10;" cx="221.894" cy="81.05" r="9.885"/>
	
		<circle style="fill:#FFFFFF;stroke:#008EBD;stroke-width:2;stroke-linecap:round;stroke-miterlimit:10;" cx="146.489" cy="81.05" r="9.885"/>
	<circle style="fill:#008EBD;" cx="146.489" cy="81.05" r="4"/>
	<circle style="fill:#008EBD;" cx="221.894" cy="81.05" r="4"/>
	<g>
		
			<line style="fill:none;stroke:#FFFFFF;stroke-width:2;stroke-linecap:round;stroke-miterlimit:10;" x1="142" y1="41" x2="105" y2="41"/>
		
			<line style="fill:none;stroke:#008EBD;stroke-width:2;stroke-linecap:round;stroke-miterlimit:10;" x1="142" y1="43" x2="105" y2="43"/>
	</g>
	<g>
		
			<line style="fill:none;stroke:#FFFFFF;stroke-width:2;stroke-linecap:round;stroke-miterlimit:10;" x1="142" y1="60" x2="105" y2="60"/>
		
			<line style="fill:none;stroke:#008EBD;stroke-width:2;stroke-linecap:round;stroke-miterlimit:10;" x1="142" y1="62" x2="105" y2="62"/>
	</g>
	<g>
		
			<line style="fill:none;stroke:#FFFFFF;stroke-width:2;stroke-linecap:round;stroke-miterlimit:10;" x1="145" y1="50.478" x2="99" y2="50.478"/>
		
			<line style="fill:none;stroke:#008EBD;stroke-width:2;stroke-linecap:round;stroke-miterlimit:10;" x1="145" y1="52.522" x2="99" y2="52.522"/>
	</g>
</g>
</svg>
