<?xml version="1.0" encoding="UTF-8" standalone="no"?><!DOCTYPE svg PUBLIC "-//W3C//DTD SVG 1.1//EN" "http://www.w3.org/Graphics/SVG/1.1/DTD/svg11.dtd"><svg width="100%" height="100%" viewBox="0 0 263 91" version="1.1" xmlns="http://www.w3.org/2000/svg" xmlns:xlink="http://www.w3.org/1999/xlink" xml:space="preserve" xmlns:serif="http://www.serif.com/" style="fill-rule:evenodd;clip-rule:evenodd;stroke-linecap:round;stroke-miterlimit:10;"><rect x="0" y="0" width="262.5" height="90.138" style="fill:#008ebd;"/><path d="M176.088,40.395l-7.584,-10.583c-0.198,-0.276 -0.497,-0.427 -0.811,-0.46l-0.541,-0.008l-0.007,-0.009l-0.04,0l-0.558,0l-3.435,0l-8.635,0l1.064,-8.016c0.123,-1.264 -0.589,-2.289 -1.588,-2.289l-59.343,0c-1.001,0 -1.911,1.025 -2.034,2.29l-3.113,32.06c-0.123,1.264 0.589,2.289 1.589,2.289l80.444,0c1.454,0 2.778,-1.179 2.956,-2.633c0,0 1.714,-11.106 1.758,-11.572c0.035,-0.37 0.111,-0.743 -0.122,-1.069Z" style="fill:#fff;fill-rule:nonzero;"/><path d="M172.73,40.772l-6.52,-8.734l-10.223,0c-1.102,0 -2.106,0.894 -2.241,1.996l-0.828,6.738l19.812,0Z" style="fill:#008ebd;fill-rule:nonzero;"/><circle cx="158.921" cy="57.787" r="7.414" style="fill:#fff;stroke:#008ebd;stroke-width:1.5px;"/><circle cx="102.367" cy="57.787" r="7.414" style="fill:#fff;stroke:#008ebd;stroke-width:1.5px;"/><circle cx="102.367" cy="57.787" r="3" style="fill:#008ebd;"/><circle cx="158.921" cy="57.787" r="3" style="fill:#008ebd;"/><path d="M99,27.75l-27.75,0" style="fill:none;fill-rule:nonzero;stroke:#fff;stroke-width:1.5px;"/><path d="M99,29.25l-27.75,0" style="fill:none;fill-rule:nonzero;stroke:#008ebd;stroke-width:1.5px;"/><path d="M99,42l-27.75,0" style="fill:none;fill-rule:nonzero;stroke:#fff;stroke-width:1.5px;"/><path d="M99,43.5l-27.75,0" style="fill:none;fill-rule:nonzero;stroke:#008ebd;stroke-width:1.5px;"/><path d="M101.25,34.859l-34.5,-0.001" style="fill:none;fill-rule:nonzero;stroke:#fff;stroke-width:1.5px;"/><path d="M101.25,36.392l-34.5,-0.001" style="fill:none;fill-rule:nonzero;stroke:#008ebd;stroke-width:1.5px;"/><circle cx="180.75" cy="60.75" r="11.25" style="fill:#008ebd;"/><path d="M180.75,50.25c5.799,0 10.5,4.701 10.5,10.5c0,5.799 -4.701,10.5 -10.5,10.5c-5.799,0 -10.5,-4.701 -10.5,-10.5c0,-5.799 4.701,-10.5 10.5,-10.5m0,-1.5c-6.617,0 -12,5.383 -12,12c0,6.617 5.383,12 12,12c6.617,0 12,-5.383 12,-12c0,-6.617 -5.383,-12 -12,-12Z" style="fill:#fff;fill-rule:nonzero;"/><path d="M175.371,61.978l2.794,2.788c0.381,0.381 1.036,0.421 1.455,0.081l6.982,-5.584c0.231,-0.184 0.375,-0.446 0.407,-0.737c0.032,-0.291 -0.051,-0.576 -0.234,-0.803c-0.182,-0.229 -0.442,-0.371 -0.733,-0.403c-0.288,-0.035 -0.575,0.05 -0.803,0.231l-6.216,4.974l-2.1,-2.099c-0.213,-0.214 -0.494,-0.321 -0.775,-0.321c-0.281,0 -0.562,0.107 -0.776,0.321c-0.207,0.207 -0.321,0.484 -0.321,0.777c-0.001,0.292 0.114,0.568 0.32,0.775Z" style="fill:#fff;fill-rule:nonzero;"/><path id="Globe-Earth" serif:id="Globe Earth" d="M115.949,36.807c0.136,-1.96 0.852,-3.801 2.081,-5.347c0.793,0.344 1.638,0.635 2.521,0.864c-0.406,1.412 -0.637,2.918 -0.688,4.483l-3.914,0Zm8.994,6.388l0,3.88c-1.112,-0.373 -2.147,-1.654 -2.888,-3.58c0.902,-0.167 1.871,-0.267 2.888,-0.3Zm-2.412,3.479c-1.373,-0.463 -2.626,-1.231 -3.673,-2.252c0.632,-0.251 1.32,-0.471 2.053,-0.657c0.436,1.165 0.989,2.154 1.62,2.909Zm-1.501,-8.514l3.913,0l0,3.856c-1.118,0.036 -2.213,0.159 -3.261,0.365c-0.376,-1.306 -0.599,-2.756 -0.652,-4.221Zm3.913,-5.209l0,3.856l-3.913,0c0.053,-1.466 0.276,-2.915 0.652,-4.22c1.053,0.206 2.148,0.329 3.261,0.364Zm-6.085,-2.406c1.047,-1.022 2.301,-1.789 3.673,-2.251c-0.631,0.753 -1.183,1.743 -1.62,2.908c-0.732,-0.186 -1.421,-0.407 -2.053,-0.657Zm3.197,0.926c0.741,-1.927 1.776,-3.207 2.888,-3.578l0,3.879c-1.018,-0.034 -1.987,-0.134 -2.888,-0.301Zm-1.504,11.172c-0.881,0.23 -1.728,0.52 -2.521,0.863c-1.229,-1.544 -1.945,-3.385 -2.081,-5.346l3.914,0c0.051,1.564 0.282,3.069 0.688,4.483Zm14.739,-4.487c-0.136,1.964 -0.852,3.806 -2.08,5.35c-0.795,-0.343 -1.641,-0.633 -2.521,-0.862c0.405,-1.412 0.636,-2.919 0.688,-4.488l3.913,0Zm-8.994,-6.384l0,-3.879c1.113,0.371 2.148,1.652 2.889,3.578c-0.901,0.167 -1.871,0.267 -2.889,0.301Zm4.033,-0.57c-0.437,-1.165 -0.989,-2.155 -1.622,-2.908c1.373,0.462 2.627,1.229 3.674,2.251c-0.633,0.25 -1.321,0.471 -2.052,0.657Zm-0.12,5.605l-3.913,0l0,-3.856c1.117,-0.036 2.212,-0.159 3.261,-0.364c0.375,1.303 0.6,2.754 0.652,4.22Zm1.167,0c-0.051,-1.564 -0.282,-3.069 -0.688,-4.482c0.881,-0.23 1.727,-0.52 2.522,-0.865c1.228,1.545 1.944,3.386 2.079,5.347l-3.913,0Zm-5.08,5.209l0,-3.86l3.913,0c-0.052,1.47 -0.277,2.921 -0.652,4.224c-1.049,-0.206 -2.144,-0.329 -3.261,-0.364Zm6.086,2.406c-1.047,1.021 -2.301,1.789 -3.675,2.252c0.633,-0.755 1.185,-1.744 1.622,-2.909c0.733,0.186 1.421,0.406 2.053,0.657Zm-3.198,-0.927c-0.74,1.926 -1.775,3.206 -2.888,3.58l0,-3.88c1.014,0.033 1.982,0.133 2.888,0.3Zm-3.565,-16.886c-5.995,0 -10.873,4.879 -10.873,10.875c0,5.995 4.878,10.874 10.873,10.874c5.996,0 10.875,-4.879 10.875,-10.874c0,-5.996 -4.879,-10.875 -10.875,-10.875Z" style="fill:#008ebd;"/></svg>