<svg id="soft-login" xmlns="http://www.w3.org/2000/svg" width="262.5" height="90.138" viewBox="0 0 262.5 90.138">
  <rect id="Rectangle_1" data-name="Rectangle 1" width="262.5" height="90.138" fill="#008ebd"/>
  <g id="Group_6" data-name="Group 6" transform="translate(0 -10)">
    <rect id="Rectangle_9" data-name="Rectangle 9" width="71.102" height="12.382" transform="translate(95.699 66)" stroke-width="1.5" stroke="#fff" stroke-linecap="round" stroke-linejoin="round" stroke-miterlimit="1.5" fill="none"/>
    <g id="Group_5" data-name="Group 5" transform="translate(5)">
      <path id="Medical" d="M110.33,71.8v0h0l0,0v-.735h.447V71.8l0,0h0v0l.593-.345.039-.023.022.039.179.312.022.039-.038.022-.594.345.594.345.038.022-.022.039-.179.312-.022.039-.039-.023-.593-.345v0h0l0,0v.735h-.447V72.58l0,0h0v0l-.594.345-.039.023-.022-.039L109.5,72.6l-.022-.039.039-.022.593-.345-.593-.345-.039-.022.022-.039.179-.312.022-.039.039.023Zm-.224.389Zm.894,0Z" fill="#fff" fill-rule="evenodd"/>
      <path id="Medical1" d="M113.312,71.8v0h0l0,0v-.735h.447V71.8l0,0h0v0l.594-.345.039-.023.022.039.179.312.022.039-.039.022-.593.345.593.345.039.022-.022.039-.179.312-.022.039-.039-.023-.594-.345v0h0l0,0v.735h-.447V72.58l0,0h0v0l-.593.345-.039.023-.022-.039-.179-.312-.022-.039.038-.022.594-.345-.594-.345-.038-.022.022-.039.179-.312.022-.039.039.023Zm-.223.389Zm.894,0Z" fill="#fff" fill-rule="evenodd"/>
      <path id="Medical2" d="M116.258,71.8v0h0l0,0v-.735h.447V71.8l0,0h0v0l.593-.345.039-.023.022.039.179.312.022.039-.038.022-.594.345.594.345.038.022-.022.039-.179.312-.022.039-.039-.023-.593-.345v0h0l0,0v.735h-.447V72.58l0,0h0v0l-.594.345-.038.023-.023-.039-.179-.312-.022-.039.039-.022.593-.345-.593-.345-.039-.022.022-.039.179-.312.023-.039.038.023Zm-.224.389Zm.894,0Z" fill="#fff" fill-rule="evenodd"/>
      <path id="Medical3" d="M119.258,71.8v0h0l0,0v-.734h.447V71.8l0,0h0v0l.593-.344.039-.023.022.039.179.312.022.039-.038.022-.594.345.594.345.038.022-.022.039-.179.312-.022.039-.039-.023-.593-.345v0h0l0,0v.735h-.447V72.58l0,0h0v0l-.594.345-.038.023-.023-.039-.179-.312-.022-.039.039-.022.593-.345-.593-.345-.039-.022.022-.039.179-.312.023-.039.038.023Zm-.224.39Zm.894,0Z" fill="#fff" fill-rule="evenodd"/>
      <path id="Medical4" d="M122.258,71.8v0h0l0,0v-.735h.447V71.8l0,0h0v0l.593-.345.039-.023.022.039.179.312.022.039-.038.022-.594.345.594.345.038.022-.022.039-.179.312-.022.039-.039-.023-.593-.345v0h0l0,0v.735h-.447V72.58l0,0h0v0l-.594.345-.038.023-.023-.039-.179-.312-.022-.039.039-.022.593-.345-.593-.345-.039-.022.022-.039.179-.312.023-.039.038.023Zm-.224.389Zm.894,0Z" fill="#fff" fill-rule="evenodd"/>
      <path id="Medical5" d="M125.258,71.8v0h0l0,0v-.735h.447V71.8l0,0h0v0l.593-.345.039-.023.022.039.179.312.022.039-.038.022-.594.345.594.345.038.022-.022.039-.179.312-.022.039-.039-.023-.593-.345v0h0l0,0v.735h-.447V72.58l0,0h0v0l-.594.345-.038.023-.023-.039-.179-.312-.022-.039.039-.022.593-.345-.593-.345-.039-.022.022-.039.179-.312.023-.039.038.023Zm-.224.389Zm.894,0Z" fill="#fff" fill-rule="evenodd"/>
    </g>
  </g>
  <text id="ZIP" transform="translate(100 64)" fill="#fff" font-size="6" font-family="Roboto-Regular, Roboto"><tspan x="0" y="0">ZIP</tspan></text>
  <path id="check-icn-black" d="M8.607,5.4,5.131,9.366,3,7.492l.411-.464,1.664,1.46L8.147,5l.459.4Z" transform="translate(154 55.652)" fill="#fff" fill-rule="evenodd"/>
  <path id="Path_9" data-name="Path 9" stroke="#fff" d="M131.23,10.141a15.987,15.987,0,1,1-15.967,16.007A15.995,15.995,0,0,1,131.23,10.141Z" fill="none" transform="translate(-4 4)" stroke-linecap="round" stroke-linejoin="round" stroke-miterlimit="1.5" stroke-width="1.5" fill-rule="evenodd"/>
  <g id="Group_14" data-name="Group 14" transform="translate(-4 4)">
    <path id="Path_2" data-name="Path 2" d="M146.789,29.953a7.553,7.553,0,1,1-7.544,7.562A7.556,7.556,0,0,1,146.789,29.953Z" fill="#008ebd" stroke="#fff" stroke-linecap="round" stroke-linejoin="round" stroke-miterlimit="1.5" stroke-width="1.5" fill-rule="evenodd"/>
    <path id="Path_3" data-name="Path 3" d="M148.37,36.291a.524.524,0,0,1-.524.523h-2.1a.524.524,0,0,1-.524-.523V34.962a1.585,1.585,0,0,1,3.144,0v1.329ZM146.8,32.655a2.48,2.48,0,0,0-2.62,2.307v1.326a.524.524,0,0,1-.524.524.525.525,0,0,0-.524.524v3.571a.524.524,0,0,0,.524.524h6.288a.524.524,0,0,0,.524-.524V37.336a.525.525,0,0,0-.524-.524.524.524,0,0,1-.524-.524V34.962A2.481,2.481,0,0,0,146.8,32.655Z" fill="#fff" fill-rule="evenodd"/>
  </g>
  <g id="Group_15" data-name="Group 15" transform="translate(-4 4)">
    <path id="Path_7" data-name="Path 7" d="M130.235,16.7a4.377,4.377,0,1,1-3.253,5.265A4.378,4.378,0,0,1,130.235,16.7Z" fill="#fff" fill-rule="evenodd"/>
    <path id="Path_8" data-name="Path 8" d="M138.494,29.379a4.319,4.319,0,0,0-2.654-3.825,7.1,7.1,0,0,1-9.176.019c-.07.028-.14.053-.208.085l-.079.038a4.192,4.192,0,0,0-1.158.854l-.059.064a4.391,4.391,0,0,0-1.153,2.771c0,.072,0,.144,0,.216v4.5c0,.093.086.072.174.072H138.37c.089,0,.125.021.125-.072V29.6c0-.072,0-.15,0-.222Z" fill="#fff"/>
  </g>
</svg>
