<?xml version="1.0" encoding="UTF-8" standalone="no"?><!DOCTYPE svg PUBLIC "-//W3C//DTD SVG 1.1//EN" "http://www.w3.org/Graphics/SVG/1.1/DTD/svg11.dtd"><svg width="100%" height="100%" viewBox="0 0 350 120" version="1.1" xmlns="http://www.w3.org/2000/svg" xmlns:xlink="http://www.w3.org/1999/xlink" xml:space="preserve" xmlns:serif="http://www.serif.com/" style="fill-rule:evenodd;clip-rule:evenodd;stroke-linecap:square;stroke-linejoin:round;stroke-miterlimit:1.5;"><rect x="0" y="0" width="350" height="120.184" style="fill:#008ebd;"/><rect x="112.95" y="49.519" width="31.889" height="20.877" style="fill:#fff;stroke:#fff;stroke-width:2px;"/><rect x="196.981" y="49.536" width="31.889" height="20.877" style="fill:#fff;stroke:#fff;stroke-width:2px;"/><rect x="154.966" y="49.536" width="31.889" height="20.877" style="fill:#fff;stroke:#fff;stroke-width:2px;"/><rect x="112.95" y="18.018" width="31.889" height="20.877" style="fill:#fff;stroke:#fff;stroke-width:2px;"/><rect x="196.981" y="18.018" width="31.889" height="20.877" style="fill:#fff;stroke:#fff;stroke-width:2px;"/><rect x="154.966" y="18.018" width="31.889" height="20.877" style="fill:#fff;stroke:#fff;stroke-width:2px;"/><rect x="112.95" y="81.087" width="31.889" height="20.877" style="fill:#fff;stroke:#fff;stroke-width:2px;"/><rect x="196.981" y="81.105" width="31.889" height="20.877" style="fill:#fff;stroke:#fff;stroke-width:2px;"/><rect x="154.966" y="81.105" width="31.889" height="20.877" style="fill:#fff;stroke:#fff;stroke-width:2px;"/><g><path d="M218.844,27.584c0,-1.811 -1.462,-3.279 -3.265,-3.279l-0.235,0c-2.29,0 -4.146,1.864 -4.146,4.162l-0.175,5.616l-0.388,12.373c-0.088,0.381 -0.138,8.984 -0.138,8.984c-0.725,-0.742 -1.53,-1.59 -2.255,-2.401c-1.69,-1.895 -4.796,-3.171 -6.862,-3.407c-1.087,-0.125 -1.918,0.024 -2.47,0.442c-0.177,0.136 -0.351,0.287 -0.513,0.45c-1.066,1.054 -1.87,2.757 -1.126,4.004c0.321,0.545 19.745,18.303 19.745,18.303c1.569,0.998 4.424,1.931 7.721,1.931c3.291,0 6.28,0.198 8.49,-1.754l0.119,0l0.058,-0.148c2.248,-2.067 3.646,-4.933 3.646,-8.101l0,-4.217l0,-10.932c0,-0.742 -0.163,-3.231 -2.246,-3.978c-1.002,-0.357 -1.948,-0.222 -2.755,0.127l-0.188,0.009l-0.058,0.004c-0.363,-1.367 -1.267,-2.25 -2.606,-2.484c-1.616,-0.281 -2.737,0.204 -3.411,0.694c-0.669,-1.445 -2.012,-2.199 -3.829,-2.045c-1.364,0.116 -2.377,0.788 -3.112,1.674l0,-9.321l0,-6.706l-0.001,0Z" style="fill:#008ebd;fill-rule:nonzero;stroke:#fff;stroke-width:1.65px;stroke-linecap:butt;stroke-miterlimit:10;"/><path d="M218.923,44.019l0,3.832" style="fill:none;fill-rule:nonzero;stroke:#fff;stroke-width:1.65px;stroke-linecap:round;stroke-miterlimit:10;"/><path d="M225.601,44.019l0,5.749" style="fill:none;fill-rule:nonzero;stroke:#fff;stroke-width:1.65px;stroke-linecap:round;stroke-miterlimit:10;"/><path d="M231.802,45.935l0,5.749" style="fill:none;fill-rule:nonzero;stroke:#fff;stroke-width:1.65px;stroke-linecap:round;stroke-miterlimit:10;"/></g></svg>