<?xml version="1.0" encoding="iso-8859-1"?>
<!-- Generator: Adobe Illustrator 23.0.1, SVG Export Plug-In . SVG Version: 6.00 Build 0)  -->
<svg version="1.1" id="Ebene_1" xmlns="http://www.w3.org/2000/svg" xmlns:xlink="http://www.w3.org/1999/xlink" x="0px" y="0px"
	 viewBox="0 0 350 120" style="enable-background:new 0 0 350 120;" xml:space="preserve">
<rect style="fill:#008EBD;" width="350" height="120"/>
<g>
	<path style="fill:none;stroke:#FFFFFF;stroke-width:2;stroke-miterlimit:10;" d="M153.817,51.927
		c2.264-1.521,4.898-2.356,7.905-2.505l9.074-22.768c-1.448-2.375-2.171-4.026-2.171-4.954c0-3.191,2.469-4.788,7.404-4.788
		c4.083,0,8.461,1.021,13.137,3.062c5.381,2.375,8.072,5.084,8.072,8.127c0,1.633-0.668,2.932-2.004,3.896
		c-0.408,0.297-1.651,0.891-3.729,1.781l-5.289,22.99c3.823,2.783,5.734,6.31,5.734,10.577c0,5.9-4.36,8.851-13.082,8.851
		c-3.006,0-6.197-0.464-9.575-1.392l-4.008-1.336c-3.674-1.373-6.939-3.21-9.797-5.511c-3.785-3.043-5.678-6.104-5.678-9.186
		C149.809,55.954,151.146,53.672,153.817,51.927z"/>
</g>
<g>
	<path style="fill:#FFFFFF;" d="M169.173,75.25L157.16,107l7.261-33.334C160.064,72.038,173.178,76.35,169.173,75.25z
		 M165.411,53.269"/>
</g>
<path style="fill:#008EBD;stroke:#FFFFFF;stroke-width:2;stroke-linecap:round;stroke-miterlimit:10;" d="M171.236,27.281
	c2.605,2.012,6.295,3.792,10.561,4.916c3.925,1.034,7.699,1.346,10.815,1.025"/>
<path style="fill:#008EBD;stroke:#FFFFFF;stroke-width:2;stroke-linecap:round;stroke-miterlimit:10;" d="M161.272,49.548
	c2.555,4.004,6.589,7.195,11.614,8.722c4.623,1.405,9.333,1.172,13.444-0.359"/>
</svg>
