<?xml version="1.0" encoding="UTF-8" standalone="no"?><!DOCTYPE svg PUBLIC "-//W3C//DTD SVG 1.1//EN" "http://www.w3.org/Graphics/SVG/1.1/DTD/svg11.dtd"><svg width="100%" height="100%" viewBox="0 0 350 120" version="1.1" xmlns="http://www.w3.org/2000/svg" xmlns:xlink="http://www.w3.org/1999/xlink" xml:space="preserve" xmlns:serif="http://www.serif.com/" style="fill-rule:evenodd;clip-rule:evenodd;stroke-linejoin:round;stroke-miterlimit:1.41421;"><g><path d="M350,120l-350,0l0,-120l350,0l0,120Zm-201,-98l-28,0c-1.466,0.105 -1.889,0.446 -2,2l0,72c0.105,1.466 0.446,1.889 2,2l108,0c1.466,-0.105 1.889,-0.447 2,-2l0,-53.955c-0.125,-1.751 -1.999,-2 -1.999,-2l-6.003,-0.001l0.002,-0.044l0,-16c-0.047,-1.252 -0.827,-1.879 -1.851,-1.994l-0.149,-0.006l-28,0c-1.301,0.049 -1.959,0.915 -2,2l0,16l0.001,0.031l-4.002,-0.001l0.001,-0.03l0,-16c-0.047,-1.252 -0.827,-1.879 -1.851,-1.994l-0.149,-0.006l-28,0c-1.301,0.049 -1.959,0.915 -2,2l0,16l0.001,0.017l-3.962,-0.001l-0.039,-16.021c-0.099,-1.346 -0.305,-1.668 -1.716,-1.975l-0.284,-0.02Zm80,74l-108,0l0,-72l28,0l0.036,18.015l79.964,0.03l0,53.955Zm-44,-56l-28,0l0,-16l28,0l0,16Zm36,-16l0,16l-28,0l0,-16l28,0Z" style="fill:#008ebd;"/></g></svg>