<?xml version="1.0" encoding="utf-8"?>
<!-- Generator: Adobe Illustrator 22.1.0, SVG Export Plug-In . SVG Version: 6.00 Build 0)  -->
<svg version="1.1" id="Ebene_1" xmlns="http://www.w3.org/2000/svg" xmlns:xlink="http://www.w3.org/1999/xlink" x="0px" y="0px"
	 viewBox="0 0 350 120" style="enable-background:new 0 0 350 120;" xml:space="preserve">
<style type="text/css">
	.st0{fill:#008EBD;}
</style>
<g>
	<path class="st0" d="M213,81.7c-0.3,0-0.6-0.1-0.9-0.1c-0.4,0-0.7-0.1-1.1-0.1c-7.7,0-14,6.3-14,14c0,0.2,0,0.3,0,0.5
		c0,0.7,0.1,1.3,0.2,2c1.2,6.5,6.9,11.5,13.8,11.5c7.7,0,14-6.3,14-14C225,88.4,219.8,82.6,213,81.7z M206.7,99.3
		c0.1,0.1,0.2,0.3,0.2,0.5c0,0.2-0.1,0.3-0.2,0.5l-0.5,0.5c-0.1,0.1-0.3,0.2-0.5,0.2c-0.2,0-0.3-0.1-0.5-0.2l-4.8-4.8
		c-0.1-0.1-0.2-0.3-0.2-0.5s0.1-0.3,0.2-0.5l4.8-4.8c0.3-0.3,0.7-0.3,0.9,0l0.5,0.5c0.1,0.1,0.2,0.3,0.2,0.5c0,0.2-0.1,0.3-0.2,0.5
		l-3.8,3.8L206.7,99.3z M213.8,89.2l-3.8,13.2c-0.1,0.2-0.2,0.3-0.3,0.4c-0.1,0.1-0.2,0.1-0.3,0.1c-0.1,0-0.1,0-0.2,0l-0.6-0.2
		c-0.2-0.1-0.3-0.2-0.4-0.3c-0.1-0.2-0.1-0.3-0.1-0.5l3.8-13.2c0.1-0.2,0.2-0.3,0.3-0.4c0.2-0.1,0.3-0.1,0.5-0.1l0.6,0.2
		c0.2,0,0.3,0.2,0.4,0.3C213.9,88.8,213.9,89,213.8,89.2z M221.7,95.5c0,0.2-0.1,0.3-0.2,0.5l-4.8,4.8c-0.1,0.1-0.3,0.2-0.5,0.2
		c-0.2,0-0.3-0.1-0.5-0.2l-0.5-0.5c-0.1-0.1-0.2-0.3-0.2-0.5c0-0.2,0.1-0.3,0.2-0.5l3.8-3.8l-3.8-3.8c-0.1-0.1-0.2-0.3-0.2-0.5
		c0-0.2,0.1-0.3,0.2-0.5l0.5-0.5c0.3-0.3,0.7-0.3,0.9,0l4.8,4.8C221.6,95.2,221.7,95.3,221.7,95.5z"/>
	<path class="st0" d="M211,79.5V24h-72v72h56c0-0.2,0-0.3,0-0.5C195,86.7,202.2,79.5,211,79.5z M194,51.5c0,0.7-0.1,1.3-0.4,1.6
		c-0.2,0.3-0.6,0.4-1,0.4s-0.7-0.1-1-0.4c-0.2-0.3-0.4-0.8-0.4-1.6V39.1h-14.9v42.1h9.4c0.7,0,1.2,0.1,1.5,0.4
		c0.3,0.2,0.4,0.6,0.4,1c0,0.4-0.1,0.7-0.4,1c-0.3,0.3-0.8,0.4-1.5,0.4h-21.5c-0.7,0-1.2-0.1-1.5-0.4c-0.3-0.3-0.4-0.6-0.4-1
		c0-0.4,0.1-0.7,0.4-1c0.3-0.3,0.8-0.4,1.5-0.4h9.4V39.1h-14.9v12.4c0,0.7-0.1,1.3-0.4,1.6c-0.5,0.5-1.4,0.6-1.9,0
		c-0.3-0.3-0.4-0.8-0.4-1.6V36.4H194V51.5z"/>
	<path class="st0" d="M0,0v120h350V0H0z M211,111.5c-8,0-14.6-5.9-15.8-13.5H139c-1.1,0-2-0.9-2-2V24c0-1.1,0.9-2,2-2h72
		c1.1,0,2,0.9,2,2v55.6c7.9,1,14,7.7,14,15.9C227,104.3,219.8,111.5,211,111.5z"/>
</g>
</svg>
