<?xml version="1.0" encoding="UTF-8" standalone="no"?><!DOCTYPE svg PUBLIC "-//W3C//DTD SVG 1.1//EN" "http://www.w3.org/Graphics/SVG/1.1/DTD/svg11.dtd"><svg width="100%" height="100%" viewBox="0 0 350 120" version="1.1" xmlns="http://www.w3.org/2000/svg" xmlns:xlink="http://www.w3.org/1999/xlink" xml:space="preserve" xmlns:serif="http://www.serif.com/" style="fill-rule:evenodd;clip-rule:evenodd;stroke-linejoin:round;stroke-miterlimit:1.41421;"><g><path d="M211,96l0,-72l-72,0l0,72l72,0Zm-17,-44.5c0,0.7 -0.1,1.3 -0.4,1.6c-0.2,0.3 -0.6,0.4 -1,0.4c-0.4,0 -0.7,-0.1 -1,-0.4c-0.2,-0.3 -0.4,-0.8 -0.4,-1.6l0,-12.4l-14.9,0l0,42.1l9.4,0c0.7,0 1.2,0.1 1.5,0.4c0.3,0.2 0.4,0.6 0.4,1c0,0.4 -0.1,0.7 -0.4,1c-0.3,0.3 -0.8,0.4 -1.5,0.4l-21.5,0c-0.7,0 -1.2,-0.1 -1.5,-0.4c-0.3,-0.3 -0.4,-0.6 -0.4,-1c0,-0.4 0.1,-0.7 0.4,-1c0.3,-0.3 0.8,-0.4 1.5,-0.4l9.4,0l0,-42.1l-14.9,0l0,12.4c0,0.7 -0.1,1.3 -0.4,1.6c-0.5,0.5 -1.4,0.6 -1.9,0c-0.3,-0.3 -0.4,-0.8 -0.4,-1.6l0,-15.1l38,0l0,15.1Z" style="fill:#008ebd;fill-rule:nonzero;"/><path d="M0,0l350,0l0,120l-350,0l0,-120Zm139,22c-0.481,0 -0.924,0.172 -1.27,0.458c-0.371,0.307 -0.631,0.743 -0.707,1.238l-0.013,0.1c-0.006,0.067 -0.01,0.135 -0.01,0.204l0,72c0,0.516 0.198,0.987 0.521,1.343l0.067,0.069c0.101,0.102 0.214,0.193 0.336,0.271c0.311,0.201 0.68,0.317 1.076,0.317l72,0c1.1,0 2,-0.9 2,-2l0,-72c0,-1.1 -0.9,-2 -2,-2l-72,0Z" style="fill:#008ebd;fill-rule:nonzero;"/></g></svg>