<?xml version="1.0" encoding="utf-8"?>
<!-- Generator: Adobe Illustrator 22.1.0, SVG Export Plug-In . SVG Version: 6.00 Build 0)  -->
<svg version="1.1" id="Ebene_1" xmlns="http://www.w3.org/2000/svg" xmlns:xlink="http://www.w3.org/1999/xlink" x="0px" y="0px"
	 viewBox="0 0 350 60" style="enable-background:new 0 0 350 60;" xml:space="preserve">
<style type="text/css">
	.st0{fill:#008EBD;}
</style>
<g>
	<path class="st0" d="M170.5,20.4h-4.1v19.3h4.3c5.9,0,8.6-3.1,8.6-9.7C179.3,23.4,176.4,20.4,170.5,20.4z"/>
	<polygon class="st0" points="145.7,33 154.6,33 150.1,20.9 	"/>
	<path class="st0" d="M0,0v60h350V0H0z M115.5,41.1h-1.7V30.4h-12.1v10.7h-1.7V19h1.7v10h12.1V19h1.7V41.1z M137,41.1h-13.5V19h13.1
		v1.4h-11.3V29h10.3v1.4h-10.3v9.3H137V41.1z M157.7,41.1l-2.6-6.7h-9.9l-2.5,6.7h-1.8l8.3-22.1h1.8l8.5,22.1H157.7z M170.5,41.1
		h-5.9V19h5.9c7.1,0,10.4,3.5,10.4,10.9C181,37.5,177.6,41.1,170.5,41.1z M200.2,41.1h-12.7V19h1.7v20.7h11V41.1z M207.2,41.1h-1.7
		V19h1.7V41.1z M231,41.1h-1.5l-12.9-19v19h-1.6V19h1.5l12.9,18.9V19h1.6V41.1z M252.5,41.1H239V19H252v1.4h-11.3V29H251v1.4h-10.3
		v9.3h11.8V41.1z"/>
</g>
</svg>
