<?xml version="1.0" encoding="UTF-8" standalone="no"?><!DOCTYPE svg PUBLIC "-//W3C//DTD SVG 1.1//EN" "http://www.w3.org/Graphics/SVG/1.1/DTD/svg11.dtd"><svg width="100%" height="100%" viewBox="0 0 263 90" version="1.1" xmlns="http://www.w3.org/2000/svg" xmlns:xlink="http://www.w3.org/1999/xlink" xml:space="preserve" xmlns:serif="http://www.serif.com/" style="fill-rule:evenodd;clip-rule:evenodd;stroke-linecap:round;stroke-linejoin:round;stroke-miterlimit:1.5;"><rect x="0" y="0" width="262.5" height="90" style="fill:#008ebd;"/><path d="M240,12.538c0,-1.345 -1.092,-2.437 -2.437,-2.437l-212.626,0c-1.345,0 -2.437,1.092 -2.437,2.437l0,64.442c0,1.345 1.092,2.437 2.437,2.437l212.626,0c1.345,0 2.437,-1.092 2.437,-2.437l0,-64.442Z" style="fill:none;stroke:#fff;stroke-width:1.5px;"/><path d="M22.5,36.029l217.5,0" style="fill:none;stroke:#fff;stroke-width:1.5px;"/><path d="M77.595,17.37c0,-0.237 -0.193,-0.43 -0.43,-0.43l-46.673,0c-0.237,0 -0.43,0.193 -0.43,0.43l0,11.377c0,0.237 0.193,0.43 0.43,0.43l46.673,0c0.237,0 0.43,-0.193 0.43,-0.43l0,-11.377Z" style="fill:none;stroke:#fff;stroke-width:1.5px;"/><path d="M114.897,17.37c0,-0.237 -0.193,-0.43 -0.431,-0.43l-29.268,0c-0.238,0 -0.431,0.193 -0.431,0.43l0,11.377c0,0.237 0.193,0.43 0.431,0.43l29.268,0c0.238,0 0.431,-0.193 0.431,-0.43l0,-11.377Z" style="fill:none;stroke:#fff;stroke-width:1.5px;"/><path d="M232.438,17.37c0,-0.237 -0.193,-0.43 -0.43,-0.43l-35.87,0c-0.237,0 -0.43,0.193 -0.43,0.43l0,11.377c0,0.237 0.193,0.43 0.43,0.43l35.87,0c0.237,0 0.43,-0.193 0.43,-0.43l0,-11.377Z" style="fill:none;stroke:#fff;stroke-width:1.5px;"/><g><path d="M111.897,22.657l-3.601,0l1.8,-2.401l1.801,2.401Z" style="fill:#fff;"/><path d="M110.096,25.873l-1.8,-2.402l3.601,0l-1.801,2.402Z" style="fill:#fff;"/></g><g><path d="M229.426,22.657l-3.601,0l1.8,-2.401l1.801,2.401Z" style="fill:#fff;"/><path d="M227.625,25.873l-1.8,-2.402l3.601,0l-1.801,2.402Z" style="fill:#fff;"/></g><g><path d="M74.626,22.651l-3.601,0l1.8,-2.401l1.801,2.401Z" style="fill:#fff;"/><path d="M72.825,25.867l-1.8,-2.402l3.601,0l-1.801,2.402Z" style="fill:#fff;"/></g><path d="M135.307,50.403l-5.562,0l0,12.803l5.562,0l-8.557,8.557l-8.557,-8.557l5.562,0l0,-12.803l-5.562,0l8.557,-8.557l8.557,8.557Zm-13.493,-1.5l3.441,0l0,15.803l-3.441,0l4.936,4.936l4.936,-4.936l-3.441,0l0,-15.803l3.441,0l-4.936,-4.936l-4.936,4.936Z" style="fill:#fff;"/><g><path d="M35.289,23.065l0.038,0.001l0.038,0.002l0.038,0.004l0.038,0.004l0.037,0.005l0.037,0.006l0.037,0.007l0.037,0.008l0.036,0.008l0.035,0.01l0.036,0.01l0.035,0.011l0.035,0.012l0.034,0.012l0.034,0.014l0.033,0.014l0.033,0.015l0.033,0.016l0.032,0.016l0.031,0.018l0.032,0.018l0.03,0.018l0.03,0.02l0.03,0.02l0.029,0.02l0.029,0.022l0.028,0.022l0.027,0.022l0.027,0.023l0.027,0.024l0.025,0.025l0.026,0.025l0.024,0.026l0.024,0.026l0.023,0.026l0.023,0.028l0.022,0.028l0.021,0.028l0.021,0.029l0.02,0.029l0.019,0.03l0.018,0.03l0.018,0.031l0.017,0.031l0.016,0.032l0.015,0.032l0.015,0.033l0.014,0.033l0.013,0.033l0.012,0.034l0.012,0.034l0.01,0.034l0.01,0.035l0.009,0.035l0.008,0.036l0.007,0.035l0.006,0.036l0.005,0.037l0.004,0.036l0.004,0.037l0.002,0.038l0.002,0.037l0,0.038l0,0.037l-0.002,0.038l-0.002,0.037l-0.004,0.037l-0.004,0.036l-0.005,0.037l-0.006,0.036l-0.007,0.036l-0.008,0.035l-0.009,0.035l-0.01,0.035l-0.01,0.034l-0.012,0.034l-0.012,0.034l-0.013,0.033l-0.014,0.033l-0.015,0.033l-0.015,0.032l-0.016,0.032l-0.017,0.031l-0.018,0.031l-0.018,0.03l-0.019,0.03l-0.02,0.029l-0.021,0.029l-0.021,0.029l-0.022,0.027l-0.023,0.028l-0.023,0.026l-0.024,0.027l-0.024,0.025l-0.026,0.025l-0.025,0.025l-0.027,0.024l-0.027,0.023l-0.027,0.023l-0.028,0.022l-0.029,0.021l-0.029,0.021l-0.03,0.02l-0.03,0.019l-0.03,0.019l-0.032,0.017l-0.031,0.018l-0.032,0.016l-0.033,0.016l-0.033,0.015l-0.033,0.014l-0.034,0.014l-0.034,0.012l-0.035,0.012l-0.035,0.011l-0.036,0.011l-0.035,0.009l-0.036,0.009l-0.037,0.007l-0.037,0.007l-0.037,0.006l-0.037,0.005l-0.038,0.004l-0.038,0.004l-0.038,0.002l-0.038,0.001l-0.039,0.001l-0.039,-0.001l-0.038,-0.001l-0.038,-0.002l-0.038,-0.004l-0.038,-0.004l-0.037,-0.005l-0.037,-0.006l-0.037,-0.007l-0.037,-0.007l-0.036,-0.009l-0.035,-0.009l-0.036,-0.011l-0.035,-0.011l-0.035,-0.012l-0.034,-0.012l-0.034,-0.014l-0.033,-0.014l-0.033,-0.015l-0.033,-0.016l-0.032,-0.016l-0.031,-0.018l-0.032,-0.017l-0.03,-0.019l-0.03,-0.019l-0.03,-0.02l-0.029,-0.021l-0.029,-0.021l-0.028,-0.022l-0.027,-0.023l-0.027,-0.023l-0.027,-0.024l-0.025,-0.025l-0.026,-0.025l-0.024,-0.025l-0.024,-0.027l-0.023,-0.026l-0.023,-0.028l-0.022,-0.027l-0.021,-0.029l-0.021,-0.029l-0.02,-0.029l-0.019,-0.03l-0.018,-0.03l-0.018,-0.031l-0.017,-0.031l-0.016,-0.032l-0.015,-0.032l-0.015,-0.033l-0.014,-0.033l-0.013,-0.033l-0.012,-0.034l-0.012,-0.034l-0.01,-0.034l-0.01,-0.035l-0.009,-0.035l-0.008,-0.035l-0.007,-0.036l-0.006,-0.036l-0.005,-0.037l-0.004,-0.036l-0.004,-0.037l-0.002,-0.037l-0.002,-0.038l0,-0.037l0,-0.038l0.002,-0.037l0.002,-0.038l0.004,-0.037l0.004,-0.036l0.005,-0.037l0.006,-0.036l0.007,-0.035l0.008,-0.036l0.009,-0.035l0.01,-0.035l0.01,-0.034l0.012,-0.034l0.012,-0.034l0.013,-0.033l0.014,-0.033l0.015,-0.033l0.015,-0.032l0.016,-0.032l0.017,-0.031l0.018,-0.031l0.018,-0.03l0.019,-0.03l0.02,-0.029l0.021,-0.029l0.021,-0.028l0.022,-0.028l0.023,-0.028l0.023,-0.026l0.024,-0.026l0.024,-0.026l0.026,-0.025l0.025,-0.025l0.027,-0.024l0.027,-0.023l0.027,-0.022l0.028,-0.022l0.029,-0.022l0.029,-0.02l0.03,-0.02l0.03,-0.02l0.03,-0.018l0.032,-0.018l0.031,-0.018l0.032,-0.016l0.033,-0.016l0.033,-0.015l0.033,-0.014l0.034,-0.014l0.034,-0.012l0.035,-0.012l0.035,-0.011l0.036,-0.01l0.035,-0.01l0.036,-0.008l0.037,-0.008l0.037,-0.007l0.037,-0.006l0.037,-0.005l0.038,-0.004l0.038,-0.004l0.038,-0.002l0.038,-0.001l0.039,-0.001l0.039,0.001Zm-0.039,1.455l0,0.002l0,0.002l0,0.003l0,0l0,-0.002l0,-0.001l0,-0.002l0,-0.002l0,0l0,0Z" style="fill:#fff;"/><path d="M39.789,23.065l0.038,0.001l0.038,0.002l0.038,0.004l0.038,0.004l0.037,0.005l0.037,0.006l0.037,0.007l0.037,0.008l0.036,0.008l0.035,0.01l0.036,0.01l0.035,0.011l0.035,0.012l0.034,0.012l0.034,0.014l0.033,0.014l0.033,0.015l0.033,0.016l0.032,0.016l0.031,0.018l0.032,0.018l0.03,0.018l0.03,0.02l0.03,0.02l0.029,0.02l0.029,0.022l0.028,0.022l0.027,0.022l0.027,0.023l0.027,0.024l0.025,0.025l0.026,0.025l0.024,0.026l0.024,0.026l0.023,0.026l0.023,0.028l0.022,0.028l0.021,0.028l0.021,0.029l0.02,0.029l0.019,0.03l0.018,0.03l0.018,0.031l0.017,0.031l0.016,0.032l0.015,0.032l0.015,0.033l0.014,0.033l0.013,0.033l0.012,0.034l0.012,0.034l0.01,0.034l0.01,0.035l0.009,0.035l0.008,0.036l0.007,0.035l0.006,0.036l0.005,0.037l0.004,0.036l0.004,0.037l0.002,0.038l0.002,0.037l0,0.038l0,0.037l-0.002,0.038l-0.002,0.037l-0.004,0.037l-0.004,0.036l-0.005,0.037l-0.006,0.036l-0.007,0.036l-0.008,0.035l-0.009,0.035l-0.01,0.035l-0.01,0.034l-0.012,0.034l-0.012,0.034l-0.013,0.033l-0.014,0.033l-0.015,0.033l-0.015,0.032l-0.016,0.032l-0.017,0.031l-0.018,0.031l-0.018,0.03l-0.019,0.03l-0.02,0.029l-0.021,0.029l-0.021,0.029l-0.022,0.027l-0.023,0.028l-0.023,0.026l-0.024,0.027l-0.024,0.025l-0.026,0.025l-0.025,0.025l-0.027,0.024l-0.027,0.023l-0.027,0.023l-0.028,0.022l-0.029,0.021l-0.029,0.021l-0.03,0.02l-0.03,0.019l-0.03,0.019l-0.032,0.017l-0.031,0.018l-0.032,0.016l-0.033,0.016l-0.033,0.015l-0.033,0.014l-0.034,0.014l-0.034,0.012l-0.035,0.012l-0.035,0.011l-0.036,0.011l-0.035,0.009l-0.036,0.009l-0.037,0.007l-0.037,0.007l-0.037,0.006l-0.037,0.005l-0.038,0.004l-0.038,0.004l-0.038,0.002l-0.038,0.001l-0.039,0.001l-0.039,-0.001l-0.038,-0.001l-0.038,-0.002l-0.038,-0.004l-0.038,-0.004l-0.037,-0.005l-0.037,-0.006l-0.037,-0.007l-0.037,-0.007l-0.036,-0.009l-0.035,-0.009l-0.036,-0.011l-0.035,-0.011l-0.035,-0.012l-0.034,-0.012l-0.034,-0.014l-0.033,-0.014l-0.033,-0.015l-0.033,-0.016l-0.032,-0.016l-0.031,-0.018l-0.032,-0.017l-0.03,-0.019l-0.03,-0.019l-0.03,-0.02l-0.029,-0.021l-0.029,-0.021l-0.028,-0.022l-0.027,-0.023l-0.027,-0.023l-0.027,-0.024l-0.025,-0.025l-0.026,-0.025l-0.024,-0.025l-0.024,-0.027l-0.023,-0.026l-0.023,-0.028l-0.022,-0.027l-0.021,-0.029l-0.021,-0.029l-0.02,-0.029l-0.019,-0.03l-0.018,-0.03l-0.018,-0.031l-0.017,-0.031l-0.016,-0.032l-0.015,-0.032l-0.015,-0.033l-0.014,-0.033l-0.013,-0.033l-0.012,-0.034l-0.012,-0.034l-0.01,-0.034l-0.01,-0.035l-0.009,-0.035l-0.008,-0.035l-0.007,-0.036l-0.006,-0.036l-0.005,-0.037l-0.004,-0.036l-0.004,-0.037l-0.002,-0.037l-0.002,-0.038l0,-0.037l0,-0.038l0.002,-0.037l0.002,-0.038l0.004,-0.037l0.004,-0.036l0.005,-0.037l0.006,-0.036l0.007,-0.035l0.008,-0.036l0.009,-0.035l0.01,-0.035l0.01,-0.034l0.012,-0.034l0.012,-0.034l0.013,-0.033l0.014,-0.033l0.015,-0.033l0.015,-0.032l0.016,-0.032l0.017,-0.031l0.018,-0.031l0.018,-0.03l0.019,-0.03l0.02,-0.029l0.021,-0.029l0.021,-0.028l0.022,-0.028l0.023,-0.028l0.023,-0.026l0.024,-0.026l0.024,-0.026l0.026,-0.025l0.025,-0.025l0.027,-0.024l0.027,-0.023l0.027,-0.022l0.028,-0.022l0.029,-0.022l0.029,-0.02l0.03,-0.02l0.03,-0.02l0.03,-0.018l0.032,-0.018l0.031,-0.018l0.032,-0.016l0.033,-0.016l0.033,-0.015l0.033,-0.014l0.034,-0.014l0.034,-0.012l0.035,-0.012l0.035,-0.011l0.036,-0.01l0.035,-0.01l0.036,-0.008l0.037,-0.008l0.037,-0.007l0.037,-0.006l0.037,-0.005l0.038,-0.004l0.038,-0.004l0.038,-0.002l0.038,-0.001l0.039,-0.001l0.039,0.001Zm-0.039,1.456l0,0.001l0,0.002l0,0.003l0,0l0,-0.002l0,-0.001l0,-0.002l0,-0.002l0,0l0,0.001Z" style="fill:#fff;"/><path d="M44.289,23.065l0.038,0.001l0.038,0.002l0.038,0.004l0.038,0.004l0.037,0.005l0.037,0.006l0.037,0.007l0.037,0.008l0.036,0.008l0.035,0.01l0.036,0.01l0.035,0.011l0.035,0.012l0.034,0.012l0.034,0.014l0.033,0.014l0.033,0.015l0.033,0.016l0.032,0.016l0.031,0.018l0.032,0.018l0.03,0.018l0.03,0.02l0.03,0.02l0.029,0.02l0.029,0.022l0.028,0.022l0.027,0.022l0.027,0.023l0.027,0.024l0.025,0.025l0.026,0.025l0.024,0.026l0.024,0.026l0.023,0.026l0.023,0.028l0.022,0.028l0.021,0.028l0.021,0.029l0.02,0.029l0.019,0.03l0.018,0.03l0.018,0.031l0.017,0.031l0.016,0.032l0.015,0.032l0.015,0.033l0.014,0.033l0.013,0.033l0.012,0.034l0.012,0.034l0.01,0.034l0.01,0.035l0.009,0.035l0.008,0.036l0.007,0.035l0.006,0.036l0.005,0.037l0.004,0.036l0.004,0.037l0.002,0.038l0.002,0.037l0,0.038l0,0.037l-0.002,0.038l-0.002,0.037l-0.004,0.037l-0.004,0.036l-0.005,0.037l-0.006,0.036l-0.007,0.036l-0.008,0.035l-0.009,0.035l-0.01,0.035l-0.01,0.034l-0.012,0.034l-0.012,0.034l-0.013,0.033l-0.014,0.033l-0.015,0.033l-0.015,0.032l-0.016,0.032l-0.017,0.031l-0.018,0.031l-0.018,0.03l-0.019,0.03l-0.02,0.029l-0.021,0.029l-0.021,0.029l-0.022,0.027l-0.023,0.028l-0.023,0.026l-0.024,0.027l-0.024,0.025l-0.026,0.025l-0.025,0.025l-0.027,0.024l-0.027,0.023l-0.027,0.023l-0.028,0.022l-0.029,0.021l-0.029,0.021l-0.03,0.02l-0.03,0.019l-0.03,0.019l-0.032,0.017l-0.031,0.018l-0.032,0.016l-0.033,0.016l-0.033,0.015l-0.033,0.014l-0.034,0.014l-0.034,0.012l-0.035,0.012l-0.035,0.011l-0.036,0.011l-0.035,0.009l-0.036,0.009l-0.037,0.007l-0.037,0.007l-0.037,0.006l-0.037,0.005l-0.038,0.004l-0.038,0.004l-0.038,0.002l-0.038,0.001l-0.039,0.001l-0.039,-0.001l-0.038,-0.001l-0.038,-0.002l-0.038,-0.004l-0.038,-0.004l-0.037,-0.005l-0.037,-0.006l-0.037,-0.007l-0.037,-0.007l-0.036,-0.009l-0.035,-0.009l-0.036,-0.011l-0.035,-0.011l-0.035,-0.012l-0.034,-0.012l-0.034,-0.014l-0.033,-0.014l-0.033,-0.015l-0.033,-0.016l-0.032,-0.016l-0.031,-0.018l-0.032,-0.017l-0.03,-0.019l-0.03,-0.019l-0.03,-0.02l-0.029,-0.021l-0.029,-0.021l-0.028,-0.022l-0.027,-0.023l-0.027,-0.023l-0.027,-0.024l-0.025,-0.025l-0.026,-0.025l-0.024,-0.025l-0.024,-0.027l-0.023,-0.026l-0.023,-0.028l-0.022,-0.027l-0.021,-0.029l-0.021,-0.029l-0.02,-0.029l-0.019,-0.03l-0.018,-0.03l-0.018,-0.031l-0.017,-0.031l-0.016,-0.032l-0.015,-0.032l-0.015,-0.033l-0.014,-0.033l-0.013,-0.033l-0.012,-0.034l-0.012,-0.034l-0.01,-0.034l-0.01,-0.035l-0.009,-0.035l-0.008,-0.035l-0.007,-0.036l-0.006,-0.036l-0.005,-0.037l-0.004,-0.036l-0.004,-0.037l-0.002,-0.037l-0.002,-0.038l0,-0.037l0,-0.038l0.002,-0.037l0.002,-0.038l0.004,-0.037l0.004,-0.036l0.005,-0.037l0.006,-0.036l0.007,-0.035l0.008,-0.036l0.009,-0.035l0.01,-0.035l0.01,-0.034l0.012,-0.034l0.012,-0.034l0.013,-0.033l0.014,-0.033l0.015,-0.033l0.015,-0.032l0.016,-0.032l0.017,-0.031l0.018,-0.031l0.018,-0.03l0.019,-0.03l0.02,-0.029l0.021,-0.029l0.021,-0.028l0.022,-0.028l0.023,-0.028l0.023,-0.026l0.024,-0.026l0.024,-0.026l0.026,-0.025l0.025,-0.025l0.027,-0.024l0.027,-0.023l0.027,-0.022l0.028,-0.022l0.029,-0.022l0.029,-0.02l0.03,-0.02l0.03,-0.02l0.03,-0.018l0.032,-0.018l0.031,-0.018l0.032,-0.016l0.033,-0.016l0.033,-0.015l0.033,-0.014l0.034,-0.014l0.034,-0.012l0.035,-0.012l0.035,-0.011l0.036,-0.01l0.035,-0.01l0.036,-0.008l0.037,-0.008l0.037,-0.007l0.037,-0.006l0.037,-0.005l0.038,-0.004l0.038,-0.004l0.038,-0.002l0.038,-0.001l0.039,-0.001l0.039,0.001Zm-0.039,1.456l0,0.001l0,0.002l0,0.003l0,0l0,-0.002l0,-0.001l0,-0.002l0,-0.001l0,-0.001l0,0.001Z" style="fill:#fff;"/></g><g><path d="M90.039,23.065l0.038,0.001l0.038,0.002l0.038,0.004l0.038,0.004l0.037,0.005l0.037,0.006l0.037,0.007l0.037,0.008l0.036,0.008l0.035,0.01l0.036,0.01l0.035,0.011l0.035,0.012l0.034,0.012l0.034,0.014l0.033,0.014l0.033,0.015l0.033,0.016l0.032,0.016l0.031,0.018l0.032,0.018l0.03,0.018l0.03,0.02l0.03,0.02l0.029,0.02l0.029,0.022l0.028,0.022l0.027,0.022l0.027,0.023l0.027,0.024l0.025,0.025l0.026,0.025l0.024,0.026l0.024,0.026l0.023,0.026l0.023,0.028l0.022,0.028l0.021,0.028l0.021,0.029l0.02,0.029l0.019,0.03l0.018,0.03l0.018,0.031l0.017,0.031l0.016,0.032l0.015,0.032l0.015,0.033l0.014,0.033l0.013,0.033l0.012,0.034l0.012,0.034l0.01,0.034l0.01,0.035l0.009,0.035l0.008,0.036l0.007,0.035l0.006,0.036l0.005,0.037l0.004,0.036l0.004,0.037l0.002,0.038l0.002,0.037l0,0.038l0,0.037l-0.002,0.038l-0.002,0.037l-0.004,0.037l-0.004,0.036l-0.005,0.037l-0.006,0.036l-0.007,0.036l-0.008,0.035l-0.009,0.035l-0.01,0.035l-0.01,0.034l-0.012,0.034l-0.012,0.034l-0.013,0.033l-0.014,0.033l-0.015,0.033l-0.015,0.032l-0.016,0.032l-0.017,0.031l-0.018,0.031l-0.018,0.03l-0.019,0.03l-0.02,0.029l-0.021,0.029l-0.021,0.029l-0.022,0.027l-0.023,0.028l-0.023,0.026l-0.024,0.027l-0.024,0.025l-0.026,0.025l-0.025,0.025l-0.027,0.024l-0.027,0.023l-0.027,0.023l-0.028,0.022l-0.029,0.021l-0.029,0.021l-0.03,0.02l-0.03,0.019l-0.03,0.019l-0.032,0.017l-0.031,0.018l-0.032,0.016l-0.033,0.016l-0.033,0.015l-0.033,0.014l-0.034,0.014l-0.034,0.012l-0.035,0.012l-0.035,0.011l-0.036,0.011l-0.035,0.009l-0.036,0.009l-0.037,0.007l-0.037,0.007l-0.037,0.006l-0.037,0.005l-0.038,0.004l-0.038,0.004l-0.038,0.002l-0.038,0.001l-0.039,0.001l-0.039,-0.001l-0.038,-0.001l-0.038,-0.002l-0.038,-0.004l-0.038,-0.004l-0.037,-0.005l-0.037,-0.006l-0.037,-0.007l-0.037,-0.007l-0.036,-0.009l-0.035,-0.009l-0.036,-0.011l-0.035,-0.011l-0.035,-0.012l-0.034,-0.012l-0.034,-0.014l-0.033,-0.014l-0.033,-0.015l-0.033,-0.016l-0.032,-0.016l-0.031,-0.018l-0.032,-0.017l-0.03,-0.019l-0.03,-0.019l-0.03,-0.02l-0.029,-0.021l-0.029,-0.021l-0.028,-0.022l-0.027,-0.023l-0.027,-0.023l-0.027,-0.024l-0.025,-0.025l-0.026,-0.025l-0.024,-0.025l-0.024,-0.027l-0.023,-0.026l-0.023,-0.028l-0.022,-0.027l-0.021,-0.029l-0.021,-0.029l-0.02,-0.029l-0.019,-0.03l-0.018,-0.03l-0.018,-0.031l-0.017,-0.031l-0.016,-0.032l-0.015,-0.032l-0.015,-0.033l-0.014,-0.033l-0.013,-0.033l-0.012,-0.034l-0.012,-0.034l-0.01,-0.034l-0.01,-0.035l-0.009,-0.035l-0.008,-0.035l-0.007,-0.036l-0.006,-0.036l-0.005,-0.037l-0.004,-0.036l-0.004,-0.037l-0.002,-0.037l-0.002,-0.038l0,-0.037l0,-0.038l0.002,-0.037l0.002,-0.038l0.004,-0.037l0.004,-0.036l0.005,-0.037l0.006,-0.036l0.007,-0.035l0.008,-0.036l0.009,-0.035l0.01,-0.035l0.01,-0.034l0.012,-0.034l0.012,-0.034l0.013,-0.033l0.014,-0.033l0.015,-0.033l0.015,-0.032l0.016,-0.032l0.017,-0.031l0.018,-0.031l0.018,-0.03l0.019,-0.03l0.02,-0.029l0.021,-0.029l0.021,-0.028l0.022,-0.028l0.023,-0.028l0.023,-0.026l0.024,-0.026l0.024,-0.026l0.026,-0.025l0.025,-0.025l0.027,-0.024l0.027,-0.023l0.027,-0.022l0.028,-0.022l0.029,-0.022l0.029,-0.02l0.03,-0.02l0.03,-0.02l0.03,-0.018l0.032,-0.018l0.031,-0.018l0.032,-0.016l0.033,-0.016l0.033,-0.015l0.033,-0.014l0.034,-0.014l0.034,-0.012l0.035,-0.012l0.035,-0.011l0.036,-0.01l0.035,-0.01l0.036,-0.008l0.037,-0.008l0.037,-0.007l0.037,-0.006l0.037,-0.005l0.038,-0.004l0.038,-0.004l0.038,-0.002l0.038,-0.001l0.039,-0.001l0.039,0.001Zm-0.039,1.455l0,0.002l0,0.002l0,0.003l0,0l0,-0.002l0,-0.001l0,-0.002l0,-0.002l0,0l0,0Z" style="fill:#fff;"/><path d="M94.539,23.065l0.038,0.001l0.038,0.002l0.038,0.004l0.038,0.004l0.037,0.005l0.037,0.006l0.037,0.007l0.037,0.008l0.036,0.008l0.035,0.01l0.036,0.01l0.035,0.011l0.035,0.012l0.034,0.012l0.034,0.014l0.033,0.014l0.033,0.015l0.033,0.016l0.032,0.016l0.031,0.018l0.032,0.018l0.03,0.018l0.03,0.02l0.03,0.02l0.029,0.02l0.029,0.022l0.028,0.022l0.027,0.022l0.027,0.023l0.027,0.024l0.025,0.025l0.026,0.025l0.024,0.026l0.024,0.026l0.023,0.026l0.023,0.028l0.022,0.028l0.021,0.028l0.021,0.029l0.02,0.029l0.019,0.03l0.018,0.03l0.018,0.031l0.017,0.031l0.016,0.032l0.015,0.032l0.015,0.033l0.014,0.033l0.013,0.033l0.012,0.034l0.012,0.034l0.01,0.034l0.01,0.035l0.009,0.035l0.008,0.036l0.007,0.035l0.006,0.036l0.005,0.037l0.004,0.036l0.004,0.037l0.002,0.038l0.002,0.037l0,0.038l0,0.037l-0.002,0.038l-0.002,0.037l-0.004,0.037l-0.004,0.036l-0.005,0.037l-0.006,0.036l-0.007,0.036l-0.008,0.035l-0.009,0.035l-0.01,0.035l-0.01,0.034l-0.012,0.034l-0.012,0.034l-0.013,0.033l-0.014,0.033l-0.015,0.033l-0.015,0.032l-0.016,0.032l-0.017,0.031l-0.018,0.031l-0.018,0.03l-0.019,0.03l-0.02,0.029l-0.021,0.029l-0.021,0.029l-0.022,0.027l-0.023,0.028l-0.023,0.026l-0.024,0.027l-0.024,0.025l-0.026,0.025l-0.025,0.025l-0.027,0.024l-0.027,0.023l-0.027,0.023l-0.028,0.022l-0.029,0.021l-0.029,0.021l-0.03,0.02l-0.03,0.019l-0.03,0.019l-0.032,0.017l-0.031,0.018l-0.032,0.016l-0.033,0.016l-0.033,0.015l-0.033,0.014l-0.034,0.014l-0.034,0.012l-0.035,0.012l-0.035,0.011l-0.036,0.011l-0.035,0.009l-0.036,0.009l-0.037,0.007l-0.037,0.007l-0.037,0.006l-0.037,0.005l-0.038,0.004l-0.038,0.004l-0.038,0.002l-0.038,0.001l-0.039,0.001l-0.039,-0.001l-0.038,-0.001l-0.038,-0.002l-0.038,-0.004l-0.038,-0.004l-0.037,-0.005l-0.037,-0.006l-0.037,-0.007l-0.037,-0.007l-0.036,-0.009l-0.035,-0.009l-0.036,-0.011l-0.035,-0.011l-0.035,-0.012l-0.034,-0.012l-0.034,-0.014l-0.033,-0.014l-0.033,-0.015l-0.033,-0.016l-0.032,-0.016l-0.031,-0.018l-0.032,-0.017l-0.03,-0.019l-0.03,-0.019l-0.03,-0.02l-0.029,-0.021l-0.029,-0.021l-0.028,-0.022l-0.027,-0.023l-0.027,-0.023l-0.027,-0.024l-0.025,-0.025l-0.026,-0.025l-0.024,-0.025l-0.024,-0.027l-0.023,-0.026l-0.023,-0.028l-0.022,-0.027l-0.021,-0.029l-0.021,-0.029l-0.02,-0.029l-0.019,-0.03l-0.018,-0.03l-0.018,-0.031l-0.017,-0.031l-0.016,-0.032l-0.015,-0.032l-0.015,-0.033l-0.014,-0.033l-0.013,-0.033l-0.012,-0.034l-0.012,-0.034l-0.01,-0.034l-0.01,-0.035l-0.009,-0.035l-0.008,-0.035l-0.007,-0.036l-0.006,-0.036l-0.005,-0.037l-0.004,-0.036l-0.004,-0.037l-0.002,-0.037l-0.002,-0.038l0,-0.037l0,-0.038l0.002,-0.037l0.002,-0.038l0.004,-0.037l0.004,-0.036l0.005,-0.037l0.006,-0.036l0.007,-0.035l0.008,-0.036l0.009,-0.035l0.01,-0.035l0.01,-0.034l0.012,-0.034l0.012,-0.034l0.013,-0.033l0.014,-0.033l0.015,-0.033l0.015,-0.032l0.016,-0.032l0.017,-0.031l0.018,-0.031l0.018,-0.03l0.019,-0.03l0.02,-0.029l0.021,-0.029l0.021,-0.028l0.022,-0.028l0.023,-0.028l0.023,-0.026l0.024,-0.026l0.024,-0.026l0.026,-0.025l0.025,-0.025l0.027,-0.024l0.027,-0.023l0.027,-0.022l0.028,-0.022l0.029,-0.022l0.029,-0.02l0.03,-0.02l0.03,-0.02l0.03,-0.018l0.032,-0.018l0.031,-0.018l0.032,-0.016l0.033,-0.016l0.033,-0.015l0.033,-0.014l0.034,-0.014l0.034,-0.012l0.035,-0.012l0.035,-0.011l0.036,-0.01l0.035,-0.01l0.036,-0.008l0.037,-0.008l0.037,-0.007l0.037,-0.006l0.037,-0.005l0.038,-0.004l0.038,-0.004l0.038,-0.002l0.038,-0.001l0.039,-0.001l0.039,0.001Zm-0.039,1.455l0,0.002l0,0.002l0,0.003l0,0l0,-0.002l0,-0.001l0,-0.002l0,-0.002l0,0l0,0Z" style="fill:#fff;"/><path d="M99.039,23.065l0.038,0.001l0.038,0.002l0.038,0.004l0.038,0.004l0.037,0.005l0.037,0.006l0.037,0.007l0.037,0.008l0.036,0.008l0.035,0.01l0.036,0.01l0.035,0.011l0.035,0.012l0.034,0.012l0.034,0.014l0.033,0.014l0.033,0.015l0.033,0.016l0.032,0.016l0.031,0.018l0.032,0.018l0.03,0.018l0.03,0.02l0.03,0.02l0.029,0.02l0.029,0.022l0.028,0.022l0.027,0.022l0.027,0.023l0.027,0.024l0.025,0.025l0.026,0.025l0.024,0.026l0.024,0.026l0.023,0.026l0.023,0.028l0.022,0.028l0.021,0.028l0.021,0.029l0.02,0.029l0.019,0.03l0.018,0.03l0.018,0.031l0.017,0.031l0.016,0.032l0.015,0.032l0.015,0.033l0.014,0.033l0.013,0.033l0.012,0.034l0.012,0.034l0.01,0.034l0.01,0.035l0.009,0.035l0.008,0.036l0.007,0.035l0.006,0.036l0.005,0.037l0.004,0.036l0.004,0.037l0.002,0.038l0.002,0.037l0,0.038l0,0.037l-0.002,0.038l-0.002,0.037l-0.004,0.037l-0.004,0.036l-0.005,0.037l-0.006,0.036l-0.007,0.036l-0.008,0.035l-0.009,0.035l-0.01,0.035l-0.01,0.034l-0.012,0.034l-0.012,0.034l-0.013,0.033l-0.014,0.033l-0.015,0.033l-0.015,0.032l-0.016,0.032l-0.017,0.031l-0.018,0.031l-0.018,0.03l-0.019,0.03l-0.02,0.029l-0.021,0.029l-0.021,0.029l-0.022,0.027l-0.023,0.028l-0.023,0.026l-0.024,0.027l-0.024,0.025l-0.026,0.025l-0.025,0.025l-0.027,0.024l-0.027,0.023l-0.027,0.023l-0.028,0.022l-0.029,0.021l-0.029,0.021l-0.03,0.02l-0.03,0.019l-0.03,0.019l-0.032,0.017l-0.031,0.018l-0.032,0.016l-0.033,0.016l-0.033,0.015l-0.033,0.014l-0.034,0.014l-0.034,0.012l-0.035,0.012l-0.035,0.011l-0.036,0.011l-0.035,0.009l-0.036,0.009l-0.037,0.007l-0.037,0.007l-0.037,0.006l-0.037,0.005l-0.038,0.004l-0.038,0.004l-0.038,0.002l-0.038,0.001l-0.039,0.001l-0.039,-0.001l-0.038,-0.001l-0.038,-0.002l-0.038,-0.004l-0.038,-0.004l-0.037,-0.005l-0.037,-0.006l-0.037,-0.007l-0.037,-0.007l-0.036,-0.009l-0.035,-0.009l-0.036,-0.011l-0.035,-0.011l-0.035,-0.012l-0.034,-0.012l-0.034,-0.014l-0.033,-0.014l-0.033,-0.015l-0.033,-0.016l-0.032,-0.016l-0.031,-0.018l-0.032,-0.017l-0.03,-0.019l-0.03,-0.019l-0.03,-0.02l-0.029,-0.021l-0.029,-0.021l-0.028,-0.022l-0.027,-0.023l-0.027,-0.023l-0.027,-0.024l-0.025,-0.025l-0.026,-0.025l-0.024,-0.025l-0.024,-0.027l-0.023,-0.026l-0.023,-0.028l-0.022,-0.027l-0.021,-0.029l-0.021,-0.029l-0.02,-0.029l-0.019,-0.03l-0.018,-0.03l-0.018,-0.031l-0.017,-0.031l-0.016,-0.032l-0.015,-0.032l-0.015,-0.033l-0.014,-0.033l-0.013,-0.033l-0.012,-0.034l-0.012,-0.034l-0.01,-0.034l-0.01,-0.035l-0.009,-0.035l-0.008,-0.035l-0.007,-0.036l-0.006,-0.036l-0.005,-0.037l-0.004,-0.036l-0.004,-0.037l-0.002,-0.037l-0.002,-0.038l0,-0.037l0,-0.038l0.002,-0.037l0.002,-0.038l0.004,-0.037l0.004,-0.036l0.005,-0.037l0.006,-0.036l0.007,-0.035l0.008,-0.036l0.009,-0.035l0.01,-0.035l0.01,-0.034l0.012,-0.034l0.012,-0.034l0.013,-0.033l0.014,-0.033l0.015,-0.033l0.015,-0.032l0.016,-0.032l0.017,-0.031l0.018,-0.031l0.018,-0.03l0.019,-0.03l0.02,-0.029l0.021,-0.029l0.021,-0.028l0.022,-0.028l0.023,-0.028l0.023,-0.026l0.024,-0.026l0.024,-0.026l0.026,-0.025l0.025,-0.025l0.027,-0.024l0.027,-0.023l0.027,-0.022l0.028,-0.022l0.029,-0.022l0.029,-0.02l0.03,-0.02l0.03,-0.02l0.03,-0.018l0.032,-0.018l0.031,-0.018l0.032,-0.016l0.033,-0.016l0.033,-0.015l0.033,-0.014l0.034,-0.014l0.034,-0.012l0.035,-0.012l0.035,-0.011l0.036,-0.01l0.035,-0.01l0.036,-0.008l0.037,-0.008l0.037,-0.007l0.037,-0.006l0.037,-0.005l0.038,-0.004l0.038,-0.004l0.038,-0.002l0.038,-0.001l0.039,-0.001l0.039,0.001Zm-0.039,1.455l0,0.002l0,0.002l0,0.003l0,0l0,-0.002l0,-0.001l0,-0.002l0,-0.002l0,0l0,0Z" style="fill:#fff;"/></g><g><path d="M201.039,23.065l0.038,0.001l0.038,0.002l0.038,0.004l0.038,0.004l0.037,0.005l0.037,0.006l0.037,0.007l0.037,0.008l0.036,0.008l0.035,0.01l0.036,0.01l0.035,0.011l0.035,0.012l0.034,0.012l0.034,0.014l0.033,0.014l0.033,0.015l0.033,0.016l0.032,0.016l0.031,0.018l0.032,0.018l0.03,0.018l0.03,0.02l0.03,0.02l0.029,0.02l0.029,0.022l0.028,0.022l0.027,0.022l0.027,0.023l0.027,0.024l0.025,0.025l0.026,0.025l0.024,0.026l0.024,0.026l0.023,0.026l0.023,0.028l0.022,0.028l0.021,0.028l0.021,0.029l0.02,0.029l0.019,0.03l0.018,0.03l0.018,0.031l0.017,0.031l0.016,0.032l0.015,0.032l0.015,0.033l0.014,0.033l0.013,0.033l0.012,0.034l0.012,0.034l0.01,0.034l0.01,0.035l0.009,0.035l0.008,0.036l0.007,0.035l0.006,0.036l0.005,0.037l0.004,0.036l0.004,0.037l0.002,0.038l0.002,0.037l0,0.038l0,0.037l-0.002,0.038l-0.002,0.037l-0.004,0.037l-0.004,0.036l-0.005,0.037l-0.006,0.036l-0.007,0.036l-0.008,0.035l-0.009,0.035l-0.01,0.035l-0.01,0.034l-0.012,0.034l-0.012,0.034l-0.013,0.033l-0.014,0.033l-0.015,0.033l-0.015,0.032l-0.016,0.032l-0.017,0.031l-0.018,0.031l-0.018,0.03l-0.019,0.03l-0.02,0.029l-0.021,0.029l-0.021,0.029l-0.022,0.027l-0.023,0.028l-0.023,0.026l-0.024,0.027l-0.024,0.025l-0.026,0.025l-0.025,0.025l-0.027,0.024l-0.027,0.023l-0.027,0.023l-0.028,0.022l-0.029,0.021l-0.029,0.021l-0.03,0.02l-0.03,0.019l-0.03,0.019l-0.032,0.017l-0.031,0.018l-0.032,0.016l-0.033,0.016l-0.033,0.015l-0.033,0.014l-0.034,0.014l-0.034,0.012l-0.035,0.012l-0.035,0.011l-0.036,0.011l-0.035,0.009l-0.036,0.009l-0.037,0.007l-0.037,0.007l-0.037,0.006l-0.037,0.005l-0.038,0.004l-0.038,0.004l-0.038,0.002l-0.038,0.001l-0.039,0.001l-0.039,-0.001l-0.038,-0.001l-0.038,-0.002l-0.038,-0.004l-0.038,-0.004l-0.037,-0.005l-0.037,-0.006l-0.037,-0.007l-0.037,-0.007l-0.036,-0.009l-0.035,-0.009l-0.036,-0.011l-0.035,-0.011l-0.035,-0.012l-0.034,-0.012l-0.034,-0.014l-0.033,-0.014l-0.033,-0.015l-0.033,-0.016l-0.032,-0.016l-0.031,-0.018l-0.032,-0.017l-0.03,-0.019l-0.03,-0.019l-0.03,-0.02l-0.029,-0.021l-0.029,-0.021l-0.028,-0.022l-0.027,-0.023l-0.027,-0.023l-0.027,-0.024l-0.025,-0.025l-0.026,-0.025l-0.024,-0.025l-0.024,-0.027l-0.023,-0.026l-0.023,-0.028l-0.022,-0.027l-0.021,-0.029l-0.021,-0.029l-0.02,-0.029l-0.019,-0.03l-0.018,-0.03l-0.018,-0.031l-0.017,-0.031l-0.016,-0.032l-0.015,-0.032l-0.015,-0.033l-0.014,-0.033l-0.013,-0.033l-0.012,-0.034l-0.012,-0.034l-0.01,-0.034l-0.01,-0.035l-0.009,-0.035l-0.008,-0.035l-0.007,-0.036l-0.006,-0.036l-0.005,-0.037l-0.004,-0.036l-0.004,-0.037l-0.002,-0.037l-0.002,-0.038l0,-0.037l0,-0.038l0.002,-0.037l0.002,-0.038l0.004,-0.037l0.004,-0.036l0.005,-0.037l0.006,-0.036l0.007,-0.035l0.008,-0.036l0.009,-0.035l0.01,-0.035l0.01,-0.034l0.012,-0.034l0.012,-0.034l0.013,-0.033l0.014,-0.033l0.015,-0.033l0.015,-0.032l0.016,-0.032l0.017,-0.031l0.018,-0.031l0.018,-0.03l0.019,-0.03l0.02,-0.029l0.021,-0.029l0.021,-0.028l0.022,-0.028l0.023,-0.028l0.023,-0.026l0.024,-0.026l0.024,-0.026l0.026,-0.025l0.025,-0.025l0.027,-0.024l0.027,-0.023l0.027,-0.022l0.028,-0.022l0.029,-0.022l0.029,-0.02l0.03,-0.02l0.03,-0.02l0.03,-0.018l0.032,-0.018l0.031,-0.018l0.032,-0.016l0.033,-0.016l0.033,-0.015l0.033,-0.014l0.034,-0.014l0.034,-0.012l0.035,-0.012l0.035,-0.011l0.036,-0.01l0.035,-0.01l0.036,-0.008l0.037,-0.008l0.037,-0.007l0.037,-0.006l0.037,-0.005l0.038,-0.004l0.038,-0.004l0.038,-0.002l0.038,-0.001l0.039,-0.001l0.039,0.001Zm-0.039,1.456l0,0.001l0,0.002l0,0.003l0,0l0,-0.002l0,-0.001l0,-0.002l0,-0.001l0,-0.001l0,0.001Z" style="fill:#fff;"/><path d="M205.539,23.065l0.038,0.001l0.038,0.002l0.038,0.004l0.038,0.004l0.037,0.005l0.037,0.006l0.037,0.007l0.037,0.008l0.036,0.008l0.035,0.01l0.036,0.01l0.035,0.011l0.035,0.012l0.034,0.012l0.034,0.014l0.033,0.014l0.033,0.015l0.033,0.016l0.032,0.016l0.031,0.018l0.032,0.018l0.03,0.018l0.03,0.02l0.03,0.02l0.029,0.02l0.029,0.022l0.028,0.022l0.027,0.022l0.027,0.023l0.027,0.024l0.025,0.025l0.026,0.025l0.024,0.026l0.024,0.026l0.023,0.026l0.023,0.028l0.022,0.028l0.021,0.028l0.021,0.029l0.02,0.029l0.019,0.03l0.018,0.03l0.018,0.031l0.017,0.031l0.016,0.032l0.015,0.032l0.015,0.033l0.014,0.033l0.013,0.033l0.012,0.034l0.012,0.034l0.01,0.034l0.01,0.035l0.009,0.035l0.008,0.036l0.007,0.035l0.006,0.036l0.005,0.037l0.004,0.036l0.004,0.037l0.002,0.038l0.002,0.037l0,0.038l0,0.037l-0.002,0.038l-0.002,0.037l-0.004,0.037l-0.004,0.036l-0.005,0.037l-0.006,0.036l-0.007,0.036l-0.008,0.035l-0.009,0.035l-0.01,0.035l-0.01,0.034l-0.012,0.034l-0.012,0.034l-0.013,0.033l-0.014,0.033l-0.015,0.033l-0.015,0.032l-0.016,0.032l-0.017,0.031l-0.018,0.031l-0.018,0.03l-0.019,0.03l-0.02,0.029l-0.021,0.029l-0.021,0.029l-0.022,0.027l-0.023,0.028l-0.023,0.026l-0.024,0.027l-0.024,0.025l-0.026,0.025l-0.025,0.025l-0.027,0.024l-0.027,0.023l-0.027,0.023l-0.028,0.022l-0.029,0.021l-0.029,0.021l-0.03,0.02l-0.03,0.019l-0.03,0.019l-0.032,0.017l-0.031,0.018l-0.032,0.016l-0.033,0.016l-0.033,0.015l-0.033,0.014l-0.034,0.014l-0.034,0.012l-0.035,0.012l-0.035,0.011l-0.036,0.011l-0.035,0.009l-0.036,0.009l-0.037,0.007l-0.037,0.007l-0.037,0.006l-0.037,0.005l-0.038,0.004l-0.038,0.004l-0.038,0.002l-0.038,0.001l-0.039,0.001l-0.039,-0.001l-0.038,-0.001l-0.038,-0.002l-0.038,-0.004l-0.038,-0.004l-0.037,-0.005l-0.037,-0.006l-0.037,-0.007l-0.037,-0.007l-0.036,-0.009l-0.035,-0.009l-0.036,-0.011l-0.035,-0.011l-0.035,-0.012l-0.034,-0.012l-0.034,-0.014l-0.033,-0.014l-0.033,-0.015l-0.033,-0.016l-0.032,-0.016l-0.031,-0.018l-0.032,-0.017l-0.03,-0.019l-0.03,-0.019l-0.03,-0.02l-0.029,-0.021l-0.029,-0.021l-0.028,-0.022l-0.027,-0.023l-0.027,-0.023l-0.027,-0.024l-0.025,-0.025l-0.026,-0.025l-0.024,-0.025l-0.024,-0.027l-0.023,-0.026l-0.023,-0.028l-0.022,-0.027l-0.021,-0.029l-0.021,-0.029l-0.02,-0.029l-0.019,-0.03l-0.018,-0.03l-0.018,-0.031l-0.017,-0.031l-0.016,-0.032l-0.015,-0.032l-0.015,-0.033l-0.014,-0.033l-0.013,-0.033l-0.012,-0.034l-0.012,-0.034l-0.01,-0.034l-0.01,-0.035l-0.009,-0.035l-0.008,-0.035l-0.007,-0.036l-0.006,-0.036l-0.005,-0.037l-0.004,-0.036l-0.004,-0.037l-0.002,-0.037l-0.002,-0.038l0,-0.037l0,-0.038l0.002,-0.037l0.002,-0.038l0.004,-0.037l0.004,-0.036l0.005,-0.037l0.006,-0.036l0.007,-0.035l0.008,-0.036l0.009,-0.035l0.01,-0.035l0.01,-0.034l0.012,-0.034l0.012,-0.034l0.013,-0.033l0.014,-0.033l0.015,-0.033l0.015,-0.032l0.016,-0.032l0.017,-0.031l0.018,-0.031l0.018,-0.03l0.019,-0.03l0.02,-0.029l0.021,-0.029l0.021,-0.028l0.022,-0.028l0.023,-0.028l0.023,-0.026l0.024,-0.026l0.024,-0.026l0.026,-0.025l0.025,-0.025l0.027,-0.024l0.027,-0.023l0.027,-0.022l0.028,-0.022l0.029,-0.022l0.029,-0.02l0.03,-0.02l0.03,-0.02l0.03,-0.018l0.032,-0.018l0.031,-0.018l0.032,-0.016l0.033,-0.016l0.033,-0.015l0.033,-0.014l0.034,-0.014l0.034,-0.012l0.035,-0.012l0.035,-0.011l0.036,-0.01l0.035,-0.01l0.036,-0.008l0.037,-0.008l0.037,-0.007l0.037,-0.006l0.037,-0.005l0.038,-0.004l0.038,-0.004l0.038,-0.002l0.038,-0.001l0.039,-0.001l0.039,0.001Zm-0.039,1.456l0,0.001l0,0.002l0,0.003l0,0l0,-0.002l0,-0.001l0,-0.002l0,-0.001l0,-0.001l0,0.001Z" style="fill:#fff;"/><path d="M210.039,23.065l0.038,0.001l0.038,0.002l0.038,0.004l0.038,0.004l0.037,0.005l0.037,0.006l0.037,0.007l0.037,0.008l0.036,0.008l0.035,0.01l0.036,0.01l0.035,0.011l0.035,0.012l0.034,0.012l0.034,0.014l0.033,0.014l0.033,0.015l0.033,0.016l0.032,0.016l0.031,0.018l0.032,0.018l0.03,0.018l0.03,0.02l0.03,0.02l0.029,0.02l0.029,0.022l0.028,0.022l0.027,0.022l0.027,0.023l0.027,0.024l0.025,0.025l0.026,0.025l0.024,0.026l0.024,0.026l0.023,0.026l0.023,0.028l0.022,0.028l0.021,0.028l0.021,0.029l0.02,0.029l0.019,0.03l0.018,0.03l0.018,0.031l0.017,0.031l0.016,0.032l0.015,0.032l0.015,0.033l0.014,0.033l0.013,0.033l0.012,0.034l0.012,0.034l0.01,0.034l0.01,0.035l0.009,0.035l0.008,0.036l0.007,0.035l0.006,0.036l0.005,0.037l0.004,0.036l0.004,0.037l0.002,0.038l0.002,0.037l0,0.038l0,0.037l-0.002,0.038l-0.002,0.037l-0.004,0.037l-0.004,0.036l-0.005,0.037l-0.006,0.036l-0.007,0.036l-0.008,0.035l-0.009,0.035l-0.01,0.035l-0.01,0.034l-0.012,0.034l-0.012,0.034l-0.013,0.033l-0.014,0.033l-0.015,0.033l-0.015,0.032l-0.016,0.032l-0.017,0.031l-0.018,0.031l-0.018,0.03l-0.019,0.03l-0.02,0.029l-0.021,0.029l-0.021,0.029l-0.022,0.027l-0.023,0.028l-0.023,0.026l-0.024,0.027l-0.024,0.025l-0.026,0.025l-0.025,0.025l-0.027,0.024l-0.027,0.023l-0.027,0.023l-0.028,0.022l-0.029,0.021l-0.029,0.021l-0.03,0.02l-0.03,0.019l-0.03,0.019l-0.032,0.017l-0.031,0.018l-0.032,0.016l-0.033,0.016l-0.033,0.015l-0.033,0.014l-0.034,0.014l-0.034,0.012l-0.035,0.012l-0.035,0.011l-0.036,0.011l-0.035,0.009l-0.036,0.009l-0.037,0.007l-0.037,0.007l-0.037,0.006l-0.037,0.005l-0.038,0.004l-0.038,0.004l-0.038,0.002l-0.038,0.001l-0.039,0.001l-0.039,-0.001l-0.038,-0.001l-0.038,-0.002l-0.038,-0.004l-0.038,-0.004l-0.037,-0.005l-0.037,-0.006l-0.037,-0.007l-0.037,-0.007l-0.036,-0.009l-0.035,-0.009l-0.036,-0.011l-0.035,-0.011l-0.035,-0.012l-0.034,-0.012l-0.034,-0.014l-0.033,-0.014l-0.033,-0.015l-0.033,-0.016l-0.032,-0.016l-0.031,-0.018l-0.032,-0.017l-0.03,-0.019l-0.03,-0.019l-0.03,-0.02l-0.029,-0.021l-0.029,-0.021l-0.028,-0.022l-0.027,-0.023l-0.027,-0.023l-0.027,-0.024l-0.025,-0.025l-0.026,-0.025l-0.024,-0.025l-0.024,-0.027l-0.023,-0.026l-0.023,-0.028l-0.022,-0.027l-0.021,-0.029l-0.021,-0.029l-0.02,-0.029l-0.019,-0.03l-0.018,-0.03l-0.018,-0.031l-0.017,-0.031l-0.016,-0.032l-0.015,-0.032l-0.015,-0.033l-0.014,-0.033l-0.013,-0.033l-0.012,-0.034l-0.012,-0.034l-0.01,-0.034l-0.01,-0.035l-0.009,-0.035l-0.008,-0.035l-0.007,-0.036l-0.006,-0.036l-0.005,-0.037l-0.004,-0.036l-0.004,-0.037l-0.002,-0.037l-0.002,-0.038l0,-0.037l0,-0.038l0.002,-0.037l0.002,-0.038l0.004,-0.037l0.004,-0.036l0.005,-0.037l0.006,-0.036l0.007,-0.035l0.008,-0.036l0.009,-0.035l0.01,-0.035l0.01,-0.034l0.012,-0.034l0.012,-0.034l0.013,-0.033l0.014,-0.033l0.015,-0.033l0.015,-0.032l0.016,-0.032l0.017,-0.031l0.018,-0.031l0.018,-0.03l0.019,-0.03l0.02,-0.029l0.021,-0.029l0.021,-0.028l0.022,-0.028l0.023,-0.028l0.023,-0.026l0.024,-0.026l0.024,-0.026l0.026,-0.025l0.025,-0.025l0.027,-0.024l0.027,-0.023l0.027,-0.022l0.028,-0.022l0.029,-0.022l0.029,-0.02l0.03,-0.02l0.03,-0.02l0.03,-0.018l0.032,-0.018l0.031,-0.018l0.032,-0.016l0.033,-0.016l0.033,-0.015l0.033,-0.014l0.034,-0.014l0.034,-0.012l0.035,-0.012l0.035,-0.011l0.036,-0.01l0.035,-0.01l0.036,-0.008l0.037,-0.008l0.037,-0.007l0.037,-0.006l0.037,-0.005l0.038,-0.004l0.038,-0.004l0.038,-0.002l0.038,-0.001l0.039,-0.001l0.039,0.001Zm-0.039,1.456l0,0.001l0,0.002l0,0.003l0,0l0,-0.002l0,-0.001l0,-0.002l0,-0.001l0,-0.001l0,0.001Z" style="fill:#fff;"/></g></svg>