<?xml version="1.0" encoding="UTF-8" standalone="no"?><!DOCTYPE svg PUBLIC "-//W3C//DTD SVG 1.1//EN" "http://www.w3.org/Graphics/SVG/1.1/DTD/svg11.dtd"><svg width="100%" height="100%" viewBox="0 0 263 45" version="1.1" xmlns="http://www.w3.org/2000/svg" xmlns:xlink="http://www.w3.org/1999/xlink" xml:space="preserve" xmlns:serif="http://www.serif.com/" style="fill-rule:evenodd;clip-rule:evenodd;stroke-linecap:round;stroke-linejoin:round;stroke-miterlimit:1.5;"><rect x="0" y="0" width="262.5" height="45" style="fill:#008ebd;"/><path d="M242.063,10.219c-0.001,-0.513 -1.113,-0.929 -2.484,-0.929l-216.658,0c-1.371,0 -2.483,0.416 -2.483,0.929l0,24.562c0,0.513 1.112,0.929 2.483,0.929l216.658,0c1.371,0 2.483,-0.416 2.483,-0.929l0,-24.562Z" style="fill:none;stroke:#fff;stroke-width:0.98px;"/><g><path d="M76.577,16.697c0,-0.242 -0.196,-0.438 -0.438,-0.438l-47.558,0c-0.241,0 -0.438,0.196 -0.438,0.438l0,11.593c0,0.241 0.197,0.438 0.438,0.438l47.558,0c0.242,0 0.438,-0.197 0.438,-0.438l0,-11.593Z" style="fill:none;stroke:#fff;stroke-width:1.3px;"/><g><path d="M73.552,22.078l-3.669,0l1.834,-2.446l1.835,2.446Z" style="fill:#fff;"/><path d="M71.717,25.355l-1.834,-2.447l3.669,0l-1.835,2.447Z" style="fill:#fff;"/></g><g><path d="M33.469,22.5l0.039,0.001l0.038,0.002l0.078,0.008l0.038,0.005l0.037,0.006l0.038,0.008l0.038,0.008l0.036,0.008l0.036,0.01l0.037,0.01l0.035,0.011l0.036,0.013l0.035,0.012l0.034,0.014l0.034,0.014l0.034,0.016l0.033,0.016l0.033,0.016l0.031,0.019l0.033,0.018l0.031,0.018l0.061,0.041l0.029,0.02l0.03,0.023l0.028,0.022l0.028,0.023l0.027,0.023l0.028,0.025l0.025,0.025l0.027,0.026l0.049,0.053l0.023,0.026l0.024,0.029l0.022,0.028l0.022,0.029l0.021,0.029l0.02,0.03l0.02,0.03l0.018,0.031l0.018,0.031l0.018,0.032l0.016,0.033l0.015,0.032l0.016,0.034l0.014,0.034l0.013,0.033l0.024,0.069l0.011,0.035l0.01,0.036l0.009,0.035l0.008,0.037l0.007,0.036l0.006,0.036l0.006,0.038l0.004,0.037l0.004,0.038l0.002,0.038l0.002,0.038l0,0.076l-0.002,0.039l-0.002,0.038l-0.004,0.037l-0.004,0.037l-0.006,0.038l-0.006,0.037l-0.007,0.036l-0.008,0.036l-0.009,0.036l-0.01,0.035l-0.011,0.035l-0.012,0.035l-0.012,0.034l-0.013,0.034l-0.014,0.033l-0.016,0.034l-0.015,0.033l-0.016,0.032l-0.018,0.032l-0.018,0.031l-0.018,0.031l-0.02,0.031l-0.02,0.029l-0.021,0.03l-0.022,0.029l-0.022,0.028l-0.024,0.028l-0.023,0.027l-0.025,0.027l-0.024,0.026l-0.027,0.025l-0.025,0.026l-0.028,0.024l-0.027,0.024l-0.028,0.023l-0.028,0.022l-0.03,0.022l-0.029,0.021l-0.031,0.021l-0.03,0.019l-0.031,0.019l-0.033,0.018l-0.031,0.018l-0.033,0.016l-0.033,0.017l-0.034,0.015l-0.034,0.014l-0.034,0.014l-0.035,0.013l-0.036,0.012l-0.035,0.011l-0.037,0.011l-0.036,0.009l-0.036,0.01l-0.038,0.007l-0.038,0.007l-0.037,0.006l-0.038,0.005l-0.039,0.004l-0.039,0.004l-0.038,0.002l-0.039,0.001l-0.04,0.001l-0.039,-0.001l-0.039,-0.001l-0.039,-0.002l-0.039,-0.004l-0.038,-0.004l-0.038,-0.005l-0.038,-0.006l-0.037,-0.007l-0.038,-0.007l-0.037,-0.01l-0.035,-0.009l-0.037,-0.011l-0.036,-0.011l-0.035,-0.012l-0.035,-0.013l-0.035,-0.014l-0.033,-0.014l-0.034,-0.015l-0.034,-0.017l-0.032,-0.016l-0.032,-0.018l-0.032,-0.018l-0.031,-0.019l-0.031,-0.019l-0.03,-0.021l-0.03,-0.021l-0.029,-0.022l-0.029,-0.022l-0.027,-0.023l-0.028,-0.024l-0.027,-0.024l-0.026,-0.026l-0.026,-0.025l-0.025,-0.026l-0.024,-0.027l-0.024,-0.027l-0.023,-0.028l-0.022,-0.028l-0.022,-0.029l-0.021,-0.03l-0.021,-0.029l-0.019,-0.031l-0.018,-0.031l-0.019,-0.031l-0.017,-0.032l-0.016,-0.032l-0.016,-0.033l-0.015,-0.034l-0.014,-0.033l-0.013,-0.034l-0.013,-0.034l-0.012,-0.035l-0.01,-0.035l-0.01,-0.035l-0.009,-0.036l-0.009,-0.036l-0.007,-0.036l-0.006,-0.037l-0.005,-0.038l-0.004,-0.037l-0.004,-0.037l-0.002,-0.038l-0.002,-0.039l0,-0.037l0,-0.039l0.002,-0.038l0.002,-0.038l0.004,-0.038l0.004,-0.037l0.005,-0.038l0.006,-0.036l0.007,-0.036l0.009,-0.037l0.009,-0.035l0.01,-0.036l0.01,-0.035l0.012,-0.034l0.013,-0.035l0.013,-0.033l0.014,-0.034l0.015,-0.034l0.016,-0.032l0.016,-0.033l0.017,-0.032l0.019,-0.031l0.018,-0.031l0.019,-0.03l0.021,-0.03l0.021,-0.029l0.022,-0.029l0.022,-0.028l0.023,-0.029l0.024,-0.026l0.024,-0.027l0.025,-0.026l0.026,-0.026l0.026,-0.025l0.027,-0.025l0.028,-0.023l0.027,-0.023l0.029,-0.022l0.029,-0.023l0.03,-0.02l0.03,-0.02l0.031,-0.021l0.031,-0.018l0.032,-0.018l0.032,-0.019l0.032,-0.016l0.034,-0.016l0.034,-0.016l0.033,-0.014l0.035,-0.014l0.035,-0.012l0.035,-0.013l0.036,-0.011l0.037,-0.01l0.035,-0.01l0.037,-0.008l0.038,-0.008l0.037,-0.008l0.038,-0.006l0.038,-0.005l0.038,-0.004l0.039,-0.004l0.039,-0.002l0.039,-0.001l0.039,-0.001l0.04,0.001Zm-0.04,1.483l0,0.007l0,-0.002l0,-0.001l0,-0.002l0,-0.002Z" style="fill:#fff;"/><path d="M38.054,22.5l0.039,0.001l0.039,0.002l0.077,0.008l0.038,0.005l0.038,0.006l0.037,0.008l0.038,0.008l0.037,0.008l0.035,0.01l0.037,0.01l0.036,0.011l0.035,0.013l0.035,0.012l0.035,0.014l0.033,0.014l0.034,0.016l0.034,0.016l0.032,0.016l0.032,0.019l0.032,0.018l0.031,0.018l0.061,0.041l0.03,0.02l0.029,0.023l0.029,0.022l0.027,0.023l0.028,0.023l0.027,0.025l0.026,0.025l0.026,0.026l0.049,0.053l0.024,0.026l0.023,0.029l0.022,0.028l0.022,0.029l0.021,0.029l0.021,0.03l0.019,0.03l0.018,0.031l0.019,0.031l0.017,0.032l0.016,0.033l0.016,0.032l0.015,0.034l0.014,0.034l0.013,0.033l0.025,0.069l0.01,0.035l0.01,0.036l0.009,0.035l0.009,0.037l0.007,0.036l0.006,0.036l0.005,0.038l0.004,0.037l0.004,0.038l0.004,0.076l0,0.076l-0.002,0.039l-0.002,0.038l-0.004,0.037l-0.004,0.037l-0.005,0.038l-0.006,0.037l-0.007,0.036l-0.009,0.036l-0.009,0.036l-0.01,0.035l-0.01,0.035l-0.012,0.035l-0.013,0.034l-0.013,0.034l-0.014,0.033l-0.015,0.034l-0.016,0.033l-0.016,0.032l-0.017,0.032l-0.019,0.031l-0.018,0.031l-0.019,0.031l-0.021,0.029l-0.021,0.03l-0.022,0.029l-0.022,0.028l-0.023,0.028l-0.024,0.027l-0.024,0.027l-0.025,0.026l-0.026,0.025l-0.026,0.026l-0.027,0.024l-0.028,0.024l-0.027,0.023l-0.029,0.022l-0.029,0.022l-0.03,0.021l-0.03,0.021l-0.031,0.019l-0.031,0.019l-0.032,0.018l-0.032,0.018l-0.032,0.016l-0.034,0.017l-0.034,0.015l-0.033,0.014l-0.035,0.014l-0.035,0.013l-0.035,0.012l-0.036,0.011l-0.037,0.011l-0.035,0.009l-0.037,0.01l-0.038,0.007l-0.037,0.007l-0.038,0.006l-0.038,0.005l-0.038,0.004l-0.039,0.004l-0.039,0.002l-0.039,0.001l-0.039,0.001l-0.04,-0.001l-0.039,-0.001l-0.039,-0.002l-0.038,-0.004l-0.039,-0.004l-0.038,-0.005l-0.037,-0.006l-0.038,-0.007l-0.038,-0.007l-0.036,-0.01l-0.036,-0.009l-0.037,-0.011l-0.035,-0.011l-0.036,-0.012l-0.035,-0.013l-0.034,-0.014l-0.034,-0.014l-0.034,-0.015l-0.033,-0.017l-0.033,-0.016l-0.031,-0.018l-0.033,-0.018l-0.031,-0.019l-0.03,-0.019l-0.031,-0.021l-0.029,-0.021l-0.03,-0.022l-0.028,-0.022l-0.028,-0.023l-0.027,-0.024l-0.028,-0.024l-0.025,-0.026l-0.027,-0.025l-0.024,-0.026l-0.025,-0.027l-0.023,-0.027l-0.024,-0.028l-0.022,-0.028l-0.022,-0.029l-0.021,-0.03l-0.02,-0.029l-0.02,-0.031l-0.018,-0.031l-0.018,-0.031l-0.018,-0.032l-0.016,-0.032l-0.015,-0.033l-0.016,-0.034l-0.014,-0.033l-0.013,-0.034l-0.012,-0.034l-0.013,-0.035l-0.01,-0.035l-0.01,-0.035l-0.009,-0.036l-0.008,-0.036l-0.007,-0.036l-0.006,-0.037l-0.006,-0.038l-0.004,-0.037l-0.004,-0.037l-0.002,-0.038l-0.002,-0.039l0,-0.037l0,-0.039l0.002,-0.038l0.002,-0.038l0.004,-0.038l0.004,-0.037l0.006,-0.038l0.006,-0.036l0.007,-0.036l0.008,-0.037l0.009,-0.035l0.01,-0.036l0.01,-0.035l0.013,-0.034l0.012,-0.035l0.013,-0.033l0.014,-0.034l0.016,-0.034l0.015,-0.032l0.016,-0.033l0.018,-0.032l0.018,-0.031l0.018,-0.031l0.02,-0.03l0.02,-0.03l0.021,-0.029l0.022,-0.029l0.022,-0.028l0.024,-0.029l0.023,-0.026l0.025,-0.027l0.024,-0.026l0.027,-0.026l0.025,-0.025l0.028,-0.025l0.027,-0.023l0.028,-0.023l0.028,-0.022l0.03,-0.023l0.029,-0.02l0.031,-0.02l0.03,-0.021l0.031,-0.018l0.033,-0.018l0.031,-0.019l0.033,-0.016l0.033,-0.016l0.034,-0.016l0.034,-0.014l0.034,-0.014l0.035,-0.012l0.036,-0.013l0.035,-0.011l0.037,-0.01l0.036,-0.01l0.036,-0.008l0.038,-0.008l0.038,-0.008l0.037,-0.006l0.038,-0.005l0.039,-0.004l0.038,-0.004l0.039,-0.002l0.039,-0.001l0.04,-0.001l0.039,0.001Zm-0.039,1.484l0,0.006l0,-0.002l0,-0.001l0,-0.002l0,-0.002l0,0.001Z" style="fill:#fff;"/><path d="M42.64,22.5l0.038,0.001l0.039,0.002l0.078,0.008l0.037,0.005l0.038,0.006l0.038,0.008l0.037,0.008l0.037,0.008l0.036,0.01l0.036,0.01l0.036,0.011l0.036,0.013l0.034,0.012l0.035,0.014l0.034,0.014l0.033,0.016l0.034,0.016l0.033,0.016l0.031,0.019l0.033,0.018l0.03,0.018l0.061,0.041l0.03,0.02l0.03,0.023l0.028,0.022l0.028,0.023l0.027,0.023l0.028,0.025l0.025,0.025l0.027,0.026l0.049,0.053l0.023,0.026l0.023,0.029l0.023,0.028l0.021,0.029l0.022,0.029l0.02,0.03l0.019,0.03l0.019,0.031l0.018,0.031l0.017,0.032l0.017,0.033l0.015,0.032l0.015,0.034l0.014,0.034l0.014,0.033l0.024,0.069l0.01,0.035l0.011,0.036l0.009,0.035l0.008,0.037l0.007,0.036l0.006,0.036l0.005,0.038l0.004,0.037l0.004,0.038l0.004,0.076l0,0.076l-0.002,0.039l-0.002,0.038l-0.004,0.037l-0.004,0.037l-0.005,0.038l-0.006,0.037l-0.007,0.036l-0.008,0.036l-0.009,0.036l-0.011,0.035l-0.01,0.035l-0.012,0.035l-0.012,0.034l-0.014,0.034l-0.014,0.033l-0.015,0.034l-0.015,0.033l-0.017,0.032l-0.017,0.032l-0.018,0.031l-0.019,0.031l-0.019,0.031l-0.02,0.029l-0.022,0.03l-0.021,0.029l-0.023,0.028l-0.023,0.028l-0.023,0.027l-0.025,0.027l-0.024,0.026l-0.027,0.025l-0.025,0.026l-0.028,0.024l-0.027,0.024l-0.028,0.023l-0.028,0.022l-0.03,0.022l-0.03,0.021l-0.03,0.021l-0.031,0.019l-0.03,0.019l-0.033,0.018l-0.031,0.018l-0.033,0.016l-0.034,0.017l-0.033,0.015l-0.034,0.014l-0.035,0.014l-0.034,0.013l-0.036,0.012l-0.036,0.011l-0.036,0.011l-0.036,0.009l-0.037,0.01l-0.037,0.007l-0.038,0.007l-0.038,0.006l-0.037,0.005l-0.039,0.004l-0.039,0.004l-0.039,0.002l-0.038,0.001l-0.04,0.001l-0.04,-0.001l-0.038,-0.001l-0.039,-0.002l-0.039,-0.004l-0.039,-0.004l-0.037,-0.005l-0.038,-0.006l-0.038,-0.007l-0.037,-0.007l-0.037,-0.01l-0.036,-0.009l-0.036,-0.011l-0.036,-0.011l-0.036,-0.012l-0.034,-0.013l-0.035,-0.014l-0.034,-0.014l-0.033,-0.015l-0.034,-0.017l-0.033,-0.016l-0.031,-0.018l-0.033,-0.018l-0.03,-0.019l-0.031,-0.019l-0.03,-0.021l-0.03,-0.021l-0.03,-0.022l-0.028,-0.022l-0.028,-0.023l-0.027,-0.024l-0.028,-0.024l-0.025,-0.026l-0.027,-0.025l-0.024,-0.026l-0.025,-0.027l-0.023,-0.027l-0.023,-0.028l-0.023,-0.028l-0.021,-0.029l-0.022,-0.03l-0.02,-0.029l-0.019,-0.031l-0.019,-0.031l-0.018,-0.031l-0.017,-0.032l-0.017,-0.032l-0.015,-0.033l-0.015,-0.034l-0.014,-0.033l-0.014,-0.034l-0.012,-0.034l-0.012,-0.035l-0.01,-0.035l-0.011,-0.035l-0.009,-0.036l-0.008,-0.036l-0.007,-0.036l-0.006,-0.037l-0.005,-0.038l-0.004,-0.037l-0.004,-0.037l-0.002,-0.038l-0.002,-0.039l0,-0.037l0,-0.039l0.002,-0.038l0.002,-0.038l0.004,-0.038l0.004,-0.037l0.005,-0.038l0.006,-0.036l0.007,-0.036l0.008,-0.037l0.009,-0.035l0.011,-0.036l0.01,-0.035l0.012,-0.034l0.012,-0.035l0.014,-0.033l0.014,-0.034l0.015,-0.034l0.015,-0.032l0.017,-0.033l0.017,-0.032l0.018,-0.031l0.019,-0.031l0.019,-0.03l0.02,-0.03l0.022,-0.029l0.021,-0.029l0.023,-0.028l0.023,-0.029l0.023,-0.026l0.025,-0.027l0.024,-0.026l0.027,-0.026l0.025,-0.025l0.028,-0.025l0.027,-0.023l0.028,-0.023l0.028,-0.022l0.03,-0.023l0.03,-0.02l0.03,-0.02l0.031,-0.021l0.03,-0.018l0.033,-0.018l0.031,-0.019l0.033,-0.016l0.034,-0.016l0.033,-0.016l0.034,-0.014l0.035,-0.014l0.034,-0.012l0.036,-0.013l0.036,-0.011l0.036,-0.01l0.036,-0.01l0.037,-0.008l0.037,-0.008l0.038,-0.008l0.038,-0.006l0.037,-0.005l0.039,-0.004l0.039,-0.004l0.039,-0.002l0.038,-0.001l0.04,-0.001l0.04,0.001Zm-0.04,1.484l0,0.006l0,-0.002l0,-0.001l0,-0.002l0,-0.001l0,-0.001l0,0.001Z" style="fill:#fff;"/></g></g><g><path d="M114.587,16.697c0,-0.242 -0.197,-0.438 -0.439,-0.438l-29.823,0c-0.243,0 -0.44,0.196 -0.44,0.438l0,11.593c0,0.241 0.197,0.438 0.44,0.438l29.823,0c0.242,0 0.439,-0.197 0.439,-0.438l0,-11.593Z" style="fill:none;stroke:#fff;stroke-width:1.3px;"/><g><path d="M111.53,22.084l-3.669,0l1.834,-2.446l1.835,2.446Z" style="fill:#fff;"/><path d="M109.695,25.361l-1.834,-2.447l3.669,0l-1.835,2.447Z" style="fill:#fff;"/></g><g><path d="M89.257,22.5l0.039,0.001l0.039,0.002l0.077,0.008l0.038,0.005l0.038,0.006l0.037,0.008l0.038,0.008l0.037,0.008l0.035,0.01l0.037,0.01l0.036,0.011l0.035,0.013l0.035,0.012l0.035,0.014l0.033,0.014l0.034,0.016l0.034,0.016l0.032,0.016l0.032,0.019l0.032,0.018l0.031,0.018l0.061,0.041l0.03,0.02l0.029,0.023l0.029,0.022l0.027,0.023l0.028,0.023l0.027,0.025l0.026,0.025l0.026,0.026l0.049,0.053l0.024,0.026l0.023,0.029l0.022,0.028l0.022,0.029l0.021,0.029l0.021,0.03l0.019,0.03l0.018,0.031l0.019,0.031l0.017,0.032l0.016,0.033l0.016,0.032l0.015,0.034l0.014,0.034l0.013,0.033l0.025,0.069l0.01,0.035l0.01,0.036l0.009,0.035l0.009,0.037l0.007,0.036l0.006,0.036l0.005,0.038l0.004,0.037l0.004,0.038l0.002,0.038l0.002,0.038l0,0.076l-0.002,0.039l-0.002,0.038l-0.004,0.037l-0.004,0.037l-0.005,0.038l-0.006,0.037l-0.007,0.036l-0.009,0.036l-0.009,0.036l-0.01,0.035l-0.01,0.035l-0.012,0.035l-0.013,0.034l-0.013,0.034l-0.014,0.033l-0.015,0.034l-0.016,0.033l-0.016,0.032l-0.017,0.032l-0.019,0.031l-0.018,0.031l-0.019,0.031l-0.021,0.029l-0.021,0.03l-0.022,0.029l-0.022,0.028l-0.023,0.028l-0.024,0.027l-0.024,0.027l-0.025,0.026l-0.026,0.025l-0.026,0.026l-0.027,0.024l-0.028,0.024l-0.027,0.023l-0.029,0.022l-0.029,0.022l-0.03,0.021l-0.03,0.021l-0.031,0.019l-0.031,0.019l-0.032,0.018l-0.032,0.018l-0.032,0.016l-0.034,0.017l-0.034,0.015l-0.033,0.014l-0.035,0.014l-0.035,0.013l-0.035,0.012l-0.036,0.011l-0.037,0.011l-0.035,0.009l-0.037,0.01l-0.038,0.007l-0.037,0.007l-0.038,0.006l-0.038,0.005l-0.038,0.004l-0.039,0.004l-0.039,0.002l-0.039,0.001l-0.039,0.001l-0.04,-0.001l-0.039,-0.001l-0.039,-0.002l-0.038,-0.004l-0.039,-0.004l-0.038,-0.005l-0.037,-0.006l-0.038,-0.007l-0.038,-0.007l-0.036,-0.01l-0.036,-0.009l-0.037,-0.011l-0.035,-0.011l-0.036,-0.012l-0.035,-0.013l-0.034,-0.014l-0.034,-0.014l-0.034,-0.015l-0.033,-0.017l-0.033,-0.016l-0.031,-0.018l-0.033,-0.018l-0.031,-0.019l-0.03,-0.019l-0.031,-0.021l-0.029,-0.021l-0.03,-0.022l-0.028,-0.022l-0.028,-0.023l-0.027,-0.024l-0.028,-0.024l-0.025,-0.026l-0.027,-0.025l-0.024,-0.026l-0.025,-0.027l-0.023,-0.027l-0.024,-0.028l-0.022,-0.028l-0.022,-0.029l-0.021,-0.03l-0.02,-0.029l-0.02,-0.031l-0.018,-0.031l-0.018,-0.031l-0.018,-0.032l-0.016,-0.032l-0.015,-0.033l-0.016,-0.034l-0.014,-0.033l-0.013,-0.034l-0.012,-0.034l-0.013,-0.035l-0.01,-0.035l-0.01,-0.035l-0.009,-0.036l-0.008,-0.036l-0.007,-0.036l-0.006,-0.037l-0.006,-0.038l-0.004,-0.037l-0.004,-0.037l-0.002,-0.038l-0.002,-0.039l0,-0.037l0,-0.039l0.002,-0.038l0.002,-0.038l0.004,-0.038l0.004,-0.037l0.006,-0.038l0.006,-0.036l0.007,-0.036l0.008,-0.037l0.009,-0.035l0.01,-0.036l0.01,-0.035l0.013,-0.034l0.012,-0.035l0.013,-0.033l0.014,-0.034l0.016,-0.034l0.015,-0.032l0.016,-0.033l0.018,-0.032l0.018,-0.031l0.018,-0.031l0.02,-0.03l0.02,-0.03l0.021,-0.029l0.022,-0.029l0.022,-0.028l0.024,-0.029l0.023,-0.026l0.025,-0.027l0.024,-0.026l0.027,-0.026l0.025,-0.025l0.028,-0.025l0.027,-0.023l0.028,-0.023l0.028,-0.022l0.03,-0.023l0.029,-0.02l0.031,-0.02l0.03,-0.021l0.031,-0.018l0.033,-0.018l0.031,-0.019l0.033,-0.016l0.033,-0.016l0.034,-0.016l0.034,-0.014l0.034,-0.014l0.035,-0.012l0.036,-0.013l0.035,-0.011l0.037,-0.01l0.036,-0.01l0.036,-0.008l0.038,-0.008l0.038,-0.008l0.037,-0.006l0.038,-0.005l0.039,-0.004l0.038,-0.004l0.039,-0.002l0.039,-0.001l0.04,-0.001l0.039,0.001Zm-0.039,1.483l0,0.007l0,-0.002l0,-0.001l0,-0.002l0,-0.002Z" style="fill:#fff;"/><path d="M93.843,22.5l0.038,0.001l0.039,0.002l0.078,0.008l0.037,0.005l0.038,0.006l0.038,0.008l0.037,0.008l0.037,0.008l0.036,0.01l0.036,0.01l0.036,0.011l0.036,0.013l0.034,0.012l0.035,0.014l0.034,0.014l0.033,0.016l0.034,0.016l0.033,0.016l0.031,0.019l0.033,0.018l0.03,0.018l0.061,0.041l0.03,0.02l0.03,0.023l0.028,0.022l0.028,0.023l0.027,0.023l0.028,0.025l0.025,0.025l0.027,0.026l0.049,0.053l0.023,0.026l0.023,0.029l0.023,0.028l0.021,0.029l0.022,0.029l0.02,0.03l0.019,0.03l0.019,0.031l0.018,0.031l0.017,0.032l0.017,0.033l0.015,0.032l0.015,0.034l0.014,0.034l0.014,0.033l0.024,0.069l0.01,0.035l0.011,0.036l0.009,0.035l0.008,0.037l0.007,0.036l0.006,0.036l0.005,0.038l0.004,0.037l0.004,0.038l0.002,0.038l0.002,0.038l0,0.076l-0.002,0.039l-0.002,0.038l-0.004,0.037l-0.004,0.037l-0.005,0.038l-0.006,0.037l-0.007,0.036l-0.008,0.036l-0.009,0.036l-0.011,0.035l-0.01,0.035l-0.012,0.035l-0.012,0.034l-0.014,0.034l-0.014,0.033l-0.015,0.034l-0.015,0.033l-0.017,0.032l-0.017,0.032l-0.018,0.031l-0.019,0.031l-0.019,0.031l-0.02,0.029l-0.022,0.03l-0.021,0.029l-0.023,0.028l-0.023,0.028l-0.023,0.027l-0.025,0.027l-0.024,0.026l-0.027,0.025l-0.025,0.026l-0.028,0.024l-0.027,0.024l-0.028,0.023l-0.028,0.022l-0.03,0.022l-0.03,0.021l-0.03,0.021l-0.031,0.019l-0.03,0.019l-0.033,0.018l-0.031,0.018l-0.033,0.016l-0.034,0.017l-0.033,0.015l-0.034,0.014l-0.035,0.014l-0.034,0.013l-0.036,0.012l-0.036,0.011l-0.036,0.011l-0.036,0.009l-0.037,0.01l-0.037,0.007l-0.038,0.007l-0.038,0.006l-0.037,0.005l-0.039,0.004l-0.039,0.004l-0.039,0.002l-0.038,0.001l-0.04,0.001l-0.04,-0.001l-0.038,-0.001l-0.039,-0.002l-0.039,-0.004l-0.039,-0.004l-0.037,-0.005l-0.038,-0.006l-0.038,-0.007l-0.037,-0.007l-0.037,-0.01l-0.036,-0.009l-0.036,-0.011l-0.036,-0.011l-0.036,-0.012l-0.034,-0.013l-0.035,-0.014l-0.034,-0.014l-0.033,-0.015l-0.034,-0.017l-0.033,-0.016l-0.031,-0.018l-0.033,-0.018l-0.03,-0.019l-0.031,-0.019l-0.03,-0.021l-0.03,-0.021l-0.03,-0.022l-0.028,-0.022l-0.028,-0.023l-0.027,-0.024l-0.028,-0.024l-0.025,-0.026l-0.027,-0.025l-0.024,-0.026l-0.024,-0.027l-0.024,-0.027l-0.023,-0.028l-0.023,-0.028l-0.021,-0.029l-0.022,-0.03l-0.02,-0.029l-0.019,-0.031l-0.019,-0.031l-0.018,-0.031l-0.017,-0.032l-0.017,-0.032l-0.015,-0.033l-0.015,-0.034l-0.014,-0.033l-0.014,-0.034l-0.012,-0.034l-0.012,-0.035l-0.01,-0.035l-0.011,-0.035l-0.009,-0.036l-0.008,-0.036l-0.007,-0.036l-0.006,-0.037l-0.005,-0.038l-0.004,-0.037l-0.004,-0.037l-0.002,-0.038l-0.002,-0.039l0,-0.037l0,-0.039l0.002,-0.038l0.002,-0.038l0.004,-0.038l0.004,-0.037l0.005,-0.038l0.006,-0.036l0.007,-0.036l0.008,-0.037l0.009,-0.035l0.011,-0.036l0.01,-0.035l0.012,-0.034l0.012,-0.035l0.014,-0.033l0.014,-0.034l0.015,-0.034l0.015,-0.032l0.017,-0.033l0.017,-0.032l0.018,-0.031l0.019,-0.031l0.019,-0.03l0.02,-0.03l0.022,-0.029l0.021,-0.029l0.023,-0.028l0.023,-0.029l0.024,-0.026l0.024,-0.027l0.024,-0.026l0.027,-0.026l0.025,-0.025l0.028,-0.025l0.027,-0.023l0.028,-0.023l0.028,-0.022l0.03,-0.023l0.03,-0.02l0.03,-0.02l0.031,-0.021l0.03,-0.018l0.033,-0.018l0.031,-0.019l0.033,-0.016l0.034,-0.016l0.033,-0.016l0.034,-0.014l0.035,-0.014l0.034,-0.012l0.036,-0.013l0.036,-0.011l0.036,-0.01l0.036,-0.01l0.037,-0.008l0.037,-0.008l0.038,-0.008l0.038,-0.006l0.037,-0.005l0.039,-0.004l0.039,-0.004l0.039,-0.002l0.038,-0.001l0.04,-0.001l0.04,0.001Zm-0.04,1.483l0,0.007l0,-0.002l0,-0.001l0,-0.002l0,-0.002Z" style="fill:#fff;"/><path d="M98.428,22.5l0.039,0.001l0.039,0.002l0.077,0.008l0.038,0.005l0.037,0.006l0.038,0.008l0.038,0.008l0.036,0.008l0.036,0.01l0.037,0.01l0.035,0.011l0.036,0.013l0.035,0.012l0.034,0.014l0.034,0.014l0.034,0.016l0.033,0.016l0.033,0.016l0.032,0.019l0.032,0.018l0.031,0.018l0.061,0.041l0.029,0.02l0.03,0.023l0.028,0.022l0.028,0.023l0.027,0.023l0.028,0.025l0.025,0.025l0.027,0.026l0.049,0.053l0.023,0.026l0.024,0.029l0.022,0.028l0.022,0.029l0.021,0.029l0.02,0.03l0.02,0.03l0.018,0.031l0.018,0.031l0.018,0.032l0.016,0.033l0.015,0.032l0.016,0.034l0.014,0.034l0.013,0.033l0.025,0.069l0.01,0.035l0.01,0.036l0.009,0.035l0.008,0.037l0.007,0.036l0.006,0.036l0.006,0.038l0.004,0.037l0.004,0.038l0.004,0.076l0,0.076l-0.002,0.039l-0.002,0.038l-0.004,0.037l-0.004,0.037l-0.006,0.038l-0.006,0.037l-0.007,0.036l-0.008,0.036l-0.009,0.036l-0.01,0.035l-0.01,0.035l-0.013,0.035l-0.012,0.034l-0.013,0.034l-0.014,0.033l-0.016,0.034l-0.015,0.033l-0.016,0.032l-0.018,0.032l-0.018,0.031l-0.018,0.031l-0.02,0.031l-0.02,0.029l-0.021,0.03l-0.022,0.029l-0.022,0.028l-0.024,0.028l-0.023,0.027l-0.025,0.027l-0.024,0.026l-0.027,0.025l-0.025,0.026l-0.028,0.024l-0.027,0.024l-0.028,0.023l-0.028,0.022l-0.03,0.022l-0.029,0.021l-0.031,0.021l-0.03,0.019l-0.031,0.019l-0.032,0.018l-0.032,0.018l-0.033,0.016l-0.033,0.017l-0.034,0.015l-0.034,0.014l-0.034,0.014l-0.035,0.013l-0.036,0.012l-0.035,0.011l-0.037,0.011l-0.036,0.009l-0.036,0.01l-0.038,0.007l-0.038,0.007l-0.037,0.006l-0.038,0.005l-0.039,0.004l-0.038,0.004l-0.039,0.002l-0.039,0.001l-0.04,0.001l-0.039,-0.001l-0.039,-0.001l-0.039,-0.002l-0.039,-0.004l-0.038,-0.004l-0.038,-0.005l-0.038,-0.006l-0.037,-0.007l-0.038,-0.007l-0.037,-0.01l-0.035,-0.009l-0.037,-0.011l-0.036,-0.011l-0.035,-0.012l-0.035,-0.013l-0.035,-0.014l-0.033,-0.014l-0.034,-0.015l-0.034,-0.017l-0.032,-0.016l-0.032,-0.018l-0.032,-0.018l-0.031,-0.019l-0.031,-0.019l-0.03,-0.021l-0.03,-0.021l-0.029,-0.022l-0.029,-0.022l-0.027,-0.023l-0.028,-0.024l-0.027,-0.024l-0.026,-0.026l-0.026,-0.025l-0.025,-0.026l-0.024,-0.027l-0.024,-0.027l-0.023,-0.028l-0.022,-0.028l-0.022,-0.029l-0.021,-0.03l-0.021,-0.029l-0.019,-0.031l-0.018,-0.031l-0.019,-0.031l-0.017,-0.032l-0.016,-0.032l-0.016,-0.033l-0.015,-0.034l-0.014,-0.033l-0.013,-0.034l-0.013,-0.034l-0.012,-0.035l-0.01,-0.035l-0.01,-0.035l-0.009,-0.036l-0.009,-0.036l-0.007,-0.036l-0.006,-0.037l-0.005,-0.038l-0.004,-0.037l-0.004,-0.037l-0.002,-0.038l-0.002,-0.039l0,-0.037l0,-0.039l0.002,-0.038l0.002,-0.038l0.004,-0.038l0.004,-0.037l0.005,-0.038l0.006,-0.036l0.007,-0.036l0.009,-0.037l0.009,-0.035l0.01,-0.036l0.01,-0.035l0.012,-0.034l0.013,-0.035l0.013,-0.033l0.014,-0.034l0.015,-0.034l0.016,-0.032l0.016,-0.033l0.017,-0.032l0.019,-0.031l0.018,-0.031l0.019,-0.03l0.021,-0.03l0.021,-0.029l0.022,-0.029l0.022,-0.028l0.023,-0.029l0.024,-0.026l0.024,-0.027l0.025,-0.026l0.026,-0.026l0.026,-0.025l0.027,-0.025l0.028,-0.023l0.027,-0.023l0.029,-0.022l0.029,-0.023l0.03,-0.02l0.03,-0.02l0.031,-0.021l0.031,-0.018l0.032,-0.018l0.032,-0.019l0.032,-0.016l0.034,-0.016l0.034,-0.016l0.033,-0.014l0.035,-0.014l0.035,-0.012l0.035,-0.013l0.036,-0.011l0.037,-0.01l0.035,-0.01l0.037,-0.008l0.038,-0.008l0.037,-0.008l0.038,-0.006l0.038,-0.005l0.038,-0.004l0.039,-0.004l0.039,-0.002l0.039,-0.001l0.039,-0.001l0.04,0.001Zm-0.04,1.483l0,0.007l0,-0.002l0,-0.001l0,-0.002l0,-0.002Z" style="fill:#fff;"/></g></g><g><path d="M217.5,18.355l16.5,0" style="fill:none;stroke:#fff;stroke-width:1.3px;"/><path d="M217.5,22.338l16.5,0" style="fill:none;stroke:#fff;stroke-width:1.3px;"/><path d="M217.5,26.321l16.5,0" style="fill:none;stroke:#fff;stroke-width:1.3px;"/><path d="M230.728,17.395c0,-0.412 -0.334,-0.746 -0.746,-0.746l-1.494,0c-0.412,0 -0.747,0.334 -0.747,0.746l0,1.921c0,0.412 0.335,0.746 0.747,0.746l1.494,0c0.412,0 0.746,-0.334 0.746,-0.746l0,-1.921Z" style="fill:#fff;"/><path d="M230.048,16.1l0.066,0.005l0.065,0.008l0.063,0.012l0.063,0.014l0.062,0.018l0.061,0.02l0.059,0.024l0.057,0.026l0.056,0.028l0.055,0.032l0.052,0.033l0.051,0.036l0.049,0.039l0.047,0.041l0.045,0.042l0.042,0.045l0.041,0.047l0.039,0.049l0.036,0.051l0.033,0.053l0.032,0.054l0.028,0.056l0.026,0.057l0.024,0.059l0.02,0.061l0.018,0.062l0.014,0.063l0.012,0.063l0.008,0.065l0.005,0.066l0.001,0.059l0,1.934l-0.001,0.06l-0.005,0.065l-0.008,0.065l-0.012,0.064l-0.014,0.063l-0.018,0.062l-0.02,0.061l-0.024,0.058l-0.026,0.058l-0.028,0.056l-0.032,0.054l-0.033,0.053l-0.036,0.051l-0.039,0.049l-0.041,0.047l-0.042,0.045l-0.045,0.042l-0.047,0.041l-0.049,0.038l-0.051,0.037l-0.052,0.033l-0.055,0.032l-0.056,0.028l-0.057,0.026l-0.059,0.024l-0.061,0.02l-0.062,0.018l-0.063,0.014l-0.063,0.012l-0.065,0.008l-0.066,0.005l-0.059,0.001l-1.508,0l-0.059,-0.001l-0.066,-0.005l-0.065,-0.008l-0.064,-0.012l-0.063,-0.014l-0.061,-0.018l-0.061,-0.02l-0.059,-0.024l-0.057,-0.026l-0.056,-0.028l-0.055,-0.032l-0.052,-0.033l-0.051,-0.037l-0.049,-0.038l-0.047,-0.041l-0.045,-0.042l-0.043,-0.045l-0.04,-0.047l-0.039,-0.049l-0.036,-0.051l-0.034,-0.053l-0.031,-0.054l-0.029,-0.056l-0.026,-0.058l-0.023,-0.058l-0.02,-0.061l-0.018,-0.062l-0.014,-0.063l-0.012,-0.064l-0.008,-0.065l-0.005,-0.065l-0.002,-0.059l0,-1.935l0.002,-0.059l0.005,-0.066l0.008,-0.065l0.012,-0.063l0.014,-0.063l0.018,-0.062l0.02,-0.061l0.023,-0.059l0.026,-0.057l0.029,-0.056l0.031,-0.055l0.034,-0.052l0.036,-0.051l0.039,-0.049l0.04,-0.047l0.043,-0.045l0.045,-0.042l0.047,-0.041l0.049,-0.039l0.051,-0.036l0.052,-0.033l0.055,-0.032l0.056,-0.028l0.057,-0.026l0.059,-0.024l0.061,-0.02l0.061,-0.018l0.063,-0.014l0.064,-0.012l0.065,-0.008l0.066,-0.005l0.059,-0.001l1.508,0l0.059,0.001Zm-1.56,0.549l-0.038,0.001l-0.038,0.002l-0.038,0.005l-0.036,0.007l-0.036,0.008l-0.036,0.01l-0.035,0.012l-0.033,0.013l-0.033,0.015l-0.033,0.017l-0.031,0.018l-0.03,0.019l-0.03,0.021l-0.028,0.022l-0.027,0.024l-0.026,0.024l-0.025,0.026l-0.023,0.027l-0.022,0.029l-0.021,0.029l-0.019,0.03l-0.018,0.031l-0.017,0.033l-0.015,0.033l-0.013,0.034l-0.012,0.034l-0.01,0.036l-0.008,0.036l-0.007,0.037l-0.005,0.037l-0.003,0.038l-0.001,0.038l0,1.921l0.001,0.038l0.003,0.038l0.005,0.037l0.007,0.037l0.008,0.036l0.01,0.036l0.012,0.034l0.013,0.034l0.015,0.033l0.017,0.032l0.018,0.032l0.019,0.03l0.021,0.029l0.022,0.028l0.023,0.028l0.025,0.026l0.026,0.024l0.027,0.024l0.028,0.022l0.03,0.021l0.03,0.019l0.031,0.018l0.033,0.017l0.033,0.015l0.033,0.013l0.035,0.012l0.036,0.01l0.036,0.008l0.036,0.007l0.038,0.004l0.038,0.003l0.038,0.001l1.494,0l0.038,-0.001l0.038,-0.003l0.037,-0.004l0.037,-0.007l0.036,-0.008l0.036,-0.01l0.034,-0.012l0.034,-0.013l0.033,-0.015l0.033,-0.017l0.031,-0.018l0.03,-0.019l0.029,-0.021l0.029,-0.022l0.027,-0.024l0.026,-0.024l0.024,-0.026l0.024,-0.028l0.022,-0.028l0.021,-0.029l0.019,-0.03l0.018,-0.032l0.017,-0.032l0.015,-0.033l0.013,-0.034l0.012,-0.034l0.01,-0.036l0.008,-0.036l0.007,-0.037l0.005,-0.037l0.002,-0.038l0.001,-0.038l0,-1.921l-0.001,-0.038l-0.002,-0.038l-0.005,-0.037l-0.007,-0.037l-0.008,-0.036l-0.01,-0.036l-0.012,-0.034l-0.013,-0.034l-0.015,-0.033l-0.017,-0.033l-0.018,-0.031l-0.019,-0.03l-0.021,-0.029l-0.022,-0.029l-0.024,-0.027l-0.024,-0.026l-0.026,-0.024l-0.027,-0.024l-0.029,-0.022l-0.029,-0.021l-0.03,-0.019l-0.031,-0.018l-0.033,-0.017l-0.033,-0.015l-0.034,-0.013l-0.034,-0.012l-0.036,-0.01l-0.036,-0.008l-0.037,-0.007l-0.037,-0.005l-0.038,-0.002l-0.038,-0.001l-1.494,0Z" style="fill:#008ebd;"/><path d="M222.763,21.378c0,-0.412 -0.335,-0.747 -0.747,-0.747l-1.493,0c-0.413,0 -0.747,0.335 -0.747,0.747l0,1.92c0,0.412 0.334,0.747 0.747,0.747l1.493,0c0.412,0 0.747,-0.335 0.747,-0.747l0,-1.92Z" style="fill:#fff;"/><path d="M222.082,20.083l0.066,0.005l0.065,0.008l0.064,0.011l0.063,0.015l0.062,0.018l0.06,0.02l0.059,0.023l0.058,0.026l0.056,0.029l0.054,0.031l0.053,0.034l0.05,0.036l0.049,0.039l0.047,0.04l0.045,0.043l0.043,0.045l0.041,0.047l0.038,0.049l0.036,0.051l0.034,0.052l0.031,0.055l0.029,0.055l0.026,0.058l0.023,0.059l0.021,0.061l0.017,0.061l0.015,0.063l0.011,0.064l0.008,0.065l0.005,0.066l0.002,0.059l0,1.934l-0.002,0.06l-0.005,0.065l-0.008,0.065l-0.011,0.064l-0.015,0.063l-0.017,0.062l-0.021,0.06l-0.023,0.059l-0.026,0.058l-0.029,0.056l-0.031,0.054l-0.034,0.053l-0.036,0.05l-0.038,0.049l-0.041,0.047l-0.043,0.045l-0.045,0.043l-0.047,0.041l-0.049,0.038l-0.05,0.036l-0.053,0.034l-0.054,0.031l-0.056,0.029l-0.058,0.026l-0.059,0.023l-0.06,0.021l-0.062,0.017l-0.063,0.015l-0.064,0.011l-0.065,0.009l-0.066,0.005l-0.059,0.001l-1.507,0l-0.06,-0.001l-0.065,-0.005l-0.065,-0.009l-0.064,-0.011l-0.063,-0.015l-0.062,-0.017l-0.06,-0.021l-0.059,-0.023l-0.058,-0.026l-0.056,-0.029l-0.054,-0.031l-0.053,-0.034l-0.051,-0.036l-0.048,-0.038l-0.047,-0.041l-0.045,-0.043l-0.043,-0.045l-0.041,-0.047l-0.038,-0.048l-0.036,-0.051l-0.034,-0.053l-0.031,-0.054l-0.029,-0.056l-0.026,-0.058l-0.023,-0.059l-0.021,-0.06l-0.017,-0.062l-0.015,-0.063l-0.011,-0.064l-0.009,-0.065l-0.005,-0.065l-0.001,-0.06l0,-1.934l0.001,-0.059l0.005,-0.066l0.009,-0.065l0.011,-0.064l0.015,-0.063l0.017,-0.061l0.021,-0.061l0.023,-0.059l0.026,-0.058l0.029,-0.055l0.031,-0.055l0.034,-0.052l0.036,-0.051l0.038,-0.049l0.041,-0.047l0.043,-0.045l0.045,-0.043l0.047,-0.04l0.048,-0.039l0.051,-0.036l0.053,-0.034l0.054,-0.031l0.056,-0.029l0.058,-0.026l0.059,-0.023l0.06,-0.02l0.062,-0.018l0.063,-0.015l0.064,-0.011l0.065,-0.008l0.065,-0.005l0.06,-0.002l1.507,0l0.059,0.002Zm-1.559,0.548l-0.039,0.001l-0.038,0.003l-0.037,0.005l-0.037,0.006l-0.036,0.009l-0.035,0.01l-0.035,0.012l-0.034,0.013l-0.033,0.015l-0.032,0.016l-0.031,0.018l-0.031,0.02l-0.029,0.021l-0.028,0.022l-0.027,0.023l-0.026,0.025l-0.025,0.026l-0.024,0.027l-0.022,0.028l-0.021,0.03l-0.019,0.03l-0.018,0.031l-0.016,0.032l-0.015,0.034l-0.014,0.033l-0.012,0.035l-0.01,0.036l-0.008,0.036l-0.007,0.036l-0.004,0.038l-0.003,0.038l-0.001,0.038l0,1.92l0.001,0.039l0.003,0.038l0.004,0.037l0.007,0.037l0.008,0.036l0.01,0.035l0.012,0.035l0.014,0.034l0.015,0.033l0.016,0.032l0.018,0.031l0.019,0.031l0.021,0.029l0.022,0.028l0.024,0.027l0.025,0.026l0.026,0.025l0.027,0.023l0.028,0.023l0.029,0.02l0.031,0.02l0.031,0.018l0.032,0.016l0.033,0.015l0.034,0.014l0.035,0.011l0.035,0.011l0.036,0.008l0.037,0.006l0.037,0.005l0.038,0.003l0.039,0.001l1.493,0l0.039,-0.001l0.037,-0.003l0.038,-0.005l0.037,-0.006l0.036,-0.008l0.035,-0.011l0.035,-0.011l0.034,-0.014l0.033,-0.015l0.032,-0.016l0.031,-0.018l0.031,-0.02l0.029,-0.02l0.028,-0.023l0.027,-0.023l0.026,-0.025l0.025,-0.026l0.023,-0.027l0.022,-0.028l0.021,-0.029l0.02,-0.031l0.018,-0.031l0.016,-0.032l0.015,-0.033l0.014,-0.034l0.011,-0.035l0.01,-0.035l0.009,-0.036l0.006,-0.037l0.005,-0.037l0.003,-0.038l0.001,-0.039l0,-1.92l-0.001,-0.038l-0.003,-0.038l-0.005,-0.038l-0.006,-0.036l-0.009,-0.036l-0.01,-0.036l-0.011,-0.035l-0.014,-0.033l-0.015,-0.034l-0.016,-0.032l-0.018,-0.031l-0.02,-0.03l-0.021,-0.03l-0.022,-0.028l-0.023,-0.027l-0.025,-0.026l-0.026,-0.025l-0.027,-0.023l-0.028,-0.022l-0.029,-0.021l-0.031,-0.02l-0.031,-0.018l-0.032,-0.016l-0.033,-0.015l-0.034,-0.013l-0.035,-0.012l-0.035,-0.01l-0.036,-0.009l-0.037,-0.006l-0.038,-0.005l-0.037,-0.003l-0.039,-0.001l-1.493,0Z" style="fill:#008ebd;"/><path d="M227.884,25.361c0,-0.412 -0.335,-0.747 -0.747,-0.747l-1.494,0c-0.412,0 -0.746,0.335 -0.746,0.747l0,1.92c0,0.412 0.334,0.747 0.746,0.747l1.494,0c0.412,0 0.747,-0.335 0.747,-0.747l0,-1.92Z" style="fill:#fff;"/><path d="M227.203,24.066l0.066,0.005l0.065,0.008l0.064,0.011l0.063,0.015l0.061,0.017l0.061,0.021l0.059,0.023l0.057,0.026l0.056,0.029l0.055,0.031l0.052,0.034l0.051,0.036l0.049,0.038l0.047,0.041l0.045,0.043l0.043,0.045l0.04,0.047l0.039,0.049l0.036,0.05l0.034,0.053l0.031,0.054l0.028,0.056l0.027,0.058l0.023,0.059l0.02,0.06l0.018,0.062l0.014,0.063l0.012,0.064l0.008,0.065l0.005,0.066l0.002,0.059l0,1.934l-0.002,0.059l-0.005,0.066l-0.008,0.065l-0.012,0.064l-0.014,0.063l-0.018,0.061l-0.02,0.061l-0.023,0.059l-0.027,0.058l-0.028,0.056l-0.031,0.054l-0.034,0.053l-0.036,0.05l-0.039,0.049l-0.04,0.047l-0.043,0.045l-0.045,0.043l-0.047,0.041l-0.049,0.038l-0.051,0.036l-0.052,0.034l-0.055,0.031l-0.056,0.029l-0.057,0.026l-0.059,0.023l-0.061,0.021l-0.061,0.017l-0.063,0.015l-0.064,0.011l-0.065,0.008l-0.066,0.005l-0.059,0.002l-1.508,0l-0.059,-0.002l-0.066,-0.005l-0.064,-0.008l-0.064,-0.011l-0.063,-0.015l-0.062,-0.017l-0.061,-0.021l-0.059,-0.023l-0.057,-0.026l-0.056,-0.029l-0.055,-0.031l-0.052,-0.034l-0.051,-0.036l-0.049,-0.038l-0.047,-0.041l-0.045,-0.043l-0.043,-0.045l-0.04,-0.047l-0.039,-0.049l-0.036,-0.05l-0.033,-0.053l-0.032,-0.054l-0.028,-0.056l-0.026,-0.058l-0.024,-0.059l-0.02,-0.061l-0.018,-0.061l-0.014,-0.063l-0.012,-0.064l-0.008,-0.065l-0.005,-0.066l-0.001,-0.059l0,-1.934l0.001,-0.059l0.005,-0.066l0.008,-0.065l0.012,-0.064l0.014,-0.063l0.018,-0.062l0.02,-0.06l0.024,-0.059l0.026,-0.058l0.028,-0.056l0.032,-0.054l0.033,-0.053l0.036,-0.05l0.039,-0.049l0.04,-0.047l0.043,-0.045l0.045,-0.043l0.047,-0.041l0.049,-0.038l0.051,-0.036l0.052,-0.034l0.055,-0.031l0.056,-0.029l0.057,-0.026l0.059,-0.023l0.061,-0.021l0.062,-0.017l0.063,-0.015l0.064,-0.011l0.064,-0.008l0.066,-0.005l0.059,-0.002l1.508,0l0.059,0.002Zm-1.56,0.548l-0.038,0.001l-0.038,0.003l-0.037,0.005l-0.037,0.006l-0.036,0.009l-0.036,0.01l-0.034,0.011l-0.034,0.014l-0.033,0.015l-0.033,0.016l-0.031,0.018l-0.03,0.02l-0.029,0.02l-0.029,0.023l-0.027,0.023l-0.026,0.025l-0.024,0.026l-0.024,0.027l-0.022,0.028l-0.021,0.029l-0.019,0.031l-0.018,0.031l-0.017,0.032l-0.015,0.033l-0.013,0.034l-0.012,0.035l-0.01,0.035l-0.008,0.036l-0.007,0.037l-0.005,0.038l-0.002,0.037l-0.001,0.039l0,1.92l0.001,0.038l0.002,0.038l0.005,0.038l0.007,0.037l0.008,0.036l0.01,0.035l0.012,0.035l0.013,0.034l0.015,0.033l0.017,0.032l0.018,0.031l0.019,0.03l0.021,0.03l0.022,0.028l0.024,0.027l0.024,0.026l0.026,0.025l0.027,0.023l0.029,0.022l0.029,0.021l0.03,0.02l0.031,0.018l0.033,0.016l0.033,0.015l0.034,0.014l0.034,0.011l0.036,0.01l0.036,0.009l0.037,0.006l0.037,0.005l0.038,0.003l0.038,0.001l1.494,0l0.038,-0.001l0.038,-0.003l0.038,-0.005l0.036,-0.006l0.036,-0.009l0.036,-0.01l0.035,-0.011l0.033,-0.014l0.033,-0.015l0.033,-0.016l0.031,-0.018l0.03,-0.02l0.03,-0.021l0.028,-0.022l0.027,-0.023l0.026,-0.025l0.025,-0.026l0.023,-0.027l0.022,-0.028l0.021,-0.03l0.019,-0.03l0.018,-0.031l0.017,-0.032l0.015,-0.033l0.013,-0.034l0.012,-0.035l0.01,-0.035l0.008,-0.036l0.007,-0.037l0.005,-0.038l0.003,-0.038l0.001,-0.038l0,-1.92l-0.001,-0.039l-0.003,-0.037l-0.005,-0.038l-0.007,-0.037l-0.008,-0.036l-0.01,-0.035l-0.012,-0.035l-0.013,-0.034l-0.015,-0.033l-0.017,-0.032l-0.018,-0.031l-0.019,-0.031l-0.021,-0.029l-0.022,-0.028l-0.023,-0.027l-0.025,-0.026l-0.026,-0.025l-0.027,-0.023l-0.028,-0.023l-0.03,-0.02l-0.03,-0.02l-0.031,-0.018l-0.033,-0.016l-0.033,-0.015l-0.033,-0.014l-0.035,-0.011l-0.036,-0.01l-0.036,-0.009l-0.036,-0.006l-0.038,-0.005l-0.038,-0.003l-0.038,-0.001l-1.494,0Z" style="fill:#008ebd;"/></g></svg>