<?xml version="1.0" encoding="utf-8"?>
<!-- Generator: Adobe Illustrator 22.1.0, SVG Export Plug-In . SVG Version: 6.00 Build 0)  -->
<svg version="1.1" id="Ebene_1" xmlns="http://www.w3.org/2000/svg" xmlns:xlink="http://www.w3.org/1999/xlink" x="0px" y="0px"
	 viewBox="0 0 350 60" style="enable-background:new 0 0 350 60;" xml:space="preserve">
<style type="text/css">
	.st0{fill:#008EBD;}
</style>
<g>
	<path class="st0" d="M254.1,34.5c3.1,0,5.6-2.5,5.6-5.6c0-3.1-2.5-5.6-5.6-5.6c-3.1,0-5.6,2.5-5.6,5.6
		C248.4,32,251,34.5,254.1,34.5z"/>
	<path class="st0" d="M25,46h300V14H25V46z M294.3,20.3c0.2-0.2,0.4-0.3,0.6-0.3h3.6c0.2,0,0.3,0,0.4,0.1c0.1,0.1,0.2,0.1,0.3,0.2
		c0.1,0.1,0.1,0.2,0.2,0.3c0.1,0.1,0.1,0.3,0.1,0.4c0,0.1,0,0.2,0.1,0.4c0,0.2,0.1,0.3,0.1,0.4h17.1c0.2,0,0.5,0.1,0.6,0.3
		c0.2,0.2,0.3,0.4,0.3,0.6V30c0,0.2-0.1,0.4-0.2,0.6c-0.2,0.2-0.3,0.3-0.6,0.3L302,32.6c0,0.1,0,0.2,0.1,0.3c0,0.1,0.1,0.3,0.1,0.4
		c0,0.1,0,0.2,0,0.3c0,0.2-0.1,0.5-0.3,0.9h13.1c0.2,0,0.5,0.1,0.6,0.3c0.2,0.2,0.3,0.4,0.3,0.6c0,0.2-0.1,0.5-0.3,0.6
		c-0.2,0.2-0.4,0.3-0.6,0.3H314c0.5,0,0.9,0.2,1.3,0.5c0.4,0.4,0.5,0.8,0.5,1.3c0,0.5-0.2,0.9-0.5,1.3c-0.4,0.4-0.8,0.5-1.3,0.5
		c-0.5,0-0.9-0.2-1.3-0.5c-0.4-0.4-0.5-0.8-0.5-1.3c0-0.5,0.2-0.9,0.5-1.3c0.4-0.4,0.8-0.5,1.3-0.5h-12.7c0.5,0,0.9,0.2,1.3,0.5
		c0.4,0.4,0.5,0.8,0.5,1.3c0,0.5-0.2,0.9-0.5,1.3c-0.4,0.4-0.8,0.5-1.3,0.5c-0.5,0-0.9-0.2-1.3-0.5c-0.4-0.4-0.5-0.8-0.5-1.3
		c0-0.5,0.2-0.9,0.5-1.3c0.4-0.4,0.8-0.5,1.3-0.5h-0.9c-0.2,0-0.5-0.1-0.6-0.3c-0.2-0.2-0.3-0.4-0.3-0.6c0-0.1,0.1-0.3,0.2-0.6
		c0.1-0.2,0.2-0.5,0.4-0.8c0.2-0.3,0.3-0.5,0.3-0.5l-2.5-11.7h-2.9c-0.2,0-0.5-0.1-0.6-0.3c-0.2-0.2-0.3-0.4-0.3-0.6
		S294.1,20.4,294.3,20.3z M273.9,21.7c3.7-1,6.2,2,6.2,2s2.5-3,6.2-2c0,0,2.9,0.8,3.1,4.4c0.2,3.9-6.9,10.7-9.3,12.4
		c-2.5-1.6-9.6-8.4-9.3-12.4C271.1,22.5,273.9,21.7,273.9,21.7z M254.1,21c4.4,0,7.9,3.5,7.9,7.9c0,1.6-0.5,3-1.3,4.2l3,3
		c0.7,0.7,0.7,1.7,0,2.4c-0.7,0.7-1.7,0.7-2.4,0l-3-3c-1.2,0.8-2.7,1.3-4.2,1.3c-4.4,0-7.9-3.5-7.9-7.9
		C246.2,24.5,249.7,21,254.1,21z M224.9,31c0-0.1,0-0.2,0.1-0.3c0.1-0.1,0.2-0.1,0.3-0.1h0.8c0-0.5,0-0.9,0-1.3h-0.9
		c-0.1,0-0.2,0-0.3-0.1c-0.1-0.1-0.1-0.2-0.1-0.3v-1.5c0-0.1,0-0.2,0.1-0.3c0.1-0.1,0.2-0.1,0.3-0.1h1.3c0.6-1.8,1.6-3.2,3.1-4.3
		c1.5-1.1,3.2-1.6,5.1-1.6c0.9,0,1.7,0.1,2.5,0.3c0.1,0,0.2,0.1,0.3,0.2c0.1,0.1,0.1,0.2,0,0.3l-0.6,2c0,0.1-0.1,0.2-0.2,0.2
		c-0.1,0.1-0.2,0.1-0.3,0l-0.1,0c0,0-0.1,0-0.1,0l-0.2,0c0,0-0.1,0-0.3,0c-0.2,0-0.3,0-0.3,0c0,0-0.2,0-0.4,0c-0.2,0-0.3,0-0.4,0
		c-1.1,0-2,0.3-2.9,0.8c-0.9,0.5-1.5,1.3-1.9,2.3h6c0.1,0,0.2,0.1,0.3,0.2c0.1,0.1,0.1,0.2,0.1,0.3l-0.3,1.5c0,0.2-0.2,0.3-0.4,0.3
		h-6.2c0,0.3,0,0.8,0,1.3h5.9c0.1,0,0.2,0.1,0.3,0.2c0.1,0.1,0.1,0.2,0.1,0.3l-0.3,1.4c0,0.1-0.1,0.2-0.1,0.2
		c-0.1,0.1-0.2,0.1-0.3,0.1H230c0.4,1,1,1.8,1.9,2.4c0.9,0.6,1.8,0.9,2.9,0.9c0.2,0,0.3,0,0.5,0c0.2,0,0.3,0,0.4,0
		c0.1,0,0.3,0,0.4-0.1c0.1,0,0.2,0,0.3-0.1c0.1,0,0.2,0,0.2-0.1l0.2,0l0.1,0c0.1,0,0.2,0,0.3,0c0.1,0.1,0.2,0.1,0.2,0.3l0.4,2
		c0,0.1,0,0.2,0,0.3c-0.1,0.1-0.1,0.2-0.2,0.2l-0.1,0c0,0-0.1,0-0.1,0c-0.1,0-0.1,0-0.2,0.1c-0.1,0-0.2,0-0.3,0.1
		c-0.1,0-0.2,0-0.3,0.1c-0.1,0-0.2,0-0.4,0.1c-0.1,0-0.3,0-0.4,0.1c-0.1,0-0.3,0-0.5,0c-0.2,0-0.3,0-0.5,0c-2,0-3.7-0.6-5.2-1.7
		c-1.5-1.1-2.5-2.6-3-4.5h-1.2c-0.1,0-0.2,0-0.3-0.1c-0.1-0.1-0.1-0.2-0.1-0.3V31z M199.2,20c0.9,0,1.6,0.7,1.6,1.6
		c0,0.5-0.2,0.9-0.6,1.2l0.2,1.1c0.2-0.1,0.4-0.2,0.7-0.4c1.6-0.8,3-1.2,4.3-1.2c0.7,0,1.4,0.1,2,0.3c0.6,0.2,1.4,0.5,2.2,0.9
		c0.3,0.1,0.6,0.2,0.9,0.2c0.4,0,0.8-0.1,1.2-0.2c0.4-0.1,0.8-0.3,1.1-0.5c0.3-0.2,0.6-0.3,0.9-0.5c0.3-0.1,0.5-0.2,0.6-0.2
		c0.2,0,0.3,0.1,0.5,0.2c0.1,0.1,0.2,0.3,0.2,0.5v7.8c0,0.2,0,0.3-0.1,0.4c-0.1,0.1-0.2,0.2-0.4,0.3c-1.5,0.8-2.7,1.2-3.8,1.2
		c-0.4,0-0.8-0.1-1.3-0.2c-0.4-0.1-0.8-0.3-1.1-0.5c-0.3-0.2-0.7-0.3-1.2-0.5c-0.5-0.2-1-0.2-1.5-0.2c-1.2,0-2.6,0.4-4.2,1.2
		l0.9,6.5c0.1,0.5-0.3,1-0.8,1.1c0,0-0.1,0-0.1,0c-0.5,0-0.9-0.3-0.9-0.8L198.3,23c-0.5-0.3-0.8-0.8-0.8-1.4
		C197.6,20.7,198.3,20,199.2,20z M179.5,19.5c2.9,0,5.2,2.3,5.2,5.2s-2.3,5.2-5.2,5.2s-5.2-2.3-5.2-5.2S176.6,19.5,179.5,19.5z
		 M170.8,35c0-0.1,0-0.2,0-0.3c0.1-1.3,0.6-2.4,1.4-3.3c0,0,0-0.1,0.1-0.1c0.4-0.4,0.9-0.8,1.4-1c0,0,0.1,0,0.1,0
		c0.1,0,0.2-0.1,0.2-0.1c1.5,1.2,3.4,2,5.5,2c2.1,0,4-0.8,5.5-2c1.8,0.7,3.1,2.5,3.2,4.6c0,0.1,0,0.2,0,0.3v5.4c0,0.1,0,0.1-0.1,0.1
		h-16.9c-0.1,0-0.2,0-0.2-0.1V35z"/>
	<path class="st0" d="M0,0v60h350V0H0z M327,46c0,1.1-0.9,2-2,2H25c-1.1,0-2-0.9-2-2V14c0-1.1,0.9-2,2-2h300c1.1,0,2,0.9,2,2V46z"/>
</g>
</svg>
