<?xml version="1.0" encoding="UTF-8" standalone="no"?><!DOCTYPE svg PUBLIC "-//W3C//DTD SVG 1.1//EN" "http://www.w3.org/Graphics/SVG/1.1/DTD/svg11.dtd"><svg width="100%" height="100%" viewBox="0 0 263 90" version="1.1" xmlns="http://www.w3.org/2000/svg" xmlns:xlink="http://www.w3.org/1999/xlink" xml:space="preserve" xmlns:serif="http://www.serif.com/" style="fill-rule:evenodd;clip-rule:evenodd;stroke-linejoin:round;stroke-miterlimit:2;"><rect x="0" y="0" width="262.5" height="90" style="fill:#008ebd;"/><path id="Love" d="M115.251,14.887l-0.953,0c-5.88,0.309 -11.6,3.707 -15.096,8.803c-3.178,4.787 -3.972,10.5 -2.066,15.442c2.225,5.868 7.786,11.118 12.712,15.751c1.113,1.081 2.225,2.162 3.178,3.089c3.496,3.397 6.992,6.64 10.329,9.728c1.907,1.699 3.813,3.552 5.72,5.405l2.066,2.007l2.225,-1.853c6.356,-5.25 12.712,-11.118 18.909,-17.449c0.635,-0.618 1.271,-1.39 2.065,-2.008c4.608,-4.633 10.488,-10.346 11.759,-17.295c0.953,-5.714 -0.477,-11.273 -3.973,-15.288c-3.337,-3.861 -8.262,-6.023 -13.665,-6.023l-0.794,0c-8.581,0.309 -13.666,4.479 -16.685,8.185c-2.86,-3.861 -8.104,-8.494 -15.731,-8.494Z" style="fill:#fff;"/></svg>