<svg id="Ebene_1" xmlns="http://www.w3.org/2000/svg" viewBox="0 0 220 47.4" width="220" height="47.43px"><style>.st0{fill:#282D2F;}</style><path class="st0" d="M43.5 28.2c1.3 1.6 1.9 3.2 1.5 4.5-1.3 4.4-12 5.1-24 1.6C9 30.9.3 24.5 1.6 20.1c.4-1.4 1.7-2.4 3.7-3-.7 2.3-1.1 4.7-.9 7.2 1.5 1.4 3.5 2.8 5.8 4C7.5 19 13 9.2 22.4 6.4c7.7-2.3 15.8.8 20.1 7.1C38 5.3 28.2 1.1 18.8 3.9c-6.6 2-11.4 6.9-13.4 12.9-2.9.6-4.8 1.8-5.3 3.5C-1.2 25 8 31.7 20.7 35.4c7 2 13.6 2.7 18.4 2.1-1.8 1.5-3.9 2.6-6.3 3.3-7.7 2.3-15.6-.7-20-6.9-2.9-1.3-5.4-2.7-7.4-4.1 3.5 10.3 14.6 16.1 25.1 13 3.4-1 6.4-2.9 8.7-5.2 3.8-.5 6.3-1.8 6.9-3.8.5-1.7-.4-3.7-2.5-5.7l-.1.1zm-25.6-7.7v-2.3c-.2-.1-.5-.2-.8-.3-.3-.1-.7-.1-1.1-.1-.4 0-.9.1-1.3.2s-.8.4-1.2.7c-.4.3-.6.7-.9 1.2-.2.5-.3 1.1-.3 1.9 0 .7.1 1.4.3 1.9.2.5.5.9.8 1.2s.7.6 1.2.7c.4.1.9.2 1.4.2.4 0 .8 0 1.1-.1.4-.1.7-.2.9-.4v-2.2h-1.2v1.3c-.2 0-.5.1-.7.1-.3 0-.6-.1-.9-.2-.3-.1-.5-.3-.7-.5-.2-.2-.3-.5-.4-.8-.1-.3-.1-.7-.1-1.1 0-.5.1-.9.2-1.2.1-.3.2-.6.4-.8.2-.2.4-.4.6-.5.2-.1.5-.2.8-.2.2 0 .5 0 .7.1v1.3l1.2-.1zm6.7 1.9c0-.5-.1-.8-.2-1.2-.2-.3-.4-.5-.6-.7-.3-.2-.5-.3-.8-.4-.3-.1-.6-.1-.9-.1-.4 0-.8.1-1.2.2-.4.1-.7.3-.9.5-.3.2-.5.5-.6.9-.3.5-.4.9-.4 1.4 0 .5.1.9.2 1.2s.3.7.6.9c.3.3.6.4.9.6.4.1.8.2 1.3.2.3 0 .5 0 .8-.1.2 0 .5-.1.7-.2.2-.1.4-.2.5-.2.2-.1.3-.2.4-.3l-.5-.9c-.2.1-.4.3-.7.4-.3.1-.6.2-1.1.2-.2 0-.4 0-.6-.1-.2 0-.4-.1-.5-.2s-.3-.2-.4-.4-.1-.4-.1-.6h4c.1-.4.1-.8.1-1.1zm-4.1 0c0-.2.1-.4.2-.5.1-.2.2-.3.3-.4.1-.1.3-.2.5-.2.2-.1.4-.1.5-.1.4 0 .7.1.9.3.2.2.3.5.3.9h-2.7zm8.4-.7c.2-.1.4-.2.7-.2.2 0 .3.1.4.2.1.1.1.3.1.6h1.3c0-.8-.1-1.3-.4-1.6-.3-.3-.6-.5-1-.5s-.7.1-.9.2c-.3.2-.5.4-.7.6l-.2-.7h-2.5v1.2H27v3.1h-1.4v1.2h5.2v-1.2h-2.4v-2.4c.1-.2.3-.4.5-.5zm9 .7c0-.5-.1-.8-.2-1.2-.2-.3-.4-.5-.6-.7-.3-.2-.5-.3-.8-.4-.3-.1-.6-.1-.9-.1-.4 0-.8.1-1.2.2-.4.1-.7.3-1 .5-.3.2-.5.5-.6.9-.2.4-.2.8-.2 1.3s.1.9.2 1.2.3.7.6.9c.3.3.6.4.9.6s.8.2 1.3.2c.3 0 .5 0 .8-.1.2 0 .5-.1.7-.2.2-.1.4-.2.5-.2.2-.1.3-.2.4-.3l-.5-.9c-.2.1-.4.3-.7.4-.3.1-.7.2-1.1.2-.2 0-.4 0-.6-.1s-.4-.1-.5-.2c-.2-.1-.3-.2-.4-.4-.1-.2-.1-.4-.2-.6h4c.1-.3.1-.7.1-1zm-4.1 0c0-.2.1-.4.2-.5.1-.2.2-.3.3-.4.1-.1.3-.2.5-.2s.4-.1.5-.1c.4 0 .7.1.9.3.2.2.3.5.3.9h-2.7zm6.9-2.2c-.3.1-.5.2-.8.3-.2.1-.4.3-.5.5-.1.2-.2.4-.2.7 0 .3.1.6.3.8.2.2.4.4.7.5l.9.3c.3.1.6.2.9.2.3.1.5.2.7.2.2.1.3.2.3.4s-.1.3-.3.4c-.2.1-.4.1-.6.1-.2 0-.4 0-.7-.1-.2-.1-.4-.1-.6-.2-.2-.1-.4-.2-.5-.3-.2-.1-.3-.2-.4-.3l-.7 1c.3.3.7.5 1.1.7.5.2 1 .3 1.6.3.8 0 1.4-.2 1.8-.5.4-.3.6-.8.6-1.3 0-.3-.1-.6-.3-.8-.2-.2-.4-.4-.7-.5l-.9-.3c-.3-.1-.6-.2-.9-.2-.3-.1-.5-.1-.7-.2s-.3-.2-.3-.3c0-.2.1-.3.3-.4.2-.1.4-.1.8-.1.2 0 .3 0 .5.1.2 0 .3.1.5.1.2.1.3.1.5.2.1.1.3.1.4.2l.6-1c-.1-.1-.2-.2-.4-.2-.1-.1-.3-.2-.5-.2-.2-.1-.4-.1-.7-.2-.3-.1-.6-.1-1-.1-.2.1-.5.1-.8.2zM67.4 27.1l-2.6-8.5h-1.9l-2.6 8.5-1.5-8.5h-2.2L59 29.7h2.1l2.7-8.2 2.6 8.2h2.2l2.3-11.1h-2zM74.8 28.1v-3.2h4.7v-1.7h-4.7v-2.9h5.1v-1.7h-7.1v11.1h7.4v-1.6zM88.4 23.7c.9-.5 1.3-1.3 1.3-2.3 0-1.9-1.3-2.8-3.9-2.8h-3.4v11.1h3.5c2.9 0 4.4-1.1 4.4-3.3 0-1.3-.7-2.3-1.9-2.7zm-4-3.5h1.4c1.2 0 1.7.5 1.7 1.5s-.6 1.5-1.7 1.5h-1.4v-3zm1.6 7.9h-1.5v-3.4h1.4c1.5 0 2.2.6 2.2 1.7s-.7 1.7-2.1 1.7zM95.9 23.2c-1.1-.5-2.1-.9-2.1-1.9 0-.7.6-1.2 1.7-1.2.8 0 1.8.3 2.5.5l.5-1.6c-.8-.3-1.9-.6-3-.6-2.4 0-3.7 1.1-3.7 3 0 2.1 1.7 2.8 3 3.4 1.1.5 2.1 1 2.1 2 0 .9-.7 1.4-1.9 1.4-1 0-2-.3-2.9-.7l-.6 1.7c1 .4 2.1.7 3.4.7 2.5 0 4-1.1 4-3.2-.1-2.2-1.9-3-3-3.5zM107.9 23.2H103v-4.6h-2.1v11.1h2.1v-4.8h4.9v4.8h2V18.6h-2zM117.6 18.4c-3.4 0-5.4 2.1-5.4 5.9 0 3.6 1.9 5.6 5.1 5.6 3.4 0 5.4-2.1 5.4-5.9 0-3.5-1.8-5.6-5.1-5.6zm-.2 9.9c-2 0-3.1-1.4-3.1-4 0-2.7 1.1-4.1 3.2-4.1 2 0 3.1 1.4 3.1 4.1 0 2.5-1.1 4-3.2 4zM128.3 18.6H125v11.1h2.1v-4c.5.1 1 .1 1.4.1 2.8 0 4.2-1.3 4.2-3.7 0-2.3-1.5-3.5-4.4-3.5zm0 5.6c-.3 0-.8 0-1.2-.1v-3.9h1c1.6 0 2.4.6 2.4 2 .1 1.4-.7 2-2.2 2zM137.5 20.3h3.5v9.4h2.1v-9.4h3.5v-1.7h-9.1zM150.4 24.9h4.6v-1.7h-4.6v-2.9h5.1v-1.7h-7.2v11.1h7.4v-1.6h-5.3zM167 18.6l-3.5 8.2-3.4-8.2h-1.9l-.8 11.1h1.8l.5-7.1 3.1 7.1h1.3l3.1-7.2.5 7.2h2l-.8-11.1zM175.6 18.6h-3.3v11.1h2.1v-4c.5.1 1 .1 1.4.1 2.8 0 4.2-1.3 4.2-3.7.1-2.3-1.4-3.5-4.4-3.5zm0 5.6c-.3 0-.8 0-1.2-.1v-3.9h1c1.6 0 2.4.6 2.4 2 .1 1.4-.6 2-2.2 2zM184.2 18.6h-2.1v11.1h7.2v-1.6h-5.1zM194 18.6l-4.2 11.1h2.1l1-2.7h4.3l1 2.7h2.2l-4.2-11.1H194zm-.5 6.8l1.6-5 1.6 5h-3.2zM199.7 20.3h3.5v9.4h2.1v-9.4h3.5v-1.7h-9.1zM212.5 28.1v-3.2h4.7v-1.7h-4.7v-2.9h5.2v-1.7h-7.2v11.1h7.4v-1.6z"/></svg>