<?xml version="1.0" encoding="UTF-8" standalone="no"?><!DOCTYPE svg PUBLIC "-//W3C//DTD SVG 1.1//EN" "http://www.w3.org/Graphics/SVG/1.1/DTD/svg11.dtd"><svg width="1700" height="469" viewBox="0 0 408 113" version="1.1" xmlns="http://www.w3.org/2000/svg" xmlns:xlink="http://www.w3.org/1999/xlink" xml:space="preserve" xmlns:serif="http://www.serif.com/" style="fill-rule:evenodd;clip-rule:evenodd;stroke-linejoin:round;stroke-miterlimit:2;"><g id="_-Ebene-" serif:id="(Ebene)"><path d="M406.589,39.666c-0.13,-0.566 -0.276,-1.128 -0.496,-1.661c-0.029,-0.068 -0.054,-0.136 -0.084,-0.201c-0.135,-0.295 -0.243,-0.6 -0.405,-0.876l-0.49,-0.828c-0.717,-1.053 -1.583,-1.954 -2.522,-2.708c-0.135,-0.106 -0.276,-0.206 -0.414,-0.306c-0.105,-0.073 -0.211,-0.146 -0.313,-0.222l-0.363,-0.257l-0.233,-0.135l-0.148,-0.09l-0.761,-0.441l-0.779,-0.384c-2.083,-1.004 -4.267,-1.593 -6.445,-2.005c-2.189,-0.384 -4.377,-0.611 -6.569,-0.668c2.132,0.501 4.242,1.047 6.266,1.791c2.021,0.722 3.98,1.607 5.696,2.752l0.638,0.433l0.593,0.473l0.297,0.233l0.271,0.254c0.181,0.171 0.368,0.333 0.541,0.509c0.138,0.146 0.27,0.297 0.4,0.449c0.436,0.511 0.809,1.052 1.115,1.612c0.043,0.079 0.089,0.155 0.13,0.233l0.265,0.622c0.089,0.206 0.133,0.428 0.2,0.636c0.146,0.42 0.192,0.866 0.244,1.299c0.062,0.876 -0.027,1.767 -0.255,2.651c-0.46,1.77 -1.398,3.499 -2.575,5.1c-1.18,1.602 -2.554,3.117 -4.061,4.527c-3.009,2.825 -6.402,5.333 -9.946,7.627c-7.105,4.578 -14.77,8.39 -22.624,11.729c-3.937,1.656 -7.917,3.225 -11.954,4.637c-4.028,1.434 -8.098,2.768 -12.207,3.958c-4.102,1.218 -8.239,2.316 -12.403,3.277c-4.156,0.99 -8.347,1.815 -12.548,2.521c-8.399,1.383 -16.913,2.235 -25.271,1.875c-2.083,-0.108 -4.155,-0.286 -6.182,-0.603c-2.024,-0.314 -4.002,-0.774 -5.868,-1.407c-1.859,-0.638 -3.588,-1.51 -4.941,-2.651c-1.366,-1.134 -2.267,-2.579 -2.557,-4.275c-0.154,-0.847 -0.138,-1.756 0,-2.681c0.025,-0.163 0.06,-0.328 0.092,-0.49c0.157,-0.768 0.401,-1.542 0.698,-2.311c0.734,-1.869 1.832,-3.668 3.063,-5.389c1.25,-1.713 2.644,-3.361 4.134,-4.927c1.472,-1.594 3.066,-3.079 4.676,-4.564c-3.737,2.275 -7.33,4.872 -10.463,8.103c-0.89,0.925 -1.742,1.91 -2.522,2.968c-0.584,0.793 -1.133,1.623 -1.623,2.508c-0.571,1.036 -1.058,2.148 -1.393,3.349c-0.16,0.588 -0.287,1.196 -0.368,1.821c-0.084,0.65 -0.114,1.315 -0.079,1.992c0.073,1.32 0.401,2.659 0.98,3.877c0.565,1.225 1.358,2.321 2.256,3.255c1.808,1.875 3.972,3.144 6.145,4.131c2.186,0.985 4.431,1.667 6.68,2.2c2.251,0.527 4.51,0.909 6.769,1.155c2.259,0.26 4.516,0.406 6.77,0.487c1.447,0.046 2.889,0.051 4.328,0.03c0.807,-0.011 1.61,-0.027 2.411,-0.052c4.483,-0.132 8.934,-0.565 13.352,-1.144c4.419,-0.59 8.796,-1.396 13.144,-2.324c4.34,-0.961 8.642,-2.073 12.903,-3.312c4.253,-1.271 8.469,-2.662 12.632,-4.207c4.156,-1.569 8.274,-3.241 12.311,-5.114c4.034,-1.875 8.014,-3.879 11.878,-6.12c3.43,-1.967 6.78,-4.091 10.008,-6.42c0.416,-0.3 0.83,-0.603 1.241,-0.912c1.81,-1.334 3.564,-2.762 5.26,-4.264c1.699,-1.504 3.341,-3.09 4.862,-4.819c1.523,-1.72 2.96,-3.563 4.161,-5.614c1.188,-2.045 2.192,-4.315 2.552,-6.839c0.17,-1.259 0.151,-2.573 -0.1,-3.853Z" style="fill:#008ebd;fill-rule:nonzero;"/><path d="M366.727,82.725c-4.037,1.875 -8.155,3.547 -12.308,5.114c-4.166,1.545 -8.382,2.936 -12.635,4.207c-4.261,1.245 -8.563,2.351 -12.903,3.312c-4.345,0.928 -8.728,1.734 -13.144,2.324c-3.582,0.471 -7.183,0.844 -10.806,1.036c8.793,6.358 19.599,10.106 31.282,10.106c24.042,0 44.377,-15.874 51.095,-37.714c-2.824,1.975 -5.735,3.796 -8.703,5.498c-3.864,2.238 -7.847,4.245 -11.878,6.117Zm-55.938,-1.252l0,-6.802l29.859,0c2.207,-0.663 4.404,-1.361 6.591,-2.097c0.056,-0.062 0.113,-0.124 0.167,-0.189c1.261,-1.524 1.891,-3.575 1.891,-6.156c0,-2.343 -0.66,-4.234 -1.977,-5.671c-1.321,-1.434 -3.71,-2.153 -7.167,-2.153l-24.705,0c-3.285,0 -4.924,-1.613 -4.924,-4.835l0,-23.036c0,-3.222 1.639,-4.835 4.924,-4.835l65.229,0c-9.589,-14.336 -25.922,-23.779 -44.464,-23.779c-29.521,0 -53.452,23.931 -53.452,53.452c0,10.07 2.787,19.488 7.63,27.527c6.756,0.167 13.604,-0.428 20.398,-1.426Zm75.283,-45.4c1.959,5.062 3.171,10.498 3.498,16.168c-1.242,0.901 -2.516,1.767 -3.812,2.606c-7.105,4.578 -14.772,8.39 -22.627,11.729c-1.163,0.492 -2.335,0.971 -3.506,1.444c0.03,-0.53 0.046,-1.068 0.046,-1.615c0,-2.343 -0.292,-4.572 -0.88,-6.68c-0.584,-2.11 -1.626,-3.958 -3.119,-5.541c-1.496,-1.583 -3.547,-2.841 -6.155,-3.78c-2.608,-0.936 -5.907,-1.407 -9.892,-1.407l-17.584,0c-0.763,0 -1.141,-0.351 -1.141,-1.055l0,-10.814c0,-0.703 0.378,-1.055 1.141,-1.055l64.031,0Z" style="fill:#008ebd;fill-rule:nonzero;"/><path d="M190.867,35.851c5.509,0 9.495,1.245 11.957,3.736c2.463,2.492 3.694,5.993 3.694,10.506c0,4.28 -1.204,7.576 -3.606,9.892c-2.404,2.316 -6.449,3.474 -12.133,3.474l-22.068,0l0,3.339c0,1.877 0.541,3.417 1.626,4.615c1.084,1.204 2.915,1.805 5.495,1.805l28.399,0l0,9.056l-28.399,0c-2.931,0 -5.407,-0.382 -7.429,-1.145c-2.022,-0.76 -3.693,-1.832 -5.011,-3.209c-1.319,-1.377 -2.273,-2.989 -2.858,-4.835c-0.587,-1.848 -0.879,-3.882 -0.879,-6.112l0,-15.825c0,-2.167 0.292,-4.188 0.879,-6.066c0.585,-1.875 1.539,-3.501 2.858,-4.88c1.318,-1.375 2.989,-2.446 5.011,-3.209c2.022,-0.761 4.498,-1.142 7.429,-1.142l15.035,0Zm65.764,0l0,8.969l-25.674,0c-2.169,0 -3.723,0.438 -4.659,1.318c-0.938,0.879 -1.407,2.197 -1.407,3.955c0,1.642 0.452,2.89 1.364,3.737c0.906,0.852 2.652,1.274 5.23,1.274l10.904,0c3.222,0 5.873,0.352 7.954,1.055c2.081,0.704 3.723,1.642 4.924,2.814c1.201,1.174 2.037,2.551 2.506,4.134c0.468,1.583 0.703,3.282 0.703,5.097c0,2.054 -0.279,3.945 -0.833,5.671c-0.56,1.732 -1.453,3.209 -2.684,4.44c-1.229,1.231 -2.811,2.2 -4.746,2.903c-1.934,0.704 -4.25,1.056 -6.945,1.056l-26.994,0l0,-9.056l26.994,0c2.167,0 3.72,-0.398 4.659,-1.188c0.936,-0.793 1.407,-2.094 1.407,-3.912c0,-1.875 -0.514,-3.209 -1.54,-4.002c-1.025,-0.79 -2.711,-1.185 -5.054,-1.185l-10.99,0c-3.225,0 -5.863,-0.368 -7.914,-1.101c-2.053,-0.73 -3.679,-1.726 -4.881,-2.987c-1.201,-1.261 -2.037,-2.711 -2.505,-4.353c-0.468,-1.64 -0.703,-3.342 -0.703,-5.1c0,-4.161 1.171,-7.457 3.517,-9.892c2.343,-2.43 6.212,-3.647 11.607,-3.647l25.76,0Zm-105.152,0l0,8.969l-16.354,0c-3.986,0 -5.978,1.991 -5.978,5.977l0,31.477l-9.32,0l0,-32.884c0,-4.689 0.952,-8.117 2.858,-10.287c1.904,-2.167 5.143,-3.252 9.715,-3.252l19.079,0Zm-58.643,0c5.509,0 9.496,1.245 11.957,3.736c2.462,2.492 3.693,5.993 3.693,10.506c0,4.28 -1.202,7.576 -3.605,9.892c-2.404,2.316 -6.448,3.474 -12.133,3.474l-22.068,0l0,3.339c0,1.877 0.541,3.417 1.627,4.615c1.083,1.204 2.915,1.805 5.495,1.805l28.398,0l0,9.056l-28.398,0c-2.932,0 -5.407,-0.382 -7.429,-1.145c-2.023,-0.76 -3.693,-1.832 -5.012,-3.209c-1.319,-1.377 -2.272,-2.989 -2.857,-4.835c-0.587,-1.848 -0.88,-3.882 -0.88,-6.112l0,-15.825c0,-2.167 0.293,-4.188 0.88,-6.066c0.585,-1.875 1.538,-3.501 2.857,-4.88c1.319,-1.375 2.989,-2.446 5.012,-3.209c2.021,-0.761 4.497,-1.142 7.429,-1.142l15.034,0Zm-42.113,-12.925l0,10.376l-22.947,0c-5.745,0 -9.921,1.51 -12.529,4.527c-2.609,3.019 -3.912,7.957 -3.912,14.816c0,6.799 1.288,11.707 3.868,14.726c2.579,3.02 6.77,4.527 12.573,4.527l22.947,0l0,10.376l-22.947,0c-8.676,0 -15.313,-2.449 -19.914,-7.343c-4.602,-4.892 -6.902,-12.322 -6.902,-22.286c0,-10.025 2.3,-17.481 6.902,-22.378c4.601,-4.892 11.238,-7.341 19.914,-7.341l22.947,0Zm139.792,33.233c2.519,0 4.293,-0.495 5.319,-1.493c1.025,-0.996 1.539,-2.343 1.539,-4.045c0,-1.759 -0.528,-3.166 -1.583,-4.221c-1.055,-1.055 -2.725,-1.58 -5.011,-1.58l-14.947,0c-2.58,0 -4.411,0.614 -5.495,1.845c-1.085,1.231 -1.626,2.754 -1.626,4.573l0,4.921l21.804,0Zm-98.03,0c2.519,0 4.293,-0.495 5.319,-1.493c1.024,-0.996 1.538,-2.343 1.538,-4.045c0,-1.759 -0.527,-3.166 -1.582,-4.221c-1.055,-1.055 -2.726,-1.58 -5.012,-1.58l-14.946,0c-2.58,0 -4.412,0.614 -5.495,1.845c-1.086,1.231 -1.627,2.754 -1.627,4.573l0,4.921l21.805,0Z" style="fill:#008ebd;fill-rule:nonzero;"/></g></svg>