<?xml version="1.0" encoding="utf-8"?>
<!-- Generator: Adobe Illustrator 16.0.0, SVG Export Plug-In . SVG Version: 6.00 Build 0)  -->
<!DOCTYPE svg PUBLIC "-//W3C//DTD SVG 1.1//EN" "http://www.w3.org/Graphics/SVG/1.1/DTD/svg11.dtd">
<svg version="1.1" id="Ebene_1" xmlns="http://www.w3.org/2000/svg" xmlns:xlink="http://www.w3.org/1999/xlink" x="0px" y="0px"
	 width="177px" height="47.43px" viewBox="0 0 177 47.43" enable-background="new 0 0 177 47.43" xml:space="preserve">
<g>
	<g>
		<path fill="#282D2F" d="M43.486,28.225c1.335,1.599,1.905,3.153,1.507,4.513c-1.276,4.363-12.021,5.079-23.998,1.601
			C9.018,30.858,0.343,24.5,1.62,20.137c0.395-1.351,1.701-2.35,3.666-2.985c-0.736,2.3-1.083,4.74-0.95,7.223
			c1.472,1.371,3.454,2.75,5.826,4.043C7.544,19,12.953,9.181,22.391,6.364c7.726-2.308,15.785,0.781,20.105,7.079
			C37.953,5.28,28.18,1.07,18.837,3.859c-6.563,1.96-11.382,6.928-13.431,12.934c-2.856,0.618-4.769,1.805-5.274,3.536
			c-1.354,4.628,7.847,11.374,20.553,15.065c7.004,2.035,13.605,2.715,18.352,2.143c-1.797,1.47-3.905,2.62-6.272,3.328
			c-7.652,2.286-15.631-0.725-19.98-6.901c-2.862-1.275-5.37-2.682-7.388-4.124C8.901,40.14,19.993,45.904,30.534,42.755
			c3.422-1.021,6.368-2.864,8.701-5.242c3.757-0.486,6.311-1.773,6.909-3.816c0.499-1.706-0.437-3.699-2.454-5.722L43.486,28.225z
			 M17.871,20.514v-2.302c-0.199-0.095-0.453-0.18-0.76-0.254c-0.307-0.074-0.682-0.11-1.126-0.11c-0.422,0-0.852,0.067-1.289,0.204
			c-0.437,0.137-0.833,0.361-1.187,0.675c-0.355,0.314-0.646,0.728-0.871,1.24c-0.226,0.513-0.339,1.147-0.339,1.908
			c0,0.73,0.1,1.351,0.299,1.865c0.201,0.512,0.467,0.93,0.8,1.25c0.333,0.32,0.72,0.553,1.16,0.695
			c0.44,0.145,0.905,0.217,1.394,0.217c0.384,0,0.76-0.049,1.126-0.145c0.367-0.095,0.668-0.227,0.905-0.398v-2.212h-1.221v1.339
			c-0.229,0.045-0.466,0.068-0.711,0.068c-0.341,0-0.643-0.066-0.91-0.195c-0.267-0.128-0.493-0.312-0.678-0.548
			c-0.184-0.236-0.325-0.518-0.42-0.846c-0.096-0.33-0.145-0.693-0.145-1.09c0-0.457,0.052-0.854,0.155-1.19
			c0.104-0.334,0.248-0.614,0.433-0.834c0.185-0.222,0.402-0.385,0.65-0.492c0.247-0.107,0.516-0.16,0.805-0.16
			c0.244,0,0.482,0.018,0.71,0.055v1.261L17.871,20.514L17.871,20.514z M24.599,22.427c0-0.465-0.079-0.848-0.239-1.151
			c-0.158-0.301-0.364-0.543-0.616-0.725c-0.252-0.179-0.527-0.308-0.827-0.38c-0.299-0.074-0.59-0.111-0.871-0.111
			c-0.422,0-0.814,0.061-1.178,0.182c-0.362,0.122-0.678,0.304-0.949,0.547c-0.271,0.245-0.482,0.548-0.638,0.914
			c-0.155,0.365-0.233,0.791-0.233,1.277c0,0.458,0.068,0.865,0.205,1.223c0.137,0.358,0.335,0.664,0.595,0.917
			c0.258,0.256,0.574,0.447,0.948,0.58c0.375,0.133,0.797,0.2,1.272,0.2c0.273,0,0.533-0.022,0.777-0.067
			c0.245-0.043,0.468-0.102,0.672-0.177c0.203-0.071,0.381-0.151,0.533-0.237c0.152-0.084,0.275-0.172,0.372-0.26l-0.478-0.94
			c-0.178,0.149-0.409,0.273-0.693,0.377c-0.285,0.103-0.649,0.155-1.094,0.155c-0.222,0-0.431-0.025-0.627-0.072
			c-0.196-0.047-0.37-0.123-0.522-0.227s-0.274-0.236-0.366-0.398c-0.092-0.162-0.142-0.362-0.149-0.597h3.996
			C24.562,23.088,24.599,22.745,24.599,22.427z M20.525,22.406c0.014-0.188,0.066-0.357,0.155-0.507
			c0.089-0.151,0.202-0.276,0.339-0.378c0.137-0.102,0.29-0.179,0.46-0.23c0.171-0.052,0.352-0.08,0.544-0.08
			c0.415,0,0.723,0.107,0.927,0.321c0.204,0.214,0.305,0.505,0.305,0.875H20.525z M28.868,21.664
			c0.181-0.147,0.42-0.221,0.715-0.221c0.17,0,0.294,0.061,0.372,0.182c0.078,0.122,0.117,0.316,0.117,0.582h1.299
			c0-0.76-0.127-1.303-0.382-1.626c-0.256-0.325-0.606-0.487-1.049-0.487c-0.355,0-0.666,0.081-0.933,0.243
			c-0.266,0.163-0.503,0.366-0.71,0.609h-0.044l-0.167-0.73h-2.498v1.217h1.376v3.099h-1.376v1.217h5.229v-1.217h-2.41v-2.358
			C28.533,21.982,28.687,21.812,28.868,21.664z M37.92,22.427c0-0.465-0.08-0.848-0.238-1.151c-0.16-0.301-0.365-0.543-0.617-0.725
			c-0.251-0.179-0.527-0.308-0.828-0.38c-0.299-0.074-0.59-0.111-0.871-0.111c-0.422,0-0.815,0.061-1.176,0.182
			c-0.363,0.122-0.68,0.304-0.95,0.547c-0.271,0.245-0.484,0.548-0.64,0.914c-0.154,0.365-0.232,0.791-0.232,1.277
			c0,0.458,0.068,0.865,0.205,1.223c0.137,0.358,0.334,0.664,0.594,0.917c0.259,0.256,0.575,0.447,0.949,0.58s0.798,0.2,1.271,0.2
			c0.274,0,0.533-0.022,0.777-0.067c0.244-0.043,0.468-0.102,0.672-0.177c0.203-0.071,0.38-0.151,0.532-0.237
			c0.151-0.084,0.275-0.172,0.372-0.26l-0.478-0.94c-0.177,0.149-0.409,0.273-0.693,0.377c-0.285,0.103-0.65,0.155-1.095,0.155
			c-0.221,0-0.43-0.025-0.626-0.072s-0.37-0.123-0.521-0.227c-0.152-0.104-0.274-0.236-0.366-0.398
			c-0.093-0.162-0.144-0.362-0.15-0.597h3.997C37.884,23.088,37.92,22.745,37.92,22.427z M33.847,22.406
			c0.015-0.188,0.067-0.357,0.156-0.507c0.089-0.151,0.202-0.276,0.338-0.378c0.137-0.102,0.292-0.179,0.461-0.23
			s0.352-0.08,0.543-0.08c0.415,0,0.724,0.107,0.928,0.321c0.203,0.214,0.305,0.505,0.305,0.875H33.847z M40.735,20.172
			c-0.293,0.073-0.543,0.181-0.755,0.326c-0.211,0.145-0.378,0.32-0.5,0.526c-0.123,0.206-0.183,0.447-0.183,0.719
			c0,0.332,0.091,0.603,0.272,0.814c0.181,0.21,0.406,0.383,0.672,0.519c0.267,0.136,0.559,0.245,0.876,0.321
			c0.318,0.077,0.611,0.153,0.878,0.227c0.266,0.074,0.49,0.155,0.671,0.244c0.181,0.089,0.271,0.207,0.271,0.354
			c0,0.192-0.084,0.329-0.255,0.411c-0.17,0.08-0.374,0.121-0.611,0.121c-0.222,0-0.446-0.027-0.671-0.083
			c-0.226-0.056-0.439-0.122-0.639-0.204c-0.2-0.081-0.379-0.172-0.538-0.271c-0.16-0.1-0.287-0.189-0.384-0.271l-0.665,1.041
			c0.28,0.252,0.652,0.471,1.116,0.659c0.462,0.188,1.012,0.281,1.648,0.281c0.806,0,1.416-0.161,1.827-0.481
			c0.409-0.321,0.615-0.762,0.615-1.322c0-0.324-0.09-0.59-0.272-0.795c-0.181-0.207-0.405-0.375-0.671-0.504
			c-0.267-0.13-0.559-0.235-0.877-0.315c-0.318-0.082-0.61-0.157-0.876-0.227c-0.266-0.069-0.491-0.146-0.672-0.227
			s-0.272-0.188-0.272-0.321c0-0.169,0.096-0.294,0.289-0.376c0.191-0.082,0.444-0.122,0.755-0.122c0.17,0,0.342,0.018,0.516,0.055
			c0.175,0.036,0.34,0.085,0.5,0.144c0.159,0.059,0.311,0.123,0.455,0.193c0.145,0.07,0.271,0.138,0.382,0.205l0.611-0.986
			c-0.104-0.073-0.227-0.157-0.372-0.249c-0.145-0.092-0.318-0.175-0.521-0.25c-0.204-0.074-0.442-0.136-0.715-0.188
			c-0.275-0.051-0.593-0.077-0.955-0.077C41.344,20.061,41.028,20.098,40.735,20.172z M63.361,17.589h-3.418v11.675h2.191v-4.176
			c0.472,0.096,1.019,0.133,1.511,0.133c2.91,0,4.364-1.361,4.364-3.854C68.009,18.836,66.479,17.589,63.361,17.589z M63.38,23.501
			c-0.301,0-0.83-0.019-1.246-0.112v-4.043h1.096c1.699,0,2.55,0.68,2.55,2.077C65.78,22.784,64.967,23.501,63.38,23.501z
			 M71.656,17.589h-2.134v11.675h7.535v-1.739h-5.401L71.656,17.589L71.656,17.589z M84.52,25.239c0,1.625-0.868,2.494-2.492,2.494
			c-1.681,0-2.569-0.926-2.569-2.625v-7.519h-2.173v7.536c0,2.854,1.625,4.346,4.61,4.346c3.117,0,4.818-1.549,4.818-4.477v-7.405
			h-2.192L84.52,25.239L84.52,25.239z M93.438,24.616h2.625v2.738c-0.699,0.265-1.434,0.378-2.077,0.378
			c-2.324,0-3.494-1.454-3.494-4.193c0-2.891,1.302-4.42,3.871-4.42c1.229,0,2.381,0.36,3.118,0.643l0.528-1.644
			c-1.153-0.454-2.343-0.737-3.685-0.737c-3.853,0-6.082,2.154-6.082,6.215c0,3.816,1.965,5.875,5.648,5.875
			c1.719,0,3.099-0.452,4.249-1.076v-5.346h-4.702V24.616L93.438,24.616z M100.279,29.263h2.134V17.589h-2.134V29.263z
			 M112.727,25.523l-5.799-7.934h-1.852v11.675h2.061v-8.01l5.817,8.01h1.832V17.589h-2.06V25.523L112.727,25.523z M126.386,27.733
			c-2.305,0-3.306-1.491-3.306-4.25c0-2.853,1.059-4.364,3.362-4.364c0.907,0,1.719,0.246,2.511,0.51l0.549-1.662
			c-0.869-0.359-1.964-0.586-3.116-0.586c-3.646,0-5.534,2.248-5.534,6.253c0,3.91,1.775,5.837,5.402,5.837
			c1.188,0,2.228-0.247,3.306-0.72l-0.511-1.604C128.218,27.448,127.442,27.733,126.386,27.733z M132.866,24.182h4.873v-1.738
			h-4.873v-3.117h5.383v-1.738h-7.518v11.675h7.764v-1.739h-5.629V24.182L132.866,24.182z M148.339,21.046
			c0-2.267-1.531-3.457-4.609-3.457h-3.606v11.675h2.188v-4.383c0.663,0.018,1.286-0.02,1.834-0.076l1.982,4.459h2.589l-2.608-4.93
			C147.583,23.728,148.339,22.633,148.339,21.046z M142.312,23.2v-3.873h1.323c1.682,0,2.474,0.624,2.474,1.794
			C146.108,22.614,144.824,23.313,142.312,23.2z M152.249,24.182h4.874v-1.738h-4.874v-3.117h5.385v-1.738h-7.519v11.675h7.764
			v-1.739h-5.63V24.182L152.249,24.182z M162.981,22.425c-1.154-0.51-2.192-0.963-2.192-2.021c0-0.775,0.605-1.304,1.776-1.304
			c0.851,0,1.908,0.264,2.606,0.567l0.511-1.7c-0.869-0.339-2.022-0.586-3.191-0.586c-2.476,0-3.93,1.116-3.93,3.156
			c0,2.19,1.737,2.965,3.116,3.589c1.153,0.509,2.191,1.019,2.191,2.133c0,0.945-0.718,1.436-1.945,1.436
			c-1.04,0-2.114-0.358-3.003-0.735l-0.604,1.775c1.057,0.414,2.246,0.698,3.552,0.698c2.644,0,4.229-1.115,4.229-3.306
			C166.098,23.748,164.208,22.954,162.981,22.425z"/>
	</g>
</g>
</svg>
