<?xml version="1.0" encoding="utf-8"?>
<!-- Generator: Adobe Illustrator 16.0.0, SVG Export Plug-In . SVG Version: 6.00 Build 0)  -->
<!DOCTYPE svg PUBLIC "-//W3C//DTD SVG 1.1//EN" "http://www.w3.org/Graphics/SVG/1.1/DTD/svg11.dtd">
<svg version="1.1" id="Ebene_1" xmlns="http://www.w3.org/2000/svg" xmlns:xlink="http://www.w3.org/1999/xlink" x="0px" y="0px"
	 width="264.543px" height="62.361px" viewBox="0 0 264.543 62.361" enable-background="new 0 0 264.543 62.361"
	 xml:space="preserve">
<g>
	<g>
		<path fill="#282D2F" d="M66.737,38.712c2.048,2.452,2.922,4.839,2.312,6.926c-1.958,6.696-18.448,7.795-36.829,2.455
			C13.84,42.752,0.527,32.995,2.486,26.3c0.607-2.073,2.611-3.606,5.627-4.581c-1.131,3.529-1.662,7.274-1.458,11.085
			c2.258,2.104,5.3,4.22,8.94,6.204C11.577,24.555,19.879,9.487,34.362,5.162c11.857-3.541,24.225,1.199,30.855,10.865
			C58.246,3.499,43.246-2.962,28.909,1.319C18.837,4.326,11.442,11.95,8.297,21.168c-4.383,0.949-7.318,2.771-8.094,5.426
			c-2.079,7.103,12.043,17.455,31.542,23.12c10.749,3.123,20.881,4.167,28.164,3.288c-2.757,2.256-5.993,4.022-9.625,5.108
			c-11.744,3.507-23.989-1.112-30.664-10.592c-4.392-1.957-8.24-4.115-11.339-6.329c5.379,15.809,22.401,24.654,38.578,19.823
			c5.252-1.568,9.773-4.398,13.353-8.046c5.766-0.746,9.686-2.722,10.603-5.856c0.766-2.62-0.671-5.678-3.765-8.782L66.737,38.712z
			 M27.427,26.878v-3.532c-0.307-0.146-0.696-0.276-1.167-0.39c-0.472-0.114-1.047-0.17-1.729-0.17
			c-0.648,0-1.307,0.104-1.977,0.313c-0.67,0.211-1.278,0.555-1.822,1.036c-0.545,0.481-0.992,1.116-1.337,1.902
			c-0.347,0.787-0.52,1.762-0.52,2.928c0,1.121,0.153,2.074,0.459,2.862c0.308,0.785,0.717,1.426,1.228,1.918
			c0.511,0.493,1.104,0.848,1.78,1.067c0.676,0.222,1.389,0.334,2.139,0.334c0.59,0,1.167-0.075,1.729-0.222
			c0.563-0.146,1.025-0.35,1.389-0.611v-3.396h-1.875v2.056c-0.352,0.068-0.715,0.103-1.09,0.103c-0.523,0-0.988-0.1-1.397-0.298
			s-0.756-0.479-1.04-0.842c-0.283-0.362-0.499-0.794-0.646-1.298c-0.147-0.505-0.222-1.063-0.222-1.673
			c0-0.701,0.08-1.31,0.239-1.826c0.159-0.514,0.38-0.942,0.664-1.281c0.284-0.34,0.616-0.591,0.997-0.755
			c0.379-0.164,0.792-0.246,1.235-0.246c0.375,0,0.739,0.028,1.09,0.084v1.936H27.427z M37.751,29.815
			c0-0.713-0.122-1.301-0.366-1.766c-0.244-0.463-0.56-0.834-0.946-1.112c-0.387-0.276-0.809-0.473-1.269-0.584
			c-0.459-0.114-0.906-0.17-1.337-0.17c-0.648,0-1.25,0.093-1.807,0.279c-0.556,0.187-1.041,0.467-1.456,0.84
			c-0.415,0.375-0.741,0.841-0.98,1.401c-0.238,0.561-0.357,1.215-0.357,1.96c0,0.703,0.104,1.328,0.315,1.878
			c0.21,0.549,0.514,1.019,0.912,1.408c0.397,0.392,0.882,0.687,1.456,0.89c0.574,0.205,1.223,0.308,1.951,0.308
			c0.42,0,0.818-0.035,1.193-0.103c0.375-0.067,0.718-0.157,1.031-0.272c0.312-0.11,0.585-0.233,0.818-0.364
			c0.232-0.13,0.422-0.263,0.57-0.399l-0.732-1.443c-0.274,0.228-0.628,0.42-1.065,0.578s-0.996,0.238-1.678,0.238
			c-0.341,0-0.662-0.038-0.963-0.109c-0.301-0.073-0.568-0.191-0.801-0.349c-0.233-0.158-0.42-0.363-0.562-0.611
			c-0.141-0.248-0.218-0.556-0.23-0.917h6.133C37.694,30.828,37.751,30.302,37.751,29.815z M31.5,29.782
			c0.021-0.289,0.102-0.548,0.238-0.779c0.136-0.231,0.309-0.424,0.52-0.58c0.21-0.156,0.445-0.274,0.707-0.354
			s0.54-0.122,0.835-0.122c0.636,0,1.11,0.165,1.423,0.493c0.312,0.329,0.469,0.775,0.469,1.342H31.5z M44.303,28.644
			c0.277-0.227,0.644-0.34,1.098-0.34c0.261,0,0.451,0.094,0.571,0.28c0.119,0.187,0.179,0.485,0.179,0.893h1.994
			c0-1.166-0.196-1.999-0.587-2.496c-0.393-0.498-0.93-0.747-1.61-0.747c-0.545,0-1.022,0.124-1.432,0.373
			c-0.408,0.249-0.772,0.56-1.09,0.934h-0.068l-0.255-1.12h-3.833v1.867h2.112v4.755h-2.112v1.867h8.025v-1.867h-3.698v-3.618
			C43.789,29.131,44.024,28.871,44.303,28.644z M58.195,29.815c0-0.713-0.122-1.301-0.365-1.766
			c-0.246-0.463-0.56-0.834-0.947-1.112c-0.386-0.276-0.809-0.473-1.27-0.584c-0.459-0.114-0.905-0.17-1.337-0.17
			c-0.647,0-1.25,0.093-1.805,0.279c-0.557,0.187-1.042,0.467-1.457,0.84c-0.416,0.375-0.742,0.841-0.981,1.401
			c-0.237,0.561-0.356,1.215-0.356,1.96c0,0.703,0.104,1.328,0.314,1.878c0.211,0.549,0.513,1.019,0.912,1.408
			c0.398,0.392,0.883,0.687,1.457,0.89c0.574,0.205,1.224,0.308,1.951,0.308c0.42,0,0.817-0.035,1.192-0.103
			c0.375-0.067,0.719-0.157,1.032-0.272c0.312-0.11,0.584-0.233,0.817-0.364c0.232-0.13,0.423-0.263,0.571-0.399l-0.733-1.443
			c-0.272,0.228-0.627,0.42-1.064,0.578s-0.997,0.238-1.679,0.238c-0.339,0-0.661-0.038-0.962-0.109
			c-0.302-0.073-0.568-0.191-0.801-0.349c-0.233-0.158-0.42-0.363-0.562-0.611c-0.142-0.248-0.219-0.556-0.23-0.917h6.134
			C58.139,30.828,58.195,30.302,58.195,29.815z M51.944,29.782c0.022-0.289,0.102-0.548,0.238-0.779
			c0.137-0.231,0.31-0.424,0.519-0.58c0.21-0.156,0.447-0.274,0.708-0.354c0.261-0.08,0.54-0.122,0.834-0.122
			c0.636,0,1.111,0.165,1.424,0.493c0.312,0.329,0.468,0.775,0.468,1.342H51.944z M62.515,26.353
			c-0.449,0.111-0.834,0.278-1.158,0.5c-0.324,0.222-0.58,0.491-0.767,0.806c-0.188,0.317-0.282,0.686-0.282,1.104
			c0,0.509,0.14,0.925,0.417,1.249c0.279,0.323,0.623,0.588,1.032,0.797c0.41,0.209,0.857,0.375,1.345,0.493
			s0.938,0.235,1.347,0.348c0.409,0.113,0.752,0.237,1.031,0.374c0.277,0.136,0.416,0.316,0.416,0.542
			c0,0.296-0.129,0.505-0.391,0.631c-0.261,0.122-0.574,0.186-0.937,0.186c-0.341,0-0.685-0.043-1.031-0.128
			c-0.346-0.085-0.673-0.188-0.98-0.313c-0.306-0.124-0.582-0.264-0.826-0.416c-0.244-0.154-0.44-0.29-0.589-0.417l-1.021,1.597
			c0.43,0.386,1.001,0.723,1.712,1.012c0.709,0.288,1.553,0.432,2.529,0.432c1.238,0,2.173-0.247,2.804-0.739
			c0.629-0.493,0.944-1.169,0.944-2.029c0-0.498-0.139-0.905-0.417-1.221c-0.278-0.317-0.622-0.576-1.031-0.773
			c-0.409-0.199-0.857-0.36-1.346-0.484c-0.489-0.125-0.937-0.241-1.346-0.348c-0.408-0.107-0.753-0.224-1.031-0.348
			c-0.278-0.124-0.417-0.29-0.417-0.493c0-0.26,0.148-0.452,0.443-0.577c0.294-0.125,0.681-0.187,1.158-0.187
			c0.262,0,0.525,0.028,0.792,0.085c0.268,0.055,0.522,0.13,0.767,0.22c0.244,0.09,0.477,0.189,0.698,0.297
			c0.223,0.107,0.417,0.212,0.587,0.314l0.938-1.512c-0.159-0.112-0.349-0.241-0.571-0.382c-0.222-0.141-0.488-0.268-0.8-0.382
			c-0.313-0.113-0.679-0.209-1.098-0.289c-0.422-0.079-0.909-0.118-1.466-0.118C63.449,26.183,62.964,26.239,62.515,26.353z
			 M97.239,22.39h-5.247v17.916h3.363v-6.407c0.725,0.146,1.565,0.203,2.319,0.203c4.464,0,6.697-2.088,6.697-5.914
			C104.371,24.303,102.023,22.39,97.239,22.39z M97.268,31.463c-0.463,0-1.275-0.029-1.913-0.173v-6.204h1.682
			c2.608,0,3.913,1.043,3.913,3.188C100.95,30.362,99.703,31.463,97.268,31.463z M109.969,22.39h-3.276v17.916h11.564v-2.668h-8.289
			V22.39z M129.71,34.13c0,2.494-1.332,3.827-3.825,3.827c-2.58,0-3.943-1.421-3.943-4.029V22.39h-3.334v11.566
			c0,4.378,2.493,6.668,7.073,6.668c4.784,0,7.394-2.377,7.394-6.871V22.39h-3.364V34.13z M143.397,33.174h4.029v4.203
			c-1.072,0.406-2.202,0.58-3.188,0.58c-3.567,0-5.362-2.232-5.362-6.436c0-4.436,1.998-6.783,5.941-6.783
			c1.884,0,3.652,0.551,4.784,0.986l0.811-2.522c-1.769-0.696-3.595-1.131-5.653-1.131c-5.913,0-9.335,3.305-9.335,9.538
			c0,5.856,3.016,9.016,8.669,9.016c2.637,0,4.754-0.694,6.521-1.652v-8.204h-7.218V33.174z M153.894,40.305h3.275V22.39h-3.275
			V40.305z M172.998,34.565l-8.899-12.175h-2.841v17.916h3.161V28.014l8.927,12.292h2.812V22.39h-3.159V34.565z M193.961,37.957
			c-3.537,0-5.074-2.289-5.074-6.523c0-4.377,1.624-6.696,5.16-6.696c1.392,0,2.638,0.376,3.854,0.782l0.841-2.551
			c-1.333-0.551-3.014-0.899-4.781-0.899c-5.596,0-8.494,3.45-8.494,9.596c0,6,2.725,8.958,8.29,8.958
			c1.826,0,3.421-0.378,5.074-1.103l-0.783-2.464C196.772,37.521,195.583,37.957,193.961,37.957z M203.906,32.507h7.479V29.84
			h-7.479v-4.783h8.261V22.39H200.63v17.916h11.914v-2.668h-8.639V32.507z M227.65,27.695c0-3.479-2.348-5.305-7.073-5.305h-5.535
			v17.916h3.359V33.58c1.018,0.028,1.974-0.029,2.814-0.116l3.043,6.842h3.972l-4.002-7.566
			C226.491,31.811,227.65,30.13,227.65,27.695z M218.401,31v-5.942h2.031c2.579,0,3.796,0.956,3.796,2.753
			C224.228,30.101,222.258,31.174,218.401,31z M233.653,32.507h7.479V29.84h-7.479v-4.783h8.262V22.39h-11.537v17.916h11.915v-2.668
			h-8.64V32.507z M250.123,29.811c-1.771-0.783-3.364-1.479-3.364-3.102c0-1.189,0.929-2,2.726-2c1.304,0,2.928,0.405,4,0.87
			l0.783-2.609c-1.334-0.521-3.104-0.899-4.899-0.899c-3.798,0-6.029,1.711-6.029,4.842c0,3.362,2.666,4.551,4.781,5.508
			c1.77,0.782,3.364,1.564,3.364,3.274c0,1.45-1.102,2.203-2.985,2.203c-1.596,0-3.246-0.55-4.61-1.129l-0.927,2.724
			c1.623,0.637,3.448,1.073,5.45,1.073c4.058,0,6.492-1.711,6.492-5.073C254.904,31.841,252.004,30.623,250.123,29.811z"/>
	</g>
</g>
</svg>
