<?xml version="1.0" encoding="utf-8"?>
<!-- Generator: Adobe Illustrator 16.0.0, SVG Export Plug-In . SVG Version: 6.00 Build 0)  -->
<!DOCTYPE svg PUBLIC "-//W3C//DTD SVG 1.1//EN" "http://www.w3.org/Graphics/SVG/1.1/DTD/svg11.dtd">
<svg version="1.1" id="Ebene_1" xmlns="http://www.w3.org/2000/svg" xmlns:xlink="http://www.w3.org/1999/xlink" x="0px" y="0px"
	 width="1379.338px" height="352.629px" viewBox="0 0 1379.338 352.629" enable-background="new 0 0 1379.338 352.629"
	 xml:space="preserve">
<g>
	<g>
		<path fill="#000333" d="M20.407,240.801H2.743V126.425h52.302v16.29H20.407v30.867h25.721v16.289H20.407V240.801z"/>
		<path fill="#000333" d="M88.691,240.801H71.027V126.425h27.607c10.461,0,17.148,2.057,22.636,6.859
			c6.86,5.83,10.289,14.575,10.289,25.894c0,14.404-5.145,24.35-15.433,29.667l16.805,51.957h-18.519l-15.091-46.983h-10.63V240.801
			z M95.208,177.524c7.543,0,10.974-0.856,13.718-3.601c2.917-2.914,4.289-7.542,4.289-13.888c0-6.174-1.372-10.805-4.289-13.72
			c-2.742-2.745-6.173-3.602-13.718-3.602h-6.516v34.811H95.208L95.208,177.524z"/>
		<path fill="#000333" d="M211.269,204.449c0,12.86-1.886,20.578-6.516,27.094c-5.144,7.202-13.718,10.974-24.692,10.974
			s-19.55-3.771-24.693-10.974c-4.63-6.516-6.516-14.233-6.516-27.094v-41.67c0-12.86,1.886-20.578,6.516-27.095
			c5.144-7.202,13.719-10.974,24.693-10.974s19.548,3.772,24.692,10.974c4.63,6.517,6.516,14.235,6.516,27.095V204.449z
			 M166.513,204.105c0,9.087,0.514,12.176,2.227,15.605c2.059,3.771,6.346,6.173,11.318,6.173c4.974,0,9.26-2.401,11.318-6.173
			c1.888-3.601,2.227-6.347,2.227-15.605v-40.984c0-9.26-0.339-12.003-2.227-15.604c-2.059-3.773-6.344-6.173-11.318-6.173
			c-4.974,0-9.261,2.399-11.318,6.173c-1.713,3.428-2.227,6.517-2.227,15.604V204.105z"/>
		<path fill="#000333" d="M293.72,240.801h-15.775l-30.867-76.137v76.137h-16.804V126.425h17.833l28.809,71.163v-71.163h16.805
			v114.376H293.72z"/>
		<path fill="#000333" d="M349.096,240.801h-17.663v-98.087h-22.122v-16.29h62.077v16.29h-22.292V240.801z"/>
		<path fill="#000333" d="M438.769,142.714h-34.126v30.182h25.208v16.29h-25.208v35.326h34.126v16.289h-51.79V126.425h51.79V142.714
			z"/>
		<path fill="#000333" d="M518.884,240.801h-15.777l-30.866-76.137v76.137h-16.805V126.425h17.835l28.808,71.163v-71.163h16.805
			V240.801z"/>
		<path fill="#000333" d="M538.814,126.425h27.951c22.463,0,33.096,11.488,33.096,35.839v42.699
			c0,24.351-10.633,35.838-33.096,35.838h-27.951V126.425z M565.221,224.512c12.519,0,16.976-6.517,16.976-24.352v-33.095
			c0-18.005-4.458-24.351-16.976-24.351h-8.745v81.798H565.221z"/>
	</g>
	<path fill="#000333" d="M1331.205,232.075l-560.456,67.171l16.476,28.292l538.366-84.272
		C1326.997,239.797,1328.895,235.743,1331.205,232.075"/>
	<path fill="#000333" d="M805.632,105.631c-1.047,15.365-11.038,25.076-24.405,33.98c-11.601,7.737-23.356,10.227-23.503,10.271
		c-0.012-0.026-0.024-0.042-0.04-0.064c-0.005,0-0.075,0.01-0.075,0.01s0.02-0.075,0.025-0.097
		c-0.131-0.191-0.256-0.394-0.382-0.595c-0.163-0.246-0.317-0.493-0.475-0.741c-0.801-1.253-7.839-11.175-8.145-24.501
		c-0.134-5.815,1.097-11.632,2.875-16.775c0.804-2.638,1.909-5.19,3.264-7.608c1.631-3.089,5.413-7.6,5.688-7.849
		c5.845-6.343,13.519-10.756,21.495-11.594c5.565-0.583,10.496,0.648,14.389,3.256c0.228,0.08,1.042,0.746,1.286,0.958
		c0.89,0.711,1.714,1.488,2.467,2.341C803.097,89.755,806.362,94.967,805.632,105.631 M814.5,111.186
		c1.671-12.364-0.151-23.742-10.447-35.473c-9.079-10.336-25.353-9.725-29.099-9.433c-1.026,0.102-2.083,0.3-3.123,0.453
		c-5.067,1.034-16.069,4.398-25.919,13.452c-11.612,10.677-17.683,24.417-20.068,39.538c-1.763,11.151,0.364,21.866,1.959,27.746
		c0.406,1.296,0.801,2.606,1.291,3.833c0.026,0.265,0.275,0.698,0.301,0.963c-3.641-0.677-6.843-1.531-9.598-2.562
		c-4.418-1.684-11.1-6.527-11.1-6.527s-8.663-5.106-11.989-18.123c-3.319-13.009-0.812-16.639,1.213-20.445
		c0,0,5.732-9.429-0.363-16.372c-5.359-6.107-11.57-5.284-14.607-4.727c-3.46,1.03-6.136,3.076-7.97,6.199
		c-1.249,1.984-2.255,4.038-3.02,6.167c-0.771,2.137-1.372,4.284-1.81,6.446c-0.416,2.298-0.68,4.5-0.791,6.633
		c-0.101,2.127-0.109,4.309-0.003,6.547c0.45,4.321,1.418,8.487,2.904,12.499c1.47,4.015,3.323,7.755,5.539,11.229
		c1.112,1.738,2.308,3.36,3.593,4.883c1.281,1.521,2.66,2.995,4.133,4.428c1.592,1.287,3.182,2.54,4.769,3.762
		c1.579,1.223,3.147,2.287,4.699,3.177c3.391,2.028,6.929,3.64,10.629,4.843c1.783,0.604,3.56,1.111,5.319,1.521
		c1.763,0.414,3.588,0.783,5.481,1.112c3.088,0.466,6.19,0.708,9.297,0.708c3.111,0.006,6.176-0.084,9.203-0.271
		c1.78,3.121,3.737,6.023,5.876,8.713c2.138,2.684,4.332,5.3,6.582,7.843c1.198,1.325,2.456,2.583,3.771,3.771
		c1.315,1.186,2.643,2.431,3.965,3.75c0.726,0.585,10.816,9.121,11.108,9.352c0.571,0.47,1.087,0.91,1.529,1.329
		c0.44,0.421,0.887,0.864,1.329,1.349c0.898,0.966,1.76,1.935,2.587,2.903c0.832,0.979,1.631,1.946,2.396,2.923
		c0.938,1.326,1.75,2.703,2.506,4.091c2.884,4.399,4.513,9.675,4.408,15.515c-0.307,17.666-16.088,33.615-35.248,35.627
		c-0.523,0.058-2.582,0.27-3.105,0.324c-8.708,0.92-16.578-1.624-22.236-6.445c-0.247-0.181-2.651-2.469-3.518-3.641
		c-0.738-0.941-1.394-1.947-1.992-2.987c-0.554-0.81-1.018-1.657-1.326-2.579c-0.042-0.134-0.089-0.271-0.136-0.404
		c-1.254-3.046-1.976-6.399-1.976-9.988c0-1.148,0.105-2.023,0.224-3.404c1.082-16.951,16.779-28.177,17.281-28.604
		c0.605-0.529,5.506-4.258,5.506-4.258c1.237-0.788,1.583-1.954,1.023-3.48c-0.344-0.762-0.862-1.297-1.558-1.621
		c-0.7-0.33-1.425-0.313-2.18,0.025c-6.587,2.814-12.419,6.469-17.505,10.977c-2.808,2.281-5.251,4.85-7.327,7.716l-3.098,4.488
		c-0.577,0.858-1.049,1.673-1.434,2.438c-0.39,0.771-0.79,1.636-1.217,2.605c-0.31,0.825-0.65,1.654-1.029,2.492
		c-0.372,0.833-0.712,1.729-1.008,2.689c-0.166,0.94-0.367,1.854-0.604,2.738c-0.237,0.89-0.444,1.804-0.604,2.746
		c-0.78,3.921-0.962,7.846-0.555,11.767c0.206,1.965,0.581,3.946,1.118,5.937c0.545,1.996,1.233,3.874,2.084,5.637
		c1.562,3.546,3.784,7.014,6.654,10.415c0.841,0.932,1.794,1.729,2.701,2.563c4.944,4.553,19.473,13.435,38.633,11.355
		c20.259-2.069,41.957-14.131,51.393-30.612c2.009-3.517,3.645-7.461,4.91-11.826c1.257-4.366,1.948-8.543,2.057-12.526
		c0.112-3.975-0.265-8.173-1.125-12.583c-0.846-4.282-2.062-8.318-3.652-12.122c-1.886-4.033-3.913-7.593-6.084-10.676
		c-2.485-3.44-4.984-6.481-7.505-9.135c-1.353-1.442-2.748-2.75-4.188-3.924c-0.448-0.482-1.182-1.134-2.189-1.954
		c-0.164-0.249-3.91-3.162-3.91-3.162c-0.291-0.236-4.431-3.768-5.007-4.238c-1.029-0.953-2.059-1.937-3.09-2.951
		c-1.037-1.014-2.074-2.067-3.111-3.145c-0.593-0.6-3.729-3.854-3.729-3.854s9.889-3.299,22.057-10.206
		c9.61-5.452,21.137-17.008,26.39-27.72c0.408-0.909,0.864-1.805,1.216-2.729c0-0.011,0.004-0.017,0.007-0.026
		c0.504-1.289,0.856-2.638,1.21-3.982C814.311,112.191,814.434,111.679,814.5,111.186 M1188.944,81.039
		c3.049-3.694,4.326-7.962,3.814-12.809c-0.508-4.833-2.639-8.753-6.392-11.734c-3.756-2.979-7.991-4.22-12.701-3.721
		c-4.841,0.506-8.753,2.603-11.741,6.296c-2.99,3.688-4.225,7.949-3.719,12.792c0.509,4.848,2.613,8.754,6.296,11.743
		c3.69,2.985,7.953,4.223,12.794,3.715C1182.005,86.833,1185.89,84.735,1188.944,81.039 M1137.808,218.583
		c0-0.021-0.006-0.094-0.006-0.094l-0.003,0.107C1137.8,218.598,1137.802,218.585,1137.808,218.583 M1340.156,195.034
		c-0.408,0.506-0.871,0.9-1.314,1.343c-0.136,0.134-0.207,0.31-0.356,0.442c-0.067,0.05-0.15,0.093-0.214,0.142
		c-6.142,5.632-14.956,5.956-21.266,2.384c-6.746-3.821-9.275-18.405-8.307-27.031c0.968-8.626,14.146-42.35,14.146-42.35
		l0.699-2.268c0,0,0.076,2.184,2.437,14.283c2.369,12.098,12.834,23.969,15.165,31.222
		C1343.471,180.467,1346.241,187.518,1340.156,195.034 M1278.419,145.886c0.965,17.072-5.395,29.011-5.395,29.011
		s-8.613-6.131-11.754-15.177c-2.791-8.042-3.394-18.661-1.141-27.232c1.893-7.23,6.282-10.142,10.42-9.376
		C1274.852,123.911,1277.5,129.731,1278.419,145.886 M1262.167,188.565c0.681,0.197,1.263,0.396,1.747,0.61
		c0.489,0.215,1.065,0.414,1.754,0.609c0.017,0.131-0.047,0.2-0.173,0.216c-1.014,1.694-2.112,3.265-3.278,4.716
		c-0.589,0.724-1.205,1.442-1.856,2.172c-0.65,0.737-1.331,1.469-2.053,2.202c-2.643,2.534-5.517,4.818-8.605,6.859
		c-2.974,1.9-6.079,3.221-9.309,3.959c-0.395,0.037-0.779,0.11-1.17,0.225c-0.383,0.105-0.773,0.178-1.166,0.224l-2.354,0.24
		l-0.591,0.062l-0.585,0.061c-0.28-0.099-0.61-0.133-1.011-0.091c-0.651,0.065-1.381,0.013-2.193-0.166
		c-1.355-0.253-2.513-0.599-3.487-1.025c-0.552-0.208-1.007-0.456-1.366-0.75c-0.363-0.287-0.758-0.607-1.192-0.966
		c-0.306-0.364-0.607-0.758-0.916-1.189c-0.314-0.432-0.628-0.896-0.942-1.393c-0.674-1.383-1.146-2.656-1.394-3.823
		c-0.8-2.56-1.194-5.694-1.187-9.402c-0.064-1.842-0.019-3.633,0.131-5.371c0.142-1.733,0.32-3.538,0.52-5.413
		c1.207-7.405,3.238-14.498,6.101-21.285c1.359-3.451,2.986-6.8,4.899-10.043c0.111-0.144,0.199-0.286,0.252-0.424
		c0.048-0.135,0.139-0.272,0.254-0.429l0.246,2.361c0.312,3.013,0.864,5.731,1.652,8.16c0.797,2.561,1.859,5.098,3.18,7.606
		c0.327,0.625,0.691,1.253,1.093,1.872c0.396,0.621,0.755,1.241,1.087,1.87c0.145,0.116,0.256,0.241,0.338,0.361
		c0.076,0.123,0.191,0.248,0.335,0.362l0.021,0.201l0.019,0.193l0.204-0.021l0.252,0.567c0.607,0.73,1.055,1.216,1.348,1.451
		c3.355,4.277,7.314,7.962,11.879,11.056c1.127,0.675,2.32,1.312,3.573,1.901C1259.469,187.491,1260.786,188.046,1262.167,188.565
		 M1102.812,124.175l2.045-20.689c1.608-17.361,7.978-43.035,9.313-48.172c1.238-4.78,5.533-17.675,10.009-18.396
		c-0.003-0.111,0.39-0.017,0.39-0.017c0.217,0,0.432-0.003,0.647,0.055c2.881,0.818,3.326,7.274,1.251,18.775
		c-0.078,0.808-1.562,8.385-1.768,8.937c-1.002,4.336-2.139,8.625-3.41,12.859c-0.264,0.86-1.916,6.296-2.511,8.241
		C1111.075,110.904,1102.812,124.175,1102.812,124.175 M1076.135,177.649c-0.046,0.202-3.074,7.564-3.074,7.564
		c-0.553,1.123-4.32,10.087-4.784,11.278c-9.269,23.822-23.786,40.414-32.437,37.052c-8.648-3.367-8.148-25.41,1.121-49.231
		c9.257-23.829,23.783-40.413,32.429-37.05c3.161,1.23,5.086,4.974,5.824,10.367C1075.638,158.219,1076.177,177.45,1076.135,177.649
		 M844.25,154.48c0.029-0.927,0.071-1.791,0.121-2.588c0.046-0.802,0.156-1.672,0.321-2.62c0.375-2.682,0.724-5.395,1.031-8.144
		c0.302-2.743,0.641-5.455,1.03-8.146l8.221-1.061c-0.631,1.52-1.305,3.014-2.014,4.48c-0.705,1.462-1.372,2.956-2.007,4.476
		c-1.078,2.367-2.158,4.664-3.248,6.894C846.617,150.003,845.465,152.239,844.25,154.48 M860.494,119.013l-11.938,0.942
		c0,0,5.91-35.946,12.407-48.502c6.489-12.561,8.614-7.833,8.939-7.115c0.403,0.893,2.179,4.382,1.307,12.446
		c-0.673,6.227-6.202,28-8.329,34.478C861.047,116.848,860.494,119.013,860.494,119.013 M1361.708,171.511
		c-0.148-0.869-0.238-1.782-0.42-2.637c-0.044-0.221-0.086-0.452-0.128-0.657c-0.442-1.976-1.051-3.826-1.65-5.685
		c-1.505-4.087-3.752-9.113-5.554-13.529l-0.055-0.053l-0.02-0.144c-0.764-1.888-1.447-3.661-1.936-5.181
		c-2.092-6.502-1.566-16.398-1.226-19.096c0.344-2.688,3.062-6.572,3.913-14.787c0.856-8.215-7.891-15.58-17.75-14.236
		c-9.86,1.353-12.341,16.42-12.341,16.42l-22.021,52.207c0,0-0.532,0.842-3.981,3.703c-5.538,4.599-10.068,6.452-12.693,7.198
		c-0.033,0.004-0.06,0.029-0.09,0.034c-0.651,0.137-2.479,0.617-2.479,0.617c0.055-0.081,0.534-1.061,3.294-13.153
		c2.993-13.128,5.195-27.901-0.95-43.193c-4.939-12.317-18.963-11.823-24.244-11.158c-0.675,0.151-1.375,0.294-2,0.477l-0.019,0.16
		c0,0-0.05-0.096-0.131-0.233c-0.732-0.889-1.562-1.658-2.458-2.355c-3.498-1.776-13.384-5.117-27.501,4.812
		c-20.82,13.762-30.503,60.721-30.503,60.721s-0.212,0.961-10.953,17.717c-10.743,16.761-20.605,27.014-25.477,29.711
		c-4.88,2.705-5.467,1.518-6.312-12.46c-0.843-13.979,11.369-55.429,14.297-66.21c2.938-10.778,3.152-16.113-3.018-21.249
		c-6.161-5.135-15.894-2.55-20.73,7.959c-4.432,9.643-9.947,56.458-10.832,64.131c-0.02,0.428-0.049,0.854-0.068,1.275
		c-0.135,0.386-0.234,0.724-0.389,1.121c-1.548,4.136-3.313,8.09-5.294,11.869c-0.858,1.946-1.829,3.764-2.906,5.468
		c-1.076,1.695-2.258,3.348-3.546,4.939c-1.294,1.593-2.569,2.982-3.832,4.175c-1.26,1.191-2.582,2.187-3.953,2.998
		c-1.496,0.817-2.896,1.362-4.195,1.624l-1.764,0.187l-0.393,0.046l-0.197,0.017l-0.197,0.021l-0.218-0.174l-0.433-0.349
		l-0.479-0.751c-0.726-0.581-1.367-1.707-1.938-3.365c-0.663-1.25-1.231-2.914-1.713-4.98c-0.576-1.655-0.97-3.531-1.189-5.627
		c-0.469-1.944-0.809-3.914-1.023-5.947c-0.21-2.031-0.429-4.088-0.649-6.183c-0.094-2.107-0.213-4.214-0.366-6.316
		c-0.155-2.095-0.286-4.267-0.391-6.513c0.045-2.113-0.011-4.227-0.165-6.332c-0.157-2.094-0.097-7.532-0.176-8.318
		c0,0,6.141-16.157,6.908-18.287c0.77-2.133,12.328-37.379,14.04-43c2.202-7.267,9.426-35.217,9.426-35.217
		c1.062-5.505,6.604-27.107,3.845-38.536c-0.328-1.349-0.775-2.484-1.303-3.478c-0.106-0.166-0.168-0.295-0.283-0.477
		c-0.062-0.108-0.128-0.187-0.186-0.294c-4.15-6.509-12.469-4.828-14.598-4.274c-2.16,0.564-8.586,3.008-15.396,11.912
		c-0.295,0.4-0.583,0.807-0.881,1.21c-0.807,1.127-1.624,2.293-2.438,3.615c-7.396,12.06-13.587,34.214-14.399,37.189
		c-0.135,0.545-0.253,1.094-0.385,1.637c-0.309,1.444-0.959,4.506-2.314,11.11c-2.537,12.301-5.623,46.15-5.623,46.15l-0.026-0.04
		l0.031,0.114l-0.078-0.07c0,0.025,0,0.051-0.006,0.077c-0.117-0.143-0.217-0.242-0.327-0.366l-1.223-1.076
		c0,0-5.673-4.91-10.689-5.791c-4.779-0.833-9.829-0.475-17.772,3.119c-0.684,0.323-1.351,0.662-1.97,1.023
		c-0.505,0.296-0.979,0.554-1.448,0.815c-0.24,0.145-0.477,0.252-0.72,0.411c-0.145,0.108-0.296,0.187-0.44,0.284
		c-7.761,5.325-15.919,14.555-20.998,24.302c-5.206,8.892-9.218,28.271-9.635,31.079c-0.007,0.042-0.01,0.099-0.015,0.141
		c-0.003,0.011-0.011,0.016-0.012,0.021c-0.002,0.028-0.012,0.079-0.015,0.1c-0.139,1.255-0.956,2.574-1.458,3.303
		c-0.064,0.128-0.109,0.265-0.185,0.387c-0.667,1.098-4.355,6.843-8.76,13.377c-0.448,0.689-0.93,1.356-1.351,2.069
		c-0.347,0.479-0.699,0.961-1.045,1.442c-1.941,2.835-3.938,5.684-5.817,8.26c-7.101,9.734-15.218,18.014-20.024,16.952
		c-4.795-1.06-1.703-23.733,0.875-36.353c2.58-12.614,9.353-35.131,9.353-35.131l0.03,0.013c1.77-6.444,3.173-11.527,3.173-11.527
		s2.359-9.19-0.22-13.372c-1.934-3.307-4.743-5.49-8.429-6.559c-1.707-0.494-3.376-0.634-5.005-0.485
		c-0.686,0.15-1.39,0.308-2.152,0.511c-0.723,0.194-1.38,0.41-1.994,0.65c-0.44,0.204-0.895,0.365-1.334,0.625
		c-0.689,0.398-1.301,0.867-1.894,1.346c-2.82,2.628-4.463,7.543-7.118,18.214c-3.955,15.889-7.134,42.165-7.95,52.256
		c-0.815,10.083-10.589,22.678-10.589,22.678c-0.938,1.187-5.505,6.507-5.549,6.554c-7.727,8.344-11.572,8.994-15.812,7.333
		c-0.938-0.296-1.724-1.346-2.317-2.438c-0.084-0.097-0.606-1.386-0.606-1.386c-0.384-1.134-0.639-2.512-0.8-4.093
		c-0.037-0.325-0.054-0.697-0.076-1.066c-0.396-6.617,1.011-16.381,4.197-27.391c5.502-19.023,11.472-35.118,15.544-45.398
		c2.717-6.836,2.856-11.001,2.657-13.058c-0.196-0.78-0.427-1.563-0.768-2.346c-1.571-3.669-4.158-6.241-7.751-7.722
		c-3.743-1.592-7.488-1.624-11.228-0.105c-0.461,0.186-0.851,0.437-1.278,0.657c-8.724,4.613-15.951,35.109-17.883,43.422
		c-1.936,8.33-5.823,32.335-15.474,47.573c-9.652,15.239-17.057,22.109-27.369,16.167c-10.323-5.95-13.372-46.888-12.291-49.976
		c0.027-0.059,0.066-0.184,0.1-0.293c0-0.014,0-0.024,0-0.033c-0.005-0.022,0.027-0.016,0.027-0.033
		c2-5.861,23.269-68.521,23.269-68.521l86.963-11.713c0.771-0.209,1.423-0.618,1.959-1.204c0.53-0.581,0.748-1.333,0.656-2.252
		c-0.093-0.909-0.473-1.636-1.122-2.159c-0.648-0.526-1.369-0.758-2.154-0.671l-83.529,6.006l0.085-0.347l-0.016,0.003
		c0,0,0.06-0.238,0.154-0.606l0.606-2.515l0.847-3.262l0.199-0.799c3.71-12.46,8.62-32.678,7.477-44.277
		c-0.894-11.47-10.08-14.1-14.477-13.586c-3.036,0.359-10.061,1.71-18.467,13.142c-7.01,9.177-12.066,21.604-14.671,29.304
		c-1.007,3.162-2.034,6.324-2.946,9.505c-1.304,4.571-2.44,9.224-3.396,13.956c-0.091,0.399-0.18,0.84-0.254,1.316
		c-0.088,0.473-0.176,0.905-0.262,1.312l-2.771,15.183c-0.218,1.739-0.432,3.449-0.652,5.124c-0.223,1.683-0.448,3.323-0.671,4.939
		c-0.989,9.5-1.586,18.956-1.78,28.372c-0.032,4.763,0.039,9.52,0.202,14.264c0.172,4.751,0.437,9.486,0.807,14.211
		c0.372,4.855,0.981,9.691,1.819,14.495c0.831,4.804,2.035,9.632,3.606,14.49c4.609,13.519,14.692,34.216,33.587,35.383
		c0.492,0.021,0.866,0.054,1.33,0.084c0.835,0.026,1.63,0.017,2.35-0.062c0.783-0.086,1.573-0.167,2.354-0.247
		c0.774-0.214,8.736-0.523,16.072-8.042c0.957-0.958,2.034-2.266,2.984-3.291c0.933-1.157,1.776-2.237,2.538-3.243
		c0.747-1.003,1.466-2.068,2.14-3.199c0.681-1.134,1.316-2.256,1.936-3.381c0.604-1.122,1.179-2.242,1.728-3.358l1.269-3.046
		c0.013,0.059,0.026,0.115,0.037,0.173l0.015-0.107c0,0,6.768,22.734,24.902,21.294c0,0,6.179,0.068,12.833-3.272
		c0.084-0.046,0.178-0.082,0.265-0.132c0.28-0.144,0.565-0.318,0.852-0.474c1.181-0.665,2.301-1.377,3.32-2.176
		c0.092-0.061,0.183-0.145,0.27-0.226c1.097-0.875,2.104-1.822,3.003-2.855c0.756-0.821,1.437-1.628,2.106-2.435
		c0.582-0.793,1.132-1.643,1.65-2.549c8.065-14.118,8.673-16.509,8.673-16.509v0.014c0.031-0.131,0.111,0.529,0.319,1.759
		l0.454,2.318c1.414,6.396,5.39,18.038,15.979,20.839c14.789,3.915,24.814-10.732,27.168-13.641
		c2.354-2.903,12.433-21.467,14.087-25.082c1.647-3.611,2.404-5.41,2.404-5.41s2.046,16.508,8.912,26.885
		c6.002,7.961,16.378,13.829,29.475,4.56c0,0,10.636-8.074,19.325-28.756l8.791-21.534c0.123-0.401,0.241-0.75,0.333-0.996l0,0
		c0,0.009,0,0.016,0,0.021c0.005,0.008,0.011,0.068,0.025,0.103l0.053-0.131l-0.039,0.223c0.414,2.076,4.067,20.295,5.832,25.19
		c1.873,5.195,7.723,22.161,21.74,24.675c5.083,0.909,9.793-0.278,13.891-2.395c0.164-0.083,0.329-0.154,0.492-0.243
		c6.949-3.752,12.043-10.138,13.947-13.309c3.059-5.086,4.151-7.316,4.151-7.316s0.016,0.054,0.022,0.062
		c0-0.005,0-0.005,0.009-0.008c0.17,0.498,0.325,1.04,0.495,1.56c0.91,2.639,3.105,7.971,6.969,11.661
		c5.303,5.072,17.108,7.348,25.813,0.264c8.713-7.089,14.847-17.895,18.103-24.098l8.557-17.737l0.088-0.361
		c0,0,0.018,0.135,0.028,0.214c0.017-0.044,0.036-0.094,0.061-0.136c0.022,0.33,0.042,0.657,0.065,0.982
		c0.863,5.821,6.368,35.733,28.288,37.521c24.267,1.98,38.885-16.59,42.521-22.129c3.344-5.09,8.77-16.241,8.77-16.241
		s0.326,0.122,6.221-1.745c5.898-1.869,15.258-8.002,15.265-7.875c0.011-0.012,0.037-0.022,0.054-0.028
		c0.007-0.023,0.015-0.032,0.027-0.042c0,0.006,0,0.016,0,0.019c0.168-0.1,0.224-0.121,0.224-0.121s-0.191,2.062-0.107,3.454
		c0.201,3.413,1.77,10.911,1.77,10.911c4.366,13.287,12.552,16.81,18.408,19.005c5.856,2.2,20.61,4.271,33.417-7.731
		C1363.268,196.143,1362.909,180.185,1361.708,171.511"/>
</g>
</svg>
