<?xml version="1.0" encoding="iso-8859-1"?>
<!-- Generator: Adobe Illustrator 16.0.0, SVG Export Plug-In . SVG Version: 6.00 Build 0)  -->
<!DOCTYPE svg PUBLIC "-//W3C//DTD SVG 1.1//EN" "http://www.w3.org/Graphics/SVG/1.1/DTD/svg11.dtd">
<svg version="1.1" id="Ebene_1" xmlns="http://www.w3.org/2000/svg" xmlns:xlink="http://www.w3.org/1999/xlink" x="0px" y="0px"
	 width="264.544px" height="62.361px" viewBox="0 0 264.544 62.361" style="enable-background:new 0 0 264.544 62.361;"
	 xml:space="preserve">
<g>
	<g>
		<path style="fill:#D51317;" d="M15.454,6.595c-3.578,1.632-6.645,3.564-8.995,5.706c-5.575,4.938-7.208,10.947-6.16,18.6
			c0.975,6.16,3.639,11.635,7.542,16.163c0,0,0.084,0.055,0.067,0.035l6.503-34.453C14.751,10.85,15.454,6.595,15.454,6.595
			 M41.555,12.301c0-3.372-1.383-6.916-5.446-6.916c-4.667,0-8.991,5.272-10.546,13.571l-1.556,9.076
			c1.383,1.297,3.285,2.075,5.706,2.075C36.369,30.107,41.555,20.598,41.555,12.301 M54.54,8.624
			c-0.146-0.17-0.105-0.104-0.105-0.104c0.111,0.923,0.173,1.866,0.173,2.828c0,14.695-9.768,28.181-24.463,28.181
			c-3.458,0-6.397-0.864-7.867-1.728h-0.173l-3.437,17.78l0.124,0.098c3.805,2.005,8.032,3.47,12.537,4.307
			c7.963,1.133,13.472-0.66,17.966-5.933c4.532-5.087,7.802-13.408,9.384-23.445C59.876,20.892,58.813,13.611,54.54,8.624"/>
		<path style="fill:#90B9DB;" d="M261.005,16.461c1.531,0,2.66,1.239,2.66,2.795s-1.129,2.817-2.66,2.796
			c-1.533,0-2.684-1.24-2.684-2.796s1.149-2.795,2.659-2.795H261.005z M261.005,15.739c-1.963,0-3.541,1.556-3.541,3.517
			c0,1.962,1.578,3.539,3.541,3.539c1.982,0,3.539-1.576,3.539-3.539c0-1.961-1.557-3.517-3.517-3.517H261.005z M260.464,18.083
			c0.09,0,0.226-0.021,0.451-0.021c0.519,0,0.743,0.203,0.743,0.519c0,0.36-0.359,0.52-0.812,0.52h-0.385v-1.017H260.464z
			 M260.442,19.684h0.384c0.449,0,0.674,0.158,0.741,0.541c0.092,0.428,0.159,0.722,0.271,0.856h0.789
			c-0.067-0.136-0.135-0.338-0.246-0.856c-0.113-0.474-0.271-0.767-0.631-0.879v-0.046c0.403-0.112,0.742-0.405,0.742-0.812
			c0-0.337-0.156-0.608-0.359-0.744c-0.248-0.18-0.543-0.292-1.172-0.292c-0.566,0-0.972,0.067-1.264,0.113v3.517h0.744
			L260.442,19.684L260.442,19.684z M247.701,41.616c0.812,0.656,2.319,1.082,3.713,1.082c3.055,0,5.604-1.817,5.604-5.568
			c0-2.59-1.7-4.291-3.865-5.684c-1.856-1.275-2.321-1.972-2.321-3.248c0-1.199,0.812-2.358,2.438-2.358
			c0.967,0,1.776,0.349,2.474,0.812l0.812-2.243c-0.772-0.464-1.894-0.967-3.362-0.967c-2.9,0-5.143,2.166-5.143,5.181
			c0,2.166,1.313,3.75,3.748,5.335c1.896,1.277,2.397,2.243,2.397,3.673c0,1.664-1.042,2.707-2.743,2.707
			c-1.197,0-2.358-0.541-3.018-0.967L247.701,41.616z M239.736,20.582v3.169h-2.281v2.282h2.281V36.86
			c0,2.591,0.387,3.865,1.121,4.716c0.735,0.812,1.779,1.122,2.938,1.122c0.968,0,1.664-0.116,2.205-0.311l-0.116-2.279
			c-0.35,0.077-0.733,0.115-1.198,0.115c-1.083,0-1.973-0.657-1.973-3.095V26.033h3.597v-2.282h-3.597v-4.367L239.736,20.582z
			 M227.171,31.177c0.115-2.553,1.123-5.413,3.055-5.413c1.43,0,2.859,1.663,2.784,5.413H227.171z M235.832,33.38
			c0.039-0.464,0.039-0.966,0.039-1.664c0-4.251-1.508-8.272-5.336-8.272c-3.751,0-6.303,3.789-6.303,9.859
			c0,5.724,2.32,9.396,6.807,9.396c1.467,0,3.054-0.311,4.098-0.89l-0.465-2.204c-0.734,0.426-1.816,0.733-3.092,0.733
			c-2.166,0-4.408-1.236-4.446-6.959L235.832,33.38L235.832,33.38z M215.071,15.71h-2.979v26.755h2.979v-7.073l1.042-1.74
			l4.062,8.813h3.323l-5.373-10.824l4.948-7.889h-3.21l-3.711,6.612c-0.349,0.618-0.656,1.352-1.005,2.087h-0.076V15.71z
			 M201.731,42.465h2.978V32.105c0-0.619,0.039-1.2,0.116-1.702c0.31-2.165,1.701-3.905,3.595-3.905c0.231,0,0.426,0,0.619,0.039
			v-3.055c-0.193,0-0.388-0.039-0.619-0.039c-1.738,0-3.324,1.469-3.942,3.248h-0.078l-0.153-2.939h-2.668
			c0.038,1.395,0.154,3.249,0.154,4.833L201.731,42.465L201.731,42.465z M194.655,36.589c0,0.31,0,0.696-0.077,1.043
			c-0.348,1.856-1.468,2.823-2.783,2.823c-1.043,0-2.28-0.889-2.28-3.325c0-4.06,3.597-4.329,5.142-4.329L194.655,36.589
			L194.655,36.589z M197.594,30.132c0-4.213-1.623-6.688-5.374-6.688c-1.856,0-3.596,0.658-4.368,1.237l0.656,2.088
			c0.889-0.581,1.934-0.967,3.095-0.967c2.357,0,2.977,1.738,2.977,4.253v0.58c-4.216,0.038-7.967,2.125-7.967,6.804
			c0,3.21,1.937,5.338,4.448,5.338c1.585,0,2.899-0.853,3.711-2.282h0.116l0.193,1.971h2.705c-0.192-1.196-0.192-2.82-0.192-4.252
			V30.132z M163.725,42.465h2.938V30.596c0-0.58,0.041-1.121,0.117-1.624c0.348-1.973,1.583-3.017,2.781-3.017
			c2.205,0,2.591,2.165,2.591,4.253v12.256h2.939V30.441c0-0.62,0.038-1.199,0.114-1.702c0.426-1.74,1.51-2.784,2.746-2.784
			c2.281,0,2.629,2.358,2.629,4.794v11.714h2.938V30.053c0-4.756-1.972-6.612-4.485-6.612c-0.967,0-1.854,0.23-2.59,0.735
			c-0.697,0.464-1.354,1.198-1.855,2.127h-0.076c-0.696-2.012-2.166-2.862-3.905-2.862c-1.972,0-3.403,1.122-4.215,2.629h-0.077
			l-0.154-2.321h-2.591c0.037,1.51,0.154,2.63,0.154,4.833V42.465L163.725,42.465z"/>
		<path style="fill:#058EC2;" d="M145.939,23.56l5.182,17.515c0.077,0.23,0.153,0.463,0.153,0.696c0,0.271-0.114,0.464-0.271,0.812
			c-0.349,0.812-0.891,1.584-1.586,2.243c-0.771,0.696-1.623,1.274-2.512,1.584l1.547,4.37c0.772-0.232,2.707-1.123,4.291-2.979
			c2.049-2.435,3.287-6.107,4.215-9.663l3.864-14.577h-4.948l-1.586,9.896c-0.153,1.044-0.309,2.127-0.461,3.095h-0.078
			c-0.156-1.005-0.312-2.051-0.504-3.171l-1.855-9.819L145.939,23.56L145.939,23.56z M134.844,20.195v3.365h-2.243v3.595h2.243
			v8.932c0,2.977,0.58,4.406,1.624,5.413c0.889,0.852,2.165,1.197,3.634,1.197c1.353,0,2.396-0.154,3.092-0.347l-0.037-3.945
			c-0.426,0.078-0.813,0.116-1.315,0.116c-1.005,0-1.933-0.541-1.933-2.744v-8.623h3.711V23.56h-3.711v-4.95L134.844,20.195z
			 M116.247,42.465h5.064V30.944c0-0.734,0.117-1.354,0.271-1.74c0.348-1.122,1.043-1.702,1.894-1.702
			c1.469,0,1.857,1.547,1.857,3.133v11.83h5.064v-12.14c0-4.213-1.431-7.075-5.026-7.075c-1.972,0-3.596,0.968-4.601,2.476h-0.078
			l-0.232-2.165h-4.369c0.04,1.777,0.155,3.595,0.155,5.683L116.247,42.465L116.247,42.465z M104.3,31.253
			c0.04-1.894,0.696-4.331,2.359-4.331c1.508,0,2.125,1.896,2.125,4.331H104.3z M113.231,34.812
			c0.116-0.542,0.154-1.277,0.154-2.631c0-5.723-2.358-8.932-6.418-8.932c-4.292,0-7.579,3.79-7.579,10.13
			c0,5.916,2.823,9.317,7.965,9.317c1.934,0,3.906-0.347,5.22-0.85l-0.696-3.636c-0.889,0.31-2.165,0.618-3.595,0.618
			c-2.243,0-3.943-1.082-4.021-4.02h8.97V34.812z M91.348,42.465h5.065V15.71h-5.065V42.465z M79.092,30.479
			c0-0.463,0.039-0.966,0.232-1.354c0.194-0.89,0.928-1.625,1.702-1.625c1.508,0,2.358,1.935,2.358,5.53
			c0,2.976-0.618,5.605-2.397,5.605c-0.58,0-1.237-0.311-1.624-1.471c-0.193-0.387-0.271-0.966-0.271-1.622V30.479z M74.027,49.89
			h5.065v-8.972h0.078c0.542,0.891,1.585,1.856,3.132,1.856c3.17,0,6.146-3.055,6.146-9.783c0-5.219-1.701-9.743-5.876-9.743
			c-1.74,0-3.17,0.929-3.944,2.476H78.55l-0.27-2.164h-4.407c0.078,1.777,0.154,3.711,0.154,5.992V49.89z"/>
		<path style="fill:#FFFFFF;" d="M41.555,12.301c0,8.298-5.186,17.807-11.843,17.807c-2.421,0-4.322-0.778-5.705-2.075l1.556-9.077
			c1.555-8.299,5.878-13.57,10.545-13.57C40.172,5.385,41.555,8.929,41.555,12.301 M54.608,11.349c0-0.964-0.062-1.906-0.173-2.828
			c-0.116-0.133-0.224-0.272-0.345-0.402c-4.472-5.15-12.059-7.439-22.567-6.162c-5.926,0.908-11.437,2.525-16.084,4.646
			c-0.335,2.148-0.687,4.246-1.026,6.042L7.908,47.1c2.948,3.404,6.595,6.27,10.759,8.484l3.438-17.782h0.172
			c1.47,0.862,4.41,1.729,7.867,1.729C44.84,39.53,54.608,26.045,54.608,11.349"/>
	</g>
</g>
</svg>
