<?xml version="1.0" encoding="iso-8859-1"?>
<!-- Generator: Adobe Illustrator 16.0.0, SVG Export Plug-In . SVG Version: 6.00 Build 0)  -->
<!DOCTYPE svg PUBLIC "-//W3C//DTD SVG 1.1//EN" "http://www.w3.org/Graphics/SVG/1.1/DTD/svg11.dtd">
<svg version="1.1" id="Ebene_1" xmlns="http://www.w3.org/2000/svg" xmlns:xlink="http://www.w3.org/1999/xlink" x="0px" y="0px"
	 width="283.46px" height="62.361px" viewBox="0 0 283.46 62.361" style="enable-background:new 0 0 283.46 62.361;"
	 xml:space="preserve">
<g>
	<g>
		<path style="fill:#D51317;" d="M15.454,6.595c-3.578,1.632-6.645,3.565-8.995,5.706c-5.575,4.939-7.208,10.948-6.16,18.6
			c0.975,6.16,3.639,11.635,7.542,16.163c0,0,0.084,0.055,0.067,0.035l6.503-34.453C14.751,10.85,15.454,6.595,15.454,6.595
			 M41.555,12.3c0-3.372-1.383-6.916-5.446-6.916c-4.667,0-8.991,5.273-10.546,13.572l-1.556,9.076
			c1.383,1.297,3.285,2.075,5.706,2.075C36.369,30.107,41.555,20.598,41.555,12.3 M54.54,8.624c-0.146-0.17-0.105-0.104-0.105-0.104
			c0.111,0.923,0.173,1.866,0.173,2.828c0,14.696-9.768,28.181-24.463,28.181c-3.458,0-6.397-0.864-7.867-1.728h-0.173
			l-3.437,17.781l0.124,0.097c3.805,2.005,8.032,3.47,12.537,4.307c7.963,1.133,13.472-0.66,17.966-5.933
			c4.532-5.087,7.802-13.408,9.384-23.445C59.876,20.892,58.813,13.611,54.54,8.624"/>
		<path style="fill:#90B9DB;" d="M261.005,16.461c1.532,0,2.66,1.239,2.66,2.795c0,1.555-1.128,2.817-2.66,2.795
			c-1.533,0-2.683-1.24-2.683-2.795c0-1.556,1.149-2.795,2.659-2.795H261.005z M261.005,15.739c-1.962,0-3.54,1.556-3.54,3.517
			c0,1.961,1.578,3.539,3.54,3.539c1.983,0,3.539-1.577,3.539-3.539c0-1.961-1.556-3.517-3.516-3.517H261.005z M260.464,18.083
			c0.09,0,0.226-0.022,0.452-0.022c0.518,0,0.743,0.203,0.743,0.519c0,0.36-0.36,0.519-0.812,0.519h-0.384V18.083z M260.442,19.684
			h0.384c0.449,0,0.674,0.158,0.741,0.541c0.092,0.428,0.159,0.722,0.271,0.857h0.789c-0.068-0.136-0.135-0.338-0.247-0.857
			c-0.113-0.473-0.271-0.766-0.631-0.879V19.3c0.404-0.112,0.743-0.405,0.743-0.811c0-0.337-0.157-0.608-0.36-0.744
			c-0.248-0.18-0.542-0.292-1.172-0.292c-0.566,0-0.971,0.067-1.263,0.113v3.517h0.744V19.684z M247.701,41.616
			c0.812,0.656,2.319,1.082,3.712,1.082c3.055,0,5.605-1.817,5.605-5.568c0-2.59-1.7-4.291-3.865-5.684
			c-1.856-1.275-2.321-1.972-2.321-3.248c0-1.199,0.812-2.358,2.438-2.358c0.967,0,1.777,0.348,2.474,0.812l0.811-2.243
			c-0.772-0.464-1.894-0.967-3.362-0.967c-2.901,0-5.143,2.166-5.143,5.181c0,2.166,1.314,3.75,3.749,5.335
			c1.896,1.277,2.397,2.243,2.397,3.673c0,1.664-1.042,2.707-2.744,2.707c-1.197,0-2.358-0.541-3.017-0.967L247.701,41.616z
			 M239.736,20.582v3.169h-2.281v2.282h2.281V36.86c0,2.591,0.387,3.865,1.121,4.716c0.735,0.812,1.779,1.122,2.938,1.122
			c0.967,0,1.663-0.116,2.204-0.311l-0.116-2.279c-0.349,0.077-0.733,0.115-1.198,0.115c-1.083,0-1.972-0.657-1.972-3.094V26.033
			h3.596v-2.282h-3.596v-4.368L239.736,20.582z M227.171,31.176c0.116-2.552,1.123-5.413,3.055-5.413c1.43,0,2.86,1.663,2.784,5.413
			H227.171z M235.832,33.38c0.039-0.464,0.039-0.966,0.039-1.664c0-4.251-1.508-8.273-5.336-8.273c-3.751,0-6.303,3.789-6.303,9.859
			c0,5.724,2.32,9.396,6.806,9.396c1.468,0,3.054-0.311,4.098-0.89l-0.464-2.204c-0.735,0.426-1.817,0.734-3.093,0.734
			c-2.165,0-4.408-1.237-4.446-6.959H235.832z M215.071,15.71h-2.979v26.755h2.979v-7.074l1.042-1.74l4.061,8.814h3.324
			l-5.373-10.825l4.948-7.888h-3.21l-3.711,6.612c-0.349,0.618-0.657,1.352-1.005,2.087h-0.076V15.71z M201.731,42.465h2.977v-10.36
			c0-0.619,0.039-1.2,0.117-1.702c0.309-2.165,1.701-3.905,3.595-3.905c0.231,0,0.425,0,0.619,0.039v-3.055
			c-0.194,0-0.388-0.039-0.619-0.039c-1.739,0-3.325,1.469-3.943,3.248h-0.078l-0.153-2.939h-2.668
			c0.038,1.394,0.154,3.249,0.154,4.833V42.465z M194.655,36.589c0,0.309,0,0.696-0.077,1.043c-0.348,1.856-1.468,2.823-2.783,2.823
			c-1.044,0-2.281-0.889-2.281-3.325c0-4.06,3.597-4.33,5.142-4.33V36.589z M197.594,30.132c0-4.213-1.623-6.689-5.374-6.689
			c-1.856,0-3.596,0.658-4.368,1.237l0.656,2.088c0.889-0.581,1.934-0.967,3.095-0.967c2.358,0,2.976,1.739,2.976,4.253v0.58
			c-4.215,0.039-7.966,2.125-7.966,6.804c0,3.21,1.936,5.338,4.448,5.338c1.585,0,2.9-0.852,3.711-2.282h0.116l0.194,1.971h2.705
			c-0.193-1.197-0.193-2.821-0.193-4.252V30.132z M163.725,42.465h2.938V30.596c0-0.58,0.041-1.121,0.118-1.624
			c0.348-1.972,1.583-3.016,2.781-3.016c2.205,0,2.591,2.165,2.591,4.253v12.256h2.939V30.441c0-0.62,0.039-1.199,0.115-1.702
			c0.425-1.74,1.509-2.784,2.745-2.784c2.282,0,2.63,2.358,2.63,4.794v11.714h2.938v-12.41c0-4.755-1.971-6.612-4.485-6.612
			c-0.967,0-1.855,0.231-2.59,0.735c-0.697,0.464-1.354,1.199-1.856,2.127h-0.076c-0.696-2.011-2.166-2.862-3.905-2.862
			c-1.972,0-3.403,1.122-4.215,2.629h-0.077l-0.154-2.321h-2.591c0.037,1.509,0.154,2.63,0.154,4.833V42.465z"/>
		<path style="fill:#058EC2;" d="M145.939,23.56l5.182,17.515c0.077,0.23,0.153,0.463,0.153,0.696c0,0.271-0.114,0.464-0.27,0.812
			c-0.349,0.812-0.891,1.584-1.586,2.243c-0.771,0.696-1.623,1.274-2.512,1.584l1.547,4.37c0.772-0.232,2.706-1.123,4.29-2.979
			c2.049-2.434,3.288-6.107,4.215-9.663l3.865-14.577h-4.948l-1.586,9.896c-0.154,1.044-0.309,2.127-0.462,3.094h-0.078
			c-0.156-1.004-0.311-2.05-0.503-3.17l-1.856-9.82H145.939z M134.844,20.195v3.365h-2.243v3.595h2.243v8.932
			c0,2.976,0.58,4.406,1.624,5.413c0.889,0.851,2.165,1.197,3.634,1.197c1.353,0,2.396-0.154,3.092-0.347l-0.037-3.945
			c-0.426,0.078-0.814,0.116-1.315,0.116c-1.005,0-1.933-0.541-1.933-2.744v-8.623h3.711V23.56h-3.711V18.61L134.844,20.195z
			 M116.247,42.465h5.064V30.944c0-0.734,0.117-1.353,0.271-1.74c0.348-1.122,1.043-1.702,1.894-1.702
			c1.469,0,1.857,1.547,1.857,3.132v11.831h5.064v-12.14c0-4.213-1.431-7.075-5.026-7.075c-1.972,0-3.596,0.967-4.601,2.475h-0.078
			l-0.232-2.165h-4.369c0.04,1.778,0.155,3.595,0.155,5.683V42.465z M104.3,31.253c0.04-1.894,0.696-4.331,2.359-4.331
			c1.508,0,2.125,1.895,2.125,4.331H104.3z M113.231,34.812c0.116-0.542,0.154-1.277,0.154-2.631c0-5.722-2.358-8.931-6.418-8.931
			c-4.292,0-7.579,3.79-7.579,10.13c0,5.916,2.823,9.317,7.965,9.317c1.934,0,3.906-0.347,5.22-0.85l-0.696-3.635
			c-0.889,0.309-2.165,0.618-3.595,0.618c-2.243,0-3.943-1.082-4.021-4.02H113.231z M91.348,42.465h5.065V15.71h-5.065V42.465z
			 M79.092,30.479c0-0.463,0.039-0.966,0.232-1.353c0.194-0.89,0.928-1.625,1.702-1.625c1.508,0,2.358,1.934,2.358,5.53
			c0,2.976-0.618,5.605-2.397,5.605c-0.58,0-1.237-0.31-1.624-1.47c-0.193-0.387-0.271-0.966-0.271-1.622V30.479z M74.027,49.89
			h5.065v-8.971h0.078c0.542,0.89,1.585,1.856,3.132,1.856c3.17,0,6.147-3.055,6.147-9.783c0-5.219-1.701-9.743-5.876-9.743
			c-1.74,0-3.17,0.928-3.944,2.475H78.55L78.28,23.56h-4.407c0.078,1.778,0.154,3.711,0.154,5.992V49.89z"/>
		<g>
			<path style="fill:#878787;" d="M283.465,59.293c0-0.087-0.014-0.174-0.101-0.333c-0.098-0.187-0.369-0.385-0.643-0.385
				c-0.21,0-0.332,0.014-0.407,0.1c-0.062,0.075-0.111,0.185-0.124,0.309c-0.012,0.124-0.073,0.248-0.159,0.334
				c-0.05,0.05-0.101,0.161-0.101,0.246c0,0.063,0.025,0.174,0.101,0.284c0.21,0.322,0.48,0.434,0.618,0.434
				c0.185,0,0.318,0,0.456-0.111c0.111-0.088,0.185-0.186,0.259-0.396C283.402,59.662,283.465,59.392,283.465,59.293
				 M278.905,60.429c0.952,0,1.458-0.938,2.088-1.617c0.123-0.137,0.247-0.187,0.247-0.346c0-0.198-0.323-0.284-0.421-0.284
				c-0.568,0-1.173,1.05-1.717,1.382c-0.061,0.038-0.137,0.05-0.211,0.05c-0.109,0-0.21-0.036-0.246-0.148
				c-0.05-0.16-0.062-0.309-0.062-0.455c0-0.544,0.271-1.014,0.47-1.521c0.729-1.928,2.024-3.583,3.149-5.399
				c0.075-0.125,0.124-0.272,0.124-0.433c0-0.123-0.026-0.234-0.099-0.345c-0.062-0.087-0.197-0.137-0.32-0.137
				c-0.137,0-0.236,0.024-0.408,0.024c-0.481,0-0.557,0.691-0.766,1.052c-0.938,1.605-2.039,3.581-2.57,4.966
				c-0.271,0.703-0.53,1.272-0.53,1.84c0,0.148,0.011,0.286,0.035,0.421C277.794,60.157,278.818,60.429,278.905,60.429
				 M275.793,60.429c0.95,0,1.455-0.938,2.086-1.617c0.125-0.137,0.247-0.187,0.247-0.346c0-0.198-0.32-0.284-0.42-0.284
				c-0.567,0-1.174,1.05-1.716,1.382c-0.063,0.038-0.138,0.05-0.21,0.05c-0.113,0-0.211-0.036-0.248-0.148
				c-0.051-0.16-0.062-0.309-0.062-0.455c0-0.544,0.271-1.014,0.47-1.521c0.729-1.928,2.025-3.583,3.149-5.399
				c0.074-0.125,0.124-0.272,0.124-0.433c0-0.123-0.024-0.234-0.099-0.345c-0.062-0.087-0.199-0.137-0.321-0.137
				c-0.138,0-0.234,0.024-0.408,0.024c-0.481,0-0.556,0.691-0.766,1.052c-0.939,1.605-2.037,3.581-2.57,4.966
				c-0.271,0.703-0.53,1.272-0.53,1.84c0,0.148,0.012,0.286,0.037,0.421C274.68,60.157,275.705,60.429,275.793,60.429
				 M275.583,51.67c-0.088-0.098-0.323-0.16-0.521-0.16c-0.258,0-0.482,0.062-0.605,0.21c-0.11,0.136-0.16,0.346-0.16,0.519
				c0,0.136,0.023,0.298,0.086,0.421c0.062,0.11,0.247,0.246,0.495,0.246c0.271,0,0.567-0.333,0.789-0.605
				c0.05-0.062,0.063-0.148,0.063-0.223C275.73,51.955,275.705,51.806,275.583,51.67 M274.52,59.317
				c0.122-0.125,0.197-0.198,0.197-0.334c0-0.049,0-0.111-0.075-0.172c-0.072-0.062-0.21-0.086-0.308-0.086
				c-0.197,0-0.283,0.06-0.581,0.27c-0.493,0.349-0.63,0.422-0.901,0.422c-0.21,0-0.223-0.285-0.223-0.396
				c0-0.187,0.087-0.656,0.297-1.211c0.173-0.459,0.519-1.297,0.729-1.755c0.285-0.606,0.79-0.915,0.79-1.568
				c0-0.11-0.035-0.149-0.098-0.199c-0.087-0.073-0.247-0.098-0.372-0.098c-0.234,0-0.494,0.074-0.617,0.333
				c-0.456,0.951-0.814,1.841-1.198,2.743c-0.073,0.174-0.123,0.384-0.21,0.617c-0.148,0.42-0.197,0.691-0.197,1.001
				c0,0.173,0.014,0.347,0.061,0.518c0.137,0.459,0.557,0.978,0.927,0.978c0.557,0,1.014-0.357,1.272-0.593L274.52,59.317z
				 M267.342,54.5c0-0.162-0.209-0.285-0.297-0.285c-0.124,0-0.221-0.013-0.346-0.013c-0.087,0-0.186,0-0.297,0.037
				c-0.086,0.025-0.223,0.148-0.234,0.235c-0.21,1.444-0.964,2.892-1.335,4.385c-0.024,0.087-0.049,0.198-0.049,0.333
				c0,0.137,0.062,0.311,0.088,0.361c0.022,0.048,0.184,0.171,0.382,0.245c0.296,0.112,0.319,0.198,0.519,0.198
				c0.529,0,0.778-0.532,1.148-0.902c0.112-0.111,0.162-0.16,0.197-0.16c0.025,0,0.037,0.037,0.037,0.099
				c0,0.148-0.037,0.26-0.037,0.481c0,0.284,0.199,0.482,0.347,0.567c0.32,0.187,0.729,0.347,1.05,0.347
				c0.283,0,0.421-0.086,0.543-0.21c0.866-0.865,1.385-2.088,1.446-3.322c0.013-0.137,0.013-0.396,0.013-0.508
				c0-0.099,0.025-0.159,0.109-0.159c0.101,0,0.273,0.099,0.792,0.099c0.369,0,0.605-0.137,1.385-0.321
				c0.383-0.088,0.592-0.223,0.592-0.384c0-0.345-0.174-0.345-0.283-0.345c-0.644,0-1.124,0.147-1.656,0.147
				c-0.519,0-0.716-0.037-0.938-0.186c-0.36-0.234-0.271-0.31-0.471-0.31c-0.109,0-0.457,0.025-0.519,0.075
				c-0.11,0.086-0.136,0.223-0.136,0.296c0,0.284,0.247,0.668,0.247,1.013c0,0.149-0.062,0.285-0.062,0.458
				c0,0.124-0.123,1.558-0.853,2.482c-0.234,0.299-0.456,0.358-0.53,0.358c-0.05,0-0.186-0.074-0.186-0.234
				c0-0.691,0.186-1.396,0.456-2.001c0.062-0.136,0.087-0.321,0.26-0.618c0.321-0.543,0.408-0.716,0.408-0.901
				c0-0.173-0.197-0.37-0.384-0.37c-0.085,0-0.16-0.025-0.284-0.025c-0.134,0-0.26,0.025-0.32,0.173
				c-0.42,1.013-1.1,1.989-1.853,2.879c-0.36,0.42-0.433,0.445-0.47,0.445c-0.025,0-0.039-0.014-0.039-0.039
				c0-0.036,0.014-0.086,0.05-0.195c0.409-1.224,0.755-2.436,1.25-3.608c0.035-0.087,0.085-0.26,0.16-0.37
				C267.292,54.672,267.342,54.573,267.342,54.5 M261.264,54.475c-0.26-0.272-0.531-0.445-1.21-0.445
				c-0.235,0-0.743,0.224-1.101,0.791c-0.297,0.47-0.444,1.174-0.444,1.508c0,0.246,0.223,2.1,0.395,2.915
				c0.062,0.311,0.062,0.334,0.062,0.384c0,0.048-0.049,0.098-0.124,0.098c-0.061,0-0.123-0.023-0.246-0.136
				c-0.371-0.334-0.521-0.804-0.803-1.186c-0.113-0.148-0.224-0.173-0.471-0.173c-0.26,0-0.444,0.271-0.444,0.457
				c0,0.038,0.037,0.124,0.074,0.185c0.407,0.682,0.987,1.322,1.804,1.656c0.062,0.024,0.197,0.049,0.309,0.049
				c0.334,0,0.557-0.223,0.777-0.444c0.05-0.051,0.1-0.124,0.1-0.222c0-0.509-0.284-1.891-0.395-2.817
				c-0.026-0.162-0.087-0.717-0.087-0.79c0-0.149,0.012-0.234,0.024-0.322c0.099-0.568,0.667-1.272,0.754-1.272
				c0.099,0,0.221,0.088,0.271,0.173c0.05,0.086,0.088,0.235,0.088,0.333c0,0.211-0.099,0.384-0.21,0.569
				c-0.024,0.036-0.038,0.074-0.038,0.099c0,0.187,0.076,0.309,0.186,0.396c0.088,0.073,0.298,0.159,0.434,0.159
				c0.061,0,0.074-0.012,0.172-0.135c0.173-0.224,0.358-0.557,0.358-1.025C261.498,55.03,261.438,54.66,261.264,54.475
				 M256.261,55.29c-0.161,0.247-0.111,0.284-0.298,0.507c-0.557,0.667-1.16,1.345-1.89,1.902c-0.037,0.024-0.062,0.037-0.086,0.037
				c-0.014,0-0.025-0.013-0.025-0.062c0.271-1.1,1.137-2.112,1.94-2.828c0.122-0.111,0.11-0.074,0.247-0.161
				c0.111-0.074,0.185-0.111,0.26-0.111c0.073,0,0.073,0.049,0.073,0.147C256.482,54.944,256.383,55.104,256.261,55.29
				 M255.333,60.244c1.879-1.038,2.137-1.655,2.73-2.163c0.062-0.049,0.062-0.123,0.062-0.171c0-0.039,0.013-0.05,0.013-0.162
				c0-0.123-0.172-0.246-0.246-0.246c-0.049,0-0.112,0-0.247,0.086c-0.742,0.47-1.262,1.138-2.112,1.594
				c-0.557,0.297-0.743,0.346-0.952,0.346c-0.124,0-0.248-0.024-0.384-0.099c-0.11-0.062-0.295-0.321-0.295-0.52
				c0-0.037,0.011-0.062,0.072-0.098c1.05-0.581,2.016-1.656,2.866-2.62c0.174-0.197,0.272-0.333,0.396-0.58
				c0.149-0.296,0.284-0.568,0.284-0.891c0-0.493-0.26-0.716-0.395-0.765c-0.247-0.088-0.421-0.137-0.754-0.137
				c-0.605,0-1.112,0.333-1.322,0.558c-0.938,0.999-1.777,2.087-2.124,3.347c-0.05,0.173-0.062,0.297-0.062,0.407
				c0,0.234,0.062,0.704,0.148,0.952c0.136,0.407,0.369,0.716,0.618,0.852c0.086,0.05,0.52,0.247,0.791,0.347
				c0.197,0.073,0.32,0.087,0.47,0.087C255.049,60.368,255.112,60.368,255.333,60.244 M248.39,60.528
				c0.087-0.024,0.198-0.087,0.236-0.174c0.023-0.062,0.062-0.11,0.062-0.16c0-0.037-0.038-0.087-0.088-0.099
				c-0.098-0.024-0.234-0.037-0.308-0.073c-0.188-0.1-0.31-0.224-0.31-0.816c0-0.841,0.31-1.854,0.644-2.644
				c0.098-0.234,0.147-0.457,0.319-0.753c0.223-0.384,0.372-0.632,0.372-0.989c0-0.086-0.1-0.198-0.187-0.233
				c-0.098-0.039-0.333-0.087-0.457-0.087c-0.062,0-0.172,0.023-0.284,0.061c-0.109,0.036-0.172,0.1-0.345,0.285
				c-0.902,0.975-1.804,2.038-2.804,3.435c-0.062,0.085-0.076,0.098-0.088,0.098c-0.024,0-0.024-0.013-0.024-0.024
				c0-0.013,0.013-0.036,0.112-0.247c0.926-1.964,1.901-4.484,3.014-6.017c0.099-0.135,0.123-0.198,0.235-0.333
				c0.319-0.395,0.579-0.593,0.579-0.914c0-0.16-0.023-0.223-0.11-0.309c-0.1-0.1-0.235-0.186-0.347-0.186
				c-0.062,0-0.136-0.025-0.259-0.025s-0.249,0.025-0.321,0.173c-0.606,1.211-1.137,2.113-1.693,3.126l-0.197,0.395
				c-0.803,1.719-1.804,3.435-2.261,5.375c-0.05,0.21-0.111,0.197-0.111,0.333c0,0.038,0.013,0.099,0.05,0.137
				c0.198,0.197,0.581,0.346,0.644,0.346c0.172,0,0.345-0.086,0.469-0.16c0.061-0.038,0.074-0.05,0.135-0.124
				c0.729-0.853,1.582-2.286,2.422-3.25c0.086-0.099,0.137-0.135,0.161-0.135c0.013,0,0.025,0.012,0.025,0.024
				c0,0.025-0.013,0.062-0.05,0.147c-0.148,0.358-0.298,0.73-0.459,1.273c-0.159,0.544-0.233,1-0.233,1.384
				c0,0.605,0.197,1.001,0.668,1.174c0.196,0.073,0.284,0.085,0.357,0.085C248.119,60.626,248.242,60.564,248.39,60.528
				 M242.351,58.688c-0.606,0.457-1.188,0.777-1.755,0.777c-0.113,0-0.211-0.098-0.211-0.259c0-0.309,0.283-1.125,0.716-1.89
				c0.422-0.742,0.989-1.471,1.509-1.989c0.099-0.099,0.122-0.123,0.196-0.123c0.062,0,0.099,0.074,0.099,0.123
				c0,0.198-0.271,0.493-0.271,0.742c0,0.098,0.035,0.196,0.137,0.271l0.32,0.234c0.073,0.062,0.16,0.087,0.247,0.087
				c0.16,0,0.234-0.087,0.234-0.185c0-0.433,0.383-1.014,0.421-1.161c0.012-0.05,0.012-0.062,0.012-0.087
				c0-0.038-0.024-0.051-0.024-0.186c0-0.099,0-0.124-0.05-0.173c-0.321-0.322-0.864-0.52-1.286-0.52c-0.098,0-0.123,0-0.195,0.037
				c-1.039,0.52-1.929,2.026-2.571,3.312c-0.086,0.172-0.122,0.395-0.148,0.482c-0.086,0.309-0.197,0.63-0.197,0.926
				c0,0.197,0.05,0.383,0.147,0.58c0.062,0.124,0.569,0.604,1.248,0.604c0.519,0,1.137-0.357,1.83-0.913
				c0.53-0.433,0.975-0.777,1.358-0.938c0.087-0.037,0.099-0.075,0.099-0.149c0-0.05,0.05-0.073,0.05-0.123
				c0-0.037-0.235-0.32-0.407-0.32C243.511,57.848,242.893,58.28,242.351,58.688 M240.769,51.67c-0.087-0.098-0.321-0.16-0.52-0.16
				c-0.259,0-0.481,0.062-0.604,0.21c-0.113,0.136-0.162,0.346-0.162,0.519c0,0.136,0.024,0.298,0.087,0.421
				c0.061,0.11,0.248,0.246,0.494,0.246c0.271,0,0.568-0.333,0.79-0.605c0.049-0.062,0.062-0.148,0.062-0.223
				C240.917,51.955,240.892,51.806,240.769,51.67 M239.706,59.317c0.123-0.125,0.198-0.198,0.198-0.334c0-0.049,0-0.111-0.075-0.172
				c-0.072-0.062-0.209-0.086-0.309-0.086c-0.198,0-0.282,0.06-0.58,0.27c-0.495,0.349-0.631,0.422-0.903,0.422
				c-0.21,0-0.222-0.285-0.222-0.396c0-0.187,0.087-0.656,0.298-1.211c0.172-0.459,0.518-1.297,0.728-1.755
				c0.284-0.606,0.79-0.915,0.79-1.568c0-0.11-0.035-0.149-0.099-0.199c-0.085-0.073-0.245-0.098-0.37-0.098
				c-0.235,0-0.494,0.074-0.617,0.333c-0.458,0.951-0.816,1.841-1.199,2.743c-0.074,0.174-0.121,0.384-0.21,0.617
				c-0.147,0.42-0.197,0.691-0.197,1.001c0,0.173,0.012,0.347,0.061,0.518c0.137,0.459,0.557,0.978,0.928,0.978
				c0.556,0,1.014-0.357,1.272-0.593L239.706,59.317z M232.269,55.29c-0.16,0.247-0.111,0.284-0.297,0.507
				c-0.556,0.667-1.161,1.345-1.889,1.902c-0.038,0.024-0.062,0.037-0.087,0.037c-0.014,0-0.025-0.013-0.025-0.062
				c0.271-1.1,1.138-2.112,1.939-2.828c0.124-0.111,0.11-0.074,0.247-0.161c0.111-0.074,0.187-0.111,0.26-0.111
				c0.074,0,0.074,0.049,0.074,0.147C232.491,54.944,232.393,55.104,232.269,55.29 M231.341,60.244
				c1.88-1.038,2.14-1.655,2.73-2.163c0.063-0.049,0.063-0.123,0.063-0.171c0-0.039,0.012-0.05,0.012-0.162
				c0-0.123-0.174-0.246-0.246-0.246c-0.05,0-0.112,0-0.249,0.086c-0.74,0.47-1.259,1.138-2.113,1.594
				c-0.555,0.297-0.739,0.346-0.949,0.346c-0.124,0-0.247-0.024-0.383-0.099c-0.111-0.062-0.299-0.321-0.299-0.52
				c0-0.037,0.015-0.062,0.075-0.098c1.051-0.581,2.015-1.656,2.867-2.62c0.172-0.197,0.271-0.333,0.395-0.58
				c0.147-0.296,0.285-0.568,0.285-0.891c0-0.493-0.259-0.716-0.396-0.765c-0.247-0.088-0.421-0.137-0.755-0.137
				c-0.604,0-1.11,0.333-1.32,0.558c-0.939,0.999-1.78,2.087-2.126,3.347c-0.048,0.173-0.062,0.297-0.062,0.407
				c0,0.234,0.062,0.704,0.147,0.952c0.137,0.407,0.371,0.716,0.619,0.852c0.085,0.05,0.519,0.247,0.791,0.347
				c0.197,0.073,0.32,0.087,0.47,0.087C231.059,60.368,231.12,60.368,231.341,60.244 M229.747,51.67
				c-0.084-0.098-0.319-0.16-0.519-0.16c-0.26,0-0.481,0.062-0.604,0.21c-0.111,0.136-0.16,0.346-0.16,0.519
				c0,0.136,0.024,0.298,0.085,0.421c0.062,0.11,0.248,0.246,0.497,0.246c0.271,0,0.567-0.333,0.789-0.605
				c0.05-0.062,0.062-0.148,0.062-0.223C229.897,51.955,229.873,51.806,229.747,51.67 M228.687,59.317
				c0.123-0.125,0.198-0.198,0.198-0.334c0-0.049,0-0.111-0.075-0.172c-0.074-0.062-0.21-0.086-0.31-0.086
				c-0.197,0-0.284,0.06-0.58,0.27c-0.494,0.349-0.629,0.422-0.902,0.422c-0.21,0-0.222-0.285-0.222-0.396
				c0-0.187,0.088-0.656,0.298-1.211c0.172-0.459,0.519-1.297,0.729-1.755c0.283-0.606,0.789-0.915,0.789-1.568
				c0-0.11-0.035-0.149-0.099-0.199c-0.087-0.073-0.246-0.098-0.371-0.098c-0.233,0-0.493,0.074-0.617,0.333
				c-0.456,0.951-0.816,1.841-1.198,2.743c-0.073,0.174-0.123,0.384-0.21,0.617c-0.148,0.42-0.197,0.691-0.197,1.001
				c0,0.173,0.012,0.347,0.062,0.518c0.136,0.459,0.556,0.978,0.926,0.978c0.557,0,1.014-0.357,1.273-0.593L228.687,59.317z
				 M221.508,54.5c0-0.162-0.21-0.285-0.297-0.285c-0.123,0-0.223-0.013-0.345-0.013c-0.088,0-0.187,0-0.298,0.037
				c-0.086,0.025-0.221,0.148-0.234,0.235c-0.209,1.444-0.962,2.892-1.333,4.385c-0.024,0.087-0.049,0.198-0.049,0.333
				c0,0.137,0.06,0.311,0.085,0.361c0.024,0.048,0.186,0.171,0.383,0.245c0.297,0.112,0.321,0.198,0.52,0.198
				c0.53,0,0.778-0.532,1.148-0.902c0.111-0.111,0.16-0.16,0.198-0.16c0.023,0,0.036,0.037,0.036,0.099
				c0,0.148-0.036,0.26-0.036,0.481c0,0.284,0.197,0.482,0.347,0.567c0.32,0.187,0.729,0.347,1.048,0.347
				c0.285,0,0.42-0.086,0.545-0.21c0.864-0.865,1.384-2.088,1.446-3.322c0.011-0.137,0.011-0.396,0.011-0.508
				c0-0.099,0.024-0.159,0.111-0.159c0.099,0,0.271,0.099,0.791,0.099c0.37,0,0.605-0.137,1.383-0.321
				c0.385-0.088,0.595-0.223,0.595-0.384c0-0.345-0.175-0.345-0.286-0.345c-0.642,0-1.123,0.147-1.654,0.147
				c-0.52,0-0.717-0.037-0.939-0.186c-0.358-0.234-0.27-0.31-0.469-0.31c-0.111,0-0.457,0.025-0.52,0.075
				c-0.11,0.086-0.136,0.223-0.136,0.296c0,0.284,0.248,0.668,0.248,1.013c0,0.149-0.062,0.285-0.062,0.458
				c0,0.124-0.123,1.558-0.854,2.482c-0.233,0.299-0.456,0.358-0.529,0.358c-0.051,0-0.186-0.074-0.186-0.234
				c0-0.691,0.186-1.396,0.457-2.001c0.061-0.136,0.087-0.321,0.258-0.618c0.322-0.543,0.408-0.716,0.408-0.901
				c0-0.173-0.198-0.37-0.382-0.37c-0.087,0-0.162-0.025-0.284-0.025c-0.137,0-0.26,0.025-0.322,0.173
				c-0.419,1.013-1.1,1.989-1.852,2.879c-0.36,0.42-0.435,0.445-0.47,0.445c-0.025,0-0.038-0.014-0.038-0.039
				c0-0.036,0.013-0.086,0.05-0.195c0.408-1.224,0.754-2.436,1.247-3.608c0.038-0.087,0.088-0.26,0.162-0.37
				C221.458,54.672,221.508,54.573,221.508,54.5 M214.331,55.29c-0.161,0.247-0.111,0.284-0.297,0.507
				c-0.556,0.667-1.162,1.345-1.891,1.902c-0.036,0.024-0.061,0.037-0.086,0.037c-0.013,0-0.024-0.013-0.024-0.062
				c0.271-1.1,1.137-2.112,1.939-2.828c0.123-0.111,0.111-0.074,0.247-0.161c0.111-0.074,0.186-0.111,0.26-0.111
				s0.074,0.049,0.074,0.147C214.554,54.944,214.455,55.104,214.331,55.29 M213.403,60.244c1.88-1.038,2.14-1.655,2.731-2.163
				c0.062-0.049,0.062-0.123,0.062-0.171c0-0.039,0.011-0.05,0.011-0.162c0-0.123-0.173-0.246-0.245-0.246
				c-0.05,0-0.112,0-0.249,0.086c-0.74,0.47-1.259,1.138-2.112,1.594c-0.556,0.297-0.74,0.346-0.95,0.346
				c-0.125,0-0.247-0.024-0.383-0.099c-0.112-0.062-0.299-0.321-0.299-0.52c0-0.037,0.014-0.062,0.075-0.098
				c1.051-0.581,2.015-1.656,2.867-2.62c0.172-0.197,0.271-0.333,0.395-0.58c0.147-0.296,0.284-0.568,0.284-0.891
				c0-0.493-0.259-0.716-0.396-0.765c-0.246-0.088-0.42-0.137-0.753-0.137c-0.604,0-1.11,0.333-1.32,0.558
				c-0.94,0.999-1.781,2.087-2.125,3.347c-0.05,0.173-0.063,0.297-0.063,0.407c0,0.234,0.063,0.704,0.148,0.952
				c0.137,0.407,0.371,0.716,0.619,0.852c0.085,0.05,0.519,0.247,0.791,0.347c0.197,0.073,0.32,0.087,0.469,0.087
				C213.121,60.368,213.182,60.368,213.403,60.244 M209.117,58.688c-0.606,0.457-1.186,0.777-1.754,0.777
				c-0.11,0-0.21-0.098-0.21-0.259c0-0.309,0.284-1.125,0.717-1.89c0.419-0.742,0.988-1.471,1.507-1.989
				c0.1-0.099,0.122-0.123,0.197-0.123c0.062,0,0.101,0.074,0.101,0.123c0,0.198-0.272,0.493-0.272,0.742
				c0,0.098,0.036,0.196,0.136,0.271l0.32,0.234c0.074,0.062,0.161,0.087,0.247,0.087c0.161,0,0.234-0.087,0.234-0.185
				c0-0.433,0.383-1.014,0.42-1.161c0.013-0.05,0.013-0.062,0.013-0.087c0-0.038-0.024-0.051-0.024-0.186
				c0-0.099,0-0.124-0.048-0.173c-0.322-0.322-0.866-0.52-1.286-0.52c-0.1,0-0.125,0-0.197,0.037
				c-1.038,0.52-1.928,2.026-2.57,3.312c-0.087,0.172-0.123,0.395-0.148,0.482c-0.086,0.309-0.198,0.63-0.198,0.926
				c0,0.197,0.05,0.383,0.149,0.58c0.061,0.124,0.568,0.604,1.247,0.604c0.521,0,1.138-0.357,1.828-0.913
				c0.532-0.433,0.978-0.777,1.359-0.938c0.087-0.037,0.099-0.075,0.099-0.149c0-0.05,0.049-0.073,0.049-0.123
				c0-0.037-0.233-0.32-0.407-0.32C210.279,57.848,209.661,58.28,209.117,58.688 M204.522,54.797
				c-0.039-0.062-0.235-0.137-0.409-0.137c-0.284,0-0.481,0.172-0.481,0.271c0.012,0.112,0.112,0.21,0.112,0.284
				c0,0.025-0.014,0.087-0.025,0.198c-0.198,0.988-0.544,1.915-0.853,2.854c-0.147,0.47-0.666,0.877-0.666,1.296
				c0.012,0.149,0.111,0.348,0.232,0.471c0.089,0.099,0.175,0.247,0.371,0.258c0.05,0,0.162-0.035,0.224-0.11
				c0.085-0.061,0.222-0.259,0.283-0.494c0.408-1.877,1.791-3.015,3.139-3.644c0.11-0.05,0.16-0.05,0.197-0.05
				c0.173,0,0.371,0.123,0.557,0.123c0.099,0,0.433-0.16,0.433-0.543c0-0.075-0.038-0.161-0.088-0.21
				c-0.211-0.247-0.555-0.347-0.901-0.347c-0.037,0-0.112,0.013-0.148,0.025c-0.443,0.147-1.037,0.494-1.716,1.013
				c-0.101,0.087-0.148,0.099-0.161,0.099c-0.037,0-0.037-0.012-0.037-0.049c0-0.025,0.012-0.05,0.05-0.198
				c0.048-0.148,0.072-0.284,0.072-0.419C204.706,55.19,204.634,54.968,204.522,54.797 M201.334,55.29
				c-0.16,0.247-0.11,0.284-0.296,0.507c-0.557,0.667-1.161,1.345-1.891,1.902c-0.036,0.024-0.062,0.037-0.086,0.037
				c-0.014,0-0.024-0.013-0.024-0.062c0.27-1.1,1.135-2.112,1.939-2.828c0.123-0.111,0.111-0.074,0.247-0.161
				c0.11-0.074,0.184-0.111,0.259-0.111c0.074,0,0.074,0.049,0.074,0.147C201.557,54.944,201.457,55.104,201.334,55.29
				 M200.408,60.244c1.877-1.038,2.137-1.655,2.73-2.163c0.062-0.049,0.062-0.123,0.062-0.171c0-0.039,0.011-0.05,0.011-0.162
				c0-0.123-0.172-0.246-0.245-0.246c-0.051,0-0.112,0-0.247,0.086c-0.741,0.47-1.262,1.138-2.112,1.594
				c-0.558,0.297-0.742,0.346-0.952,0.346c-0.123,0-0.248-0.024-0.383-0.099c-0.111-0.062-0.296-0.321-0.296-0.52
				c0-0.037,0.011-0.062,0.072-0.098c1.052-0.581,2.015-1.656,2.867-2.62c0.172-0.197,0.271-0.333,0.396-0.58
				c0.147-0.296,0.283-0.568,0.283-0.891c0-0.493-0.26-0.716-0.395-0.765c-0.249-0.088-0.421-0.137-0.755-0.137
				c-0.606,0-1.111,0.333-1.322,0.558c-0.938,0.999-1.778,2.087-2.126,3.347c-0.048,0.173-0.061,0.297-0.061,0.407
				c0,0.234,0.061,0.704,0.149,0.952c0.135,0.407,0.37,0.716,0.617,0.852c0.085,0.05,0.518,0.247,0.79,0.347
				c0.197,0.073,0.321,0.087,0.47,0.087C200.123,60.368,200.186,60.368,200.408,60.244 M191.993,54.5
				c-0.123-0.075-0.245-0.1-0.382-0.1c-0.445,0-0.705,0.271-0.753,0.407c-0.186,0.494-0.31,0.557-0.643,1.285
				c-0.445,0.988-1.261,1.903-1.261,3.052c0,0.185,0.024,0.383,0.074,0.593c0.023,0.1,0.05,0.124,0.099,0.16
				c0.297,0.224,0.681,0.359,1.038,0.359c0.05,0,0.122-0.038,0.197-0.075c0.421-0.209,0.927-0.507,1.286-0.864
				c0.035-0.037,0.061-0.062,0.084-0.062c0.038,0,0.038,0.025,0.038,0.187c0,0.186,0.062,0.357,0.581,0.605
				c0.185,0.086,0.407,0.135,0.63,0.135c0.977,0,1.508-0.95,2.138-1.42c0.049-0.036,0.073-0.051,0.099-0.051
				c0.037,0,0.05,0.039,0.05,0.074c0,0.359,0.173,0.828,0.309,1.101c0.26,0.519,0.445,0.679,0.579,0.704
				c0.176,0.036,0.285,0.099,0.47,0.099c0.187,0,0.299-0.099,0.299-0.197c0-0.1-0.1-0.21-0.173-0.247
				c-0.026-0.012-0.062-0.037-0.112-0.111c-0.285-0.42-0.395-0.84-0.395-1.235c0-0.617,0.259-1.247,0.864-2.261
				c0.161-0.272,0.444-0.297,0.444-0.531c0-0.05-0.012-0.111-0.049-0.173c-0.099-0.186-0.125-0.211-0.408-0.247
				c-0.186-0.025-0.124-0.1-0.371-0.1c-0.382,0-0.543,0.321-0.592,0.458c-0.458,1.26-1.655,1.952-2.509,2.939
				c-0.223,0.26-0.531,0.408-0.717,0.408c-0.061,0-0.11-0.137-0.11-0.199c0-0.283,0.123-0.752,0.53-1.542
				c0.309-0.606,0.841-1.088,1.062-1.693c0.024-0.074,0.038-0.137,0.038-0.186c0-0.024,0-0.036-0.05-0.086
				c-0.16-0.16-0.357-0.247-0.567-0.247c-0.187,0-0.322,0.05-0.483,0.173c-0.136,0.098-0.21,0.198-0.259,0.321
				c-0.544,1.358-1.668,2.755-3.002,3.421c-0.05,0.025-0.099,0.049-0.137,0.049c-0.05,0-0.111-0.073-0.111-0.135
				c0.384-1.457,1.187-2.841,2.089-4.102c0.123-0.172,0.148-0.369,0.148-0.432C192.057,54.597,192.057,54.537,191.993,54.5
				 M183.543,54.5c-0.122-0.075-0.246-0.1-0.381-0.1c-0.446,0-0.706,0.271-0.755,0.407c-0.186,0.494-0.309,0.557-0.642,1.285
				c-0.444,0.988-1.261,1.903-1.261,3.052c0,0.185,0.024,0.383,0.074,0.593c0.023,0.1,0.051,0.124,0.1,0.16
				c0.295,0.224,0.68,0.359,1.038,0.359c0.049,0,0.122-0.038,0.196-0.075c0.421-0.209,0.927-0.507,1.286-0.864
				c0.035-0.037,0.061-0.062,0.085-0.062c0.038,0,0.038,0.025,0.038,0.187c0,0.186,0.062,0.357,0.581,0.605
				c0.185,0.086,0.407,0.135,0.629,0.135c0.976,0,1.507-0.95,2.137-1.42c0.05-0.036,0.074-0.051,0.1-0.051
				c0.037,0,0.05,0.039,0.05,0.074c0,0.359,0.173,0.828,0.309,1.101c0.26,0.519,0.444,0.679,0.579,0.704
				c0.174,0.036,0.286,0.099,0.471,0.099c0.186,0,0.297-0.099,0.297-0.197c0-0.1-0.099-0.21-0.174-0.247
				c-0.024-0.012-0.062-0.037-0.111-0.111c-0.283-0.42-0.394-0.84-0.394-1.235c0-0.617,0.258-1.247,0.864-2.261
				c0.161-0.272,0.444-0.297,0.444-0.531c0-0.05-0.013-0.111-0.051-0.173c-0.098-0.186-0.123-0.211-0.407-0.247
				c-0.186-0.025-0.123-0.1-0.37-0.1c-0.383,0-0.543,0.321-0.593,0.458c-0.456,1.26-1.656,1.952-2.508,2.939
				c-0.222,0.26-0.53,0.408-0.717,0.408c-0.061,0-0.11-0.137-0.11-0.199c0-0.283,0.123-0.752,0.53-1.542
				c0.309-0.606,0.84-1.088,1.063-1.693c0.023-0.074,0.037-0.137,0.037-0.186c0-0.024,0-0.036-0.05-0.086
				c-0.161-0.16-0.357-0.247-0.567-0.247c-0.187,0-0.323,0.05-0.483,0.173c-0.135,0.098-0.21,0.198-0.26,0.321
				c-0.543,1.358-1.666,2.755-3.001,3.421c-0.05,0.025-0.099,0.049-0.137,0.049c-0.05,0-0.111-0.073-0.111-0.135
				c0.382-1.457,1.187-2.841,2.089-4.102c0.124-0.172,0.146-0.369,0.146-0.432C183.604,54.597,183.604,54.537,183.543,54.5
				 M178.96,55.339c0.038,0.037,0.062,0.05,0.075,0.136c0.012,0.062,0.012,0.211,0.012,0.261c0,1.247-0.667,2.21-1.383,3.286
				c-0.1,0.147-0.125,0.185-0.21,0.222c-0.05,0.024-0.112,0.101-0.235,0.101c-0.037,0-0.073,0-0.112-0.026
				c-0.111-0.074-0.259-0.308-0.296-0.408c-0.036-0.086-0.036-0.136-0.036-0.172c0-1.446,1.16-2.979,1.544-3.459
				c0.062-0.088,0.185-0.149,0.233-0.21c0.062-0.074,0.137-0.124,0.186-0.124c0.051,0,0.088,0.086,0.124,0.21
				C178.875,55.204,178.898,55.278,178.96,55.339 M179.589,54.523c-0.035-0.099-0.072-0.123-0.171-0.21
				c-0.21-0.186-0.458-0.235-0.656-0.235c-0.543,0-1.061,0.582-1.456,1.137c-0.124,0.174-0.124,0.112-0.297,0.371
				c-0.568,0.853-1.075,1.742-1.075,2.755c0,0.309,0.049,0.681,0.185,1.026c0.112,0.284,0.457,0.556,0.928,0.777
				c0.072,0.037,0.186,0.062,0.296,0.062c0.433,0,0.768-0.359,1.112-0.729c0.791-0.841,1.235-1.989,1.557-3.312
				c0.024-0.087,0.049-0.098,0.148-0.098c0.086,0,0.234,0,0.481-0.039c0.32-0.049,1.012-0.172,1.26-0.21
				c0.084-0.011,0.24-0.073,0.24-0.073c0.036-0.062,0.068-0.102,0.097-0.259c0.055-0.292-0.309-0.34-0.955-0.322
				c-0.283,0.009-0.567,0.038-1.062,0.038C179.862,55.204,179.702,54.832,179.589,54.523 M175.688,52.102
				c-0.023-0.036-0.1-0.073-0.172-0.11c-0.188-0.085-0.347-0.111-0.532-0.111c-0.333,0-0.879,0.124-1.025,0.21
				c-1.89,1.099-3.077,3.336-3.768,5.288c-0.025,0.073-0.161,0.753-0.161,1.235c0,0.222,0.025,0.47,0.061,0.754
				c0.05,0.346,0.631,0.777,1.001,0.951c0.21,0.098,0.681,0.173,0.965,0.173c1.32,0,2.175-1.089,3.089-1.964
				c0.099-0.1,0.161-0.124,0.161-0.187c0-0.05-0.015-0.1-0.076-0.197c-0.111-0.186-0.259-0.233-0.42-0.233h-0.197
				c-0.222,0-0.272,0.048-0.469,0.245c-0.803,0.805-1.742,1.558-2.446,1.558c-0.197,0-0.322-0.186-0.531-0.359
				c-0.075-0.061-0.16-0.32-0.16-0.433c0-0.098,0.012-0.556,0.06-0.716c0.36-1.173,0.878-2.408,1.57-3.348
				c0.791-1.074,0.901-1.223,1.385-1.669c0.222-0.21,0.74-0.493,1.049-0.493c0.086,0,0.111,0.051,0.111,0.186
				c0,0.148-0.136,0.284-0.147,0.37c-0.05,0.357-0.434,0.532-0.434,1.002c0,0.147,0.31,0.357,0.408,0.369
				c0.1,0.014,0.247,0.05,0.357,0.05c0.186,0,0.349-0.099,0.383-0.234c0.112-0.408,0.26-0.654,0.434-1.087
				c0.1-0.247,0.1-0.31,0.1-0.346c0-0.038,0-0.074-0.014-0.136C176.194,52.523,175.812,52.287,175.688,52.102 M169.103,56.588
				c0.16-0.161,0.173-0.298,0.173-0.669c0-0.135-0.173-0.221-0.457-0.221c-0.223,0-0.667,0.049-0.927,0.049
				c-0.729,0-1.334-0.049-2.077-0.049c-0.109,0-0.381,0.037-0.442,0.147c-0.025,0.05-0.037,0.099-0.037,0.161
				c0,0.11,0.037,0.223,0.072,0.321c0.088,0.21,0.175,0.345,0.286,0.345c0.246,0,1.112,0.1,1.864,0.1c0.284,0,0.742,0,0.866-0.038
				C168.72,56.648,169.03,56.661,169.103,56.588 M166.236,52.695c0-0.222-0.309-0.471-0.605-0.618
				c-0.074-0.035-0.296-0.073-0.419-0.073c-1.236,0-2.855,0.444-3.35,0.63c-0.729,0.271-1.445,0.568-2.235,0.765
				c-0.05,0.014-0.074,0.026-0.074,0.088c0,0.148,0.148,0.53,0.321,0.617c0.073,0.037,0.161,0.049,0.235,0.049
				c0.172,0,0.382-0.098,0.455-0.098c0.038,0,0.05,0.013,0.05,0.062c-0.098,0.383-0.271,0.79-0.617,1.556
				c-0.062,0.137-0.086,0.147-0.186,0.173c-0.272,0.073-0.321,0.087-0.357,0.148c-0.024,0.036-0.024,0.099-0.024,0.148
				c0,0.21,0.123,0.347,0.159,0.382c-0.32,0.901-0.777,1.779-0.777,2.793c0,0.161,0.013,0.506,0.098,0.63
				c0.236,0.345,0.866,0.507,0.952,0.507c1.68,0,2.88-0.643,4.002-1.248c0.075-0.037,0.199-0.123,0.334-0.246
				c0.1-0.088,0.187-0.137,0.272-0.16c0.049-0.015,0.075-0.074,0.075-0.162c0-0.147-0.335-0.308-0.384-0.383
				c-0.024-0.037-0.074-0.037-0.124-0.037c-0.742,0-1.346,0.605-2.001,0.89c-0.198,0.085-0.47,0.186-0.84,0.346
				c-0.346,0.148-0.779,0.234-1.002,0.234c-0.134,0-0.309-0.223-0.309-0.42c0-0.654,0.408-1.556,0.938-2.743
				c0.05-0.11,0.273-0.172,0.372-0.196c0.63-0.161,1.346-0.557,2.113-0.557c0.109,0,0.259,0.038,0.407,0.038
				c0.097,0,0.592-0.101,0.592-0.248c0-0.123-0.024-0.321-0.16-0.396c-0.321-0.172-0.629-0.247-0.927-0.247
				c-0.618,0-1.261,0.285-1.815,0.482c-0.038,0-0.049-0.013-0.049-0.05c0.233-0.604,0.456-1.137,0.679-1.743
				c0.037-0.098,0.074-0.122,0.147-0.147c0.878-0.296,1.953-0.58,3.113-0.58c0.235,0,0.347,0.124,0.445,0.124
				c0.111,0,0.197-0.074,0.309-0.074C166.188,52.931,166.236,52.881,166.236,52.695"/>
		</g>
		<path style="fill:#FFFFFF;" d="M41.555,12.3c0,8.298-5.186,17.807-11.843,17.807c-2.421,0-4.322-0.778-5.705-2.075l1.556-9.077
			c1.555-8.299,5.878-13.571,10.545-13.571C40.172,5.384,41.555,8.929,41.555,12.3 M54.608,11.349c0-0.964-0.062-1.906-0.173-2.828
			c-0.116-0.133-0.224-0.272-0.345-0.402c-4.472-5.151-12.059-7.44-22.567-6.162c-5.926,0.908-11.437,2.525-16.084,4.646
			c-0.335,2.149-0.687,4.246-1.026,6.042L7.908,47.1c2.948,3.405,6.595,6.27,10.759,8.485l3.438-17.783h0.172
			c1.47,0.863,4.41,1.729,7.867,1.729C44.84,39.53,54.608,26.045,54.608,11.349"/>
	</g>
</g>
</svg>
