<?xml version="1.0" encoding="utf-8"?>
<!-- Generator: Adobe Illustrator 16.0.0, SVG Export Plug-In . SVG Version: 6.00 Build 0)  -->
<!DOCTYPE svg PUBLIC "-//W3C//DTD SVG 1.1//EN" "http://www.w3.org/Graphics/SVG/1.1/DTD/svg11.dtd" [
	<!ENTITY ns_extend "http://ns.adobe.com/Extensibility/1.0/">
	<!ENTITY ns_ai "http://ns.adobe.com/AdobeIllustrator/10.0/">
	<!ENTITY ns_graphs "http://ns.adobe.com/Graphs/1.0/">
	<!ENTITY ns_vars "http://ns.adobe.com/Variables/1.0/">
	<!ENTITY ns_imrep "http://ns.adobe.com/ImageReplacement/1.0/">
	<!ENTITY ns_sfw "http://ns.adobe.com/SaveForWeb/1.0/">
	<!ENTITY ns_custom "http://ns.adobe.com/GenericCustomNamespace/1.0/">
	<!ENTITY ns_adobe_xpath "http://ns.adobe.com/XPath/1.0/">
]>
<svg version="1.1" id="Ebene_1" xmlns:x="&ns_extend;" xmlns:i="&ns_ai;" xmlns:graph="&ns_graphs;"
	 xmlns="http://www.w3.org/2000/svg" xmlns:xlink="http://www.w3.org/1999/xlink" x="0px" y="0px" width="150px" height="75px"
	 viewBox="0 0 150 75" enable-background="new 0 0 150 75" xml:space="preserve">
<metadata>
	<sfw  xmlns="&ns_sfw;">
		<slices></slices>
		<sliceSourceBounds  height="44.31" width="74" x="35.15" y="-58.65" bottomLeftOrigin="true"></sliceSourceBounds>
	</sfw>
</metadata>
<g>
	<g id="layer1">
		<g id="g10305">
			<path id="path2268" fill="#F4981A" d="M109.15,36.5c0,12.23-9.91,22.15-22.14,22.15c-12.23,0-22.15-9.91-22.15-22.14
				c0,0,0-0.01,0-0.01c0-12.23,9.91-22.15,22.14-22.15c12.23,0,22.15,9.91,22.15,22.14C109.15,36.49,109.15,36.5,109.15,36.5z"/>
			<path id="path1350" fill="#CC1417" d="M57.15,14.35c-12.16,0.08-22,9.97-22,22.15c0,12.22,9.92,22.15,22.15,22.15
				c5.74,0,10.97-2.19,14.9-5.77c0,0,0,0,0,0h0c0.81-0.73,1.56-1.53,2.25-2.37h-4.54c-0.61-0.73-1.16-1.49-1.65-2.28h7.83
				c0.48-0.76,0.91-1.55,1.29-2.37H66.97c-0.35-0.76-0.66-1.54-0.92-2.33H78.3c0.74-2.21,1.14-4.57,1.14-7.03
				c0-1.63-0.18-3.21-0.51-4.74H65.39c0.17-0.79,0.38-1.56,0.63-2.33h12.26c-0.27-0.81-0.59-1.6-0.96-2.37H66.97
				c0.37-0.8,0.8-1.58,1.27-2.33h7.82c-0.52-0.83-1.1-1.62-1.72-2.37h-4.36c0.67-0.79,1.42-1.54,2.22-2.24
				c-3.94-3.58-9.17-5.77-14.91-5.77C57.25,14.35,57.2,14.35,57.15,14.35z"/>
			<path id="use9412" fill="#F9B343" d="M106.93,48.08c0.12,0,0.24,0.03,0.35,0.09c0.12,0.06,0.2,0.15,0.27,0.26
				c0.06,0.12,0.1,0.24,0.1,0.36s-0.03,0.24-0.09,0.36c-0.06,0.11-0.15,0.2-0.27,0.26c-0.11,0.06-0.23,0.09-0.36,0.09
				s-0.24-0.03-0.36-0.09c-0.11-0.06-0.2-0.15-0.26-0.26c-0.06-0.12-0.09-0.23-0.09-0.36s0.03-0.24,0.1-0.36s0.15-0.2,0.27-0.26
				C106.69,48.11,106.81,48.08,106.93,48.08 M106.93,48.2c-0.1,0-0.2,0.03-0.29,0.08c-0.1,0.05-0.17,0.12-0.22,0.22
				c-0.05,0.1-0.08,0.19-0.08,0.3s0.03,0.2,0.08,0.3c0.05,0.09,0.13,0.17,0.22,0.22c0.1,0.05,0.19,0.08,0.3,0.08
				c0.1,0,0.2-0.03,0.3-0.08c0.09-0.05,0.17-0.13,0.22-0.22c0.05-0.1,0.08-0.19,0.08-0.3s-0.03-0.21-0.08-0.3
				c-0.05-0.1-0.13-0.17-0.22-0.22C107.12,48.22,107.03,48.2,106.93,48.2 M106.61,49.19v-0.77h0.27c0.09,0,0.16,0.01,0.2,0.02
				c0.04,0.01,0.07,0.04,0.1,0.07c0.02,0.03,0.04,0.07,0.04,0.11c0,0.06-0.02,0.1-0.06,0.15c-0.04,0.04-0.09,0.06-0.16,0.07
				c0.03,0.01,0.05,0.02,0.07,0.04c0.03,0.03,0.07,0.08,0.11,0.15l0.09,0.15h-0.15l-0.07-0.12c-0.05-0.1-0.1-0.15-0.13-0.18
				c-0.02-0.02-0.06-0.03-0.1-0.03h-0.07v0.33H106.61 M106.74,48.76h0.15c0.07,0,0.12-0.01,0.15-0.04c0.03-0.02,0.04-0.05,0.04-0.08
				c0-0.02-0.01-0.04-0.02-0.06c-0.01-0.02-0.03-0.03-0.05-0.04c-0.02-0.01-0.06-0.02-0.12-0.02h-0.14V48.76"/>
		</g>
		<g id="g16480">
			<g id="g13802" transform="translate(-13.74405,15.9939)">
				<path id="path13804" fill="#232856" d="M78.39,26.86l0.29-2c-0.16,0-0.4,0.07-0.61,0.07c-0.82,0-0.92-0.44-0.86-0.76l0.81-4.03
					h1.25l0.26-2.28h-1.18l0.24-1.38h-2.46c-0.05,0.05-1.39,7.75-1.39,8.69c0,1.39,0.78,2.01,1.88,2
					C77.48,27.16,78.15,26.93,78.39,26.86z"/>
				<path id="path13806" fill="#232856" d="M79.13,23.04c0,3.33,2.2,4.12,4.07,4.12c1.73,0,2.64-0.4,2.64-0.4l0.42-2.27
					c0,0-1.46,0.59-2.65,0.59c-2.53,0-2.09-1.89-2.09-1.89l4.86,0.02c0,0,0.31-1.53,0.31-2.15c0-1.55-0.85-3.46-3.44-3.46
					C80.89,17.6,79.13,20.15,79.13,23.04z M83.27,19.71c1.33,0,1.08,1.5,1.08,1.62h-2.62C81.74,21.17,81.98,19.71,83.27,19.71z"/>
				<path id="path13808" fill="#232856" d="M98.2,26.86l0.42-2.57c0,0-1.16,0.58-1.95,0.58c-1.67,0-2.34-1.28-2.34-2.65
					c0-2.78,1.44-4.31,3.04-4.31c1.2,0,2.17,0.67,2.17,0.67l0.38-2.5c0,0-1.14-0.82-2.36-0.83c-3.68-0.01-5.79,2.55-5.79,6.99
					c0,2.94,1.56,4.94,4.38,4.94C96.93,27.18,98.2,26.86,98.2,26.86z"/>
				<path id="path13810" fill="#232856" d="M65.42,17.63c-1.62,0-2.86,0.52-2.86,0.52l-0.34,2.03c0,0,1.02-0.42,2.57-0.42
					c0.88,0,1.52,0.1,1.52,0.81c0,0.43-0.08,0.59-0.08,0.59s-0.69-0.06-1.01-0.06c-2.3,0-4.18,0.87-4.18,3.5
					c0,2.07,1.41,2.54,2.28,2.54c1.66,0,2.32-1.05,2.36-1.05l-0.02,0.87c0,0,2.08,0,2.08,0l0.93-6.49
					C68.66,17.72,66.25,17.63,65.42,17.63z M65.78,22.91c0.05,0.4-0.1,2.27-1.52,2.27c-0.73,0-0.92-0.56-0.92-0.89
					c0-0.65,0.35-1.42,2.08-1.42C65.81,22.87,65.71,22.9,65.78,22.91z"/>
				<path id="path13812" fill="#232856" d="M70.86,27.1c0.53,0,3.57,0.13,3.57-3c0-2.93-2.81-2.35-2.81-3.53
					c0-0.59,0.46-0.77,1.3-0.77c0.33,0,1.61,0.11,1.61,0.11l0.3-2.08c0,0-0.83-0.19-2.18-0.19c-1.74,0-3.52,0.7-3.52,3.08
					c0,2.7,2.95,2.43,2.95,3.57c0,0.76-0.82,0.82-1.46,0.82c-1.1,0-2.09-0.38-2.09-0.36l-0.31,2.06
					C68.27,26.83,68.88,27.1,70.86,27.1z"/>
				<path id="path13814" fill="#232856" d="M117.65,15.74l-0.43,3.18c0,0-0.89-1.23-2.28-1.23c-2.62,0-3.96,2.6-3.96,5.6
					c0,1.93,0.96,3.83,2.92,3.83c1.41,0,2.2-0.99,2.2-0.99l-0.1,0.84h2.29l1.8-11.21L117.65,15.74z M116.64,21.92
					c0,1.25-0.62,2.91-1.89,2.91c-0.85,0-1.25-0.71-1.25-1.83c0-1.83,0.82-3.03,1.86-3.03C116.2,19.96,116.64,20.54,116.64,21.92z"
					/>
				<path id="path13816" fill="#232856" d="M52.65,26.98l1.44-8.46l0.21,8.46h1.62l3.03-8.46l-1.34,8.46h2.41l1.86-11.23l-3.83-0.03
					l-2.28,6.88l-0.06-6.85h-3.52L50.3,26.98H52.65L52.65,26.98z"/>
				<path id="path13818" fill="#232856" d="M88.98,27c0.69-3.9,0.93-6.99,2.93-6.35c0.29-1.51,0.97-2.82,1.29-3.46
					c0,0-0.1-0.15-0.72-0.15c-1.05,0-2.46,2.14-2.46,2.14l0.21-1.33h-2.19L86.56,27H88.98L88.98,27z"/>
				<g id="use14699" transform="translate(845.3001,0)">
					<path id="path13810_1_" fill="#232856" d="M-742.16,17.63c-1.62,0-2.86,0.52-2.86,0.52l-0.34,2.03c0,0,1.03-0.42,2.57-0.42
						c0.88,0,1.52,0.1,1.52,0.81c0,0.43-0.08,0.59-0.08,0.59s-0.69-0.06-1.01-0.06c-2.3,0-4.18,0.87-4.18,3.5
						c0,2.07,1.41,2.54,2.28,2.54c1.66,0,2.32-1.05,2.36-1.05l-0.02,0.87h2.08l0.93-6.49C-738.92,17.72-741.32,17.63-742.16,17.63z
						 M-741.8,22.91c0.04,0.4-0.1,2.27-1.52,2.27c-0.73,0-0.92-0.56-0.92-0.89c0-0.65,0.35-1.42,2.08-1.42
						C-741.77,22.87-741.87,22.9-741.8,22.91z"/>
				</g>
				<path id="use14701" fill="#232856" d="M108.77,27c0.38-2.87,1.08-6.9,2.93-6.35c0.29-1.51,0.01-1.51-0.61-1.51
					c-1.06,0-1.29,0.04-1.29,0.04l0.21-1.32h-2.2L106.35,27H108.77L108.77,27z"/>
			</g>
			<g id="g10289">
				<path id="path4157" fill="#FFFFFF" d="M65.26,42.14l0.29-2c-0.16,0-0.4,0.07-0.61,0.07c-0.82,0-0.91-0.44-0.86-0.76l0.66-4.09
					H66l0.3-2.22h-1.18l0.24-1.38H63c-0.05,0.05-1.39,7.75-1.39,8.69c0,1.39,0.78,2.01,1.88,2C64.35,42.44,65.02,42.2,65.26,42.14z"
					/>
				<path id="path4155" fill="#FFFFFF" d="M66,38.32c0,3.33,2.2,4.12,4.07,4.12c1.73,0,2.49-0.39,2.49-0.39l0.42-2.27
					c0,0-1.32,0.58-2.5,0.58c-2.53,0-2.09-1.89-2.09-1.89h4.79c0,0,0.31-1.53,0.31-2.15c0-1.55-0.77-3.45-3.36-3.45
					C67.76,32.88,66,35.43,66,38.32z M70.14,34.99c1.33,0,1.08,1.5,1.08,1.62h-2.62C68.61,36.45,68.86,34.99,70.14,34.99z"/>
				<path id="path4151" fill="#FFFFFF" d="M85.07,42.14l0.42-2.57c0,0-1.16,0.58-1.95,0.58c-1.67,0-2.34-1.28-2.34-2.65
					c0-2.78,1.44-4.31,3.04-4.31c1.2,0,2.17,0.67,2.17,0.67l0.38-2.5c0,0-1.43-0.58-2.66-0.58c-2.72,0-5.37,2.36-5.37,6.8
					c0,2.94,1.43,4.88,4.24,4.88C83.8,42.46,85.07,42.14,85.07,42.14z"/>
				<path id="path4149" fill="#FFFFFF" d="M52.29,32.91c-1.62,0-2.86,0.52-2.86,0.52l-0.34,2.03c0,0,1.02-0.42,2.57-0.42
					c0.88,0,1.52,0.1,1.52,0.81c0,0.43-0.08,0.59-0.08,0.59s-0.69-0.06-1.01-0.06c-2.04,0-4.18,0.87-4.18,3.49
					c0,2.07,1.41,2.54,2.28,2.54c1.66,0,2.38-1.08,2.42-1.08l-0.08,0.9h2.08l0.93-6.49C55.53,33,53.12,32.91,52.29,32.91z
					 M52.79,38.2c0.05,0.4-0.25,2.26-1.67,2.26c-0.73,0-0.92-0.56-0.92-0.89c0-0.64,0.35-1.42,2.08-1.42
					C52.68,38.14,52.73,38.19,52.79,38.2z"/>
				<path id="path4145" fill="#FFFFFF" d="M57.73,42.38c0.53,0,3.57,0.13,3.57-3c0-2.93-2.81-2.35-2.81-3.53
					c0-0.59,0.46-0.77,1.3-0.77c0.33,0,1.61,0.11,1.61,0.11l0.3-2.08c0,0-0.83-0.19-2.18-0.19c-1.74,0-3.52,0.7-3.52,3.08
					c0,2.7,2.95,2.43,2.95,3.57c0,0.76-0.82,0.82-1.46,0.82c-1.1,0-2.09-0.38-2.09-0.36l-0.31,2.06
					C55.14,42.11,55.76,42.38,57.73,42.38z"/>
				<path id="path4139" fill="#FFFFFF" d="M104.6,31.04l-0.51,3.16c0,0-0.89-1.23-2.28-1.23c-2.16,0-3.96,2.6-3.96,5.6
					c0,1.93,0.96,3.83,2.92,3.83c1.41,0,2.2-0.98,2.2-0.98l-0.1,0.84h2.29l1.8-11.21L104.6,31.04z M103.51,37.2
					c0,1.25-0.62,2.91-1.89,2.91c-0.85,0-1.25-0.71-1.25-1.83c0-1.83,0.82-3.03,1.86-3.03C103.08,35.24,103.51,35.82,103.51,37.2z"
					/>
				<path id="path4133" fill="#FFFFFF" d="M39.52,42.26l1.44-8.46l0.21,8.46h1.62l3.03-8.46l-1.34,8.46h2.41l1.86-11.23h-3.73
					l-2.32,6.89l-0.12-6.89h-3.44l-1.89,11.23H39.52z"/>
				<path id="path4131" fill="#FFFFFF" d="M75.85,42.28c0.69-3.9,0.81-7.07,2.45-6.49c0.29-1.51,0.56-2.1,0.88-2.73
					c0,0-0.15-0.03-0.46-0.03c-1.06,0-1.84,1.44-1.84,1.44l0.21-1.33H74.9l-1.47,9.14H75.85z"/>
				<g id="use8523" transform="translate(847.0062,0)">
					<path id="path4149_1_" fill="#FFFFFF" d="M-756.49,32.91c-1.62,0-2.86,0.52-2.86,0.52l-0.34,2.03c0,0,1.02-0.42,2.57-0.42
						c0.88,0,1.52,0.1,1.52,0.81c0,0.43-0.08,0.59-0.08,0.59s-0.69-0.06-1.01-0.06c-2.04,0-4.18,0.87-4.18,3.49
						c0,2.07,1.41,2.54,2.28,2.54c1.66,0,2.38-1.08,2.42-1.08l-0.08,0.9c0,0,2.08,0,2.08,0l0.92-6.49
						C-753.25,33-755.66,32.91-756.49,32.91z M-755.99,38.2c0.04,0.4-0.25,2.26-1.67,2.26c-0.73,0-0.92-0.56-0.92-0.89
						c0-0.64,0.35-1.42,2.08-1.42C-756.1,38.14-756.06,38.19-755.99,38.2z"/>
				</g>
				<g id="use8525" transform="translate(442.2857,0)">
					<path id="path4131_1_" fill="#FFFFFF" d="M-346.64,42.28c0.69-3.9,0.81-7.07,2.45-6.49c0.29-1.51,0.56-2.1,0.88-2.73
						c0,0-0.15-0.03-0.46-0.03c-1.06,0-1.84,1.44-1.84,1.44l0.21-1.33h-2.2l-1.47,9.14H-346.64z"/>
				</g>
				<path id="text9407" fill="#FFFFFF" d="M106.92,40.87c0.12,0,0.24,0.03,0.35,0.09c0.12,0.06,0.2,0.15,0.27,0.27
					c0.06,0.11,0.1,0.23,0.1,0.36s-0.03,0.24-0.09,0.36c-0.06,0.11-0.15,0.2-0.26,0.26c-0.11,0.06-0.23,0.1-0.36,0.1
					c-0.12,0-0.24-0.03-0.36-0.1c-0.11-0.06-0.2-0.15-0.26-0.26c-0.07-0.11-0.1-0.23-0.1-0.36s0.03-0.24,0.1-0.36
					c0.06-0.12,0.15-0.21,0.27-0.27C106.68,40.9,106.8,40.87,106.92,40.87 M106.92,40.99c-0.1,0-0.2,0.03-0.29,0.08
					c-0.1,0.05-0.17,0.12-0.22,0.22c-0.05,0.1-0.08,0.19-0.08,0.3s0.03,0.2,0.08,0.3c0.05,0.09,0.13,0.17,0.22,0.22
					c0.09,0.05,0.19,0.08,0.3,0.08s0.2-0.03,0.3-0.08c0.09-0.05,0.17-0.13,0.22-0.22c0.05-0.1,0.08-0.19,0.08-0.3
					s-0.03-0.2-0.08-0.3c-0.05-0.1-0.13-0.17-0.22-0.22C107.12,41.01,107.02,40.99,106.92,40.99 M106.6,41.98v-0.77h0.26
					c0.09,0,0.16,0.01,0.2,0.02c0.04,0.01,0.07,0.04,0.1,0.07c0.02,0.03,0.04,0.07,0.04,0.11c0,0.06-0.02,0.1-0.06,0.15
					c-0.04,0.04-0.09,0.07-0.16,0.07c0.03,0.01,0.05,0.02,0.07,0.04c0.03,0.03,0.07,0.08,0.11,0.15l0.09,0.15h-0.15l-0.07-0.12
					c-0.05-0.1-0.1-0.15-0.13-0.18c-0.02-0.02-0.06-0.03-0.1-0.03h-0.07v0.33H106.6 M106.73,41.55h0.15c0.07,0,0.12-0.01,0.15-0.03
					c0.03-0.02,0.04-0.05,0.04-0.08c0-0.02-0.01-0.04-0.02-0.06c-0.01-0.02-0.03-0.03-0.05-0.04c-0.02-0.01-0.06-0.01-0.12-0.01
					h-0.14L106.73,41.55"/>
			</g>
		</g>
	</g>
</g>
</svg>
