<?xml version="1.0" encoding="utf-8"?>
<!-- Generator: Adobe Illustrator 16.0.0, SVG Export Plug-In . SVG Version: 6.00 Build 0)  -->
<!DOCTYPE svg PUBLIC "-//W3C//DTD SVG 1.1//EN" "http://www.w3.org/Graphics/SVG/1.1/DTD/svg11.dtd" [
	<!ENTITY ns_extend "http://ns.adobe.com/Extensibility/1.0/">
	<!ENTITY ns_ai "http://ns.adobe.com/AdobeIllustrator/10.0/">
	<!ENTITY ns_graphs "http://ns.adobe.com/Graphs/1.0/">
	<!ENTITY ns_vars "http://ns.adobe.com/Variables/1.0/">
	<!ENTITY ns_imrep "http://ns.adobe.com/ImageReplacement/1.0/">
	<!ENTITY ns_sfw "http://ns.adobe.com/SaveForWeb/1.0/">
	<!ENTITY ns_custom "http://ns.adobe.com/GenericCustomNamespace/1.0/">
	<!ENTITY ns_adobe_xpath "http://ns.adobe.com/XPath/1.0/">
]>
<svg version="1.1" id="Ebene_1" xmlns:x="&ns_extend;" xmlns:i="&ns_ai;" xmlns:graph="&ns_graphs;"
	 xmlns="http://www.w3.org/2000/svg" xmlns:xlink="http://www.w3.org/1999/xlink" x="0px" y="0px" width="150px" height="75px"
	 viewBox="0 0 150 75" enable-background="new 0 0 150 75" xml:space="preserve">
<metadata>
	<sfw  xmlns="&ns_sfw;">
		<slices></slices>
		<sliceSourceBounds  height="35.38" width="144.9" x="1.32" y="-53.45" bottomLeftOrigin="true"></sliceSourceBounds>
	</sfw>
</metadata>
<g>
	<path fill="#263C7F" d="M55.5,25.98h-8.02c-0.55,0-1.02,0.4-1.1,0.94l-3.24,20.56c-0.06,0.41,0.25,0.77,0.66,0.77h3.83
		c0.55,0,1.02-0.4,1.1-0.94l0.88-5.55c0.08-0.54,0.55-0.94,1.1-0.94h2.54c5.28,0,8.33-2.56,9.13-7.62c0.36-2.22,0.02-3.96-1.02-5.18
		C60.21,26.69,58.18,25.98,55.5,25.98z M56.42,33.49c-0.44,2.88-2.64,2.88-4.76,2.88h-1.21L51.3,31c0.05-0.32,0.33-0.56,0.66-0.56
		h0.55c1.45,0,2.81,0,3.52,0.83C56.46,31.75,56.59,32.48,56.42,33.49z"/>
	<path fill="#263C7F" d="M79.47,33.4h-3.84c-0.33,0-0.61,0.24-0.66,0.56l-0.17,1.07l-0.27-0.39c-0.83-1.21-2.69-1.61-4.53-1.61
		c-4.24,0-7.87,3.21-8.57,7.72c-0.37,2.25,0.15,4.4,1.43,5.9c1.17,1.38,2.84,1.95,4.84,1.95c3.42,0,5.31-2.2,5.31-2.2l-0.17,1.07
		c-0.06,0.41,0.25,0.77,0.66,0.77h3.46c0.55,0,1.02-0.4,1.1-0.94l2.08-13.14C80.19,33.77,79.88,33.4,79.47,33.4z M74.12,40.87
		c-0.37,2.19-2.11,3.67-4.33,3.67c-1.12,0-2.01-0.36-2.58-1.04c-0.57-0.67-0.78-1.63-0.6-2.7c0.35-2.18,2.12-3.7,4.3-3.7
		c1.09,0,1.98,0.36,2.56,1.04C74.05,38.85,74.28,39.81,74.12,40.87z"/>
	<path fill="#263C7F" d="M99.92,33.4h-3.86c-0.37,0-0.71,0.18-0.92,0.49l-5.32,7.84l-2.26-7.53c-0.14-0.47-0.58-0.79-1.07-0.79H82.7
		c-0.46,0-0.78,0.45-0.63,0.88l4.25,12.47l-4,5.64c-0.31,0.45,0,1.06,0.54,1.06h3.85c0.37,0,0.71-0.18,0.92-0.48l12.84-18.52
		C100.78,34.01,100.46,33.4,99.92,33.4z"/>
	<path fill="#179BD7" d="M112.69,25.98h-8.02c-0.55,0-1.01,0.4-1.1,0.94l-3.24,20.56c-0.06,0.41,0.25,0.77,0.66,0.77h4.12
		c0.38,0,0.71-0.28,0.77-0.66l0.92-5.83c0.08-0.54,0.55-0.94,1.1-0.94h2.54c5.28,0,8.33-2.56,9.13-7.62
		c0.36-2.22,0.01-3.96-1.02-5.18C117.4,26.69,115.38,25.98,112.69,25.98z M113.62,33.49c-0.44,2.88-2.64,2.88-4.76,2.88h-1.21
		L108.5,31c0.05-0.32,0.33-0.56,0.66-0.56h0.55c1.45,0,2.81,0,3.52,0.83C113.65,31.75,113.78,32.48,113.62,33.49z"/>
	<path fill="#179BD7" d="M136.66,33.4h-3.84c-0.33,0-0.61,0.24-0.66,0.56l-0.17,1.07l-0.27-0.39c-0.83-1.21-2.68-1.61-4.54-1.61
		c-4.24,0-7.87,3.21-8.57,7.72c-0.37,2.25,0.15,4.4,1.43,5.9c1.17,1.38,2.84,1.95,4.84,1.95c3.42,0,5.31-2.2,5.31-2.2l-0.17,1.07
		c-0.06,0.41,0.25,0.77,0.66,0.77h3.46c0.55,0,1.01-0.4,1.1-0.94l2.08-13.14C137.39,33.77,137.07,33.4,136.66,33.4z M131.31,40.87
		c-0.37,2.19-2.11,3.67-4.33,3.67c-1.11,0-2.01-0.36-2.58-1.04c-0.57-0.67-0.78-1.63-0.6-2.7c0.35-2.18,2.12-3.7,4.3-3.7
		c1.09,0,1.98,0.36,2.56,1.04C131.25,38.85,131.48,39.81,131.31,40.87z"/>
	<path fill="#179BD7" d="M141.19,26.55l-3.29,20.94c-0.06,0.41,0.25,0.77,0.66,0.77h3.31c0.55,0,1.02-0.4,1.1-0.94l3.24-20.56
		c0.06-0.41-0.25-0.77-0.66-0.77h-3.71C141.52,25.98,141.24,26.22,141.19,26.55z"/>
	<path fill="#263C7F" d="M9.84,52.25l0.61-3.9l-1.37-0.03H2.56L7.1,19.58c0.01-0.09,0.06-0.17,0.13-0.22
		c0.07-0.06,0.15-0.09,0.24-0.09h11c3.65,0,6.17,0.76,7.49,2.26c0.62,0.7,1.01,1.44,1.2,2.25c0.2,0.85,0.2,1.86,0.01,3.1l-0.01,0.09
		v0.79l0.62,0.35c0.52,0.27,0.93,0.59,1.25,0.95c0.53,0.6,0.87,1.37,1.01,2.27c0.15,0.93,0.1,2.04-0.14,3.3
		c-0.28,1.44-0.74,2.7-1.35,3.73c-0.56,0.95-1.29,1.73-2.14,2.34c-0.82,0.58-1.79,1.02-2.88,1.3c-1.06,0.28-2.27,0.42-3.6,0.42
		h-0.86c-0.61,0-1.21,0.22-1.67,0.62c-0.47,0.4-0.78,0.96-0.87,1.56l-0.06,0.35l-1.08,6.87l-0.05,0.25
		c-0.01,0.08-0.04,0.12-0.07,0.15c-0.03,0.02-0.07,0.04-0.11,0.04H9.84z"/>
	<path fill="#179BD7" d="M28.34,27.06L28.34,27.06L28.34,27.06c-0.03,0.21-0.07,0.42-0.11,0.64c-1.45,7.45-6.41,10.02-12.75,10.02
		h-3.23c-0.77,0-1.43,0.56-1.55,1.33l0,0l0,0L9.05,49.53L8.58,52.5C8.51,53,8.89,53.45,9.4,53.45h5.72c0.68,0,1.25-0.49,1.36-1.16
		L16.54,52l1.08-6.84l0.07-0.38c0.1-0.67,0.68-1.16,1.36-1.16h0.86c5.54,0,9.88-2.25,11.15-8.77c0.53-2.72,0.26-4.99-1.15-6.59
		C29.48,27.79,28.96,27.39,28.34,27.06z"/>
	<path fill="#253064" d="M26.82,26.45c-0.22-0.06-0.45-0.12-0.69-0.18c-0.24-0.05-0.48-0.1-0.73-0.14
		c-0.87-0.14-1.82-0.21-2.84-0.21h-8.62c-0.21,0-0.41,0.05-0.59,0.13c-0.4,0.19-0.69,0.57-0.76,1.03l-1.83,11.61l-0.05,0.34
		c0.12-0.76,0.77-1.33,1.55-1.33h3.23c6.34,0,11.3-2.57,12.75-10.02c0.04-0.22,0.08-0.43,0.11-0.64c-0.37-0.19-0.76-0.36-1.19-0.5
		C27.04,26.52,26.94,26.49,26.82,26.45z"/>
	<path fill="#263C7F" d="M12.59,27.1c0.07-0.46,0.37-0.84,0.76-1.03c0.18-0.09,0.38-0.14,0.59-0.14h8.62c1.02,0,1.97,0.07,2.84,0.21
		c0.25,0.04,0.49,0.09,0.73,0.14c0.23,0.05,0.46,0.11,0.69,0.18c0.11,0.03,0.22,0.07,0.33,0.1c0.43,0.14,0.83,0.31,1.19,0.5
		c0.43-2.75,0-4.62-1.49-6.32c-1.64-1.87-4.6-2.67-8.39-2.67h-11c-0.77,0-1.43,0.56-1.55,1.33L1.33,48.44
		c-0.09,0.57,0.35,1.09,0.93,1.09h6.79l1.7-10.82L12.59,27.1z"/>
</g>
</svg>
