<?xml version="1.0" encoding="utf-8"?>
<!-- Generator: Adobe Illustrator 16.0.0, SVG Export Plug-In . SVG Version: 6.00 Build 0)  -->
<!DOCTYPE svg PUBLIC "-//W3C//DTD SVG 1.1//EN" "http://www.w3.org/Graphics/SVG/1.1/DTD/svg11.dtd">
<svg version="1.1" id="Ebene_1" xmlns="http://www.w3.org/2000/svg" xmlns:xlink="http://www.w3.org/1999/xlink" x="0px" y="0px"
	 width="264.543px" height="62.361px" viewBox="0 0 264.543 62.361" enable-background="new 0 0 264.543 62.361"
	 xml:space="preserve">
<g>
	<path fill="#FFFFFF" d="M15.454,5.249c-3.578,1.632-6.645,3.562-8.995,5.706c-5.575,4.938-7.208,10.944-6.16,18.6
		c0.975,6.16,3.639,11.635,7.542,16.163c0,0,0.084,0.055,0.067,0.035L14.411,11.3C14.751,9.504,15.454,5.249,15.454,5.249
		 M41.555,10.956c0-3.372-1.383-6.916-5.446-6.916c-4.667,0-8.991,5.271-10.546,13.568l-1.556,9.076
		c1.383,1.297,3.285,2.075,5.706,2.075C36.369,28.76,41.555,19.252,41.555,10.956 M54.54,7.277c-0.146-0.17-0.105-0.104-0.105-0.104
		c0.111,0.923,0.173,1.866,0.173,2.828c0,14.692-9.768,28.181-24.463,28.181c-3.458,0-6.397-0.864-7.867-1.728h-0.173l-3.437,17.778
		l0.124,0.101c3.805,2.005,8.032,3.47,12.537,4.307c7.963,1.133,13.472-0.66,17.966-5.933c4.532-5.089,7.802-13.408,9.384-23.445
		C59.876,19.546,58.813,12.264,54.54,7.277"/>
	<g>
		<path fill="#FFFFFF" d="M80.061,30.635h7.557v2.927h-7.557v7.877h-3.633V21.566h12.09v2.959h-8.457V30.635z"/>
		<path fill="#FFFFFF" d="M92.161,21.566h3.633v19.872h-3.633V21.566z"/>
		<path fill="#FFFFFF" d="M111.684,41.438l-3.376-7.588c-0.932,0.098-1.994,0.16-3.118,0.127v7.461h-3.729V21.566h6.141
			c5.242,0,7.846,2.026,7.846,5.885c0,2.701-1.286,4.565-3.794,5.595l4.437,8.393H111.684z M111.651,27.581
			c0-1.994-1.35-3.056-4.212-3.056h-2.25v6.591C109.466,31.31,111.651,30.121,111.651,27.581z"/>
		<path fill="#FFFFFF" d="M137.129,41.438l-0.867-12.829l-5.533,12.829h-2.379l-5.466-12.701l-0.9,12.701h-3.344l1.575-19.872h3.312
			l6.142,14.567l6.271-14.567h3.279l1.545,19.872H137.129z"/>
		<path fill="#FFFFFF" d="M145.471,21.566h12.799v2.959h-9.164v5.306h8.297v2.957h-8.297v5.691h9.584v2.959h-13.219V21.566z"/>
		<path fill="#FFFFFF" d="M179.117,21.566v19.872H176l-9.906-13.633v13.633h-3.504V21.566h3.152l9.871,13.507V21.566H179.117z"/>
		<path fill="#FFFFFF" d="M201.316,21.566v19.872h-3.119l-9.902-13.633v13.633h-3.508V21.566h3.152l9.871,13.507V21.566H201.316z"/>
		<path fill="#FFFFFF" d="M217.244,36.55h-7.715l-1.834,4.889h-3.666l7.459-19.872h3.99l7.555,19.872h-3.922L217.244,36.55z
			 M210.557,33.688h5.658l-2.859-8.905L210.557,33.688z"/>
		<path fill="#FFFFFF" d="M243.365,41.438l-0.869-12.829l-5.529,12.829h-2.381l-5.467-12.701l-0.898,12.701h-3.348l1.578-19.872
			h3.312l6.143,14.567l6.27-14.567h3.279l1.543,19.872H243.365z"/>
		<path fill="#FFFFFF" d="M251.709,21.566h12.799v2.959h-9.164v5.306h8.295v2.957h-8.295v5.691h9.58v2.959h-13.215V21.566z"/>
	</g>
</g>
</svg>
