<?xml version="1.0" encoding="UTF-8" standalone="no"?><!DOCTYPE svg PUBLIC "-//W3C//DTD SVG 1.1//EN" "http://www.w3.org/Graphics/SVG/1.1/DTD/svg11.dtd"><svg width="1700px" height="469px" version="1.1" xmlns="http://www.w3.org/2000/svg" xmlns:xlink="http://www.w3.org/1999/xlink" xml:space="preserve" xmlns:serif="http://www.serif.com/" style="fill-rule:evenodd;clip-rule:evenodd;stroke-linejoin:round;stroke-miterlimit:2;"><g id="_-Ebene-" serif:id="(Ebene)"><path d="M95.436,74.144C75.245,82.993 56.522,94.87 39.912,109.364C5.46,139.92 -4.614,176.966 1.831,224.252C7.721,261.206 23.859,295.778 48.405,324.023L48.795,324.479L89.013,111.513C91.094,100.381 95.502,74.144 95.502,74.144M256.574,109.364C256.574,88.548 248.081,66.686 222.969,66.686C194.172,66.686 167.445,99.123 158.106,150.495L148.499,206.542C158.113,215.269 170.753,219.926 183.73,219.521C224.85,219.521 256.83,161.137 256.83,109.242M336.977,86.534C336.795,86.268 336.578,86.028 336.331,85.821L336.331,86.144C336.986,91.917 337.313,97.722 337.311,103.531C337.311,194.353 276.978,277.516 186.224,277.516C169.407,277.939 152.735,274.287 137.635,266.874L136.733,266.284L115.35,376.563L116.196,376.953C140.43,389.835 166.482,398.956 193.459,404.002C242.627,411.015 276.622,399.917 304.384,367.425C332.346,335.956 352.583,284.584 362.268,222.627C369.726,162.428 363.247,117.479 336.665,86.667" style="fill:#d4021d;fill-rule:nonzero;"/><path d="M503.392,166.814C539.079,166.814 556.912,185.559 556.912,219.421C556.912,253.283 537.777,274.232 506.32,274.232C500.925,274.242 495.563,273.412 490.424,271.772L490.424,322.821L458.966,322.821L458.966,173.659C473.448,169.612 488.363,167.313 503.392,166.814ZM504.049,248.285C517.473,248.285 525.065,238.266 525.065,220.846C525.065,203.425 518.119,192.104 502.29,192.104C498.25,192.109 494.239,192.79 490.424,194.119L490.424,246.014C494.793,247.596 499.413,248.377 504.06,248.318L504.049,248.285Z" style="fill:#008ebd;fill-rule:nonzero;"/><rect x="570.871" y="120.206" width="31.457" height="151.009" style="fill:#008ebd;fill-rule:nonzero;"/><path d="M705.35,265.449C693.145,271.106 679.842,274.006 666.39,273.943C634.932,273.943 617.289,254.941 617.289,221.013C617.289,187.084 634.932,167.036 666.39,167.036C692.927,167.036 707.91,182.865 707.91,210.304C707.898,216.005 707.376,221.694 706.352,227.302L645.986,227.302C647.544,242.485 654.234,250.678 669.673,250.678C680.213,250.394 690.593,248.034 700.218,243.732L705.539,265.405L705.35,265.449ZM681.495,208.1C681.495,196.034 675.005,189.544 665.21,189.544C655.414,189.544 648.668,195.388 646.464,208.1L681.495,208.1Z" style="fill:#008ebd;fill-rule:nonzero;"/><path d="M787.244,167.493C808.004,167.493 819.681,179.103 819.681,204.727L819.681,271.215L787.956,271.215L787.956,208.557C787.956,199.863 783.938,195.199 775.5,195.199C767.68,196.144 760.316,199.395 754.35,204.538L754.35,271.227L722.793,271.227L722.793,169.507L752.848,169.507L752.848,178.847C762.96,171.791 774.918,167.843 787.244,167.493Z" style="fill:#008ebd;fill-rule:nonzero;"/><path d="M880.948,274.265C855.524,274.265 843.101,262.399 843.101,235.305L843.101,192.472L828.341,192.472L828.341,169.507L843.324,169.507L843.324,138.039L874.793,130.714L874.793,169.307L899.961,169.307L899.961,192.271L874.793,192.271L874.793,233.981C874.793,243.587 878.811,247.862 887.037,247.862C891.539,247.704 896.014,247.096 900.395,246.047L904.848,270.381C897.104,272.795 889.058,274.103 880.948,274.265Z" style="fill:#008ebd;fill-rule:nonzero;"/><path d="M978.515,271.928C963.789,308.517 943.674,318.313 916.435,320.517L910.87,296.261C929.615,294.246 939.021,288.67 949.83,268.11L907.664,169.507L942.505,169.507L965.725,230.608L986.096,169.507L1018.53,169.507L978.515,271.928Z" style="fill:#008ebd;fill-rule:nonzero;"/><path d="M1074.43,252.403C1086.75,252.403 1094.29,247.828 1094.29,238.767C1094.29,225.532 1078.81,220.957 1063.58,213.688C1048.35,206.419 1033.25,195.689 1033.25,172.724C1033.25,146.777 1051.92,132.651 1083.34,132.651C1096.69,132.79 1109.92,135.23 1122.44,139.864L1114.91,165.144C1105.1,161.27 1094.73,159.033 1084.2,158.521C1072.15,158.521 1066.46,163.953 1066.46,171.756C1066.46,183.143 1079.7,187.44 1093.99,193.596C1110.14,200.876 1127.39,211.339 1127.39,237.342C1127.39,265.071 1107.14,278.963 1073.72,278.963C1058.74,278.965 1043.89,276.112 1029.98,270.559L1038.88,244.088C1050.11,249.044 1062.17,251.864 1074.43,252.403Z" style="fill:#00485b;fill-rule:nonzero;"/><path d="M1207.03,169.942C1228.18,169.942 1240.12,181.785 1240.12,207.933L1240.12,275.757L1207.83,275.757L1207.83,211.829C1207.83,202.924 1203.73,198.204 1195.07,198.204C1187.07,199.16 1179.53,202.478 1173.43,207.733L1173.43,275.757L1141.32,275.757L1141.32,121.698L1173.43,121.698L1173.43,180.695C1183.36,173.946 1195.03,170.211 1207.03,169.942Z" style="fill:#00485b;fill-rule:nonzero;"/><path d="M1360.07,221.825C1360.07,257.101 1339.56,278.54 1305.87,278.54C1273.59,278.54 1254,258.025 1254,224.141C1254,190.256 1274.51,169.474 1308.38,169.474C1340.69,169.474 1360.07,189.077 1360.07,221.825ZM1327.32,223.417C1327.32,204.093 1320.24,194.097 1306.8,194.097C1293.37,194.097 1286.94,204.115 1286.94,222.95C1286.94,242.808 1293.96,253.717 1307.66,253.717C1321.36,253.717 1327.32,243.198 1327.32,223.417Z" style="fill:#00485b;fill-rule:nonzero;"/><path d="M1417.42,169.285C1453.88,169.285 1472.08,188.409 1472.08,222.95C1472.08,257.49 1452.23,278.54 1420.4,278.54C1414.92,278.553 1409.47,277.704 1404.25,276.024L1404.25,328.108L1372.16,328.108L1372.16,175.897C1386.93,171.898 1402.12,169.678 1417.42,169.285ZM1418.14,252.403C1431.78,252.403 1439.52,242.207 1439.52,224.408C1439.52,206.609 1432.44,195.088 1416.29,195.088C1412.19,195.086 1408.12,195.779 1404.25,197.136L1404.25,250.088C1408.7,251.678 1413.41,252.462 1418.14,252.403Z" style="fill:#00485b;fill-rule:nonzero;"/><path d="M1499.66,120.529C1499.85,120.524 1500.04,120.522 1500.23,120.522C1512.15,120.522 1521.96,130.33 1521.96,142.25C1521.96,154.17 1512.15,163.979 1500.23,163.979C1488.51,163.979 1478.8,154.504 1478.51,142.792L1478.51,142.213C1478.39,130.475 1487.92,120.705 1499.66,120.529ZM1499.66,159.489C1508.52,159.393 1515.75,152.077 1515.75,143.216C1515.75,143.153 1515.75,143.089 1515.75,143.026L1515.75,142.558C1515.77,142.219 1515.79,141.879 1515.79,141.54C1515.79,132.75 1508.55,125.517 1499.76,125.517C1491.36,125.517 1484.31,132.132 1483.77,140.521C1483.73,141.199 1483.73,141.88 1483.77,142.558C1483.77,142.697 1483.77,142.836 1483.77,142.975C1483.77,151.759 1490.87,159.042 1499.66,159.255L1499.66,159.489ZM1492.25,131.594L1501.27,131.594C1504.82,131.274 1508,133.927 1508.32,137.471C1508.33,137.675 1508.33,137.879 1508.32,138.083C1508.43,140.598 1506.87,142.904 1504.49,143.727L1505.27,145.029L1509.35,152.821L1504.11,152.821L1500.41,144.84L1497.62,144.84L1497.62,153.022L1492.63,153.022L1492.25,131.594ZM1500.05,141.723C1501.68,141.825 1503.11,140.58 1503.23,138.952C1503.25,138.793 1503.25,138.632 1503.23,138.473C1503.24,138.36 1503.25,138.246 1503.25,138.132C1503.25,136.66 1502.13,135.409 1500.67,135.245C1500.49,135.228 1500.31,135.228 1500.12,135.245L1497.59,135.245L1497.59,141.734L1500.05,141.723Z" style="fill:#00485b;fill-rule:nonzero;"/><path d="M1547.1,114.151L1563.21,114.151L1563.21,171.878L1594.76,171.878L1594.76,184.902L1547.1,184.902L1547.1,114.151Z" style="fill:#00485b;fill-rule:nonzero;"/><path d="M1624.96,184.902L1608.51,184.902L1608.51,127.175L1587.02,127.175L1587.02,114.151L1646.59,114.151L1646.59,127.175L1624.97,127.175L1624.96,184.902Z" style="fill:#00485b;fill-rule:nonzero;"/><path d="M1673.31,172.903C1679.49,172.903 1683.14,170.621 1683.14,166.046C1683.14,159.534 1675.34,157.14 1667.71,153.467C1660.07,149.794 1652.51,144.439 1652.51,132.896C1652.51,119.861 1661.89,112.782 1677.65,112.782C1684.4,112.793 1691.09,113.991 1697.43,116.321L1693.7,128.967C1689.7,127.375 1683.07,125.549 1678.27,125.549C1672.2,125.549 1669.37,128.288 1669.37,132.061C1669.37,137.772 1676.11,139.942 1683.19,143.037C1691.31,146.688 1700,151.942 1700,164.977C1700,178.925 1689.83,185.904 1673.02,185.904C1665.5,185.903 1658.06,184.467 1651.08,181.674L1655.53,168.528C1660.67,170.732 1667.52,172.903 1673.31,172.903Z" style="fill:#00485b;fill-rule:nonzero;"/></g></svg>