<?xml version="1.0" encoding="utf-8"?>
<!-- Generator: Adobe Illustrator 16.0.0, SVG Export Plug-In . SVG Version: 6.00 Build 0)  -->
<!DOCTYPE svg PUBLIC "-//W3C//DTD SVG 1.1//EN" "http://www.w3.org/Graphics/SVG/1.1/DTD/svg11.dtd">
<svg version="1.1" id="Ebene_1" xmlns="http://www.w3.org/2000/svg" xmlns:xlink="http://www.w3.org/1999/xlink" x="0px" y="0px"
	 width="264.543px" height="62.361px" viewBox="0 0 264.543 62.361" enable-background="new 0 0 264.543 62.361"
	 xml:space="preserve">
<g>
	<g>
		<path d="M15.454,6.595c-3.578,1.632-6.645,3.562-8.995,5.704c-5.575,4.938-7.208,10.947-6.16,18.602
			c0.975,6.16,3.639,11.635,7.542,16.163c0,0,0.084,0.055,0.067,0.035l6.503-34.453C14.751,10.85,15.454,6.595,15.454,6.595
			 M41.555,12.301c0-3.37-1.383-6.916-5.446-6.916c-4.667,0-8.991,5.272-10.546,13.571l-1.556,9.076
			c1.383,1.297,3.285,2.075,5.706,2.075C36.369,30.107,41.555,20.598,41.555,12.301 M54.54,8.624
			c-0.146-0.17-0.105-0.104-0.105-0.104c0.111,0.923,0.173,1.864,0.173,2.828c0,14.693-9.768,28.181-24.463,28.181
			c-3.458,0-6.397-0.864-7.867-1.729h-0.173l-3.437,17.78l0.124,0.1c3.805,2.005,8.032,3.47,12.537,4.307
			c7.963,1.133,13.472-0.66,17.966-5.933c4.532-5.089,7.802-13.408,9.384-23.445C59.876,20.892,58.813,13.611,54.54,8.624"/>
		<path d="M261.004,16.461c1.531,0,2.66,1.239,2.66,2.795c0,1.558-1.129,2.817-2.66,2.796c-1.531,0-2.684-1.238-2.684-2.796
			c0-1.556,1.148-2.795,2.658-2.795H261.004z M261.004,15.739c-1.963,0-3.541,1.556-3.541,3.517c0,1.962,1.578,3.539,3.541,3.539
			c1.982,0,3.539-1.576,3.539-3.539c0-1.961-1.557-3.517-3.518-3.517H261.004z M260.463,18.083c0.092,0,0.227-0.021,0.451-0.021
			c0.52,0,0.744,0.203,0.744,0.519c0,0.36-0.359,0.521-0.812,0.521h-0.385v-1.019L260.463,18.083L260.463,18.083z M260.441,19.684
			h0.386c0.448,0,0.674,0.156,0.739,0.541c0.093,0.428,0.16,0.722,0.271,0.854h0.789c-0.066-0.136-0.135-0.338-0.246-0.854
			c-0.113-0.476-0.271-0.769-0.631-0.879V19.3c0.402-0.11,0.742-0.403,0.742-0.812c0-0.337-0.156-0.608-0.359-0.744
			c-0.248-0.18-0.543-0.292-1.172-0.292c-0.566,0-0.973,0.067-1.266,0.113v3.517h0.744L260.441,19.684L260.441,19.684z
			 M247.702,41.616c0.812,0.656,2.317,1.082,3.713,1.082c3.056,0,5.604-1.817,5.604-5.568c0-2.59-1.701-4.291-3.865-5.684
			c-1.855-1.275-2.32-1.972-2.32-3.248c0-1.199,0.812-2.358,2.438-2.358c0.967,0,1.775,0.351,2.476,0.812l0.812-2.243
			c-0.771-0.464-1.894-0.967-3.361-0.967c-2.9,0-5.143,2.166-5.143,5.181c0,2.166,1.312,3.75,3.747,5.335
			c1.896,1.277,2.396,2.243,2.396,3.673c0,1.664-1.041,2.707-2.741,2.707c-1.197,0-2.358-0.541-3.019-0.967L247.702,41.616z
			 M239.736,20.582v3.169h-2.28v2.282h2.28V36.86c0,2.591,0.388,3.865,1.121,4.716c0.734,0.812,1.779,1.122,2.938,1.122
			c0.969,0,1.664-0.116,2.205-0.311l-0.117-2.279c-0.35,0.077-0.732,0.115-1.197,0.115c-1.082,0-1.973-0.657-1.973-3.097V26.033
			h3.598v-2.282h-3.598v-4.367L239.736,20.582z M227.17,31.177c0.115-2.553,1.123-5.411,3.057-5.411c1.43,0,2.857,1.661,2.783,5.411
			H227.17z M235.833,33.38c0.039-0.464,0.039-0.966,0.039-1.664c0-4.251-1.509-8.271-5.336-8.271c-3.752,0-6.304,3.789-6.304,9.859
			c0,5.724,2.319,9.396,6.808,9.396c1.467,0,3.053-0.311,4.099-0.89l-0.466-2.204c-0.733,0.426-1.815,0.731-3.092,0.731
			c-2.166,0-4.408-1.234-4.447-6.959L235.833,33.38L235.833,33.38z M215.07,15.71h-2.979v26.755h2.979v-7.071l1.043-1.74
			l4.062,8.812h3.324l-5.373-10.822l4.947-7.891h-3.21l-3.711,6.612c-0.35,0.618-0.655,1.352-1.006,2.087h-0.076V15.71L215.07,15.71
			z M201.73,42.465h2.979V32.105c0-0.619,0.039-1.2,0.115-1.702c0.312-2.165,1.7-3.905,3.596-3.905c0.229,0,0.427,0,0.619,0.039
			v-3.055c-0.192,0-0.39-0.039-0.619-0.039c-1.737,0-3.323,1.469-3.942,3.248H204.4l-0.153-2.939h-2.668
			c0.039,1.396,0.153,3.249,0.153,4.833L201.73,42.465L201.73,42.465z M194.654,36.589c0,0.312,0,0.696-0.075,1.043
			c-0.349,1.856-1.47,2.823-2.783,2.823c-1.043,0-2.28-0.889-2.28-3.325c0-4.06,3.598-4.329,5.143-4.329L194.654,36.589
			L194.654,36.589z M197.594,30.132c0-4.213-1.623-6.688-5.373-6.688c-1.857,0-3.598,0.658-4.369,1.237l0.656,2.088
			c0.889-0.581,1.934-0.969,3.096-0.969c2.355,0,2.978,1.738,2.978,4.255v0.578c-4.217,0.038-7.968,2.125-7.968,6.806
			c0,3.21,1.937,5.338,4.447,5.338c1.586,0,2.898-0.854,3.711-2.282h0.117l0.191,1.971h2.705c-0.191-1.194-0.191-2.818-0.191-4.252
			V30.132L197.594,30.132z M163.725,42.465h2.938V30.596c0-0.58,0.041-1.121,0.116-1.624c0.349-1.975,1.584-3.019,2.781-3.019
			c2.205,0,2.592,2.165,2.592,4.253v12.256h2.938V30.441c0-0.62,0.039-1.199,0.115-1.702c0.426-1.74,1.51-2.784,2.746-2.784
			c2.279,0,2.629,2.358,2.629,4.794v11.714h2.938V30.053c0-4.758-1.973-6.612-4.483-6.612c-0.968,0-1.854,0.229-2.591,0.733
			c-0.696,0.466-1.354,1.198-1.854,2.129h-0.075c-0.697-2.014-2.166-2.862-3.906-2.862c-1.971,0-3.402,1.122-4.215,2.629h-0.076
			l-0.154-2.321h-2.592c0.037,1.51,0.154,2.63,0.154,4.833V42.465L163.725,42.465z"/>
		<path d="M145.939,23.56l5.183,17.515c0.076,0.23,0.151,0.463,0.151,0.696c0,0.271-0.112,0.464-0.271,0.812
			c-0.349,0.812-0.892,1.584-1.586,2.243c-0.771,0.696-1.623,1.274-2.513,1.584l1.548,4.37c0.772-0.232,2.707-1.123,4.291-2.979
			c2.049-2.435,3.286-6.105,4.215-9.661l3.864-14.577h-4.948l-1.586,9.896c-0.151,1.044-0.31,2.127-0.461,3.096h-0.078
			c-0.156-1.006-0.312-2.052-0.504-3.172l-1.854-9.817L145.939,23.56L145.939,23.56z M134.844,20.195v3.365h-2.243v3.595h2.243
			v8.932c0,2.979,0.58,4.406,1.623,5.413c0.891,0.854,2.166,1.197,3.635,1.197c1.354,0,2.396-0.154,3.092-0.347l-0.036-3.945
			c-0.427,0.078-0.812,0.116-1.314,0.116c-1.006,0-1.934-0.541-1.934-2.744v-8.623h3.711V23.56h-3.711v-4.95L134.844,20.195z
			 M116.247,42.465h5.064V30.944c0-0.734,0.117-1.354,0.271-1.74c0.348-1.122,1.043-1.702,1.894-1.702
			c1.469,0,1.857,1.547,1.857,3.133v11.83h5.064v-12.14c0-4.213-1.431-7.075-5.026-7.075c-1.972,0-3.596,0.968-4.601,2.478h-0.078
			l-0.232-2.165h-4.369c0.04,1.775,0.155,3.595,0.155,5.683L116.247,42.465L116.247,42.465z M104.3,31.253
			c0.04-1.894,0.696-4.331,2.359-4.331c1.508,0,2.125,1.896,2.125,4.331H104.3z M113.231,34.812
			c0.116-0.542,0.154-1.277,0.154-2.631c0-5.725-2.358-8.934-6.418-8.934c-4.292,0-7.579,3.79-7.579,10.13
			c0,5.916,2.823,9.317,7.965,9.317c1.934,0,3.906-0.347,5.22-0.85l-0.696-3.638c-0.889,0.312-2.165,0.618-3.595,0.618
			c-2.243,0-3.943-1.082-4.021-4.02h8.97V34.812z M91.348,42.465h5.065V15.71h-5.065V42.465z M79.092,30.479
			c0-0.463,0.039-0.966,0.232-1.354c0.194-0.89,0.928-1.625,1.702-1.625c1.508,0,2.358,1.937,2.358,5.53
			c0,2.976-0.618,5.604-2.397,5.604c-0.58,0-1.237-0.311-1.624-1.471c-0.193-0.387-0.271-0.966-0.271-1.622V30.479z M74.027,49.89
			h5.065v-8.974h0.078c0.542,0.893,1.585,1.856,3.132,1.856c3.17,0,6.146-3.057,6.146-9.783c0-5.219-1.701-9.743-5.876-9.743
			c-1.74,0-3.17,0.929-3.944,2.478H78.55l-0.27-2.164h-4.407c0.078,1.775,0.154,3.711,0.154,5.99V49.89z"/>
	</g>
</g>
</svg>
