<svg id="Ebene_1" data-name="Ebene 1" xmlns="http://www.w3.org/2000/svg" viewBox="0 0 2116.36 800"><defs><style>.cls-1{fill:#d4021d;}.cls-2{fill:#008ebd;}</style></defs><g id="Ebene_2" data-name="Ebene 2"><g id="Ebene_1-2" data-name="Ebene 1-2"><path class="cls-1" d="M337.07,254a193.34,193.34,0,0,0-49.89,31.62c-30.77,27.42-39.84,60.75-34,103A179.47,179.47,0,0,0,295,478.32l.34.38,36.12-191.27c1.86-10,5.77-33.48,5.77-33.48m144.94,31.7c0-18.71-7.85-38.36-30.39-38.36-25.86,0-49.86,29.24-58.49,75.26l-8.63,50.38a44.84,44.84,0,0,0,31.66,11.49c36.91,0,65.85-52.75,65.85-98.77M554,265.26c-.37-.48-.52-.63-.6-.63h0a133.16,133.16,0,0,1,1,15.59c0,81.51-54.2,156.25-135.71,156.25-19.16,0-35.5-4.8-43.64-9.6l-.75-.3-19.19,99.34.74.37a245.15,245.15,0,0,0,69.53,23.88c44.16,6.29,74.74-3.72,99.67-32.92,25.11-28.2,43.27-74.41,52.08-130,6.66-53.9.75-94.27-23-121.95"/><path class="cls-2" d="M1840.67,295.66a19.53,19.53,0,1,1-19,20v-.59a19.22,19.22,0,0,1,19-19.45Zm0,34.71a14.89,14.89,0,0,0,14.47-15.26,14.4,14.4,0,0,0-28.76-1.46c0,.49,0,1,0,1.46a14.67,14.67,0,0,0,14,15.29h.28ZM1834,305.29h8.07a6,6,0,0,1,6.39,5.49,5.3,5.3,0,0,1,0,.69,5.15,5.15,0,0,1-3.46,5.06h0a4.46,4.46,0,0,1,.71,1.11l3.72,7h-5l-3.31-7.22h-2.57v7.22h-4.5Zm7,9a2.64,2.64,0,0,0,2.83-2.44,2.36,2.36,0,0,0,0-.46,2.61,2.61,0,0,0-2.28-2.9,2.9,2.9,0,0,0-.51,0h-2.57v5.81Z"/><path class="cls-2" d="M703.71,337.25c32.06,0,48.1,16.82,48.1,47.28s-17.26,48.78-45.5,48.78a44.51,44.51,0,0,1-14.25-2.23v46.05H663.82V343.2A167.16,167.16,0,0,1,703.71,337.25Zm.59,73.36c12,0,18.83-9,18.83-24.66,0-16.45-6.22-26-20.43-26a31.65,31.65,0,0,0-10.64,1.82v46.65A34.58,34.58,0,0,0,704.3,410.61Z"/><path class="cls-2" d="M764.42,295.36H792.7V431H764.42Z"/><path class="cls-2" d="M885.11,425.87A82.31,82.31,0,0,1,850,433.31c-28.27,0-44.19-16.89-44.19-47.36s15.81-48.37,44.08-48.37c23.85,0,37.21,14.25,37.21,38.88a84.06,84.06,0,0,1-1.42,15.26H831.87c1.38,13.61,7.44,21,21.24,21a72.29,72.29,0,0,0,27.46-6.21l4.72,19.35Zm-21.47-51.49c0-10.83-5.62-16.67-14.62-16.67s-14.88,5.21-16.85,16.67Z"/><path class="cls-2" d="M958.66,337.85c18.6,0,29.28,10.41,29.28,33.48v59.52H959.48V374.71c0-7.81-3.72-12-11.16-12-6,0-12.24,3.72-19.05,8.4V431H901V339.67h27.05v8.41A56.42,56.42,0,0,1,958.66,337.85Z"/><path class="cls-2" d="M1042.85,433.31c-22.84,0-34-10.64-34-34.9V360.28H995.56V339.67h13.25V311.58L1037,305v34.68h22.66v20.61H1037v37.5c0,8.59,3.73,12.43,11.17,12.43a62,62,0,0,0,12-1.6l4,21.83A76.2,76.2,0,0,1,1042.85,433.31Z"/><path class="cls-2" d="M1130.46,431.63c-13.24,32.89-31.29,41.71-55.8,43.72l-5-21.88c16.82-1.78,25.23-6.81,34.68-25.22l-37.84-88.58h31.29l20.83,54.91,18.83-54.91h29.24Z"/><path class="cls-2" d="M1201,348.26a55.81,55.81,0,0,1,30.43-10.41c10.64,0,19.27,3.42,23.88,12.23,14.88-10,24.22-12.23,33.26-12.23,16.22,0,28.05,8.4,28.05,32.06V431H1288.2V375.23c0-7.44-2.79-12.24-10.41-12.24a31.62,31.62,0,0,0-18.61,8.45V431h-28.46v-55.8c0-7.44-2.79-12.24-10.41-12.24a33.78,33.78,0,0,0-18.42,8.22V431h-28.27V339.67h26.86v8.41Z"/><path class="cls-2" d="M1383.22,431c-.78-2.42-1.6-4.61-2.6-8-7.45,5.58-14.89,10.42-25.45,10.42-15.81,0-27.64-10.23-27.64-26.68,0-22.32,21.61-30.06,49.48-31.47v-5c0-7.81-3.72-11.64-13-11.64a78.55,78.55,0,0,0-26.46,5.62l-5.61-19.65a108.54,108.54,0,0,1,36.27-6.8c24.66,0,36.87,10.64,36.87,32.88v32.82a231.17,231.17,0,0,0,1.82,27.45h-23.66ZM1377,391.16c-13.21.59-21.43,3.72-21.43,12.83,0,5.4,2.79,8.82,7.44,8.82s9-2.6,14.25-6.81V391.34Z"/><path class="cls-2" d="M1448.59,383.16V431h-28.28V339.67h28.09v14.88c12.2-14,22.32-19.05,38.06-15.66l-3,26.86C1471.76,363.7,1460.6,364.71,1448.59,383.16Z"/><path class="cls-2" d="M1533.56,397.78l-10.42,11.83V431H1494.9V295.36h28.24v79.58l28.27-35.27h33.49L1551,378.14l35.67,52.9H1554Z"/><path class="cls-2" d="M1662.47,425.87a82.31,82.31,0,0,1-35.09,7.44c-28.27,0-44-16.89-44-47.36s15.81-48.37,44.09-48.37c23.84,0,37.2,14.25,37.2,38.88a85,85,0,0,1-1.41,15.26h-54.1c1.38,13.61,7.44,21,21.25,21a72,72,0,0,0,27.38-6.36l4.87,19.5ZM1641,374.38c0-10.83-5.62-16.67-14.62-16.67s-14.88,5.21-16.82,16.67Z"/><path class="cls-2" d="M1719,433.31c-22.85,0-34.08-10.64-34.08-34.9V360.28h-13.21V339.67h13.21V311.58l28.27-6.59v34.68h22.73v20.61h-22.65v37.5c0,8.59,3.72,12.43,11.16,12.43a61.9,61.9,0,0,0,12-1.6l4,21.83A76,76,0,0,1,1719,433.31Z"/><path class="cls-2" d="M1781.14,412.4c6.59,0,10.42-1.79,10.42-6.62,0-14.44-40.48-10.2-40.48-40.07,0-19.64,17-28,38.29-28a90,90,0,0,1,28.05,5L1811,363.29a67.87,67.87,0,0,0-22-5.39c-6.44,0-10.64,2.19-10.64,6.62,0,12.8,40.7,8.59,40.7,40.25,0,20.87-17.64,28.28-38.29,28.28a81.7,81.7,0,0,1-33.07-6.62l6.85-21A74,74,0,0,0,1781.14,412.4Z"/></g></g></svg>