<?xml version="1.0" encoding="UTF-8" standalone="no"?><!DOCTYPE svg PUBLIC "-//W3C//DTD SVG 1.1//EN" "http://www.w3.org/Graphics/SVG/1.1/DTD/svg11.dtd"><svg width="100%" height="100%" viewBox="0 0 265 63" version="1.1" xmlns="http://www.w3.org/2000/svg" xmlns:xlink="http://www.w3.org/1999/xlink" xml:space="preserve" xmlns:serif="http://www.serif.com/" style="fill-rule:evenodd;clip-rule:evenodd;stroke-linejoin:round;stroke-miterlimit:2;"><g id="Ebene_1-2"><path d="M14.063,7.264c-2.984,1.302 -5.749,3.055 -8.2,5.197c-5.058,4.507 -6.549,9.986 -5.589,16.93c0.864,5.461 3.246,10.571 6.874,14.744l0.056,0.062l5.937,-31.438c0.305,-1.644 0.948,-5.503 0.948,-5.503m23.823,5.21c0,-3.075 -1.29,-6.305 -4.995,-6.305c-4.25,0 -8.195,4.806 -9.614,12.37l-1.418,8.281c1.423,1.282 3.29,1.959 5.204,1.889c6.067,0 10.823,-8.671 10.823,-16.235m11.807,-3.351c-0.061,-0.079 -0.086,-0.104 -0.099,-0.104c0.105,0.851 0.16,1.706 0.164,2.563c0,13.397 -8.908,25.682 -22.306,25.682c-3.149,0 -5.835,-0.789 -7.173,-1.578l-0.123,-0.049l-3.154,16.328l0.122,0.061c3.59,1.875 7.443,3.198 11.428,3.925c7.258,1.034 12.285,-0.612 16.382,-5.411c4.128,-4.635 7.112,-12.231 8.561,-21.368c1.094,-8.859 0.123,-15.494 -3.781,-20.044" style="fill:#d4021d;fill-rule:nonzero;"/><path d="M261.204,14.112c0.028,-0.001 0.057,-0.002 0.086,-0.002c1.761,0 3.21,1.45 3.21,3.211c0,1.761 -1.449,3.21 -3.21,3.21c-1.731,0 -3.167,-1.401 -3.209,-3.132l0,-0.097c0,-0.013 0,-0.025 0,-0.038c0,-1.719 1.403,-3.139 3.123,-3.159l0,0.007Zm0,5.705c1.339,-0.038 2.412,-1.169 2.378,-2.508c0.001,-0.029 0.002,-0.058 0.002,-0.086c0,-1.299 -1.069,-2.367 -2.367,-2.367c-1.241,0 -2.281,0.975 -2.362,2.213l0,0.24c-0.057,1.32 0.981,2.454 2.301,2.513l0.046,0l0.002,-0.005Zm-1.097,-4.122l1.327,0c0.534,-0.037 1.006,0.368 1.05,0.902c0.003,0.038 0.003,0.076 0,0.113c0.014,0.371 -0.218,0.71 -0.569,0.832c0.048,0.055 0.088,0.116 0.117,0.182l0.612,1.151l-0.822,0l-0.544,-1.187l-0.423,0l0,1.187l-0.739,0l-0.009,-3.18Zm1.151,1.479c0.011,0.001 0.022,0.001 0.032,0.001c0.227,0 0.417,-0.177 0.433,-0.402c0.003,-0.025 0.003,-0.051 0,-0.076c0.028,-0.233 -0.141,-0.448 -0.375,-0.477c-0.027,-0.002 -0.056,-0.002 -0.083,0l-0.423,0l0,0.955l0.416,-0.001Z" style="fill:#008ebd;fill-rule:nonzero;"/><path d="M74.326,20.948c5.27,0 7.906,2.764 7.906,7.771c0,5.006 -2.837,8.018 -7.479,8.018c-0.795,0.006 -1.586,-0.118 -2.342,-0.367l0,7.569l-4.642,0l0,-22.013c2.138,-0.59 4.34,-0.918 6.557,-0.978Zm0.097,12.058c1.972,0 3.095,-1.48 3.095,-4.054c0,-2.704 -1.022,-4.273 -3.358,-4.273c-0.596,-0.001 -1.187,0.1 -1.749,0.299l0,7.668c0.643,0.24 1.325,0.362 2.012,0.36Z" style="fill:#008ebd;fill-rule:nonzero;"/><rect x="84.305" y="14.062" width="4.648" height="22.295" style="fill:#008ebd;fill-rule:nonzero;"/><path d="M104.142,35.514c-1.81,0.827 -3.781,1.244 -5.771,1.223c-4.646,0 -7.263,-2.776 -7.263,-7.785c0,-5.008 2.598,-7.95 7.245,-7.95c3.92,0 6.116,2.342 6.116,6.39c-0.001,0.842 -0.079,1.681 -0.233,2.509l-8.845,0c0.227,2.237 1.223,3.451 3.491,3.451c1.557,-0.041 3.091,-0.388 4.514,-1.02l0.776,3.18l-0.03,0.002Zm-3.529,-8.463c0,-1.781 -0.924,-2.74 -2.403,-2.74c-1.479,0 -2.446,0.856 -2.77,2.74l5.173,0Z" style="fill:#008ebd;fill-rule:nonzero;"/><path d="M116.231,21.046c3.057,0 4.813,1.711 4.813,5.503l0,9.783l-4.678,0l0,-9.227c0,-1.284 -0.611,-1.973 -1.834,-1.973c-0.987,0 -2.012,0.612 -3.132,1.381l0,9.844l-4.646,0l0,-15.012l4.446,0l0,1.383c1.477,-1.039 3.226,-1.623 5.031,-1.682Z" style="fill:#008ebd;fill-rule:nonzero;"/><path d="M130.069,36.737c-3.754,0 -5.588,-1.749 -5.588,-5.737l0,-6.267l-2.185,0l0,-3.388l2.178,0l0,-4.617l4.634,-1.081l0,5.7l3.724,0l0,3.388l-3.724,0l0,6.163c0,1.412 0.613,2.043 1.836,2.043c0.664,-0.023 1.325,-0.111 1.972,-0.263l0.657,3.589c-1.14,0.321 -2.319,0.479 -3.504,0.47Z" style="fill:#008ebd;fill-rule:nonzero;"/><path d="M144.469,36.461c-2.176,5.406 -5.143,6.855 -9.171,7.186l-0.822,-3.597c2.764,-0.292 4.147,-1.119 5.7,-4.145l-6.22,-14.56l5.143,0l3.424,9.026l3.095,-9.026l4.806,0l-5.955,15.116Z" style="fill:#008ebd;fill-rule:nonzero;"/><path d="M156.064,22.757c1.463,-1.048 3.203,-1.644 5.001,-1.711c1.749,0 3.168,0.562 3.925,2.01c2.446,-1.643 3.981,-2.01 5.467,-2.01c2.666,0 4.611,1.381 4.611,5.27l0,10.041l-4.672,0l0,-9.167c0,-1.223 -0.458,-2.012 -1.711,-2.012c-1.145,0.112 -2.221,0.601 -3.059,1.389l0,9.79l-4.677,0l0,-9.172c0,-1.223 -0.459,-2.012 -1.711,-2.012c-1.124,0.132 -2.18,0.603 -3.028,1.352l0,9.832l-4.647,0l0,-15.012l4.415,0l0,1.383l0.086,0.029Z" style="fill:#008ebd;fill-rule:nonzero;"/><path d="M186.014,36.357c-0.128,-0.398 -0.263,-0.758 -0.427,-1.315c-1.224,0.917 -2.447,1.713 -4.183,1.713c-2.599,0 -4.543,-1.682 -4.543,-4.386c0,-3.668 3.552,-4.94 8.133,-5.172l0,-0.822c0,-1.284 -0.612,-1.913 -2.137,-1.913c-1.492,0.054 -2.964,0.366 -4.349,0.924l-0.922,-3.23c1.909,-0.71 3.925,-1.088 5.961,-1.118c4.054,0 6.061,1.749 6.061,5.404l0,5.395c0.01,1.508 0.109,3.015 0.299,4.512l-3.889,0l-0.004,0.008Zm-1.022,-6.548c-2.171,0.097 -3.522,0.611 -3.522,2.108c0,0.888 0.458,1.45 1.223,1.45c0.764,0 1.479,-0.427 2.342,-1.119l0,-2.41l-0.043,-0.029Z" style="fill:#008ebd;fill-rule:nonzero;"/><path d="M196.759,28.494l0,7.863l-4.648,0l0,-15.012l4.617,0l0,2.446c2.005,-2.301 3.669,-3.131 6.256,-2.574l-0.493,4.415c-1.924,-0.337 -3.758,-0.171 -5.732,2.862Z" style="fill:#008ebd;fill-rule:nonzero;"/><path d="M210.725,30.897l-1.712,1.944l0,3.516l-4.642,0l0,-22.295l4.642,0l0,13.081l4.646,-5.798l5.505,0l-5.572,6.324l5.863,8.695l-5.37,0l-3.36,-5.467Z" style="fill:#008ebd;fill-rule:nonzero;"/><path d="M231.914,35.514c-1.809,0.826 -3.779,1.244 -5.768,1.223c-4.647,0 -7.232,-2.776 -7.232,-7.785c0,-5.008 2.599,-7.95 7.247,-7.95c3.918,0 6.114,2.342 6.114,6.39c-0.001,0.842 -0.079,1.681 -0.231,2.509l-8.893,0c0.227,2.237 1.223,3.451 3.493,3.451c1.554,-0.049 3.084,-0.404 4.5,-1.045l0.801,3.205l-0.031,0.002Zm-3.529,-8.463c0,-1.781 -0.924,-2.74 -2.403,-2.74c-1.48,0 -2.446,0.856 -2.765,2.74l5.168,0Z" style="fill:#008ebd;fill-rule:nonzero;"/><path d="M241.205,36.737c-3.755,0 -5.601,-1.749 -5.601,-5.737l0,-6.267l-2.172,0l0,-3.388l2.172,0l0,-4.617l4.646,-1.083l0,5.7l3.736,0l0,3.388l-3.722,0l0,6.164c0,1.412 0.611,2.043 1.834,2.043c0.664,-0.023 1.325,-0.111 1.972,-0.263l0.658,3.588c-1.146,0.324 -2.332,0.483 -3.523,0.472Z" style="fill:#008ebd;fill-rule:nonzero;"/><path d="M251.419,33.3c1.083,0 1.713,-0.294 1.713,-1.088c0,-2.374 -6.654,-1.677 -6.654,-6.586c0,-3.229 2.794,-4.603 6.294,-4.603c1.57,0.028 3.127,0.305 4.61,0.822l-1.055,3.383c-1.147,-0.496 -2.37,-0.796 -3.616,-0.886c-1.059,0 -1.749,0.36 -1.749,1.088c0,2.104 6.69,1.412 6.69,6.616c0,3.43 -2.9,4.648 -6.294,4.648c-1.868,0.019 -3.719,-0.351 -5.435,-1.088l1.126,-3.452c1.372,0.652 2.854,1.04 4.37,1.146Z" style="fill:#008ebd;fill-rule:nonzero;"/></g></svg>