<?xml version="1.0" encoding="utf-8"?>
<!-- Generator: Adobe Illustrator 16.0.0, SVG Export Plug-In . SVG Version: 6.00 Build 0)  -->
<!DOCTYPE svg PUBLIC "-//W3C//DTD SVG 1.1//EN" "http://www.w3.org/Graphics/SVG/1.1/DTD/svg11.dtd" [
	<!ENTITY ns_extend "http://ns.adobe.com/Extensibility/1.0/">
	<!ENTITY ns_ai "http://ns.adobe.com/AdobeIllustrator/10.0/">
	<!ENTITY ns_graphs "http://ns.adobe.com/Graphs/1.0/">
	<!ENTITY ns_vars "http://ns.adobe.com/Variables/1.0/">
	<!ENTITY ns_imrep "http://ns.adobe.com/ImageReplacement/1.0/">
	<!ENTITY ns_sfw "http://ns.adobe.com/SaveForWeb/1.0/">
	<!ENTITY ns_custom "http://ns.adobe.com/GenericCustomNamespace/1.0/">
	<!ENTITY ns_adobe_xpath "http://ns.adobe.com/XPath/1.0/">
]>
<svg version="1.1" id="Ebene_1" xmlns:x="&ns_extend;" xmlns:i="&ns_ai;" xmlns:graph="&ns_graphs;"
	 xmlns="http://www.w3.org/2000/svg" xmlns:xlink="http://www.w3.org/1999/xlink" x="0px" y="0px" width="150px" height="75px"
	 viewBox="0 0 150 75" enable-background="new 0 0 150 75" xml:space="preserve">
<metadata>
	<sfw  xmlns="&ns_sfw;">
		<slices></slices>
		<sliceSourceBounds  height="45.55" width="146.93" x="1.74" y="-58.82" bottomLeftOrigin="true"></sliceSourceBounds>
	</sfw>
</metadata>
<g>
	<g id="layer1" transform="translate(85.788367,-282.23124)">
		<path id="path66" fill="#EE8008" d="M-35.45,295.5c-2.01,0-3.96,0.46-5.79,1.32c-2.61,1.24-4.99,3.3-6.92,6.04
			c-1.26,1.78-2.33,3.84-3.18,6.15c-1.59,4.35-1.57,7.88,0.05,10.21c0.92,1.32,2.84,2.89,6.73,2.89h0.02
			c7.09,0,12.39-4.65,15.74-13.82c0.89-2.43,2.05-6.95-0.08-10.01C-30.18,296.44-32.38,295.51-35.45,295.5L-35.45,295.5z
			 M7.34,295.5c-2.01,0-3.96,0.46-5.79,1.32c-2.62,1.24-4.98,3.3-6.92,6.04c-1.26,1.78-2.33,3.84-3.17,6.15
			c-1.59,4.35-1.57,7.88,0.05,10.21c0.92,1.32,2.83,2.89,6.73,2.89h0.01c7.09,0,12.39-4.65,15.74-13.82
			c0.89-2.43,2.05-6.95-0.08-10.01C12.62,296.44,10.41,295.51,7.34,295.5z M-58.23,295.87c-2.33,0-4.6,0-6.63,1.03
			c-2.03,1.03-3.82,3.09-5.2,7.22c-0.3,0.89-0.46,1.65-0.48,2.31c-0.02,0.66,0.09,1.23,0.35,1.72c0.31,0.6,0.81,1.16,1.44,1.64
			c0.63,0.48,1.38,0.86,2.2,1.11c0.03,0.01,0.46,0.13,0.98,0.28c0.51,0.15,1.12,0.33,1.5,0.44c0.22,0.07,0.47,0.16,0.69,0.29
			c0.22,0.13,0.42,0.31,0.55,0.56c0.08,0.16,0.13,0.34,0.13,0.53c0.01,0.19-0.03,0.4-0.1,0.62c-0.19,0.56-0.48,0.92-1.03,1.14
			c-0.54,0.22-1.35,0.29-2.57,0.3h-15.23l-2.41,6.62h16.31c1.53,0,4.34,0,7.03-1.15c2.7-1.15,5.28-3.43,6.38-8.01
			c0.41-1.72,0.28-3.12-0.39-4.23c-0.68-1.1-1.9-1.9-3.68-2.41c0,0-0.4-0.12-0.87-0.25c-0.47-0.13-1.01-0.29-1.28-0.37
			c-0.46-0.13-0.81-0.39-1.01-0.73c-0.21-0.33-0.27-0.74-0.15-1.16c0.12-0.43,0.42-0.78,0.85-1.02c0.43-0.24,0.99-0.37,1.65-0.37
			h9.48c0.07-0.1,0.13-0.2,0.19-0.3c1.73-2.45,3.83-4.43,6.12-5.83H-58.23z M-15.63,295.87c-4.22,0-7.36,2.13-8.84,6.13l-7.17,19.69
			h7.85l3.68-10.12l6.94,0l1.98-5.42l-6.92,0l1.11-3.14c0.23-0.56,0.79-1.01,1.6-1.01c0.45,0,5.54,0,8.18,0
			c0.07-0.1,0.13-0.2,0.2-0.3c1.73-2.45,4.18-4.43,6.48-5.83H-15.63L-15.63,295.87z M20.78,295.89l-9.4,25.82h7.98l3.42-9.09
			c0.17,0.37,2.18,9.09,2.18,9.09h8.4c0,0-1.53-6.4-2.65-8.99c-0.29-0.67-0.59-1.41-0.99-2.03c2.37-0.88,5.81-2.77,7.23-6.61
			c0.87-2.36,0.83-4.26-0.15-5.66c-1.18-1.7-3.57-2.53-7.33-2.53H20.78L20.78,295.89z M37.16,295.89c0.51,0.4,0.94,0.85,1.3,1.38
			c0.93,1.34,1.29,2.93,1.07,4.75h4.75l-7.16,19.69h7.16l7.17-19.69h9.2l2.23-6.13H37.16z M26.05,301.22h1.32
			c2.41,0,3.31,0.71,2.49,2.91c-0.77,2.06-2.14,3.34-4.76,3.34h-0.01l-1.35,0L26.05,301.22L26.05,301.22z M-37.34,301.34
			L-37.34,301.34c2.45,0,3.02,1.42,0.86,7.32l0,0c-2.21,6.06-3.82,7.58-6.23,7.58h0c-2.36,0-3.18-1.49-0.98-7.52
			C-42.05,304.22-39.92,301.34-37.34,301.34L-37.34,301.34z M5.46,301.34L5.46,301.34c2.45,0,3.01,1.42,0.86,7.32
			c-2.21,6.06-3.82,7.58-6.23,7.58H0.08c-2.36,0-3.18-1.49-0.98-7.52C0.75,304.22,2.88,301.34,5.46,301.34L5.46,301.34z"/>
		<path id="path98" fill="#383A41" d="M-76.29,324.42c-0.5,0-0.88,0.09-1.13,0.27c-0.25,0.18-0.46,0.51-0.63,0.98
			c-0.16,0.45-0.19,0.76-0.08,0.94c0.11,0.18,0.42,0.27,0.93,0.27c0.51,0,0.89-0.09,1.14-0.28c0.25-0.19,0.46-0.51,0.63-0.97
			c0.17-0.46,0.19-0.77,0.08-0.95C-75.46,324.51-75.77,324.42-76.29,324.42z M-71.96,324.42c-0.51,0-0.89,0.09-1.13,0.27
			c-0.25,0.18-0.46,0.51-0.63,0.98c-0.16,0.45-0.19,0.76-0.08,0.94c0.11,0.18,0.42,0.27,0.93,0.27c0.51,0,0.89-0.09,1.14-0.28
			c0.25-0.19,0.46-0.51,0.63-0.97c0.17-0.46,0.19-0.77,0.08-0.95C-71.14,324.51-71.45,324.42-71.96,324.42z M8.85,327.78
			c-0.59,0-1.17,0.08-1.75,0.23c-0.58,0.15-1.12,0.38-1.62,0.69c-0.5,0.31-0.95,0.69-1.34,1.16c-0.4,0.47-0.71,1.01-0.93,1.62
			c-0.2,0.54-0.28,0.99-0.26,1.38c0.02,0.38,0.1,0.71,0.26,1c0.15,0.28,0.35,0.52,0.6,0.72c0.25,0.2,0.52,0.38,0.8,0.54
			c0.29,0.16,0.56,0.31,0.84,0.45c0.27,0.14,0.5,0.29,0.7,0.46c0.2,0.16,0.33,0.35,0.42,0.55c0.08,0.21,0.07,0.46-0.03,0.75
			c-0.09,0.25-0.22,0.48-0.39,0.68c-0.17,0.21-0.36,0.38-0.59,0.52c-0.23,0.14-0.48,0.25-0.76,0.32c-0.28,0.08-0.58,0.12-0.89,0.12
			c-0.48,0-0.89-0.06-1.21-0.17c-0.33-0.11-0.6-0.23-0.81-0.36c-0.21-0.13-0.39-0.25-0.52-0.36c-0.13-0.11-0.24-0.16-0.33-0.16
			c-0.07,0-0.13,0.02-0.19,0.05c-0.06,0.04-0.12,0.1-0.18,0.18c-0.06,0.08-0.12,0.2-0.19,0.34c-0.06,0.14-0.14,0.31-0.21,0.51
			c-0.11,0.31-0.18,0.54-0.2,0.7c-0.02,0.16,0,0.29,0.05,0.37c0.05,0.09,0.16,0.18,0.31,0.3c0.15,0.11,0.36,0.22,0.61,0.32
			c0.25,0.1,0.55,0.19,0.91,0.26c0.35,0.07,0.75,0.11,1.19,0.11c0.66,0,1.3-0.09,1.94-0.26c0.64-0.17,1.23-0.43,1.78-0.77
			c0.55-0.34,1.05-0.76,1.48-1.27c0.44-0.51,0.78-1.1,1.02-1.77c0.19-0.51,0.27-0.96,0.25-1.34c-0.02-0.38-0.11-0.71-0.26-0.99
			c-0.15-0.28-0.36-0.52-0.62-0.72c-0.26-0.2-0.53-0.38-0.82-0.54c-0.28-0.16-0.57-0.31-0.85-0.45c-0.28-0.14-0.52-0.29-0.72-0.46
			c-0.2-0.16-0.34-0.35-0.42-0.55c-0.08-0.21-0.07-0.46,0.03-0.74c0.07-0.19,0.17-0.37,0.3-0.54c0.13-0.17,0.29-0.32,0.48-0.44
			c0.19-0.12,0.4-0.22,0.63-0.29c0.24-0.07,0.5-0.1,0.78-0.1c0.36,0,0.68,0.04,0.95,0.13c0.27,0.09,0.5,0.19,0.69,0.3
			c0.19,0.11,0.35,0.21,0.47,0.3c0.13,0.09,0.23,0.14,0.3,0.14c0.07,0,0.14-0.02,0.2-0.06c0.06-0.04,0.11-0.1,0.17-0.19
			c0.05-0.08,0.11-0.2,0.17-0.33c0.06-0.13,0.12-0.29,0.19-0.49c0.06-0.17,0.11-0.32,0.14-0.43c0.04-0.12,0.06-0.21,0.07-0.29
			c0.01-0.07,0.01-0.14,0.01-0.18c-0.01-0.04-0.03-0.1-0.07-0.17c-0.04-0.06-0.15-0.15-0.32-0.25c-0.17-0.1-0.37-0.19-0.61-0.27
			c-0.23-0.08-0.5-0.14-0.78-0.19C9.45,327.8,9.15,327.78,8.85,327.78L8.85,327.78z M49.98,327.79c-1.01,0-1.98,0.16-2.92,0.47
			c-0.94,0.31-1.8,0.76-2.59,1.34c-0.79,0.58-1.5,1.29-2.12,2.13c-0.62,0.84-1.12,1.78-1.5,2.83c-0.37,1.02-0.55,1.93-0.55,2.73
			c0,0.8,0.19,1.48,0.54,2.04c0.36,0.56,0.89,0.98,1.59,1.28c0.7,0.29,1.57,0.44,2.59,0.44c0.35,0,0.71-0.01,1.06-0.05
			c0.36-0.03,0.72-0.08,1.08-0.15c0.37-0.07,0.72-0.14,1.07-0.24s0.65-0.18,0.89-0.27c0.25-0.09,0.43-0.21,0.56-0.35
			c0.12-0.15,0.22-0.32,0.29-0.52l1.86-5.1c0.05-0.13,0.07-0.25,0.08-0.35c0-0.1-0.01-0.19-0.05-0.26
			c-0.04-0.07-0.09-0.13-0.16-0.16c-0.07-0.04-0.16-0.06-0.26-0.06h-4.33c-0.06,0-0.12,0.02-0.18,0.06
			c-0.06,0.04-0.12,0.09-0.18,0.17c-0.06,0.08-0.12,0.17-0.18,0.3c-0.06,0.12-0.13,0.28-0.19,0.46c-0.13,0.36-0.19,0.61-0.18,0.76
			c0.01,0.15,0.08,0.22,0.2,0.22h2.43l-1.08,2.97c-0.29,0.13-0.59,0.23-0.9,0.3c-0.31,0.07-0.61,0.1-0.9,0.1
			c-0.6,0-1.1-0.1-1.53-0.29c-0.42-0.19-0.74-0.48-0.95-0.85c-0.21-0.37-0.31-0.84-0.31-1.4c0.01-0.56,0.15-1.21,0.41-1.94
			c0.24-0.67,0.56-1.28,0.95-1.83c0.39-0.55,0.84-1.02,1.33-1.42c0.5-0.39,1.04-0.69,1.62-0.91c0.58-0.21,1.18-0.32,1.8-0.32
			c0.58,0,1.07,0.06,1.47,0.18c0.39,0.12,0.73,0.25,0.99,0.38c0.27,0.14,0.47,0.27,0.62,0.39c0.15,0.12,0.26,0.18,0.35,0.18
			c0.06,0,0.12-0.02,0.17-0.05c0.06-0.03,0.11-0.09,0.17-0.17c0.06-0.08,0.12-0.19,0.19-0.33c0.07-0.14,0.13-0.3,0.21-0.5
			c0.12-0.33,0.19-0.58,0.21-0.75c0.02-0.17,0-0.3-0.05-0.39c-0.06-0.09-0.17-0.2-0.35-0.33c-0.18-0.12-0.42-0.24-0.72-0.35
			c-0.3-0.11-0.66-0.2-1.09-0.28C51.03,327.83,50.54,327.79,49.98,327.79z M-30.99,327.95c-0.34,0-0.6,0.01-0.8,0.03
			c-0.19,0.02-0.34,0.06-0.45,0.13c-0.11,0.07-0.18,0.18-0.23,0.31c-0.04,0.14-0.08,0.32-0.11,0.56l-1.16,11.18
			c-0.02,0.16-0.01,0.29,0.01,0.38c0.02,0.09,0.09,0.17,0.21,0.22s0.28,0.08,0.5,0.1c0.22,0.02,0.52,0.03,0.91,0.03
			c0.36,0,0.66-0.01,0.89-0.03c0.23-0.02,0.42-0.05,0.56-0.11c0.15-0.05,0.27-0.12,0.36-0.22c0.09-0.1,0.18-0.22,0.27-0.37l4.9-8.12
			h0.02l-0.9,8.12c-0.03,0.16-0.03,0.29,0,0.38c0.02,0.09,0.09,0.17,0.21,0.22c0.11,0.05,0.28,0.08,0.5,0.1
			c0.22,0.02,0.52,0.03,0.9,0.03c0.34,0,0.62-0.01,0.84-0.03c0.22-0.02,0.41-0.05,0.57-0.1c0.16-0.05,0.29-0.12,0.39-0.22
			c0.1-0.1,0.21-0.22,0.3-0.38l7-11.15c0.15-0.24,0.25-0.44,0.32-0.58c0.06-0.14,0.07-0.25,0.02-0.32c-0.05-0.07-0.15-0.12-0.3-0.13
			c-0.16-0.02-0.38-0.03-0.67-0.03c-0.31,0-0.56,0.01-0.73,0.03c-0.18,0.02-0.32,0.05-0.43,0.09c-0.11,0.04-0.19,0.1-0.25,0.18
			c-0.06,0.08-0.12,0.17-0.18,0.27l-5.81,9.79h-0.02l1.13-9.75c0.02-0.13,0.02-0.24,0.01-0.32c-0.02-0.08-0.07-0.14-0.16-0.18
			c-0.09-0.04-0.22-0.07-0.4-0.08c-0.19-0.01-0.43-0.02-0.75-0.02c-0.3,0-0.54,0.01-0.72,0.03c-0.19,0.02-0.34,0.05-0.45,0.09
			c-0.12,0.04-0.21,0.1-0.28,0.18c-0.07,0.08-0.14,0.18-0.22,0.31l-5.88,9.75h-0.01l1.32-9.81c0.03-0.13,0.04-0.22,0.03-0.29
			c-0.01-0.07-0.05-0.12-0.13-0.16c-0.08-0.04-0.21-0.06-0.39-0.07C-30.44,327.95-30.68,327.95-30.99,327.95L-30.99,327.95z
			 M-0.08,327.95c-0.25,0-0.46,0.01-0.63,0.03c-0.17,0.02-0.32,0.05-0.43,0.08c-0.11,0.03-0.2,0.08-0.26,0.13
			c-0.06,0.05-0.11,0.11-0.13,0.18l-4.4,12.1c-0.02,0.07-0.03,0.13,0,0.18c0.02,0.05,0.08,0.09,0.16,0.13
			c0.09,0.03,0.21,0.06,0.37,0.08c0.16,0.02,0.37,0.03,0.62,0.03c0.26,0,0.47-0.01,0.65-0.03c0.17-0.02,0.31-0.05,0.42-0.08
			c0.11-0.03,0.2-0.08,0.26-0.13c0.06-0.05,0.1-0.11,0.13-0.18l4.4-12.1c0.03-0.07,0.03-0.12,0-0.18c-0.02-0.05-0.08-0.1-0.17-0.13
			c-0.09-0.03-0.21-0.06-0.37-0.08C0.38,327.96,0.18,327.95-0.08,327.95L-0.08,327.95z M-79.32,327.95c-0.26,0-0.47,0.01-0.65,0.03
			c-0.17,0.02-0.32,0.05-0.43,0.08c-0.11,0.03-0.2,0.08-0.26,0.13c-0.06,0.05-0.1,0.11-0.13,0.18l-2.84,7.79
			c-0.3,0.82-0.44,1.53-0.43,2.14c0.01,0.61,0.16,1.12,0.46,1.53c0.29,0.41,0.72,0.71,1.29,0.92c0.56,0.2,1.25,0.3,2.06,0.3
			c0.86,0,1.66-0.11,2.4-0.34c0.74-0.22,1.42-0.55,2.02-0.98c0.61-0.43,1.14-0.95,1.59-1.57c0.46-0.62,0.83-1.32,1.12-2.11l2.8-7.69
			c0.02-0.07,0.02-0.13,0-0.18c-0.02-0.05-0.07-0.1-0.16-0.13c-0.09-0.03-0.21-0.06-0.36-0.08c-0.15-0.02-0.36-0.03-0.61-0.03
			c-0.25,0-0.46,0.01-0.64,0.03c-0.17,0.02-0.32,0.05-0.43,0.08c-0.11,0.03-0.2,0.08-0.25,0.13c-0.06,0.05-0.1,0.11-0.12,0.18
			l-2.81,7.71c-0.16,0.45-0.37,0.85-0.62,1.2c-0.25,0.36-0.53,0.65-0.85,0.89c-0.31,0.24-0.65,0.42-1.02,0.55
			c-0.37,0.12-0.76,0.19-1.17,0.19c-0.4,0-0.75-0.06-1.03-0.18c-0.28-0.12-0.49-0.3-0.64-0.55c-0.15-0.25-0.21-0.55-0.2-0.93
			c0.01-0.37,0.11-0.81,0.29-1.32l2.75-7.57c0.02-0.07,0.02-0.13,0-0.18c-0.02-0.05-0.08-0.1-0.17-0.13
			c-0.09-0.03-0.21-0.06-0.37-0.08C-78.87,327.96-79.07,327.95-79.32,327.95L-79.32,327.95z M16.78,327.95
			c-0.26,0-0.47,0.01-0.65,0.03c-0.17,0.02-0.32,0.04-0.43,0.08c-0.11,0.03-0.2,0.08-0.26,0.13c-0.06,0.05-0.1,0.11-0.12,0.18
			l-2.84,7.79c-0.3,0.82-0.44,1.53-0.43,2.15c0.01,0.61,0.16,1.12,0.46,1.53c0.29,0.41,0.72,0.71,1.29,0.92
			c0.57,0.2,1.25,0.3,2.06,0.3c0.86,0,1.66-0.11,2.4-0.34c0.74-0.22,1.41-0.55,2.02-0.98c0.6-0.43,1.13-0.95,1.59-1.57
			c0.46-0.62,0.83-1.32,1.11-2.11l2.8-7.69c0.03-0.07,0.03-0.13,0-0.18c-0.02-0.05-0.07-0.09-0.16-0.13
			c-0.09-0.03-0.21-0.06-0.36-0.08c-0.15-0.02-0.36-0.03-0.61-0.03c-0.25,0-0.46,0.01-0.64,0.03c-0.17,0.02-0.32,0.04-0.43,0.08
			c-0.11,0.03-0.2,0.08-0.25,0.13c-0.06,0.05-0.1,0.11-0.12,0.18l-2.81,7.71c-0.17,0.45-0.37,0.85-0.62,1.2
			c-0.25,0.36-0.53,0.65-0.85,0.89c-0.31,0.24-0.65,0.42-1.02,0.55c-0.37,0.12-0.76,0.19-1.17,0.19c-0.4,0-0.75-0.06-1.03-0.19
			c-0.28-0.12-0.5-0.3-0.64-0.55c-0.14-0.25-0.21-0.55-0.2-0.93c0.01-0.37,0.11-0.81,0.29-1.32l2.75-7.57
			c0.03-0.07,0.02-0.13,0-0.18c-0.02-0.05-0.08-0.09-0.16-0.13c-0.09-0.03-0.21-0.06-0.37-0.08
			C17.23,327.96,17.03,327.95,16.78,327.95L16.78,327.95z M39.05,327.97c-0.24,0-0.44,0.01-0.59,0.02c-0.16,0.02-0.29,0.04-0.4,0.08
			c-0.11,0.04-0.19,0.09-0.25,0.14c-0.06,0.05-0.1,0.11-0.12,0.18l-2.19,6.01c-0.16,0.46-0.33,0.94-0.51,1.44
			c-0.17,0.5-0.33,0.99-0.48,1.45h-0.01c-0.02-0.26-0.05-0.53-0.08-0.79c-0.03-0.26-0.06-0.53-0.09-0.81
			c-0.03-0.28-0.07-0.55-0.11-0.82c-0.04-0.28-0.08-0.55-0.12-0.84l-0.79-4.68c-0.03-0.26-0.07-0.47-0.13-0.65
			c-0.05-0.17-0.13-0.31-0.23-0.41c-0.1-0.1-0.23-0.17-0.38-0.22c-0.16-0.04-0.36-0.06-0.61-0.06h-1.4c-0.26,0-0.52,0.08-0.75,0.23
			c-0.24,0.16-0.41,0.39-0.52,0.7l-4.19,11.52c-0.03,0.06-0.03,0.13-0.02,0.18c0.02,0.05,0.06,0.1,0.13,0.13
			c0.07,0.04,0.18,0.07,0.33,0.09c0.15,0.02,0.33,0.03,0.56,0.03c0.24,0,0.43-0.01,0.6-0.03c0.16-0.02,0.29-0.05,0.39-0.09
			c0.1-0.04,0.18-0.08,0.24-0.13c0.05-0.05,0.09-0.11,0.12-0.18l2.44-6.71c0.18-0.5,0.35-0.99,0.51-1.46
			c0.16-0.47,0.31-0.95,0.46-1.42h0.02c0.01,0.39,0.04,0.79,0.08,1.2c0.04,0.41,0.09,0.8,0.14,1.15l1.01,5.99
			c0.05,0.33,0.1,0.6,0.15,0.81c0.06,0.21,0.13,0.37,0.23,0.49c0.1,0.12,0.22,0.21,0.37,0.25c0.15,0.05,0.34,0.07,0.58,0.07h1.11
			c0.13,0,0.25-0.02,0.39-0.06c0.13-0.04,0.26-0.09,0.38-0.17c0.12-0.08,0.22-0.18,0.32-0.3c0.1-0.12,0.17-0.25,0.23-0.41
			l4.19-11.52c0.03-0.07,0.03-0.13,0.02-0.18c-0.01-0.05-0.06-0.1-0.12-0.14c-0.07-0.04-0.17-0.07-0.32-0.08
			C39.46,327.98,39.27,327.97,39.05,327.97L39.05,327.97z M-53.43,328.01c-0.22,0-0.43,0.06-0.62,0.19
			c-0.2,0.13-0.35,0.34-0.45,0.63L-58.57,340c-0.1,0.29-0.11,0.5,0,0.63c0.1,0.13,0.26,0.19,0.48,0.19h6.44
			c0.06,0,0.12-0.02,0.18-0.06c0.06-0.04,0.12-0.09,0.19-0.17c0.06-0.08,0.12-0.18,0.19-0.31c0.06-0.13,0.13-0.29,0.2-0.48
			c0.07-0.19,0.12-0.35,0.15-0.48c0.03-0.13,0.04-0.23,0.04-0.32c0-0.08-0.03-0.13-0.06-0.17c-0.04-0.03-0.08-0.05-0.14-0.05h-4.61
			l1.31-3.62h3.87c0.06,0,0.12-0.02,0.18-0.05c0.06-0.03,0.12-0.09,0.18-0.16c0.06-0.07,0.12-0.18,0.18-0.3
			c0.06-0.13,0.13-0.29,0.2-0.48c0.07-0.19,0.12-0.34,0.15-0.47c0.03-0.13,0.04-0.23,0.04-0.31c0-0.08-0.02-0.13-0.06-0.17
			c-0.04-0.03-0.08-0.05-0.14-0.05h-3.87l1.14-3.13h4.58c0.06,0,0.12-0.02,0.18-0.05c0.06-0.04,0.12-0.09,0.18-0.17
			c0.06-0.08,0.12-0.18,0.19-0.31c0.06-0.13,0.13-0.28,0.2-0.47c0.07-0.2,0.12-0.36,0.15-0.49c0.03-0.13,0.04-0.24,0.04-0.32
			c0-0.08-0.02-0.14-0.06-0.17c-0.03-0.03-0.08-0.05-0.14-0.05H-53.43L-53.43,328.01z M-42.68,328.01c-0.22,0-0.43,0.06-0.62,0.19
			c-0.2,0.13-0.35,0.34-0.45,0.63l-4.24,11.64c-0.02,0.07-0.03,0.13-0.01,0.18s0.07,0.09,0.16,0.13c0.09,0.03,0.21,0.06,0.37,0.08
			c0.16,0.02,0.37,0.03,0.62,0.03c0.26,0,0.47-0.01,0.64-0.03c0.17-0.02,0.32-0.05,0.42-0.08c0.11-0.03,0.2-0.08,0.26-0.13
			c0.06-0.05,0.11-0.11,0.13-0.18l1.78-4.88h0.81c0.28,0,0.5,0.04,0.69,0.13c0.18,0.09,0.32,0.21,0.42,0.38
			c0.1,0.17,0.17,0.38,0.21,0.63c0.04,0.25,0.07,0.54,0.09,0.86l0.11,2.86c0,0.08,0.01,0.15,0.02,0.2c0.02,0.06,0.07,0.1,0.15,0.14
			c0.08,0.04,0.2,0.06,0.36,0.08c0.16,0.01,0.38,0.02,0.66,0.02c0.33,0,0.59-0.01,0.79-0.02c0.2-0.01,0.35-0.04,0.46-0.07
			c0.11-0.04,0.19-0.08,0.23-0.12c0.05-0.05,0.08-0.11,0.11-0.18c0.02-0.07,0.04-0.16,0.05-0.27c0.01-0.11,0.01-0.3,0-0.55
			l-0.16-2.53c-0.01-0.3-0.04-0.57-0.09-0.82c-0.04-0.24-0.11-0.46-0.19-0.64c-0.08-0.19-0.18-0.35-0.3-0.48
			c-0.12-0.13-0.26-0.25-0.42-0.34c0.44-0.13,0.86-0.29,1.24-0.5s0.73-0.45,1.05-0.73c0.31-0.28,0.59-0.59,0.83-0.94
			c0.24-0.35,0.43-0.74,0.59-1.17c0.18-0.51,0.27-0.96,0.26-1.35c-0.01-0.39-0.11-0.73-0.29-1.02c-0.18-0.29-0.45-0.52-0.8-0.7
			c-0.35-0.18-0.76-0.31-1.25-0.38c-0.17-0.02-0.36-0.04-0.58-0.05c-0.21-0.01-0.49-0.02-0.82-0.02H-42.68L-42.68,328.01z
			 M-11.39,328.01c-0.22,0-0.43,0.06-0.62,0.19c-0.2,0.13-0.35,0.34-0.45,0.63L-16.53,340c-0.1,0.29-0.11,0.5-0.01,0.63
			c0.1,0.13,0.26,0.19,0.48,0.19h6.44c0.06,0,0.12-0.02,0.18-0.06c0.06-0.04,0.12-0.09,0.19-0.17c0.06-0.08,0.13-0.18,0.19-0.31
			c0.06-0.13,0.13-0.29,0.2-0.48h0c0.07-0.19,0.12-0.35,0.15-0.48c0.03-0.13,0.04-0.23,0.04-0.32c0-0.08-0.02-0.13-0.06-0.17
			c-0.04-0.03-0.08-0.05-0.14-0.05h-4.62l1.31-3.62h3.87c0.06,0,0.12-0.02,0.18-0.05c0.06-0.03,0.12-0.09,0.18-0.16
			c0.06-0.07,0.12-0.18,0.18-0.3c0.06-0.13,0.13-0.29,0.2-0.48c0.07-0.19,0.12-0.34,0.15-0.47c0.03-0.13,0.04-0.23,0.04-0.31
			c0-0.08-0.03-0.13-0.06-0.17c-0.04-0.03-0.08-0.05-0.14-0.05h-3.87l1.14-3.13h4.58c0.06,0,0.12-0.02,0.18-0.05
			c0.06-0.04,0.12-0.09,0.18-0.17c0.06-0.08,0.13-0.18,0.19-0.31c0.06-0.13,0.13-0.28,0.2-0.47c0.07-0.2,0.12-0.36,0.15-0.49
			c0.03-0.13,0.04-0.24,0.04-0.32c0-0.08-0.02-0.14-0.06-0.17c-0.03-0.03-0.08-0.05-0.14-0.05H-11.39L-11.39,328.01z M-65.72,328.01
			c-0.22,0-0.43,0.06-0.62,0.19c-0.19,0.13-0.34,0.34-0.45,0.63L-70.86,340c-0.11,0.29-0.11,0.5-0.01,0.63
			c0.1,0.13,0.26,0.19,0.48,0.19h3.41c0.51,0,0.99-0.03,1.44-0.09c0.44-0.06,0.87-0.16,1.29-0.29c0.42-0.13,0.82-0.3,1.2-0.5
			c0.38-0.2,0.73-0.45,1.06-0.73c0.32-0.28,0.62-0.61,0.88-0.98c0.26-0.37,0.48-0.78,0.64-1.24c0.16-0.43,0.24-0.83,0.23-1.18
			c-0.01-0.35-0.07-0.65-0.21-0.92c-0.13-0.26-0.32-0.47-0.57-0.64c-0.25-0.16-0.54-0.28-0.88-0.35c0.32-0.1,0.62-0.24,0.91-0.42
			c0.28-0.17,0.54-0.37,0.78-0.59c0.23-0.23,0.44-0.47,0.62-0.75s0.32-0.57,0.44-0.88c0.2-0.55,0.28-1.04,0.23-1.45
			c-0.05-0.41-0.21-0.75-0.49-1.02c-0.28-0.27-0.66-0.47-1.16-0.6c-0.5-0.13-1.14-0.2-1.92-0.2H-65.72z M-64.65,329.96h1.32
			c0.4,0,0.71,0.04,0.93,0.11c0.21,0.07,0.38,0.18,0.49,0.31c0.11,0.13,0.17,0.3,0.17,0.51c0,0.2-0.04,0.43-0.13,0.69
			c-0.08,0.23-0.2,0.45-0.35,0.66c-0.15,0.21-0.33,0.39-0.53,0.54c-0.2,0.16-0.44,0.28-0.69,0.37c-0.26,0.09-0.57,0.13-0.95,0.13
			h-1.45L-64.65,329.96z M-41.57,330h1.17c0.3,0,0.53,0.01,0.69,0.03c0.16,0.02,0.3,0.05,0.42,0.08c0.39,0.12,0.63,0.33,0.72,0.61
			c0.09,0.29,0.05,0.65-0.1,1.07c-0.1,0.28-0.24,0.53-0.41,0.75c-0.17,0.22-0.38,0.42-0.63,0.58c-0.24,0.16-0.52,0.29-0.83,0.38
			c-0.31,0.09-0.65,0.13-1.02,0.13h-1.33L-41.57,330z M-66.55,335.19h1.54c0.48,0,0.85,0.04,1.11,0.13c0.26,0.08,0.47,0.21,0.6,0.37
			c0.13,0.16,0.21,0.35,0.22,0.59c0.02,0.23-0.03,0.5-0.14,0.8c-0.1,0.29-0.25,0.54-0.43,0.76c-0.19,0.22-0.39,0.41-0.63,0.55
			c-0.24,0.15-0.49,0.26-0.77,0.34c-0.28,0.08-0.59,0.11-0.96,0.11h-1.88L-66.55,335.19z"/>
	</g>
</g>
</svg>
