<?xml version="1.0" encoding="UTF-8" standalone="no"?><!DOCTYPE svg PUBLIC "-//W3C//DTD SVG 1.1//EN" "http://www.w3.org/Graphics/SVG/1.1/DTD/svg11.dtd"><svg width="100%" height="100%" viewBox="0 0 209 209" version="1.1" xmlns="http://www.w3.org/2000/svg" xmlns:xlink="http://www.w3.org/1999/xlink" xml:space="preserve" xmlns:serif="http://www.serif.com/" style="fill-rule:evenodd;clip-rule:evenodd;stroke-linecap:round;stroke-linejoin:round;stroke-miterlimit:1.5;"><path d="M96.986,8.333c43.65,0 79.088,37.126 79.088,82.854c-0,45.728 -35.438,82.853 -79.088,82.853c-43.649,-0 -79.087,-37.125 -79.087,-82.853c0,-45.728 35.438,-82.854 79.087,-82.854Zm4.866,75.568c-3.881,-1.64 -6.611,-2.987 -8.517,-4.33c-1.631,-1.134 -2.696,-2.233 -3.251,-3.443c-0.192,-0.445 -0.333,-0.896 -0.435,-1.371c-0.083,-0.489 -0.13,-0.987 -0.121,-1.507c-0.006,-0.456 0.033,-0.885 0.109,-1.324c0.186,-0.887 0.534,-1.739 1.068,-2.52c0.818,-1.174 2.088,-2.17 3.913,-2.763c1.228,-0.399 2.707,-0.627 4.455,-0.614c0.184,0.006 0.313,0.033 0.478,0.05c3.166,0.076 5.806,0.647 7.831,1.342c1.063,0.391 1.986,0.804 2.748,1.183c0.75,0.359 1.364,0.724 1.814,0.986l2.326,1.347l0.751,-1.896l3.767,-9.764l-1.677,-0.991c-1.96,-1.169 -4.021,-2.09 -6.231,-2.79c-1.126,-0.337 -2.26,-0.626 -3.423,-0.853c-1.184,-0.215 -2.407,-0.404 -3.659,-0.533l0.055,-10.93l-11.501,-0.058l-0.025,3.884l-0.064,7.763c-1.273,0.288 -2.497,0.671 -3.669,1.115c-1.17,0.445 -2.274,0.971 -3.31,1.577c-6.202,3.563 -9.908,9.67 -9.956,17.033c-0.076,11.986 9.42,17.431 19.684,21.538c3.949,1.638 6.741,3.251 8.517,5.054c0.887,0.91 1.547,1.857 1.957,2.869c0.426,1.015 0.62,2.099 0.611,3.259c-0.039,5.16 -4.466,8.607 -11.005,8.564c-5.176,-0.043 -10.555,-1.678 -14.746,-4.494l-2.442,-1.674l-4.326,11.868l1.402,1.019c1.944,1.401 4.436,2.598 7.191,3.513c2.786,0.921 5.836,1.545 8.864,1.793l-0.063,11.367l11.615,0.081l0.006,-2.035l0.073,-9.967c10.631,-2.448 17.671,-10.565 17.729,-20.703c0.074,-10.455 -5.489,-17.228 -18.543,-22.645Z" style="fill:#929292;"/><path d="M160.799,124.158c20.93,-0.026 37.943,16.944 37.968,37.874c0.026,20.929 -16.944,37.942 -37.874,37.968c-20.929,0.026 -37.942,-16.945 -37.968,-37.874c-0.026,-20.93 16.945,-37.943 37.874,-37.968Z" style="fill:#929292;stroke:#fff;stroke-width:6.25px;"/><path d="M180.28,145.257l-3.661,-2.488c-1.013,-0.686 -2.4,-0.423 -3.078,0.582l-17.946,26.464l-8.248,-8.247c-0.861,-0.861 -2.265,-0.861 -3.126,-0l-3.135,3.135c-0.861,0.861 -0.861,2.265 0,3.134l12.682,12.682c0.71,0.71 1.827,1.252 2.832,1.252c1.005,0 2.018,-0.63 2.672,-1.579l21.599,-31.864c0.685,-1.005 0.422,-2.385 -0.591,-3.071Z" style="fill:#fff;fill-rule:nonzero;"/></svg>