<svg height="500" width="750" xmlns="http://www.w3.org/2000/svg"><g fill-rule="evenodd"><g transform="matrix(1.6666666 0 0 1.6666666 -522.410644 425.025806)"><path d="m538.44641-105.01549-225 150.000003c0-150.000003 0-150.000003 0-150.000003z"/><path d="m313.44641 44.984513 225-150.000003v150.000003z" fill="#fff"/></g><g transform="matrix(-1.6666666 0 0 1.6666666 897.410649 175.025816)"><path d="m538.44641-105.01549-225 150.000003c0-150.000003 0-150.000003 0-150.000003z"/><path d="m313.44641 44.984513 225-150.000003v150.000003z" fill="#fff"/></g><g transform="matrix(-1.6666666 0 0 -1.6666666 1272.410634 74.974187)"><path d="m538.44641-105.01549-225 150.000003c0-150.000003 0-150.000003 0-150.000003z"/><path d="m313.44641 44.984513 225-150.000003v150.000003z" fill="#fff"/></g><g transform="matrix(1.6666666 0 0 -1.6666666 -147.410676 324.974182)"><path d="m538.44641-105.01549-225 150.000003c0-150.000003 0-150.000003 0-150.000003z"/><path d="m313.44641 44.984513 225-150.000003v150.000003z" fill="#fff"/></g></g><g transform="matrix(.77237242 0 0 .77237242 27.432394 18.288874)"><path d="m378.4235 244.7058c.5077-.7286 40.2928-12.4145 71.0581-12.4145 30.7654 0 74.0209 11.1455 74.0209 11.1455l-1.2692 15.0041c.2539 1.2692-41.3562-8.7808-72.1216-8.7808-30.7653 0-72.7693 9.7961-72.7693 9.7961z" fill="#eebf00" stroke="#87675c" stroke-width="1.7125"/><g fill="#f00" stroke-linejoin="round" stroke-width="1.87089"><path d="m441.2781 241.0632 8.8139-5.113 8.8138 5.113-8.8138 5.2835z" stroke="#87675d"/><path d="m372.5963 252.388 5.8801-5.2057 7.3755 4.3071-8.1644 4.9518z" stroke="#87675d"/><path d="m527.8685 252.4952-4.7788-5.2221-7.7036 2.21 6.5556 4.9682z" stroke="#87675c"/></g></g><g transform="matrix(.12841926 0 0 .12841926 374.70432 46.931126)"><path d="m32.006368 1038.8034c3.486292-13.9773 3.567673-28.8403 9.179721-42.23735 2.361024-5.36951 5.127079-10.55768 7.753038-15.78125 4.104568-5.14299 9.156823-9.55737 14.822947-12.7741 8.275425-3.13292 17.115921-4.05056 25.818886-5.08751 5.72143 1.89914 9.562275 7.2395 15.27267 9.18528 5.72105 2.95294 11.70266 5.80868 18.17063 6.37205 4.1438 1.74521 8.63822.2903 12.57641-1.30931 5.26352-2.13747 9.72431-5.90985 13.80138-9.84423 2.06836-2.26243 2.61533-5.40405 4.13976-8.01623 1.81865-3.78465 3.10273-7.8147 4.14106-11.88032.62428-3.7376.45504-7.57934.194-11.33703-.62101-3.11003-2.36041-6.12852-1.72132-9.39223 2.30442-2.72558 6.51502-1.57909 8.93915-4.11405 5.48472-3.90374 11.26687-7.60882 15.73232-12.766 1.88457-2.16984 2.82457-4.95978 4.85751-7.00078 2.3-3.01673 4.22399-6.31967 6.03233-9.65823 1.52099-3.15121 2.20545-6.6555 4.06743-9.64368 2.37863-4.42435 4.50418-9.22745 4.35193-14.3926.41801-4.38458 1.41064-8.76016.87054-13.18424.04657-4.91553.48078-10.00334-1.35225-14.67752-2.11057-7.28199-6.63094-13.78161-12.75701-18.0781-2.21096-1.56432-4.00914-4.78251-7.10843-4.16982-2.22049.8995-3.94105 2.73829-6.13833 3.72362-6.54331 3.33331-13.10178 6.63833-19.62009 10.02509-6.02311.8142-11.43008-2.93013-15.90825-6.60647-4.56275-3.9093-8.81483-8.29748-14.1032-11.20492-7.99206-4.97371-15.98928-10.44502-25.2225-12.64493-2.655111-.64622-5.100062-2.03678-7.872214-2.19703-1.486587-.50591-5.261017.34222-3.85429-2.2381 1.071822-2.96491 3.319487-5.26135 5.262282-7.63485 4.891127-4.50298 11.793862-4.55861 17.727472-6.61104 3.59516-1.46935 6.89528-3.63898 10.1347-5.7579 3.05506-3.15101 5.37614-7.0462 7.02294-11.13128 1.86801-5.29695 3.86977-11.1382 1.97844-16.73995-1.1381-4.49534-2.15972-9.20355-5.1065-12.88453-7.88596-10.59676-17.13242-20.60734-28.839496-26.75198-4.701481-2.37203-9.696736-4.17326-14.799051-5.38841-4.096764-.84181-8.27787-.38353-12.408603-.17468-2.264563.19774-4.123905-1.16789-5.452277-2.92093-6.27169-7.30454-11.895512-15.40971-19.650089-21.19172-4.895785-3.6866-10.917386-5.25005-16.725165-6.71546-6.196815-.45327-12.606734.32405-18.3482879 2.81269-2.9264337 1.17765-5.0401864 4.79228-8.47987635 4.20379-3.56027975-.77734-5.86373475-4.12253-9.37449325-5.0845-4.3683965-1.4746-9.0168675-2.13699-13.6093415-2.11872-5.154399.17171-10.017281 2.19498-14.734562 4.14557-5.670283 2.40367-9.810468 7.17451-13.937456 11.63479-4.286627 4.79212-8.221165 9.89796-12.427874 14.76187-6.687864 1.02006-13.751438-.95464-20.16948 1.8512-8.892569 2.8357-17.377668 7.35047-24.142248 13.98737-6.78592 6.18804-12.97402 13.20651-17.68873 21.17918-1.55446 4.06347-2.32786 8.39439-3.30932 12.61699-.30628 4.89167 1.90333 9.39039 3.08936 14.00909 2.61555 4.43559 4.97686 9.60521 9.8245 11.89864 3.90809 2.37243 7.98164 4.87111 12.62324 5.21372 5.710827 1.08398 11.913682 3.30176 15.017371 8.71492 1.067274 1.59055 4.445681 5.08944 1.306327 6.16469-2.601317-.18611-5.175927.17158-7.499364 1.49645-3.337901 1.12069-6.865144 1.65878-10.103174 3.12865-8.04278 3.42708-15.21246 8.58923-22.62975 13.18901-5.93231 4.42838-10.7827 10.47126-17.62931 13.52959-3.41822 2.06761-7.9293 2.07346-11.25591-.20113-5.65161-2.90051-11.3262-5.76632-16.97762-8.65892-2.55965-1.90415-6.07467-4.91881-9.19863-2.33949-2.28717 1.78276-4.16681 4.05654-6.5738 5.69363-5.47536 4.70652-8.80805 11.58906-10.51404 18.59534-.96341 5.07179-.38777 10.25532-.54115 15.38083-.03323 3.80043 1.04049 7.4724 1.10264 11.26257.14901 3.46673 1.16746 6.8151 2.84889 9.81579 1.93782 3.90607 4.01247 7.79112 5.17187 12.02896 1.46827 3.10572 3.79673 5.68694 5.22916 8.81321 3.57138 3.30289 4.92283 8.51616 8.97762 11.36195 4.66157 4.11812 9.7932 7.67705 14.9741 11.04458 2.42198.87745 6.98426.25681 7.0852 3.93774-.66592 3.09786-2.11881 6.0174-2.26946 9.24433-.70375 5.98523.37011 12.04963 2.58325 17.59904 1.22353 3.97111 3.53624 7.4712 5.06166 11.30495 2.21954 3.25302 5.82001 5.03745 8.6285 7.66091 4.20481 2.87452 9.0753 4.83763 14.09517 5.45072 3.53165-.25022 6.9937-1.15996 10.44129-1.8976 8.25983-2.77476 16.24322-6.68716 23.059284-12.26442 2.36065-1.74066 5.393538-2.68711 8.256347-1.81139 7.784837 1.26001 15.881489 1.78033 23.136737 5.19449 4.160993 2.5066 7.727433 5.90811 11.279751 9.21723 4.016631 4.35605 5.9131 10.13685 8.635551 15.32697 2.743801 5.71536 4.849843 11.77864 5.795998 18.08824 2.342977 10.5946 2.93767 21.5759 6.052306 31.9865 1.624896 3.925 4.274511 7.436 7.545685 10.0532 2.868377 1.3454 5.936134 2.2069 8.808115 3.5351 4.389832 1.2109 8.9275831-.4281 12.7086898-2.6903 2.06069276-1.1506 4.0681526.1976 5.8657269 1.1648 3.9012095 1.7463 8.6990923 2.9986 12.6336843.6598 2.798537-1.5961 6.494432-1.5538 8.575292-4.3793 3.064696-3.1297 5.610145-6.9855 6.775767-11.2783.069521-.4633.081512-.9375.016314-1.4023z" fill="#eebf00" stroke="#87675d" stroke-width="11.25239"/><path d="m8.001592 787.66191v35.87735h-14.002786v-35.87735zm0 136.33392v31.7771h-14.002786v-31.7771z" fill="#87675d"/><path d="m-345.465 1156.686c23.8116-3.547 39.4383-25.431 48.4587-46.556 6.637-15.8 11.264-32.447 14.2331-49.341 2.5701-14.327 17.0145-24.687 31.0189-21.445 14.8074 1.56 23.9955 14.437 32.302 25.6 9.6524 10.78 24.0643 14.916 36.23 21.929 25.6959 11.842 54.76 21.333 83.0278 14.645 25.04773-7.069 46.40499-30.713 47.48952-57.856.46139-9.448-5.79663-29.698-17.7157-22.918-6.62718 9.257-8.6696 22.545-19.64065 28.196-15.20497 9.757-36.37597-3.759-36.62587-21.506.0684-15.547 12.6173-26.671 19.9502-39.11 11.42738-15.6864 31.55512-25.7638 50.65935-20.7008 27.84702 5.0537 46.669275 32.5578 51.488982 59.7048 6.855699 40.259-13.438142 81.511-44.455702 105.665-22.68752 17.897-52.56983 21.831-80.37003 20.523-39.8705-2.154-77.4012-19.159-110.8024-40.582-11.5909-1.143-10.014 16.451-16.5081 23.171-14.5452 26.89-40.2723 50.305-69.4021 61.969-26.8033 10.513-48.5003 11.084-75.9346 5.663-19.2439-4.556-38.5331-9.427-57.2443-15.967-21.5321-8.53-42.9041-20.573-57.2971-39.455-14.0498-22.848-20.3666-49.987-22.4671-76.67-1.3265-18.189 2.0294-36.194 5.6645-53.883 1.5413-11.714-8.9095-19.7974-16.4414-26.794-17.0604-13.581-39.7378-17.6468-60.8115-14.753-12.0907 4.096-19.4654-7.2948-27.1372-14.7624-9.228-6.2659-20.4269-9.1225-31.2605-11.1927-8.9346-1.2756-18.1115-2.8918-26.7786-.2581-14.0241-.3921-7.0837-15.4804-.9785-21.5801 12.6874-14.9831 33.885-16.5279 51.8138-14.0541 11.912 3.3325 16.5812-8.2147 19.9-17.3879 9.3031-17.3961 21.4555-33.2222 35.0831-47.2449 21.6971-19.5585 48.7275-33.2795 77.4852-37.2776 7.4341.526 24.2885-8.0071 25.0245 3.3054-6.5182 11.5013-13.1115 23.0293-19.5794 34.636-6.4602 7.8243-9.8597 19.1691 2.6444 22.2985 11.215 4.0766 19.2826 15.3202 31.4849 16.6278 22.4384-1.3514 44.9952-1.3931 67.4798-2.2315 8.8603 24.4113 1.2186 52.5474-14.7954 71.9678-11.1723 5.5858-3.2066 18.0639 3.9749 22.8252 5.3213 4.4542 17.194 15.9071 3.0579 15.9706-24.0662 5.159-46.4596 23.765-50.9661 49.385-4.2817 22.402 2.2517 45.587 14.6846 64.143 10.9429 16.726 27.7794 28.655 45.2365 37.271 18.6532 7.057 39.0429 9.627 58.8196 8.03z" fill="#eebf00" stroke="#87675d" stroke-width="11.25239"/><path d="m-5.0008973 2494.4346c454.5893473 0 456.0907873-437.7036 456.0907873-437.7036l-.00014-694.9954h-912.18149l.00005 694.9954s-1.12802 437.7036 456.0907927 437.7036z" fill="#e60000"/><path d="m-4.0007518 2297.6218c247.5855218 0 250.0497818-275.743 250.0497818-275.743l-.00008-437.7037h-500.0995l.00001 437.7037s1.4838 275.743 250.0497882 275.743z" fill="#fff"/><g stroke="#87675d" stroke-width="11.25239"><path d="m-19.662638 707.5381s9.7643486 8.53223 19.52869756 8.53223c9.76434894 0 19.52869844-8.53223 19.52869844-8.53223s3.254782 56.9571-19.52869844 56.9571c-21.85354256 0-19.52869756-56.9571-19.52869756-56.9571z" fill="none"/><path d="m350.0697 1156.686c-23.8115-3.547-39.438-25.431-48.4586-46.556-6.6369-15.8-11.2641-32.447-14.2332-49.341-2.5701-14.327-17.0145-24.687-31.0189-21.445-14.8072 1.56-23.9955 14.437-32.3019 25.6-9.6525 10.78-24.0644 14.916-36.2301 21.929-25.6958 11.842-54.7598 21.333-83.0278 14.645-25.0477-7.069-46.40496-30.713-47.48949-57.856-.46139-9.448 5.79663-29.698 17.7157-22.918 6.62718 9.257 8.66983 22.545 19.64087 28.196 15.20482 9.757 36.37572-3.759 36.62562-21.506-.0684-15.547-12.6172-26.671-19.9502-39.11-11.42736-15.6864-31.55509-25.7638-50.65932-20.7008-27.84702 5.0537-46.66928 32.5578-51.488984 59.7048-6.855699 40.259 13.438144 81.511 44.455704 105.665 22.68752 17.897 52.5698 21.831 80.37 20.523 39.8705-2.154 77.4012-19.159 110.8026-40.582 11.5908-1.143 10.0139 16.451 16.508 23.171 14.5451 26.89 37.2187 50.306 66.3484 61.969 28.33 7.46 51.554 11.084 78.9882 5.663 19.244-4.556 38.5331-9.427 57.2443-15.967 21.5321-8.53 42.9041-20.573 57.2972-39.455 14.0498-22.848 20.3665-49.987 22.4669-76.67 1.3266-18.189-2.0293-36.194-5.6644-53.883-1.5414-11.714 8.9096-19.7974 16.4414-26.794 17.0604-13.581 39.7379-17.6468 60.8115-14.753 12.0907 4.096 19.4654-7.2948 27.1372-14.7624 9.2281-6.2659 20.4269-9.1225 31.2605-11.1927 8.9349-1.2756 18.1115-2.8918 26.7788-.2581 14.0239-.3921 7.0836-15.4804.9783-21.5801-12.6874-14.9831-33.885-16.5279-51.8136-14.0541-11.9122 3.3325-16.5811-8.2147-19.8999-17.3879-9.3033-17.3961-21.4557-33.2222-35.0833-47.2449-21.6971-19.5585-48.7273-33.2795-77.4852-37.2776-7.4341.526-24.2885-8.0071-25.0245 3.3054 6.5182 11.5013 13.1114 23.0293 19.5793 34.636 6.4602 7.8243 9.8597 19.1691-2.6444 22.2985-11.2149 4.0766-19.2825 15.3202-31.4849 16.6278-22.4384-1.3514-44.9951-1.3931-67.4798-2.2315-8.8603 24.4113-1.2185 52.5474 14.7954 71.9678 11.1723 5.5858 3.2066 18.0639-3.9749 22.8252-5.3212 4.4542-17.1939 15.9071-3.0579 15.9706 24.0662 5.159 46.4596 23.765 50.9664 49.385 4.2814 22.402-2.2519 45.587-14.6849 64.143-10.9428 16.726-27.7794 28.655-45.2363 37.271-18.6534 7.057-39.0429 9.627-58.8198 8.03z" fill="#eebf00"/></g></g><g stroke-linecap="square"><g stroke="#87675d"><path d="m741.83155 1113.2234a62.474865 36.82729 0 1 1 -124.94973 0 62.474865 36.82729 0 1 1 124.94973 0z" fill="#004c7f" fill-rule="evenodd" stroke-dashoffset="1" stroke-linejoin="bevel" stroke-width="14.16296" transform="matrix(.06868204 -.07573292 .07121167 .07304272 322.514957 147.040666)"/><g fill="none" stroke-width="11.25239" transform="matrix(.12841926 0 0 .12841926 374.70432 46.931126)"><path d="m501.45732 918.22491c10.62065 17.53749 24.14196 33.21698 18.79116 60.98482"/><path d="m537.47371 878.10333c24.40998 18.18845 32.61828 36.37691 40.71417 54.56536"/></g></g><g fill-rule="evenodd" stroke-dashoffset="1" stroke-linejoin="bevel"><g fill="#dfdbd7"><path d="m335.21003 907.00269a34.804852 51.837009 0 1 1 -69.6097 0 34.804852 51.837009 0 1 1 69.6097 0z" stroke="#876666" stroke-width="11.11285" transform="matrix(.12844559 0 0 .1316385 374.70432 43.692889)"/><g stroke="#87665c"><path d="m335.21003 907.00269a34.804852 51.837009 0 1 1 -69.6097 0 34.804852 51.837009 0 1 1 69.6097 0z" stroke-width="11.137" transform="matrix(.11066563 .06682133 -.0652002 .11341745 442.415989 52.42838)"/><path d="m335.21003 907.00269a34.804852 51.837009 0 1 1 -69.6097 0 34.804852 51.837009 0 1 1 69.6097 0z" stroke-width="11.11285" transform="matrix(.12842616 -.0022642 .00220927 .13161932 365.667719 54.138949)"/></g></g><path d="m741.83155 1113.2234a62.474865 36.82729 0 1 1 -124.94973 0 62.474865 36.82729 0 1 1 124.94973 0z" fill="#004c7f" stroke="#87675d" stroke-width="14.16296" transform="matrix(-.06868204 -.07573292 -.07121167 .07304272 427.48501 147.040666)"/></g><path d="m-496.8527 918.22491c-10.62066 17.53749-24.14197 33.21698-18.79116 60.98482" fill="none" stroke="#87675d" stroke-width="11.25239" transform="matrix(.12841926 0 0 .12841926 374.70432 46.931126)"/><path d="m-532.86909 878.10333c-24.40999 18.18845-32.61828 36.37691-40.71417 54.56536" fill="none" stroke="#87675d" stroke-width="11.25239" transform="matrix(.12841926 0 0 .12841926 374.70432 46.931126)"/><g style="fill-rule:evenodd;fill:#dfdbd7;stroke:#87665c;stroke-dashoffset:1;stroke-linejoin:bevel;stroke-width:11.11285"><path d="m335.21003 907.00269a34.804852 51.837009 0 1 1 -69.6097 0 34.804852 51.837009 0 1 1 69.6097 0z" transform="matrix(-.12844559 0 0 .1316385 375.295672 43.692889)"/><path d="m335.21003 907.00269a34.804852 51.837009 0 1 1 -69.6097 0 34.804852 51.837009 0 1 1 69.6097 0z" transform="matrix(-.11066563 .06682133 .0652002 .11341745 307.584003 52.42838)"/><path d="m335.21003 907.00269a34.804852 51.837009 0 1 1 -69.6097 0 34.804852 51.837009 0 1 1 69.6097 0z" transform="matrix(-.12842616 -.0022642 -.00220927 .13161932 384.332273 54.138949)"/></g><g stroke="#87675d"><path d="m-80.629921 831.55527c43.268807 0 79.93522827 41.5003 80.62991734 42.21226.69469408.71197 80.62992566 50.53227 80.62992566 90.42311" fill="none" stroke-width="11.25239" transform="matrix(.12841926 0 0 .12841926 374.70432 46.931126)"/><path d="m80.629921 831.55527c-43.268807 0-79.93522827 41.5003-80.62991734 42.21226-.69469408.71197-80.62992566 50.53227-80.62992566 90.42311" fill="none" stroke-width="11.25239" transform="matrix(.12841926 0 0 .12841926 374.70432 46.931126)"/><g fill="#004c7f" fill-rule="evenodd" stroke-dashoffset="1" stroke-linejoin="bevel" stroke-width="11.11285"><path d="m26.828851 874.75305a26.962837 48.347157 0 1 1 -53.925674 0 26.962837 48.347157 0 1 1 53.925674 0z" transform="matrix(.12844559 0 0 .1316385 374.721554 43.988681)"/><path d="m26.828851 874.75305a26.962837 48.347157 0 1 1 -.095389-4.0632" transform="matrix(-.02115773 -.12984043 .12668997 -.02168374 237.699436 225.963598)"/><path d="m26.828851 874.75305a26.962837 48.347157 0 1 1 -53.925674 0 26.962837 48.347157 0 1 1 53.925674 0z" transform="matrix(.02115773 -.12984043 -.12668997 -.02168374 515.724813 226.577094)"/></g><g fill="none" stroke-width="11.25239" transform="matrix(.12841926 0 0 .12841926 374.70432 46.931126)"><path d="m-151.32417 923.81961s34.43635-45.84487 74.789509-45.84487"/><path d="m151.32417 923.81961s-34.43635-45.84487-74.789508-45.84487"/></g></g></g><g stroke="#000"><path d="m-1.5001576 1814.8152c62.0409406 0 57.5115056-63.5541 57.5115056-63.5541l-.000059-101.4817h-115.022885l-.000069 101.4817s-4.797855 63.5541 57.5115074 63.5541z" fill="#004c7f" stroke-width="2.813099" transform="matrix(.12841926 0 0 .12841926 374.70432 46.931126)"/><g style="fill:#fff;fill-rule:evenodd;stroke-width:2.377235;stroke-linecap:square;stroke-linejoin:bevel;stroke-dashoffset:1"><path d="m10.391909 1722.7489a11.808317 11.808317 0 1 1 -23.616634 0 11.808317 11.808317 0 1 1 23.616634 0z" transform="matrix(.1501102 0 0 .15384221 371.192048 -.733883)"/><path d="m10.391909 1722.7489a11.808317 11.808317 0 1 1 -23.616634 0 11.808317 11.808317 0 1 1 23.616634 0z" transform="matrix(.1501102 0 0 .15384221 378.181581 8.77499)"/><path d="m10.391909 1722.7489a11.808317 11.808317 0 1 1 -23.616634 0 11.808317 11.808317 0 1 1 23.616634 0z" transform="matrix(.1501102 0 0 .15384221 374.686849 4.02055)"/><path d="m10.391909 1722.7489a11.808317 11.808317 0 1 1 -23.616634 0 11.808317 11.808317 0 1 1 23.616634 0z" transform="matrix(.1501102 0 0 .15384221 371.192048 8.77499)"/><path d="m10.391909 1722.7489a11.808317 11.808317 0 1 1 -23.616634 0 11.808317 11.808317 0 1 1 23.616634 0z" transform="matrix(.1501102 0 0 .15384221 378.181581 -.733883)"/></g><g fill="#004c7f" stroke-width=".522235" transform="matrix(.69175209 0 0 .69175209 63.415842 41.922768)"><path d="m449.72152 422.39537c11.51753 0 10.67666-11.79846 10.67666-11.79846l-.00001-18.83945h-21.35331l-.00001 18.83945s-.89069 11.79846 10.67667 11.79846z"/><path d="m449.72152 383.27251c11.51753 0 10.67666-11.79846 10.67666-11.79846l-.00001-18.83945h-21.35331l-.00001 18.83945s-.89069 11.79846 10.67667 11.79846z"/><path d="m421.865 383.27251c11.51753 0 10.67667-11.79846 10.67667-11.79846l-.00001-18.83945h-21.35331l-.00001 18.83945s-.8907 11.79846 10.67666 11.79846z"/><path d="m477.57805 383.27251c11.51753 0 10.67666-11.79846 10.67666-11.79846l-.00001-18.83945h-21.35331l-.00001 18.83945s-.89069 11.79846 10.67667 11.79846z"/></g><g style="fill:#fff;fill-rule:evenodd;stroke-width:2.377235;stroke-linecap:square;stroke-linejoin:bevel;stroke-dashoffset:1"><path d="m10.391909 1722.7489a11.808317 11.808317 0 1 1 -23.616634 0 11.808317 11.808317 0 1 1 23.616634 0z" transform="matrix(.1501102 0 0 .15384221 371.192048 26.669487)"/><path d="m10.391909 1722.7489a11.808317 11.808317 0 1 1 -23.616634 0 11.808317 11.808317 0 1 1 23.616634 0z" transform="matrix(.1501102 0 0 .15384221 378.181581 36.17836)"/><path d="m10.391909 1722.7489a11.808317 11.808317 0 1 1 -23.616634 0 11.808317 11.808317 0 1 1 23.616634 0z" transform="matrix(.1501102 0 0 .15384221 374.686849 31.42392)"/><path d="m10.391909 1722.7489a11.808317 11.808317 0 1 1 -23.616634 0 11.808317 11.808317 0 1 1 23.616634 0z" transform="matrix(.1501102 0 0 .15384221 371.192048 36.17836)"/><path d="m10.391909 1722.7489a11.808317 11.808317 0 1 1 -23.616634 0 11.808317 11.808317 0 1 1 23.616634 0z" transform="matrix(.1501102 0 0 .15384221 378.181581 26.669487)"/><path d="m10.391909 1722.7489a11.808317 11.808317 0 1 1 -23.616634 0 11.808317 11.808317 0 1 1 23.616634 0z" transform="matrix(.1501102 0 0 .15384221 371.192048 53.73282)"/><path d="m10.391909 1722.7489a11.808317 11.808317 0 1 1 -23.616634 0 11.808317 11.808317 0 1 1 23.616634 0z" transform="matrix(.1501102 0 0 .15384221 378.181581 63.241692)"/><path d="m10.391909 1722.7489a11.808317 11.808317 0 1 1 -23.616634 0 11.808317 11.808317 0 1 1 23.616634 0z" transform="matrix(.1501102 0 0 .15384221 374.686849 58.487253)"/><path d="m10.391909 1722.7489a11.808317 11.808317 0 1 1 -23.616634 0 11.808317 11.808317 0 1 1 23.616634 0z" transform="matrix(.1501102 0 0 .15384221 371.192048 63.241692)"/><path d="m10.391909 1722.7489a11.808317 11.808317 0 1 1 -23.616634 0 11.808317 11.808317 0 1 1 23.616634 0z" transform="matrix(.1501102 0 0 .15384221 378.181581 53.73282)"/><path d="m10.391909 1722.7489a11.808317 11.808317 0 1 1 -23.616634 0 11.808317 11.808317 0 1 1 23.616634 0z" transform="matrix(.1501102 0 0 .15384221 351.958923 26.669487)"/><path d="m10.391909 1722.7489a11.808317 11.808317 0 1 1 -23.616634 0 11.808317 11.808317 0 1 1 23.616634 0z" transform="matrix(.1501102 0 0 .15384221 358.948455 36.17836)"/><path d="m10.391909 1722.7489a11.808317 11.808317 0 1 1 -23.616634 0 11.808317 11.808317 0 1 1 23.616634 0z" transform="matrix(.1501102 0 0 .15384221 355.453724 31.42392)"/><path d="m10.391909 1722.7489a11.808317 11.808317 0 1 1 -23.616634 0 11.808317 11.808317 0 1 1 23.616634 0z" transform="matrix(.1501102 0 0 .15384221 351.958923 36.17836)"/><path d="m10.391909 1722.7489a11.808317 11.808317 0 1 1 -23.616634 0 11.808317 11.808317 0 1 1 23.616634 0z" transform="matrix(.1501102 0 0 .15384221 358.948455 26.669487)"/><path d="m10.391909 1722.7489a11.808317 11.808317 0 1 1 -23.616634 0 11.808317 11.808317 0 1 1 23.616634 0z" transform="matrix(.1501102 0 0 .15384221 390.498533 26.669487)"/><path d="m10.391909 1722.7489a11.808317 11.808317 0 1 1 -23.616634 0 11.808317 11.808317 0 1 1 23.616634 0z" transform="matrix(.1501102 0 0 .15384221 397.488066 36.17836)"/><path d="m10.391909 1722.7489a11.808317 11.808317 0 1 1 -23.616634 0 11.808317 11.808317 0 1 1 23.616634 0z" transform="matrix(.1501102 0 0 .15384221 393.993334 31.42392)"/><path d="m10.391909 1722.7489a11.808317 11.808317 0 1 1 -23.616634 0 11.808317 11.808317 0 1 1 23.616634 0z" transform="matrix(.1501102 0 0 .15384221 390.498533 36.17836)"/><path d="m10.391909 1722.7489a11.808317 11.808317 0 1 1 -23.616634 0 11.808317 11.808317 0 1 1 23.616634 0z" transform="matrix(.1501102 0 0 .15384221 397.488066 26.669487)"/></g></g><g transform="matrix(.27644596 0 0 .27644596 322.70898 233.359154)"><path d="m-4-10h14v23h-14z" fill="#eebf00"/><path d="m-4-10h14v23h-14z" fill="none" stroke="#fff"/><path d="m-4-10h14v23h-14z" fill="none" stroke="#000"/><path d="m18-15h14v27h-14z" fill="#eebf00"/><path d="m18-15h14v27h-14z" fill="none" stroke="#fff"/><path d="m18-15h14v27h-14z" fill="none" stroke="#000"/><path d="m40-10h14v22h-14z" fill="#eebf00"/><path d="m40-10h14v22h-14z" fill="none" stroke="#fff"/><path d="m40-10h14v22h-14z" fill="none" stroke="#000"/><path d="m31-19h4v4h-20v-4h4v2h4v-2h4v2h4z" fill="#004c7f"/><path d="m31-19h4v4h-20v-4h4v2h4v-2h4v2h4z" fill="none" stroke="#fff"/><path d="m31-19h4v4h-20v-4h4v2h4v-2h4v2h4z" fill="none" stroke="#000"/><path d="m-7 38 2-27 1 1h58l1-1 2 27z" fill="#eebf00"/><path d="m-7 38 2-27 1 1h58l1-1 2 27z" fill="none" stroke="#fff"/><path d="m-7 38 2-27 1 1h58l1-1 2 27z" fill="none" stroke="#000"/><path d="m53-14h4v4h-20v-4h4v2h4v-2h4v2h4z" fill="#004c7f"/><path d="m53-14h4v4h-20v-4h4v2h4v-2h4v2h4z" fill="none" stroke="#fff"/><path d="m53-14h4v4h-20v-4h4v2h4v-2h4v2h4z" fill="none" stroke="#000"/><path d="m5 20v3h-3v-3z" fill="#004c7f"/><path d="m5 20v3h-3v-3z" fill="none" stroke="#fff"/><path d="m5 20v3h-3v-3z" fill="none" stroke="#000"/><path d="m24-9h2v-2h-2z" fill="#004c7f"/><path d="m24-9h2v-2h-2z" fill="none" stroke="#fff"/><path d="m24-9h2v-2h-2z" fill="none" stroke="#000"/><path d="m2-4h2v-2h-2z" fill="#004c7f"/><path d="m2-4h2v-2h-2z" fill="none" stroke="#fff"/><path d="m2-4h2v-2h-2z" fill="none" stroke="#000"/><path d="m46-4h2v-2h-2z" fill="#004c7f"/><path d="m46-4h2v-2h-2z" fill="none" stroke="#fff"/><path d="m46-4h2v-2h-2z" fill="none" stroke="#000"/><path d="m52 12h-7v-3h-5v3h-7v-3h-5v3h-7v-3h-5v3h-7v-3h-5v3h-7v-3h-4v6h64v-6h-5z" fill="#eebf00"/><path d="m52 12h-7v-3h-5v3h-7v-3h-5v3h-7v-3h-5v3h-7v-3h-5v3h-7v-3h-4v6h64v-6h-5z" fill="none" stroke="#fff"/><path d="m52 12h-7v-3h-5v3h-7v-3h-5v3h-7v-3h-5v3h-7v-3h-5v3h-7v-3h-4v6h64v-6h-5z" fill="none" stroke="#000"/><path d="m9-14h4v4h-20v-4h4v2h4v-2h4v2h4z" fill="#004c7f"/><path d="m9-14h4v4h-20v-4h4v2h4v-2h4v2h4z" fill="none" stroke="#fff"/><path d="m9-14h4v4h-20v-4h4v2h4v-2h4v2h4z" fill="none" stroke="#000"/><path d="m49 20v3h-3v-3z" fill="#004c7f"/><path d="m49 20v3h-3v-3z" fill="none" stroke="#fff"/><path d="m49 20v3h-3v-3z" fill="none" stroke="#000"/><path d="m25 37c1 0 5-2 4-2s-.9587-2.1319-.9793-4.066c-.0207-1.934-.0207 4.066-.0207-4.934s-6-9-6 0v5c0 2 0 4-1 4s3 2 4 2z" fill="#004c7f"/><path d="m25 37c1 0 5-2 4-2s-.9587-2.1319-.9793-4.066c-.0207-1.934-.0207 4.066-.0207-4.934s-6-9-6 0v5c0 2 0 4-1 4s3 2 4 2" fill="none" stroke="#000"/><path d="m59 35v5h-68v-5z" fill="#eebf00"/><g fill="none"><path d="m59 35v5h-68v-5z" stroke="#fff"/><path d="m59 35v5h-68v-5z" stroke="#000"/></g></g><g transform="matrix(.27644596 0 0 .27644596 322.70898 281.950256)"><path d="m-4-10h14v23h-14z" fill="#eebf00"/><path d="m-4-10h14v23h-14z" fill="none" stroke="#fff"/><path d="m-4-10h14v23h-14z" fill="none" stroke="#000"/><path d="m18-15h14v27h-14z" fill="#eebf00"/><path d="m18-15h14v27h-14z" fill="none" stroke="#fff"/><path d="m18-15h14v27h-14z" fill="none" stroke="#000"/><path d="m40-10h14v22h-14z" fill="#eebf00"/><path d="m40-10h14v22h-14z" fill="none" stroke="#fff"/><path d="m40-10h14v22h-14z" fill="none" stroke="#000"/><path d="m31-19h4v4h-20v-4h4v2h4v-2h4v2h4z" fill="#004c7f"/><path d="m31-19h4v4h-20v-4h4v2h4v-2h4v2h4z" fill="none" stroke="#fff"/><path d="m31-19h4v4h-20v-4h4v2h4v-2h4v2h4z" fill="none" stroke="#000"/><path d="m-7 38 2-27 1 1h58l1-1 2 27z" fill="#eebf00"/><path d="m-7 38 2-27 1 1h58l1-1 2 27z" fill="none" stroke="#fff"/><path d="m-7 38 2-27 1 1h58l1-1 2 27z" fill="none" stroke="#000"/><path d="m53-14h4v4h-20v-4h4v2h4v-2h4v2h4z" fill="#004c7f"/><path d="m53-14h4v4h-20v-4h4v2h4v-2h4v2h4z" fill="none" stroke="#fff"/><path d="m53-14h4v4h-20v-4h4v2h4v-2h4v2h4z" fill="none" stroke="#000"/><path d="m5 20v3h-3v-3z" fill="#004c7f"/><path d="m5 20v3h-3v-3z" fill="none" stroke="#fff"/><path d="m5 20v3h-3v-3z" fill="none" stroke="#000"/><path d="m24-9h2v-2h-2z" fill="#004c7f"/><path d="m24-9h2v-2h-2z" fill="none" stroke="#fff"/><path d="m24-9h2v-2h-2z" fill="none" stroke="#000"/><path d="m2-4h2v-2h-2z" fill="#004c7f"/><path d="m2-4h2v-2h-2z" fill="none" stroke="#fff"/><path d="m2-4h2v-2h-2z" fill="none" stroke="#000"/><path d="m46-4h2v-2h-2z" fill="#004c7f"/><path d="m46-4h2v-2h-2z" fill="none" stroke="#fff"/><path d="m46-4h2v-2h-2z" fill="none" stroke="#000"/><path d="m52 12h-7v-3h-5v3h-7v-3h-5v3h-7v-3h-5v3h-7v-3h-5v3h-7v-3h-4v6h64v-6h-5z" fill="#eebf00"/><path d="m52 12h-7v-3h-5v3h-7v-3h-5v3h-7v-3h-5v3h-7v-3h-5v3h-7v-3h-4v6h64v-6h-5z" fill="none" stroke="#fff"/><path d="m52 12h-7v-3h-5v3h-7v-3h-5v3h-7v-3h-5v3h-7v-3h-5v3h-7v-3h-4v6h64v-6h-5z" fill="none" stroke="#000"/><path d="m9-14h4v4h-20v-4h4v2h4v-2h4v2h4z" fill="#004c7f"/><path d="m9-14h4v4h-20v-4h4v2h4v-2h4v2h4z" fill="none" stroke="#fff"/><path d="m9-14h4v4h-20v-4h4v2h4v-2h4v2h4z" fill="none" stroke="#000"/><path d="m49 20v3h-3v-3z" fill="#004c7f"/><path d="m49 20v3h-3v-3z" fill="none" stroke="#fff"/><path d="m49 20v3h-3v-3z" fill="none" stroke="#000"/><path d="m25 37c1 0 5-2 4-2s-.9587-2.1319-.9793-4.066c-.0207-1.934-.0207 4.066-.0207-4.934s-6-9-6 0v5c0 2 0 4-1 4s3 2 4 2z" fill="#004c7f"/><path d="m25 37c1 0 5-2 4-2s-.9587-2.1319-.9793-4.066c-.0207-1.934-.0207 4.066-.0207-4.934s-6-9-6 0v5c0 2 0 4-1 4s3 2 4 2" fill="none" stroke="#000"/><path d="m59 35v5h-68v-5z" fill="#eebf00"/><g fill="none"><path d="m59 35v5h-68v-5z" stroke="#fff"/><path d="m59 35v5h-68v-5z" stroke="#000"/></g></g><g transform="matrix(.27644596 0 0 .27644596 413.069927 233.363986)"><path d="m-4-10h14v23h-14z" fill="#eebf00"/><path d="m-4-10h14v23h-14z" fill="none" stroke="#fff"/><path d="m-4-10h14v23h-14z" fill="none" stroke="#000"/><path d="m18-15h14v27h-14z" fill="#ffbf00"/><path d="m18-15h14v27h-14z" fill="none" stroke="#fff"/><path d="m18-15h14v27h-14z" fill="none" stroke="#000"/><path d="m40-10h14v22h-14z" fill="#eebf00"/><path d="m40-10h14v22h-14z" fill="none" stroke="#fff"/><path d="m40-10h14v22h-14z" fill="none" stroke="#000"/><path d="m31-19h4v4h-20v-4h4v2h4v-2h4v2h4z" fill="#004c7f"/><path d="m31-19h4v4h-20v-4h4v2h4v-2h4v2h4z" fill="none" stroke="#fff"/><path d="m31-19h4v4h-20v-4h4v2h4v-2h4v2h4z" fill="none" stroke="#000"/><path d="m-7 38 2-27 1 1h58l1-1 2 27z" fill="#eebf00"/><path d="m-7 38 2-27 1 1h58l1-1 2 27z" fill="none" stroke="#fff"/><path d="m-7 38 2-27 1 1h58l1-1 2 27z" fill="none" stroke="#000"/><path d="m53-14h4v4h-20v-4h4v2h4v-2h4v2h4z" fill="#004c7f"/><path d="m53-14h4v4h-20v-4h4v2h4v-2h4v2h4z" fill="none" stroke="#fff"/><path d="m53-14h4v4h-20v-4h4v2h4v-2h4v2h4z" fill="none" stroke="#000"/><path d="m5 20v3h-3v-3z" fill="#004c7f"/><path d="m5 20v3h-3v-3z" fill="none" stroke="#fff"/><path d="m5 20v3h-3v-3z" fill="none" stroke="#000"/><path d="m24-9h2v-2h-2z" fill="#004c7f"/><path d="m24-9h2v-2h-2z" fill="none" stroke="#fff"/><path d="m24-9h2v-2h-2z" fill="none" stroke="#000"/><path d="m2-4h2v-2h-2z" fill="#004c7f"/><path d="m2-4h2v-2h-2z" fill="none" stroke="#fff"/><path d="m2-4h2v-2h-2z" fill="none" stroke="#000"/><path d="m46-4h2v-2h-2z" fill="#004c7f"/><path d="m46-4h2v-2h-2z" fill="none" stroke="#fff"/><path d="m46-4h2v-2h-2z" fill="none" stroke="#000"/><path d="m52 12h-7v-3h-5v3h-7v-3h-5v3h-7v-3h-5v3h-7v-3h-5v3h-7v-3h-4v6h64v-6h-5z" fill="#eebf00"/><path d="m52 12h-7v-3h-5v3h-7v-3h-5v3h-7v-3h-5v3h-7v-3h-5v3h-7v-3h-4v6h64v-6h-5z" fill="none" stroke="#fff"/><path d="m52 12h-7v-3h-5v3h-7v-3h-5v3h-7v-3h-5v3h-7v-3h-5v3h-7v-3h-4v6h64v-6h-5z" fill="none" stroke="#000"/><path d="m9-14h4v4h-20v-4h4v2h4v-2h4v2h4z" fill="#004c7f"/><path d="m9-14h4v4h-20v-4h4v2h4v-2h4v2h4z" fill="none" stroke="#fff"/><path d="m9-14h4v4h-20v-4h4v2h4v-2h4v2h4z" fill="none" stroke="#000"/><path d="m49 20v3h-3v-3z" fill="#004c7f"/><path d="m49 20v3h-3v-3z" fill="none" stroke="#fff"/><path d="m49 20v3h-3v-3z" fill="none" stroke="#000"/><path d="m25 37c1 0 5-2 4-2s-.9587-2.1319-.9793-4.066c-.0207-1.934-.0207 4.066-.0207-4.934s-6-9-6 0v5c0 2 0 4-1 4s3 2 4 2z" fill="#004c7f"/><path d="m25 37c1 0 5-2 4-2s-.9587-2.1319-.9793-4.066c-.0207-1.934-.0207 4.066-.0207-4.934s-6-9-6 0v5c0 2 0 4-1 4s3 2 4 2" fill="none" stroke="#000"/><path d="m59 35v5h-68v-5z" fill="#eebf00"/><g fill="none"><path d="m59 35v5h-68v-5z" stroke="#fff"/><path d="m59 35v5h-68v-5z" stroke="#000"/></g></g><g transform="matrix(.27644596 0 0 .27644596 413.069927 281.949106)"><path d="m-4-10h14v23h-14z" fill="#eebf00"/><path d="m-4-10h14v23h-14z" fill="none" stroke="#fff"/><path d="m-4-10h14v23h-14z" fill="none" stroke="#000"/><path d="m18-15h14v27h-14z" fill="#eebf00"/><path d="m18-15h14v27h-14z" fill="none" stroke="#fff"/><path d="m18-15h14v27h-14z" fill="none" stroke="#000"/><path d="m40-10h14v22h-14z" fill="#eebf00"/><path d="m40-10h14v22h-14z" fill="none" stroke="#fff"/><path d="m40-10h14v22h-14z" fill="none" stroke="#000"/><path d="m31-19h4v4h-20v-4h4v2h4v-2h4v2h4z" fill="#004c7f"/><path d="m31-19h4v4h-20v-4h4v2h4v-2h4v2h4z" fill="none" stroke="#fff"/><path d="m31-19h4v4h-20v-4h4v2h4v-2h4v2h4z" fill="none" stroke="#000"/><path d="m-7 38 2-27 1 1h58l1-1 2 27z" fill="#eebf00"/><path d="m-7 38 2-27 1 1h58l1-1 2 27z" fill="none" stroke="#fff"/><path d="m-7 38 2-27 1 1h58l1-1 2 27z" fill="none" stroke="#000"/><path d="m53-14h4v4h-20v-4h4v2h4v-2h4v2h4z" fill="#004c7f"/><path d="m53-14h4v4h-20v-4h4v2h4v-2h4v2h4z" fill="none" stroke="#fff"/><path d="m53-14h4v4h-20v-4h4v2h4v-2h4v2h4z" fill="none" stroke="#000"/><path d="m5 20v3h-3v-3z" fill="#004c7f"/><path d="m5 20v3h-3v-3z" fill="none" stroke="#fff"/><path d="m5 20v3h-3v-3z" fill="none" stroke="#000"/><path d="m24-9h2v-2h-2z" fill="#004c7f"/><path d="m24-9h2v-2h-2z" fill="none" stroke="#fff"/><path d="m24-9h2v-2h-2z" fill="none" stroke="#000"/><path d="m2-4h2v-2h-2z" fill="#004c7f"/><path d="m2-4h2v-2h-2z" fill="none" stroke="#fff"/><path d="m2-4h2v-2h-2z" fill="none" stroke="#000"/><path d="m46-4h2v-2h-2z" fill="#004c7f"/><path d="m46-4h2v-2h-2z" fill="none" stroke="#fff"/><path d="m46-4h2v-2h-2z" fill="none" stroke="#000"/><path d="m52 12h-7v-3h-5v3h-7v-3h-5v3h-7v-3h-5v3h-7v-3h-5v3h-7v-3h-4v6h64v-6h-5z" fill="#eebf00"/><path d="m52 12h-7v-3h-5v3h-7v-3h-5v3h-7v-3h-5v3h-7v-3h-5v3h-7v-3h-4v6h64v-6h-5z" fill="none" stroke="#fff"/><path d="m52 12h-7v-3h-5v3h-7v-3h-5v3h-7v-3h-5v3h-7v-3h-5v3h-7v-3h-4v6h64v-6h-5z" fill="none" stroke="#000"/><path d="m9-14h4v4h-20v-4h4v2h4v-2h4v2h4z" fill="#004c7f"/><path d="m9-14h4v4h-20v-4h4v2h4v-2h4v2h4z" fill="none" stroke="#fff"/><path d="m9-14h4v4h-20v-4h4v2h4v-2h4v2h4z" fill="none" stroke="#000"/><path d="m49 20v3h-3v-3z" fill="#004c7f"/><path d="m49 20v3h-3v-3z" fill="none" stroke="#fff"/><path d="m49 20v3h-3v-3z" fill="none" stroke="#000"/><path d="m25 37c1 0 5-2 4-2s-.9587-2.1319-.9793-4.066c-.0207-1.934-.0207 4.066-.0207-4.934s-6-9-6 0v5c0 2 0 4-1 4s3 2 4 2z" fill="#004c7f"/><path d="m25 37c1 0 5-2 4-2s-.9587-2.1319-.9793-4.066c-.0207-1.934-.0207 4.066-.0207-4.934s-6-9-6 0v5c0 2 0 4-1 4s3 2 4 2" fill="none" stroke="#000"/><path d="m59 35v5h-68v-5z" fill="#eebf00"/><g fill="none"><path d="m59 35v5h-68v-5z" stroke="#fff"/><path d="m59 35v5h-68v-5z" stroke="#000"/></g></g><g transform="matrix(.24178505 -.13402365 .13402365 .24178505 328.814923 333.895146)"><path d="m-4-10h14v23h-14z" fill="#eebf00"/><path d="m-4-10h14v23h-14z" fill="none" stroke="#fff"/><path d="m-4-10h14v23h-14z" fill="none" stroke="#000"/><path d="m18-15h14v27h-14z" fill="#eebf00"/><path d="m18-15h14v27h-14z" fill="none" stroke="#fff"/><path d="m18-15h14v27h-14z" fill="none" stroke="#000"/><path d="m40-10h14v22h-14z" fill="#eebf00"/><path d="m40-10h14v22h-14z" fill="none" stroke="#fff"/><path d="m40-10h14v22h-14z" fill="none" stroke="#000"/><path d="m31-19h4v4h-20v-4h4v2h4v-2h4v2h4z" fill="#004c7f"/><path d="m31-19h4v4h-20v-4h4v2h4v-2h4v2h4z" fill="none" stroke="#fff"/><path d="m31-19h4v4h-20v-4h4v2h4v-2h4v2h4z" fill="none" stroke="#000"/><path d="m-7 38 2-27 1 1h58l1-1 2 27z" fill="#eebf00"/><path d="m-7 38 2-27 1 1h58l1-1 2 27z" fill="none" stroke="#fff"/><path d="m-7 38 2-27 1 1h58l1-1 2 27z" fill="none" stroke="#000"/><path d="m53-14h4v4h-20v-4h4v2h4v-2h4v2h4z" fill="#004c7f"/><path d="m53-14h4v4h-20v-4h4v2h4v-2h4v2h4z" fill="none" stroke="#fff"/><path d="m53-14h4v4h-20v-4h4v2h4v-2h4v2h4z" fill="none" stroke="#000"/><path d="m5 20v3h-3v-3z" fill="#004c7f"/><path d="m5 20v3h-3v-3z" fill="none" stroke="#fff"/><path d="m5 20v3h-3v-3z" fill="none" stroke="#000"/><path d="m24-9h2v-2h-2z" fill="#004c7f"/><path d="m24-9h2v-2h-2z" fill="none" stroke="#fff"/><path d="m24-9h2v-2h-2z" fill="none" stroke="#000"/><path d="m2-4h2v-2h-2z" fill="#004c7f"/><path d="m2-4h2v-2h-2z" fill="none" stroke="#fff"/><path d="m2-4h2v-2h-2z" fill="none" stroke="#000"/><path d="m46-4h2v-2h-2z" fill="#004c7f"/><path d="m46-4h2v-2h-2z" fill="none" stroke="#fff"/><path d="m46-4h2v-2h-2z" fill="none" stroke="#000"/><path d="m52 12h-7v-3h-5v3h-7v-3h-5v3h-7v-3h-5v3h-7v-3h-5v3h-7v-3h-4v6h64v-6h-5z" fill="#eebf00"/><path d="m52 12h-7v-3h-5v3h-7v-3h-5v3h-7v-3h-5v3h-7v-3h-5v3h-7v-3h-4v6h64v-6h-5z" fill="none" stroke="#fff"/><path d="m52 12h-7v-3h-5v3h-7v-3h-5v3h-7v-3h-5v3h-7v-3h-5v3h-7v-3h-4v6h64v-6h-5z" fill="none" stroke="#000"/><path d="m9-14h4v4h-20v-4h4v2h4v-2h4v2h4z" fill="#004c7f"/><path d="m9-14h4v4h-20v-4h4v2h4v-2h4v2h4z" fill="none" stroke="#fff"/><path d="m9-14h4v4h-20v-4h4v2h4v-2h4v2h4z" fill="none" stroke="#000"/><path d="m49 20v3h-3v-3z" fill="#004c7f"/><path d="m49 20v3h-3v-3z" fill="none" stroke="#fff"/><path d="m49 20v3h-3v-3z" fill="none" stroke="#000"/><path d="m25 37c1 0 5-2 4-2s-.9587-2.1319-.9793-4.066c-.0207-1.934-.0207 4.066-.0207-4.934s-6-9-6 0v5c0 2 0 4-1 4s3 2 4 2z" fill="#004c7f"/><path d="m25 37c1 0 5-2 4-2s-.9587-2.1319-.9793-4.066c-.0207-1.934-.0207 4.066-.0207-4.934s-6-9-6 0v5c0 2 0 4-1 4s3 2 4 2" fill="none" stroke="#000"/><path d="m59 35v5h-68v-5z" fill="#eebf00"/><g fill="none"><path d="m59 35v5h-68v-5z" stroke="#fff"/><path d="m59 35v5h-68v-5z" stroke="#000"/></g></g><g transform="matrix(.24178505 .13402365 -.13402365 .24178505 408.348871 327.139909)"><path d="m-4-10h14v23h-14z" fill="#eebf00"/><path d="m-4-10h14v23h-14z" fill="none" stroke="#fff"/><path d="m-4-10h14v23h-14z" fill="none" stroke="#000"/><path d="m18-15h14v27h-14z" fill="#eebf00"/><path d="m18-15h14v27h-14z" fill="none" stroke="#fff"/><path d="m18-15h14v27h-14z" fill="none" stroke="#000"/><path d="m40-10h14v22h-14z" fill="#eebf00"/><path d="m40-10h14v22h-14z" fill="none" stroke="#fff"/><path d="m40-10h14v22h-14z" fill="none" stroke="#000"/><path d="m31-19h4v4h-20v-4h4v2h4v-2h4v2h4z" fill="#004c7f"/><path d="m31-19h4v4h-20v-4h4v2h4v-2h4v2h4z" fill="none" stroke="#fff"/><path d="m31-19h4v4h-20v-4h4v2h4v-2h4v2h4z" fill="none" stroke="#000"/><path d="m-7 38 2-27 1 1h58l1-1 2 27z" fill="#eebf00"/><path d="m-7 38 2-27 1 1h58l1-1 2 27z" fill="none" stroke="#fff"/><path d="m-7 38 2-27 1 1h58l1-1 2 27z" fill="none" stroke="#000"/><path d="m53-14h4v4h-20v-4h4v2h4v-2h4v2h4z" fill="#004c7f"/><path d="m53-14h4v4h-20v-4h4v2h4v-2h4v2h4z" fill="none" stroke="#fff"/><path d="m53-14h4v4h-20v-4h4v2h4v-2h4v2h4z" fill="none" stroke="#000"/><path d="m5 20v3h-3v-3z" fill="#004c7f"/><path d="m5 20v3h-3v-3z" fill="none" stroke="#fff"/><path d="m5 20v3h-3v-3z" fill="none" stroke="#000"/><path d="m24-9h2v-2h-2z" fill="#004c7f"/><path d="m24-9h2v-2h-2z" fill="none" stroke="#fff"/><path d="m24-9h2v-2h-2z" fill="none" stroke="#000"/><path d="m2-4h2v-2h-2z" fill="#004c7f"/><path d="m2-4h2v-2h-2z" fill="none" stroke="#fff"/><path d="m2-4h2v-2h-2z" fill="none" stroke="#000"/><path d="m46-4h2v-2h-2z" fill="#004c7f"/><path d="m46-4h2v-2h-2z" fill="none" stroke="#fff"/><path d="m46-4h2v-2h-2z" fill="none" stroke="#000"/><path d="m52 12h-7v-3h-5v3h-7v-3h-5v3h-7v-3h-5v3h-7v-3h-5v3h-7v-3h-4v6h64v-6h-5z" fill="#eebf00"/><path d="m52 12h-7v-3h-5v3h-7v-3h-5v3h-7v-3h-5v3h-7v-3h-5v3h-7v-3h-4v6h64v-6h-5z" fill="none" stroke="#fff"/><path d="m52 12h-7v-3h-5v3h-7v-3h-5v3h-7v-3h-5v3h-7v-3h-5v3h-7v-3h-4v6h64v-6h-5z" fill="none" stroke="#000"/><path d="m9-14h4v4h-20v-4h4v2h4v-2h4v2h4z" fill="#004c7f"/><path d="m9-14h4v4h-20v-4h4v2h4v-2h4v2h4z" fill="none" stroke="#fff"/><path d="m9-14h4v4h-20v-4h4v2h4v-2h4v2h4z" fill="none" stroke="#000"/><path d="m49 20v3h-3v-3z" fill="#004c7f"/><path d="m49 20v3h-3v-3z" fill="none" stroke="#fff"/><path d="m49 20v3h-3v-3z" fill="none" stroke="#000"/><path d="m25 37c1 0 5-2 4-2s-.9587-2.1319-.9793-4.066c-.0207-1.934-.0207 4.066-.0207-4.934s-6-9-6 0v5c0 2 0 4-1 4s3 2 4 2z" fill="#004c7f"/><path d="m25 37c1 0 5-2 4-2s-.9587-2.1319-.9793-4.066c-.0207-1.934-.0207 4.066-.0207-4.934s-6-9-6 0v5c0 2 0 4-1 4s3 2 4 2" fill="none" stroke="#000"/><path d="m59 35v5h-68v-5z" fill="#eebf00"/><g fill="none"><path d="m59 35v5h-68v-5z" stroke="#fff"/><path d="m59 35v5h-68v-5z" stroke="#000"/></g></g><g transform="matrix(.27644596 0 0 .27644596 367.215178 351.861773)"><path d="m-4-10h14v23h-14z" fill="#eebf00"/><path d="m-4-10h14v23h-14z" fill="none" stroke="#fff"/><path d="m-4-10h14v23h-14z" fill="none" stroke="#000"/><path d="m18-15h14v27h-14z" fill="#eebf00"/><path d="m18-15h14v27h-14z" fill="none" stroke="#fff"/><path d="m18-15h14v27h-14z" fill="none" stroke="#000"/><path d="m40-10h14v22h-14z" fill="#eebf00"/><path d="m40-10h14v22h-14z" fill="none" stroke="#fff"/><path d="m40-10h14v22h-14z" fill="none" stroke="#000"/><path d="m31-19h4v4h-20v-4h4v2h4v-2h4v2h4z" fill="#004c7f"/><path d="m31-19h4v4h-20v-4h4v2h4v-2h4v2h4z" fill="none" stroke="#fff"/><path d="m31-19h4v4h-20v-4h4v2h4v-2h4v2h4z" fill="none" stroke="#000"/><path d="m-7 38 2-27 1 1h58l1-1 2 27z" fill="#eebf00"/><path d="m-7 38 2-27 1 1h58l1-1 2 27z" fill="none" stroke="#fff"/><path d="m-7 38 2-27 1 1h58l1-1 2 27z" fill="none" stroke="#000"/><path d="m53-14h4v4h-20v-4h4v2h4v-2h4v2h4z" fill="#004c7f"/><path d="m53-14h4v4h-20v-4h4v2h4v-2h4v2h4z" fill="none" stroke="#fff"/><path d="m53-14h4v4h-20v-4h4v2h4v-2h4v2h4z" fill="none" stroke="#000"/><path d="m5 20v3h-3v-3z" fill="#004c7f"/><path d="m5 20v3h-3v-3z" fill="none" stroke="#fff"/><path d="m5 20v3h-3v-3z" fill="none" stroke="#000"/><path d="m24-9h2v-2h-2z" fill="#004c7f"/><path d="m24-9h2v-2h-2z" fill="none" stroke="#fff"/><path d="m24-9h2v-2h-2z" fill="none" stroke="#000"/><path d="m2-4h2v-2h-2z" fill="#004c7f"/><path d="m2-4h2v-2h-2z" fill="none" stroke="#fff"/><path d="m2-4h2v-2h-2z" fill="none" stroke="#000"/><path d="m46-4h2v-2h-2z" fill="#004c7f"/><path d="m46-4h2v-2h-2z" fill="none" stroke="#fff"/><path d="m46-4h2v-2h-2z" fill="none" stroke="#000"/><path d="m52 12h-7v-3h-5v3h-7v-3h-5v3h-7v-3h-5v3h-7v-3h-5v3h-7v-3h-4v6h64v-6h-5z" fill="#eebf00"/><path d="m52 12h-7v-3h-5v3h-7v-3h-5v3h-7v-3h-5v3h-7v-3h-5v3h-7v-3h-4v6h64v-6h-5z" fill="none" stroke="#fff"/><path d="m52 12h-7v-3h-5v3h-7v-3h-5v3h-7v-3h-5v3h-7v-3h-5v3h-7v-3h-4v6h64v-6h-5z" fill="none" stroke="#000"/><path d="m9-14h4v4h-20v-4h4v2h4v-2h4v2h4z" fill="#004c7f"/><path d="m9-14h4v4h-20v-4h4v2h4v-2h4v2h4z" fill="none" stroke="#fff"/><path d="m9-14h4v4h-20v-4h4v2h4v-2h4v2h4z" fill="none" stroke="#000"/><path d="m49 20v3h-3v-3z" fill="#004c7f"/><path d="m49 20v3h-3v-3z" fill="none" stroke="#fff"/><path d="m49 20v3h-3v-3z" fill="none" stroke="#000"/><path d="m25 37c1 0 5-2 4-2s-.9587-2.1319-.9793-4.066c-.0207-1.934-.0207 4.066-.0207-4.934s-6-9-6 0v5c0 2 0 4-1 4s3 2 4 2z" fill="#004c7f"/><path d="m25 37c1 0 5-2 4-2s-.9587-2.1319-.9793-4.066c-.0207-1.934-.0207 4.066-.0207-4.934s-6-9-6 0v5c0 2 0 4-1 4s3 2 4 2" fill="none" stroke="#000"/><path d="m59 35v5h-68v-5z" fill="#eebf00"/><g fill="none"><path d="m59 35v5h-68v-5z" stroke="#fff"/><path d="m59 35v5h-68v-5z" stroke="#000"/></g></g><g fill="#dfdbd7" fill-rule="evenodd" stroke="#87665c" stroke-dashoffset="1" stroke-linecap="square"><path d="m335.21003 907.00269a34.804852 51.837009 0 1 1 -69.6097 0 34.804852 51.837009 0 1 1 69.6097 0z" stroke-linejoin="round" stroke-width="24.969" transform="matrix(.07712903 .02742337 -.01376654 .03871857 408.093531 166.463954)"/><path d="m335.21003 907.00269a34.804852 51.837009 0 1 1 -69.6097 0 34.804852 51.837009 0 1 1 69.6097 0z" stroke-linejoin="round" stroke-width="34.539001" transform="matrix(.06013943 .01060997 -.0068424 .02611752 378.342597 178.553769)"/><g stroke-linejoin="bevel"><path d="m335.21003 907.00269a34.804852 51.837009 0 1 1 -69.6097 0 34.804852 51.837009 0 1 1 69.6097 0z" stroke-width="34.539001" transform="matrix(.06115148 -.00246623 -.00038258 .02876476 343.757076 179.881533)"/><path d="m335.21003 907.00269a34.804852 51.837009 0 1 1 -69.6097 0 34.804852 51.837009 0 1 1 69.6097 0z" stroke-width="24.969" transform="matrix(.0793288 -.0201962 .01013849 .03982293 301.134456 179.96356)"/></g></g><g fill="#eebf00" stroke-linejoin="round" stroke-width="1.875" transform="matrix(.77237242 0 0 .77237242 27.432394 18.288874)"><path d="m375.6074 242.0918c0 .0327 41.995-12.64 74.4729-12.64s75.0913 12.4517 75.1242 12.7056l-.7287 2.4697s-41.3772-11.7206-73.8551-11.7206c-32.4778 0-75.2343 12.3836-75.2343 12.6045z" stroke="#87675c"/><path d="m375.1983 259.5398c.033.2536 42.4041-10.1764 74.882-10.1764 32.478 0 73.8879 9.6029 73.6669 9.3492l.0001 4.0254c.5077-.5076-41.3534-9.8541-73.8313-9.8541-32.4778 0-75.2252 9.8543-75.0042 10.0751z" stroke="#87675d"/></g></svg>